// Created by Crowbar 0.74
version 1
nodes
  0 "ValveBiped.Bip01_Pelvis" -1
  1 "ValveBiped.Bip01_Spine" 0
  2 "ValveBiped.Bip01_Spine1" 1
  3 "ValveBiped.Bip01_Spine2" 2
  4 "ValveBiped.Bip01_Spine4" 3
  5 "ValveBiped.Bip01_Neck1" 4
  6 "ValveBiped.Bip01_Head1" 5
  7 "ValveBiped.forward" 6
  8 "ValveBiped.Bip01_R_Clavicle" 4
  9 "ValveBiped.Bip01_R_UpperArm" 8
  10 "ValveBiped.Bip01_R_Forearm" 9
  11 "ValveBiped.Bip01_R_Hand" 10
  12 "ValveBiped.Anim_Attachment_RH" 11
  13 "ValveBiped.Bip01_L_Clavicle" 4
  14 "ValveBiped.Bip01_L_UpperArm" 13
  15 "ValveBiped.Bip01_L_Forearm" 14
  16 "ValveBiped.Bip01_L_Hand" 15
  17 "ValveBiped.Anim_Attachment_LH" 16
  18 "ValveBiped.Bip01_R_Thigh" 0
  19 "ValveBiped.Bip01_R_Calf" 18
  20 "ValveBiped.Bip01_R_Foot" 19
  21 "ValveBiped.Bip01_R_Toe0" 20
  22 "ValveBiped.Bip01_L_Thigh" 0
  23 "ValveBiped.Bip01_L_Calf" 22
  24 "ValveBiped.Bip01_L_Foot" 23
  25 "ValveBiped.Bip01_L_Toe0" 24
  26 "ValveBiped.Bip01_L_Finger4" 16
  27 "ValveBiped.Bip01_L_Finger41" 26
  28 "ValveBiped.Bip01_L_Finger42" 27
  29 "ValveBiped.Bip01_L_Finger3" 16
  30 "ValveBiped.Bip01_L_Finger31" 29
  31 "ValveBiped.Bip01_L_Finger32" 30
  32 "ValveBiped.Bip01_L_Finger2" 16
  33 "ValveBiped.Bip01_L_Finger21" 32
  34 "ValveBiped.Bip01_L_Finger22" 33
  35 "ValveBiped.Bip01_L_Finger1" 16
  36 "ValveBiped.Bip01_L_Finger11" 35
  37 "ValveBiped.Bip01_L_Finger12" 36
  38 "ValveBiped.Bip01_L_Finger0" 16
  39 "ValveBiped.Bip01_L_Finger01" 38
  40 "ValveBiped.Bip01_L_Finger02" 39
  41 "ValveBiped.Bip01_R_Finger4" 11
  42 "ValveBiped.Bip01_R_Finger41" 41
  43 "ValveBiped.Bip01_R_Finger42" 42
  44 "ValveBiped.Bip01_R_Finger3" 11
  45 "ValveBiped.Bip01_R_Finger31" 44
  46 "ValveBiped.Bip01_R_Finger32" 45
  47 "ValveBiped.Bip01_R_Finger2" 11
  48 "ValveBiped.Bip01_R_Finger21" 47
  49 "ValveBiped.Bip01_R_Finger22" 48
  50 "ValveBiped.Bip01_R_Finger1" 11
  51 "ValveBiped.Bip01_R_Finger11" 50
  52 "ValveBiped.Bip01_R_Finger12" 51
  53 "ValveBiped.Bip01_R_Finger0" 11
  54 "ValveBiped.Bip01_R_Finger01" 53
  55 "ValveBiped.Bip01_R_Finger02" 54
  56 "ValveBiped.Bip01_L_Ulna" 15
  57 "ValveBiped.Bip01_L_Wrist" 15
  58 "ValveBiped.Bip01_L_Elbow" 14
  59 "ValveBiped.Bip01_L_Bicep" 14
  60 "ValveBiped.Bip01_L_Shoulder" 14
  61 "ValveBiped.Bip01_L_Trapezius" 13
  62 "ValveBiped.Bip01_R_Ulna" 10
  63 "ValveBiped.Bip01_R_Wrist" 10
  64 "ValveBiped.Bip01_R_Elbow" 9
  65 "ValveBiped.Bip01_R_Bicep" 9
  66 "ValveBiped.Bip01_R_Shoulder" 9
  67 "ValveBiped.Bip01_R_Trapezius" 8
  68 "ValveBiped.Bip01_L_Latt" 3
  69 "ValveBiped.Bip01_R_Latt" 3
end
skeleton
  time 0
    0 -0.000005 -0.533615 38.566917 1.570796 0.000000 0.000000
    1 0.000005 3.345128 -2.981901 1.570796 0.086293 1.570796
    2 4.018331 0.000000 0.000000 0.000000 0.000000 -0.029242
    3 3.518568 0.000000 0.000000 0.000000 0.000000 0.100336
    4 8.942642 0.000000 0.000000 0.000000 0.000000 0.194096
    5 3.307271 0.000000 0.000000 3.141590 0.000000 0.400478
    6 3.593712 -0.000002 0.000000 0.000000 -0.000001 0.406587
    7 1.999998 -3.000001 0.000000 -1.570796 0.000000 -1.326450
    8 2.033353 1.000771 -1.937610 -1.668474 1.286518 2.942953
    9 6.028142 0.000005 0.000000 1.639479 -0.008065 -0.586846
    10 11.692548 0.000000 0.000000 0.000000 0.000000 -0.060372
    11 11.481695 0.000000 0.000003 -1.564937 0.106606 0.044193
    12 2.676085 -1.712441 0.000000 -1.570796 0.000000 -1.570796
    13 2.033346 1.000767 1.937660 1.596637 -1.286515 2.942961
    14 6.028142 0.000001 0.000000 -1.579612 0.047801 -0.585173
    15 11.692555 0.000000 0.000002 0.000000 0.000000 -0.060372
    16 11.481675 0.000000 -0.000029 1.573183 -0.106613 0.044193
    17 2.676088 -1.712441 0.000000 1.570797 0.000000 1.570796
    18 -3.890452 0.000004 0.000007 -1.570796 0.051845 -1.576021
    19 17.848171 0.000000 0.000000 0.000000 0.000000 0.034187
    20 16.525253 0.000000 0.000000 0.038611 0.040779 -1.071632
    21 6.879453 0.000000 0.000000 -0.081333 -0.002951 -0.584373
    22 3.890452 -0.000004 -0.000003 -1.570796 0.051839 -1.565574
    23 17.848175 0.000000 0.000000 0.000000 0.000000 0.034200
    24 16.525248 0.000000 0.000000 -0.027915 -0.040782 -1.071638
    25 6.879448 -0.000001 0.000001 -0.007299 -0.002951 -0.584373
    26 3.859704 -0.142405 -1.191975 -0.479144 0.152190 -0.879874
    27 1.312562 0.000000 0.000000 0.000000 0.009665 -0.439720
    28 0.729363 0.000001 0.000000 0.000000 0.004971 -0.244300
    29 3.942326 0.046773 -0.431444 -0.155014 0.073328 -0.810648
    30 1.539093 0.000003 0.000000 0.000000 0.004460 -0.247797
    31 1.196322 0.000000 0.000000 0.000000 0.007361 -0.430803
    32 3.883690 -0.046770 0.431444 0.085902 0.021830 -0.587866
    33 1.719575 0.000000 -0.000001 0.000000 0.005516 -0.366478
    34 1.209181 0.000002 0.000000 0.000000 0.003084 -0.216400
    35 3.859859 -0.137948 1.332467 0.354449 -0.042750 -0.531718
    36 1.719429 0.000000 0.000000 0.000000 0.004074 -0.363009
    37 1.099666 0.000000 -0.000001 0.000000 0.002597 -0.244331
    38 0.806048 -0.348922 1.321259 -1.206854 -0.679489 -0.789308
    39 1.789783 -0.000001 0.000001 0.000000 0.007386 0.228523
    40 1.206999 -0.000001 0.000000 0.000000 0.011266 0.362860
    41 3.859669 -0.132568 1.193107 0.479140 -0.158545 -0.879041
    42 1.312562 0.000000 0.000000 0.000000 -0.011932 -0.439672
    43 0.729362 0.000000 0.000000 0.000000 -0.006134 -0.244271
    44 3.942292 0.050329 0.431043 0.154999 -0.079305 -0.810205
    45 1.539091 0.000000 0.000000 0.000000 -0.005854 -0.247771
    46 1.196322 -0.000001 0.000000 0.000000 -0.009663 -0.430761
    47 3.883654 -0.050327 -0.431043 -0.085905 -0.026404 -0.587695
    48 1.719576 0.000003 0.000000 0.000000 -0.007974 -0.366436
    49 1.209180 -0.000002 0.000000 0.000000 -0.004461 -0.216376
    50 3.859828 -0.148937 -1.331281 -0.354419 0.038567 -0.532001
    51 1.719426 -0.000001 0.000000 0.000000 -0.006613 -0.362970
    52 1.099664 0.000001 0.000000 0.000000 -0.004211 -0.244313
    53 0.806015 -0.359835 -1.318333 1.204200 0.673618 -0.793956
    54 1.789783 0.000000 0.000002 0.000000 -0.006301 0.228555
    55 1.207000 0.000000 0.000001 0.000000 -0.009618 0.362905
    56 5.740851 0.000000 0.000001 0.000688 0.000000 0.000000
    57 11.481698 0.000000 0.000004 0.001272 0.000000 0.000000
    58 11.692554 0.000000 0.000002 0.000000 0.000000 -0.029500
    59 5.560001 0.000000 0.000001 0.000000 0.000000 0.000000
    60 1.499998 0.000000 0.000002 0.000000 0.000000 0.000000
    61 5.166963 0.000000 0.000000 0.000000 0.000000 0.000000
    62 5.740847 0.000000 0.000000 0.000081 0.000000 0.000000
    63 11.481693 0.000000 -0.000001 0.000150 0.000000 0.000000
    64 11.692549 0.000000 -0.000001 0.000000 0.000000 -0.029500
    65 5.559996 0.000000 -0.000002 0.000000 0.000000 0.000000
    66 1.499999 0.000000 0.000000 0.000000 0.000000 0.000000
    67 5.166963 0.000003 0.000000 0.000000 0.000000 0.000000
    68 2.078776 1.478775 5.000000 0.000000 0.000000 0.000000
    69 2.078837 1.478835 -5.000000 0.000000 0.000000 0.000000
end
triangles
gman_briefcase
  11 -26.050358 -2.502101 36.241081 -0.131052 -0.991210 -0.018117 0.165782 0.706527 1 11 1.000000
  11 -25.284695 -2.598287 35.965015 -0.131052 -0.991210 -0.018117 0.284810 0.770609 1 11 1.000000
  11 -25.915392 -2.523367 36.428272 -0.131052 -0.991210 -0.018117 0.167466 0.770609 1 11 1.000000
gman_briefcase
  11 -26.050358 -2.502101 36.241081 -0.131052 -0.991210 -0.018117 0.165782 0.706527 1 11 1.000000
  11 -25.419662 -2.577020 35.777828 -0.131052 -0.991210 -0.018117 0.341660 0.706527 1 11 1.000000
  11 -25.284695 -2.598287 35.965015 -0.131052 -0.991210 -0.018117 0.284810 0.770609 1 11 1.000000
gman_briefcase
  11 -32.604855 11.229774 26.977804 -0.841548 0.165567 0.514183 0.742976 0.105686 1 11 1.000000
  11 -27.557398 -5.872544 36.615536 -0.753296 0.023884 0.657248 0.130654 0.578119 1 11 1.000000
  11 -25.445372 10.101696 36.907505 -0.736746 0.149054 0.659536 0.742976 0.578119 1 11 1.000000
gman_briefcase
  11 -32.604855 11.229774 26.977804 -0.841548 0.165567 0.514183 0.742976 0.105686 1 11 1.000000
  11 -34.716881 -4.744466 26.685833 -0.858097 0.040397 0.511896 0.130654 0.105686 1 11 1.000000
  11 -27.557398 -5.872544 36.615536 -0.753296 0.023884 0.657248 0.130654 0.578119 1 11 1.000000
gman_briefcase
  11 -34.889889 -5.176208 26.372595 -0.812634 -0.091887 0.575484 0.089421 0.072952 1 11 1.000000
  11 -27.557398 -5.872544 36.615536 -0.753296 0.023884 0.657248 0.130654 0.578119 1 11 1.000000
  11 -34.716881 -4.744466 26.685833 -0.858097 0.040397 0.511896 0.130654 0.105686 1 11 1.000000
gman_briefcase
  11 -34.889889 -5.176208 26.372595 -0.812634 -0.091887 0.575484 0.089421 0.072952 1 11 1.000000
  11 -27.364498 -6.361941 36.809784 -0.724986 -0.012420 0.688652 0.089421 0.610853 1 11 1.000000
  11 -27.557398 -5.872544 36.615536 -0.753296 0.023884 0.657248 0.130654 0.578119 1 11 1.000000
gman_briefcase
  11 -27.364498 -6.361941 36.809784 -0.724986 -0.012420 0.688652 0.089421 0.610853 1 11 1.000000
  11 -25.445372 10.101696 36.907505 -0.736746 0.149054 0.659536 0.742976 0.578119 1 11 1.000000
  11 -27.557398 -5.872544 36.615536 -0.753296 0.023884 0.657248 0.130654 0.578119 1 11 1.000000
gman_briefcase
  11 -27.364498 -6.361941 36.809784 -0.724986 -0.012420 0.688652 0.089421 0.610853 1 11 1.000000
  11 -25.132875 10.516870 37.118290 -0.700126 0.175605 0.692088 0.786598 0.610853 1 11 1.000000
  11 -25.445372 10.101696 36.907505 -0.736746 0.149054 0.659536 0.742976 0.578119 1 11 1.000000
gman_briefcase
  11 -32.604855 11.229774 26.977804 -0.841548 0.165567 0.514183 0.742976 0.105686 1 11 1.000000
  11 -25.445372 10.101696 36.907505 -0.736746 0.149054 0.659536 0.742976 0.578119 1 11 1.000000
  11 -25.132875 10.516870 37.118290 -0.700126 0.175605 0.692088 0.786598 0.610853 1 11 1.000000
gman_briefcase
  11 -32.604855 11.229774 26.977804 -0.841548 0.165567 0.514183 0.742976 0.105686 1 11 1.000000
  11 -25.132875 10.516870 37.118290 -0.700126 0.175605 0.692088 0.786598 0.610853 1 11 1.000000
  11 -32.658264 11.702600 26.681099 -0.857556 0.200410 0.473744 0.786598 0.072952 1 11 1.000000
gman_briefcase
  11 -34.716881 -4.744466 26.685833 -0.858097 0.040397 0.511896 0.130654 0.105686 1 11 1.000000
  11 -32.604855 11.229774 26.977804 -0.841548 0.165567 0.514183 0.742976 0.105686 1 11 1.000000
  11 -32.658264 11.702600 26.681099 -0.857556 0.200410 0.473744 0.786598 0.072952 1 11 1.000000
gman_briefcase
  11 -34.716881 -4.744466 26.685833 -0.858097 0.040397 0.511896 0.130654 0.105686 1 11 1.000000
  11 -32.658264 11.702600 26.681099 -0.857556 0.200410 0.473744 0.786598 0.072952 1 11 1.000000
  11 -34.889889 -5.176208 26.372595 -0.928544 0.116324 0.352525 0.089421 0.072952 1 11 1.000000
gman_briefcase
  11 -24.655996 4.514839 36.485111 0.627704 0.773578 -0.086975 0.947194 0.738344 1 11 1.000000
  11 -24.820866 4.901150 36.198174 0.501290 0.643553 0.578401 0.988081 0.693173 1 11 1.000000
  11 -24.935133 4.914724 36.282104 0.501290 0.643553 0.578401 0.988081 0.693173 1 11 1.000000
gman_briefcase
  11 -24.021278 4.427789 37.226067 0.525826 0.850459 -0.015007 0.948379 0.859734 1 11 1.000000
  11 -24.655996 4.514839 36.485111 0.627704 0.773578 -0.086975 0.947194 0.738344 1 11 1.000000
  11 -24.770264 4.528413 36.569042 -0.144293 0.865283 0.480067 0.947194 0.738344 1 11 1.000000
gman_briefcase
  11 -24.655996 4.514839 36.485111 0.627704 0.773578 -0.086975 0.947194 0.738344 1 11 1.000000
  11 -24.935133 4.914724 36.282104 0.501290 0.643553 0.578401 0.988081 0.693173 1 11 1.000000
  11 -24.770264 4.528413 36.569042 -0.144293 0.865283 0.480067 0.947194 0.738344 1 11 1.000000
gman_briefcase
  11 -23.544514 3.777617 37.518211 0.819811 -0.016142 -0.572406 0.882167 0.931029 1 11 1.000000
  11 -23.984560 4.327492 37.034168 0.701074 0.664760 -0.258049 0.937118 0.844262 1 11 1.000000
  11 -24.021278 4.427789 37.226067 0.525826 0.850459 -0.015007 0.948379 0.859734 1 11 1.000000
gman_briefcase
  11 -23.984560 4.327492 37.034168 0.701074 0.664760 -0.258049 0.937118 0.844262 1 11 1.000000
  11 -24.655996 4.514839 36.485111 0.627704 0.773578 -0.086975 0.947194 0.738344 1 11 1.000000
  11 -24.021278 4.427789 37.226067 0.525826 0.850459 -0.015007 0.948379 0.859734 1 11 1.000000
gman_briefcase
  11 -23.984560 4.327492 37.034168 0.701074 0.664760 -0.258049 0.937118 0.844262 1 11 1.000000
  11 -24.607349 4.420589 36.445736 0.808694 -0.018671 -0.587933 0.937118 0.738987 1 11 1.000000
  11 -24.655996 4.514839 36.485111 0.627704 0.773578 -0.086975 0.947194 0.738344 1 11 1.000000
gman_briefcase
  11 -24.607349 4.420589 36.445736 0.808694 -0.018671 -0.587933 0.937118 0.738987 1 11 1.000000
  11 -24.820866 4.901150 36.198174 0.876065 0.153814 -0.457002 0.988081 0.693173 1 11 1.000000
  11 -24.655996 4.514839 36.485111 0.627704 0.773578 -0.086975 0.947194 0.738344 1 11 1.000000
gman_briefcase
  11 -24.607349 4.420589 36.445736 0.808694 -0.018671 -0.587933 0.937118 0.738987 1 11 1.000000
  11 -24.818888 4.453920 36.152348 0.871593 -0.104133 -0.479043 0.937118 0.693816 1 11 1.000000
  11 -24.820866 4.901150 36.198174 0.876065 0.153814 -0.457002 0.988081 0.693173 1 11 1.000000
gman_briefcase
  11 -24.770264 4.528413 36.569042 -0.144293 0.865283 0.480067 0.947194 0.738344 1 11 1.000000
  11 -24.935133 4.914724 36.282104 -0.660306 0.336319 0.671480 0.988081 0.693173 1 11 1.000000
  11 -25.047422 4.481068 36.320210 -0.719306 0.084850 0.689492 0.937118 0.693816 1 11 1.000000
gman_briefcase
  11 -24.719488 0.457555 37.535782 -0.779981 0.625792 -0.003835 0.486680 0.885584 1 11 1.000000
  11 -24.971172 0.237035 37.126801 -0.477797 0.878470 0.000703 0.456945 0.828791 1 11 1.000000
  11 -25.049526 0.022415 37.312943 -0.765496 0.589113 0.258767 0.431729 0.844262 1 11 1.000000
gman_briefcase
  11 -24.719488 0.457555 37.535782 -0.779981 0.625792 -0.003835 0.486680 0.885584 1 11 1.000000
  11 -25.049526 0.022415 37.312943 -0.765496 0.589113 0.258767 0.431729 0.844262 1 11 1.000000
  11 -24.676914 0.444245 37.955997 -0.800535 0.012663 0.599152 0.486680 0.931029 1 11 1.000000
gman_briefcase
  11 -24.384516 2.105509 38.085415 -0.767838 0.089521 0.634358 0.680411 0.931029 1 11 1.000000
  11 -24.719488 0.457555 37.535782 -0.779981 0.625792 -0.003835 0.486680 0.885584 1 11 1.000000
  11 -24.676914 0.444245 37.955997 -0.800535 0.012663 0.599152 0.486680 0.931029 1 11 1.000000
gman_briefcase
  11 -24.384516 2.105509 38.085415 -0.767838 0.089521 0.634358 0.680411 0.931029 1 11 1.000000
  11 -24.567459 2.140935 37.470516 -0.968299 0.124069 0.216802 0.680411 0.855782 1 11 1.000000
  11 -24.719488 0.457555 37.535782 -0.779981 0.625792 -0.003835 0.486680 0.885584 1 11 1.000000
gman_briefcase
  11 -24.225500 3.858511 38.018402 -0.779253 0.173810 0.602125 0.882167 0.931029 1 11 1.000000
  11 -24.567459 2.140935 37.470516 -0.968299 0.124069 0.216802 0.680411 0.855782 1 11 1.000000
  11 -24.384516 2.105509 38.085415 -0.767838 0.089521 0.634358 0.680411 0.931029 1 11 1.000000
gman_briefcase
  11 -24.225500 3.858511 38.018402 -0.779253 0.173810 0.602125 0.882167 0.931029 1 11 1.000000
  11 -24.268074 3.871821 37.598186 -0.915754 -0.401103 -0.022605 0.882167 0.885584 1 11 1.000000
  11 -24.567459 2.140935 37.470516 -0.968299 0.124069 0.216802 0.680411 0.855782 1 11 1.000000
gman_briefcase
  11 -24.225500 3.858511 38.018402 -0.779253 0.173810 0.602125 0.882167 0.931029 1 11 1.000000
  11 -24.451880 4.164698 37.198586 -0.689616 -0.723611 -0.028580 0.911901 0.828791 1 11 1.000000
  11 -24.268074 3.871821 37.598186 -0.915754 -0.401103 -0.022605 0.882167 0.885584 1 11 1.000000
gman_briefcase
  11 -24.225500 3.858511 38.018402 -0.779253 0.173810 0.602125 0.882167 0.931029 1 11 1.000000
  11 -24.472666 4.385475 37.392689 -0.893483 -0.378909 0.241074 0.937118 0.844262 1 11 1.000000
  11 -24.451880 4.164698 37.198586 -0.689616 -0.723611 -0.028580 0.911901 0.828791 1 11 1.000000
gman_briefcase
  11 -24.472666 4.385475 37.392689 -0.893483 -0.378909 0.241074 0.937118 0.844262 1 11 1.000000
  11 -24.787239 4.353487 36.574223 -0.479492 -0.754543 0.448054 0.927042 0.739631 1 11 1.000000
  11 -24.451880 4.164698 37.198586 -0.689616 -0.723611 -0.028580 0.911901 0.828791 1 11 1.000000
gman_briefcase
  11 -24.472666 4.385475 37.392689 -0.893483 -0.378909 0.241074 0.937118 0.844262 1 11 1.000000
  11 -24.835886 4.447737 36.613598 -0.791126 0.171371 0.587155 0.937118 0.738987 1 11 1.000000
  11 -24.787239 4.353487 36.574223 -0.479492 -0.754543 0.448054 0.927042 0.739631 1 11 1.000000
gman_briefcase
  11 -24.835886 4.447737 36.613598 -0.791126 0.171371 0.587155 0.937118 0.738987 1 11 1.000000
  11 -25.045444 4.033837 36.274384 -0.730083 -0.172309 0.661277 0.886155 0.694460 1 11 1.000000
  11 -24.787239 4.353487 36.574223 -0.479492 -0.754543 0.448054 0.927042 0.739631 1 11 1.000000
gman_briefcase
  11 -24.835886 4.447737 36.613598 -0.791126 0.171371 0.587155 0.937118 0.738987 1 11 1.000000
  11 -25.047422 4.481068 36.320210 -0.719306 0.084850 0.689492 0.937118 0.693816 1 11 1.000000
  11 -25.045444 4.033837 36.274384 -0.730083 -0.172309 0.661277 0.886155 0.694460 1 11 1.000000
gman_briefcase
  11 -24.770264 4.528413 36.569042 -0.144293 0.865283 0.480067 0.947194 0.738344 1 11 1.000000
  11 -25.047422 4.481068 36.320210 -0.719306 0.084850 0.689492 0.937118 0.693816 1 11 1.000000
  11 -24.835886 4.447737 36.613598 -0.791126 0.171371 0.587155 0.937118 0.738987 1 11 1.000000
gman_briefcase
  11 -24.265329 4.456780 37.405327 -0.035217 0.917105 0.397086 0.948379 0.859734 1 11 1.000000
  11 -24.770264 4.528413 36.569042 -0.144293 0.865283 0.480067 0.947194 0.738344 1 11 1.000000
  11 -24.835886 4.447737 36.613598 -0.791126 0.171371 0.587155 0.937118 0.738987 1 11 1.000000
gman_briefcase
  11 -24.021278 4.427789 37.226067 0.525826 0.850459 -0.015007 0.948379 0.859734 1 11 1.000000
  11 -24.770264 4.528413 36.569042 -0.144293 0.865283 0.480067 0.947194 0.738344 1 11 1.000000
  11 -24.265329 4.456780 37.405327 -0.035217 0.917105 0.397086 0.948379 0.859734 1 11 1.000000
gman_briefcase
  11 -23.501940 3.764308 37.938427 0.865678 0.381822 0.323749 0.882167 0.976474 1 11 1.000000
  11 -24.021278 4.427789 37.226067 0.525826 0.850459 -0.015007 0.948379 0.859734 1 11 1.000000
  11 -24.265329 4.456780 37.405327 -0.035217 0.917105 0.397086 0.948379 0.859734 1 11 1.000000
gman_briefcase
  11 -23.544514 3.777617 37.518211 0.819811 -0.016142 -0.572406 0.882167 0.931029 1 11 1.000000
  11 -24.021278 4.427789 37.226067 0.525826 0.850459 -0.015007 0.948379 0.859734 1 11 1.000000
  11 -23.501940 3.764308 37.938427 0.865678 0.381822 0.323749 0.882167 0.976474 1 11 1.000000
gman_briefcase
  11 -23.544514 3.777617 37.518211 0.819811 -0.016142 -0.572406 0.882167 0.931029 1 11 1.000000
  11 -23.501940 3.764308 37.938427 0.865678 0.381822 0.323749 0.882167 0.976474 1 11 1.000000
  11 -23.660959 2.011305 38.005436 0.905048 -0.128327 0.405487 0.680411 0.976474 1 11 1.000000
gman_briefcase
  11 -24.971172 0.237035 37.126801 -0.477797 0.878470 0.000703 0.456945 0.828791 1 11 1.000000
  11 -25.412745 0.084678 36.533852 -0.811262 0.019075 0.584371 0.431729 0.738987 1 11 1.000000
  11 -25.049526 0.022415 37.312943 -0.765496 0.589113 0.258767 0.431729 0.844262 1 11 1.000000
gman_briefcase
  11 -24.971172 0.237035 37.126801 -0.477797 0.878470 0.000703 0.456945 0.828791 1 11 1.000000
  11 -25.341095 0.164404 36.497658 -0.269119 0.836610 0.477136 0.441805 0.739631 1 11 1.000000
  11 -25.412745 0.084678 36.533852 -0.811262 0.019075 0.584371 0.431729 0.738987 1 11 1.000000
gman_briefcase
  11 -24.268074 3.871821 37.598186 -0.915754 -0.401103 -0.022605 0.882167 0.885584 1 11 1.000000
  11 -24.207827 4.135707 37.019325 0.060460 -0.812712 -0.579520 0.911901 0.828791 1 11 1.000000
  11 -23.927582 3.831373 37.348091 0.180402 -0.531314 -0.827744 0.882167 0.885584 1 11 1.000000
gman_briefcase
  11 -24.268074 3.871821 37.598186 -0.915754 -0.401103 -0.022605 0.882167 0.885584 1 11 1.000000
  11 -24.451880 4.164698 37.198586 -0.689616 -0.723611 -0.028580 0.911901 0.828791 1 11 1.000000
  11 -24.207827 4.135707 37.019325 0.060460 -0.812712 -0.579520 0.911901 0.828791 1 11 1.000000
gman_briefcase
  11 -24.451880 4.164698 37.198586 -0.689616 -0.723611 -0.028580 0.911901 0.828791 1 11 1.000000
  11 -24.672970 4.339914 36.490292 0.446039 -0.864486 -0.231760 0.927042 0.739631 1 11 1.000000
  11 -24.207827 4.135707 37.019325 0.060460 -0.812712 -0.579520 0.911901 0.828791 1 11 1.000000
gman_briefcase
  11 -24.451880 4.164698 37.198586 -0.689616 -0.723611 -0.028580 0.911901 0.828791 1 11 1.000000
  11 -24.787239 4.353487 36.574223 -0.479492 -0.754543 0.448054 0.927042 0.739631 1 11 1.000000
  11 -24.672970 4.339914 36.490292 0.446039 -0.864486 -0.231760 0.927042 0.739631 1 11 1.000000
gman_briefcase
  11 -24.787239 4.353487 36.574223 -0.479492 -0.754543 0.448054 0.927042 0.739631 1 11 1.000000
  11 -24.931177 4.020264 36.190453 0.314129 -0.772034 0.552528 0.886155 0.694460 1 11 1.000000
  11 -24.672970 4.339914 36.490292 0.446039 -0.864486 -0.231760 0.927042 0.739631 1 11 1.000000
gman_briefcase
  11 -24.787239 4.353487 36.574223 -0.479492 -0.754543 0.448054 0.927042 0.739631 1 11 1.000000
  11 -25.045444 4.033837 36.274384 0.314129 -0.772034 0.552528 0.886155 0.694460 1 11 1.000000
  11 -24.931177 4.020264 36.190453 0.314129 -0.772034 0.552528 0.886155 0.694460 1 11 1.000000
gman_briefcase
  11 -24.676914 0.444245 37.955997 -0.800535 0.012663 0.599152 0.486680 0.931029 1 11 1.000000
  11 -25.049526 0.022415 37.312943 -0.539334 -0.690244 0.482371 0.431729 0.844262 1 11 1.000000
  11 -24.867897 -0.100714 37.322025 -0.274157 -0.890114 0.364054 0.420467 0.859734 1 11 1.000000
gman_briefcase
  11 -24.676914 0.444245 37.955997 -0.800535 0.012663 0.599152 0.486680 0.931029 1 11 1.000000
  11 -24.867897 -0.100714 37.322025 -0.274157 -0.890114 0.364054 0.420467 0.859734 1 11 1.000000
  11 -24.293848 0.390488 38.126118 -0.014879 -0.516903 0.855914 0.486680 0.976474 1 11 1.000000
gman_briefcase
  11 -24.293848 0.390488 38.126118 -0.014879 -0.516903 0.855914 0.486680 0.976474 1 11 1.000000
  11 -24.867897 -0.100714 37.322025 -0.274157 -0.890114 0.364054 0.420467 0.859734 1 11 1.000000
  11 -24.623844 -0.129705 37.142765 0.286885 -0.956760 -0.048038 0.420467 0.859734 1 11 1.000000
gman_briefcase
  11 -24.293848 0.390488 38.126118 -0.014879 -0.516903 0.855914 0.486680 0.976474 1 11 1.000000
  11 -24.623844 -0.129705 37.142765 0.286885 -0.956760 -0.048038 0.420467 0.859734 1 11 1.000000
  11 -23.953356 0.350042 37.876022 0.734540 -0.605926 0.305457 0.486680 0.976474 1 11 1.000000
gman_briefcase
  11 -23.660959 2.011305 38.005436 0.905048 -0.128327 0.405487 0.680411 0.976474 1 11 1.000000
  11 -24.293848 0.390488 38.126118 -0.014879 -0.516903 0.855914 0.486680 0.976474 1 11 1.000000
  11 -23.953356 0.350042 37.876022 0.734540 -0.605926 0.305457 0.486680 0.976474 1 11 1.000000
gman_briefcase
  11 -23.660959 2.011305 38.005436 0.905048 -0.128327 0.405487 0.680411 0.976474 1 11 1.000000
  11 -24.001450 2.051752 38.255535 0.103748 -0.033141 0.994051 0.680411 0.976474 1 11 1.000000
  11 -24.293848 0.390488 38.126118 -0.014879 -0.516903 0.855914 0.486680 0.976474 1 11 1.000000
gman_briefcase
  11 -23.501940 3.764308 37.938427 0.865678 0.381822 0.323749 0.882167 0.976474 1 11 1.000000
  11 -24.001450 2.051752 38.255535 0.103748 -0.033141 0.994051 0.680411 0.976474 1 11 1.000000
  11 -23.660959 2.011305 38.005436 0.905048 -0.128327 0.405487 0.680411 0.976474 1 11 1.000000
gman_briefcase
  11 -23.501940 3.764308 37.938427 0.865678 0.381822 0.323749 0.882167 0.976474 1 11 1.000000
  11 -23.842432 3.804754 38.188522 0.115785 0.470901 0.874555 0.882167 0.976474 1 11 1.000000
  11 -24.001450 2.051752 38.255535 0.103748 -0.033141 0.994051 0.680411 0.976474 1 11 1.000000
gman_briefcase
  11 -23.501940 3.764308 37.938427 0.865678 0.381822 0.323749 0.882167 0.976474 1 11 1.000000
  11 -24.265329 4.456780 37.405327 -0.035217 0.917105 0.397086 0.948379 0.859734 1 11 1.000000
  11 -23.842432 3.804754 38.188522 0.115785 0.470901 0.874555 0.882167 0.976474 1 11 1.000000
gman_briefcase
  11 -23.842432 3.804754 38.188522 0.115785 0.470901 0.874555 0.882167 0.976474 1 11 1.000000
  11 -24.265329 4.456780 37.405327 -0.035217 0.917105 0.397086 0.948379 0.859734 1 11 1.000000
  11 -24.472666 4.385475 37.392689 -0.343774 0.788876 0.509406 0.937118 0.844262 1 11 1.000000
gman_briefcase
  11 -24.265329 4.456780 37.405327 -0.035217 0.917105 0.397086 0.948379 0.859734 1 11 1.000000
  11 -24.835886 4.447737 36.613598 -0.791126 0.171371 0.587155 0.937118 0.738987 1 11 1.000000
  11 -24.472666 4.385475 37.392689 -0.343774 0.788876 0.509406 0.937118 0.844262 1 11 1.000000
gman_briefcase
  11 -24.001450 2.051752 38.255535 0.103748 -0.033141 0.994051 0.680411 0.976474 1 11 1.000000
  11 -24.676914 0.444245 37.955997 -0.800535 0.012663 0.599152 0.486680 0.931029 1 11 1.000000
  11 -24.293848 0.390488 38.126118 -0.014879 -0.516903 0.855914 0.486680 0.976474 1 11 1.000000
gman_briefcase
  11 -24.001450 2.051752 38.255535 0.103748 -0.033141 0.994051 0.680411 0.976474 1 11 1.000000
  11 -24.384516 2.105509 38.085415 -0.767838 0.089521 0.634358 0.680411 0.931029 1 11 1.000000
  11 -24.676914 0.444245 37.955997 -0.800535 0.012663 0.599152 0.486680 0.931029 1 11 1.000000
gman_briefcase
  11 -23.842432 3.804754 38.188522 0.115785 0.470901 0.874555 0.882167 0.976474 1 11 1.000000
  11 -24.384516 2.105509 38.085415 -0.767838 0.089521 0.634358 0.680411 0.931029 1 11 1.000000
  11 -24.001450 2.051752 38.255535 0.103748 -0.033141 0.994051 0.680411 0.976474 1 11 1.000000
gman_briefcase
  11 -23.842432 3.804754 38.188522 0.115785 0.470901 0.874555 0.882167 0.976474 1 11 1.000000
  11 -24.225500 3.858511 38.018402 -0.779253 0.173810 0.602125 0.882167 0.931029 1 11 1.000000
  11 -24.384516 2.105509 38.085415 -0.767838 0.089521 0.634358 0.680411 0.931029 1 11 1.000000
gman_briefcase
  11 -23.842432 3.804754 38.188522 0.115785 0.470901 0.874555 0.882167 0.976474 1 11 1.000000
  11 -24.472666 4.385475 37.392689 -0.343774 0.788876 0.509406 0.937118 0.844262 1 11 1.000000
  11 -24.225500 3.858511 38.018402 -0.779253 0.173810 0.602125 0.882167 0.931029 1 11 1.000000
gman_briefcase
  11 -23.544514 3.777617 37.518211 0.819811 -0.016142 -0.572406 0.882167 0.931029 1 11 1.000000
  11 -23.660959 2.011305 38.005436 0.905048 -0.128327 0.405487 0.680411 0.976474 1 11 1.000000
  11 -23.703531 2.024615 37.585220 0.834120 -0.100775 -0.542299 0.680411 0.931029 1 11 1.000000
gman_briefcase
  11 -23.703531 2.024615 37.585220 0.834120 -0.100775 -0.542299 0.680411 0.931029 1 11 1.000000
  11 -23.660959 2.011305 38.005436 0.905048 -0.128327 0.405487 0.680411 0.976474 1 11 1.000000
  11 -23.953356 0.350042 37.876022 0.734540 -0.605926 0.305457 0.486680 0.976474 1 11 1.000000
gman_briefcase
  11 -23.703531 2.024615 37.585220 0.834120 -0.100775 -0.542299 0.680411 0.931029 1 11 1.000000
  11 -23.953356 0.350042 37.876022 0.734540 -0.605926 0.305457 0.486680 0.976474 1 11 1.000000
  11 -23.995930 0.363351 37.455807 0.798472 -0.177281 -0.575338 0.486680 0.931029 1 11 1.000000
gman_briefcase
  11 -23.953356 0.350042 37.876022 0.734540 -0.605926 0.305457 0.486680 0.976474 1 11 1.000000
  11 -24.561420 -0.035568 36.954422 0.505513 -0.814361 -0.285083 0.431729 0.844262 1 11 1.000000
  11 -23.995930 0.363351 37.455807 0.798472 -0.177281 -0.575338 0.486680 0.931029 1 11 1.000000
gman_briefcase
  11 -23.953356 0.350042 37.876022 0.734540 -0.605926 0.305457 0.486680 0.976474 1 11 1.000000
  11 -24.623844 -0.129705 37.142765 0.286885 -0.956760 -0.048038 0.420467 0.859734 1 11 1.000000
  11 -24.561420 -0.035568 36.954422 0.505513 -0.814361 -0.285083 0.431729 0.844262 1 11 1.000000
gman_briefcase
  11 -24.623844 -0.129705 37.142765 0.286885 -0.956760 -0.048038 0.420467 0.859734 1 11 1.000000
  11 -25.184210 0.057531 36.365990 0.788558 -0.170967 -0.590716 0.431729 0.738987 1 11 1.000000
  11 -24.561420 -0.035568 36.954422 0.505513 -0.814361 -0.285083 0.431729 0.844262 1 11 1.000000
gman_briefcase
  11 -24.623844 -0.129705 37.142765 0.286885 -0.956760 -0.048038 0.420467 0.859734 1 11 1.000000
  11 -25.255857 -0.022197 36.402184 0.405580 -0.906452 -0.117681 0.421652 0.738344 1 11 1.000000
  11 -25.184210 0.057531 36.365990 0.788558 -0.170967 -0.590716 0.431729 0.738987 1 11 1.000000
gman_briefcase
  11 -24.867897 -0.100714 37.322025 -0.274157 -0.890114 0.364054 0.420467 0.859734 1 11 1.000000
  11 -25.255857 -0.022197 36.402184 0.405580 -0.906452 -0.117681 0.421652 0.738344 1 11 1.000000
  11 -24.623844 -0.129705 37.142765 0.286885 -0.956760 -0.048038 0.420467 0.859734 1 11 1.000000
gman_briefcase
  11 -24.867897 -0.100714 37.322025 -0.274157 -0.890114 0.364054 0.420467 0.859734 1 11 1.000000
  11 -25.370127 -0.008622 36.486115 -0.366418 -0.814748 0.449360 0.421652 0.738344 1 11 1.000000
  11 -25.255857 -0.022197 36.402184 0.405580 -0.906452 -0.117681 0.421652 0.738344 1 11 1.000000
gman_briefcase
  11 -25.049526 0.022415 37.312943 -0.539334 -0.690244 0.482371 0.431729 0.844262 1 11 1.000000
  11 -25.370127 -0.008622 36.486115 -0.366418 -0.814748 0.449360 0.421652 0.738344 1 11 1.000000
  11 -24.867897 -0.100714 37.322025 -0.274157 -0.890114 0.364054 0.420467 0.859734 1 11 1.000000
gman_briefcase
  11 -25.049526 0.022415 37.312943 -0.539334 -0.690244 0.482371 0.431729 0.844262 1 11 1.000000
  11 -25.412745 0.084678 36.533852 -0.811262 0.019075 0.584371 0.431729 0.738987 1 11 1.000000
  11 -25.370127 -0.008622 36.486115 -0.366418 -0.814748 0.449360 0.421652 0.738344 1 11 1.000000
gman_briefcase
  11 -25.412745 0.084678 36.533852 -0.811262 0.019075 0.584371 0.431729 0.738987 1 11 1.000000
  11 -25.628332 -0.328272 36.186275 -0.728188 -0.177114 0.662097 0.380765 0.693173 1 11 1.000000
  11 -25.370127 -0.008622 36.486115 -0.366418 -0.814748 0.449360 0.421652 0.738344 1 11 1.000000
gman_briefcase
  11 -25.412745 0.084678 36.533852 -0.811262 0.019075 0.584371 0.431729 0.738987 1 11 1.000000
  11 -25.624283 0.118009 36.240463 -0.719917 0.080234 0.689407 0.431729 0.693816 1 11 1.000000
  11 -25.628332 -0.328272 36.186275 -0.728188 -0.177114 0.662097 0.380765 0.693173 1 11 1.000000
gman_briefcase
  11 -25.341095 0.164404 36.497658 -0.269119 0.836610 0.477136 0.441805 0.739631 1 11 1.000000
  11 -25.624283 0.118009 36.240463 -0.719917 0.080234 0.689407 0.431729 0.693816 1 11 1.000000
  11 -25.412745 0.084678 36.533852 -0.811262 0.019075 0.584371 0.431729 0.738987 1 11 1.000000
gman_briefcase
  11 -25.341095 0.164404 36.497658 -0.269119 0.836610 0.477136 0.441805 0.739631 1 11 1.000000
  11 -25.505964 0.550716 36.210716 -0.663380 0.332204 0.670498 0.482692 0.694460 1 11 1.000000
  11 -25.624283 0.118009 36.240463 -0.719917 0.080234 0.689407 0.431729 0.693816 1 11 1.000000
gman_briefcase
  11 -25.370127 -0.008622 36.486115 -0.366418 -0.814748 0.449360 0.421652 0.738344 1 11 1.000000
  11 -25.514065 -0.341845 36.102345 0.314129 -0.772034 0.552528 0.380765 0.693173 1 11 1.000000
  11 -25.255857 -0.022197 36.402184 0.405580 -0.906452 -0.117681 0.421652 0.738344 1 11 1.000000
gman_briefcase
  11 -25.370127 -0.008622 36.486115 -0.366418 -0.814748 0.449360 0.421652 0.738344 1 11 1.000000
  11 -25.628332 -0.328272 36.186275 0.314129 -0.772034 0.552528 0.380765 0.693173 1 11 1.000000
  11 -25.514065 -0.341845 36.102345 0.314129 -0.772034 0.552528 0.380765 0.693173 1 11 1.000000
gman_briefcase
  11 -24.672970 4.339914 36.490292 0.446039 -0.864486 -0.231760 0.927042 0.739631 1 11 1.000000
  11 -24.931177 4.020264 36.190453 0.808687 -0.355098 -0.468968 0.886155 0.694460 1 11 1.000000
  11 -24.818888 4.453920 36.152348 0.871593 -0.104133 -0.479043 0.937118 0.693816 1 11 1.000000
gman_briefcase
  11 -24.672970 4.339914 36.490292 0.446039 -0.864486 -0.231760 0.927042 0.739631 1 11 1.000000
  11 -24.818888 4.453920 36.152348 0.871593 -0.104133 -0.479043 0.937118 0.693816 1 11 1.000000
  11 -24.607349 4.420589 36.445736 0.808694 -0.018671 -0.587933 0.937118 0.738987 1 11 1.000000
gman_briefcase
  11 -24.207827 4.135707 37.019325 0.060460 -0.812712 -0.579520 0.911901 0.828791 1 11 1.000000
  11 -24.672970 4.339914 36.490292 0.446039 -0.864486 -0.231760 0.927042 0.739631 1 11 1.000000
  11 -24.607349 4.420589 36.445736 0.808694 -0.018671 -0.587933 0.937118 0.738987 1 11 1.000000
gman_briefcase
  11 -24.207827 4.135707 37.019325 0.060460 -0.812712 -0.579520 0.911901 0.828791 1 11 1.000000
  11 -24.607349 4.420589 36.445736 0.808694 -0.018671 -0.587933 0.937118 0.738987 1 11 1.000000
  11 -23.984560 4.327492 37.034168 0.426718 -0.535734 -0.728629 0.937118 0.844262 1 11 1.000000
gman_briefcase
  11 -23.927582 3.831373 37.348091 0.180402 -0.531314 -0.827744 0.882167 0.885584 1 11 1.000000
  11 -24.207827 4.135707 37.019325 0.060460 -0.812712 -0.579520 0.911901 0.828791 1 11 1.000000
  11 -23.984560 4.327492 37.034168 0.426718 -0.535734 -0.728629 0.937118 0.844262 1 11 1.000000
gman_briefcase
  11 -23.927582 3.831373 37.348091 0.180402 -0.531314 -0.827744 0.882167 0.885584 1 11 1.000000
  11 -23.984560 4.327492 37.034168 0.426718 -0.535734 -0.728629 0.937118 0.844262 1 11 1.000000
  11 -23.544514 3.777617 37.518211 0.819811 -0.016142 -0.572406 0.882167 0.931029 1 11 1.000000
gman_briefcase
  11 -23.927582 3.831373 37.348091 0.180402 -0.531314 -0.827744 0.882167 0.885584 1 11 1.000000
  11 -23.544514 3.777617 37.518211 0.819811 -0.016142 -0.572406 0.882167 0.931029 1 11 1.000000
  11 -23.703531 2.024615 37.585220 0.834120 -0.100775 -0.542299 0.680411 0.931029 1 11 1.000000
gman_briefcase
  11 -23.927582 3.831373 37.348091 0.180402 -0.531314 -0.827744 0.882167 0.885584 1 11 1.000000
  11 -23.703531 2.024615 37.585220 0.834120 -0.100775 -0.542299 0.680411 0.931029 1 11 1.000000
  11 -24.226967 2.100488 37.220421 0.502179 -0.050608 -0.863281 0.680411 0.855782 1 11 1.000000
gman_briefcase
  11 -24.226967 2.100488 37.220421 0.502179 -0.050608 -0.863281 0.680411 0.855782 1 11 1.000000
  11 -23.703531 2.024615 37.585220 0.834120 -0.100775 -0.542299 0.680411 0.931029 1 11 1.000000
  11 -23.995930 0.363351 37.455807 0.798472 -0.177281 -0.575338 0.486680 0.931029 1 11 1.000000
gman_briefcase
  11 -24.226967 2.100488 37.220421 0.502179 -0.050608 -0.863281 0.680411 0.855782 1 11 1.000000
  11 -23.995930 0.363351 37.455807 0.798472 -0.177281 -0.575338 0.486680 0.931029 1 11 1.000000
  11 -24.378998 0.417108 37.285686 0.316171 0.495581 -0.808972 0.486680 0.885584 1 11 1.000000
gman_briefcase
  11 -23.995930 0.363351 37.455807 0.798472 -0.177281 -0.575338 0.486680 0.931029 1 11 1.000000
  11 -24.727119 0.208043 36.947540 0.272278 0.789369 -0.550238 0.456945 0.828791 1 11 1.000000
  11 -24.378998 0.417108 37.285686 0.316171 0.495581 -0.808972 0.486680 0.885584 1 11 1.000000
gman_briefcase
  11 -23.995930 0.363351 37.455807 0.798472 -0.177281 -0.575338 0.486680 0.931029 1 11 1.000000
  11 -24.561420 -0.035568 36.954422 0.554705 0.432288 -0.710936 0.431729 0.844262 1 11 1.000000
  11 -24.727119 0.208043 36.947540 0.272278 0.789369 -0.550238 0.456945 0.828791 1 11 1.000000
gman_briefcase
  11 -24.561420 -0.035568 36.954422 0.554705 0.432288 -0.710936 0.431729 0.844262 1 11 1.000000
  11 -25.226828 0.150830 36.413727 0.656412 0.726667 -0.202678 0.441805 0.739631 1 11 1.000000
  11 -24.727119 0.208043 36.947540 0.272278 0.789369 -0.550238 0.456945 0.828791 1 11 1.000000
gman_briefcase
  11 -24.561420 -0.035568 36.954422 0.554705 0.432288 -0.710936 0.431729 0.844262 1 11 1.000000
  11 -25.184210 0.057531 36.365990 0.788558 -0.170967 -0.590716 0.431729 0.738987 1 11 1.000000
  11 -25.226828 0.150830 36.413727 0.656412 0.726667 -0.202678 0.441805 0.739631 1 11 1.000000
gman_briefcase
  11 -25.184210 0.057531 36.365990 0.788558 -0.170967 -0.590716 0.431729 0.738987 1 11 1.000000
  11 -25.391697 0.537141 36.126789 0.875390 0.149414 -0.459746 0.482692 0.694460 1 11 1.000000
  11 -25.226828 0.150830 36.413727 0.656412 0.726667 -0.202678 0.441805 0.739631 1 11 1.000000
gman_briefcase
  11 -25.184210 0.057531 36.365990 0.788558 -0.170967 -0.590716 0.431729 0.738987 1 11 1.000000
  11 -25.395748 0.090862 36.072601 0.870983 -0.108748 -0.479127 0.431729 0.693816 1 11 1.000000
  11 -25.391697 0.537141 36.126789 0.875390 0.149414 -0.459746 0.482692 0.694460 1 11 1.000000
gman_briefcase
  11 -25.255857 -0.022197 36.402184 0.405580 -0.906452 -0.117681 0.421652 0.738344 1 11 1.000000
  11 -25.395748 0.090862 36.072601 0.870983 -0.108748 -0.479127 0.431729 0.693816 1 11 1.000000
  11 -25.184210 0.057531 36.365990 0.788558 -0.170967 -0.590716 0.431729 0.738987 1 11 1.000000
gman_briefcase
  11 -25.255857 -0.022197 36.402184 0.405580 -0.906452 -0.117681 0.421652 0.738344 1 11 1.000000
  11 -25.514065 -0.341845 36.102345 0.808181 -0.359619 -0.466387 0.380765 0.693173 1 11 1.000000
  11 -25.395748 0.090862 36.072601 0.870983 -0.108748 -0.479127 0.431729 0.693816 1 11 1.000000
gman_briefcase
  11 -24.378998 0.417108 37.285686 0.316171 0.495581 -0.808972 0.486680 0.885584 1 11 1.000000
  11 -24.971172 0.237035 37.126801 -0.477797 0.878470 0.000703 0.456945 0.828791 1 11 1.000000
  11 -24.719488 0.457555 37.535782 -0.779981 0.625792 -0.003835 0.486680 0.885584 1 11 1.000000
gman_briefcase
  11 -24.378998 0.417108 37.285686 0.316171 0.495581 -0.808972 0.486680 0.885584 1 11 1.000000
  11 -24.727119 0.208043 36.947540 0.272278 0.789369 -0.550238 0.456945 0.828791 1 11 1.000000
  11 -24.971172 0.237035 37.126801 -0.477797 0.878470 0.000703 0.456945 0.828791 1 11 1.000000
gman_briefcase
  11 -24.727119 0.208043 36.947540 0.272278 0.789369 -0.550238 0.456945 0.828791 1 11 1.000000
  11 -25.341095 0.164404 36.497658 -0.269119 0.836610 0.477136 0.441805 0.739631 1 11 1.000000
  11 -24.971172 0.237035 37.126801 -0.477797 0.878470 0.000703 0.456945 0.828791 1 11 1.000000
gman_briefcase
  11 -24.727119 0.208043 36.947540 0.272278 0.789369 -0.550238 0.456945 0.828791 1 11 1.000000
  11 -25.226828 0.150830 36.413727 0.656412 0.726667 -0.202678 0.441805 0.739631 1 11 1.000000
  11 -25.341095 0.164404 36.497658 -0.269119 0.836610 0.477136 0.441805 0.739631 1 11 1.000000
gman_briefcase
  11 -25.226828 0.150830 36.413727 0.656412 0.726667 -0.202678 0.441805 0.739631 1 11 1.000000
  11 -25.505964 0.550716 36.210716 0.501290 0.643553 0.578401 0.482692 0.694460 1 11 1.000000
  11 -25.341095 0.164404 36.497658 -0.269119 0.836610 0.477136 0.441805 0.739631 1 11 1.000000
gman_briefcase
  11 -25.226828 0.150830 36.413727 0.656412 0.726667 -0.202678 0.441805 0.739631 1 11 1.000000
  11 -25.391697 0.537141 36.126789 0.501290 0.643553 0.578401 0.482692 0.694460 1 11 1.000000
  11 -25.505964 0.550716 36.210716 0.501290 0.643553 0.578401 0.482692 0.694460 1 11 1.000000
gman_briefcase
  11 -34.889889 -5.176208 26.372595 -0.131052 -0.991210 -0.018117 0.089421 0.072952 1 11 1.000000
  11 -34.311298 -5.244939 25.947613 -0.131052 -0.991210 -0.018117 0.008391 0.010839 1 11 1.000000
  11 -27.364498 -6.361941 36.809784 -0.131052 -0.991210 -0.018117 0.089421 0.610853 1 11 1.000000
gman_briefcase
  11 -26.785908 -6.430670 36.384804 -0.131052 -0.991210 -0.018117 0.008391 0.671803 1 11 1.000000
  11 -27.364498 -6.361941 36.809784 -0.131052 -0.991210 -0.018117 0.089421 0.610853 1 11 1.000000
  11 -34.311298 -5.244939 25.947613 -0.131052 -0.991210 -0.018117 0.008391 0.010839 1 11 1.000000
gman_briefcase
  11 -24.802904 5.890913 36.582062 -0.802283 0.095303 0.589287 0.167466 0.770012 1 11 1.000000
  11 -24.935247 6.012922 36.382153 -0.802283 0.095303 0.589287 0.165782 0.736579 1 11 1.000000
  11 -24.937868 5.912179 36.394875 -0.802283 0.095303 0.589287 0.165782 0.705274 1 11 1.000000
gman_briefcase
  11 -24.802904 5.890913 36.582062 -0.802283 0.095303 0.589287 0.167466 0.770012 1 11 1.000000
  11 -24.843189 5.998417 36.509830 -0.802283 0.095303 0.589287 0.167466 0.784935 1 11 1.000000
  11 -24.935247 6.012922 36.382153 -0.802283 0.095303 0.589287 0.165782 0.736579 1 11 1.000000
gman_briefcase
  11 -24.699879 6.670131 36.596306 -0.802283 0.095303 0.589287 0.167466 0.887357 1 11 1.000000
  11 -24.843189 5.998417 36.509830 -0.802283 0.095303 0.589287 0.167466 0.784935 1 11 1.000000
  11 -24.802904 5.890913 36.582062 -0.802283 0.095303 0.589287 0.167466 0.770012 1 11 1.000000
gman_briefcase
  11 -24.699879 6.670131 36.596306 -0.802283 0.095303 0.589287 0.167466 0.887357 1 11 1.000000
  11 -24.766367 6.579452 36.520451 -0.802283 0.095303 0.589287 0.167466 0.872434 1 11 1.000000
  11 -24.843189 5.998417 36.509830 -0.802283 0.095303 0.589287 0.167466 0.784935 1 11 1.000000
gman_briefcase
  11 -24.834845 6.691396 36.409119 -0.802283 0.095303 0.589287 0.165782 0.951439 1 11 1.000000
  11 -24.766367 6.579452 36.520451 -0.802283 0.095303 0.589287 0.167466 0.872434 1 11 1.000000
  11 -24.699879 6.670131 36.596306 -0.802283 0.095303 0.589287 0.167466 0.887357 1 11 1.000000
gman_briefcase
  11 -24.834845 6.691396 36.409119 -0.802283 0.095303 0.589287 0.165782 0.951439 1 11 1.000000
  11 -24.858425 6.593956 36.392773 -0.802283 0.095303 0.589287 0.165782 0.920135 1 11 1.000000
  11 -24.766367 6.579452 36.520451 -0.802283 0.095303 0.589287 0.167466 0.872434 1 11 1.000000
gman_briefcase
  11 -30.703999 11.003972 25.581604 0.753296 -0.023884 -0.657248 0.743296 0.101133 1 11 1.000000
  11 -25.656544 -6.098345 35.219334 0.841548 -0.165567 -0.514183 0.127486 0.578754 1 11 1.000000
  11 -32.816025 -4.970268 25.289633 0.736746 -0.149054 -0.659536 0.127486 0.101133 1 11 1.000000
gman_briefcase
  11 -30.703999 11.003972 25.581604 0.753296 -0.023884 -0.657248 0.743296 0.101133 1 11 1.000000
  11 -23.544518 9.875895 35.511303 0.858097 -0.040397 -0.511896 0.743296 0.578754 1 11 1.000000
  11 -25.656544 -6.098345 35.219334 0.841548 -0.165567 -0.514183 0.127486 0.578754 1 11 1.000000
gman_briefcase
  11 -23.371508 10.307637 35.824543 0.882416 -0.012385 -0.470307 0.778409 0.605987 1 11 1.000000
  11 -25.656544 -6.098345 35.219334 0.841548 -0.165567 -0.514183 0.127486 0.578754 1 11 1.000000
  11 -23.544518 9.875895 35.511303 0.858097 -0.040397 -0.511896 0.743296 0.578754 1 11 1.000000
gman_briefcase
  11 -23.371508 10.307637 35.824543 0.882416 -0.012385 -0.470307 0.778409 0.605987 1 11 1.000000
  11 -25.603130 -6.571173 35.516041 0.857556 -0.200410 -0.473744 0.092373 0.605987 1 11 1.000000
  11 -25.656544 -6.098345 35.219334 0.841548 -0.165567 -0.514183 0.127486 0.578754 1 11 1.000000
gman_briefcase
  11 -25.603130 -6.571173 35.516041 0.857556 -0.200410 -0.473744 0.092373 0.605987 1 11 1.000000
  11 -32.816025 -4.970268 25.289633 0.736746 -0.149054 -0.659536 0.127486 0.101133 1 11 1.000000
  11 -25.656544 -6.098345 35.219334 0.841548 -0.165567 -0.514183 0.127486 0.578754 1 11 1.000000
gman_briefcase
  11 -25.603130 -6.571173 35.516041 0.857556 -0.200410 -0.473744 0.092373 0.605987 1 11 1.000000
  11 -33.128521 -5.385440 25.078850 0.700126 -0.175605 -0.692088 0.092373 0.073900 1 11 1.000000
  11 -32.816025 -4.970268 25.289633 0.736746 -0.149054 -0.659536 0.127486 0.101133 1 11 1.000000
gman_briefcase
  11 -30.703999 11.003972 25.581604 0.753296 -0.023884 -0.657248 0.743296 0.101133 1 11 1.000000
  11 -32.816025 -4.970268 25.289633 0.736746 -0.149054 -0.659536 0.127486 0.101133 1 11 1.000000
  11 -33.128521 -5.385440 25.078850 0.700126 -0.175605 -0.692088 0.092373 0.073900 1 11 1.000000
gman_briefcase
  11 -30.703999 11.003972 25.581604 0.753296 -0.023884 -0.657248 0.743296 0.101133 1 11 1.000000
  11 -33.128521 -5.385440 25.078850 0.700126 -0.175605 -0.692088 0.092373 0.073900 1 11 1.000000
  11 -30.896896 11.493367 25.387354 0.724986 0.012420 -0.688652 0.778409 0.073900 1 11 1.000000
gman_briefcase
  11 -23.544518 9.875895 35.511303 0.858097 -0.040397 -0.511896 0.743296 0.578754 1 11 1.000000
  11 -30.703999 11.003972 25.581604 0.753296 -0.023884 -0.657248 0.743296 0.101133 1 11 1.000000
  11 -30.896896 11.493367 25.387354 0.724986 0.012420 -0.688652 0.778409 0.073900 1 11 1.000000
gman_briefcase
  11 -23.544518 9.875895 35.511303 0.858097 -0.040397 -0.511896 0.743296 0.578754 1 11 1.000000
  11 -30.896896 11.493367 25.387354 0.724986 0.012420 -0.688652 0.778409 0.073900 1 11 1.000000
  11 -23.371508 10.307637 35.824543 0.882416 -0.012385 -0.470307 0.778409 0.605987 1 11 1.000000
gman_briefcase
  11 -25.812368 -1.744149 36.442513 0.582380 -0.091763 0.807721 0.167466 0.887954 1 11 1.000000
  11 -25.284695 -2.598287 35.965015 0.582380 -0.091763 0.807721 0.284810 0.770609 1 11 1.000000
  11 -25.181673 -1.819070 35.979259 0.582380 -0.091763 0.807721 0.284810 0.887954 1 11 1.000000
gman_briefcase
  11 -25.812368 -1.744149 36.442513 0.582380 -0.091763 0.807721 0.167466 0.887954 1 11 1.000000
  11 -25.915392 -2.523367 36.428272 0.582380 -0.091763 0.807721 0.167466 0.770609 1 11 1.000000
  11 -25.284695 -2.598287 35.965015 0.582380 -0.091763 0.807721 0.284810 0.770609 1 11 1.000000
gman_briefcase
  11 -25.316637 -1.797804 35.792072 0.802283 -0.095303 -0.589287 0.341660 0.952692 1 11 1.000000
  11 -25.284695 -2.598287 35.965015 0.802283 -0.095303 -0.589287 0.284810 0.770609 1 11 1.000000
  11 -25.419662 -2.577020 35.777828 0.802283 -0.095303 -0.589287 0.341660 0.706527 1 11 1.000000
gman_briefcase
  11 -25.316637 -1.797804 35.792072 0.802283 -0.095303 -0.589287 0.341660 0.952692 1 11 1.000000
  11 -25.181673 -1.819070 35.979259 0.802283 -0.095303 -0.589287 0.284810 0.887954 1 11 1.000000
  11 -25.284695 -2.598287 35.965015 0.802283 -0.095303 -0.589287 0.284810 0.770609 1 11 1.000000
gman_briefcase
  11 -26.510921 -1.756178 36.635624 -0.802283 0.095303 0.589287 0.015194 0.921388 1 11 1.000000
  11 -26.495686 -2.351716 36.752678 -0.802283 0.095303 0.589287 0.066994 0.785532 1 11 1.000000
  11 -26.418865 -1.770683 36.763302 -0.802283 0.095303 0.589287 0.066994 0.873031 1 11 1.000000
gman_briefcase
  11 -26.510921 -1.756178 36.635624 -0.802283 0.095303 0.589287 0.015194 0.921388 1 11 1.000000
  11 -26.587744 -2.337212 36.625004 -0.802283 0.095303 0.589287 0.015194 0.737831 1 11 1.000000
  11 -26.495686 -2.351716 36.752678 -0.802283 0.095303 0.589287 0.066994 0.785532 1 11 1.000000
gman_briefcase
  11 -25.955679 -2.415864 36.356037 -0.131052 -0.991210 -0.018117 0.167466 0.785532 1 11 1.000000
  11 -26.587744 -2.337212 36.625004 -0.131052 -0.991210 -0.018117 0.015194 0.737831 1 11 1.000000
  11 -26.047735 -2.401358 36.228359 -0.131052 -0.991210 -0.018117 0.165782 0.737831 1 11 1.000000
gman_briefcase
  11 -25.955679 -2.415864 36.356037 -0.131052 -0.991210 -0.018117 0.167466 0.785532 1 11 1.000000
  11 -26.495686 -2.351716 36.752678 -0.131052 -0.991210 -0.018117 0.066994 0.785532 1 11 1.000000
  11 -26.587744 -2.337212 36.625004 -0.131052 -0.991210 -0.018117 0.015194 0.737831 1 11 1.000000
gman_briefcase
  11 -25.947334 -1.722883 36.255325 0.131052 0.991210 0.018117 0.165782 0.952692 1 11 1.000000
  11 -25.181673 -1.819070 35.979259 0.131052 0.991210 0.018117 0.284810 0.887954 1 11 1.000000
  11 -25.316637 -1.797804 35.792072 0.131052 0.991210 0.018117 0.341660 0.952692 1 11 1.000000
gman_briefcase
  11 -25.947334 -1.722883 36.255325 0.131052 0.991210 0.018117 0.165782 0.952692 1 11 1.000000
  11 -25.812368 -1.744149 36.442513 0.131052 0.991210 0.018117 0.167466 0.887954 1 11 1.000000
  11 -25.181673 -1.819070 35.979259 0.131052 0.991210 0.018117 0.284810 0.887954 1 11 1.000000
gman_briefcase
  11 -26.785908 -6.430670 36.384804 0.398169 -0.834061 -0.381842 0.008391 0.671803 1 11 1.000000
  11 -34.160027 -5.165341 25.931486 0.398169 -0.834061 -0.381842 0.093451 0.076061 1 11 1.000000
  11 -26.713570 -6.338636 36.259201 0.398169 -0.834061 -0.381842 0.093451 0.607744 1 11 1.000000
gman_briefcase
  11 -26.785908 -6.430670 36.384804 0.398169 -0.834061 -0.381842 0.008391 0.671803 1 11 1.000000
  11 -34.311298 -5.244939 25.947613 0.398169 -0.834061 -0.381842 0.008391 0.010839 1 11 1.000000
  11 -34.160027 -5.165341 25.931486 0.398169 -0.834061 -0.381842 0.093451 0.076061 1 11 1.000000
gman_briefcase
  11 -24.554285 10.448138 36.693306 0.896829 -0.126322 0.423957 0.865069 0.671803 1 11 1.000000
  11 -26.713570 -6.338636 36.259201 0.896829 -0.126322 0.423957 0.093451 0.607744 1 11 1.000000
  11 -24.507746 10.345043 36.564140 0.896829 -0.126322 0.423957 0.782568 0.607744 1 11 1.000000
gman_briefcase
  11 -24.554285 10.448138 36.693306 0.896829 -0.126322 0.423957 0.865069 0.671803 1 11 1.000000
  11 -26.785908 -6.430670 36.384804 0.896829 -0.126322 0.423957 0.008391 0.671803 1 11 1.000000
  11 -26.713570 -6.338636 36.259201 0.896829 -0.126322 0.423957 0.093451 0.607744 1 11 1.000000
gman_briefcase
  11 -34.311298 -5.244939 25.947613 -0.123880 0.034505 -0.991697 0.008391 0.010839 1 11 1.000000
  11 -31.954203 11.518338 26.236423 -0.123880 0.034505 -0.991697 0.782568 0.076061 1 11 1.000000
  11 -34.160027 -5.165341 25.931486 -0.123880 0.034505 -0.991697 0.093451 0.076061 1 11 1.000000
gman_briefcase
  11 -34.311298 -5.244939 25.947613 -0.123880 0.034505 -0.991697 0.008391 0.010839 1 11 1.000000
  11 -32.079674 11.633870 26.256117 -0.123880 0.034505 -0.991697 0.865069 0.010839 1 11 1.000000
  11 -31.954203 11.518338 26.236423 -0.123880 0.034505 -0.991697 0.782568 0.076061 1 11 1.000000
gman_briefcase
  11 -32.079674 11.633870 26.256117 0.602995 0.715133 -0.353526 0.865069 0.010839 1 11 1.000000
  11 -24.507746 10.345043 36.564140 0.602995 0.715133 -0.353526 0.782568 0.607744 1 11 1.000000
  11 -31.954203 11.518338 26.236423 0.602995 0.715133 -0.353526 0.782568 0.076061 1 11 1.000000
gman_briefcase
  11 -32.079674 11.633870 26.256117 0.602995 0.715133 -0.353526 0.865069 0.010839 1 11 1.000000
  11 -24.554285 10.448138 36.693306 0.602995 0.715133 -0.353526 0.865069 0.671803 1 11 1.000000
  11 -24.507746 10.345043 36.564140 0.602995 0.715133 -0.353526 0.782568 0.607744 1 11 1.000000
gman_briefcase
  11 -34.113487 -5.268437 25.802319 -0.602995 -0.715133 0.353526 0.007174 0.007819 1 11 1.000000
  11 -26.713570 -6.338636 36.259201 -0.602995 -0.715133 0.353526 0.096339 0.602911 1 11 1.000000
  11 -34.160027 -5.165341 25.931486 -0.602995 -0.715133 0.353526 0.096339 0.076976 1 11 1.000000
gman_briefcase
  11 -34.113487 -5.268437 25.802319 -0.602995 -0.715133 0.353526 0.007174 0.007819 1 11 1.000000
  11 -26.588099 -6.454169 36.239506 -0.602995 -0.715133 0.353526 0.007174 0.672068 1 11 1.000000
  11 -26.713570 -6.338636 36.259201 -0.602995 -0.715133 0.353526 0.096339 0.602911 1 11 1.000000
gman_briefcase
  11 -26.588099 -6.454169 36.239506 0.123880 -0.034505 0.991697 0.007174 0.672068 1 11 1.000000
  11 -24.507746 10.345043 36.564140 0.123880 -0.034505 0.991697 0.774443 0.602911 1 11 1.000000
  11 -26.713570 -6.338636 36.259201 0.123880 -0.034505 0.991697 0.096339 0.602911 1 11 1.000000
gman_briefcase
  11 -26.588099 -6.454169 36.239506 0.123880 -0.034505 0.991697 0.007174 0.672068 1 11 1.000000
  11 -24.356474 10.424641 36.548012 0.123880 -0.034505 0.991697 0.863608 0.672068 1 11 1.000000
  11 -24.507746 10.345043 36.564140 0.123880 -0.034505 0.991697 0.774443 0.602911 1 11 1.000000
gman_briefcase
  11 -31.881865 11.610373 26.110821 -0.896829 0.126322 -0.423957 0.863608 0.007819 1 11 1.000000
  11 -34.160027 -5.165341 25.931486 -0.896829 0.126322 -0.423957 0.096339 0.076976 1 11 1.000000
  11 -31.954203 11.518338 26.236423 -0.896829 0.126322 -0.423957 0.774443 0.076976 1 11 1.000000
gman_briefcase
  11 -31.881865 11.610373 26.110821 -0.896829 0.126322 -0.423957 0.863608 0.007819 1 11 1.000000
  11 -34.113487 -5.268437 25.802319 -0.896829 0.126322 -0.423957 0.007174 0.007819 1 11 1.000000
  11 -34.160027 -5.165341 25.931486 -0.896829 0.126322 -0.423957 0.096339 0.076976 1 11 1.000000
gman_briefcase
  11 -24.356474 10.424641 36.548012 -0.398169 0.834061 0.381842 0.863608 0.672068 1 11 1.000000
  11 -31.954203 11.518338 26.236423 -0.398169 0.834061 0.381842 0.774443 0.076976 1 11 1.000000
  11 -24.507746 10.345043 36.564140 -0.398169 0.834061 0.381842 0.774443 0.602911 1 11 1.000000
gman_briefcase
  11 -24.356474 10.424641 36.548012 -0.398169 0.834061 0.381842 0.863608 0.672068 1 11 1.000000
  11 -31.881865 11.610373 26.110821 -0.398169 0.834061 0.381842 0.863608 0.007819 1 11 1.000000
  11 -31.954203 11.518338 26.236423 -0.398169 0.834061 0.381842 0.774443 0.076976 1 11 1.000000
gman_briefcase
  11 -25.603130 -6.571173 35.516041 -0.131052 -0.991210 -0.018117 0.092373 0.605987 1 11 1.000000
  11 -34.113487 -5.268437 25.802319 -0.131052 -0.991210 -0.018117 0.007174 0.007819 1 11 1.000000
  11 -33.128521 -5.385440 25.078850 -0.131052 -0.991210 -0.018117 0.092373 0.073900 1 11 1.000000
gman_briefcase
  11 -25.603130 -6.571173 35.516041 -0.131052 -0.991210 -0.018117 0.092373 0.605987 1 11 1.000000
  11 -26.588099 -6.454169 36.239506 -0.131052 -0.991210 -0.018117 0.007174 0.672068 1 11 1.000000
  11 -34.113487 -5.268437 25.802319 -0.131052 -0.991210 -0.018117 0.007174 0.007819 1 11 1.000000
gman_briefcase
  11 -23.371508 10.307637 35.824543 0.582380 -0.091763 0.807721 0.778409 0.605987 1 11 1.000000
  11 -26.588099 -6.454169 36.239506 0.582380 -0.091763 0.807721 0.007174 0.672068 1 11 1.000000
  11 -25.603130 -6.571173 35.516041 0.582380 -0.091763 0.807721 0.092373 0.605987 1 11 1.000000
gman_briefcase
  11 -23.371508 10.307637 35.824543 0.582380 -0.091763 0.807721 0.778409 0.605987 1 11 1.000000
  11 -24.356474 10.424641 36.548012 0.582380 -0.091763 0.807721 0.863608 0.672068 1 11 1.000000
  11 -26.588099 -6.454169 36.239506 0.582380 -0.091763 0.807721 0.007174 0.672068 1 11 1.000000
gman_briefcase
  11 -33.128521 -5.385440 25.078850 -0.582380 0.091763 -0.807721 0.092373 0.073900 1 11 1.000000
  11 -31.881865 11.610373 26.110821 -0.582380 0.091763 -0.807721 0.863608 0.007819 1 11 1.000000
  11 -30.896896 11.493367 25.387354 -0.582380 0.091763 -0.807721 0.778409 0.073900 1 11 1.000000
gman_briefcase
  11 -33.128521 -5.385440 25.078850 -0.582380 0.091763 -0.807721 0.092373 0.073900 1 11 1.000000
  11 -34.113487 -5.268437 25.802319 -0.582380 0.091763 -0.807721 0.007174 0.007819 1 11 1.000000
  11 -31.881865 11.610373 26.110821 -0.582380 0.091763 -0.807721 0.863608 0.007819 1 11 1.000000
gman_briefcase
  11 -30.896896 11.493367 25.387354 0.131052 0.991210 0.018117 0.778409 0.073900 1 11 1.000000
  11 -24.356474 10.424641 36.548012 0.131052 0.991210 0.018117 0.863608 0.672068 1 11 1.000000
  11 -23.371508 10.307637 35.824543 0.131052 0.991210 0.018117 0.778409 0.605987 1 11 1.000000
gman_briefcase
  11 -30.896896 11.493367 25.387354 0.131052 0.991210 0.018117 0.778409 0.073900 1 11 1.000000
  11 -31.881865 11.610373 26.110821 0.131052 0.991210 0.018117 0.863608 0.007819 1 11 1.000000
  11 -24.356474 10.424641 36.548012 0.131052 0.991210 0.018117 0.863608 0.672068 1 11 1.000000
gman_briefcase
  11 -27.364498 -6.361941 36.809784 0.582380 -0.091763 0.807721 0.089421 0.610853 1 11 1.000000
  11 -24.554285 10.448138 36.693306 0.582380 -0.091763 0.807721 0.865069 0.671803 1 11 1.000000
  11 -25.132875 10.516870 37.118290 0.582380 -0.091763 0.807721 0.786598 0.610853 1 11 1.000000
gman_briefcase
  11 -27.364498 -6.361941 36.809784 0.582380 -0.091763 0.807721 0.089421 0.610853 1 11 1.000000
  11 -26.785908 -6.430670 36.384804 0.582380 -0.091763 0.807721 0.008391 0.671803 1 11 1.000000
  11 -24.554285 10.448138 36.693306 0.582380 -0.091763 0.807721 0.865069 0.671803 1 11 1.000000
gman_briefcase
  11 -32.658264 11.702600 26.681099 -0.582380 0.091763 -0.807721 0.786598 0.072952 1 11 1.000000
  11 -34.311298 -5.244939 25.947613 -0.582380 0.091763 -0.807721 0.008391 0.010839 1 11 1.000000
  11 -34.889889 -5.176208 26.372595 -0.582380 0.091763 -0.807721 0.089421 0.072952 1 11 1.000000
gman_briefcase
  11 -32.658264 11.702600 26.681099 -0.582380 0.091763 -0.807721 0.786598 0.072952 1 11 1.000000
  11 -32.079674 11.633870 26.256117 -0.582380 0.091763 -0.807721 0.865069 0.010839 1 11 1.000000
  11 -34.311298 -5.244939 25.947613 -0.582380 0.091763 -0.807721 0.008391 0.010839 1 11 1.000000
gman_briefcase
  11 -25.132875 10.516870 37.118290 0.131052 0.991210 0.018117 0.786598 0.610853 1 11 1.000000
  11 -32.079674 11.633870 26.256117 0.131052 0.991210 0.018117 0.865069 0.010839 1 11 1.000000
  11 -32.658264 11.702600 26.681099 0.131052 0.991210 0.018117 0.786598 0.072952 1 11 1.000000
gman_briefcase
  11 -25.132875 10.516870 37.118290 0.131052 0.991210 0.018117 0.786598 0.610853 1 11 1.000000
  11 -24.554285 10.448138 36.693306 0.131052 0.991210 0.018117 0.865069 0.671803 1 11 1.000000
  11 -32.079674 11.633870 26.256117 0.131052 0.991210 0.018117 0.865069 0.010839 1 11 1.000000
gman_briefcase
  11 -24.766367 6.579452 36.520451 0.582380 -0.091763 0.807721 0.167466 0.872434 1 11 1.000000
  11 -25.383196 6.062563 36.906471 0.582380 -0.091763 0.807721 0.066994 0.784935 1 11 1.000000
  11 -24.843189 5.998417 36.509830 0.582380 -0.091763 0.807721 0.167466 0.784935 1 11 1.000000
gman_briefcase
  11 -24.766367 6.579452 36.520451 0.582380 -0.091763 0.807721 0.167466 0.872434 1 11 1.000000
  11 -25.306374 6.643597 36.917091 0.582380 -0.091763 0.807721 0.066994 0.872434 1 11 1.000000
  11 -25.383196 6.062563 36.906471 0.582380 -0.091763 0.807721 0.066994 0.784935 1 11 1.000000
gman_briefcase
  11 -24.858425 6.593956 36.392773 0.131052 0.991210 0.018117 0.165782 0.920135 1 11 1.000000
  11 -25.306374 6.643597 36.917091 0.131052 0.991210 0.018117 0.066994 0.872434 1 11 1.000000
  11 -24.766367 6.579452 36.520451 0.131052 0.991210 0.018117 0.167466 0.872434 1 11 1.000000
gman_briefcase
  11 -24.858425 6.593956 36.392773 0.131052 0.991210 0.018117 0.165782 0.920135 1 11 1.000000
  11 -25.398434 6.658103 36.789413 0.131052 0.991210 0.018117 0.015194 0.920135 1 11 1.000000
  11 -25.306374 6.643597 36.917091 0.131052 0.991210 0.018117 0.066994 0.872434 1 11 1.000000
gman_briefcase
  11 -24.937868 5.912179 36.394875 0.802283 -0.095303 -0.589287 0.165782 0.705274 1 11 1.000000
  11 -24.858425 6.593956 36.392773 0.802283 -0.095303 -0.589287 0.165782 0.920135 1 11 1.000000
  11 -24.834845 6.691396 36.409119 0.802283 -0.095303 -0.589287 0.165782 0.951439 1 11 1.000000
gman_briefcase
  11 -24.937868 5.912179 36.394875 0.802283 -0.095303 -0.589287 0.165782 0.705274 1 11 1.000000
  11 -24.935247 6.012922 36.382153 0.802283 -0.095303 -0.589287 0.165782 0.736579 1 11 1.000000
  11 -24.858425 6.593956 36.392773 0.802283 -0.095303 -0.589287 0.165782 0.920135 1 11 1.000000
gman_briefcase
  11 -24.937868 5.912179 36.394875 -0.131052 -0.991210 -0.018117 0.165782 0.705274 1 11 1.000000
  11 -24.172207 5.815993 36.118809 -0.131052 -0.991210 -0.018117 0.284810 0.770012 1 11 1.000000
  11 -24.802904 5.890913 36.582062 -0.131052 -0.991210 -0.018117 0.167466 0.770012 1 11 1.000000
gman_briefcase
  11 -24.937868 5.912179 36.394875 -0.131052 -0.991210 -0.018117 0.165782 0.705274 1 11 1.000000
  11 -24.307171 5.837259 35.931622 -0.131052 -0.991210 -0.018117 0.341660 0.705274 1 11 1.000000
  11 -24.172207 5.815993 36.118809 -0.131052 -0.991210 -0.018117 0.284810 0.770012 1 11 1.000000
gman_briefcase
  11 -24.699879 6.670131 36.596306 0.582380 -0.091763 0.807721 0.167466 0.887357 1 11 1.000000
  11 -24.172207 5.815993 36.118809 0.582380 -0.091763 0.807721 0.284810 0.770012 1 11 1.000000
  11 -24.069181 6.595211 36.133053 0.582380 -0.091763 0.807721 0.284810 0.887357 1 11 1.000000
gman_briefcase
  11 -24.699879 6.670131 36.596306 0.582380 -0.091763 0.807721 0.167466 0.887357 1 11 1.000000
  11 -24.802904 5.890913 36.582062 0.582380 -0.091763 0.807721 0.167466 0.770012 1 11 1.000000
  11 -24.172207 5.815993 36.118809 0.582380 -0.091763 0.807721 0.284810 0.770012 1 11 1.000000
gman_briefcase
  11 -24.204147 6.616477 35.945862 0.802283 -0.095303 -0.589287 0.341660 0.951439 1 11 1.000000
  11 -24.172207 5.815993 36.118809 0.802283 -0.095303 -0.589287 0.284810 0.770012 1 11 1.000000
  11 -24.307171 5.837259 35.931622 0.802283 -0.095303 -0.589287 0.341660 0.705274 1 11 1.000000
gman_briefcase
  11 -24.204147 6.616477 35.945862 0.802283 -0.095303 -0.589287 0.341660 0.951439 1 11 1.000000
  11 -24.069181 6.595211 36.133053 0.802283 -0.095303 -0.589287 0.284810 0.887357 1 11 1.000000
  11 -24.172207 5.815993 36.118809 0.802283 -0.095303 -0.589287 0.284810 0.770012 1 11 1.000000
gman_briefcase
  11 -25.398434 6.658103 36.789413 -0.802283 0.095303 0.589287 0.015194 0.920135 1 11 1.000000
  11 -25.383196 6.062563 36.906471 -0.802283 0.095303 0.589287 0.066994 0.784935 1 11 1.000000
  11 -25.306374 6.643597 36.917091 -0.802283 0.095303 0.589287 0.066994 0.872434 1 11 1.000000
gman_briefcase
  11 -25.398434 6.658103 36.789413 -0.802283 0.095303 0.589287 0.015194 0.920135 1 11 1.000000
  11 -25.475252 6.077068 36.778797 -0.802283 0.095303 0.589287 0.015194 0.736579 1 11 1.000000
  11 -25.383196 6.062563 36.906471 -0.802283 0.095303 0.589287 0.066994 0.784935 1 11 1.000000
gman_briefcase
  11 -24.843189 5.998417 36.509830 -0.131052 -0.991210 -0.018117 0.167466 0.784935 1 11 1.000000
  11 -25.475252 6.077068 36.778797 -0.131052 -0.991210 -0.018117 0.015194 0.736579 1 11 1.000000
  11 -24.935247 6.012922 36.382153 -0.131052 -0.991210 -0.018117 0.165782 0.736579 1 11 1.000000
gman_briefcase
  11 -24.843189 5.998417 36.509830 -0.131052 -0.991210 -0.018117 0.167466 0.784935 1 11 1.000000
  11 -25.383196 6.062563 36.906471 -0.131052 -0.991210 -0.018117 0.066994 0.784935 1 11 1.000000
  11 -25.475252 6.077068 36.778797 -0.131052 -0.991210 -0.018117 0.015194 0.736579 1 11 1.000000
gman_briefcase
  11 -24.834845 6.691396 36.409119 0.131052 0.991210 0.018117 0.165782 0.951439 1 11 1.000000
  11 -24.069181 6.595211 36.133053 0.131052 0.991210 0.018117 0.284810 0.887357 1 11 1.000000
  11 -24.204147 6.616477 35.945862 0.131052 0.991210 0.018117 0.341660 0.951439 1 11 1.000000
gman_briefcase
  11 -24.834845 6.691396 36.409119 0.131052 0.991210 0.018117 0.165782 0.951439 1 11 1.000000
  11 -24.699879 6.670131 36.596306 0.131052 0.991210 0.018117 0.167466 0.887357 1 11 1.000000
  11 -24.069181 6.595211 36.133053 0.131052 0.991210 0.018117 0.284810 0.887357 1 11 1.000000
gman_briefcase
  11 -25.878857 -1.834828 36.366657 0.582380 -0.091763 0.807721 0.167466 0.873031 1 11 1.000000
  11 -26.495686 -2.351716 36.752678 0.582380 -0.091763 0.807721 0.066994 0.785532 1 11 1.000000
  11 -25.955679 -2.415864 36.356037 0.582380 -0.091763 0.807721 0.167466 0.785532 1 11 1.000000
gman_briefcase
  11 -25.878857 -1.834828 36.366657 0.582380 -0.091763 0.807721 0.167466 0.873031 1 11 1.000000
  11 -26.418865 -1.770683 36.763302 0.582380 -0.091763 0.807721 0.066994 0.873031 1 11 1.000000
  11 -26.495686 -2.351716 36.752678 0.582380 -0.091763 0.807721 0.066994 0.785532 1 11 1.000000
gman_briefcase
  11 -25.970917 -1.820323 36.238979 0.131052 0.991210 0.018117 0.165782 0.921388 1 11 1.000000
  11 -26.418865 -1.770683 36.763302 0.131052 0.991210 0.018117 0.066994 0.873031 1 11 1.000000
  11 -25.878857 -1.834828 36.366657 0.131052 0.991210 0.018117 0.167466 0.873031 1 11 1.000000
gman_briefcase
  11 -25.970917 -1.820323 36.238979 0.131052 0.991210 0.018117 0.165782 0.921388 1 11 1.000000
  11 -26.510921 -1.756178 36.635624 0.131052 0.991210 0.018117 0.015194 0.921388 1 11 1.000000
  11 -26.418865 -1.770683 36.763302 0.131052 0.991210 0.018117 0.066994 0.873031 1 11 1.000000
gman_briefcase
  11 -26.050358 -2.502101 36.241081 0.802283 -0.095303 -0.589287 0.165782 0.706527 1 11 1.000000
  11 -25.970917 -1.820323 36.238979 0.802283 -0.095303 -0.589287 0.165782 0.921388 1 11 1.000000
  11 -25.947334 -1.722883 36.255325 0.802283 -0.095303 -0.589287 0.165782 0.952692 1 11 1.000000
gman_briefcase
  11 -26.050358 -2.502101 36.241081 0.802283 -0.095303 -0.589287 0.165782 0.706527 1 11 1.000000
  11 -26.047735 -2.401358 36.228359 0.802283 -0.095303 -0.589287 0.165782 0.737831 1 11 1.000000
  11 -25.970917 -1.820323 36.238979 0.802283 -0.095303 -0.589287 0.165782 0.921388 1 11 1.000000
gman_briefcase
  11 -25.915392 -2.523367 36.428272 -0.802283 0.095303 0.589287 0.167466 0.770609 1 11 1.000000
  11 -26.047735 -2.401358 36.228359 -0.802283 0.095303 0.589287 0.165782 0.737831 1 11 1.000000
  11 -26.050358 -2.502101 36.241081 -0.802283 0.095303 0.589287 0.165782 0.706527 1 11 1.000000
gman_briefcase
  11 -25.915392 -2.523367 36.428272 -0.802283 0.095303 0.589287 0.167466 0.770609 1 11 1.000000
  11 -25.955679 -2.415864 36.356037 -0.802283 0.095303 0.589287 0.167466 0.785532 1 11 1.000000
  11 -26.047735 -2.401358 36.228359 -0.802283 0.095303 0.589287 0.165782 0.737831 1 11 1.000000
gman_briefcase
  11 -25.812368 -1.744149 36.442513 -0.802283 0.095303 0.589287 0.167466 0.887954 1 11 1.000000
  11 -25.955679 -2.415864 36.356037 -0.802283 0.095303 0.589287 0.167466 0.785532 1 11 1.000000
  11 -25.915392 -2.523367 36.428272 -0.802283 0.095303 0.589287 0.167466 0.770609 1 11 1.000000
gman_briefcase
  11 -25.812368 -1.744149 36.442513 -0.802283 0.095303 0.589287 0.167466 0.887954 1 11 1.000000
  11 -25.878857 -1.834828 36.366657 -0.802283 0.095303 0.589287 0.167466 0.873031 1 11 1.000000
  11 -25.955679 -2.415864 36.356037 -0.802283 0.095303 0.589287 0.167466 0.785532 1 11 1.000000
gman_briefcase
  11 -25.947334 -1.722883 36.255325 -0.802283 0.095303 0.589287 0.165782 0.952692 1 11 1.000000
  11 -25.878857 -1.834828 36.366657 -0.802283 0.095303 0.589287 0.167466 0.873031 1 11 1.000000
  11 -25.812368 -1.744149 36.442513 -0.802283 0.095303 0.589287 0.167466 0.887954 1 11 1.000000
gman_briefcase
  11 -25.947334 -1.722883 36.255325 -0.802283 0.095303 0.589287 0.165782 0.952692 1 11 1.000000
  11 -25.970917 -1.820323 36.238979 -0.802283 0.095303 0.589287 0.165782 0.921388 1 11 1.000000
  11 -25.878857 -1.834828 36.366657 -0.802283 0.095303 0.589287 0.167466 0.873031 1 11 1.000000
gman_briefcase
  11 -25.047422 4.481068 36.320210 -0.583869 0.080200 -0.807877 0.937118 0.693816 1 11 1.000000
  11 -24.931177 4.020264 36.190453 -0.583869 0.080200 -0.807877 0.886155 0.694460 1 11 1.000000
  11 -25.045444 4.033837 36.274384 -0.583869 0.080200 -0.807877 0.886155 0.694460 1 11 1.000000
gman_briefcase
  11 -25.047422 4.481068 36.320210 -0.583869 0.080200 -0.807877 0.937118 0.693816 1 11 1.000000
  11 -24.818888 4.453920 36.152348 -0.583869 0.080200 -0.807877 0.937118 0.693816 1 11 1.000000
  11 -24.931177 4.020264 36.190453 -0.583869 0.080200 -0.807877 0.886155 0.694460 1 11 1.000000
gman_briefcase
  11 -25.047422 4.481068 36.320210 -0.583869 0.080200 -0.807877 0.937118 0.693816 1 11 1.000000
  11 -24.820866 4.901150 36.198174 -0.583869 0.080200 -0.807877 0.988081 0.693173 1 11 1.000000
  11 -24.818888 4.453920 36.152348 -0.583869 0.080200 -0.807877 0.937118 0.693816 1 11 1.000000
gman_briefcase
  11 -25.047422 4.481068 36.320210 -0.583869 0.080200 -0.807877 0.937118 0.693816 1 11 1.000000
  11 -24.935133 4.914724 36.282104 -0.583869 0.080200 -0.807877 0.988081 0.693173 1 11 1.000000
  11 -24.820866 4.901150 36.198174 -0.583869 0.080200 -0.807877 0.988081 0.693173 1 11 1.000000
gman_briefcase
  11 -24.567459 2.140935 37.470516 -0.582562 0.090383 -0.807745 0.680411 0.855782 1 11 1.000000
  11 -24.378998 0.417108 37.285686 -0.590138 0.022009 -0.807002 0.486680 0.885584 1 11 1.000000
  11 -24.719488 0.457555 37.535782 -0.590138 0.022009 -0.807002 0.486680 0.885584 1 11 1.000000
gman_briefcase
  11 -24.567459 2.140935 37.470516 -0.582562 0.090383 -0.807745 0.680411 0.855782 1 11 1.000000
  11 -24.226967 2.100488 37.220421 -0.582562 0.090383 -0.807745 0.680411 0.855782 1 11 1.000000
  11 -24.378998 0.417108 37.285686 -0.590138 0.022009 -0.807002 0.486680 0.885584 1 11 1.000000
gman_briefcase
  11 -24.268074 3.871821 37.598186 -0.572229 0.158329 -0.804665 0.882167 0.885584 1 11 1.000000
  11 -24.226967 2.100488 37.220421 -0.582562 0.090383 -0.807745 0.680411 0.855782 1 11 1.000000
  11 -24.567459 2.140935 37.470516 -0.582562 0.090383 -0.807745 0.680411 0.855782 1 11 1.000000
gman_briefcase
  11 -24.268074 3.871821 37.598186 -0.572229 0.158329 -0.804665 0.882167 0.885584 1 11 1.000000
  11 -23.927582 3.831373 37.348091 -0.572229 0.158329 -0.804665 0.882167 0.885584 1 11 1.000000
  11 -24.226967 2.100488 37.220421 -0.582562 0.090383 -0.807745 0.680411 0.855782 1 11 1.000000
gman_briefcase
  11 -25.505964 0.550716 36.210716 -0.580813 0.103313 -0.807454 0.482692 0.694460 1 11 1.000000
  11 -25.628332 -0.328272 36.186275 -0.580813 0.103313 -0.807454 0.380765 0.693173 1 11 1.000000
  11 -25.624283 0.118009 36.240463 -0.580813 0.103313 -0.807454 0.431729 0.693816 1 11 1.000000
gman_briefcase
  11 -25.505964 0.550716 36.210716 -0.580813 0.103313 -0.807454 0.482692 0.694460 1 11 1.000000
  11 -25.514065 -0.341845 36.102345 -0.580813 0.103313 -0.807454 0.380765 0.693173 1 11 1.000000
  11 -25.628332 -0.328272 36.186275 -0.580813 0.103313 -0.807454 0.380765 0.693173 1 11 1.000000
gman_briefcase
  11 -25.505964 0.550716 36.210716 -0.580813 0.103313 -0.807454 0.482692 0.694460 1 11 1.000000
  11 -25.395748 0.090862 36.072601 -0.580813 0.103313 -0.807454 0.431729 0.693816 1 11 1.000000
  11 -25.514065 -0.341845 36.102345 -0.580813 0.103313 -0.807454 0.380765 0.693173 1 11 1.000000
gman_briefcase
  11 -25.505964 0.550716 36.210716 -0.580813 0.103313 -0.807454 0.482692 0.694460 1 11 1.000000
  11 -25.391697 0.537141 36.126789 -0.580813 0.103313 -0.807454 0.482692 0.694460 1 11 1.000000
  11 -25.395748 0.090862 36.072601 -0.580813 0.103313 -0.807454 0.431729 0.693816 1 11 1.000000
end
