// Created by Crowbar 0.74
version 1
nodes
  0 "ValveBiped.Bip01_Pelvis" -1
  1 "ValveBiped.Bip01_Spine" 0
  2 "ValveBiped.Bip01_Spine1" 1
  3 "ValveBiped.Bip01_Spine2" 2
  4 "ValveBiped.Bip01_Spine4" 3
  5 "ValveBiped.Bip01_Neck1" 4
  6 "ValveBiped.Bip01_Head1" 5
  7 "ValveBiped.forward" 6
  8 "ValveBiped.Bip01_R_Clavicle" 4
  9 "ValveBiped.Bip01_R_UpperArm" 8
  10 "ValveBiped.Bip01_R_Forearm" 9
  11 "ValveBiped.Bip01_R_Hand" 10
  12 "ValveBiped.Anim_Attachment_RH" 11
  13 "ValveBiped.Bip01_L_Clavicle" 4
  14 "ValveBiped.Bip01_L_UpperArm" 13
  15 "ValveBiped.Bip01_L_Forearm" 14
  16 "ValveBiped.Bip01_L_Hand" 15
  17 "ValveBiped.Anim_Attachment_LH" 16
  18 "ValveBiped.Bip01_R_Thigh" 0
  19 "ValveBiped.Bip01_R_Calf" 18
  20 "ValveBiped.Bip01_R_Foot" 19
  21 "ValveBiped.Bip01_R_Toe0" 20
  22 "ValveBiped.Bip01_L_Thigh" 0
  23 "ValveBiped.Bip01_L_Calf" 22
  24 "ValveBiped.Bip01_L_Foot" 23
  25 "ValveBiped.Bip01_L_Toe0" 24
  26 "ValveBiped.Bip01_L_Finger4" 16
  27 "ValveBiped.Bip01_L_Finger41" 26
  28 "ValveBiped.Bip01_L_Finger42" 27
  29 "ValveBiped.Bip01_L_Finger3" 16
  30 "ValveBiped.Bip01_L_Finger31" 29
  31 "ValveBiped.Bip01_L_Finger32" 30
  32 "ValveBiped.Bip01_L_Finger2" 16
  33 "ValveBiped.Bip01_L_Finger21" 32
  34 "ValveBiped.Bip01_L_Finger22" 33
  35 "ValveBiped.Bip01_L_Finger1" 16
  36 "ValveBiped.Bip01_L_Finger11" 35
  37 "ValveBiped.Bip01_L_Finger12" 36
  38 "ValveBiped.Bip01_L_Finger0" 16
  39 "ValveBiped.Bip01_L_Finger01" 38
  40 "ValveBiped.Bip01_L_Finger02" 39
  41 "ValveBiped.Bip01_R_Finger4" 11
  42 "ValveBiped.Bip01_R_Finger41" 41
  43 "ValveBiped.Bip01_R_Finger42" 42
  44 "ValveBiped.Bip01_R_Finger3" 11
  45 "ValveBiped.Bip01_R_Finger31" 44
  46 "ValveBiped.Bip01_R_Finger32" 45
  47 "ValveBiped.Bip01_R_Finger2" 11
  48 "ValveBiped.Bip01_R_Finger21" 47
  49 "ValveBiped.Bip01_R_Finger22" 48
  50 "ValveBiped.Bip01_R_Finger1" 11
  51 "ValveBiped.Bip01_R_Finger11" 50
  52 "ValveBiped.Bip01_R_Finger12" 51
  53 "ValveBiped.Bip01_R_Finger0" 11
  54 "ValveBiped.Bip01_R_Finger01" 53
  55 "ValveBiped.Bip01_R_Finger02" 54
  56 "ValveBiped.Bip01_L_Ulna" 15
  57 "ValveBiped.Bip01_L_Wrist" 15
  58 "ValveBiped.Bip01_L_Elbow" 14
  59 "ValveBiped.Bip01_L_Bicep" 14
  60 "ValveBiped.Bip01_L_Shoulder" 14
  61 "ValveBiped.Bip01_L_Trapezius" 13
  62 "ValveBiped.Bip01_R_Ulna" 10
  63 "ValveBiped.Bip01_R_Wrist" 10
  64 "ValveBiped.Bip01_R_Elbow" 9
  65 "ValveBiped.Bip01_R_Bicep" 9
  66 "ValveBiped.Bip01_R_Shoulder" 9
  67 "ValveBiped.Bip01_R_Trapezius" 8
  68 "ValveBiped.Bip01_L_Pectoral" 3
end
skeleton
  time 0
    0 -0.000005 -0.533615 38.566917 1.570796 0.000000 0.000000
    1 0.000005 3.345128 -2.981901 1.570796 0.086293 1.570796
    2 4.018331 0.000000 0.000000 0.000000 0.000000 -0.029242
    3 3.518568 0.000000 0.000000 0.000000 0.000000 0.100336
    4 8.942642 0.000000 0.000000 0.000000 0.000000 0.194096
    5 3.307271 0.000000 0.000000 3.141590 0.000000 0.400478
    6 3.593712 -0.000002 0.000000 0.000000 -0.000001 0.406587
    7 1.999998 -3.000001 0.000000 -1.570796 0.000000 -1.326450
    8 2.033353 1.000771 -1.937610 -1.668474 1.286518 2.942953
    9 6.028142 0.000005 0.000000 1.639479 -0.008065 -0.586846
    10 11.692548 0.000000 0.000000 0.000000 0.000000 -0.060372
    11 11.481695 0.000000 0.000003 -1.564936 0.106606 0.044193
    12 2.676085 -1.712442 0.000000 -1.570796 0.000000 -1.570796
    13 2.033346 1.000767 1.937660 1.596637 -1.286515 2.942961
    14 6.028142 0.000001 0.000000 -1.579613 0.047802 -0.585173
    15 11.692556 0.000000 0.000003 0.000000 0.000000 -0.060372
    16 11.481669 0.000000 -0.000027 1.573183 -0.106613 0.044193
    17 2.676088 -1.712441 0.000000 1.570797 0.000000 1.570796
    18 -3.890452 0.000004 0.000007 -0.959581 0.054823 -1.585475
    19 17.848175 0.000000 0.000000 0.000000 0.000000 0.034187
    20 16.525261 0.000000 0.000000 -0.287865 -0.484213 -0.996659
    21 6.879456 0.000001 -0.000002 -0.081333 -0.002950 -0.584373
    22 3.890452 -0.000004 -0.000003 -1.570796 0.051839 -1.565575
    23 17.848171 0.000000 0.000000 0.000000 0.000000 0.034200
    24 16.525251 0.000000 0.000000 -0.027915 -0.040782 -1.071639
    25 6.879450 0.000000 0.000000 -0.007299 -0.002950 -0.584373
    26 3.859704 -0.142406 -1.191975 -0.479144 0.152190 -0.879874
    27 1.312561 0.000001 0.000000 0.000000 0.009665 -0.439720
    28 0.729365 0.000000 0.000000 0.000000 0.004971 -0.244299
    29 3.942326 0.046772 -0.431443 -0.155014 0.073328 -0.810648
    30 1.539091 0.000001 0.000000 0.000000 0.004460 -0.247797
    31 1.196320 0.000003 0.000000 0.000000 0.007361 -0.430802
    32 3.883687 -0.046769 0.431443 0.085902 0.021830 -0.587867
    33 1.719576 0.000002 0.000000 0.000000 0.005516 -0.366478
    34 1.209181 0.000000 0.000000 0.000000 0.003084 -0.216400
    35 3.859859 -0.137948 1.332467 0.354449 -0.042750 -0.531718
    36 1.719428 0.000002 0.000000 0.000000 0.004074 -0.363009
    37 1.099667 0.000001 0.000000 0.000000 0.002596 -0.244331
    38 0.806047 -0.348923 1.321259 -1.206854 -0.679489 -0.789308
    39 1.789784 -0.000001 0.000001 0.000000 0.007386 0.228523
    40 1.206999 0.000000 0.000003 0.000000 0.011266 0.362860
    41 3.859669 -0.132568 1.193107 0.479140 -0.158545 -0.879041
    42 1.312562 0.000000 -0.000001 0.000000 -0.011932 -0.439672
    43 0.729365 0.000000 0.000000 0.000000 -0.006134 -0.244271
    44 3.942293 0.050325 0.431043 0.154999 -0.079305 -0.810205
    45 1.539095 0.000001 0.000000 0.000000 -0.005854 -0.247771
    46 1.196322 0.000001 0.000000 0.000000 -0.009663 -0.430761
    47 3.883654 -0.050328 -0.431043 -0.085905 -0.026404 -0.587695
    48 1.719576 0.000001 0.000000 0.000000 -0.007974 -0.366436
    49 1.209183 -0.000001 0.000000 0.000000 -0.004461 -0.216376
    50 3.859825 -0.148936 -1.331281 -0.354419 0.038567 -0.532001
    51 1.719425 -0.000003 -0.000001 0.000000 -0.006613 -0.362970
    52 1.099665 0.000000 0.000000 0.000000 -0.004211 -0.244312
    53 0.806017 -0.359835 -1.318333 1.204200 0.673618 -0.793956
    54 1.789783 0.000000 0.000000 0.000000 -0.006301 0.228555
    55 1.206998 0.000000 0.000002 0.000000 -0.009618 0.362905
    56 5.740849 0.000000 0.000002 0.000688 0.000000 0.000000
    57 11.481695 0.000000 0.000004 0.001272 0.000000 0.000000
    58 11.692556 0.000000 0.000002 0.000000 0.000000 -0.029500
    59 5.559999 0.000000 0.000003 0.000000 0.000000 0.000000
    60 1.500000 0.000000 0.000003 0.000000 0.000000 0.000000
    61 5.166963 0.000000 0.000000 0.000000 0.000000 0.000000
    62 5.740847 0.000000 0.000000 0.000081 0.000000 0.000000
    63 11.481693 0.000000 -0.000001 0.000150 0.000000 0.000000
    64 11.692549 0.000000 -0.000001 0.000000 0.000000 -0.029500
    65 5.559996 0.000000 -0.000002 0.000000 0.000000 0.000000
    66 1.499999 0.000000 0.000000 0.000000 0.000000 0.000000
    67 5.166963 0.000003 0.000000 0.000000 0.000000 0.000000
    68 1.025254 4.831551 2.578000 0.000000 0.000000 0.000000
end
triangles
clipboard_sheet
  11 -28.085709 -3.089584 33.065468 -0.892403 -0.430807 0.134242 1.000000 0.009459 1 11 1.000000
  11 -22.383160 2.330242 38.389774 0.197161 -0.104669 0.974768 0.000000 0.058568 1 11 1.000000
  11 -22.590622 2.699420 38.195393 -0.073357 0.432049 0.898862 0.000000 0.009459 1 11 1.000000
clipboard_sheet
  11 -28.085709 -3.089584 33.065468 -0.892403 -0.430807 0.134242 1.000000 0.009459 1 11 1.000000
  11 -27.878246 -3.458763 33.259850 -0.471587 -0.809187 0.350458 1.000000 0.058568 1 11 1.000000
  11 -22.383160 2.330242 38.389774 0.197161 -0.104669 0.974768 0.000000 0.058568 1 11 1.000000
clipboard_sheet
  11 -23.731003 -3.095183 28.407101 0.073357 -0.432049 -0.898862 1.000000 0.009459 1 11 1.000000
  11 -19.421665 0.856916 32.430782 0.733448 -0.679641 0.011868 0.253537 0.058568 1 11 1.000000
  11 -23.523542 -3.464361 28.601482 0.316952 -0.810201 -0.493068 1.000000 0.058568 1 11 1.000000
clipboard_sheet
  11 -23.731003 -3.095183 28.407101 0.073357 -0.432049 -0.898862 1.000000 0.009459 1 11 1.000000
  11 -18.028456 2.324644 33.731407 0.878763 -0.398183 0.263108 0.000000 0.058568 1 11 1.000000
  11 -19.421665 0.856916 32.430782 0.733448 -0.679641 0.011868 0.253537 0.058568 1 11 1.000000
clipboard_sheet
  11 -23.731003 -3.095183 28.407101 0.073357 -0.432049 -0.898862 1.000000 0.009459 1 11 1.000000
  11 -18.235916 2.693821 33.537025 0.892403 0.430807 -0.134242 0.000000 0.009459 1 11 1.000000
  11 -18.028456 2.324644 33.731407 0.878763 -0.398183 0.263108 0.000000 0.058568 1 11 1.000000
clipboard_sheet
  11 -23.731003 -3.095183 28.407101 0.073357 -0.432049 -0.898862 0.998072 0.121288 1 11 1.000000
  11 -27.878246 -3.458763 33.259850 -0.471587 -0.809187 0.350458 0.656186 0.146270 1 11 1.000000
  11 -28.085709 -3.089584 33.065468 -0.892403 -0.430807 0.134242 0.656186 0.121288 1 11 1.000000
clipboard_sheet
  11 -23.731003 -3.095183 28.407101 0.073357 -0.432049 -0.898862 0.998072 0.121288 1 11 1.000000
  11 -23.523542 -3.464361 28.601482 0.316952 -0.810201 -0.493068 0.998072 0.146270 1 11 1.000000
  11 -27.878246 -3.458763 33.259850 -0.471587 -0.809187 0.350458 0.656186 0.146270 1 11 1.000000
clipboard_sheet
  11 -24.061710 -2.977826 30.094641 0.565221 0.670074 -0.481170 0.640344 0.240507 1 11 1.000000
  11 -26.479834 -2.987466 32.695770 0.107827 -0.036739 0.993491 0.817333 0.252874 1 11 1.000000
  11 -24.054543 -2.990583 30.101358 0.998450 -0.037884 0.040763 0.640344 0.252874 1 11 1.000000
clipboard_sheet
  11 -24.061710 -2.977826 30.094641 0.565221 0.670074 -0.481170 0.640344 0.240507 1 11 1.000000
  11 -26.487003 -2.974708 32.689053 -0.441232 0.671368 0.595465 0.817333 0.240507 1 11 1.000000
  11 -26.479834 -2.987466 32.695770 0.107827 -0.036739 0.993491 0.817333 0.252874 1 11 1.000000
clipboard_sheet
  11 -19.222242 1.880005 34.161049 0.025263 0.925433 -0.378068 0.076237 0.114922 1 11 1.000000
  11 -18.028456 2.324644 33.731407 0.878763 -0.398183 0.263108 0.008101 0.070832 1 11 1.000000
  11 -20.962402 2.328415 36.869946 0.657967 -0.405152 0.634769 0.267457 0.070832 1 11 1.000000
clipboard_sheet
  11 -19.222242 1.880005 34.161049 0.025263 0.925433 -0.378068 0.076237 0.114922 1 11 1.000000
  11 -19.421665 0.856916 32.430782 0.733448 -0.679641 0.011868 0.008101 0.216050 1 11 1.000000
  11 -18.028456 2.324644 33.731407 0.878763 -0.398183 0.263108 0.008101 0.070832 1 11 1.000000
clipboard_sheet
  11 -18.235916 2.693821 33.537025 0.892403 0.430807 -0.134242 0.369781 0.067441 1 11 1.000000
  11 -20.962402 2.328415 36.869946 0.657967 -0.405152 0.634769 0.794184 0.113470 1 11 1.000000
  11 -18.028456 2.324644 33.731407 0.878763 -0.398183 0.263108 0.369781 0.113470 1 11 1.000000
clipboard_sheet
  11 -18.235916 2.693821 33.537025 0.892403 0.430807 -0.134242 0.369781 0.067441 1 11 1.000000
  11 -22.383160 2.330242 38.389774 0.197161 -0.104669 0.974768 0.999701 0.113470 1 11 1.000000
  11 -20.962402 2.328415 36.869946 0.657967 -0.405152 0.634769 0.794184 0.113470 1 11 1.000000
clipboard_sheet
  11 -18.235916 2.693821 33.537025 0.892403 0.430807 -0.134242 0.369781 0.067441 1 11 1.000000
  11 -22.590622 2.699420 38.195393 -0.073357 0.432049 0.898862 0.999701 0.067441 1 11 1.000000
  11 -22.383160 2.330242 38.389774 0.197161 -0.104669 0.974768 0.999701 0.113470 1 11 1.000000
clipboard_sheet
  11 -23.523542 -3.464361 28.601482 0.316952 -0.810201 -0.493068 0.007005 0.998741 1 11 1.000000
  11 -22.383160 2.330242 38.389774 0.197161 -0.104669 0.974768 0.519311 0.236476 1 11 1.000000
  11 -27.878246 -3.458763 33.259850 -0.471587 -0.809187 0.350458 0.519311 0.998741 1 11 1.000000
clipboard_sheet
  11 -23.523542 -3.464361 28.601482 0.316952 -0.810201 -0.493068 0.007005 0.998741 1 11 1.000000
  11 -20.962402 2.328415 36.869946 0.657967 -0.405152 0.634769 0.352167 0.236476 1 11 1.000000
  11 -22.383160 2.330242 38.389774 0.197161 -0.104669 0.974768 0.519311 0.236476 1 11 1.000000
clipboard_sheet
  11 -23.523542 -3.464361 28.601482 0.316952 -0.810201 -0.493068 0.007005 0.998741 1 11 1.000000
  11 -19.421665 0.856916 32.430782 0.733448 -0.679641 0.011868 0.007005 0.429739 1 11 1.000000
  11 -20.962402 2.328415 36.869946 0.657967 -0.405152 0.634769 0.352167 0.236476 1 11 1.000000
clipboard_sheet
  11 -20.962402 2.328415 36.869946 0.657967 -0.405152 0.634769 0.352167 0.236476 1 11 1.000000
  11 -19.421665 0.856916 32.430782 0.733448 -0.679641 0.011868 0.007005 0.429739 1 11 1.000000
  11 -18.432182 1.590393 33.354881 0.823543 -0.061900 -0.563866 0.007005 0.307607 1 11 1.000000
clipboard_sheet
  11 -20.962402 2.328415 36.869946 0.657967 -0.405152 0.634769 0.352167 0.236476 1 11 1.000000
  11 -18.432182 1.590393 33.354881 0.823543 -0.061900 -0.563866 0.007005 0.307607 1 11 1.000000
  11 -19.491102 2.244886 35.388176 0.553806 0.446318 0.702922 0.184478 0.236476 1 11 1.000000
clipboard_sheet
  11 -17.867561 2.038332 33.882156 -0.090510 0.916104 -0.390591 0.007005 0.236476 1 11 1.000000
  11 -19.491102 2.244886 35.388176 0.553806 0.446318 0.702922 0.184478 0.236476 1 11 1.000000
  11 -18.432182 1.590393 33.354881 0.823543 -0.061900 -0.563866 0.007005 0.307607 1 11 1.000000
clipboard_sheet
  11 -24.886683 -3.641435 30.110046 0.390500 -0.675265 -0.625720 0.299098 0.156575 1 11 1.000000
  11 -24.054543 -2.990583 30.101358 0.998450 -0.037884 0.040763 0.343179 0.192512 1 11 1.000000
  11 -26.479834 -2.987466 32.695770 0.107827 -0.036739 0.993491 0.070462 0.192512 1 11 1.000000
clipboard_sheet
  11 -24.886683 -3.641435 30.110046 0.390500 -0.675265 -0.625720 0.299098 0.156575 1 11 1.000000
  11 -26.479834 -2.987466 32.695770 0.107827 -0.036739 0.993491 0.070462 0.192512 1 11 1.000000
  11 -26.527954 -3.639326 31.865767 -0.598827 -0.673993 0.432595 0.114542 0.156575 1 11 1.000000
clipboard_sheet
  11 -25.125595 -3.516794 29.886557 0.428819 -0.733226 -0.527726 0.299098 0.132451 1 11 1.000000
  11 -24.886683 -3.641435 30.110046 0.390500 -0.675265 -0.625720 0.299098 0.156575 1 11 1.000000
  11 -26.527954 -3.639326 31.865767 -0.598827 -0.673993 0.432595 0.114542 0.156575 1 11 1.000000
clipboard_sheet
  11 -25.125595 -3.516794 29.886557 0.428819 -0.733226 -0.527726 0.299098 0.132451 1 11 1.000000
  11 -26.527954 -3.639326 31.865767 -0.598827 -0.673993 0.432595 0.114542 0.156575 1 11 1.000000
  11 -26.766867 -3.514683 31.642279 -0.498546 -0.732034 0.464305 0.114542 0.132451 1 11 1.000000
clipboard_sheet
  11 -26.766867 -3.514683 31.642279 -0.498546 -0.732034 0.464305 0.114542 0.132451 1 11 1.000000
  11 -25.650600 -3.850961 29.812220 0.280287 -0.743150 -0.607592 0.275760 0.113141 1 11 1.000000
  11 -25.125595 -3.516794 29.886557 0.428819 -0.733226 -0.527726 0.299098 0.132451 1 11 1.000000
clipboard_sheet
  11 -26.766867 -3.514683 31.642279 -0.498546 -0.732034 0.464305 0.114542 0.132451 1 11 1.000000
  11 -26.199959 -4.043272 30.033297 -0.131777 -0.887399 -0.441766 0.234564 0.097717 1 11 1.000000
  11 -25.650600 -3.850961 29.812220 0.280287 -0.743150 -0.607592 0.275760 0.113141 1 11 1.000000
clipboard_sheet
  11 -26.766867 -3.514683 31.642279 -0.498546 -0.732034 0.464305 0.114542 0.132451 1 11 1.000000
  11 -26.693403 -4.042639 30.561152 -0.450699 -0.886989 -0.100607 0.179077 0.097717 1 11 1.000000
  11 -26.199959 -4.043272 30.033297 -0.131777 -0.887399 -0.441766 0.234564 0.097717 1 11 1.000000
clipboard_sheet
  11 -26.766867 -3.514683 31.642279 -0.498546 -0.732034 0.464305 0.114542 0.132451 1 11 1.000000
  11 -26.876774 -3.849385 31.123898 -0.588239 -0.742033 0.321498 0.137881 0.113141 1 11 1.000000
  11 -26.693403 -4.042639 30.561152 -0.450699 -0.886989 -0.100607 0.179077 0.097717 1 11 1.000000
clipboard_sheet
  11 -24.003553 -3.440774 28.119864 -0.028825 -0.873144 -0.486609 0.187675 0.226922 1 11 1.000000
  11 -28.454163 -3.435052 32.880821 -0.488492 -0.872554 0.005111 0.037526 0.230882 1 11 1.000000
  11 -28.519464 -3.318847 32.819633 -0.912323 -0.118343 -0.391998 0.037513 0.210458 1 11 1.000000
clipboard_sheet
  11 -24.003553 -3.440774 28.119864 -0.028825 -0.873144 -0.486609 0.187675 0.226922 1 11 1.000000
  11 -28.519464 -3.318847 32.819633 -0.912323 -0.118343 -0.391998 0.037513 0.210458 1 11 1.000000
  11 -24.068857 -3.324568 28.058678 -0.452656 -0.118933 -0.883718 0.187662 0.206497 1 11 1.000000
clipboard_sheet
  11 -23.399372 -3.001375 27.957970 0.148033 0.171048 -0.974078 0.204015 0.206175 1 11 1.000000
  11 -24.003553 -3.440774 28.119864 -0.028825 -0.873144 -0.486609 0.187675 0.226922 1 11 1.000000
  11 -24.068857 -3.324568 28.058678 -0.452656 -0.118933 -0.883718 0.187662 0.206497 1 11 1.000000
clipboard_sheet
  11 -23.399372 -3.001375 27.957970 0.148033 0.171048 -0.974078 0.204015 0.206175 1 11 1.000000
  11 -23.334072 -3.117581 28.019154 0.571864 -0.583163 -0.576969 0.204027 0.226600 1 11 1.000000
  11 -24.003553 -3.440774 28.119864 -0.028825 -0.873144 -0.486609 0.187675 0.226922 1 11 1.000000
clipboard_sheet
  11 -23.399372 -3.001375 27.957970 0.148033 0.171048 -0.974078 0.204015 0.206175 1 11 1.000000
  11 -17.132408 3.415793 33.808701 0.961700 -0.172475 -0.213038 0.487532 0.226600 1 11 1.000000
  11 -23.334072 -3.117581 28.019154 0.571864 -0.583163 -0.576969 0.204027 0.226600 1 11 1.000000
clipboard_sheet
  11 -23.399372 -3.001375 27.957970 0.148033 0.171048 -0.974078 0.204015 0.206175 1 11 1.000000
  11 -17.197710 3.531998 33.747517 0.537869 0.581736 -0.610147 0.487544 0.206175 1 11 1.000000
  11 -17.132408 3.415793 33.808701 0.961700 -0.172475 -0.213038 0.487532 0.226600 1 11 1.000000
clipboard_sheet
  11 -17.252743 3.856123 34.421848 0.488492 0.872554 -0.005111 0.503896 0.206497 1 11 1.000000
  11 -17.132408 3.415793 33.808701 0.961700 -0.172475 -0.213038 0.487532 0.226600 1 11 1.000000
  11 -17.197710 3.531998 33.747517 0.537869 0.581736 -0.610147 0.487544 0.206175 1 11 1.000000
clipboard_sheet
  11 -17.252743 3.856123 34.421848 0.488492 0.872554 -0.005111 0.503896 0.206497 1 11 1.000000
  11 -17.187441 3.739918 34.483032 0.912323 0.118343 0.391998 0.503884 0.226922 1 11 1.000000
  11 -17.132408 3.415793 33.808701 0.961700 -0.172475 -0.213038 0.487532 0.226600 1 11 1.000000
clipboard_sheet
  11 -17.252743 3.856123 34.421848 0.488492 0.872554 -0.005111 0.503896 0.206497 1 11 1.000000
  11 -21.638048 3.745638 39.243988 0.452656 0.118933 0.883718 0.654033 0.230882 1 11 1.000000
  11 -17.187441 3.739918 34.483032 0.912323 0.118343 0.391998 0.503884 0.226922 1 11 1.000000
clipboard_sheet
  11 -17.252743 3.856123 34.421848 0.488492 0.872554 -0.005111 0.503896 0.206497 1 11 1.000000
  11 -21.703348 3.861845 39.182804 0.028825 0.873144 0.486609 0.654045 0.210458 1 11 1.000000
  11 -21.638048 3.745638 39.243988 0.452656 0.118933 0.883718 0.654033 0.230882 1 11 1.000000
clipboard_sheet
  11 -21.638048 3.745638 39.243988 0.452656 0.118933 0.883718 0.654033 0.230882 1 11 1.000000
  11 -21.703348 3.861845 39.182804 0.028825 0.873144 0.486609 0.654045 0.210458 1 11 1.000000
  11 -22.372835 3.538651 39.283512 -0.571864 0.583163 0.576969 0.670397 0.210780 1 11 1.000000
clipboard_sheet
  11 -21.638048 3.745638 39.243988 0.452656 0.118933 0.883718 0.654033 0.230882 1 11 1.000000
  11 -22.372835 3.538651 39.283512 -0.571864 0.583163 0.576969 0.670397 0.210780 1 11 1.000000
  11 -22.307533 3.422446 39.344700 -0.148033 -0.171048 0.974078 0.670385 0.231205 1 11 1.000000
clipboard_sheet
  11 -28.509195 -3.110927 33.555149 -0.537869 -0.581736 0.610147 0.953915 0.231205 1 11 1.000000
  11 -22.307533 3.422446 39.344700 -0.148033 -0.171048 0.974078 0.670385 0.231205 1 11 1.000000
  11 -22.372835 3.538651 39.283512 -0.571864 0.583163 0.576969 0.670397 0.210780 1 11 1.000000
clipboard_sheet
  11 -28.509195 -3.110927 33.555149 -0.537869 -0.581736 0.610147 0.953915 0.231205 1 11 1.000000
  11 -22.372835 3.538651 39.283512 -0.571864 0.583163 0.576969 0.670397 0.210780 1 11 1.000000
  11 -28.574497 -2.994722 33.493965 -0.961700 0.172475 0.213038 0.953903 0.210780 1 11 1.000000
clipboard_sheet
  11 -28.509195 -3.110927 33.555149 -0.537869 -0.581736 0.610147 0.953915 0.231205 1 11 1.000000
  11 -28.574497 -2.994722 33.493965 -0.961700 0.172475 0.213038 0.953903 0.210780 1 11 1.000000
  11 -28.519464 -3.318847 32.819633 -0.912323 -0.118343 -0.391998 0.970255 0.210458 1 11 1.000000
clipboard_sheet
  11 -28.509195 -3.110927 33.555149 -0.537869 -0.581736 0.610147 0.953915 0.231205 1 11 1.000000
  11 -28.519464 -3.318847 32.819633 -0.912323 -0.118343 -0.391998 0.970255 0.210458 1 11 1.000000
  11 -28.454163 -3.435052 32.880821 -0.488492 -0.872554 0.005111 0.970267 0.230882 1 11 1.000000
clipboard_sheet
  11 -20.962402 2.328415 36.869946 0.657967 -0.405152 0.634769 0.227959 0.086076 1 11 1.000000
  11 -19.491102 2.244886 35.388176 0.553806 0.446318 0.702922 0.292411 0.086759 1 11 1.000000
  11 -19.222242 1.880005 34.161049 0.025263 0.925433 -0.378068 0.325262 0.110277 1 11 1.000000
clipboard_sheet
  11 -19.222242 1.880005 34.161049 0.025263 0.925433 -0.378068 0.325262 0.110277 1 11 1.000000
  11 -19.491102 2.244886 35.388176 0.553806 0.446318 0.702922 0.292411 0.086759 1 11 1.000000
  11 -17.867561 2.038332 33.882156 -0.090510 0.916104 -0.390591 0.361343 0.086568 1 11 1.000000
clipboard_sheet
  11 -18.432182 1.590393 33.354881 0.823543 -0.061900 -0.563866 0.361080 0.114200 1 11 1.000000
  11 -19.222242 1.880005 34.161049 0.025263 0.925433 -0.378068 0.325262 0.110277 1 11 1.000000
  11 -17.867561 2.038332 33.882156 -0.090510 0.916104 -0.390591 0.361343 0.086568 1 11 1.000000
clipboard_sheet
  11 -19.222242 1.880005 34.161049 0.025263 0.925433 -0.378068 0.325262 0.110277 1 11 1.000000
  11 -18.432182 1.590393 33.354881 0.823543 -0.061900 -0.563866 0.361080 0.114200 1 11 1.000000
  11 -19.421665 0.856916 32.430782 0.733448 -0.679641 0.011868 0.360412 0.161918 1 11 1.000000
clipboard_sheet
  11 -25.160131 -3.455339 29.854200 0.030872 0.452346 -0.891308 0.528119 0.151498 1 11 1.000000
  11 -26.504770 -3.114217 31.886808 -0.928690 0.344407 0.137546 0.410212 0.125565 1 11 1.000000
  11 -24.863499 -3.116327 30.131088 0.075139 0.343117 -0.936282 0.528119 0.125565 1 11 1.000000
clipboard_sheet
  11 -25.160131 -3.455339 29.854200 0.030872 0.452346 -0.891308 0.528119 0.151498 1 11 1.000000
  11 -26.801403 -3.453230 31.609921 -0.886666 0.453526 0.090211 0.410212 0.151498 1 11 1.000000
  11 -26.504770 -3.114217 31.886808 -0.928690 0.344407 0.137546 0.410212 0.125565 1 11 1.000000
clipboard_sheet
  11 -25.160131 -3.455339 29.854200 0.030872 0.452346 -0.891308 0.528119 0.151498 1 11 1.000000
  11 -26.911306 -3.787930 31.091539 -0.997968 -0.012918 -0.062398 0.425122 0.178385 1 11 1.000000
  11 -26.801403 -3.453230 31.609921 -0.886666 0.453526 0.090211 0.410212 0.151498 1 11 1.000000
clipboard_sheet
  11 -25.160131 -3.455339 29.854200 0.030872 0.452346 -0.891308 0.528119 0.151498 1 11 1.000000
  11 -26.727940 -3.981184 30.528795 -0.860426 -0.157875 -0.484502 0.451441 0.193884 1 11 1.000000
  11 -26.911306 -3.787930 31.091539 -0.997968 -0.012918 -0.062398 0.425122 0.178385 1 11 1.000000
clipboard_sheet
  11 -25.160131 -3.455339 29.854200 0.030872 0.452346 -0.891308 0.528119 0.151498 1 11 1.000000
  11 -26.234493 -3.981818 30.000938 -0.541505 -0.158284 -0.825662 0.486890 0.193884 1 11 1.000000
  11 -26.727940 -3.981184 30.528795 -0.860426 -0.157875 -0.484502 0.451441 0.193884 1 11 1.000000
clipboard_sheet
  11 -25.160131 -3.455339 29.854200 0.030872 0.452346 -0.891308 0.528119 0.151498 1 11 1.000000
  11 -25.685135 -3.789507 29.779863 -0.129442 -0.014035 -0.991488 0.513209 0.178385 1 11 1.000000
  11 -26.234493 -3.981818 30.000938 -0.541505 -0.158284 -0.825662 0.486890 0.193884 1 11 1.000000
clipboard_sheet
  11 -26.527954 -3.639326 31.865767 -0.598827 -0.673993 0.432595 0.594059 0.998213 1 11 1.000000
  11 -26.479834 -2.987466 32.695770 0.107827 -0.036739 0.993491 0.550159 0.987732 1 11 1.000000
  11 -26.487003 -2.974708 32.689053 -0.441232 0.671368 0.595465 0.550110 0.969793 1 11 1.000000
clipboard_sheet
  11 -26.527954 -3.639326 31.865767 -0.598827 -0.673993 0.432595 0.594059 0.998213 1 11 1.000000
  11 -26.487003 -2.974708 32.689053 -0.441232 0.671368 0.595465 0.550110 0.969793 1 11 1.000000
  11 -26.504770 -3.114217 31.886808 -0.928690 0.344407 0.137546 0.565698 0.969626 1 11 1.000000
clipboard_sheet
  11 -26.801403 -3.453230 31.609921 -0.886666 0.453526 0.090211 0.609643 0.970979 1 11 1.000000
  11 -26.527954 -3.639326 31.865767 -0.598827 -0.673993 0.432595 0.594059 0.998213 1 11 1.000000
  11 -26.504770 -3.114217 31.886808 -0.928690 0.344407 0.137546 0.565698 0.969626 1 11 1.000000
clipboard_sheet
  11 -26.801403 -3.453230 31.609921 -0.886666 0.453526 0.090211 0.609643 0.970979 1 11 1.000000
  11 -26.766867 -3.514683 31.642279 -0.498546 -0.732034 0.464305 0.609672 0.976586 1 11 1.000000
  11 -26.527954 -3.639326 31.865767 -0.598827 -0.673993 0.432595 0.594059 0.998213 1 11 1.000000
clipboard_sheet
  11 -26.801403 -3.453230 31.609921 -0.886666 0.453526 0.090211 0.609643 0.970979 1 11 1.000000
  11 -26.876774 -3.849385 31.123898 -0.588239 -0.742033 0.321498 0.665765 0.976413 1 11 1.000000
  11 -26.766867 -3.514683 31.642279 -0.498546 -0.732034 0.464305 0.609672 0.976586 1 11 1.000000
clipboard_sheet
  11 -26.801403 -3.453230 31.609921 -0.886666 0.453526 0.090211 0.609643 0.970979 1 11 1.000000
  11 -26.911306 -3.787930 31.091539 -0.997968 -0.012918 -0.062398 0.665740 0.970806 1 11 1.000000
  11 -26.876774 -3.849385 31.123898 -0.588239 -0.742033 0.321498 0.665765 0.976413 1 11 1.000000
clipboard_sheet
  11 -26.727940 -3.981184 30.528795 -0.860426 -0.157875 -0.484502 0.726589 0.970706 1 11 1.000000
  11 -26.876774 -3.849385 31.123898 -0.588239 -0.742033 0.321498 0.665765 0.976413 1 11 1.000000
  11 -26.911306 -3.787930 31.091539 -0.997968 -0.012918 -0.062398 0.665740 0.970806 1 11 1.000000
clipboard_sheet
  11 -26.727940 -3.981184 30.528795 -0.860426 -0.157875 -0.484502 0.726589 0.970706 1 11 1.000000
  11 -26.693403 -4.042639 30.561152 -0.450699 -0.886989 -0.100607 0.726601 0.976313 1 11 1.000000
  11 -26.876774 -3.849385 31.123898 -0.588239 -0.742033 0.321498 0.665765 0.976413 1 11 1.000000
clipboard_sheet
  11 -26.199959 -4.043272 30.033297 -0.131777 -0.887399 -0.441766 0.801008 0.976313 1 11 1.000000
  11 -26.693403 -4.042639 30.561152 -0.450699 -0.886989 -0.100607 0.726601 0.976313 1 11 1.000000
  11 -26.727940 -3.981184 30.528795 -0.860426 -0.157875 -0.484502 0.726589 0.970706 1 11 1.000000
clipboard_sheet
  11 -26.199959 -4.043272 30.033297 -0.131777 -0.887399 -0.441766 0.801008 0.976313 1 11 1.000000
  11 -26.727940 -3.981184 30.528795 -0.860426 -0.157875 -0.484502 0.726589 0.970706 1 11 1.000000
  11 -26.234493 -3.981818 30.000938 -0.541505 -0.158284 -0.825662 0.801020 0.970706 1 11 1.000000
clipboard_sheet
  11 -26.199959 -4.043272 30.033297 -0.131777 -0.887399 -0.441766 0.801008 0.976313 1 11 1.000000
  11 -26.234493 -3.981818 30.000938 -0.541505 -0.158284 -0.825662 0.801020 0.970706 1 11 1.000000
  11 -25.685135 -3.789507 29.779863 -0.129442 -0.014035 -0.991488 0.861869 0.970806 1 11 1.000000
clipboard_sheet
  11 -26.199959 -4.043272 30.033297 -0.131777 -0.887399 -0.441766 0.801008 0.976313 1 11 1.000000
  11 -25.685135 -3.789507 29.779863 -0.129442 -0.014035 -0.991488 0.861869 0.970806 1 11 1.000000
  11 -25.650600 -3.850961 29.812220 0.280287 -0.743150 -0.607592 0.861844 0.976413 1 11 1.000000
clipboard_sheet
  11 -25.125595 -3.516794 29.886557 0.428819 -0.733226 -0.527726 0.917937 0.976586 1 11 1.000000
  11 -25.650600 -3.850961 29.812220 0.280287 -0.743150 -0.607592 0.861844 0.976413 1 11 1.000000
  11 -25.685135 -3.789507 29.779863 -0.129442 -0.014035 -0.991488 0.861869 0.970806 1 11 1.000000
clipboard_sheet
  11 -25.125595 -3.516794 29.886557 0.428819 -0.733226 -0.527726 0.917937 0.976586 1 11 1.000000
  11 -25.685135 -3.789507 29.779863 -0.129442 -0.014035 -0.991488 0.861869 0.970806 1 11 1.000000
  11 -25.160131 -3.455339 29.854200 0.030872 0.452346 -0.891308 0.917966 0.970979 1 11 1.000000
clipboard_sheet
  11 -25.160131 -3.455339 29.854200 0.030872 0.452346 -0.891308 0.917966 0.970979 1 11 1.000000
  11 -24.886683 -3.641435 30.110046 0.390500 -0.675265 -0.625720 0.933550 0.998213 1 11 1.000000
  11 -25.125595 -3.516794 29.886557 0.428819 -0.733226 -0.527726 0.917937 0.976586 1 11 1.000000
clipboard_sheet
  11 -25.160131 -3.455339 29.854200 0.030872 0.452346 -0.891308 0.917966 0.970979 1 11 1.000000
  11 -24.863499 -3.116327 30.131088 0.075139 0.343117 -0.936282 0.961911 0.969626 1 11 1.000000
  11 -24.886683 -3.641435 30.110046 0.390500 -0.675265 -0.625720 0.933550 0.998213 1 11 1.000000
clipboard_sheet
  11 -24.863499 -3.116327 30.131088 0.075139 0.343117 -0.936282 0.961911 0.969626 1 11 1.000000
  11 -24.054543 -2.990583 30.101358 0.998450 -0.037884 0.040763 0.977450 0.987732 1 11 1.000000
  11 -24.886683 -3.641435 30.110046 0.390500 -0.675265 -0.625720 0.933550 0.998213 1 11 1.000000
clipboard_sheet
  11 -24.863499 -3.116327 30.131088 0.075139 0.343117 -0.936282 0.961911 0.969626 1 11 1.000000
  11 -24.061710 -2.977826 30.094641 0.565221 0.670074 -0.481170 0.977499 0.969793 1 11 1.000000
  11 -24.054543 -2.990583 30.101358 0.998450 -0.037884 0.040763 0.977450 0.987732 1 11 1.000000
clipboard_sheet
  11 -24.068857 -3.324568 28.058678 -0.452656 -0.118933 -0.883718 0.632464 0.314929 1 11 1.000000
  11 -17.197710 3.531998 33.747517 0.537869 0.581736 -0.610147 0.610411 0.782146 1 11 1.000000
  11 -23.399372 -3.001375 27.957970 0.148033 0.171048 -0.974078 0.610411 0.336982 1 11 1.000000
clipboard_sheet
  11 -24.068857 -3.324568 28.058678 -0.452656 -0.118933 -0.883718 0.632464 0.314929 1 11 1.000000
  11 -17.252743 3.856123 34.421848 0.488492 0.872554 -0.005111 0.632464 0.804199 1 11 1.000000
  11 -17.197710 3.531998 33.747517 0.537869 0.581736 -0.610147 0.610411 0.782146 1 11 1.000000
clipboard_sheet
  11 -24.068857 -3.324568 28.058678 -0.452656 -0.118933 -0.883718 0.632464 0.314929 1 11 1.000000
  11 -21.703348 3.861845 39.182804 0.028825 0.873144 0.486609 0.903403 0.804199 1 11 1.000000
  11 -17.252743 3.856123 34.421848 0.488492 0.872554 -0.005111 0.632464 0.804199 1 11 1.000000
clipboard_sheet
  11 -24.068857 -3.324568 28.058678 -0.452656 -0.118933 -0.883718 0.632464 0.314929 1 11 1.000000
  11 -22.372835 3.538651 39.283512 -0.571864 0.583163 0.576969 0.925456 0.782146 1 11 1.000000
  11 -21.703348 3.861845 39.182804 0.028825 0.873144 0.486609 0.903403 0.804199 1 11 1.000000
clipboard_sheet
  11 -24.068857 -3.324568 28.058678 -0.452656 -0.118933 -0.883718 0.632464 0.314929 1 11 1.000000
  11 -28.574497 -2.994722 33.493965 -0.961700 0.172475 0.213038 0.925456 0.336982 1 11 1.000000
  11 -22.372835 3.538651 39.283512 -0.571864 0.583163 0.576969 0.925456 0.782146 1 11 1.000000
clipboard_sheet
  11 -24.068857 -3.324568 28.058678 -0.452656 -0.118933 -0.883718 0.632464 0.314929 1 11 1.000000
  11 -28.519464 -3.318847 32.819633 -0.912323 -0.118343 -0.391998 0.903403 0.314929 1 11 1.000000
  11 -28.574497 -2.994722 33.493965 -0.961700 0.172475 0.213038 0.925456 0.336982 1 11 1.000000
clipboard_sheet
  11 -23.334072 -3.117581 28.019154 0.571864 -0.583163 -0.576969 0.992119 0.290812 1 11 1.000000
  11 -28.454163 -3.435052 32.880821 -0.488492 -0.872554 0.005111 0.567425 0.258846 1 11 1.000000
  11 -24.003553 -3.440774 28.119864 -0.028825 -0.873144 -0.486609 0.960153 0.258846 1 11 1.000000
clipboard_sheet
  11 -23.334072 -3.117581 28.019154 0.571864 -0.583163 -0.576969 0.992119 0.290812 1 11 1.000000
  11 -28.509195 -3.110927 33.555149 -0.537869 -0.581736 0.610147 0.535459 0.290812 1 11 1.000000
  11 -28.454163 -3.435052 32.880821 -0.488492 -0.872554 0.005111 0.567425 0.258846 1 11 1.000000
clipboard_sheet
  11 -23.334072 -3.117581 28.019154 0.571864 -0.583163 -0.576969 0.992119 0.290812 1 11 1.000000
  11 -22.307533 3.422446 39.344700 -0.148033 -0.171048 0.974078 0.535459 0.936082 1 11 1.000000
  11 -28.509195 -3.110927 33.555149 -0.537869 -0.581736 0.610147 0.535459 0.290812 1 11 1.000000
clipboard_sheet
  11 -23.334072 -3.117581 28.019154 0.571864 -0.583163 -0.576969 0.992119 0.290812 1 11 1.000000
  11 -21.638048 3.745638 39.243988 0.452656 0.118933 0.883718 0.567425 0.968048 1 11 1.000000
  11 -22.307533 3.422446 39.344700 -0.148033 -0.171048 0.974078 0.535459 0.936082 1 11 1.000000
clipboard_sheet
  11 -23.334072 -3.117581 28.019154 0.571864 -0.583163 -0.576969 0.992119 0.290812 1 11 1.000000
  11 -17.187441 3.739918 34.483032 0.912323 0.118343 0.391998 0.960153 0.968048 1 11 1.000000
  11 -21.638048 3.745638 39.243988 0.452656 0.118933 0.883718 0.567425 0.968048 1 11 1.000000
clipboard_sheet
  11 -23.334072 -3.117581 28.019154 0.571864 -0.583163 -0.576969 0.992119 0.290812 1 11 1.000000
  11 -17.132408 3.415793 33.808701 0.961700 -0.172475 -0.213038 0.992119 0.936082 1 11 1.000000
  11 -17.187441 3.739918 34.483032 0.912323 0.118343 0.391998 0.960153 0.968048 1 11 1.000000
end
