// Created by Crowbar 0.74
version 1
nodes
  0 "Bip01" -1
  1 "Bip01 Pelvis" 0
  2 "Bip01 Spine" 1
  3 "Bip01 Spine1" 2
  4 "Bip01 Spine2" 3
  5 "Bip01 Spine3" 4
  6 "Bip01 Neck" 5
  7 "Bip01 L Clavicle" 6
  8 "Bip01 L UpperArm" 7
  9 "Bip01 R Clavicle" 6
  10 "Bip01 R UpperArm" 9
  11 "Bip01 L Forearm" 8
  12 "Bip01 R Thigh" 1
  13 "Bip01 L Thigh" 1
  14 "Bip01 R Calf" 12
  15 "Bip01 R Foot" 14
  16 "Bip01 R Toe0" 15
  17 "Bip01 L Hand" 11
  18 "Bip01 L Finger1" 17
  19 "Bip01 L Finger11" 18
  20 "Bip01 L Finger0" 17
  21 "Bip01 L Finger01" 20
  22 "Bip01 L Finger02" 21
  23 "Bip01 R Forearm" 10
  24 "Bip01 R Hand" 23
  25 "Bip01 R Finger1" 24
  26 "Bip01 R Finger11" 25
  27 "Bip01 R Finger0" 24
  28 "Bip01 R Finger01" 27
  29 "Bip01 R Finger02" 28
  30 "Bip01 L Calf" 13
  31 "Bip01 L Foot" 30
  32 "Bip01 L Toe0" 31
  33 "Bip01 Head" 6
end
skeleton
  time 0
    0 0.235347 0.367732 38.885456 0.000000 0.000000 -1.570808
    1 0.679708 -0.015625 0.000000 0.000000 -1.570450 -1.570790
    2 1.293671 0.684478 -0.000001 -0.069775 0.000658 0.009500
    3 5.309690 -0.003834 0.000000 0.000000 0.000000 -0.069778
    4 4.826789 -0.004591 0.000000 -0.078499 0.000060 -0.000008
    5 5.792767 -0.005304 0.000000 0.000000 0.000000 0.017444
    6 6.662318 -0.001453 0.000000 0.000000 -0.000001 0.471000
    7 -3.112020 1.517251 4.341910 -0.000013 -1.370800 2.669810
    8 4.827230 0.000000 0.000000 0.484128 1.160339 0.758721
    9 -2.869900 1.399661 -4.140400 -0.000014 1.370790 2.669780
    10 4.972051 0.000000 -0.000002 -0.592856 -1.258767 0.836890
    11 11.139798 0.000000 0.000001 0.000000 0.000000 -0.287203
    12 0.000004 -0.000003 -3.713250 3.399529 0.050396 3.222163
    13 -0.000004 0.000007 3.713250 -3.196897 -0.034955 2.931562
    14 18.045700 0.000000 0.000000 0.000000 0.000000 -0.127551
    15 17.597601 0.000000 0.000000 -0.018140 0.069132 0.192759
    16 3.793090 6.407220 0.000000 0.000000 0.000000 1.570800
    17 10.314602 0.000000 -0.000001 -1.570000 0.000000 -0.069778
    18 2.975830 -0.386307 -0.044143 -0.000797 -0.043611 0.000035
    19 1.438889 -0.000001 0.000000 0.000000 0.000000 0.793710
    20 1.646739 0.449550 -1.702251 0.154002 0.442277 0.277235
    21 0.928312 0.000000 -0.000002 0.000000 0.000000 0.000000
    22 0.928312 -0.000002 0.000001 0.000000 0.000000 0.000000
    23 11.585398 0.000000 0.000001 0.000000 0.000000 -1.290250
    24 10.127097 0.000000 0.000000 1.569750 0.000000 -0.069778
    25 2.683750 -0.427338 0.044205 0.001045 0.043611 0.000046
    26 1.438891 0.000000 0.000001 0.000000 0.000000 0.331445
    27 1.533672 0.109716 1.664490 -0.233255 -0.412980 0.435684
    28 0.928313 0.000001 0.000000 0.000000 0.000000 0.000000
    29 0.928314 0.000000 0.000001 0.000000 0.000000 0.000000
    30 18.045698 0.000000 0.000000 0.000000 0.000000 -0.234878
    31 17.597605 0.000000 0.000000 -0.095585 -0.022610 0.023177
    32 3.793091 6.407220 0.000000 0.000000 0.000000 1.570800
    33 2.046988 0.000000 0.000000 0.158594 -0.045257 -0.152116
  time 1
    0 0.235347 0.367732 37.787766 0.000000 0.134643 -1.570808
    1 -1.875057 0.203131 0.000000 0.000000 -1.570450 -1.570790
    2 1.293671 0.684478 -0.000001 -0.069775 0.000658 0.009500
    3 5.309690 -0.003834 0.000000 0.000000 0.000000 0.290967
    4 4.826789 -0.004591 0.000000 -0.077912 0.009528 0.120641
    5 5.792767 -0.005304 0.000000 0.000000 0.000000 0.185888
    6 6.662318 -0.001453 0.000000 0.000000 -0.000001 0.471000
    7 -3.112020 1.517251 4.341910 -0.000013 -1.370800 2.669810
    8 4.827230 0.000000 0.000000 -0.849576 1.065823 -0.733304
    9 -2.869900 1.399661 -4.140400 -0.000014 1.370790 2.669780
    10 4.972051 0.000000 -0.000002 1.203512 -1.081871 -0.921199
    11 11.139798 0.000000 0.000001 0.000000 0.000000 -0.503320
    12 0.000004 -0.000003 -3.713250 3.349937 0.161194 2.761534
    13 -0.000004 0.000007 3.713250 -3.185812 -0.034595 2.602066
    14 18.045700 0.000000 0.000000 0.000000 0.000000 -1.136277
    15 17.597601 0.000000 0.000000 -0.059833 0.039123 -0.004839
    16 3.793090 6.407220 0.000000 0.000000 0.000000 1.570800
    17 10.314602 0.000000 -0.000001 -1.570000 0.000000 -0.069778
    18 2.975830 -0.386307 -0.044143 -0.000797 -0.043611 0.000035
    19 1.438889 -0.000001 0.000000 0.000000 0.000000 0.793710
    20 1.646739 0.449550 -1.702251 0.154002 0.442277 0.277235
    21 0.928312 0.000000 -0.000002 0.000000 0.000000 0.000000
    22 0.928312 -0.000002 0.000001 0.000000 0.000000 0.000000
    23 11.585398 0.000000 0.000001 0.000000 0.000000 -1.290250
    24 10.127097 0.000000 0.000000 1.569750 0.000000 -0.069778
    25 2.683750 -0.427338 0.044205 0.001045 0.043611 0.000046
    26 1.438891 0.000000 0.000001 0.000000 0.000000 0.331445
    27 1.533672 0.109716 1.664490 -0.233255 -0.412980 0.435684
    28 0.928313 0.000001 0.000000 0.000000 0.000000 0.000000
    29 0.928314 0.000000 0.000001 0.000000 0.000000 0.000000
    30 18.045698 0.000000 0.000000 0.000000 0.000000 -0.507182
    31 17.597605 0.000000 0.000000 -0.102697 -0.014340 0.101142
    32 3.793091 6.407220 0.000000 0.000000 0.000000 1.570800
    33 2.046988 0.000000 0.000000 0.076625 -0.145058 0.175167
  time 2
    0 0.235347 0.219290 34.240783 -0.127795 0.211650 -1.594843
    1 -2.062563 0.218757 0.000000 0.000000 -1.570450 -1.570790
    2 1.293671 0.684478 -0.000001 -0.069775 0.000658 0.009500
    3 5.309690 -0.003834 0.000000 0.000000 0.000000 0.319465
    4 4.826789 -0.004591 0.000000 -0.077816 0.010271 0.130181
    5 5.792767 -0.005304 0.000000 0.000000 0.000000 0.199191
    6 6.662318 -0.001453 0.000000 0.000000 -0.000001 0.471000
    7 -3.112020 1.517251 4.341910 0.769183 -1.295816 1.919739
    8 4.827230 0.000000 0.000000 -0.522593 0.845237 -0.293965
    9 -2.869900 1.399661 -4.140400 -0.191902 1.367161 2.481746
    10 4.972051 0.000000 -0.000002 1.040606 -0.813165 -0.924855
    11 11.139798 0.000000 0.000001 0.000000 0.000000 -0.527366
    12 0.000004 -0.000003 -3.713250 3.319592 0.289573 2.643646
    13 -0.000004 0.000007 3.713250 -3.145399 0.029067 2.308239
    14 18.045700 0.000000 0.000000 0.000000 0.000000 -1.220363
    15 17.597601 0.000000 0.000000 0.241479 0.073195 -0.159203
    16 3.793090 6.407220 0.000000 0.000000 0.000000 1.570800
    17 10.314602 0.000000 -0.000001 -1.570000 0.000000 -0.069778
    18 2.975830 -0.386307 -0.044143 -0.000797 -0.043611 0.000035
    19 1.438889 -0.000001 0.000000 0.000000 0.000000 0.793710
    20 1.646739 0.449550 -1.702251 0.154002 0.442277 0.277235
    21 0.928312 0.000000 -0.000002 0.000000 0.000000 0.000000
    22 0.928312 -0.000002 0.000001 0.000000 0.000000 0.000000
    23 11.585398 0.000000 0.000001 0.000000 0.000000 -1.290250
    24 10.127097 0.000000 0.000000 1.569750 0.000000 -0.069778
    25 2.683750 -0.427338 0.044205 0.001045 0.043611 0.000046
    26 1.438891 0.000000 0.000001 0.000000 0.000000 0.331445
    27 1.533672 0.109716 1.664490 -0.233255 -0.412980 0.435684
    28 0.928313 0.000001 0.000000 0.000000 0.000000 0.000000
    29 0.928314 0.000000 0.000001 0.000000 0.000000 0.000000
    30 18.045698 0.000000 0.000000 0.000000 0.000000 -1.181592
    31 17.597605 0.000000 0.000000 0.287966 0.011451 0.289858
    32 3.793091 6.407220 0.000000 0.000000 0.000000 1.570800
    33 2.046988 0.000000 0.000000 0.068328 0.045327 0.057544
  time 3
    0 0.235347 0.063035 30.475043 -0.271194 0.285451 -1.631983
    1 -2.160222 0.226569 0.000000 0.000000 -1.570450 -1.570790
    2 1.293671 0.684478 -0.000001 -0.069775 0.000658 0.009500
    3 5.309690 -0.003834 0.000000 0.000000 0.000000 0.334613
    4 4.826789 -0.004591 0.000000 -0.077768 0.010667 0.135238
    5 5.792767 -0.005304 0.000000 0.000000 0.000000 0.206262
    6 6.662318 -0.001453 0.000000 0.000000 -0.000001 0.471000
    7 -3.112020 1.517251 4.341910 1.136682 -1.121665 1.574291
    8 4.827230 0.000000 0.000000 -0.303506 0.585295 0.089395
    9 -2.869900 1.399661 -4.140400 -0.400815 1.354092 2.277408
    10 4.972051 0.000000 -0.000002 0.859334 -0.539017 -0.976409
    11 11.139798 0.000000 0.000001 0.000000 0.000000 -0.515373
    12 0.000004 -0.000003 -3.713250 3.294688 0.367496 2.596675
    13 -0.000004 0.000007 3.713250 -3.131689 0.106679 2.121145
    14 18.045700 0.000000 0.000000 0.000000 0.000000 -1.136277
    15 17.597601 0.000000 0.000000 0.478301 0.096037 -0.264790
    16 3.793090 6.407220 0.000000 0.000000 0.000000 1.570800
    17 10.314602 0.000000 -0.000001 -1.570000 0.000000 -0.069778
    18 2.975830 -0.386307 -0.044143 -0.000797 -0.043611 0.000035
    19 1.438889 -0.000001 0.000000 0.000000 0.000000 0.793710
    20 1.646739 0.449550 -1.702251 0.154002 0.442277 0.277235
    21 0.928312 0.000000 -0.000002 0.000000 0.000000 0.000000
    22 0.928312 -0.000002 0.000001 0.000000 0.000000 0.000000
    23 11.585398 0.000000 0.000001 0.000000 0.000000 -1.290250
    24 10.127097 0.000000 0.000000 1.569750 0.000000 -0.069778
    25 2.683750 -0.427338 0.044205 0.001045 0.043611 0.000046
    26 1.438891 0.000000 0.000001 0.000000 0.000000 0.331445
    27 1.533672 0.109716 1.664490 -0.233255 -0.412980 0.435684
    28 0.928313 0.000001 0.000000 0.000000 0.000000 0.000000
    29 0.928314 0.000000 0.000001 0.000000 0.000000 0.000000
    30 18.045698 0.000000 0.000000 0.000000 0.000000 -1.717575
    31 17.597605 0.000000 0.000000 0.584349 0.082004 0.383496
    32 3.793091 6.407220 0.000000 0.000000 0.000000 1.570800
    33 2.046988 0.000000 0.000000 0.035982 0.287290 -0.142303
  time 4
    0 0.235347 -0.093220 26.592112 -0.428024 0.352321 -1.682583
    1 -2.187567 0.230476 0.000000 0.000000 -1.570786 -1.570790
    2 1.293671 0.684478 -0.000001 -0.069775 0.000658 0.009500
    3 5.309690 -0.003834 0.000000 0.000000 0.000000 0.339054
    4 4.826789 -0.004591 0.000000 -0.077756 0.010774 0.136736
    5 5.792767 -0.005304 0.000000 0.000000 0.000000 0.208347
    6 6.662318 -0.001453 0.000000 0.000000 -0.000001 0.471000
    7 -3.112020 1.517251 4.341910 1.178182 -1.083564 1.537258
    8 4.827230 0.000000 0.000000 -0.144631 0.463552 0.227416
    9 -2.869900 1.399661 -4.140400 -0.555850 1.336551 2.126305
    10 4.972051 0.000000 -0.000002 0.795970 -0.399148 -1.076898
    11 11.139798 0.000000 0.000001 0.000000 0.000000 -0.503320
    12 0.000004 -0.000003 -3.713250 3.262713 0.356075 2.530572
    13 -0.000004 0.000007 3.713250 -3.162346 0.168975 2.128614
    14 18.045700 0.000000 0.000000 0.000000 0.000000 -1.136277
    15 17.597601 0.000000 0.000000 0.502271 0.102210 -0.320061
    16 3.793090 6.407220 0.000000 0.000000 0.000000 1.570800
    17 10.314602 0.000000 -0.000001 -1.570000 0.000000 -0.069778
    18 2.975830 -0.386307 -0.044143 -0.000797 -0.043611 0.000035
    19 1.438889 -0.000001 0.000000 0.000000 0.000000 0.793710
    20 1.646739 0.449550 -1.702251 0.154002 0.442277 0.277235
    21 0.928312 0.000000 -0.000002 0.000000 0.000000 0.000000
    22 0.928312 -0.000002 0.000001 0.000000 0.000000 0.000000
    23 11.585398 0.000000 0.000001 0.000000 0.000000 -1.290250
    24 10.127097 0.000000 0.000000 1.569750 0.000000 -0.069778
    25 2.683750 -0.427338 0.044205 0.001045 0.043611 0.000046
    26 1.438891 0.000000 0.000001 0.000000 0.000000 0.331445
    27 1.533672 0.109716 1.664490 -0.233255 -0.412980 0.435684
    28 0.928313 0.000001 0.000000 0.000000 0.000000 0.000000
    29 0.928314 0.000000 0.000001 0.000000 0.000000 0.000000
    30 18.045698 0.000000 0.000000 0.000000 0.000000 -1.794558
    31 17.597605 0.000000 0.000000 0.535409 0.100700 0.205432
    32 3.793091 6.407220 0.000000 0.000000 0.000000 1.570800
    33 2.046988 0.000000 0.000000 -0.063046 0.523093 -0.413973
  time 5
    0 0.235347 -0.253381 22.685742 -0.595182 0.408776 -1.745479
    1 -2.164129 0.230476 0.000000 0.000000 -1.570450 -1.570790
    2 1.293671 0.684478 -0.000001 -0.069775 0.000658 0.009500
    3 5.309690 -0.003834 0.000000 0.000000 0.000000 0.335498
    4 4.826789 -0.004591 0.000000 -0.077768 0.010691 0.135538
    5 5.792767 -0.005304 0.000000 0.000000 0.000000 0.206681
    6 6.662318 -0.001453 0.000000 0.000000 -0.000001 0.471000
    7 -3.112020 1.517251 4.341910 0.965733 -1.228462 1.732317
    8 4.827230 0.000000 0.000000 0.025083 0.502277 0.137523
    9 -2.869900 1.399661 -4.140400 -0.664276 1.320696 2.020773
    10 4.972051 0.000000 -0.000002 0.878204 -0.389779 -1.206027
    11 11.139798 0.000000 0.000001 0.000000 0.000000 -0.503320
    12 0.000004 -0.000003 -3.713250 3.229120 0.326689 2.465918
    13 -0.000004 0.000007 3.713250 -3.197137 0.229078 2.214982
    14 18.045700 0.000000 0.000000 0.000000 0.000000 -1.136277
    15 17.597601 0.000000 0.000000 0.498720 0.110826 -0.367526
    16 3.793090 6.407220 0.000000 0.000000 0.000000 1.570800
    17 10.314602 0.000000 -0.000001 -1.570000 0.000000 -0.069778
    18 2.975830 -0.386307 -0.044143 -0.000797 -0.043611 0.000035
    19 1.438889 -0.000001 0.000000 0.000000 0.000000 0.793710
    20 1.646739 0.449550 -1.702251 0.154002 0.442277 0.277235
    21 0.928312 0.000000 -0.000002 0.000000 0.000000 0.000000
    22 0.928312 -0.000002 0.000001 0.000000 0.000000 0.000000
    23 11.585398 0.000000 0.000001 0.000000 0.000000 -1.290250
    24 10.127097 0.000000 0.000000 1.569750 0.000000 -0.069778
    25 2.683750 -0.427338 0.044205 0.001045 0.043611 0.000046
    26 1.438891 0.000000 0.000001 0.000000 0.000000 0.331445
    27 1.533672 0.109716 1.664490 -0.233255 -0.412980 0.435684
    28 0.928313 0.000001 0.000000 0.000000 0.000000 0.000000
    29 0.928314 0.000000 0.000001 0.000000 0.000000 0.000000
    30 18.045698 0.000000 0.000000 0.000000 0.000000 -1.699083
    31 17.597605 0.000000 0.000000 0.365246 0.050329 -0.061409
    32 3.793091 6.407220 0.000000 0.000000 0.000000 1.570800
    33 2.046988 0.000000 0.000000 -0.242768 0.690309 -0.742933
  time 6
    0 0.235347 -0.417448 18.845782 -0.768014 0.452271 -1.817938
    1 -2.109439 0.222663 0.000000 0.000000 -1.570786 -1.570790
    2 1.293671 0.684478 -0.000001 -0.069775 0.000658 0.009500
    3 5.309690 -0.003834 0.000000 0.000000 0.000000 0.326590
    4 4.826789 -0.004591 0.000000 -0.077792 0.010451 0.132566
    5 5.792767 -0.005304 0.000000 0.000000 0.000000 0.202522
    6 6.662318 -0.001453 0.000000 0.000000 -0.000001 0.471000
    7 -3.112020 1.517251 4.341910 0.125929 -1.369264 2.546367
    8 4.827230 0.000000 0.000000 0.235740 0.597984 -0.001374
    9 -2.869900 1.399661 -4.140400 -0.759786 1.304615 1.927864
    10 4.972051 0.000000 -0.000002 1.025924 -0.408873 -1.363676
    11 11.139798 0.000000 0.000001 0.000000 0.000000 -0.503320
    12 0.000004 -0.000003 -3.713250 3.198572 0.285258 2.405153
    13 -0.000004 0.000007 3.713250 -3.191085 0.283919 2.300282
    14 18.045700 0.000000 0.000000 0.000000 0.000000 -1.136277
    15 17.597601 0.000000 0.000000 0.474445 0.120654 -0.408204
    16 3.793090 6.407220 0.000000 0.000000 0.000000 1.570800
    17 10.314602 0.000000 -0.000001 -1.570000 0.000000 -0.069778
    18 2.975830 -0.386307 -0.044143 -0.000797 -0.043611 0.000035
    19 1.438889 -0.000001 0.000000 0.000000 0.000000 0.793710
    20 1.646739 0.449550 -1.702251 0.154002 0.442277 0.277235
    21 0.928312 0.000000 -0.000002 0.000000 0.000000 0.000000
    22 0.928312 -0.000002 0.000001 0.000000 0.000000 0.000000
    23 11.585398 0.000000 0.000001 0.000000 0.000000 -1.290250
    24 10.127097 0.000000 0.000000 1.569750 0.000000 -0.069778
    25 2.683750 -0.427338 0.044205 0.001045 0.043611 0.000046
    26 1.438891 0.000000 0.000001 0.000000 0.000000 0.331445
    27 1.533672 0.109716 1.664490 -0.233255 -0.412980 0.435684
    28 0.928313 0.000001 0.000000 0.000000 0.000000 0.000000
    29 0.928314 0.000000 0.000001 0.000000 0.000000 0.000000
    30 18.045698 0.000000 0.000000 0.000000 0.000000 -1.593919
    31 17.597605 0.000000 0.000000 0.221416 -0.008648 -0.269911
    32 3.793091 6.407220 0.000000 0.000000 0.000000 1.570800
    33 2.046988 0.000000 0.000000 -0.438649 0.753127 -1.044163
  time 7
    0 0.235347 -0.581516 15.154263 -0.940535 0.481657 -1.895458
    1 -2.035218 0.218757 0.000000 0.000000 -1.570450 -1.570790
    2 1.293671 0.684478 -0.000001 -0.069775 0.000658 0.009500
    3 5.309690 -0.003834 0.000000 0.000000 0.000000 0.315011
    4 4.826789 -0.004591 0.000000 -0.077840 0.010151 0.128683
    5 5.792767 -0.005304 0.000000 0.000000 0.000000 0.197117
    6 6.662318 -0.001453 0.000000 0.000000 -0.000001 0.471000
    7 -3.112020 1.517251 4.341910 -0.952791 -1.234239 3.595103
    8 4.827230 0.000000 0.000000 0.496772 0.721404 -0.119227
    9 -2.869900 1.399661 -4.140400 -0.839930 1.287662 1.850096
    10 4.972051 0.000000 -0.000002 1.220483 -0.420680 -1.535463
    11 11.139798 0.000000 0.000001 0.000000 0.000000 -0.503320
    12 0.000004 -0.000003 -3.713250 3.174411 0.238219 2.349480
    13 -0.000004 0.000007 3.713250 -3.127806 0.333763 2.364944
    14 18.045700 0.000000 0.000000 0.000000 0.000000 -1.136277
    15 17.597601 0.000000 0.000000 0.436273 0.129882 -0.443317
    16 3.793090 6.407220 0.000000 0.000000 0.000000 1.570800
    17 10.314602 0.000000 -0.000001 -1.570000 0.000000 -0.069778
    18 2.975830 -0.386307 -0.044143 -0.000797 -0.043611 0.000035
    19 1.438889 -0.000001 0.000000 0.000000 0.000000 0.793710
    20 1.646739 0.449550 -1.702251 0.154002 0.442277 0.277235
    21 0.928312 0.000000 -0.000002 0.000000 0.000000 0.000000
    22 0.928312 -0.000002 0.000001 0.000000 0.000000 0.000000
    23 11.585398 0.000000 0.000001 0.000000 0.000000 -1.290250
    24 10.127097 0.000000 0.000000 1.569750 0.000000 -0.069778
    25 2.683750 -0.427338 0.044205 0.001045 0.043611 0.000046
    26 1.438891 0.000000 0.000001 0.000000 0.000000 0.331445
    27 1.533672 0.109716 1.664490 -0.233255 -0.412980 0.435684
    28 0.928313 0.000001 0.000000 0.000000 0.000000 0.000000
    29 0.928314 0.000000 0.000001 0.000000 0.000000 0.000000
    30 18.045698 0.000000 0.000000 0.000000 0.000000 -1.529166
    31 17.597605 0.000000 0.000000 0.133191 -0.020872 -0.409927
    32 3.793091 6.407220 0.000000 0.000000 0.000000 1.570800
    33 2.046988 0.000000 0.000000 -0.534072 0.736739 -1.175294
  time 8
    0 0.235347 -0.745583 11.677594 -1.105699 0.497592 -1.972825
    1 -1.957091 0.210944 0.000000 0.000000 -1.570450 -1.570790
    2 1.293671 0.684478 -0.000001 -0.069775 0.000658 0.009500
    3 5.309690 -0.003834 0.000000 0.000000 0.000000 0.303432
    4 4.826789 -0.004591 0.000000 -0.077876 0.009852 0.124812
    5 5.792767 -0.005304 0.000000 0.000000 0.000000 0.191712
    6 6.662318 -0.001453 0.000000 0.000000 -0.000001 0.471000
    7 -3.112020 1.517251 4.341910 -1.269855 -0.970941 3.880943
    8 4.827230 0.000000 0.000000 0.813440 0.831503 -0.161110
    9 -2.869900 1.399661 -4.140400 -0.902102 1.269518 1.790211
    10 4.972051 0.000000 -0.000002 1.427213 -0.403192 -1.696342
    11 11.139798 0.000000 0.000001 0.000000 0.000000 -0.503320
    12 0.000004 -0.000003 -3.713250 3.158843 0.192306 2.299177
    13 -0.000004 0.000007 3.713250 -3.031450 0.376416 2.437623
    14 18.045700 0.000000 0.000000 0.000000 0.000000 -1.136277
    15 17.597601 0.000000 0.000000 0.391075 0.136162 -0.474470
    16 3.793090 6.407220 0.000000 0.000000 0.000000 1.570800
    17 10.314602 0.000000 -0.000001 -1.570000 0.000000 -0.069778
    18 2.975830 -0.386307 -0.044143 -0.000797 -0.043611 0.000035
    19 1.438889 -0.000001 0.000000 0.000000 0.000000 0.793710
    20 1.646739 0.449550 -1.702251 0.154002 0.442277 0.277235
    21 0.928312 0.000000 -0.000002 0.000000 0.000000 0.000000
    22 0.928312 -0.000002 0.000001 0.000000 0.000000 0.000000
    23 11.585398 0.000000 0.000001 0.000000 0.000000 -1.290250
    24 10.127097 0.000000 0.000000 1.569750 0.000000 -0.069778
    25 2.683750 -0.427338 0.044205 0.001045 0.043611 0.000046
    26 1.438891 0.000000 0.000001 0.000000 0.000000 0.331445
    27 1.533672 0.109716 1.664490 -0.233255 -0.412980 0.435684
    28 0.928313 0.000001 0.000000 0.000000 0.000000 0.000000
    29 0.928314 0.000000 0.000001 0.000000 0.000000 0.000000
    30 18.045698 0.000000 0.000000 0.000000 0.000000 -1.454842
    31 17.597605 0.000000 0.000000 0.051791 -0.014328 -0.538355
    32 3.793091 6.407220 0.000000 0.000000 0.000000 1.570800
    33 2.046988 0.000000 0.000000 -0.400119 0.591910 -0.978645
  time 9
    0 0.235347 -0.909651 8.493903 -1.256367 0.502546 -2.045082
    1 -1.898495 0.207038 0.000000 0.000000 -1.570450 -1.570790
    2 1.293671 0.684478 -0.000001 -0.069775 0.000658 0.009500
    3 5.309690 -0.003834 0.000000 0.000000 0.000000 0.294523
    4 4.826789 -0.004591 0.000000 -0.077900 0.009612 0.121840
    5 5.792767 -0.005304 0.000000 0.000000 0.000000 0.187554
    6 6.662318 -0.001453 0.000000 0.000000 -0.000001 0.471000
    7 -3.112020 1.517251 4.341910 -1.388112 -0.730655 3.970523
    8 4.827230 0.000000 0.000000 1.152787 0.890356 -0.120161
    9 -2.869900 1.399661 -4.140400 -0.944169 1.250022 1.750688
    10 4.972051 0.000000 -0.000002 1.603908 -0.355816 -1.817489
    11 11.139798 0.000000 0.000001 0.000000 0.000000 -0.503320
    12 0.000004 -0.000003 -3.713250 3.153258 0.154410 2.253935
    13 -0.000004 0.000007 3.713250 -2.928514 0.401236 2.508229
    14 18.045700 0.000000 0.000000 0.000000 0.000000 -1.136277
    15 17.597601 0.000000 0.000000 0.345710 0.136761 -0.503565
    16 3.793090 6.407220 0.000000 0.000000 0.000000 1.570800
    17 10.314602 0.000000 -0.000001 -1.570000 0.000000 -0.069778
    18 2.975830 -0.386307 -0.044143 -0.000797 -0.043611 0.000035
    19 1.438889 -0.000001 0.000000 0.000000 0.000000 0.793710
    20 1.646739 0.449550 -1.702251 0.154002 0.442277 0.277235
    21 0.928312 0.000000 -0.000002 0.000000 0.000000 0.000000
    22 0.928312 -0.000002 0.000001 0.000000 0.000000 0.000000
    23 11.585398 0.000000 0.000001 0.000000 0.000000 -1.290250
    24 10.127097 0.000000 0.000000 1.569750 0.000000 -0.069778
    25 2.683750 -0.427338 0.044205 0.001045 0.043611 0.000046
    26 1.438891 0.000000 0.000001 0.000000 0.000000 0.331445
    27 1.533672 0.109716 1.664490 -0.233255 -0.412980 0.435684
    28 0.928313 0.000001 0.000000 0.000000 0.000000 0.000000
    29 0.928314 0.000000 0.000001 0.000000 0.000000 0.000000
    30 18.045698 0.000000 0.000000 0.000000 0.000000 -1.383295
    31 17.597605 0.000000 0.000000 -0.013289 -0.000690 -0.655809
    32 3.793091 6.407220 0.000000 0.000000 0.000000 1.570800
    33 2.046988 0.000000 0.000000 -0.200386 0.268626 -0.627514
  time 10
    0 0.235347 -1.073718 5.669598 -1.386334 0.500291 -2.108383
    1 -1.875057 0.203131 0.000000 0.000000 -1.570786 -1.570790
    2 1.293671 0.684478 -0.000001 -0.069775 0.000658 0.009500
    3 5.309690 -0.003834 0.000000 0.000000 0.000000 0.290967
    4 4.826789 -0.004591 0.000000 -0.077912 0.009528 0.120641
    5 5.792767 -0.005304 0.000000 0.000000 0.000000 0.185888
    6 6.662318 -0.001453 0.000000 0.000000 -0.000001 0.471000
    7 -3.112020 1.517251 4.341910 -1.439891 -0.572057 4.002033
    8 4.827230 0.000000 0.000000 1.427307 0.892593 -0.047546
    9 -2.869900 1.399661 -4.140400 -0.964630 1.228959 1.733369
    10 4.972051 0.000000 -0.000002 1.714056 -0.294312 -1.879829
    11 11.139798 0.000000 0.000001 0.000000 0.000000 -0.503320
    12 0.000004 -0.000003 -3.713250 3.158567 0.131448 2.213446
    13 -0.000004 0.000007 3.713250 -2.848865 0.403274 2.562190
    14 18.045700 0.000000 0.000000 0.000000 0.000000 -1.136277
    15 17.597601 0.000000 0.000000 0.307080 0.128576 -0.532501
    16 3.793090 6.407220 0.000000 0.000000 0.000000 1.570800
    17 10.314602 0.000000 -0.000001 -1.570000 0.000000 -0.069778
    18 2.975830 -0.386307 -0.044143 -0.000797 -0.043611 0.000035
    19 1.438889 -0.000001 0.000000 0.000000 0.000000 0.793710
    20 1.646739 0.449550 -1.702251 0.154002 0.442277 0.277235
    21 0.928312 0.000000 -0.000002 0.000000 0.000000 0.000000
    22 0.928312 -0.000002 0.000001 0.000000 0.000000 0.000000
    23 11.585398 0.000000 0.000001 0.000000 0.000000 -1.290250
    24 10.127097 0.000000 0.000000 1.569750 0.000000 -0.069778
    25 2.683750 -0.427338 0.044205 0.001045 0.043611 0.000046
    26 1.438891 0.000000 0.000001 0.000000 0.000000 0.331445
    27 1.533672 0.109716 1.664490 -0.233255 -0.412980 0.435684
    28 0.928313 0.000001 0.000000 0.000000 0.000000 0.000000
    29 0.928314 0.000000 0.000001 0.000000 0.000000 0.000000
    30 18.045698 0.000000 0.000000 0.000000 0.000000 -1.327050
    31 17.597605 0.000000 0.000000 -0.050657 0.008658 -0.755214
    32 3.793091 6.407220 0.000000 0.000000 0.000000 1.570800
    33 2.046988 0.000000 0.000000 -0.113849 -0.099272 -0.319204
  time 11
    0 0.235347 -1.073718 6.392277 -1.452515 0.496887 -2.140818
    1 -1.875057 0.203131 0.000000 0.000000 -1.570450 -1.570790
    2 1.293671 0.684478 -0.000001 -0.069775 0.000658 0.009500
    3 5.309690 -0.003834 0.000000 0.000000 0.000000 0.290967
    4 4.826789 -0.004591 0.000000 -0.077912 0.009528 0.120641
    5 5.792767 -0.005304 0.000000 0.000000 0.000000 0.185888
    6 6.662318 -0.001453 0.000000 0.000000 -0.000001 0.471000
    7 -3.112020 1.517251 4.341910 -1.345987 -0.832844 3.940791
    8 4.827230 0.000000 0.000000 1.386845 0.892179 0.188074
    9 -2.869900 1.399661 -4.140400 -0.874808 1.197049 1.830372
    10 4.972051 0.000000 -0.000002 1.631431 -0.306179 -1.688420
    11 11.139798 0.000000 0.000001 0.000000 0.000000 -0.503320
    12 0.000004 -0.000003 -3.713250 3.254264 0.197579 2.214680
    13 -0.000004 0.000007 3.713250 -2.842597 0.334051 2.550392
    14 18.045700 0.000000 0.000000 0.000000 0.000000 -1.136277
    15 17.597601 0.000000 0.000000 0.238614 0.027174 -0.538451
    16 3.793090 6.407220 0.000000 0.000000 0.000000 1.570800
    17 10.314602 0.000000 -0.000001 -1.570000 0.000000 -0.069778
    18 2.975830 -0.386307 -0.044143 -0.000797 -0.043611 0.000035
    19 1.438889 -0.000001 0.000000 0.000000 0.000000 0.793710
    20 1.646739 0.449550 -1.702251 0.154002 0.442277 0.277235
    21 0.928312 0.000000 -0.000002 0.000000 0.000000 0.000000
    22 0.928312 -0.000002 0.000001 0.000000 0.000000 0.000000
    23 11.585398 0.000000 0.000001 0.000000 0.000000 -1.290250
    24 10.127097 0.000000 0.000000 1.569750 0.000000 -0.069778
    25 2.683750 -0.427338 0.044205 0.001045 0.043611 0.000046
    26 1.438891 0.000000 0.000001 0.000000 0.000000 0.331445
    27 1.533672 0.109716 1.664490 -0.233255 -0.412980 0.435684
    28 0.928313 0.000001 0.000000 0.000000 0.000000 0.000000
    29 0.928314 0.000000 0.000001 0.000000 0.000000 0.000000
    30 18.045698 0.000000 0.000000 0.000000 0.000000 -1.315942
    31 17.597605 0.000000 0.000000 0.004929 0.044540 -0.774918
    32 3.793091 6.407220 0.000000 0.000000 0.000000 1.570800
    33 2.046988 0.000000 0.000000 -0.120312 -0.309332 -0.107432
  time 12
    0 0.235347 -1.073718 8.400150 -1.445157 0.497347 -2.137225
    1 -1.875057 0.203131 0.000000 0.000000 -1.570450 -1.570790
    2 1.293671 0.684478 -0.000001 -0.069775 0.000658 0.009500
    3 5.309690 -0.003834 0.000000 0.000000 0.000000 0.290967
    4 4.826789 -0.004591 0.000000 -0.077912 0.009528 0.120641
    5 5.792767 -0.005304 0.000000 0.000000 0.000000 0.185888
    6 6.662318 -0.001453 0.000000 0.000000 -0.000001 0.471000
    7 -3.112020 1.517251 4.341910 -1.123355 -1.132659 3.753226
    8 4.827230 0.000000 0.000000 1.242420 0.912405 0.389079
    9 -2.869900 1.399661 -4.140400 -0.791188 1.173014 1.919223
    10 4.972051 0.000000 -0.000002 1.507103 -0.318313 -1.476535
    11 11.139798 0.000000 0.000001 0.000000 0.000000 -0.503320
    12 0.000004 -0.000003 -3.713250 3.347444 0.268144 2.242146
    13 -0.000004 0.000007 3.713250 -2.862635 0.269358 2.520546
    14 18.045700 0.000000 0.000000 0.000000 0.000000 -1.136277
    15 17.597601 0.000000 0.000000 0.185736 -0.066725 -0.523451
    16 3.793090 6.407220 0.000000 0.000000 0.000000 1.570800
    17 10.314602 0.000000 -0.000001 -1.570000 0.000000 -0.069778
    18 2.975830 -0.386307 -0.044143 -0.000797 -0.043611 0.000035
    19 1.438889 -0.000001 0.000000 0.000000 0.000000 0.793710
    20 1.646739 0.449550 -1.702251 0.154002 0.442277 0.277235
    21 0.928312 0.000000 -0.000002 0.000000 0.000000 0.000000
    22 0.928312 -0.000002 0.000001 0.000000 0.000000 0.000000
    23 11.585398 0.000000 0.000001 0.000000 0.000000 -1.290250
    24 10.127097 0.000000 0.000000 1.569750 0.000000 -0.069778
    25 2.683750 -0.427338 0.044205 0.001045 0.043611 0.000046
    26 1.438891 0.000000 0.000001 0.000000 0.000000 0.331445
    27 1.533672 0.109716 1.664490 -0.233255 -0.412980 0.435684
    28 0.928313 0.000001 0.000000 0.000000 0.000000 0.000000
    29 0.928314 0.000000 0.000001 0.000000 0.000000 0.000000
    30 18.045698 0.000000 0.000000 0.000000 0.000000 -1.327050
    31 17.597605 0.000000 0.000000 0.071281 0.076719 -0.749980
    32 3.793091 6.407220 0.000000 0.000000 0.000000 1.570800
    33 2.046988 0.000000 0.000000 -0.113725 0.033283 -0.116965
  time 13
    0 0.235347 -1.073718 7.290741 -1.408409 0.499356 -2.119211
    1 -1.875057 0.203131 0.000000 0.000000 -1.570450 -1.570790
    2 1.293671 0.684478 -0.000001 -0.069775 0.000658 0.009500
    3 5.309690 -0.003834 0.000000 0.000000 0.000000 0.290967
    4 4.826789 -0.004591 0.000000 -0.077912 0.009528 0.120641
    5 5.792767 -0.005304 0.000000 0.000000 0.000000 0.185888
    6 6.662318 -0.001453 0.000000 0.000000 -0.000001 0.471000
    7 -3.112020 1.517251 4.341910 -1.296561 -0.928208 3.902654
    8 4.827230 0.000000 0.000000 1.310539 0.899083 0.224673
    9 -2.869900 1.399661 -4.140400 -0.849963 1.195322 1.855769
    10 4.972051 0.000000 -0.000002 1.586155 -0.322149 -1.628700
    11 11.139798 0.000000 0.000001 0.000000 0.000000 -0.503320
    12 0.000004 -0.000003 -3.713250 3.275489 0.217521 2.228197
    13 -0.000004 0.000007 3.713250 -2.858237 0.319645 2.535728
    14 18.045700 0.000000 0.000000 0.000000 0.000000 -1.136277
    15 17.597601 0.000000 0.000000 0.231406 0.006369 -0.529628
    16 3.793090 6.407220 0.000000 0.000000 0.000000 1.570800
    17 10.314602 0.000000 -0.000001 -1.570000 0.000000 -0.069778
    18 2.975830 -0.386307 -0.044143 -0.000797 -0.043611 0.000035
    19 1.438889 -0.000001 0.000000 0.000000 0.000000 0.793710
    20 1.646739 0.449550 -1.702251 0.154002 0.442277 0.277235
    21 0.928312 0.000000 -0.000002 0.000000 0.000000 0.000000
    22 0.928312 -0.000002 0.000001 0.000000 0.000000 0.000000
    23 11.585398 0.000000 0.000001 0.000000 0.000000 -1.290250
    24 10.127097 0.000000 0.000000 1.569750 0.000000 -0.069778
    25 2.683750 -0.427338 0.044205 0.001045 0.043611 0.000046
    26 1.438891 0.000000 0.000001 0.000000 0.000000 0.331445
    27 1.533672 0.109716 1.664490 -0.233255 -0.412980 0.435684
    28 0.928313 0.000001 0.000000 0.000000 0.000000 0.000000
    29 0.928314 0.000000 0.000001 0.000000 0.000000 0.000000
    30 18.045698 0.000000 0.000000 0.000000 0.000000 -1.327050
    31 17.597605 0.000000 0.000000 0.025458 0.051275 -0.752917
    32 3.793091 6.407220 0.000000 0.000000 0.000000 1.570800
    33 2.046988 0.000000 0.000000 -0.125439 0.418259 -0.195370
  time 14
    0 0.235347 -1.073718 5.482092 -1.386334 0.500291 -2.108383
    1 -1.875057 0.203131 0.000000 0.000000 -1.570786 -1.570790
    2 1.293671 0.684478 -0.000001 -0.069775 0.000658 0.009500
    3 5.309690 -0.003834 0.000000 0.000000 0.000000 0.290967
    4 4.826789 -0.004591 0.000000 -0.077912 0.009528 0.120641
    5 5.792767 -0.005304 0.000000 0.000000 0.000000 0.185888
    6 6.662318 -0.001453 0.000000 0.000000 -0.000001 0.471000
    7 -3.112020 1.517251 4.341910 -1.439891 -0.572057 4.002033
    8 4.827230 0.000000 0.000000 1.427307 0.892593 -0.047546
    9 -2.869900 1.399661 -4.140400 -0.964630 1.228959 1.733369
    10 4.972051 0.000000 -0.000002 1.714056 -0.294312 -1.879829
    11 11.139798 0.000000 0.000001 0.000000 0.000000 -0.503320
    12 0.000004 -0.000003 -3.713250 3.158567 0.131448 2.213446
    13 -0.000004 0.000007 3.713250 -2.848865 0.403274 2.562190
    14 18.045700 0.000000 0.000000 0.000000 0.000000 -1.136277
    15 17.597601 0.000000 0.000000 0.307080 0.128576 -0.532501
    16 3.793090 6.407220 0.000000 0.000000 0.000000 1.570800
    17 10.314602 0.000000 -0.000001 -1.570000 0.000000 -0.069778
    18 2.975830 -0.386307 -0.044143 -0.000797 -0.043611 0.000035
    19 1.438889 -0.000001 0.000000 0.000000 0.000000 0.793710
    20 1.646739 0.449550 -1.702251 0.154002 0.442277 0.277235
    21 0.928312 0.000000 -0.000002 0.000000 0.000000 0.000000
    22 0.928312 -0.000002 0.000001 0.000000 0.000000 0.000000
    23 11.585398 0.000000 0.000001 0.000000 0.000000 -1.290250
    24 10.127097 0.000000 0.000000 1.569750 0.000000 -0.069778
    25 2.683750 -0.427338 0.044205 0.001045 0.043611 0.000046
    26 1.438891 0.000000 0.000001 0.000000 0.000000 0.331445
    27 1.533672 0.109716 1.664490 -0.233255 -0.412980 0.435684
    28 0.928313 0.000001 0.000000 0.000000 0.000000 0.000000
    29 0.928314 0.000000 0.000001 0.000000 0.000000 0.000000
    30 18.045698 0.000000 0.000000 0.000000 0.000000 -1.327050
    31 17.597605 0.000000 0.000000 -0.050657 0.008658 -0.755214
    32 3.793091 6.407220 0.000000 0.000000 0.000000 1.570800
    33 2.046988 0.000000 0.000000 -0.116397 0.175813 -0.164629
  time 15
    0 0.235347 -1.073718 5.482092 -1.386334 0.500291 -2.108383
    1 -1.875057 0.203131 0.000000 0.000000 -1.570786 -1.570790
    2 1.293671 0.684478 -0.000001 -0.069775 0.000658 0.009500
    3 5.309690 -0.003834 0.000000 0.000000 0.000000 0.290967
    4 4.826789 -0.004591 0.000000 -0.077912 0.009528 0.120641
    5 5.792767 -0.005304 0.000000 0.000000 0.000000 0.185888
    6 6.662318 -0.001453 0.000000 0.000000 -0.000001 0.471000
    7 -3.112020 1.517251 4.341910 -1.439891 -0.572057 4.002033
    8 4.827230 0.000000 0.000000 1.427307 0.892593 -0.047546
    9 -2.869900 1.399661 -4.140400 -0.964630 1.228959 1.733369
    10 4.972051 0.000000 -0.000002 1.714056 -0.294312 -1.879829
    11 11.139798 0.000000 0.000001 0.000000 0.000000 -0.503320
    12 0.000004 -0.000003 -3.713250 3.158567 0.131448 2.213446
    13 -0.000004 0.000007 3.713250 -2.848865 0.403274 2.562190
    14 18.045700 0.000000 0.000000 0.000000 0.000000 -1.136277
    15 17.597601 0.000000 0.000000 0.307080 0.128576 -0.532501
    16 3.793090 6.407220 0.000000 0.000000 0.000000 1.570800
    17 10.314602 0.000000 -0.000001 -1.570000 0.000000 -0.069778
    18 2.975830 -0.386307 -0.044143 -0.000797 -0.043611 0.000035
    19 1.438889 -0.000001 0.000000 0.000000 0.000000 0.793710
    20 1.646739 0.449550 -1.702251 0.154002 0.442277 0.277235
    21 0.928312 0.000000 -0.000002 0.000000 0.000000 0.000000
    22 0.928312 -0.000002 0.000001 0.000000 0.000000 0.000000
    23 11.585398 0.000000 0.000001 0.000000 0.000000 -1.290250
    24 10.127097 0.000000 0.000000 1.569750 0.000000 -0.069778
    25 2.683750 -0.427338 0.044205 0.001045 0.043611 0.000046
    26 1.438891 0.000000 0.000001 0.000000 0.000000 0.331445
    27 1.533672 0.109716 1.664490 -0.233255 -0.412980 0.435684
    28 0.928313 0.000001 0.000000 0.000000 0.000000 0.000000
    29 0.928314 0.000000 0.000001 0.000000 0.000000 0.000000
    30 18.045698 0.000000 0.000000 0.000000 0.000000 -1.327050
    31 17.597605 0.000000 0.000000 -0.050657 0.008658 -0.755214
    32 3.793091 6.407220 0.000000 0.000000 0.000000 1.570800
    33 2.046988 0.000000 0.000000 -0.117982 -0.240055 -0.116034
  time 16
    0 0.235347 -1.073718 5.482092 -1.386334 0.500291 -2.108383
    1 -1.875057 0.203131 0.000000 0.000000 -1.570786 -1.570790
    2 1.293671 0.684478 -0.000001 -0.069775 0.000658 0.009500
    3 5.309690 -0.003834 0.000000 0.000000 0.000000 0.290967
    4 4.826789 -0.004591 0.000000 -0.077912 0.009528 0.120641
    5 5.792767 -0.005304 0.000000 0.000000 0.000000 0.185888
    6 6.662318 -0.001453 0.000000 0.000000 -0.000001 0.471000
    7 -3.112020 1.517251 4.341910 -1.439891 -0.572057 4.002033
    8 4.827230 0.000000 0.000000 1.427307 0.892593 -0.047546
    9 -2.869900 1.399661 -4.140400 -0.964630 1.228959 1.733369
    10 4.972051 0.000000 -0.000002 1.714056 -0.294312 -1.879829
    11 11.139798 0.000000 0.000001 0.000000 0.000000 -0.503320
    12 0.000004 -0.000003 -3.713250 3.158567 0.131448 2.213446
    13 -0.000004 0.000007 3.713250 -2.848865 0.403274 2.562190
    14 18.045700 0.000000 0.000000 0.000000 0.000000 -1.136277
    15 17.597601 0.000000 0.000000 0.307080 0.128576 -0.532501
    16 3.793090 6.407220 0.000000 0.000000 0.000000 1.570800
    17 10.314602 0.000000 -0.000001 -1.570000 0.000000 -0.069778
    18 2.975830 -0.386307 -0.044143 -0.000797 -0.043611 0.000035
    19 1.438889 -0.000001 0.000000 0.000000 0.000000 0.793710
    20 1.646739 0.449550 -1.702251 0.154002 0.442277 0.277235
    21 0.928312 0.000000 -0.000002 0.000000 0.000000 0.000000
    22 0.928312 -0.000002 0.000001 0.000000 0.000000 0.000000
    23 11.585398 0.000000 0.000001 0.000000 0.000000 -1.290250
    24 10.127097 0.000000 0.000000 1.569750 0.000000 -0.069778
    25 2.683750 -0.427338 0.044205 0.001045 0.043611 0.000046
    26 1.438891 0.000000 0.000001 0.000000 0.000000 0.331445
    27 1.533672 0.109716 1.664490 -0.233255 -0.412980 0.435684
    28 0.928313 0.000001 0.000000 0.000000 0.000000 0.000000
    29 0.928314 0.000000 0.000001 0.000000 0.000000 0.000000
    30 18.045698 0.000000 0.000000 0.000000 0.000000 -1.327050
    31 17.597605 0.000000 0.000000 -0.050657 0.008658 -0.755214
    32 3.793091 6.407220 0.000000 0.000000 0.000000 1.570800
    33 2.046988 0.000000 0.000000 -0.117982 -0.240055 -0.116034
  time 17
    0 0.235347 -1.073718 5.482092 -1.386334 0.500291 -2.108383
    1 -1.875057 0.203131 0.000000 0.000000 -1.570786 -1.570790
    2 1.293671 0.684478 -0.000001 -0.069775 0.000658 0.009500
    3 5.309690 -0.003834 0.000000 0.000000 0.000000 0.290967
    4 4.826789 -0.004591 0.000000 -0.077912 0.009528 0.120641
    5 5.792767 -0.005304 0.000000 0.000000 0.000000 0.185888
    6 6.662318 -0.001453 0.000000 0.000000 -0.000001 0.471000
    7 -3.112020 1.517251 4.341910 -1.439891 -0.572057 4.002033
    8 4.827230 0.000000 0.000000 1.427307 0.892593 -0.047546
    9 -2.869900 1.399661 -4.140400 -0.964630 1.228959 1.733369
    10 4.972051 0.000000 -0.000002 1.714056 -0.294312 -1.879829
    11 11.139798 0.000000 0.000001 0.000000 0.000000 -0.503320
    12 0.000004 -0.000003 -3.713250 3.158567 0.131448 2.213446
    13 -0.000004 0.000007 3.713250 -2.848865 0.403274 2.562190
    14 18.045700 0.000000 0.000000 0.000000 0.000000 -1.136277
    15 17.597601 0.000000 0.000000 0.307080 0.128576 -0.532501
    16 3.793090 6.407220 0.000000 0.000000 0.000000 1.570800
    17 10.314602 0.000000 -0.000001 -1.570000 0.000000 -0.069778
    18 2.975830 -0.386307 -0.044143 -0.000797 -0.043611 0.000035
    19 1.438889 -0.000001 0.000000 0.000000 0.000000 0.793710
    20 1.646739 0.449550 -1.702251 0.154002 0.442277 0.277235
    21 0.928312 0.000000 -0.000002 0.000000 0.000000 0.000000
    22 0.928312 -0.000002 0.000001 0.000000 0.000000 0.000000
    23 11.585398 0.000000 0.000001 0.000000 0.000000 -1.290250
    24 10.127097 0.000000 0.000000 1.569750 0.000000 -0.069778
    25 2.683750 -0.427338 0.044205 0.001045 0.043611 0.000046
    26 1.438891 0.000000 0.000001 0.000000 0.000000 0.331445
    27 1.533672 0.109716 1.664490 -0.233255 -0.412980 0.435684
    28 0.928313 0.000001 0.000000 0.000000 0.000000 0.000000
    29 0.928314 0.000000 0.000001 0.000000 0.000000 0.000000
    30 18.045698 0.000000 0.000000 0.000000 0.000000 -1.327050
    31 17.597605 0.000000 0.000000 -0.050657 0.008658 -0.755214
    32 3.793091 6.407220 0.000000 0.000000 0.000000 1.570800
    33 2.046988 0.000000 0.000000 -0.117982 -0.240055 -0.116034
  time 18
    0 0.235347 0.367732 38.885456 0.000000 0.000000 -1.570808
    1 0.679708 -0.015625 0.000000 0.000000 -1.570450 -1.570790
    2 1.293671 0.684478 -0.000001 -0.069775 0.000658 0.009500
    3 5.309690 -0.003834 0.000000 0.000000 0.000000 -0.069778
    4 4.826789 -0.004591 0.000000 -0.078499 0.000060 -0.000008
    5 5.792767 -0.005304 0.000000 0.000000 0.000000 0.017444
    6 6.662318 -0.001453 0.000000 0.000000 -0.000001 0.471000
    7 -3.112020 1.517251 4.341910 -0.000013 -1.370800 2.669810
    8 4.827230 0.000000 0.000000 0.484128 1.160339 0.758721
    9 -2.869900 1.399661 -4.140400 -0.000014 1.370790 2.669780
    10 4.972051 0.000000 -0.000002 -0.592856 -1.258767 0.836890
    11 11.139798 0.000000 0.000001 0.000000 0.000000 -0.287203
    12 0.000004 -0.000003 -3.713250 3.399529 0.050396 3.222163
    13 -0.000004 0.000007 3.713250 -3.196897 -0.034955 2.931562
    14 18.045700 0.000000 0.000000 0.000000 0.000000 -0.127551
    15 17.597601 0.000000 0.000000 -0.018140 0.069132 0.192759
    16 3.793090 6.407220 0.000000 0.000000 0.000000 1.570800
    17 10.314602 0.000000 -0.000001 -1.570000 0.000000 -0.069778
    18 2.975830 -0.386307 -0.044143 -0.000797 -0.043611 0.000035
    19 1.438889 -0.000001 0.000000 0.000000 0.000000 0.793710
    20 1.646739 0.449550 -1.702251 0.154002 0.442277 0.277235
    21 0.928312 0.000000 -0.000002 0.000000 0.000000 0.000000
    22 0.928312 -0.000002 0.000001 0.000000 0.000000 0.000000
    23 11.585398 0.000000 0.000001 0.000000 0.000000 -1.290250
    24 10.127097 0.000000 0.000000 1.569750 0.000000 -0.069778
    25 2.683750 -0.427338 0.044205 0.001045 0.043611 0.000046
    26 1.438891 0.000000 0.000001 0.000000 0.000000 0.331445
    27 1.533672 0.109716 1.664490 -0.233255 -0.412980 0.435684
    28 0.928313 0.000001 0.000000 0.000000 0.000000 0.000000
    29 0.928314 0.000000 0.000001 0.000000 0.000000 0.000000
    30 18.045698 0.000000 0.000000 0.000000 0.000000 -0.234878
    31 17.597605 0.000000 0.000000 -0.095585 -0.022610 0.023177
    32 3.793091 6.407220 0.000000 0.000000 0.000000 1.570800
    33 2.046988 0.000000 0.000000 0.158594 -0.045257 -0.152116
end
