// Created by Crowbar 0.74
version 1
nodes
  0 "Bip01" -1
  1 "Bip01 Pelvis" 0
  2 "Bip01 Spine" 1
  3 "Bip01 Spine1" 2
  4 "Bip01 Spine2" 3
  5 "Bip01 Spine3" 4
  6 "Bip01 Neck" 5
  7 "Bip01 L Clavicle" 6
  8 "Bip01 L UpperArm" 7
  9 "Bip01 R Clavicle" 6
  10 "Bip01 R UpperArm" 9
  11 "Bip01 L Forearm" 8
  12 "Bip01 R Thigh" 1
  13 "Bip01 L Thigh" 1
  14 "Bip01 R Calf" 12
  15 "Bip01 R Foot" 14
  16 "Bip01 R Toe0" 15
  17 "Bip01 L Hand" 11
  18 "Bip01 L Finger1" 17
  19 "Bip01 L Finger11" 18
  20 "Bip01 L Finger0" 17
  21 "Bip01 L Finger01" 20
  22 "Bip01 L Finger02" 21
  23 "Bip01 R Forearm" 10
  24 "Bip01 R Hand" 23
  25 "Bip01 R Finger1" 24
  26 "Bip01 R Finger11" 25
  27 "Bip01 R Finger0" 24
  28 "Bip01 R Finger01" 27
  29 "Bip01 R Finger02" 28
  30 "Bip01 L Calf" 13
  31 "Bip01 L Foot" 30
  32 "Bip01 L Toe0" 31
  33 "Bip01 Head" 6
end
skeleton
  time 0
    0 0.235347 0.367732 38.885456 0.000000 0.000000 -1.570808
    1 0.679708 -0.015625 0.000000 0.000000 -1.570450 -1.570790
    2 1.293671 0.684478 -0.000001 -0.069775 0.000658 0.009500
    3 5.309690 -0.003834 0.000000 0.000000 0.000000 -0.069778
    4 4.826789 -0.004591 0.000000 -0.078499 0.000060 -0.000008
    5 5.792767 -0.005304 0.000000 0.000000 0.000000 0.017444
    6 6.662318 -0.001453 0.000000 0.000000 -0.000001 0.471000
    7 -3.112020 1.517251 4.341910 -0.000013 -1.370800 2.669810
    8 4.827230 0.000000 0.000000 0.662271 1.105496 0.695387
    9 -2.869900 1.399661 -4.140400 -0.000014 1.370790 2.669780
    10 4.972051 0.000000 -0.000002 0.059323 -1.186141 -0.219121
    11 11.139798 0.000000 0.000001 0.000000 0.000000 -0.723277
    12 0.000004 -0.000003 -3.713250 3.399517 0.050396 3.222132
    13 -0.000004 0.000007 3.713250 -3.196897 -0.034955 2.931562
    14 18.045700 0.000000 0.000000 0.000000 0.000000 -0.127551
    15 17.597601 0.000000 0.000000 -0.018140 0.069132 0.192759
    16 3.793090 6.407220 0.000000 0.000000 0.000000 1.570800
    17 10.314602 0.000000 -0.000001 -1.570000 0.000000 -0.069778
    18 2.975830 -0.386307 -0.044143 -0.000797 -0.043611 0.000035
    19 1.438889 -0.000001 0.000000 0.000000 0.000000 0.793710
    20 1.646739 0.449550 -1.702251 0.154002 0.442277 0.277235
    21 0.928312 0.000000 -0.000002 0.000000 0.000000 0.000000
    22 0.928312 -0.000002 0.000001 0.000000 0.000000 0.000000
    23 11.585398 0.000000 0.000001 0.000000 0.000000 -1.438507
    24 10.127097 0.000000 0.000000 1.761527 0.007922 -0.061472
    25 2.683750 -0.427338 0.044205 0.001045 0.043611 0.000046
    26 1.438891 0.000000 0.000001 0.000000 0.000000 1.072820
    27 1.533672 0.109716 1.664490 -0.233255 -0.412980 0.435684
    28 0.928313 0.000001 0.000000 0.000000 0.000000 0.000000
    29 0.928314 0.000000 0.000001 0.000000 0.000000 0.000000
    30 18.045698 0.000000 0.000000 0.000000 0.000000 -0.234878
    31 17.597605 0.000000 0.000000 -0.095585 -0.022610 0.023204
    32 3.793091 6.407220 0.000000 0.000000 0.000000 1.570800
    33 2.046988 0.000000 0.000000 0.158594 -0.045257 -0.152116
  time 1
    0 0.254879 0.367732 38.862017 0.000000 0.000000 -1.570808
    1 0.671896 -0.015625 0.000000 0.000000 -1.570450 -1.570790
    2 1.293671 0.684478 -0.000001 -0.069775 0.000658 0.009500
    3 5.309690 -0.003834 0.000000 0.000000 0.000000 -0.069778
    4 4.826789 -0.004591 0.000000 -0.078499 0.000180 0.001622
    5 5.792767 -0.005304 0.000000 0.000000 0.000000 0.019781
    6 6.662318 -0.001453 0.000000 0.000000 -0.000001 0.471000
    7 -3.112020 1.517251 4.341910 -0.000013 -1.367729 2.669810
    8 4.827230 0.000000 0.000000 0.651193 1.105594 0.684705
    9 -2.869900 1.399661 -4.140400 -0.000014 1.367951 2.669780
    10 4.972051 0.000000 -0.000002 0.067698 -1.182483 -0.227714
    11 11.139798 0.000000 0.000001 0.000000 0.000000 -0.723277
    12 0.000004 -0.000003 -3.713250 3.399206 0.051966 3.216361
    13 -0.000004 0.000007 3.713250 -3.196801 -0.035051 2.928422
    14 18.045700 0.000000 0.000000 0.000000 0.000000 -0.139300
    15 17.597601 0.000000 0.000000 -0.018125 0.069180 0.198529
    16 3.793090 6.407220 0.000000 0.000000 0.000000 1.570800
    17 10.314602 0.000000 -0.000001 -1.570000 0.000000 -0.069778
    18 2.975830 -0.386307 -0.044143 -0.000797 -0.043611 0.000035
    19 1.438889 -0.000001 0.000000 0.000000 0.000000 0.793710
    20 1.646739 0.449550 -1.702251 0.154002 0.442277 0.277235
    21 0.928312 0.000000 -0.000002 0.000000 0.000000 0.000000
    22 0.928312 -0.000002 0.000001 0.000000 0.000000 0.000000
    23 11.585398 0.000000 0.000001 0.000000 0.000000 -1.438507
    24 10.127097 0.000000 0.000000 1.761527 0.007922 -0.061472
    25 2.683750 -0.427338 0.044205 0.001045 0.043611 0.000046
    26 1.438891 0.000000 0.000001 0.000000 0.000000 1.072820
    27 1.533672 0.109716 1.664490 -0.233255 -0.412980 0.435684
    28 0.928313 0.000001 0.000000 0.000000 0.000000 0.000000
    29 0.928314 0.000000 0.000001 0.000000 0.000000 0.000000
    30 18.045698 0.000000 0.000000 0.000000 0.000000 -0.240727
    31 17.597605 0.000000 0.000000 -0.095585 -0.022526 0.025900
    32 3.793091 6.407220 0.000000 0.000000 0.000000 1.570800
    33 2.046988 0.000000 0.000000 0.158656 -0.045050 -0.157488
  time 2
    0 0.274411 0.367732 38.838579 0.000000 0.000000 -1.570808
    1 0.652364 -0.011719 0.000000 0.000000 -1.570450 -1.570790
    2 1.293671 0.684478 -0.000001 -0.069775 0.000658 0.009500
    3 5.309690 -0.003834 0.000000 0.000000 0.000000 -0.069778
    4 4.826789 -0.004591 0.000000 -0.078487 0.000456 0.005098
    5 5.792767 -0.005304 0.000000 0.000000 0.000000 0.024755
    6 6.662318 -0.001453 0.000000 0.000000 -0.000001 0.471000
    7 -3.112020 1.517251 4.341910 -0.000013 -1.361220 2.669810
    8 4.827230 0.000000 0.000000 0.627710 1.105667 0.661998
    9 -2.869900 1.399661 -4.140400 -0.000014 1.361899 2.669780
    10 4.972051 0.000000 -0.000002 0.085060 -1.174661 -0.245447
    11 11.139798 0.000000 0.000001 0.000000 0.000000 -0.723277
    12 0.000004 -0.000003 -3.713250 3.398786 0.054016 3.209016
    13 -0.000004 0.000007 3.713250 -3.196706 -0.035063 2.924367
    14 18.045700 0.000000 0.000000 0.000000 0.000000 -0.153816
    15 17.597601 0.000000 0.000000 -0.018080 0.069288 0.205452
    16 3.793090 6.407220 0.000000 0.000000 0.000000 1.570800
    17 10.314602 0.000000 -0.000001 -1.570000 0.000000 -0.069778
    18 2.975830 -0.386307 -0.044143 -0.000797 -0.043611 0.000035
    19 1.438889 -0.000001 0.000000 0.000000 0.000000 0.793710
    20 1.646739 0.449550 -1.702251 0.154002 0.442277 0.277235
    21 0.928312 0.000000 -0.000002 0.000000 0.000000 0.000000
    22 0.928312 -0.000002 0.000001 0.000000 0.000000 0.000000
    23 11.585398 0.000000 0.000001 0.000000 0.000000 -1.438507
    24 10.127097 0.000000 0.000000 1.761527 0.007922 -0.061472
    25 2.683750 -0.427338 0.044205 0.001045 0.043611 0.000046
    26 1.438891 0.000000 0.000001 0.000000 0.000000 1.072820
    27 1.533672 0.109716 1.664490 -0.233255 -0.412980 0.435684
    28 0.928313 0.000001 0.000000 0.000000 0.000000 0.000000
    29 0.928314 0.000000 0.000001 0.000000 0.000000 0.000000
    30 18.045698 0.000000 0.000000 0.000000 0.000000 -0.247875
    31 17.597605 0.000000 0.000000 -0.095585 -0.022298 0.029024
    32 3.793091 6.407220 0.000000 0.000000 0.000000 1.570800
    33 2.046988 0.000000 0.000000 0.158780 -0.044567 -0.168852
  time 3
    0 0.293943 0.367732 38.811235 0.000000 0.000000 -1.570808
    1 0.636738 -0.011719 0.000000 0.000000 -1.570450 -1.570790
    2 1.293671 0.684478 -0.000001 -0.069775 0.000658 0.009500
    3 5.309690 -0.003834 0.000000 0.000000 0.000000 -0.069778
    4 4.826789 -0.004591 0.000000 -0.078487 0.000731 0.008621
    5 5.792767 -0.005304 0.000000 0.000000 0.000000 0.029812
    6 6.662318 -0.001453 0.000000 0.000000 -0.000001 0.471000
    7 -3.112020 1.517251 4.341910 -0.000013 -1.354589 2.669810
    8 4.827230 0.000000 0.000000 0.603867 1.105472 0.638854
    9 -2.869900 1.399661 -4.140400 -0.000014 1.355739 2.669780
    10 4.972051 0.000000 -0.000002 0.101920 -1.166602 -0.262814
    11 11.139798 0.000000 0.000001 0.000000 0.000000 -0.723277
    12 0.000004 -0.000003 -3.713250 3.398319 0.056257 3.201208
    13 -0.000004 0.000007 3.713250 -3.196598 -0.035015 2.919642
    14 18.045700 0.000000 0.000000 0.000000 0.000000 -0.169317
    15 17.597601 0.000000 0.000000 -0.018034 0.069480 0.212827
    16 3.793090 6.407220 0.000000 0.000000 0.000000 1.570800
    17 10.314602 0.000000 -0.000001 -1.570000 0.000000 -0.069778
    18 2.975830 -0.386307 -0.044143 -0.000797 -0.043611 0.000035
    19 1.438889 -0.000001 0.000000 0.000000 0.000000 0.793710
    20 1.646739 0.449550 -1.702251 0.154002 0.442277 0.277235
    21 0.928312 0.000000 -0.000002 0.000000 0.000000 0.000000
    22 0.928312 -0.000002 0.000001 0.000000 0.000000 0.000000
    23 11.585398 0.000000 0.000001 0.000000 0.000000 -1.438507
    24 10.127097 0.000000 0.000000 1.761527 0.007922 -0.061472
    25 2.683750 -0.427338 0.044205 0.001045 0.043611 0.000046
    26 1.438891 0.000000 0.000001 0.000000 0.000000 1.072820
    27 1.533672 0.109716 1.664490 -0.233255 -0.412980 0.435684
    28 0.928313 0.000001 0.000000 0.000000 0.000000 0.000000
    29 0.928314 0.000000 0.000001 0.000000 0.000000 0.000000
    30 18.045698 0.000000 0.000000 0.000000 0.000000 -0.256383
    31 17.597605 0.000000 0.000000 -0.095603 -0.021998 0.032816
    32 3.793091 6.407220 0.000000 0.000000 0.000000 1.570800
    33 2.046988 0.000000 0.000000 0.158935 -0.044085 -0.180466
  time 4
    0 0.313475 0.367732 38.783890 0.000000 0.000000 -1.570808
    1 0.621113 -0.007813 0.000000 0.000000 -1.570450 -1.570790
    2 1.293671 0.684478 -0.000001 -0.069775 0.000658 0.009500
    3 5.309690 -0.003834 0.000000 0.000000 0.000000 -0.069778
    4 4.826789 -0.004591 0.000000 -0.078487 0.001007 0.012133
    5 5.792767 -0.005304 0.000000 0.000000 0.000000 0.034834
    6 6.662318 -0.001453 0.000000 0.000000 -0.000001 0.471000
    7 -3.112020 1.517251 4.341910 -0.000013 -1.347983 2.669810
    8 4.827230 0.000000 0.000000 0.580184 1.105035 0.615855
    9 -2.869900 1.399661 -4.140400 -0.000014 1.349606 2.669780
    10 4.972051 0.000000 -0.000002 0.118054 -1.158453 -0.279451
    11 11.139798 0.000000 0.000001 0.000000 0.000000 -0.723277
    12 0.000004 -0.000003 -3.713250 3.397815 0.058630 3.193246
    13 -0.000004 0.000007 3.713250 -3.196490 -0.034931 2.914428
    14 18.045700 0.000000 0.000000 0.000000 0.000000 -0.185126
    15 17.597601 0.000000 0.000000 -0.017973 0.069755 0.220384
    16 3.793090 6.407220 0.000000 0.000000 0.000000 1.570800
    17 10.314602 0.000000 -0.000001 -1.570000 0.000000 -0.069778
    18 2.975830 -0.386307 -0.044143 -0.000797 -0.043611 0.000035
    19 1.438889 -0.000001 0.000000 0.000000 0.000000 0.793710
    20 1.646739 0.449550 -1.702251 0.154002 0.442277 0.277235
    21 0.928312 0.000000 -0.000002 0.000000 0.000000 0.000000
    22 0.928312 -0.000002 0.000001 0.000000 0.000000 0.000000
    23 11.585398 0.000000 0.000001 0.000000 0.000000 -1.438507
    24 10.127097 0.000000 0.000000 1.761527 0.007922 -0.061472
    25 2.683750 -0.427338 0.044205 0.001045 0.043611 0.000046
    26 1.438891 0.000000 0.000001 0.000000 0.000000 1.072820
    27 1.533672 0.109716 1.664490 -0.233255 -0.412980 0.435684
    28 0.928313 0.000001 0.000000 0.000000 0.000000 0.000000
    29 0.928314 0.000000 0.000001 0.000000 0.000000 0.000000
    30 18.045698 0.000000 0.000000 0.000000 0.000000 -0.265836
    31 17.597605 0.000000 0.000000 -0.095621 -0.021615 0.037088
    32 3.793091 6.407220 0.000000 0.000000 0.000000 1.570800
    33 2.046988 0.000000 0.000000 0.159060 -0.043602 -0.191986
  time 5
    0 0.336913 0.367732 38.752639 0.000000 0.000000 -1.570808
    1 0.601581 -0.007813 0.000000 0.000000 -1.570450 -1.570790
    2 1.293671 0.684478 -0.000001 -0.069775 0.000658 0.009500
    3 5.309690 -0.003834 0.000000 0.000000 0.000000 -0.069778
    4 4.826789 -0.004591 0.000000 -0.078487 0.001283 0.015608
    5 5.792767 -0.005304 0.000000 0.000000 0.000000 0.039820
    6 6.662318 -0.001453 0.000000 0.000000 -0.000001 0.471000
    7 -3.112020 1.517251 4.341910 -0.000013 -1.341450 2.669810
    8 4.827230 0.000000 0.000000 0.556782 1.104354 0.593061
    9 -2.869900 1.399661 -4.140400 -0.000014 1.343541 2.669780
    10 4.972051 0.000000 -0.000002 0.133407 -1.150304 -0.295356
    11 11.139798 0.000000 0.000001 0.000000 0.000000 -0.723277
    12 0.000004 -0.000003 -3.713250 3.397288 0.061062 3.185284
    13 -0.000004 0.000007 3.713250 -3.196370 -0.034799 2.908880
    14 18.045700 0.000000 0.000000 0.000000 0.000000 -0.200996
    15 17.597601 0.000000 0.000000 -0.017912 0.070091 0.227963
    16 3.793090 6.407220 0.000000 0.000000 0.000000 1.570800
    17 10.314602 0.000000 -0.000001 -1.570000 0.000000 -0.069778
    18 2.975830 -0.386307 -0.044143 -0.000797 -0.043611 0.000035
    19 1.438889 -0.000001 0.000000 0.000000 0.000000 0.793710
    20 1.646739 0.449550 -1.702251 0.154002 0.442277 0.277235
    21 0.928312 0.000000 -0.000002 0.000000 0.000000 0.000000
    22 0.928312 -0.000002 0.000001 0.000000 0.000000 0.000000
    23 11.585398 0.000000 0.000001 0.000000 0.000000 -1.438507
    24 10.127097 0.000000 0.000000 1.761527 0.007922 -0.061472
    25 2.683750 -0.427338 0.044205 0.001045 0.043611 0.000046
    26 1.438891 0.000000 0.000001 0.000000 0.000000 1.072820
    27 1.533672 0.109716 1.664490 -0.233255 -0.412980 0.435684
    28 0.928313 0.000001 0.000000 0.000000 0.000000 0.000000
    29 0.928314 0.000000 0.000001 0.000000 0.000000 0.000000
    30 18.045698 0.000000 0.000000 0.000000 0.000000 -0.275998
    31 17.597605 0.000000 0.000000 -0.095639 -0.021171 0.041707
    32 3.793091 6.407220 0.000000 0.000000 0.000000 1.570800
    33 2.046988 0.000000 0.000000 0.159184 -0.043142 -0.203413
  time 6
    0 0.356445 0.367732 38.725294 0.000000 0.000000 -1.570808
    1 0.585955 -0.003906 0.000000 0.000000 -1.570450 -1.570790
    2 1.293671 0.684478 -0.000001 -0.069775 0.000658 0.009500
    3 5.309690 -0.003834 0.000000 0.000000 0.000000 -0.069778
    4 4.826789 -0.004591 0.000000 -0.078475 0.001558 0.019060
    5 5.792767 -0.005304 0.000000 0.000000 0.000000 0.044757
    6 6.662318 -0.001453 0.000000 0.000000 -0.000001 0.471000
    7 -3.112020 1.517251 4.341910 -0.000013 -1.334966 2.669810
    8 4.827230 0.000000 0.000000 0.533742 1.103430 0.570529
    9 -2.869900 1.399661 -4.140400 -0.000014 1.337528 2.669780
    10 4.972051 0.000000 -0.000002 0.147978 -1.142125 -0.310591
    11 11.139798 0.000000 0.000001 0.000000 0.000000 -0.723277
    12 0.000004 -0.000003 -3.713250 3.396749 0.063519 3.177445
    13 -0.000004 0.000007 3.713250 -3.196250 -0.034619 2.903148
    14 18.045700 0.000000 0.000000 0.000000 0.000000 -0.216681
    15 17.597601 0.000000 0.000000 -0.017851 0.070486 0.235429
    16 3.793090 6.407220 0.000000 0.000000 0.000000 1.570800
    17 10.314602 0.000000 -0.000001 -1.570000 0.000000 -0.069778
    18 2.975830 -0.386307 -0.044143 -0.000797 -0.043611 0.000035
    19 1.438889 -0.000001 0.000000 0.000000 0.000000 0.793710
    20 1.646739 0.449550 -1.702251 0.154002 0.442277 0.277235
    21 0.928312 0.000000 -0.000002 0.000000 0.000000 0.000000
    22 0.928312 -0.000002 0.000001 0.000000 0.000000 0.000000
    23 11.585398 0.000000 0.000001 0.000000 0.000000 -1.438507
    24 10.127097 0.000000 0.000000 1.761527 0.007922 -0.061472
    25 2.683750 -0.427338 0.044205 0.001045 0.043611 0.000046
    26 1.438891 0.000000 0.000001 0.000000 0.000000 1.072820
    27 1.533672 0.109716 1.664490 -0.233255 -0.412980 0.435684
    28 0.928313 0.000001 0.000000 0.000000 0.000000 0.000000
    29 0.928314 0.000000 0.000001 0.000000 0.000000 0.000000
    30 18.045698 0.000000 0.000000 0.000000 0.000000 -0.286573
    31 17.597605 0.000000 0.000000 -0.095693 -0.020680 0.046540
    32 3.793091 6.407220 0.000000 0.000000 0.000000 1.570800
    33 2.046988 0.000000 0.000000 0.159308 -0.042660 -0.214746
  time 7
    0 0.375977 0.367732 38.694044 0.000000 0.000000 -1.570808
    1 0.570330 0.000000 0.000000 0.000000 -1.570450 -1.570790
    2 1.293671 0.684478 -0.000001 -0.069775 0.000658 0.009500
    3 5.309690 -0.003834 0.000000 0.000000 0.000000 -0.069778
    4 4.826789 -0.004591 0.000000 -0.078475 0.001822 0.022463
    5 5.792767 -0.005304 0.000000 0.000000 0.000000 0.049635
    6 6.662318 -0.001453 0.000000 0.000000 -0.000001 0.471000
    7 -3.112020 1.517251 4.341910 -0.000013 -1.328579 2.669810
    8 4.827230 0.000000 0.000000 0.511062 1.102263 0.548318
    9 -2.869900 1.399661 -4.140400 -0.000014 1.331583 2.669780
    10 4.972051 0.000000 -0.000002 0.161823 -1.133947 -0.325094
    11 11.139798 0.000000 0.000001 0.000000 0.000000 -0.723277
    12 0.000004 -0.000003 -3.713250 3.396186 0.065988 3.169792
    13 -0.000004 0.000007 3.713250 -3.196130 -0.034392 2.897295
    14 18.045700 0.000000 0.000000 0.000000 0.000000 -0.231936
    15 17.597601 0.000000 0.000000 -0.017775 0.070954 0.242668
    16 3.793090 6.407220 0.000000 0.000000 0.000000 1.570800
    17 10.314602 0.000000 -0.000001 -1.570000 0.000000 -0.069778
    18 2.975830 -0.386307 -0.044143 -0.000797 -0.043611 0.000035
    19 1.438889 -0.000001 0.000000 0.000000 0.000000 0.793710
    20 1.646739 0.449550 -1.702251 0.154002 0.442277 0.277235
    21 0.928312 0.000000 -0.000002 0.000000 0.000000 0.000000
    22 0.928312 -0.000002 0.000001 0.000000 0.000000 0.000000
    23 11.585398 0.000000 0.000001 0.000000 0.000000 -1.438507
    24 10.127097 0.000000 0.000000 1.761527 0.007922 -0.061472
    25 2.683750 -0.427338 0.044205 0.001045 0.043611 0.000046
    26 1.438891 0.000000 0.000001 0.000000 0.000000 1.072820
    27 1.533672 0.109716 1.664490 -0.233255 -0.412980 0.435684
    28 0.928313 0.000001 0.000000 0.000000 0.000000 0.000000
    29 0.928314 0.000000 0.000001 0.000000 0.000000 0.000000
    30 18.045698 0.000000 0.000000 0.000000 0.000000 -0.297326
    31 17.597605 0.000000 0.000000 -0.095728 -0.020129 0.051479
    32 3.793091 6.407220 0.000000 0.000000 0.000000 1.570800
    33 2.046988 0.000000 0.000000 0.159433 -0.042200 -0.225925
  time 8
    0 0.399415 0.367732 38.666699 0.000000 0.000000 -1.570808
    1 0.554704 0.000000 0.000000 0.000000 -1.570450 -1.570790
    2 1.293671 0.684478 -0.000001 -0.069775 0.000658 0.009500
    3 5.309690 -0.003834 0.000000 0.000000 0.000000 -0.069778
    4 4.826789 -0.004591 0.000000 -0.078463 0.002086 0.025819
    5 5.792767 -0.005304 0.000000 0.000000 0.000000 0.054453
    6 6.662318 -0.001453 0.000000 0.000000 -0.000001 0.471000
    7 -3.112020 1.517251 4.341910 -0.000013 -1.322265 2.669810
    8 4.827230 0.000000 0.000000 0.488825 1.100926 0.526487
    9 -2.869900 1.399661 -4.140400 -0.000014 1.325718 2.669780
    10 4.972051 0.000000 -0.000002 0.174943 -1.125827 -0.338927
    11 11.139798 0.000000 0.000001 0.000000 0.000000 -0.723277
    12 0.000004 -0.000003 -3.713250 3.395622 0.068421 3.162416
    13 -0.000004 0.000007 3.713250 -3.196034 -0.034128 2.891472
    14 18.045700 0.000000 0.000000 0.000000 0.000000 -0.246576
    15 17.597601 0.000000 0.000000 -0.017714 0.071445 0.249614
    16 3.793090 6.407220 0.000000 0.000000 0.000000 1.570800
    17 10.314602 0.000000 -0.000001 -1.570000 0.000000 -0.069778
    18 2.975830 -0.386307 -0.044143 -0.000797 -0.043611 0.000035
    19 1.438889 -0.000001 0.000000 0.000000 0.000000 0.793710
    20 1.646739 0.449550 -1.702251 0.154002 0.442277 0.277235
    21 0.928312 0.000000 -0.000002 0.000000 0.000000 0.000000
    22 0.928312 -0.000002 0.000001 0.000000 0.000000 0.000000
    23 11.585398 0.000000 0.000001 0.000000 0.000000 -1.438507
    24 10.127097 0.000000 0.000000 1.761527 0.007922 -0.061472
    25 2.683750 -0.427338 0.044205 0.001045 0.043611 0.000046
    26 1.438891 0.000000 0.000001 0.000000 0.000000 1.072820
    27 1.533672 0.109716 1.664490 -0.233255 -0.412980 0.435684
    28 0.928313 0.000001 0.000000 0.000000 0.000000 0.000000
    29 0.928314 0.000000 0.000001 0.000000 0.000000 0.000000
    30 18.045698 0.000000 0.000000 0.000000 0.000000 -0.308020
    31 17.597605 0.000000 0.000000 -0.095782 -0.019541 0.056419
    32 3.793091 6.407220 0.000000 0.000000 0.000000 1.570800
    33 2.046988 0.000000 0.000000 0.159557 -0.041740 -0.236979
  time 9
    0 0.422853 0.367732 38.639354 0.000000 0.000000 -1.570808
    1 0.539079 0.000000 0.000000 0.000000 -1.570450 -1.570790
    2 1.293671 0.684478 -0.000001 -0.069775 0.000658 0.009500
    3 5.309690 -0.003834 0.000000 0.000000 0.000000 -0.069778
    4 4.826789 -0.004591 0.000000 -0.078463 0.002349 0.029127
    5 5.792767 -0.005304 0.000000 0.000000 0.000000 0.059187
    6 6.662318 -0.001453 0.000000 0.000000 -0.000001 0.471000
    7 -3.112020 1.517251 4.341910 -0.000013 -1.316049 2.669810
    8 4.827230 0.000000 0.000000 0.467109 1.099370 0.505152
    9 -2.869900 1.399661 -4.140400 -0.000014 1.319960 2.669780
    10 4.972051 0.000000 -0.000002 0.187336 -1.117738 -0.352090
    11 11.139798 0.000000 0.000001 0.000000 0.000000 -0.723277
    12 0.000004 -0.000003 -3.713250 3.395071 0.070794 3.155380
    13 -0.000004 0.000007 3.713250 -3.195938 -0.033804 2.885741
    14 18.045700 0.000000 0.000000 0.000000 0.000000 -0.260600
    15 17.597601 0.000000 0.000000 -0.017638 0.071996 0.256220
    16 3.793090 6.407220 0.000000 0.000000 0.000000 1.570800
    17 10.314602 0.000000 -0.000001 -1.570000 0.000000 -0.069778
    18 2.975830 -0.386307 -0.044143 -0.000797 -0.043611 0.000035
    19 1.438889 -0.000001 0.000000 0.000000 0.000000 0.793710
    20 1.646739 0.449550 -1.702251 0.154002 0.442277 0.277235
    21 0.928312 0.000000 -0.000002 0.000000 0.000000 0.000000
    22 0.928312 -0.000002 0.000001 0.000000 0.000000 0.000000
    23 11.585398 0.000000 0.000001 0.000000 0.000000 -1.438507
    24 10.127097 0.000000 0.000000 1.761527 0.007922 -0.061472
    25 2.683750 -0.427338 0.044205 0.001045 0.043611 0.000046
    26 1.438891 0.000000 0.000001 0.000000 0.000000 1.072820
    27 1.533672 0.109716 1.664490 -0.233255 -0.412980 0.435684
    28 0.928313 0.000001 0.000000 0.000000 0.000000 0.000000
    29 0.928314 0.000000 0.000001 0.000000 0.000000 0.000000
    30 18.045698 0.000000 0.000000 0.000000 0.000000 -0.318595
    31 17.597605 0.000000 0.000000 -0.095854 -0.018906 0.061251
    32 3.793091 6.407220 0.000000 0.000000 0.000000 1.570800
    33 2.046988 0.000000 0.000000 0.159681 -0.041304 -0.247816
  time 10
    0 0.442385 0.367732 38.608103 0.000000 0.000000 -1.570808
    1 0.523453 0.003906 0.000000 0.000000 -1.570450 -1.570790
    2 1.293671 0.684478 -0.000001 -0.069775 0.000658 0.009500
    3 5.309690 -0.003834 0.000000 0.000000 0.000000 -0.069778
    4 4.826789 -0.004591 0.000000 -0.078451 0.002601 0.032363
    5 5.792767 -0.005304 0.000000 0.000000 0.000000 0.063825
    6 6.662318 -0.001453 0.000000 0.000000 -0.000001 0.471000
    7 -3.112020 1.517251 4.341910 -0.000013 -1.309979 2.669810
    8 4.827230 0.000000 0.000000 0.446035 1.097620 0.484371
    9 -2.869900 1.399661 -4.140400 -0.000014 1.314309 2.669780
    10 4.972051 0.000000 -0.000002 0.199060 -1.109797 -0.364521
    11 11.139798 0.000000 0.000001 0.000000 0.000000 -0.723277
    12 0.000004 -0.000003 -3.713250 3.394520 0.073107 3.148714
    13 -0.000004 0.000007 3.713250 -3.195855 -0.033457 2.880162
    14 18.045700 0.000000 0.000000 0.000000 0.000000 -0.273825
    15 17.597601 0.000000 0.000000 -0.017577 0.072572 0.262442
    16 3.793090 6.407220 0.000000 0.000000 0.000000 1.570800
    17 10.314602 0.000000 -0.000001 -1.570000 0.000000 -0.069778
    18 2.975830 -0.386307 -0.044143 -0.000797 -0.043611 0.000035
    19 1.438889 -0.000001 0.000000 0.000000 0.000000 0.793710
    20 1.646739 0.449550 -1.702251 0.154002 0.442277 0.277235
    21 0.928312 0.000000 -0.000002 0.000000 0.000000 0.000000
    22 0.928312 -0.000002 0.000001 0.000000 0.000000 0.000000
    23 11.585398 0.000000 0.000001 0.000000 0.000000 -1.438507
    24 10.127097 0.000000 0.000000 1.761527 0.007922 -0.061472
    25 2.683750 -0.427338 0.044205 0.001045 0.043611 0.000046
    26 1.438891 0.000000 0.000001 0.000000 0.000000 1.072820
    27 1.533672 0.109716 1.664490 -0.233255 -0.412980 0.435684
    28 0.928313 0.000001 0.000000 0.000000 0.000000 0.000000
    29 0.928314 0.000000 0.000001 0.000000 0.000000 0.000000
    30 18.045698 0.000000 0.000000 0.000000 0.000000 -0.328757
    31 17.597605 0.000000 0.000000 -0.095908 -0.018247 0.065924
    32 3.793091 6.407220 0.000000 0.000000 0.000000 1.570800
    33 2.046988 0.000000 0.000000 0.159774 -0.040844 -0.258436
  time 11
    0 0.461917 0.367732 38.584665 0.000000 0.000000 -1.570808
    1 0.507828 0.003906 0.000000 0.000000 -1.570450 -1.570790
    2 1.293671 0.684478 -0.000001 -0.069775 0.000658 0.009500
    3 5.309690 -0.003834 0.000000 0.000000 0.000000 -0.069778
    4 4.826789 -0.004591 0.000000 -0.078439 0.002853 0.035515
    5 5.792767 -0.005304 0.000000 0.000000 0.000000 0.068343
    6 6.662318 -0.001453 0.000000 0.000000 -0.000001 0.471000
    7 -3.112020 1.517251 4.341910 -0.000013 -1.304055 2.669810
    8 4.827230 0.000000 0.000000 0.425684 1.095748 0.464233
    9 -2.869900 1.399661 -4.140400 -0.000014 1.308806 2.669780
    10 4.972051 0.000000 -0.000002 0.210058 -1.101975 -0.376344
    11 11.139798 0.000000 0.000001 0.000000 0.000000 -0.723277
    12 0.000004 -0.000003 -3.713250 3.393980 0.075336 3.142480
    13 -0.000004 0.000007 3.713250 -3.195783 -0.033061 2.874857
    14 18.045700 0.000000 0.000000 0.000000 0.000000 -0.286189
    15 17.597601 0.000000 0.000000 -0.017500 0.073171 0.268233
    16 3.793090 6.407220 0.000000 0.000000 0.000000 1.570800
    17 10.314602 0.000000 -0.000001 -1.570000 0.000000 -0.069778
    18 2.975830 -0.386307 -0.044143 -0.000797 -0.043611 0.000035
    19 1.438889 -0.000001 0.000000 0.000000 0.000000 0.793710
    20 1.646739 0.449550 -1.702251 0.154002 0.442277 0.277235
    21 0.928312 0.000000 -0.000002 0.000000 0.000000 0.000000
    22 0.928312 -0.000002 0.000001 0.000000 0.000000 0.000000
    23 11.585398 0.000000 0.000001 0.000000 0.000000 -1.438507
    24 10.127097 0.000000 0.000000 1.761527 0.007922 -0.061472
    25 2.683750 -0.427338 0.044205 0.001045 0.043611 0.000046
    26 1.438891 0.000000 0.000001 0.000000 0.000000 1.072820
    27 1.533672 0.109716 1.664490 -0.233255 -0.412980 0.435684
    28 0.928313 0.000001 0.000000 0.000000 0.000000 0.000000
    29 0.928314 0.000000 0.000001 0.000000 0.000000 0.000000
    30 18.045698 0.000000 0.000000 0.000000 0.000000 -0.338506
    31 17.597605 0.000000 0.000000 -0.095979 -0.017564 0.070383
    32 3.793091 6.407220 0.000000 0.000000 0.000000 1.570800
    33 2.046988 0.000000 0.000000 0.159899 -0.040430 -0.268807
  time 12
    0 0.481449 0.367732 38.557321 0.000000 0.000000 -1.570808
    1 0.492203 0.007813 0.000000 0.000000 -1.570450 -1.570790
    2 1.293671 0.684478 -0.000001 -0.069775 0.000658 0.009500
    3 5.309690 -0.003834 0.000000 0.000000 0.000000 -0.069778
    4 4.826789 -0.004591 0.000000 -0.078427 0.003092 0.038559
    5 5.792767 -0.005304 0.000000 0.000000 0.000000 0.072705
    6 6.662318 -0.001453 0.000000 0.000000 -0.000001 0.471000
    7 -3.112020 1.517251 4.341910 -0.000013 -1.298327 2.669810
    8 4.827230 0.000000 0.000000 0.406135 1.093731 0.444912
    9 -2.869900 1.399661 -4.140400 -0.000014 1.303490 2.669780
    10 4.972051 0.000000 -0.000002 0.220275 -1.094362 -0.387435
    11 11.139798 0.000000 0.000001 0.000000 0.000000 -0.723277
    12 0.000004 -0.000003 -3.713250 3.393453 0.077457 3.136709
    13 -0.000004 0.000007 3.713250 -3.195723 -0.032642 2.869857
    14 18.045700 0.000000 0.000000 0.000000 0.000000 -0.297569
    15 17.597601 0.000000 0.000000 -0.017439 0.073782 0.273527
    16 3.793090 6.407220 0.000000 0.000000 0.000000 1.570800
    17 10.314602 0.000000 -0.000001 -1.570000 0.000000 -0.069778
    18 2.975830 -0.386307 -0.044143 -0.000797 -0.043611 0.000035
    19 1.438889 -0.000001 0.000000 0.000000 0.000000 0.793710
    20 1.646739 0.449550 -1.702251 0.154002 0.442277 0.277235
    21 0.928312 0.000000 -0.000002 0.000000 0.000000 0.000000
    22 0.928312 -0.000002 0.000001 0.000000 0.000000 0.000000
    23 11.585398 0.000000 0.000001 0.000000 0.000000 -1.438507
    24 10.127097 0.000000 0.000000 1.761527 0.007922 -0.061472
    25 2.683750 -0.427338 0.044205 0.001045 0.043611 0.000046
    26 1.438891 0.000000 0.000001 0.000000 0.000000 1.072820
    27 1.533672 0.109716 1.664490 -0.233255 -0.412980 0.435684
    28 0.928313 0.000001 0.000000 0.000000 0.000000 0.000000
    29 0.928314 0.000000 0.000001 0.000000 0.000000 0.000000
    30 18.045698 0.000000 0.000000 0.000000 0.000000 -0.347663
    31 17.597605 0.000000 0.000000 -0.096069 -0.016869 0.074548
    32 3.793091 6.407220 0.000000 0.000000 0.000000 1.570800
    33 2.046988 0.000000 0.000000 0.159992 -0.039993 -0.278837
  time 13
    0 0.500981 0.367732 38.533882 0.000000 0.000000 -1.570808
    1 0.480483 0.007813 0.000000 0.000000 -1.570450 -1.570790
    2 1.293671 0.684478 -0.000001 -0.069775 0.000658 0.009500
    3 5.309690 -0.003834 0.000000 0.000000 0.000000 -0.069778
    4 4.826789 -0.004591 0.000000 -0.078427 0.003320 0.041483
    5 5.792767 -0.005304 0.000000 0.000000 0.000000 0.076900
    6 6.662318 -0.001453 0.000000 0.000000 -0.000001 0.471000
    7 -3.112020 1.517251 4.341910 -0.000013 -1.292817 2.669810
    8 4.827230 0.000000 0.000000 0.387591 1.091640 0.426495
    9 -2.869900 1.399661 -4.140400 -0.000014 1.298388 2.669780
    10 4.972051 0.000000 -0.000002 0.229821 -1.087016 -0.397733
    11 11.139798 0.000000 0.000001 0.000000 0.000000 -0.723277
    12 0.000004 -0.000003 -3.713250 3.392962 0.079459 3.131432
    13 -0.000004 0.000007 3.713250 -3.195687 -0.032198 2.865254
    14 18.045700 0.000000 0.000000 0.000000 0.000000 -0.307964
    15 17.597601 0.000000 0.000000 -0.017363 0.074417 0.278346
    16 3.793090 6.407220 0.000000 0.000000 0.000000 1.570800
    17 10.314602 0.000000 -0.000001 -1.570000 0.000000 -0.069778
    18 2.975830 -0.386307 -0.044143 -0.000797 -0.043611 0.000035
    19 1.438889 -0.000001 0.000000 0.000000 0.000000 0.793710
    20 1.646739 0.449550 -1.702251 0.154002 0.442277 0.277235
    21 0.928312 0.000000 -0.000002 0.000000 0.000000 0.000000
    22 0.928312 -0.000002 0.000001 0.000000 0.000000 0.000000
    23 11.585398 0.000000 0.000001 0.000000 0.000000 -1.438507
    24 10.127097 0.000000 0.000000 1.761527 0.007922 -0.061472
    25 2.683750 -0.427338 0.044205 0.001045 0.043611 0.000046
    26 1.438891 0.000000 0.000001 0.000000 0.000000 1.072820
    27 1.533672 0.109716 1.664490 -0.233255 -0.412980 0.435684
    28 0.928313 0.000001 0.000000 0.000000 0.000000 0.000000
    29 0.928314 0.000000 0.000001 0.000000 0.000000 0.000000
    30 18.045698 0.000000 0.000000 0.000000 0.000000 -0.356053
    31 17.597605 0.000000 0.000000 -0.096140 -0.016174 0.078393
    32 3.793091 6.407220 0.000000 0.000000 0.000000 1.570800
    33 2.046988 0.000000 0.000000 0.160085 -0.039603 -0.288432
  time 14
    0 0.516606 0.367732 38.510444 0.000000 0.000000 -1.570808
    1 0.464858 0.011719 0.000000 0.000000 -1.570450 -1.570790
    2 1.293671 0.684478 -0.000001 -0.069775 0.000658 0.009500
    3 5.309690 -0.003834 0.000000 0.000000 0.000000 -0.069778
    4 4.826789 -0.004591 0.000000 -0.078415 0.003536 0.044251
    5 5.792767 -0.005304 0.000000 0.000000 0.000000 0.080867
    6 6.662318 -0.001453 0.000000 0.000000 -0.000001 0.471000
    7 -3.112020 1.517251 4.341910 -0.000013 -1.287625 2.669810
    8 4.827230 0.000000 0.000000 0.370210 1.089525 0.409217
    9 -2.869900 1.399661 -4.140400 -0.000014 1.293554 2.669780
    10 4.972051 0.000000 -0.000002 0.238530 -1.080027 -0.407301
    11 11.139798 0.000000 0.000001 0.000000 0.000000 -0.723277
    12 0.000004 -0.000003 -3.713250 3.392494 0.081316 3.126679
    13 -0.000004 0.000007 3.713250 -3.195663 -0.031719 2.861047
    14 18.045700 0.000000 0.000000 0.000000 0.000000 -0.317314
    15 17.597601 0.000000 0.000000 -0.017302 0.075040 0.282600
    16 3.793090 6.407220 0.000000 0.000000 0.000000 1.570800
    17 10.314602 0.000000 -0.000001 -1.570000 0.000000 -0.069778
    18 2.975830 -0.386307 -0.044143 -0.000797 -0.043611 0.000035
    19 1.438889 -0.000001 0.000000 0.000000 0.000000 0.793710
    20 1.646739 0.449550 -1.702251 0.154002 0.442277 0.277235
    21 0.928312 0.000000 -0.000002 0.000000 0.000000 0.000000
    22 0.928312 -0.000002 0.000001 0.000000 0.000000 0.000000
    23 11.585398 0.000000 0.000001 0.000000 0.000000 -1.438507
    24 10.127097 0.000000 0.000000 1.761527 0.007922 -0.061472
    25 2.683750 -0.427338 0.044205 0.001045 0.043611 0.000046
    26 1.438891 0.000000 0.000001 0.000000 0.000000 1.072820
    27 1.533672 0.109716 1.664490 -0.233255 -0.412980 0.435684
    28 0.928313 0.000001 0.000000 0.000000 0.000000 0.000000
    29 0.928314 0.000000 0.000001 0.000000 0.000000 0.000000
    30 18.045698 0.000000 0.000000 0.000000 0.000000 -0.363674
    31 17.597605 0.000000 0.000000 -0.096230 -0.015467 0.081837
    32 3.793091 6.407220 0.000000 0.000000 0.000000 1.570800
    33 2.046988 0.000000 0.000000 0.160178 -0.039212 -0.297530
  time 15
    0 0.532232 0.367732 38.494819 0.000000 0.000000 -1.570808
    1 0.453139 0.011719 0.000000 0.000000 -1.570450 -1.570790
    2 1.293671 0.684478 -0.000001 -0.069775 0.000658 0.009500
    3 5.309690 -0.003834 0.000000 0.000000 0.000000 -0.069778
    4 4.826789 -0.004591 0.000000 -0.078403 0.003739 0.046828
    5 5.792767 -0.005304 0.000000 0.000000 0.000000 0.084558
    6 6.662318 -0.001453 0.000000 0.000000 -0.000001 0.471000
    7 -3.112020 1.517251 4.341910 -0.000013 -1.282774 2.669810
    8 4.827230 0.000000 0.000000 0.354194 1.087410 0.393252
    9 -2.869900 1.399661 -4.140400 -0.000014 1.289055 2.669780
    10 4.972051 0.000000 -0.000002 0.246402 -1.073514 -0.415954
    11 11.139798 0.000000 0.000001 0.000000 0.000000 -0.723277
    12 0.000004 -0.000003 -3.713250 3.392063 0.083018 3.122513
    13 -0.000004 0.000007 3.713250 -3.195663 -0.031228 2.857297
    14 18.045700 0.000000 0.000000 0.000000 0.000000 -0.325433
    15 17.597601 0.000000 0.000000 -0.017241 0.075664 0.286287
    16 3.793090 6.407220 0.000000 0.000000 0.000000 1.570800
    17 10.314602 0.000000 -0.000001 -1.570000 0.000000 -0.069778
    18 2.975830 -0.386307 -0.044143 -0.000797 -0.043611 0.000035
    19 1.438889 -0.000001 0.000000 0.000000 0.000000 0.793710
    20 1.646739 0.449550 -1.702251 0.154002 0.442277 0.277235
    21 0.928312 0.000000 -0.000002 0.000000 0.000000 0.000000
    22 0.928312 -0.000002 0.000001 0.000000 0.000000 0.000000
    23 11.585398 0.000000 0.000001 0.000000 0.000000 -1.438507
    24 10.127097 0.000000 0.000000 1.761527 0.007922 -0.061472
    25 2.683750 -0.427338 0.044205 0.001045 0.043611 0.000046
    26 1.438891 0.000000 0.000001 0.000000 0.000000 1.072820
    27 1.533672 0.109716 1.664490 -0.233255 -0.412980 0.435684
    28 0.928313 0.000001 0.000000 0.000000 0.000000 0.000000
    29 0.928314 0.000000 0.000001 0.000000 0.000000 0.000000
    30 18.045698 0.000000 0.000000 0.000000 0.000000 -0.370409
    31 17.597605 0.000000 0.000000 -0.096320 -0.014772 0.084881
    32 3.793091 6.407220 0.000000 0.000000 0.000000 1.570800
    33 2.046988 0.000000 0.000000 0.160272 -0.038867 -0.305976
  time 16
    0 0.543951 0.367732 38.475287 0.000000 0.000000 -1.570808
    1 0.441420 0.015625 0.000000 0.000000 -1.570450 -1.570790
    2 1.293671 0.684478 -0.000001 -0.069775 0.000658 0.009500
    3 5.309690 -0.003834 0.000000 0.000000 0.000000 -0.069778
    4 4.826789 -0.004591 0.000000 -0.078391 0.003919 0.049177
    5 5.792767 -0.005304 0.000000 0.000000 0.000000 0.087926
    6 6.662318 -0.001453 0.000000 0.000000 -0.000001 0.471000
    7 -3.112020 1.517251 4.341910 -0.000013 -1.278362 2.669810
    8 4.827230 0.000000 0.000000 0.339703 1.085392 0.378805
    9 -2.869900 1.399661 -4.140400 -0.000014 1.284957 2.669780
    10 4.972051 0.000000 -0.000002 0.253325 -1.067506 -0.423632
    11 11.139798 0.000000 0.000001 0.000000 0.000000 -0.723277
    12 0.000004 -0.000003 -3.713250 3.391691 0.084540 3.118964
    13 -0.000004 0.000007 3.713250 -3.195675 -0.030724 2.854096
    14 18.045700 0.000000 0.000000 0.000000 0.000000 -0.332323
    15 17.597601 0.000000 0.000000 -0.017196 0.076275 0.289364
    16 3.793090 6.407220 0.000000 0.000000 0.000000 1.570800
    17 10.314602 0.000000 -0.000001 -1.570000 0.000000 -0.069778
    18 2.975830 -0.386307 -0.044143 -0.000797 -0.043611 0.000035
    19 1.438889 -0.000001 0.000000 0.000000 0.000000 0.793710
    20 1.646739 0.449550 -1.702251 0.154002 0.442277 0.277235
    21 0.928312 0.000000 -0.000002 0.000000 0.000000 0.000000
    22 0.928312 -0.000002 0.000001 0.000000 0.000000 0.000000
    23 11.585398 0.000000 0.000001 0.000000 0.000000 -1.438507
    24 10.127097 0.000000 0.000000 1.761527 0.007922 -0.061472
    25 2.683750 -0.427338 0.044205 0.001045 0.043611 0.000046
    26 1.438891 0.000000 0.000001 0.000000 0.000000 1.072820
    27 1.533672 0.109716 1.664490 -0.233255 -0.412980 0.435684
    28 0.928313 0.000001 0.000000 0.000000 0.000000 0.000000
    29 0.928314 0.000000 0.000001 0.000000 0.000000 0.000000
    30 18.045698 0.000000 0.000000 0.000000 0.000000 -0.376140
    31 17.597605 0.000000 0.000000 -0.096409 -0.014089 0.087444
    32 3.793091 6.407220 0.000000 0.000000 0.000000 1.570800
    33 2.046988 0.000000 0.000000 0.160365 -0.038545 -0.313708
  time 17
    0 0.555670 0.367732 38.463568 0.000000 0.000000 -1.570808
    1 0.429701 0.015625 0.000000 0.000000 -1.570450 -1.570790
    2 1.293671 0.684478 -0.000001 -0.069775 0.000658 0.009500
    3 5.309690 -0.003834 0.000000 0.000000 0.000000 -0.069778
    4 4.826789 -0.004591 0.000000 -0.078391 0.004087 0.051334
    5 5.792767 -0.005304 0.000000 0.000000 0.000000 0.091006
    6 6.662318 -0.001453 0.000000 0.000000 -0.000001 0.471000
    7 -3.112020 1.517251 4.341910 -0.000013 -1.274315 2.669810
    8 4.827230 0.000000 0.000000 0.326537 1.083448 0.365642
    9 -2.869900 1.399661 -4.140400 -0.000014 1.281208 2.669780
    10 4.972051 0.000000 -0.000002 0.259577 -1.062004 -0.430579
    11 11.139798 0.000000 0.000001 0.000000 0.000000 -0.723277
    12 0.000004 -0.000003 -3.713250 3.391368 0.085883 3.116094
    13 -0.000004 0.000007 3.713250 -3.195699 -0.030221 2.851474
    14 18.045700 0.000000 0.000000 0.000000 0.000000 -0.337797
    15 17.597601 0.000000 0.000000 -0.017135 0.076850 0.291762
    16 3.793090 6.407220 0.000000 0.000000 0.000000 1.570800
    17 10.314602 0.000000 -0.000001 -1.570000 0.000000 -0.069778
    18 2.975830 -0.386307 -0.044143 -0.000797 -0.043611 0.000035
    19 1.438889 -0.000001 0.000000 0.000000 0.000000 0.793710
    20 1.646739 0.449550 -1.702251 0.154002 0.442277 0.277235
    21 0.928312 0.000000 -0.000002 0.000000 0.000000 0.000000
    22 0.928312 -0.000002 0.000001 0.000000 0.000000 0.000000
    23 11.585398 0.000000 0.000001 0.000000 0.000000 -1.438507
    24 10.127097 0.000000 0.000000 1.761527 0.007922 -0.061472
    25 2.683750 -0.427338 0.044205 0.001045 0.043611 0.000046
    26 1.438891 0.000000 0.000001 0.000000 0.000000 1.072820
    27 1.533672 0.109716 1.664490 -0.233255 -0.412980 0.435684
    28 0.928313 0.000001 0.000000 0.000000 0.000000 0.000000
    29 0.928314 0.000000 0.000001 0.000000 0.000000 0.000000
    30 18.045698 0.000000 0.000000 0.000000 0.000000 -0.380808
    31 17.597605 0.000000 0.000000 -0.096481 -0.013441 0.089474
    32 3.793091 6.407220 0.000000 0.000000 0.000000 1.570800
    33 2.046988 0.000000 0.000000 0.160427 -0.038247 -0.320787
  time 18
    0 0.563482 0.367732 38.451849 0.000000 0.000000 -1.570808
    1 0.421888 0.015625 0.000000 0.000000 -1.570450 -1.570790
    2 1.293671 0.684478 -0.000001 -0.069775 0.000658 0.009500
    3 5.309690 -0.003834 0.000000 0.000000 0.000000 -0.069778
    4 4.826789 -0.004591 0.000000 -0.078379 0.004279 0.053635
    5 5.792767 -0.005304 0.000000 0.000000 0.000000 0.094314
    6 6.662318 -0.001453 0.000000 0.000000 -0.000001 0.471000
    7 -3.112020 1.517251 4.341910 -0.000013 -1.269976 2.669810
    8 4.827230 0.000000 0.000000 0.312568 1.081284 0.351662
    9 -2.869900 1.399661 -4.140400 -0.000014 1.277178 2.669780
    10 4.972051 0.000000 -0.000002 0.266109 -1.056086 -0.437892
    11 11.139798 0.000000 0.000001 0.000000 0.000000 -0.723277
    12 0.000004 -0.000003 -3.713250 3.391092 0.087021 3.113810
    13 -0.000004 0.000007 3.713250 -3.195747 -0.029694 2.849493
    14 18.045700 0.000000 0.000000 0.000000 0.000000 -0.341980
    15 17.597601 0.000000 0.000000 -0.017089 0.077401 0.293459
    16 3.793090 6.407220 0.000000 0.000000 0.000000 1.570800
    17 10.314602 0.000000 -0.000001 -1.570000 0.000000 -0.069778
    18 2.975830 -0.386307 -0.044143 -0.000797 -0.043611 0.000035
    19 1.438889 -0.000001 0.000000 0.000000 0.000000 0.793710
    20 1.646739 0.449550 -1.702251 0.154002 0.442277 0.277235
    21 0.928312 0.000000 -0.000002 0.000000 0.000000 0.000000
    22 0.928312 -0.000002 0.000001 0.000000 0.000000 0.000000
    23 11.585398 0.000000 0.000001 0.000000 0.000000 -1.438507
    24 10.127097 0.000000 0.000000 1.761527 0.007922 -0.061472
    25 2.683750 -0.427338 0.044205 0.001045 0.043611 0.000046
    26 1.438891 0.000000 0.000001 0.000000 0.000000 1.072820
    27 1.533672 0.109716 1.664490 -0.233255 -0.412980 0.435684
    28 0.928313 0.000001 0.000000 0.000000 0.000000 0.000000
    29 0.928314 0.000000 0.000001 0.000000 0.000000 0.000000
    30 18.045698 0.000000 0.000000 0.000000 0.000000 -0.384116
    31 17.597605 0.000000 0.000000 -0.096570 -0.012794 0.090862
    32 3.793091 6.407220 0.000000 0.000000 0.000000 1.570800
    33 2.046988 0.000000 0.000000 0.160489 -0.037925 -0.328364
  time 19
    0 0.567389 0.367732 38.447942 0.000000 0.000000 -1.570808
    1 0.402356 0.019532 0.000000 0.000000 -1.570450 -1.570790
    2 1.293671 0.684478 -0.000001 -0.069775 0.000658 0.009500
    3 5.309690 -0.003834 0.000000 0.000000 0.000000 -0.069778
    4 4.826789 -0.004591 0.000000 -0.078367 0.004554 0.057231
    5 5.792767 -0.005304 0.000000 0.000000 0.000000 0.099455
    6 6.662318 -0.001453 0.000000 0.000000 -0.000001 0.471000
    7 -3.112020 1.517251 4.341910 -0.000013 -1.263224 2.669810
    8 4.827230 0.000000 0.000000 0.291133 1.077686 0.330123
    9 -2.869900 1.399661 -4.140400 -0.000014 1.270898 2.669780
    10 4.972051 0.000000 -0.000002 0.275879 -1.046837 -0.448922
    11 11.139798 0.000000 0.000001 0.000000 0.000000 -0.723277
    12 0.000004 -0.000003 -3.713250 3.390876 0.088004 3.111928
    13 -0.000004 0.000007 3.713250 -3.195795 -0.029130 2.848060
    14 18.045700 0.000000 0.000000 0.000000 0.000000 -0.344932
    15 17.597601 0.000000 0.000000 -0.017059 0.077893 0.294364
    16 3.793090 6.407220 0.000000 0.000000 0.000000 1.570800
    17 10.314602 0.000000 -0.000001 -1.570000 0.000000 -0.069778
    18 2.975830 -0.386307 -0.044143 -0.000797 -0.043611 0.000035
    19 1.438889 -0.000001 0.000000 0.000000 0.000000 0.793710
    20 1.646739 0.449550 -1.702251 0.154002 0.442277 0.277235
    21 0.928312 0.000000 -0.000002 0.000000 0.000000 0.000000
    22 0.928312 -0.000002 0.000001 0.000000 0.000000 0.000000
    23 11.585398 0.000000 0.000001 0.000000 0.000000 -1.438507
    24 10.127097 0.000000 0.000000 1.761527 0.007922 -0.061472
    25 2.683750 -0.427338 0.044205 0.001045 0.043611 0.000046
    26 1.438891 0.000000 0.000001 0.000000 0.000000 1.072820
    27 1.533672 0.109716 1.664490 -0.233255 -0.412980 0.435684
    28 0.928313 0.000001 0.000000 0.000000 0.000000 0.000000
    29 0.928314 0.000000 0.000001 0.000000 0.000000 0.000000
    30 18.045698 0.000000 0.000000 0.000000 0.000000 -0.386007
    31 17.597605 0.000000 0.000000 -0.096660 -0.012159 0.091316
    32 3.793091 6.407220 0.000000 0.000000 0.000000 1.570800
    33 2.046988 0.000000 0.000000 0.160613 -0.037442 -0.340164
  time 20
    0 0.571295 0.367732 38.444036 0.000000 0.000000 -1.570808
    1 0.386731 0.023438 0.000000 0.000000 -1.570450 -1.570790
    2 1.293671 0.684478 -0.000001 -0.069775 0.000658 0.009500
    3 5.309690 -0.003834 0.000000 0.000000 0.000000 -0.069778
    4 4.826789 -0.004591 0.000000 -0.078343 0.004842 0.060862
    5 5.792767 -0.005304 0.000000 0.000000 0.000000 0.104656
    6 6.662318 -0.001453 0.000000 0.000000 -0.000001 0.471000
    7 -3.112020 1.517251 4.341910 -0.000013 -1.256276 2.669810
    8 4.827230 0.000000 0.000000 0.269698 1.073748 0.308583
    9 -2.869900 1.399661 -4.140400 -0.000014 1.264443 2.669780
    10 4.972051 0.000000 -0.000002 0.285314 -1.037349 -0.459708
    11 11.139798 0.000000 0.000001 0.000000 0.000000 -0.723277
    12 0.000004 -0.000003 -3.713250 3.390733 0.088747 3.110786
    13 -0.000004 0.000007 3.713250 -3.195867 -0.028567 2.847389
    14 18.045700 0.000000 0.000000 0.000000 0.000000 -0.346286
    15 17.597601 0.000000 0.000000 -0.017043 0.078336 0.294410
    16 3.793090 6.407220 0.000000 0.000000 0.000000 1.570800
    17 10.314602 0.000000 -0.000001 -1.570000 0.000000 -0.069778
    18 2.975830 -0.386307 -0.044143 -0.000797 -0.043611 0.000035
    19 1.438889 -0.000001 0.000000 0.000000 0.000000 0.793710
    20 1.646739 0.449550 -1.702251 0.154002 0.442277 0.277235
    21 0.928312 0.000000 -0.000002 0.000000 0.000000 0.000000
    22 0.928312 -0.000002 0.000001 0.000000 0.000000 0.000000
    23 11.585398 0.000000 0.000001 0.000000 0.000000 -1.438507
    24 10.127097 0.000000 0.000000 1.761527 0.007922 -0.061472
    25 2.683750 -0.427338 0.044205 0.001045 0.043611 0.000046
    26 1.438891 0.000000 0.000001 0.000000 0.000000 1.072820
    27 1.533672 0.109716 1.664490 -0.233255 -0.412980 0.435684
    28 0.928313 0.000001 0.000000 0.000000 0.000000 0.000000
    29 0.928314 0.000000 0.000001 0.000000 0.000000 0.000000
    30 18.045698 0.000000 0.000000 0.000000 0.000000 -0.386361
    31 17.597605 0.000000 0.000000 -0.096750 -0.011560 0.091022
    32 3.793091 6.407220 0.000000 0.000000 0.000000 1.570800
    33 2.046988 0.000000 0.000000 0.160738 -0.036936 -0.352087
  time 21
    0 0.567389 0.367732 38.447942 0.000000 0.000000 -1.570808
    1 0.367199 0.027345 0.000000 0.000000 -1.570450 -1.570790
    2 1.293671 0.684478 -0.000001 -0.069775 0.000658 0.009500
    3 5.309690 -0.003834 0.000000 0.000000 0.000000 -0.069778
    4 4.826789 -0.004591 0.000000 -0.078320 0.005166 0.065057
    5 5.792767 -0.005304 0.000000 0.000000 0.000000 0.110673
    6 6.662318 -0.001453 0.000000 0.000000 -0.000001 0.471000
    7 -3.112020 1.517251 4.341910 -0.000013 -1.245160 2.669810
    8 4.827230 0.000000 0.000000 0.243647 1.065945 0.282491
    9 -2.869900 1.399661 -4.140400 -0.000014 1.254133 2.669780
    10 4.972051 0.000000 -0.000002 0.293241 -1.023758 -0.469641
    11 11.139798 0.000000 0.000001 0.000000 0.000000 -0.723277
    12 0.000004 -0.000003 -3.713250 3.390804 0.088363 3.110107
    13 -0.000004 0.000007 3.713250 -3.195771 -0.028927 2.847541
    14 18.045700 0.000000 0.000000 0.000000 0.000000 -0.346532
    15 17.597601 0.000000 0.000000 -0.017135 0.077785 0.294070
    16 3.793090 6.407220 0.000000 0.000000 0.000000 1.570800
    17 10.314602 0.000000 -0.000001 -1.570000 0.000000 -0.069778
    18 2.975830 -0.386307 -0.044143 -0.000797 -0.043611 0.000035
    19 1.438889 -0.000001 0.000000 0.000000 0.000000 0.793710
    20 1.646739 0.449550 -1.702251 0.154002 0.442277 0.277235
    21 0.928312 0.000000 -0.000002 0.000000 0.000000 0.000000
    22 0.928312 -0.000002 0.000001 0.000000 0.000000 0.000000
    23 11.585398 0.000000 0.000001 0.000000 0.000000 -1.438507
    24 10.127097 0.000000 0.000000 1.761527 0.007922 -0.061472
    25 2.683750 -0.427338 0.044205 0.001045 0.043611 0.000046
    26 1.438891 0.000000 0.000001 0.000000 0.000000 1.072820
    27 1.533672 0.109716 1.664490 -0.233255 -0.412980 0.435684
    28 0.928313 0.000001 0.000000 0.000000 0.000000 0.000000
    29 0.928314 0.000000 0.000001 0.000000 0.000000 0.000000
    30 18.045698 0.000000 0.000000 0.000000 0.000000 -0.384884
    31 17.597605 0.000000 0.000000 -0.096750 -0.011943 0.089714
    32 3.793091 6.407220 0.000000 0.000000 0.000000 1.570800
    33 2.046988 0.000000 0.000000 0.160862 -0.036362 -0.365874
  time 22
    0 0.563482 0.367732 38.451849 0.000000 0.000000 -1.570808
    1 0.390637 0.023438 0.000000 0.000000 -1.570450 -1.570790
    2 1.293671 0.684478 -0.000001 -0.069775 0.000658 0.009500
    3 5.309690 -0.003834 0.000000 0.000000 0.000000 -0.069778
    4 4.826789 -0.004591 0.000000 -0.078355 0.004734 0.059424
    5 5.792767 -0.005304 0.000000 0.000000 0.000000 0.102607
    6 6.662318 -0.001453 0.000000 0.000000 -0.000001 0.471000
    7 -3.112020 1.517251 4.341910 -0.000013 -1.248695 2.669810
    8 4.827230 0.000000 0.000000 0.271464 1.065507 0.311210
    9 -2.869900 1.399661 -4.140400 -0.000014 1.257413 2.669780
    10 4.972051 0.000000 -0.000002 0.273423 -1.032472 -0.448434
    11 11.139798 0.000000 0.000001 0.000000 0.000000 -0.723277
    12 0.000004 -0.000003 -3.713250 3.391032 0.087297 3.112452
    13 -0.000004 0.000007 3.713250 -3.195723 -0.029538 2.849096
    14 18.045700 0.000000 0.000000 0.000000 0.000000 -0.343210
    15 17.597601 0.000000 0.000000 -0.017150 0.077330 0.293278
    16 3.793090 6.407220 0.000000 0.000000 0.000000 1.570800
    17 10.314602 0.000000 -0.000001 -1.570000 0.000000 -0.069778
    18 2.975830 -0.386307 -0.044143 -0.000797 -0.043611 0.000035
    19 1.438889 -0.000001 0.000000 0.000000 0.000000 0.793710
    20 1.646739 0.449550 -1.702251 0.154002 0.442277 0.277235
    21 0.928312 0.000000 -0.000002 0.000000 0.000000 0.000000
    22 0.928312 -0.000002 0.000001 0.000000 0.000000 0.000000
    23 11.585398 0.000000 0.000001 0.000000 0.000000 -1.438507
    24 10.127097 0.000000 0.000000 1.761527 0.007922 -0.061472
    25 2.683750 -0.427338 0.044205 0.001045 0.043611 0.000046
    26 1.438891 0.000000 0.000001 0.000000 0.000000 1.072820
    27 1.533672 0.109716 1.664490 -0.233255 -0.412980 0.435684
    28 0.928313 0.000001 0.000000 0.000000 0.000000 0.000000
    29 0.928314 0.000000 0.000001 0.000000 0.000000 0.000000
    30 18.045698 0.000000 0.000000 0.000000 0.000000 -0.383348
    31 17.597605 0.000000 0.000000 -0.096624 -0.012638 0.089660
    32 3.793091 6.407220 0.000000 0.000000 0.000000 1.570800
    33 2.046988 0.000000 0.000000 0.160676 -0.037143 -0.347399
  time 23
    0 0.555670 0.367732 38.463568 0.000000 0.000000 -1.570808
    1 0.410169 0.019532 0.000000 0.000000 -1.570450 -1.570790
    2 1.293671 0.684478 -0.000001 -0.069775 0.000658 0.009500
    3 5.309690 -0.003834 0.000000 0.000000 0.000000 -0.069778
    4 4.826789 -0.004591 0.000000 -0.078367 0.004411 0.055373
    5 5.792767 -0.005304 0.000000 0.000000 0.000000 0.096794
    6 6.662318 -0.001453 0.000000 0.000000 -0.000001 0.471000
    7 -3.112020 1.517251 4.341910 -0.000013 -1.253716 2.669810
    8 4.827230 0.000000 0.000000 0.293180 1.067282 0.333304
    9 -2.869900 1.399661 -4.140400 -0.000014 1.262060 2.669780
    10 4.972051 0.000000 -0.000002 0.260638 -1.040710 -0.434357
    11 11.139798 0.000000 0.000001 0.000000 0.000000 -0.716719
    12 0.000004 -0.000003 -3.713250 3.391332 0.086074 3.115137
    13 -0.000004 0.000007 3.713250 -3.195675 -0.030113 2.851230
    14 18.045700 0.000000 0.000000 0.000000 0.000000 -0.338658
    15 17.597601 0.000000 0.000000 -0.017180 0.076802 0.291649
    16 3.793090 6.407220 0.000000 0.000000 0.000000 1.570800
    17 10.314602 0.000000 -0.000001 -1.570000 0.000000 -0.069778
    18 2.975830 -0.386307 -0.044143 -0.000797 -0.043611 0.000035
    19 1.438889 -0.000001 0.000000 0.000000 0.000000 0.793710
    20 1.646739 0.449550 -1.702251 0.154002 0.442277 0.277235
    21 0.928312 0.000000 -0.000002 0.000000 0.000000 0.000000
    22 0.928312 -0.000002 0.000001 0.000000 0.000000 0.000000
    23 11.585398 0.000000 0.000001 0.000000 0.000000 -1.432910
    24 10.127097 0.000000 0.000000 1.761527 0.007922 -0.061472
    25 2.683750 -0.427338 0.044205 0.001045 0.043611 0.000046
    26 1.438891 0.000000 0.000001 0.000000 0.000000 1.072820
    27 1.533672 0.109716 1.664490 -0.233255 -0.412980 0.435684
    28 0.928313 0.000001 0.000000 0.000000 0.000000 0.000000
    29 0.928314 0.000000 0.000001 0.000000 0.000000 0.000000
    30 18.045698 0.000000 0.000000 0.000000 0.000000 -0.380217
    31 17.597605 0.000000 0.000000 -0.096535 -0.013321 0.088646
    32 3.793091 6.407220 0.000000 0.000000 0.000000 1.570800
    33 2.046988 0.000000 0.000000 0.160551 -0.037695 -0.334046
  time 24
    0 0.543951 0.367732 38.475287 0.000000 0.000000 -1.570808
    1 0.433607 0.015625 0.000000 0.000000 -1.570450 -1.570790
    2 1.293671 0.684478 -0.000001 -0.069775 0.000658 0.009500
    3 5.309690 -0.003834 0.000000 0.000000 0.000000 -0.069778
    4 4.826789 -0.004591 0.000000 -0.078391 0.004039 0.050663
    5 5.792767 -0.005304 0.000000 0.000000 0.000000 0.090059
    6 6.662318 -0.001453 0.000000 0.000000 -0.000001 0.471000
    7 -3.112020 1.517251 4.341910 -0.000013 -1.260201 2.669810
    8 4.827230 0.000000 0.000000 0.319031 1.069713 0.359513
    9 -2.869900 1.399661 -4.140400 -0.000014 1.268099 2.669780
    10 4.972051 0.000000 -0.000002 0.245732 -1.050703 -0.418087
    11 11.139798 0.000000 0.000001 0.000000 0.000000 -0.708921
    12 0.000004 -0.000003 -3.713250 3.391691 0.084624 3.118594
    13 -0.000004 0.000007 3.713250 -3.195651 -0.030688 2.854005
    14 18.045700 0.000000 0.000000 0.000000 0.000000 -0.332630
    15 17.597601 0.000000 0.000000 -0.017226 0.076251 0.289319
    16 3.793090 6.407220 0.000000 0.000000 0.000000 1.570800
    17 10.314602 0.000000 -0.000001 -1.570000 0.000000 -0.069778
    18 2.975830 -0.386307 -0.044143 -0.000797 -0.043611 0.000035
    19 1.438889 -0.000001 0.000000 0.000000 0.000000 0.793710
    20 1.646739 0.449550 -1.702251 0.154002 0.442277 0.277235
    21 0.928312 0.000000 -0.000002 0.000000 0.000000 0.000000
    22 0.928312 -0.000002 0.000001 0.000000 0.000000 0.000000
    23 11.585398 0.000000 0.000001 0.000000 0.000000 -1.426216
    24 10.127097 0.000000 0.000000 1.761527 0.007922 -0.061472
    25 2.683750 -0.427338 0.044205 0.001045 0.043611 0.000046
    26 1.438891 0.000000 0.000001 0.000000 0.000000 1.072820
    27 1.533672 0.109716 1.664490 -0.233255 -0.412980 0.435684
    28 0.928313 0.000001 0.000000 0.000000 0.000000 0.000000
    29 0.928314 0.000000 0.000001 0.000000 0.000000 0.000000
    30 18.045698 0.000000 0.000000 0.000000 0.000000 -0.375963
    31 17.597605 0.000000 0.000000 -0.096445 -0.014053 0.087124
    32 3.793091 6.407220 0.000000 0.000000 0.000000 1.570800
    33 2.046988 0.000000 0.000000 0.160396 -0.038339 -0.318614
  time 25
    0 0.532232 0.367732 38.494819 0.000000 0.000000 -1.570808
    1 0.457045 0.011719 0.000000 0.000000 -1.570450 -1.570790
    2 1.293671 0.684478 -0.000001 -0.069775 0.000658 0.009500
    3 5.309690 -0.003834 0.000000 0.000000 0.000000 -0.069778
    4 4.826789 -0.004591 0.000000 -0.078403 0.003680 0.046097
    5 5.792767 -0.005304 0.000000 0.000000 0.000000 0.083503
    6 6.662318 -0.001453 0.000000 0.000000 -0.000001 0.471000
    7 -3.112020 1.517251 4.341910 -0.000013 -1.266563 2.669810
    8 4.827230 0.000000 0.000000 0.344480 1.071779 0.385226
    9 -2.869900 1.399661 -4.140400 -0.000014 1.274017 2.669780
    10 4.972051 0.000000 -0.000002 0.230770 -1.060368 -0.401755
    11 11.139798 0.000000 0.000001 0.000000 0.000000 -0.701358
    12 0.000004 -0.000003 -3.713250 3.392111 0.082982 3.122667
    13 -0.000004 0.000007 3.713250 -3.195639 -0.031240 2.857358
    14 18.045700 0.000000 0.000000 0.000000 0.000000 -0.325249
    15 17.597601 0.000000 0.000000 -0.017272 0.075676 0.286310
    16 3.793090 6.407220 0.000000 0.000000 0.000000 1.570800
    17 10.314602 0.000000 -0.000001 -1.570000 0.000000 -0.069778
    18 2.975830 -0.386307 -0.044143 -0.000797 -0.043611 0.000035
    19 1.438889 -0.000001 0.000000 0.000000 0.000000 0.793710
    20 1.646739 0.449550 -1.702251 0.154002 0.442277 0.277235
    21 0.928312 0.000000 -0.000002 0.000000 0.000000 0.000000
    22 0.928312 -0.000002 0.000001 0.000000 0.000000 0.000000
    23 11.585398 0.000000 0.000001 0.000000 0.000000 -1.419687
    24 10.127097 0.000000 0.000000 1.761527 0.007922 -0.061472
    25 2.683750 -0.427338 0.044205 0.001045 0.043611 0.000046
    26 1.438891 0.000000 0.000001 0.000000 0.000000 1.072820
    27 1.533672 0.109716 1.664490 -0.233255 -0.412980 0.435684
    28 0.928313 0.000001 0.000000 0.000000 0.000000 0.000000
    29 0.928314 0.000000 0.000001 0.000000 0.000000 0.000000
    30 18.045698 0.000000 0.000000 0.000000 0.000000 -0.370528
    31 17.597605 0.000000 0.000000 -0.096338 -0.014796 0.085015
    32 3.793091 6.407220 0.000000 0.000000 0.000000 1.570800
    33 2.046988 0.000000 0.000000 0.160240 -0.038959 -0.303585
  time 26
    0 0.516606 0.367732 38.510444 0.000000 0.000000 -1.570808
    1 0.476577 0.007813 0.000000 0.000000 -1.570450 -1.570790
    2 1.293671 0.684478 -0.000001 -0.069775 0.000658 0.009500
    3 5.309690 -0.003834 0.000000 0.000000 0.000000 -0.069778
    4 4.826789 -0.004591 0.000000 -0.078427 0.003344 0.041771
    5 5.792767 -0.005304 0.000000 0.000000 0.000000 0.077307
    6 6.662318 -0.001453 0.000000 0.000000 -0.000001 0.471000
    7 -3.112020 1.517251 4.341910 -0.000013 -1.272609 2.669810
    8 4.827230 0.000000 0.000000 0.368805 1.073432 0.409713
    9 -2.869900 1.399661 -4.140400 -0.000014 1.279615 2.669780
    10 4.972051 0.000000 -0.000002 0.215920 -1.069410 -0.385728
    11 11.139798 0.000000 0.000001 0.000000 0.000000 -0.694151
    12 0.000004 -0.000003 -3.713250 3.392566 0.081197 3.127266
    13 -0.000004 0.000007 3.713250 -3.195639 -0.031779 2.861199
    14 18.045700 0.000000 0.000000 0.000000 0.000000 -0.316760
    15 17.597601 0.000000 0.000000 -0.017333 0.075076 0.282668
    16 3.793090 6.407220 0.000000 0.000000 0.000000 1.570800
    17 10.314602 0.000000 -0.000001 -1.570000 0.000000 -0.069778
    18 2.975830 -0.386307 -0.044143 -0.000797 -0.043611 0.000035
    19 1.438889 -0.000001 0.000000 0.000000 0.000000 0.793710
    20 1.646739 0.449550 -1.702251 0.154002 0.442277 0.277235
    21 0.928312 0.000000 -0.000002 0.000000 0.000000 0.000000
    22 0.928312 -0.000002 0.000001 0.000000 0.000000 0.000000
    23 11.585398 0.000000 0.000001 0.000000 0.000000 -1.413542
    24 10.127097 0.000000 0.000000 1.761527 0.007922 -0.061472
    25 2.683750 -0.427338 0.044205 0.001045 0.043611 0.000046
    26 1.438891 0.000000 0.000001 0.000000 0.000000 1.072820
    27 1.533672 0.109716 1.664490 -0.233255 -0.412980 0.435684
    28 0.928313 0.000001 0.000000 0.000000 0.000000 0.000000
    29 0.928314 0.000000 0.000001 0.000000 0.000000 0.000000
    30 18.045698 0.000000 0.000000 0.000000 0.000000 -0.364088
    31 17.597605 0.000000 0.000000 -0.096248 -0.015539 0.082371
    32 3.793091 6.407220 0.000000 0.000000 0.000000 1.570800
    33 2.046988 0.000000 0.000000 0.160116 -0.039557 -0.289363
  time 27
    0 0.500981 0.367732 38.533882 0.000000 0.000000 -1.570808
    1 0.496109 0.007813 0.000000 0.000000 -1.570450 -1.570790
    2 1.293671 0.684478 -0.000001 -0.069775 0.000658 0.009500
    3 5.309690 -0.003834 0.000000 0.000000 0.000000 -0.069778
    4 4.826789 -0.004591 0.000000 -0.078439 0.003020 0.037744
    5 5.792767 -0.005304 0.000000 0.000000 0.000000 0.071531
    6 6.662318 -0.001453 0.000000 0.000000 -0.000001 0.471000
    7 -3.112020 1.517251 4.341910 -0.000013 -1.278216 2.669810
    8 4.827230 0.000000 0.000000 0.391605 1.074720 0.432624
    9 -2.869900 1.399661 -4.140400 -0.000014 1.284837 2.669780
    10 4.972051 0.000000 -0.000002 0.201628 -1.077737 -0.370372
    11 11.139798 0.000000 0.000001 0.000000 0.000000 -0.687475
    12 0.000004 -0.000003 -3.713250 3.393046 0.079279 3.132358
    13 -0.000004 0.000007 3.713250 -3.195651 -0.032282 2.865467
    14 18.045700 0.000000 0.000000 0.000000 0.000000 -0.307103
    15 17.597601 0.000000 0.000000 -0.017394 0.074465 0.278414
    16 3.793090 6.407220 0.000000 0.000000 0.000000 1.570800
    17 10.314602 0.000000 -0.000001 -1.570000 0.000000 -0.069778
    18 2.975830 -0.386307 -0.044143 -0.000797 -0.043611 0.000035
    19 1.438889 -0.000001 0.000000 0.000000 0.000000 0.793710
    20 1.646739 0.449550 -1.702251 0.154002 0.442277 0.277235
    21 0.928312 0.000000 -0.000002 0.000000 0.000000 0.000000
    22 0.928312 -0.000002 0.000001 0.000000 0.000000 0.000000
    23 11.585398 0.000000 0.000001 0.000000 0.000000 -1.407780
    24 10.127097 0.000000 0.000000 1.761527 0.007922 -0.061472
    25 2.683750 -0.427338 0.044205 0.001045 0.043611 0.000046
    26 1.438891 0.000000 0.000001 0.000000 0.000000 1.072820
    27 1.533672 0.109716 1.664490 -0.233255 -0.412980 0.435684
    28 0.928313 0.000001 0.000000 0.000000 0.000000 0.000000
    29 0.928314 0.000000 0.000001 0.000000 0.000000 0.000000
    30 18.045698 0.000000 0.000000 0.000000 0.000000 -0.356644
    31 17.597605 0.000000 0.000000 -0.096158 -0.016282 0.079167
    32 3.793091 6.407220 0.000000 0.000000 0.000000 1.570800
    33 2.046988 0.000000 0.000000 0.159961 -0.040108 -0.276135
  time 28
    0 0.481449 0.367732 38.557321 0.000000 0.000000 -1.570808
    1 0.515641 0.003906 0.000000 0.000000 -1.570450 -1.570790
    2 1.293671 0.684478 -0.000001 -0.069775 0.000658 0.009500
    3 5.309690 -0.003834 0.000000 0.000000 0.000000 -0.069778
    4 4.826789 -0.004591 0.000000 -0.078451 0.002733 0.034064
    5 5.792767 -0.005304 0.000000 0.000000 0.000000 0.066258
    6 6.662318 -0.001453 0.000000 0.000000 -0.000001 0.471000
    7 -3.112020 1.517251 4.341910 -0.000013 -1.283359 2.669810
    8 4.827230 0.000000 0.000000 0.412518 1.075693 0.453580
    9 -2.869900 1.399661 -4.140400 -0.000014 1.289591 2.669780
    10 4.972051 0.000000 -0.000002 0.188118 -1.085261 -0.355929
    11 11.139798 0.000000 0.000001 0.000000 0.000000 -0.681330
    12 0.000004 -0.000003 -3.713250 3.393561 0.077242 3.137820
    13 -0.000004 0.000007 3.713250 -3.195687 -0.032750 2.870162
    14 18.045700 0.000000 0.000000 0.000000 0.000000 -0.296523
    15 17.597601 0.000000 0.000000 -0.017455 0.073854 0.273595
    16 3.793090 6.407220 0.000000 0.000000 0.000000 1.570800
    17 10.314602 0.000000 -0.000001 -1.570000 0.000000 -0.069778
    18 2.975830 -0.386307 -0.044143 -0.000797 -0.043611 0.000035
    19 1.438889 -0.000001 0.000000 0.000000 0.000000 0.793710
    20 1.646739 0.449550 -1.702251 0.154002 0.442277 0.277235
    21 0.928312 0.000000 -0.000002 0.000000 0.000000 0.000000
    22 0.928312 -0.000002 0.000001 0.000000 0.000000 0.000000
    23 11.585398 0.000000 0.000001 0.000000 0.000000 -1.402568
    24 10.127097 0.000000 0.000000 1.761527 0.007922 -0.061472
    25 2.683750 -0.427338 0.044205 0.001045 0.043611 0.000046
    26 1.438891 0.000000 0.000001 0.000000 0.000000 1.072820
    27 1.533672 0.109716 1.664490 -0.233255 -0.412980 0.435684
    28 0.928313 0.000001 0.000000 0.000000 0.000000 0.000000
    29 0.928314 0.000000 0.000001 0.000000 0.000000 0.000000
    30 18.045698 0.000000 0.000000 0.000000 0.000000 -0.348313
    31 17.597605 0.000000 0.000000 -0.096087 -0.017001 0.075509
    32 3.793091 6.407220 0.000000 0.000000 0.000000 1.570800
    33 2.046988 0.000000 0.000000 0.159837 -0.040614 -0.264056
  time 29
    0 0.461917 0.367732 38.584665 0.000000 0.000000 -1.570808
    1 0.531266 0.000000 0.000000 0.000000 -1.570450 -1.570790
    2 1.293671 0.684478 -0.000001 -0.069775 0.000658 0.009500
    3 5.309690 -0.003834 0.000000 0.000000 0.000000 -0.069778
    4 4.826789 -0.004591 0.000000 -0.078451 0.002469 0.030697
    5 5.792767 -0.005304 0.000000 0.000000 0.000000 0.061440
    6 6.662318 -0.001453 0.000000 0.000000 -0.000001 0.471000
    7 -3.112020 1.517251 4.341910 -0.000013 -1.288040 2.669810
    8 4.827230 0.000000 0.000000 0.431785 1.076374 0.472843
    9 -2.869900 1.399661 -4.140400 -0.000014 1.293956 2.669780
    10 4.972051 0.000000 -0.000002 0.175389 -1.092042 -0.342340
    11 11.139798 0.000000 0.000001 0.000000 0.000000 -0.675777
    12 0.000004 -0.000003 -3.713250 3.394088 0.075096 3.143714
    13 -0.000004 0.000007 3.713250 -3.195735 -0.033181 2.875162
    14 18.045700 0.000000 0.000000 0.000000 0.000000 -0.284959
    15 17.597601 0.000000 0.000000 -0.017531 0.073243 0.268279
    16 3.793090 6.407220 0.000000 0.000000 0.000000 1.570800
    17 10.314602 0.000000 -0.000001 -1.570000 0.000000 -0.069778
    18 2.975830 -0.386307 -0.044143 -0.000797 -0.043611 0.000035
    19 1.438889 -0.000001 0.000000 0.000000 0.000000 0.793710
    20 1.646739 0.449550 -1.702251 0.154002 0.442277 0.277235
    21 0.928312 0.000000 -0.000002 0.000000 0.000000 0.000000
    22 0.928312 -0.000002 0.000001 0.000000 0.000000 0.000000
    23 11.585398 0.000000 0.000001 0.000000 0.000000 -1.397739
    24 10.127097 0.000000 0.000000 1.761527 0.007922 -0.061472
    25 2.683750 -0.427338 0.044205 0.001045 0.043611 0.000046
    26 1.438891 0.000000 0.000001 0.000000 0.000000 1.072820
    27 1.533672 0.109716 1.664490 -0.233255 -0.412980 0.435684
    28 0.928313 0.000001 0.000000 0.000000 0.000000 0.000000
    29 0.928314 0.000000 0.000001 0.000000 0.000000 0.000000
    30 18.045698 0.000000 0.000000 0.000000 0.000000 -0.339274
    31 17.597605 0.000000 0.000000 -0.095997 -0.017708 0.071397
    32 3.793091 6.407220 0.000000 0.000000 0.000000 1.570800
    33 2.046988 0.000000 0.000000 0.159712 -0.041074 -0.252971
  time 30
    0 0.442385 0.367732 38.608103 0.000000 0.000000 -1.570808
    1 0.546892 0.000000 0.000000 0.000000 -1.570450 -1.570790
    2 1.293671 0.684478 -0.000001 -0.069775 0.000658 0.009500
    3 5.309690 -0.003834 0.000000 0.000000 0.000000 -0.069778
    4 4.826789 -0.004591 0.000000 -0.078463 0.002193 0.027173
    5 5.792767 -0.005304 0.000000 0.000000 0.000000 0.056394
    6 6.662318 -0.001453 0.000000 0.000000 -0.000001 0.471000
    7 -3.112020 1.517251 4.341910 -0.000013 -1.292988 2.669810
    8 4.827230 0.000000 0.000000 0.452016 1.076908 0.493010
    9 -2.869900 1.399661 -4.140400 -0.000014 1.298535 2.669780
    10 4.972051 0.000000 -0.000002 0.161600 -1.099091 -0.327836
    11 11.139798 0.000000 0.000001 0.000000 0.000000 -0.669928
    12 0.000004 -0.000003 -3.713250 3.394640 0.072843 3.150072
    13 -0.000004 0.000007 3.713250 -3.195795 -0.033577 2.880497
    14 18.045700 0.000000 0.000000 0.000000 0.000000 -0.272472
    15 17.597601 0.000000 0.000000 -0.017607 0.072656 0.262464
    16 3.793090 6.407220 0.000000 0.000000 0.000000 1.570800
    17 10.314602 0.000000 -0.000001 -1.570000 0.000000 -0.069778
    18 2.975830 -0.386307 -0.044143 -0.000797 -0.043611 0.000035
    19 1.438889 -0.000001 0.000000 0.000000 0.000000 0.793710
    20 1.646739 0.449550 -1.702251 0.154002 0.442277 0.277235
    21 0.928312 0.000000 -0.000002 0.000000 0.000000 0.000000
    22 0.928312 -0.000002 0.000001 0.000000 0.000000 0.000000
    23 11.585398 0.000000 0.000001 0.000000 0.000000 -1.392801
    24 10.127097 0.000000 0.000000 1.761527 0.007922 -0.061472
    25 2.683750 -0.427338 0.044205 0.001045 0.043611 0.000046
    26 1.438891 0.000000 0.000001 0.000000 0.000000 1.072820
    27 1.533672 0.109716 1.664490 -0.233255 -0.412980 0.435684
    28 0.928313 0.000001 0.000000 0.000000 0.000000 0.000000
    29 0.928314 0.000000 0.000001 0.000000 0.000000 0.000000
    30 18.045698 0.000000 0.000000 0.000000 0.000000 -0.329584
    31 17.597605 0.000000 0.000000 -0.095926 -0.018403 0.067045
    32 3.793091 6.407220 0.000000 0.000000 0.000000 1.570800
    33 2.046988 0.000000 0.000000 0.159588 -0.041556 -0.241420
  time 31
    0 0.422853 0.367732 38.639354 0.000000 0.000000 -1.570808
    1 0.570330 0.000000 0.000000 0.000000 -1.570450 -1.570790
    2 1.293671 0.684478 -0.000001 -0.069775 0.000658 0.009500
    3 5.309690 -0.003834 0.000000 0.000000 0.000000 -0.069778
    4 4.826789 -0.004591 0.000000 -0.078475 0.001810 0.022272
    5 5.792767 -0.005304 0.000000 0.000000 0.000000 0.049359
    6 6.662318 -0.001453 0.000000 0.000000 -0.000001 0.471000
    7 -3.112020 1.517251 4.341910 -0.000013 -1.300033 2.669810
    8 4.827230 0.000000 0.000000 0.480435 1.077492 0.521292
    9 -2.869900 1.399661 -4.140400 -0.000014 1.305070 2.669780
    10 4.972051 0.000000 -0.000002 0.141837 -1.108905 -0.306995
    11 11.139798 0.000000 0.000001 0.000000 0.000000 -0.662247
    12 0.000004 -0.000003 -3.713250 3.395227 0.070434 3.157231
    13 -0.000004 0.000007 3.713250 -3.195879 -0.033984 2.886107
    14 18.045700 0.000000 0.000000 0.000000 0.000000 -0.258693
    15 17.597601 0.000000 0.000000 -0.017668 0.072092 0.256197
    16 3.793090 6.407220 0.000000 0.000000 0.000000 1.570800
    17 10.314602 0.000000 -0.000001 -1.570000 0.000000 -0.069778
    18 2.975830 -0.386307 -0.044143 -0.000797 -0.043611 0.000035
    19 1.438889 -0.000001 0.000000 0.000000 0.000000 0.793710
    20 1.646739 0.449550 -1.702251 0.154002 0.442277 0.277235
    21 0.928312 0.000000 -0.000002 0.000000 0.000000 0.000000
    22 0.928312 -0.000002 0.000001 0.000000 0.000000 0.000000
    23 11.585398 0.000000 0.000001 0.000000 0.000000 -1.386217
    24 10.127097 0.000000 0.000000 1.761527 0.007922 -0.061472
    25 2.683750 -0.427338 0.044205 0.001045 0.043611 0.000046
    26 1.438891 0.000000 0.000001 0.000000 0.000000 1.072820
    27 1.533672 0.109716 1.664490 -0.233255 -0.412980 0.435684
    28 0.928313 0.000001 0.000000 0.000000 0.000000 0.000000
    29 0.928314 0.000000 0.000001 0.000000 0.000000 0.000000
    30 18.045698 0.000000 0.000000 0.000000 0.000000 -0.319659
    31 17.597605 0.000000 0.000000 -0.095854 -0.019110 0.062747
    32 3.793091 6.407220 0.000000 0.000000 0.000000 1.570800
    33 2.046988 0.000000 0.000000 0.159433 -0.042223 -0.225304
  time 32
    0 0.399415 0.367732 38.666699 0.000000 0.000000 -1.570808
    1 0.585955 -0.003906 0.000000 0.000000 -1.570450 -1.570790
    2 1.293671 0.684478 -0.000001 -0.069775 0.000658 0.009500
    3 5.309690 -0.003834 0.000000 0.000000 0.000000 -0.069778
    4 4.826789 -0.004591 0.000000 -0.078475 0.001570 0.019192
    5 5.792767 -0.005304 0.000000 0.000000 0.000000 0.044961
    6 6.662318 -0.001453 0.000000 0.000000 -0.000001 0.471000
    7 -3.112020 1.517251 4.341910 -0.000013 -1.306883 2.669810
    8 4.827230 0.000000 0.000000 0.500987 1.079728 0.541372
    9 -2.869900 1.399661 -4.140400 -0.000014 1.311444 2.669780
    10 4.972051 0.000000 -0.000002 0.130504 -1.117113 -0.294868
    11 11.139798 0.000000 0.000001 0.000000 0.000000 -0.663547
    12 0.000004 -0.000003 -3.713250 3.395778 0.068049 3.164237
    13 -0.000004 0.000007 3.713250 -3.195974 -0.034284 2.891838
    14 18.045700 0.000000 0.000000 0.000000 0.000000 -0.244669
    15 17.597601 0.000000 0.000000 -0.017744 0.071553 0.249523
    16 3.793090 6.407220 0.000000 0.000000 0.000000 1.570800
    17 10.314602 0.000000 -0.000001 -1.570000 0.000000 -0.069778
    18 2.975830 -0.386307 -0.044143 -0.000797 -0.043611 0.000035
    19 1.438889 -0.000001 0.000000 0.000000 0.000000 0.793710
    20 1.646739 0.449550 -1.702251 0.154002 0.442277 0.277235
    21 0.928312 0.000000 -0.000002 0.000000 0.000000 0.000000
    22 0.928312 -0.000002 0.000001 0.000000 0.000000 0.000000
    23 11.585398 0.000000 0.000001 0.000000 0.000000 -1.387314
    24 10.127097 0.000000 0.000000 1.761527 0.007922 -0.061472
    25 2.683750 -0.427338 0.044205 0.001045 0.043611 0.000046
    26 1.438891 0.000000 0.000001 0.000000 0.000000 1.072820
    27 1.533672 0.109716 1.664490 -0.233255 -0.412980 0.435684
    28 0.928313 0.000001 0.000000 0.000000 0.000000 0.000000
    29 0.928314 0.000000 0.000001 0.000000 0.000000 0.000000
    30 18.045698 0.000000 0.000000 0.000000 0.000000 -0.309142
    31 17.597605 0.000000 0.000000 -0.095800 -0.019733 0.057860
    32 3.793091 6.407220 0.000000 0.000000 0.000000 1.570800
    33 2.046988 0.000000 0.000000 0.159308 -0.042660 -0.215212
  time 33
    0 0.375977 0.367732 38.694044 0.000000 0.000000 -1.570808
    1 0.601581 -0.003906 0.000000 0.000000 -1.570450 -1.570790
    2 1.293671 0.684478 -0.000001 -0.069775 0.000658 0.009500
    3 5.309690 -0.003834 0.000000 0.000000 0.000000 -0.069778
    4 4.826789 -0.004591 0.000000 -0.078487 0.001331 0.016171
    5 5.792767 -0.005304 0.000000 0.000000 0.000000 0.040623
    6 6.662318 -0.001453 0.000000 0.000000 -0.000001 0.471000
    7 -3.112020 1.517251 4.341910 -0.000013 -1.316731 2.669810
    8 4.827230 0.000000 0.000000 0.524911 1.084347 0.564371
    9 -2.869900 1.399661 -4.140400 -0.000014 1.320576 2.669780
    10 4.972051 0.000000 -0.000002 0.120734 -1.127909 -0.284204
    11 11.139798 0.000000 0.000001 0.000000 0.000000 -0.672409
    12 0.000004 -0.000003 -3.713250 3.396329 0.065617 3.171582
    13 -0.000004 0.000007 3.713250 -3.196082 -0.034547 2.897630
    14 18.045700 0.000000 0.000000 0.000000 0.000000 -0.229968
    15 17.597601 0.000000 0.000000 -0.017805 0.071038 0.242510
    16 3.793090 6.407220 0.000000 0.000000 0.000000 1.570800
    17 10.314602 0.000000 -0.000001 -1.570000 0.000000 -0.069778
    18 2.975830 -0.386307 -0.044143 -0.000797 -0.043611 0.000035
    19 1.438889 -0.000001 0.000000 0.000000 0.000000 0.793710
    20 1.646739 0.449550 -1.702251 0.154002 0.442277 0.277235
    21 0.928312 0.000000 -0.000002 0.000000 0.000000 0.000000
    22 0.928312 -0.000002 0.000001 0.000000 0.000000 0.000000
    23 11.585398 0.000000 0.000001 0.000000 0.000000 -1.394886
    24 10.127097 0.000000 0.000000 1.761527 0.007922 -0.061472
    25 2.683750 -0.427338 0.044205 0.001045 0.043611 0.000046
    26 1.438891 0.000000 0.000001 0.000000 0.000000 1.072820
    27 1.533672 0.109716 1.664490 -0.233255 -0.412980 0.435684
    28 0.928313 0.000001 0.000000 0.000000 0.000000 0.000000
    29 0.928314 0.000000 0.000001 0.000000 0.000000 0.000000
    30 18.045698 0.000000 0.000000 0.000000 0.000000 -0.298390
    31 17.597605 0.000000 0.000000 -0.095746 -0.020309 0.052868
    32 3.793091 6.407220 0.000000 0.000000 0.000000 1.570800
    33 2.046988 0.000000 0.000000 0.159215 -0.043073 -0.205245
  time 34
    0 0.356445 0.367732 38.725294 0.000000 0.000000 -1.570808
    1 0.613300 -0.007813 0.000000 0.000000 -1.570450 -1.570790
    2 1.293671 0.684478 -0.000001 -0.069775 0.000658 0.009500
    3 5.309690 -0.003834 0.000000 0.000000 0.000000 -0.069778
    4 4.826789 -0.004591 0.000000 -0.078487 0.001103 0.013259
    5 5.792767 -0.005304 0.000000 0.000000 0.000000 0.036452
    6 6.662318 -0.001453 0.000000 0.000000 -0.000001 0.471000
    7 -3.112020 1.517251 4.341910 -0.000013 -1.326409 2.669810
    8 4.827230 0.000000 0.000000 0.548594 1.088747 0.587107
    9 -2.869900 1.399661 -4.140400 -0.000014 1.329574 2.669780
    10 4.972051 0.000000 -0.000002 0.110964 -1.138437 -0.273662
    11 11.139798 0.000000 0.000001 0.000000 0.000000 -0.681448
    12 0.000004 -0.000003 -3.713250 3.396881 0.063172 3.179143
    13 -0.000004 0.000007 3.713250 -3.196202 -0.034763 2.903423
    14 18.045700 0.000000 0.000000 0.000000 0.000000 -0.214713
    15 17.597601 0.000000 0.000000 -0.017881 0.070582 0.235225
    16 3.793090 6.407220 0.000000 0.000000 0.000000 1.570800
    17 10.314602 0.000000 -0.000001 -1.570000 0.000000 -0.069778
    18 2.975830 -0.386307 -0.044143 -0.000797 -0.043611 0.000035
    19 1.438889 -0.000001 0.000000 0.000000 0.000000 0.793710
    20 1.646739 0.449550 -1.702251 0.154002 0.442277 0.277235
    21 0.928312 0.000000 -0.000002 0.000000 0.000000 0.000000
    22 0.928312 -0.000002 0.000001 0.000000 0.000000 0.000000
    23 11.585398 0.000000 0.000001 0.000000 0.000000 -1.402623
    24 10.127097 0.000000 0.000000 1.761527 0.007922 -0.061472
    25 2.683750 -0.427338 0.044205 0.001045 0.043611 0.000046
    26 1.438891 0.000000 0.000001 0.000000 0.000000 1.072820
    27 1.533672 0.109716 1.664490 -0.233255 -0.412980 0.435684
    28 0.928313 0.000001 0.000000 0.000000 0.000000 0.000000
    29 0.928314 0.000000 0.000001 0.000000 0.000000 0.000000
    30 18.045698 0.000000 0.000000 0.000000 0.000000 -0.287578
    31 17.597605 0.000000 0.000000 -0.095693 -0.020848 0.047848
    32 3.793091 6.407220 0.000000 0.000000 0.000000 1.570800
    33 2.046988 0.000000 0.000000 0.159091 -0.043464 -0.195681
  time 35
    0 0.336913 0.367732 38.752639 0.000000 0.000000 -1.570808
    1 0.628925 -0.007813 0.000000 0.000000 -1.570450 -1.570790
    2 1.293671 0.684478 -0.000001 -0.069775 0.000658 0.009500
    3 5.309690 -0.003834 0.000000 0.000000 0.000000 -0.069778
    4 4.826789 -0.004591 0.000000 -0.078487 0.000887 0.010503
    5 5.792767 -0.005304 0.000000 0.000000 0.000000 0.032497
    6 6.662318 -0.001453 0.000000 0.000000 -0.000001 0.471000
    7 -3.112020 1.517251 4.341910 -0.000013 -1.335599 2.669810
    8 4.827230 0.000000 0.000000 0.571474 1.092661 0.608996
    9 -2.869900 1.399661 -4.140400 -0.000014 1.338104 2.669780
    10 4.972051 0.000000 -0.000002 0.101250 -1.148400 -0.263180
    11 11.139798 0.000000 0.000001 0.000000 0.000000 -0.690074
    12 0.000004 -0.000003 -3.713250 3.397408 0.060727 3.186858
    13 -0.000004 0.000007 3.713250 -3.196322 -0.034919 2.909124
    14 18.045700 0.000000 0.000000 0.000000 0.000000 -0.199150
    15 17.597601 0.000000 0.000000 -0.017942 0.070175 0.227714
    16 3.793090 6.407220 0.000000 0.000000 0.000000 1.570800
    17 10.314602 0.000000 -0.000001 -1.570000 0.000000 -0.069778
    18 2.975830 -0.386307 -0.044143 -0.000797 -0.043611 0.000035
    19 1.438889 -0.000001 0.000000 0.000000 0.000000 0.793710
    20 1.646739 0.449550 -1.702251 0.154002 0.442277 0.277235
    21 0.928312 0.000000 -0.000002 0.000000 0.000000 0.000000
    22 0.928312 -0.000002 0.000001 0.000000 0.000000 0.000000
    23 11.585398 0.000000 0.000001 0.000000 0.000000 -1.410030
    24 10.127097 0.000000 0.000000 1.761527 0.007922 -0.061472
    25 2.683750 -0.427338 0.044205 0.001045 0.043611 0.000046
    26 1.438891 0.000000 0.000001 0.000000 0.000000 1.072820
    27 1.533672 0.109716 1.664490 -0.233255 -0.412980 0.435684
    28 0.928313 0.000001 0.000000 0.000000 0.000000 0.000000
    29 0.928314 0.000000 0.000001 0.000000 0.000000 0.000000
    30 18.045698 0.000000 0.000000 0.000000 0.000000 -0.276884
    31 17.597605 0.000000 0.000000 -0.095657 -0.021327 0.042855
    32 3.793091 6.407220 0.000000 0.000000 0.000000 1.570800
    33 2.046988 0.000000 0.000000 0.158998 -0.043832 -0.186614
  time 36
    0 0.313475 0.367732 38.783890 0.000000 0.000000 -1.570808
    1 0.640645 -0.011719 0.000000 0.000000 -1.570450 -1.570790
    2 1.293671 0.684478 -0.000001 -0.069775 0.000658 0.009500
    3 5.309690 -0.003834 0.000000 0.000000 0.000000 -0.069778
    4 4.826789 -0.004591 0.000000 -0.078487 0.000683 0.007938
    5 5.792767 -0.005304 0.000000 0.000000 0.000000 0.028818
    6 6.662318 -0.001453 0.000000 0.000000 -0.000001 0.471000
    7 -3.112020 1.517251 4.341910 -0.000013 -1.344156 2.669810
    8 4.827230 0.000000 0.000000 0.593150 1.096113 0.629660
    9 -2.869900 1.399661 -4.140400 -0.000014 1.346058 2.669780
    10 4.972051 0.000000 -0.000002 0.091759 -1.157650 -0.253064
    11 11.139798 0.000000 0.000001 0.000000 0.000000 -0.698050
    12 0.000004 -0.000003 -3.713250 3.397923 0.058342 3.194604
    13 -0.000004 0.000007 3.713250 -3.196454 -0.035039 2.914611
    14 18.045700 0.000000 0.000000 0.000000 0.000000 -0.183465
    15 17.597601 0.000000 0.000000 -0.018003 0.069815 0.220112
    16 3.793090 6.407220 0.000000 0.000000 0.000000 1.570800
    17 10.314602 0.000000 -0.000001 -1.570000 0.000000 -0.069778
    18 2.975830 -0.386307 -0.044143 -0.000797 -0.043611 0.000035
    19 1.438889 -0.000001 0.000000 0.000000 0.000000 0.793710
    20 1.646739 0.449550 -1.702251 0.154002 0.442277 0.277235
    21 0.928312 0.000000 -0.000002 0.000000 0.000000 0.000000
    22 0.928312 -0.000002 0.000001 0.000000 0.000000 0.000000
    23 11.585398 0.000000 0.000001 0.000000 0.000000 -1.416889
    24 10.127097 0.000000 0.000000 1.761527 0.007922 -0.061472
    25 2.683750 -0.427338 0.044205 0.001045 0.043611 0.000046
    26 1.438891 0.000000 0.000001 0.000000 0.000000 1.072820
    27 1.533672 0.109716 1.664490 -0.233255 -0.412980 0.435684
    28 0.928313 0.000001 0.000000 0.000000 0.000000 0.000000
    29 0.928314 0.000000 0.000001 0.000000 0.000000 0.000000
    30 18.045698 0.000000 0.000000 0.000000 0.000000 -0.266604
    31 17.597605 0.000000 0.000000 -0.095639 -0.021735 0.038049
    32 3.793091 6.407220 0.000000 0.000000 0.000000 1.570800
    33 2.046988 0.000000 0.000000 0.158904 -0.044177 -0.178199
  time 37
    0 0.293943 0.367732 38.811235 0.000000 0.000000 -1.570808
    1 0.652364 -0.011719 0.000000 0.000000 -1.570450 -1.570790
    2 1.293671 0.684478 -0.000001 -0.069775 0.000658 0.009500
    3 5.309690 -0.003834 0.000000 0.000000 0.000000 -0.069778
    4 4.826789 -0.004591 0.000000 -0.078487 0.000492 0.005589
    5 5.792767 -0.005304 0.000000 0.000000 0.000000 0.025450
    6 6.662318 -0.001453 0.000000 0.000000 -0.000001 0.471000
    7 -3.112020 1.517251 4.341910 -0.000013 -1.351981 2.669810
    8 4.827230 0.000000 0.000000 0.613220 1.099054 0.648806
    9 -2.869900 1.399661 -4.140400 -0.000014 1.353329 2.669780
    10 4.972051 0.000000 -0.000002 0.082659 -1.166066 -0.243497
    11 11.139798 0.000000 0.000001 0.000000 0.000000 -0.705435
    12 0.000004 -0.000003 -3.713250 3.398391 0.056029 3.202257
    13 -0.000004 0.000007 3.713250 -3.196574 -0.035087 2.919763
    14 18.045700 0.000000 0.000000 0.000000 0.000000 -0.167964
    15 17.597601 0.000000 0.000000 -0.018049 0.069528 0.212556
    16 3.793090 6.407220 0.000000 0.000000 0.000000 1.570800
    17 10.314602 0.000000 -0.000001 -1.570000 0.000000 -0.069778
    18 2.975830 -0.386307 -0.044143 -0.000797 -0.043611 0.000035
    19 1.438889 -0.000001 0.000000 0.000000 0.000000 0.793710
    20 1.646739 0.449550 -1.702251 0.154002 0.442277 0.277235
    21 0.928312 0.000000 -0.000002 0.000000 0.000000 0.000000
    22 0.928312 -0.000002 0.000001 0.000000 0.000000 0.000000
    23 11.585398 0.000000 0.000001 0.000000 0.000000 -1.423198
    24 10.127097 0.000000 0.000000 1.761527 0.007922 -0.061472
    25 2.683750 -0.427338 0.044205 0.001045 0.043611 0.000046
    26 1.438891 0.000000 0.000001 0.000000 0.000000 1.072820
    27 1.533672 0.109716 1.664490 -0.233255 -0.412980 0.435684
    28 0.928313 0.000001 0.000000 0.000000 0.000000 0.000000
    29 0.928314 0.000000 0.000001 0.000000 0.000000 0.000000
    30 18.045698 0.000000 0.000000 0.000000 0.000000 -0.256974
    31 17.597605 0.000000 0.000000 -0.095603 -0.022082 0.033510
    32 3.793091 6.407220 0.000000 0.000000 0.000000 1.570800
    33 2.046988 0.000000 0.000000 0.158811 -0.044498 -0.170467
  time 38
    0 0.274411 0.367732 38.838579 0.000000 0.000000 -1.570808
    1 0.660176 -0.015625 0.000000 0.000000 -1.570450 -1.570790
    2 1.293671 0.684478 -0.000001 -0.069775 0.000658 0.009500
    3 5.309690 -0.003834 0.000000 0.000000 0.000000 -0.069778
    4 4.826789 -0.004591 0.000000 -0.078487 0.000324 0.003444
    5 5.792767 -0.005304 0.000000 0.000000 0.000000 0.022382
    6 6.662318 -0.001453 0.000000 0.000000 -0.000001 0.471000
    7 -3.112020 1.517251 4.341910 -0.000013 -1.359148 2.669810
    8 4.827230 0.000000 0.000000 0.631765 1.101607 0.666464
    9 -2.869900 1.399661 -4.140400 -0.000014 1.359971 2.669780
    10 4.972051 0.000000 -0.000002 0.073950 -1.173739 -0.234356
    11 11.139798 0.000000 0.000001 0.000000 0.000000 -0.712111
    12 0.000004 -0.000003 -3.713250 3.398834 0.053884 3.209602
    13 -0.000004 0.000007 3.713250 -3.196694 -0.035099 2.924428
    14 18.045700 0.000000 0.000000 0.000000 0.000000 -0.153017
    15 17.597601 0.000000 0.000000 -0.018095 0.069312 0.205271
    16 3.793090 6.407220 0.000000 0.000000 0.000000 1.570800
    17 10.314602 0.000000 -0.000001 -1.570000 0.000000 -0.069778
    18 2.975830 -0.386307 -0.044143 -0.000797 -0.043611 0.000035
    19 1.438889 -0.000001 0.000000 0.000000 0.000000 0.793710
    20 1.646739 0.449550 -1.702251 0.154002 0.442277 0.277235
    21 0.928312 0.000000 -0.000002 0.000000 0.000000 0.000000
    22 0.928312 -0.000002 0.000001 0.000000 0.000000 0.000000
    23 11.585398 0.000000 0.000001 0.000000 0.000000 -1.428960
    24 10.127097 0.000000 0.000000 1.761527 0.007922 -0.061472
    25 2.683750 -0.427338 0.044205 0.001045 0.043611 0.000046
    26 1.438891 0.000000 0.000001 0.000000 0.000000 1.072820
    27 1.533672 0.109716 1.664490 -0.233255 -0.412980 0.435684
    28 0.928313 0.000001 0.000000 0.000000 0.000000 0.000000
    29 0.928314 0.000000 0.000001 0.000000 0.000000 0.000000
    30 18.045698 0.000000 0.000000 0.000000 0.000000 -0.248230
    31 17.597605 0.000000 0.000000 -0.095603 -0.022346 0.029425
    32 3.793091 6.407220 0.000000 0.000000 0.000000 1.570800
    33 2.046988 0.000000 0.000000 0.158718 -0.044797 -0.163418
  time 39
    0 0.254879 0.367732 38.862017 0.000000 0.000000 -1.570808
    1 0.671896 -0.015625 0.000000 0.000000 -1.570450 -1.570790
    2 1.293671 0.684478 -0.000001 -0.069775 0.000658 0.009500
    3 5.309690 -0.003834 0.000000 0.000000 0.000000 -0.069778
    4 4.826789 -0.004591 0.000000 -0.078499 0.000168 0.001406
    5 5.792767 -0.005304 0.000000 0.000000 0.000000 0.019470
    6 6.662318 -0.001453 0.000000 0.000000 -0.000001 0.471000
    7 -3.112020 1.517251 4.341910 -0.000013 -1.365949 2.669810
    8 4.827230 0.000000 0.000000 0.649547 1.103892 0.683363
    9 -2.869900 1.399661 -4.140400 -0.000014 1.366291 2.669780
    10 4.972051 0.000000 -0.000002 0.065409 -1.180996 -0.225459
    11 11.139798 0.000000 0.000001 0.000000 0.000000 -0.718551
    12 0.000004 -0.000003 -3.713250 3.399218 0.051954 3.216422
    13 -0.000004 0.000007 3.713250 -3.196801 -0.035051 2.928422
    14 18.045700 0.000000 0.000000 0.000000 0.000000 -0.139177
    15 17.597601 0.000000 0.000000 -0.018125 0.069180 0.198506
    16 3.793090 6.407220 0.000000 0.000000 0.000000 1.570800
    17 10.314602 0.000000 -0.000001 -1.570000 0.000000 -0.069778
    18 2.975830 -0.386307 -0.044143 -0.000797 -0.043611 0.000035
    19 1.438889 -0.000001 0.000000 0.000000 0.000000 0.793710
    20 1.646739 0.449550 -1.702251 0.154002 0.442277 0.277235
    21 0.928312 0.000000 -0.000002 0.000000 0.000000 0.000000
    22 0.928312 -0.000002 0.000001 0.000000 0.000000 0.000000
    23 11.585398 0.000000 0.000001 0.000000 0.000000 -1.434447
    24 10.127097 0.000000 0.000000 1.761527 0.007922 -0.061472
    25 2.683750 -0.427338 0.044205 0.001045 0.043611 0.000046
    26 1.438891 0.000000 0.000001 0.000000 0.000000 1.072820
    27 1.533672 0.109716 1.664490 -0.233255 -0.412980 0.435684
    28 0.928313 0.000001 0.000000 0.000000 0.000000 0.000000
    29 0.928314 0.000000 0.000001 0.000000 0.000000 0.000000
    30 18.045698 0.000000 0.000000 0.000000 0.000000 -0.240786
    31 17.597605 0.000000 0.000000 -0.095585 -0.022526 0.025954
    32 3.793091 6.407220 0.000000 0.000000 0.000000 1.570800
    33 2.046988 0.000000 0.000000 0.158656 -0.045073 -0.156773
  time 40
    0 0.235347 0.367732 38.885456 0.000000 0.000000 -1.570808
    1 0.679708 -0.015625 0.000000 0.000000 -1.570450 -1.570790
    2 1.293671 0.684478 -0.000001 -0.069775 0.000658 0.009500
    3 5.309690 -0.003834 0.000000 0.000000 0.000000 -0.069778
    4 4.826789 -0.004591 0.000000 -0.078499 0.000060 -0.000008
    5 5.792767 -0.005304 0.000000 0.000000 0.000000 0.017444
    6 6.662318 -0.001453 0.000000 0.000000 -0.000001 0.471000
    7 -3.112020 1.517251 4.341910 -0.000013 -1.370800 2.669810
    8 4.827230 0.000000 0.000000 0.662271 1.105496 0.695387
    9 -2.869900 1.399661 -4.140400 -0.000014 1.370790 2.669780
    10 4.972051 0.000000 -0.000002 0.059323 -1.186141 -0.219121
    11 11.139798 0.000000 0.000001 0.000000 0.000000 -0.723277
    12 0.000004 -0.000003 -3.713250 3.399517 0.050396 3.222132
    13 -0.000004 0.000007 3.713250 -3.196897 -0.034955 2.931562
    14 18.045700 0.000000 0.000000 0.000000 0.000000 -0.127551
    15 17.597601 0.000000 0.000000 -0.018140 0.069132 0.192759
    16 3.793090 6.407220 0.000000 0.000000 0.000000 1.570800
    17 10.314602 0.000000 -0.000001 -1.570000 0.000000 -0.069778
    18 2.975830 -0.386307 -0.044143 -0.000797 -0.043611 0.000035
    19 1.438889 -0.000001 0.000000 0.000000 0.000000 0.793710
    20 1.646739 0.449550 -1.702251 0.154002 0.442277 0.277235
    21 0.928312 0.000000 -0.000002 0.000000 0.000000 0.000000
    22 0.928312 -0.000002 0.000001 0.000000 0.000000 0.000000
    23 11.585398 0.000000 0.000001 0.000000 0.000000 -1.438507
    24 10.127097 0.000000 0.000000 1.761527 0.007922 -0.061472
    25 2.683750 -0.427338 0.044205 0.001045 0.043611 0.000046
    26 1.438891 0.000000 0.000001 0.000000 0.000000 1.072820
    27 1.533672 0.109716 1.664490 -0.233255 -0.412980 0.435684
    28 0.928313 0.000001 0.000000 0.000000 0.000000 0.000000
    29 0.928314 0.000000 0.000001 0.000000 0.000000 0.000000
    30 18.045698 0.000000 0.000000 0.000000 0.000000 -0.234878
    31 17.597605 0.000000 0.000000 -0.095585 -0.022610 0.023204
    32 3.793091 6.407220 0.000000 0.000000 0.000000 1.570800
    33 2.046988 0.000000 0.000000 0.158594 -0.045257 -0.152116
end
