// Created by Crowbar 0.74
version 1
nodes
  0 "Bip01" -1
  1 "Bip01 Pelvis" 0
  2 "Bip01 Spine" 1
  3 "Bip01 Spine1" 2
  4 "Bip01 Spine2" 3
  5 "Bip01 Spine3" 4
  6 "Bip01 Neck" 5
  7 "Bip01 L Clavicle" 6
  8 "Bip01 L UpperArm" 7
  9 "Bip01 R Clavicle" 6
  10 "Bip01 R UpperArm" 9
  11 "Bip01 L Forearm" 8
  12 "Bip01 R Thigh" 1
  13 "Bip01 L Thigh" 1
  14 "Bip01 R Calf" 12
  15 "Bip01 R Foot" 14
  16 "Bip01 R Toe0" 15
  17 "Bip01 L Hand" 11
  18 "Bip01 L Finger1" 17
  19 "Bip01 L Finger11" 18
  20 "Bip01 L Finger0" 17
  21 "Bip01 L Finger01" 20
  22 "Bip01 L Finger02" 21
  23 "Bip01 R Forearm" 10
  24 "Bip01 R Hand" 23
  25 "Bip01 R Finger1" 24
  26 "Bip01 R Finger11" 25
  27 "Bip01 R Finger0" 24
  28 "Bip01 R Finger01" 27
  29 "Bip01 R Finger02" 28
  30 "Bip01 L Calf" 13
  31 "Bip01 L Foot" 30
  32 "Bip01 L Toe0" 31
  33 "Bip01 Head" 6
end
skeleton
  time 0
    0 0.235347 0.367732 40.201902 0.000000 0.000000 -1.570808
    1 -1.074252 -0.058596 0.000000 0.000000 -1.570450 -1.570790
    2 1.293671 0.684478 -0.000001 -0.000004 -0.000001 0.114185
    3 5.309690 -0.003834 0.000000 0.095805 -0.005081 0.052088
    4 4.826789 -0.004591 0.000000 0.200538 -0.005369 0.025615
    5 5.792767 -0.005304 0.000000 0.087200 -0.001582 0.017384
    6 6.662318 -0.001453 0.000000 0.000000 -0.000001 0.471000
    7 -3.112020 1.517251 4.341910 -0.725596 -1.306201 3.377854
    8 4.827230 0.000000 0.000000 1.123926 0.822702 0.657358
    9 -2.869900 1.399661 -4.140400 -0.818877 1.282293 1.871999
    10 4.972051 0.000000 -0.000002 0.974562 -1.089663 -0.361779
    11 11.139798 0.000000 0.000001 0.000000 0.000000 -1.665319
    12 0.000004 -0.000003 -3.713250 3.130859 -0.013865 3.631778
    13 -0.000004 0.000007 3.713250 -3.158750 0.019767 2.326226
    14 18.045700 0.000000 0.000000 0.000000 0.000000 -0.389159
    15 17.597601 0.000000 0.000000 0.017411 0.002018 -0.638291
    16 3.793090 6.407220 0.000000 0.000000 0.000000 1.570800
    17 10.314602 0.000000 -0.000001 -1.570000 0.000000 -0.069778
    18 2.975830 -0.386307 -0.044143 -0.028637 -0.032909 0.698246
    19 1.438889 -0.000001 0.000000 0.000000 0.000000 1.046645
    20 1.646739 0.449550 -1.702251 0.142629 -0.222485 0.179225
    21 0.928312 0.000000 -0.000002 0.000000 0.000000 0.000000
    22 0.928312 -0.000002 0.000001 0.000000 0.000000 0.000000
    23 11.585398 0.000000 0.000001 0.000000 0.000000 -1.506051
    24 10.127097 0.000000 0.000000 1.718023 0.000000 -0.069778
    25 2.683750 -0.427338 0.044205 0.001045 0.043611 0.000046
    26 1.438891 0.000000 0.000001 0.000000 0.000000 1.421705
    27 1.533672 0.109716 1.664490 -0.233255 -0.412980 0.435684
    28 0.928313 0.000001 0.000000 0.000000 0.000000 0.000000
    29 0.928314 0.000000 0.000001 0.000000 0.000000 0.000000
    30 18.045698 0.000000 0.000000 0.000000 0.000000 -1.011143
    31 17.597605 0.000000 0.000000 -0.002613 0.026036 0.195900
    32 3.793091 6.407220 0.000000 0.000000 0.000000 1.570800
    33 2.046988 0.000000 0.000000 -0.381103 0.044798 -0.411737
  time 1
    0 0.235347 -0.407157 39.576883 0.000000 0.000000 -1.570808
    1 -0.800806 -0.070315 0.000000 0.000000 -1.570450 -1.570790
    2 1.293671 0.684478 -0.000001 -0.000004 -0.000001 0.070585
    3 5.309690 -0.003834 0.000000 0.079709 -0.005321 0.065838
    4 4.826789 -0.004591 0.000000 0.185653 -0.008233 0.043017
    5 5.792767 -0.005304 0.000000 0.069643 -0.001258 0.017408
    6 6.662318 -0.001453 0.000000 0.000000 -0.000001 0.471000
    7 -3.112020 1.517251 4.341910 -0.695576 -1.329164 3.350907
    8 4.827230 0.000000 0.000000 1.215085 0.511904 0.862011
    9 -2.869900 1.399661 -4.140400 -0.725224 1.306275 1.962127
    10 4.972051 0.000000 -0.000002 0.874184 -1.119582 -0.351176
    11 11.139798 0.000000 0.000001 0.000000 0.000000 -1.719850
    12 0.000004 -0.000003 -3.713250 3.132740 -0.015148 3.501947
    13 -0.000004 0.000007 3.713250 -3.157204 0.021552 2.409667
    14 18.045700 0.000000 0.000000 0.000000 0.000000 -0.854432
    15 17.597601 0.000000 0.000000 0.016832 0.004907 -0.470714
    16 3.793090 6.407220 0.000000 0.000000 0.000000 1.570800
    17 10.314602 0.000000 -0.000001 -1.570000 0.000000 -0.032566
    18 2.975830 -0.386307 -0.044143 -0.028637 -0.032909 0.698246
    19 1.438889 -0.000001 0.000000 0.000000 0.000000 1.046645
    20 1.646739 0.449550 -1.702251 0.142629 -0.222485 0.179225
    21 0.928312 0.000000 -0.000002 0.000000 0.000000 0.000000
    22 0.928312 -0.000002 0.000001 0.000000 0.000000 0.000000
    23 11.585398 0.000000 0.000001 0.000000 0.000000 -1.492773
    24 10.127097 0.000000 0.000000 1.718023 0.000000 -0.069778
    25 2.683750 -0.427338 0.044205 0.001045 0.043611 0.000046
    26 1.438891 0.000000 0.000001 0.000000 0.000000 1.421705
    27 1.533672 0.109716 1.664490 -0.233255 -0.412980 0.435684
    28 0.928313 0.000001 0.000000 0.000000 0.000000 0.000000
    29 0.928314 0.000000 0.000001 0.000000 0.000000 0.000000
    30 18.045698 0.000000 0.000000 0.000000 0.000000 -0.812454
    31 17.597605 0.000000 0.000000 -0.000356 0.026599 0.172217
    32 3.793091 6.407220 0.000000 0.000000 0.000000 1.570800
    33 2.046988 0.000000 0.000000 -0.331667 0.048959 -0.399037
  time 2
    0 0.235347 -8.733058 38.869830 0.000000 0.000000 -1.570808
    1 -1.152379 -0.062502 0.000000 0.000000 -1.570450 -1.570790
    2 1.293671 0.684478 -0.000001 -0.000004 -0.000001 0.091786
    3 5.309690 -0.003834 0.000000 0.054794 -0.003919 0.087100
    4 4.826789 -0.004591 0.000000 0.162211 -0.008413 0.054486
    5 5.792767 -0.005304 0.000000 0.042150 -0.000767 0.017432
    6 6.662318 -0.001453 0.000000 0.000000 -0.000001 0.471000
    7 -3.112020 1.517251 4.341910 -0.634430 -1.365559 3.294133
    8 4.827230 0.000000 0.000000 1.169927 0.657980 0.872197
    9 -2.869900 1.399661 -4.140400 -0.611860 1.328048 2.071829
    10 4.972051 0.000000 -0.000002 0.850681 -1.093797 -0.448008
    11 11.139798 0.000000 0.000001 0.000000 0.000000 -1.784898
    12 0.000004 -0.000003 -3.713250 3.134670 -0.016118 3.378843
    13 -0.000004 0.000007 3.713250 -3.155371 0.023015 2.496096
    14 18.045700 0.000000 0.000000 0.000000 0.000000 -1.270126
    15 17.597601 0.000000 0.000000 0.015994 0.007160 -0.315513
    16 3.793090 6.407220 0.000000 0.000000 0.000000 1.570800
    17 10.314602 0.000000 -0.000001 -1.570000 0.000000 0.019627
    18 2.975830 -0.386307 -0.044143 -0.028637 -0.032909 0.698246
    19 1.438889 -0.000001 0.000000 0.000000 0.000000 1.046667
    20 1.646739 0.449550 -1.702251 0.142629 -0.222485 0.179225
    21 0.928312 0.000000 -0.000002 0.000000 0.000000 0.000000
    22 0.928312 -0.000002 0.000001 0.000000 0.000000 0.000000
    23 11.585398 0.000000 0.000001 0.000000 0.000000 -1.471648
    24 10.127097 0.000000 0.000000 1.718023 0.000000 -0.069778
    25 2.683750 -0.427338 0.044205 0.001045 0.043611 0.000046
    26 1.438891 0.000000 0.000001 0.000000 0.000000 1.421705
    27 1.533672 0.109716 1.664490 -0.233255 -0.412980 0.435684
    28 0.928313 0.000001 0.000000 0.000000 0.000000 0.000000
    29 0.928314 0.000000 0.000001 0.000000 0.000000 0.000000
    30 18.045698 0.000000 0.000000 0.000000 0.000000 -0.635447
    31 17.597605 0.000000 0.000000 0.001131 0.026791 0.138388
    32 3.793091 6.407220 0.000000 0.000000 0.000000 1.570800
    33 2.046988 0.000000 0.000000 -0.257994 0.026663 -0.447602
  time 3
    0 0.235347 -17.387093 38.154965 0.000000 0.000000 -1.570808
    1 -1.621143 -0.042970 0.000000 0.000000 -1.570450 -1.570790
    2 1.293671 0.684478 -0.000001 -0.000004 -0.000001 0.123353
    3 5.309690 -0.003834 0.000000 0.027936 -0.001762 0.110669
    4 4.826789 -0.004591 0.000000 0.138098 -0.008233 0.068244
    5 5.792767 -0.005304 0.000000 0.012824 -0.000228 0.017444
    6 6.662318 -0.001453 0.000000 0.000000 -0.000001 0.471000
    7 -3.112020 1.517251 4.341910 -0.539998 -1.403807 3.203641
    8 4.827230 0.000000 0.000000 1.054965 0.865925 0.815955
    9 -2.869900 1.399661 -4.140400 -0.477878 1.346366 2.202194
    10 4.972051 0.000000 -0.000002 0.847722 -1.057603 -0.570678
    11 11.139798 0.000000 0.000001 0.000000 0.000000 -1.854436
    12 0.000004 -0.000003 -3.713250 3.136144 -0.016670 3.288853
    13 -0.000004 0.000007 3.713250 -3.152962 0.023602 2.590603
    14 18.045700 0.000000 0.000000 0.000000 0.000000 -1.546189
    15 17.597601 0.000000 0.000000 0.015689 0.007819 -0.170877
    16 3.793090 6.407220 0.000000 0.000000 0.000000 1.570800
    17 10.314602 0.000000 -0.000001 -1.570000 0.000000 0.078579
    18 2.975830 -0.386307 -0.044143 -0.028637 -0.032909 0.698246
    19 1.438889 -0.000001 0.000000 0.000000 0.000000 1.046645
    20 1.646739 0.449550 -1.702251 0.142629 -0.222485 0.179225
    21 0.928312 0.000000 -0.000002 0.000000 0.000000 0.000000
    22 0.928312 -0.000002 0.000001 0.000000 0.000000 0.000000
    23 11.585398 0.000000 0.000001 0.000000 0.000000 -1.448493
    24 10.127097 0.000000 0.000000 1.718023 0.000000 -0.069778
    25 2.683750 -0.427338 0.044205 0.001045 0.043611 0.000046
    26 1.438891 0.000000 0.000001 0.000000 0.000000 1.421705
    27 1.533672 0.109716 1.664490 -0.233255 -0.412980 0.435684
    28 0.928313 0.000001 0.000000 0.000000 0.000000 0.000000
    29 0.928314 0.000000 0.000001 0.000000 0.000000 0.000000
    30 18.045698 0.000000 0.000000 0.000000 0.000000 -0.490462
    31 17.597605 0.000000 0.000000 -0.000177 0.026180 0.034845
    32 3.793091 6.407220 0.000000 0.000000 0.000000 1.570800
    33 2.046988 0.000000 0.000000 -0.178915 0.007631 -0.513089
  time 4
    0 0.235347 -26.045035 37.529945 0.000000 0.000000 -1.570808
    1 -2.086001 -0.019532 0.000000 0.000000 -1.570450 -1.570790
    2 1.293671 0.684478 -0.000001 -0.000004 -0.000001 0.156551
    3 5.309690 -0.003834 0.000000 0.001222 0.001079 0.133628
    4 4.826789 -0.004591 0.000000 0.113314 -0.007502 0.079798
    5 5.792767 -0.005304 0.000000 -0.016586 0.000300 0.017444
    6 6.662318 -0.001453 0.000000 0.000000 -0.000001 0.471000
    7 -3.112020 1.517251 4.341910 -0.402480 -1.438154 3.069150
    8 4.827230 0.000000 0.000000 0.820344 1.059430 0.645391
    9 -2.869900 1.399661 -4.140400 -0.325450 1.360038 2.351081
    10 4.972051 0.000000 -0.000002 0.840743 -1.024680 -0.688595
    11 11.139798 0.000000 0.000001 0.000000 0.000000 -1.916589
    12 0.000004 -0.000003 -3.713250 3.137990 -0.017173 3.179883
    13 -0.000004 0.000007 3.713250 -3.150421 0.024033 2.689653
    14 18.045700 0.000000 0.000000 0.000000 0.000000 -1.755082
    15 17.597601 0.000000 0.000000 0.015521 0.008142 -0.091670
    16 3.793090 6.407220 0.000000 0.000000 0.000000 1.570800
    17 10.314602 0.000000 -0.000001 -1.570000 0.000000 0.126110
    18 2.975830 -0.386307 -0.044143 -0.028637 -0.032909 0.698246
    19 1.438889 -0.000001 0.000000 0.000000 0.000000 1.046667
    20 1.646739 0.449550 -1.702251 0.142629 -0.222485 0.179225
    21 0.928312 0.000000 -0.000002 0.000000 0.000000 0.000000
    22 0.928312 -0.000002 0.000001 0.000000 0.000000 0.000000
    23 11.585398 0.000000 0.000001 0.000000 0.000000 -1.429344
    24 10.127097 0.000000 0.000000 1.718023 0.000000 -0.069778
    25 2.683750 -0.427338 0.044205 0.001045 0.043611 0.000046
    26 1.438891 0.000000 0.000001 0.000000 0.000000 1.421705
    27 1.533672 0.109716 1.664490 -0.233255 -0.412980 0.435684
    28 0.928313 0.000001 0.000000 0.000000 0.000000 0.000000
    29 0.928314 0.000000 0.000001 0.000000 0.000000 0.000000
    30 18.045698 0.000000 0.000000 0.000000 0.000000 -0.433094
    31 17.597605 0.000000 0.000000 -0.002075 0.025521 -0.000453
    32 3.793091 6.407220 0.000000 0.000000 0.000000 1.570800
    33 2.046988 0.000000 0.000000 -0.098189 -0.002413 -0.579509
  time 5
    0 0.235347 -34.710790 37.092432 0.000000 0.000000 -1.570808
    1 -2.437574 0.007813 0.000000 0.000000 -1.570450 -1.570790
    2 1.293671 0.684478 -0.000001 -0.000004 -0.000001 0.182581
    3 5.309690 -0.003834 0.000000 -0.023286 0.004291 0.153092
    4 4.826789 -0.004591 0.000000 0.087847 -0.006292 0.084663
    5 5.792767 -0.005304 0.000000 -0.044343 0.000803 0.017432
    6 6.662318 -0.001453 0.000000 0.000000 -0.000001 0.471000
    7 -3.112020 1.517251 4.341910 -0.229658 -1.463214 2.898204
    8 4.827230 0.000000 0.000000 0.482001 1.168264 0.370224
    9 -2.869900 1.399661 -4.140400 -0.161211 1.368246 2.511839
    10 4.972051 0.000000 -0.000002 0.810987 -1.008769 -0.777261
    11 11.139798 0.000000 0.000001 0.000000 0.000000 -1.959481
    12 0.000004 -0.000003 -3.713250 3.141094 -0.017521 3.000798
    13 -0.000004 0.000007 3.713250 -3.148060 0.025879 2.796050
    14 18.045700 0.000000 0.000000 0.000000 0.000000 -1.959239
    15 17.597601 0.000000 0.000000 0.014074 0.010456 -0.222573
    16 3.793090 6.407220 0.000000 0.000000 0.000000 1.570800
    17 10.314602 0.000000 -0.000001 -1.570000 0.000000 0.144087
    18 2.975830 -0.386307 -0.044143 -0.028637 -0.032909 0.698246
    19 1.438889 -0.000001 0.000000 0.000000 0.000000 1.046645
    20 1.646739 0.449550 -1.702251 0.142629 -0.222485 0.179225
    21 0.928312 0.000000 -0.000002 0.000000 0.000000 0.000000
    22 0.928312 -0.000002 0.000001 0.000000 0.000000 0.000000
    23 11.585398 0.000000 0.000001 0.000000 0.000000 -1.420016
    24 10.127097 0.000000 0.000000 1.718023 0.000000 -0.069778
    25 2.683750 -0.427338 0.044205 0.001045 0.043611 0.000046
    26 1.438891 0.000000 0.000001 0.000000 0.000000 1.421705
    27 1.533672 0.109716 1.664490 -0.233255 -0.412980 0.435684
    28 0.928313 0.000001 0.000000 0.000000 0.000000 0.000000
    29 0.928314 0.000000 0.000001 0.000000 0.000000 0.000000
    30 18.045698 0.000000 0.000000 0.000000 0.000000 -0.727909
    31 17.597605 0.000000 0.000000 -0.002201 0.026575 0.400638
    32 3.793091 6.407220 0.000000 0.000000 0.000000 1.570800
    33 2.046988 0.000000 0.000000 -0.020445 -0.002873 -0.629781
  time 6
    0 0.235347 -43.376545 36.924458 0.000000 0.000000 -1.570808
    1 -2.578204 0.035157 0.000000 0.000000 -1.570450 -1.570790
    2 1.293671 0.684478 -0.000001 -0.000004 -0.000001 0.192684
    3 5.309690 -0.003834 0.000000 -0.043528 0.007335 0.166206
    4 4.826789 -0.004591 0.000000 0.061744 -0.004901 0.078348
    5 5.792767 -0.005304 0.000000 -0.068660 0.001246 0.017408
    6 6.662318 -0.001453 0.000000 0.000000 -0.000001 0.471000
    7 -3.112020 1.517251 4.341910 -0.009236 -1.481009 2.678984
    8 4.827230 0.000000 0.000000 0.169548 1.196658 0.109855
    9 -2.869900 1.399661 -4.140400 0.004134 1.370790 2.673875
    10 4.972051 0.000000 -0.000002 0.737295 -1.021944 -0.809376
    11 11.139798 0.000000 0.000001 0.000000 0.000000 -1.990971
    12 0.000004 -0.000003 -3.713250 3.145024 -0.017197 2.775082
    13 -0.000004 0.000007 3.713250 -3.139347 0.027269 3.142344
    14 18.045700 0.000000 0.000000 0.000000 0.000000 -2.098378
    15 17.597601 0.000000 0.000000 0.014241 0.010228 -0.292572
    16 3.793090 6.407220 0.000000 0.000000 0.000000 1.570800
    17 10.314602 0.000000 -0.000001 -1.570000 0.000000 0.135902
    18 2.975830 -0.386307 -0.044143 -0.028637 -0.032909 0.698246
    19 1.438889 -0.000001 0.000000 0.000000 0.000000 1.046645
    20 1.646739 0.449550 -1.702251 0.142629 -0.222485 0.179225
    21 0.928312 0.000000 -0.000002 0.000000 0.000000 0.000000
    22 0.928312 -0.000002 0.000001 0.000000 0.000000 0.000000
    23 11.585398 0.000000 0.000001 0.000000 0.000000 -1.426491
    24 10.127097 0.000000 0.000000 1.718023 0.000000 -0.069778
    25 2.683750 -0.427338 0.044205 0.001045 0.043611 0.000046
    26 1.438891 0.000000 0.000001 0.000000 0.000000 1.421705
    27 1.533672 0.109716 1.664490 -0.233255 -0.412980 0.435684
    28 0.928313 0.000001 0.000000 0.000000 0.000000 0.000000
    29 0.928314 0.000000 0.000001 0.000000 0.000000 0.000000
    30 18.045698 0.000000 0.000000 0.000000 0.000000 -0.543458
    31 17.597605 0.000000 0.000000 -0.001735 0.027306 0.562414
    32 3.793091 6.407220 0.000000 0.000000 0.000000 1.570800
    33 2.046988 0.000000 0.000000 0.050058 0.002023 -0.646797
  time 7
    0 0.235347 -52.050112 37.166653 0.000000 0.000000 -1.570808
    1 -2.457106 0.058596 0.000000 0.000000 -1.570450 -1.570790
    2 1.293671 0.684478 -0.000001 -0.000004 -0.000001 0.182641
    3 5.309690 -0.003834 0.000000 -0.060738 0.010175 0.172395
    4 4.826789 -0.004591 0.000000 0.031076 -0.003643 0.055505
    5 5.792767 -0.005304 0.000000 -0.090819 0.001654 0.017372
    6 6.662318 -0.001453 0.000000 0.000000 -0.000001 0.471000
    7 -3.112020 1.517251 4.341910 0.312728 -1.492979 2.357985
    8 4.827230 0.000000 0.000000 -0.049578 1.187128 -0.065204
    9 -2.869900 1.399661 -4.140400 0.159090 1.368313 2.825654
    10 4.972051 0.000000 -0.000002 0.583657 -1.066317 -0.754043
    11 11.139798 0.000000 0.000001 0.000000 0.000000 -2.025002
    12 0.000004 -0.000003 -3.713250 3.150046 -0.015375 2.469529
    13 -0.000004 0.000007 3.713250 -3.133978 0.024908 3.336541
    14 18.045700 0.000000 0.000000 0.000000 0.000000 -2.143158
    15 17.597601 0.000000 0.000000 0.017533 -0.000283 0.084775
    16 3.793090 6.407220 0.000000 0.000000 0.000000 1.570800
    17 10.314602 0.000000 -0.000001 -1.570000 0.000000 0.118560
    18 2.975830 -0.386307 -0.044143 -0.028637 -0.032909 0.698267
    19 1.438889 -0.000001 0.000000 0.000000 0.000000 1.046667
    20 1.646739 0.449550 -1.702251 0.142629 -0.222485 0.179225
    21 0.928312 0.000000 -0.000002 0.000000 0.000000 0.000000
    22 0.928312 -0.000002 0.000001 0.000000 0.000000 0.000000
    23 11.585398 0.000000 0.000001 0.000000 0.000000 -1.454639
    24 10.127097 0.000000 0.000000 1.718023 0.000000 -0.069778
    25 2.683750 -0.427338 0.044205 0.001045 0.043611 0.000046
    26 1.438891 0.000000 0.000001 0.000000 0.000000 1.421705
    27 1.533672 0.109716 1.664490 -0.233255 -0.412980 0.435684
    28 0.928313 0.000001 0.000000 0.000000 0.000000 0.000000
    29 0.928314 0.000000 0.000001 0.000000 0.000000 0.000000
    30 18.045698 0.000000 0.000000 0.000000 0.000000 -0.373659
    31 17.597605 0.000000 0.000000 -0.006769 0.025137 0.406939
    32 3.793091 6.407220 0.000000 0.000000 0.000000 1.570800
    33 2.046988 0.000000 0.000000 0.120095 0.005862 -0.620248
  time 8
    0 0.235347 -60.723680 37.776047 0.000000 0.000000 -1.570808
    1 -2.140690 0.070315 0.000000 0.000000 -1.570450 -1.570790
    2 1.293671 0.684478 -0.000001 -0.000004 -0.000001 0.158696
    3 5.309690 -0.003834 0.000000 -0.076857 0.012932 0.173992
    4 4.826789 -0.004591 0.000000 -0.004794 -0.003284 0.019060
    5 5.792767 -0.005304 0.000000 -0.112511 0.002037 0.017337
    6 6.662318 -0.001453 0.000000 0.000000 -0.000001 0.471000
    7 -3.112020 1.517251 4.341910 0.697182 -1.494807 1.974015
    8 4.827230 0.000000 0.000000 -0.168554 1.168385 -0.143189
    9 -2.869900 1.399661 -4.140400 0.314521 1.360774 2.977847
    10 4.972051 0.000000 -0.000002 0.279787 -1.120355 -0.543621
    11 11.139798 0.000000 0.000001 0.000000 0.000000 -2.058796
    12 0.000004 -0.000003 -3.713250 3.153785 -0.012607 2.203231
    13 -0.000004 0.000007 3.713250 -3.135009 0.026694 3.310537
    14 18.045700 0.000000 0.000000 0.000000 0.000000 -2.062824
    15 17.597601 0.000000 0.000000 0.013449 -0.011249 0.418299
    16 3.793090 6.407220 0.000000 0.000000 0.000000 1.570800
    17 10.314602 0.000000 -0.000001 -1.570000 0.000000 0.094327
    18 2.975830 -0.386307 -0.044143 -0.028637 -0.032909 0.698246
    19 1.438889 -0.000001 0.000000 0.000000 0.000000 1.046645
    20 1.646739 0.449550 -1.702251 0.142629 -0.222485 0.179225
    21 0.928312 0.000000 -0.000002 0.000000 0.000000 0.000000
    22 0.928312 -0.000002 0.000001 0.000000 0.000000 0.000000
    23 11.585398 0.000000 0.000001 0.000000 0.000000 -1.538314
    24 10.127097 0.000000 0.000000 1.718023 0.000000 -0.069778
    25 2.683750 -0.427338 0.044205 0.001045 0.043611 0.000046
    26 1.438891 0.000000 0.000001 0.000000 0.000000 1.421705
    27 1.533672 0.109716 1.664490 -0.233255 -0.412980 0.435684
    28 0.928313 0.000001 0.000000 0.000000 0.000000 0.000000
    29 0.928314 0.000000 0.000001 0.000000 0.000000 0.000000
    30 18.045698 0.000000 0.000000 0.000000 0.000000 -0.584342
    31 17.597605 0.000000 0.000000 -0.015744 0.022560 0.216700
    32 3.793091 6.407220 0.000000 0.000000 0.000000 1.570800
    33 2.046988 0.000000 0.000000 0.194234 0.003057 -0.562058
  time 9
    0 0.235347 -69.397247 38.565133 0.000000 0.000000 -1.570808
    1 -1.722709 0.070315 0.000000 0.000000 -1.570450 -1.570790
    2 1.293671 0.684478 -0.000001 -0.000004 -0.000001 0.127764
    3 5.309690 -0.003834 0.000000 -0.090999 0.015364 0.172520
    4 4.826789 -0.004591 0.000000 -0.040952 -0.004470 -0.023054
    5 5.792767 -0.005304 0.000000 -0.132633 0.002409 0.017289
    6 6.662318 -0.001453 0.000000 0.000000 -0.000001 0.471000
    7 -3.112020 1.517251 4.341910 1.035813 -1.486348 1.635532
    8 4.827230 0.000000 0.000000 -0.227762 1.152025 -0.169194
    9 -2.869900 1.399661 -4.140400 0.462762 1.348026 3.122639
    10 4.972051 0.000000 -0.000002 -0.165327 -1.119790 -0.181461
    11 11.139798 0.000000 0.000001 0.000000 0.000000 -2.089577
    12 0.000004 -0.000003 -3.713250 3.154948 -0.011360 2.105896
    13 -0.000004 0.000007 3.713250 -3.134194 0.026394 3.342944
    14 18.045700 0.000000 0.000000 0.000000 0.000000 -1.771936
    15 17.597601 0.000000 0.000000 0.011620 -0.013130 0.180181
    16 3.793090 6.407220 0.000000 0.000000 0.000000 1.570800
    17 10.314602 0.000000 -0.000001 -1.570000 0.000000 0.065444
    18 2.975830 -0.386307 -0.044143 -0.028637 -0.032909 0.698246
    19 1.438889 -0.000001 0.000000 0.000000 0.000000 1.046645
    20 1.646739 0.449550 -1.702251 0.142629 -0.222485 0.179225
    21 0.928312 0.000000 -0.000002 0.000000 0.000000 0.000000
    22 0.928312 -0.000002 0.000001 0.000000 0.000000 0.000000
    23 11.585398 0.000000 0.000001 0.000000 0.000000 -1.678176
    24 10.127097 0.000000 0.000000 1.718023 0.000000 -0.069778
    25 2.683750 -0.427338 0.044205 0.001045 0.043611 0.000046
    26 1.438891 0.000000 0.000001 0.000000 0.000000 1.421705
    27 1.533672 0.109716 1.664490 -0.233255 -0.412980 0.435684
    28 0.928313 0.000001 0.000000 0.000000 0.000000 0.000000
    29 0.928314 0.000000 0.000001 0.000000 0.000000 0.000000
    30 18.045698 0.000000 0.000000 0.000000 0.000000 -0.654707
    31 17.597605 0.000000 0.000000 -0.025148 0.010923 -0.233332
    32 3.793091 6.407220 0.000000 0.000000 0.000000 1.570800
    33 2.046988 0.000000 0.000000 0.264923 -0.008964 -0.489428
  time 10
    0 0.235347 -78.074721 39.354220 0.000000 0.000000 -1.570808
    1 -1.300821 0.058596 0.000000 0.000000 -1.570450 -1.570790
    2 1.293671 0.684478 -0.000001 -0.000004 -0.000001 0.096711
    3 5.309690 -0.003834 0.000000 -0.102253 0.017258 0.169550
    4 4.826789 -0.004591 0.000000 -0.072507 -0.006939 -0.062867
    5 5.792767 -0.005304 0.000000 -0.150095 0.002720 0.017241
    6 6.662318 -0.001453 0.000000 0.000000 -0.000001 0.471000
    7 -3.112020 1.517251 4.341910 1.271654 -1.471868 1.399502
    8 4.827230 0.000000 0.000000 -0.264731 1.138728 -0.183641
    9 -2.869900 1.399661 -4.140400 0.576086 1.333618 3.232979
    10 4.972051 0.000000 -0.000002 -0.536414 -1.039520 0.121588
    11 11.139798 0.000000 0.000001 0.000000 0.000000 -2.114568
    12 0.000004 -0.000003 -3.713250 3.154876 -0.011444 2.112253
    13 -0.000004 0.000007 3.713250 -3.128561 0.023099 3.561073
    14 18.045700 0.000000 0.000000 0.000000 0.000000 -1.405636
    15 17.597601 0.000000 0.000000 0.010996 -0.013657 -0.132937
    16 3.793090 6.407220 0.000000 0.000000 0.000000 1.570800
    17 10.314602 0.000000 -0.000001 -1.570000 0.000000 0.034177
    18 2.975830 -0.386307 -0.044143 -0.028637 -0.032909 0.698246
    19 1.438889 -0.000001 0.000000 0.000000 0.000000 1.046645
    20 1.646739 0.449550 -1.702251 0.142629 -0.222485 0.179225
    21 0.928312 0.000000 -0.000002 0.000000 0.000000 0.000000
    22 0.928312 -0.000002 0.000001 0.000000 0.000000 0.000000
    23 11.585398 0.000000 0.000001 0.000000 0.000000 -1.830547
    24 10.127097 0.000000 0.000000 1.718023 0.000000 -0.069778
    25 2.683750 -0.427338 0.044205 0.001045 0.043611 0.000046
    26 1.438891 0.000000 0.000001 0.000000 0.000000 1.421705
    27 1.533672 0.109716 1.664490 -0.233255 -0.412980 0.435684
    28 0.928313 0.000001 0.000000 0.000000 0.000000 0.000000
    29 0.928314 0.000000 0.000001 0.000000 0.000000 0.000000
    30 18.045698 0.000000 0.000000 0.000000 0.000000 -0.371768
    31 17.597605 0.000000 0.000000 -0.025256 0.008095 -0.375323
    32 3.793091 6.407220 0.000000 0.000000 0.000000 1.570800
    33 2.046988 0.000000 0.000000 0.324645 -0.027673 -0.418941
  time 11
    0 0.235347 -86.756101 39.955801 0.000000 0.000000 -1.570808
    1 -0.964873 0.046876 0.000000 0.000000 -1.570450 -1.570790
    2 1.293671 0.684478 -0.000001 -0.000004 -0.000001 0.072455
    3 5.309690 -0.003834 0.000000 -0.109671 0.018480 0.166630
    4 4.826789 -0.004591 0.000000 -0.094774 -0.009539 -0.092505
    5 5.792767 -0.005304 0.000000 -0.163793 0.002972 0.017205
    6 6.662318 -0.001453 0.000000 0.000000 -0.000001 0.471000
    7 -3.112020 1.517251 4.341910 1.420219 -1.456120 1.250554
    8 4.827230 0.000000 0.000000 -0.308966 1.123437 -0.217672
    9 -2.869900 1.399661 -4.140400 0.640233 1.323214 3.295269
    10 4.972051 0.000000 -0.000002 -0.734993 -0.942923 0.274484
    11 11.139798 0.000000 0.000001 0.000000 0.000000 -2.130933
    12 0.000004 -0.000003 -3.713250 3.153569 -0.012859 2.222210
    13 -0.000004 0.000007 3.713250 -3.128393 0.022883 3.566896
    14 18.045700 0.000000 0.000000 0.000000 0.000000 -1.072490
    15 17.597601 0.000000 0.000000 0.007384 -0.015947 -0.111896
    16 3.793090 6.407220 0.000000 0.000000 0.000000 1.570800
    17 10.314602 0.000000 -0.000001 -1.570000 0.000000 0.002765
    18 2.975830 -0.386307 -0.044143 -0.028637 -0.032909 0.698246
    19 1.438889 -0.000001 0.000000 0.000000 0.000000 1.046645
    20 1.646739 0.449550 -1.702251 0.142629 -0.222485 0.179225
    21 0.928312 0.000000 -0.000002 0.000000 0.000000 0.000000
    22 0.928312 -0.000002 0.000001 0.000000 0.000000 0.000000
    23 11.585398 0.000000 0.000001 0.000000 0.000000 -1.951698
    24 10.127097 0.000000 0.000000 1.718023 0.000000 -0.069778
    25 2.683750 -0.427338 0.044205 0.001045 0.043611 0.000046
    26 1.438891 0.000000 0.000001 0.000000 0.000000 1.421705
    27 1.533672 0.109716 1.664490 -0.233255 -0.412980 0.435684
    28 0.928313 0.000001 0.000000 0.000000 0.000000 0.000000
    29 0.928314 0.000000 0.000001 0.000000 0.000000 0.000000
    30 18.045698 0.000000 0.000000 0.000000 0.000000 -0.450228
    31 17.597605 0.000000 0.000000 -0.025990 0.004715 -0.417937
    32 3.793091 6.407220 0.000000 0.000000 0.000000 1.570800
    33 2.046988 0.000000 0.000000 0.366748 -0.046176 -0.365843
  time 12
    0 0.235347 -95.433575 40.201902 0.000000 0.000000 -1.570808
    1 -0.824244 0.042970 0.000000 0.000000 -1.570450 -1.570790
    2 1.293671 0.684478 -0.000001 -0.000004 -0.000001 0.061860
    3 5.309690 -0.003834 0.000000 -0.112356 0.018912 0.165308
    4 4.826789 -0.004591 0.000000 -0.103211 -0.010738 -0.104106
    5 5.792767 -0.005304 0.000000 -0.172650 0.003128 0.017181
    6 6.662318 -0.001453 0.000000 0.000000 -0.000001 0.471000
    7 -3.112020 1.517251 4.341910 1.509560 -1.442420 1.160733
    8 4.827230 0.000000 0.000000 -0.380656 1.097134 -0.292856
    9 -2.869900 1.399661 -4.140400 0.644657 1.322424 3.299552
    10 4.972051 0.000000 -0.000002 -0.794170 -0.902892 0.319274
    11 11.139798 0.000000 0.000001 0.000000 0.000000 -2.135955
    12 0.000004 -0.000003 -3.713250 3.151532 -0.014452 2.369848
    13 -0.000004 0.000007 3.713250 -3.129736 0.023626 3.509246
    14 18.045700 0.000000 0.000000 0.000000 0.000000 -0.766470
    15 17.597601 0.000000 0.000000 0.003239 -0.017241 -0.022124
    16 3.793090 6.407220 0.000000 0.000000 0.000000 1.570800
    17 10.314602 0.000000 -0.000001 -1.570000 0.000000 -0.026537
    18 2.975830 -0.386307 -0.044143 -0.028637 -0.032909 0.698246
    19 1.438889 -0.000001 0.000000 0.000000 0.000000 1.046645
    20 1.646739 0.449550 -1.702251 0.142629 -0.222485 0.179225
    21 0.928312 0.000000 -0.000002 0.000000 0.000000 0.000000
    22 0.928312 -0.000002 0.000001 0.000000 0.000000 0.000000
    23 11.585398 0.000000 0.000001 0.000000 0.000000 -1.997898
    24 10.127097 0.000000 0.000000 1.718023 0.000000 -0.069778
    25 2.683750 -0.427338 0.044205 0.001045 0.043611 0.000046
    26 1.438891 0.000000 0.000001 0.000000 0.000000 1.421705
    27 1.533672 0.109716 1.664490 -0.233255 -0.412980 0.435684
    28 0.928313 0.000001 0.000000 0.000000 0.000000 0.000000
    29 0.928314 0.000000 0.000001 0.000000 0.000000 0.000000
    30 18.045698 0.000000 0.000000 0.000000 0.000000 -0.658252
    31 17.597605 0.000000 0.000000 -0.026420 0.000161 -0.441460
    32 3.793091 6.407220 0.000000 0.000000 0.000000 1.570800
    33 2.046988 0.000000 0.000000 0.385857 -0.055278 -0.344356
  time 13
    0 0.235347 -104.107143 39.955801 0.000000 0.000000 -1.570808
    1 -0.933622 0.046876 0.000000 0.000000 -1.570450 -1.570790
    2 1.293671 0.684478 -0.000001 -0.000004 -0.000001 0.069135
    3 5.309690 -0.003834 0.000000 -0.109671 0.018480 0.166630
    4 4.826789 -0.004591 0.000000 -0.094774 -0.009539 -0.092505
    5 5.792767 -0.005304 0.000000 -0.177468 0.003212 0.017169
    6 6.662318 -0.001453 0.000000 0.000000 -0.000001 0.471000
    7 -3.112020 1.517251 4.341910 1.557977 -1.433011 1.111933
    8 4.827230 0.000000 0.000000 -0.478679 1.051189 -0.406682
    9 -2.869900 1.399661 -4.140400 0.590898 1.331382 3.247406
    10 4.972051 0.000000 -0.000002 -0.742195 -0.941466 0.288378
    11 11.139798 0.000000 0.000001 0.000000 0.000000 -2.126738
    12 0.000004 -0.000003 -3.713250 3.149663 -0.015279 2.485576
    13 -0.000004 0.000007 3.713250 -3.131917 0.024573 3.418458
    14 18.045700 0.000000 0.000000 0.000000 0.000000 -0.495451
    15 17.597601 0.000000 0.000000 0.000481 -0.017289 -0.017939
    16 3.793090 6.407220 0.000000 0.000000 0.000000 1.570800
    17 10.314602 0.000000 -0.000001 -1.570000 0.000000 -0.051465
    18 2.975830 -0.386307 -0.044143 -0.028637 -0.032909 0.698246
    19 1.438889 -0.000001 0.000000 0.000000 0.000000 1.046667
    20 1.646739 0.449550 -1.702251 0.142629 -0.222485 0.179225
    21 0.928312 0.000000 -0.000002 0.000000 0.000000 0.000000
    22 0.928312 -0.000002 0.000001 0.000000 0.000000 0.000000
    23 11.585398 0.000000 0.000001 0.000000 0.000000 -1.965471
    24 10.127097 0.000000 0.000000 1.718023 0.000000 -0.069778
    25 2.683750 -0.427338 0.044205 0.001045 0.043611 0.000046
    26 1.438891 0.000000 0.000001 0.000000 0.000000 1.421705
    27 1.533672 0.109716 1.664490 -0.233255 -0.412980 0.435684
    28 0.928313 0.000001 0.000000 0.000000 0.000000 0.000000
    29 0.928314 0.000000 0.000001 0.000000 0.000000 0.000000
    30 18.045698 0.000000 0.000000 0.000000 0.000000 -1.016283
    31 17.597605 0.000000 0.000000 -0.025202 -0.007869 -0.481804
    32 3.793091 6.407220 0.000000 0.000000 0.000000 1.570800
    33 2.046988 0.000000 0.000000 0.380171 -0.049095 -0.363390
  time 14
    0 0.235347 -112.784617 39.354220 0.000000 0.000000 -1.570808
    1 -1.234413 0.062502 0.000000 0.000000 -1.570450 -1.570790
    2 1.293671 0.684478 -0.000001 -0.000004 -0.000001 0.089605
    3 5.309690 -0.003834 0.000000 -0.102253 0.017258 0.169550
    4 4.826789 -0.004591 0.000000 -0.072507 -0.006939 -0.062867
    5 5.792767 -0.005304 0.000000 -0.179325 0.003248 0.017157
    6 6.662318 -0.001453 0.000000 0.000000 -0.000001 0.471000
    7 -3.112020 1.517251 4.341910 1.573828 -1.429549 1.095890
    8 4.827230 0.000000 0.000000 -0.570641 0.993551 -0.522026
    9 -2.869900 1.399661 -4.140400 0.491636 1.344786 3.150815
    10 4.972051 0.000000 -0.000002 -0.589338 -1.022539 0.184477
    11 11.139798 0.000000 0.000001 0.000000 0.000000 -2.100625
    12 0.000004 -0.000003 -3.713250 3.148069 -0.015771 2.580566
    13 -0.000004 0.000007 3.713250 -3.135512 0.025675 3.274837
    14 18.045700 0.000000 0.000000 0.000000 0.000000 -0.326356
    15 17.597601 0.000000 0.000000 -0.000677 -0.017037 -0.023527
    16 3.793090 6.407220 0.000000 0.000000 0.000000 1.570800
    17 10.314602 0.000000 -0.000001 -1.570000 0.000000 -0.069778
    18 2.975830 -0.386307 -0.044143 -0.028637 -0.032909 0.698246
    19 1.438889 -0.000001 0.000000 0.000000 0.000000 1.046645
    20 1.646739 0.449550 -1.702251 0.142629 -0.222485 0.179225
    21 0.928312 0.000000 -0.000002 0.000000 0.000000 0.000000
    22 0.928312 -0.000002 0.000001 0.000000 0.000000 0.000000
    23 11.585398 0.000000 0.000001 0.000000 0.000000 -1.889806
    24 10.127097 0.000000 0.000000 1.718023 0.000000 -0.069778
    25 2.683750 -0.427338 0.044205 0.001045 0.043611 0.000046
    26 1.438891 0.000000 0.000001 0.000000 0.000000 1.421705
    27 1.533672 0.109716 1.664490 -0.233255 -0.412980 0.435684
    28 0.928313 0.000001 0.000000 0.000000 0.000000 0.000000
    29 0.928314 0.000000 0.000001 0.000000 0.000000 0.000000
    30 18.045698 0.000000 0.000000 0.000000 0.000000 -1.412658
    31 17.597605 0.000000 0.000000 -0.022139 -0.014328 -0.500093
    32 3.793091 6.407220 0.000000 0.000000 0.000000 1.570800
    33 2.046988 0.000000 0.000000 0.353604 -0.032179 -0.413104
  time 15
    0 0.235347 -121.458184 38.565133 0.000000 0.000000 -1.570808
    1 -1.625050 0.070315 0.000000 0.000000 -1.570450 -1.570790
    2 1.293671 0.684478 -0.000001 -0.000004 -0.000001 0.116858
    3 5.309690 -0.003834 0.000000 -0.090999 0.015364 0.172520
    4 4.826789 -0.004591 0.000000 -0.040952 -0.004470 -0.023054
    5 5.792767 -0.005304 0.000000 -0.177408 0.003212 0.017169
    6 6.662318 -0.001453 0.000000 0.000000 -0.000001 0.471000
    7 -3.112020 1.517251 4.341910 1.538235 -1.437057 1.131866
    8 4.827230 0.000000 0.000000 -0.628202 0.954777 -0.602142
    9 -2.869900 1.399661 -4.140400 0.347305 1.358471 3.009894
    10 4.972051 0.000000 -0.000002 -0.308916 -1.105306 -0.027529
    11 11.139798 0.000000 0.000001 0.000000 0.000000 -2.033273
    12 0.000004 -0.000003 -3.713250 3.147314 -0.015975 2.627104
    13 -0.000004 0.000007 3.713250 -3.141289 0.026346 3.052897
    14 18.045700 0.000000 0.000000 0.000000 0.000000 -0.361787
    15 17.597601 0.000000 0.000000 0.000984 -0.016941 -0.040042
    16 3.793090 6.407220 0.000000 0.000000 0.000000 1.570800
    17 10.314602 0.000000 -0.000001 -1.570000 0.000000 -0.079677
    18 2.975830 -0.386307 -0.044143 -0.028637 -0.032909 0.698246
    19 1.438889 -0.000001 0.000000 0.000000 0.000000 1.046645
    20 1.646739 0.449550 -1.702251 0.142629 -0.222485 0.179225
    21 0.928312 0.000000 -0.000002 0.000000 0.000000 0.000000
    22 0.928312 -0.000002 0.000001 0.000000 0.000000 0.000000
    23 11.585398 0.000000 0.000001 0.000000 0.000000 -1.785719
    24 10.127097 0.000000 0.000000 1.718023 0.000000 -0.069778
    25 2.683750 -0.427338 0.044205 0.001045 0.043611 0.000046
    26 1.438891 0.000000 0.000001 0.000000 0.000000 1.421705
    27 1.533672 0.109716 1.664490 -0.233255 -0.412980 0.435684
    28 0.928313 0.000001 0.000000 0.000000 0.000000 0.000000
    29 0.928314 0.000000 0.000001 0.000000 0.000000 0.000000
    30 18.045698 0.000000 0.000000 0.000000 0.000000 -1.739554
    31 17.597605 0.000000 0.000000 -0.021171 -0.015670 -0.456919
    32 3.793091 6.407220 0.000000 0.000000 0.000000 1.570800
    33 2.046988 0.000000 0.000000 0.309605 -0.012251 -0.479430
  time 16
    0 0.235347 -130.131752 37.776047 0.000000 0.000000 -1.570808
    1 -2.011780 0.070315 0.000000 0.000000 -1.570450 -1.570790
    2 1.293671 0.684478 -0.000001 -0.000004 -0.000001 0.144482
    3 5.309690 -0.003834 0.000000 -0.076857 0.012932 0.173992
    4 4.826789 -0.004591 0.000000 -0.004794 -0.003284 0.019060
    5 5.792767 -0.005304 0.000000 -0.170972 0.003104 0.017181
    6 6.662318 -0.001453 0.000000 0.000000 -0.000001 0.471000
    7 -3.112020 1.517251 4.341910 1.419451 -1.456242 1.251322
    8 4.827230 0.000000 0.000000 -0.645382 0.958666 -0.639033
    9 -2.869900 1.399661 -4.140400 0.164541 1.368139 2.831027
    10 4.972051 0.000000 -0.000002 0.086902 -1.141887 -0.342949
    11 11.139798 0.000000 0.000001 0.000000 0.000000 -1.917593
    12 0.000004 -0.000003 -3.713250 3.146678 -0.016370 2.672284
    13 -0.000004 0.000007 3.713250 -3.147868 0.025579 2.800074
    14 18.045700 0.000000 0.000000 0.000000 0.000000 -0.502648
    15 17.597601 0.000000 0.000000 0.003270 -0.016821 0.009188
    16 3.793090 6.407220 0.000000 0.000000 0.000000 1.570800
    17 10.314602 0.000000 -0.000001 -1.570000 0.000000 -0.082446
    18 2.975830 -0.386307 -0.044143 -0.028637 -0.032909 0.698246
    19 1.438889 -0.000001 0.000000 0.000000 0.000000 1.046667
    20 1.646739 0.449550 -1.702251 0.142629 -0.222485 0.179225
    21 0.928312 0.000000 -0.000002 0.000000 0.000000 0.000000
    22 0.928312 -0.000002 0.000001 0.000000 0.000000 0.000000
    23 11.585398 0.000000 0.000001 0.000000 0.000000 -1.668299
    24 10.127097 0.000000 0.000000 1.718023 0.000000 -0.069778
    25 2.683750 -0.427338 0.044205 0.001045 0.043611 0.000046
    26 1.438891 0.000000 0.000001 0.000000 0.000000 1.421705
    27 1.533672 0.109716 1.664490 -0.233255 -0.412980 0.435684
    28 0.928313 0.000001 0.000000 0.000000 0.000000 0.000000
    29 0.928314 0.000000 0.000001 0.000000 0.000000 0.000000
    30 18.045698 0.000000 0.000000 0.000000 0.000000 -2.005477
    31 17.597605 0.000000 0.000000 -0.021960 -0.014508 -0.389795
    32 3.793091 6.407220 0.000000 0.000000 0.000000 1.570800
    33 2.046988 0.000000 0.000000 0.252619 0.003747 -0.547991
  time 17
    0 0.235347 -138.801413 37.166653 0.000000 0.000000 -1.570808
    1 -2.308664 0.058596 0.000000 0.000000 -1.570450 -1.570790
    2 1.293671 0.684478 -0.000001 -0.000004 -0.000001 0.166078
    3 5.309690 -0.003834 0.000000 -0.060738 0.010175 0.172395
    4 4.826789 -0.004591 0.000000 0.031076 -0.003643 0.055505
    5 5.792767 -0.005304 0.000000 -0.159203 0.002888 0.017217
    6 6.662318 -0.001453 0.000000 0.000000 -0.000001 0.471000
    7 -3.112020 1.517251 4.341910 1.163868 -1.479693 1.507478
    8 4.827230 0.000000 0.000000 -0.613350 1.006775 -0.628993
    9 -2.869900 1.399661 -4.140400 -0.037261 1.370669 2.633300
    10 4.972051 0.000000 -0.000002 0.464353 -1.113842 -0.633323
    11 11.139798 0.000000 0.000001 0.000000 0.000000 -1.776272
    12 0.000004 -0.000003 -3.713250 3.144881 -0.017880 2.799184
    13 -0.000004 0.000007 3.713250 -3.153801 0.023302 2.558013
    14 18.045700 0.000000 0.000000 0.000000 0.000000 -0.761119
    15 17.597601 0.000000 0.000000 0.003331 -0.017876 0.394521
    16 3.793090 6.407220 0.000000 0.000000 0.000000 1.570800
    17 10.314602 0.000000 -0.000001 -1.570000 0.000000 -0.080468
    18 2.975830 -0.386307 -0.044143 -0.028637 -0.032909 0.698246
    19 1.438889 -0.000001 0.000000 0.000000 0.000000 1.046645
    20 1.646739 0.449550 -1.702251 0.142629 -0.222485 0.179225
    21 0.928312 0.000000 -0.000002 0.000000 0.000000 0.000000
    22 0.928312 -0.000002 0.000001 0.000000 0.000000 0.000000
    23 11.585398 0.000000 0.000001 0.000000 0.000000 -1.552361
    24 10.127097 0.000000 0.000000 1.718023 0.000000 -0.069778
    25 2.683750 -0.427338 0.044205 0.001045 0.043611 0.000046
    26 1.438891 0.000000 0.000001 0.000000 0.000000 1.421705
    27 1.533672 0.109716 1.664490 -0.233255 -0.412980 0.435684
    28 0.928313 0.000001 0.000000 0.000000 0.000000 0.000000
    29 0.928314 0.000000 0.000001 0.000000 0.000000 0.000000
    30 18.045698 0.000000 0.000000 0.000000 0.000000 -2.057410
    31 17.597605 0.000000 0.000000 -0.024951 -0.008312 -0.317704
    32 3.793091 6.407220 0.000000 0.000000 0.000000 1.570800
    33 2.046988 0.000000 0.000000 0.188112 0.011677 -0.603263
  time 18
    0 0.235347 -147.471074 36.924458 0.000000 0.000000 -1.570808
    1 -2.421949 0.039064 0.000000 0.000000 -1.570450 -1.570790
    2 1.293671 0.684478 -0.000001 -0.000004 -0.000001 0.175235
    3 5.309690 -0.003834 0.000000 -0.043528 0.007335 0.166206
    4 4.826789 -0.004591 0.000000 0.061744 -0.004901 0.078348
    5 5.792767 -0.005304 0.000000 -0.141358 0.002565 0.017265
    6 6.662318 -0.001453 0.000000 0.000000 -0.000001 0.471000
    7 -3.112020 1.517251 4.341910 0.693580 -1.494856 1.977618
    8 4.827230 0.000000 0.000000 -0.490199 1.091445 -0.532649
    9 -2.869900 1.399661 -4.140400 -0.229031 1.365581 2.445379
    10 4.972051 0.000000 -0.000002 0.708990 -1.058287 -0.788717
    11 11.139798 0.000000 0.000001 0.000000 0.000000 -1.632115
    12 0.000004 -0.000003 -3.713250 3.141765 -0.018767 2.990861
    13 -0.000004 0.000007 3.713250 -3.158199 0.020366 2.356316
    14 18.045700 0.000000 0.000000 0.000000 0.000000 -0.804484
    15 17.597601 0.000000 0.000000 0.006394 -0.017648 0.447303
    16 3.793090 6.407220 0.000000 0.000000 0.000000 1.570800
    17 10.314602 0.000000 -0.000001 -1.570000 0.000000 -0.076106
    18 2.975830 -0.386307 -0.044143 -0.028637 -0.032909 0.698246
    19 1.438889 -0.000001 0.000000 0.000000 0.000000 1.046667
    20 1.646739 0.449550 -1.702251 0.142629 -0.222485 0.179225
    21 0.928312 0.000000 -0.000002 0.000000 0.000000 0.000000
    22 0.928312 -0.000002 0.000001 0.000000 0.000000 0.000000
    23 11.585398 0.000000 0.000001 0.000000 0.000000 -1.452883
    24 10.127097 0.000000 0.000000 1.718023 0.000000 -0.069778
    25 2.683750 -0.427338 0.044205 0.001045 0.043611 0.000046
    26 1.438891 0.000000 0.000001 0.000000 0.000000 1.421705
    27 1.533672 0.109716 1.664490 -0.233255 -0.412980 0.435684
    28 0.928313 0.000001 0.000000 0.000000 0.000000 0.000000
    29 0.928314 0.000000 0.000001 0.000000 0.000000 0.000000
    30 18.045698 0.000000 0.000000 0.000000 0.000000 -2.007013
    31 17.597605 0.000000 0.000000 -0.026259 0.000677 -0.222705
    32 3.793091 6.407220 0.000000 0.000000 0.000000 1.570800
    33 2.046988 0.000000 0.000000 0.122084 0.011309 -0.628943
  time 19
    0 0.235347 -156.132922 37.092432 0.000000 0.000000 -1.570808
    1 -2.293039 0.011719 0.000000 0.000000 -1.570450 -1.570790
    2 1.293671 0.684478 -0.000001 -0.000004 -0.000001 0.166486
    3 5.309690 -0.003834 0.000000 -0.023286 0.004291 0.153092
    4 4.826789 -0.004591 0.000000 0.087847 -0.006292 0.084663
    5 5.792767 -0.005304 0.000000 -0.112967 0.002049 0.017337
    6 6.662318 -0.001453 0.000000 0.000000 -0.000001 0.471000
    7 -3.112020 1.517251 4.341910 0.140098 -1.488055 2.530133
    8 4.827230 0.000000 0.000000 -0.183487 1.178814 -0.268515
    9 -2.869900 1.399661 -4.140400 -0.386200 1.355364 2.291722
    10 4.972051 0.000000 -0.000002 0.831532 -1.022866 -0.811630
    11 11.139798 0.000000 0.000001 0.000000 0.000000 -1.507928
    12 0.000004 -0.000003 -3.713250 3.138241 -0.018611 3.194511
    13 -0.000004 0.000007 3.713250 -3.160188 0.018544 2.253730
    14 18.045700 0.000000 0.000000 0.000000 0.000000 -0.764317
    15 17.597601 0.000000 0.000000 0.009716 -0.016234 0.402756
    16 3.793090 6.407220 0.000000 0.000000 0.000000 1.570800
    17 10.314602 0.000000 -0.000001 -1.570000 0.000000 -0.071755
    18 2.975830 -0.386307 -0.044143 -0.028637 -0.032909 0.698246
    19 1.438889 -0.000001 0.000000 0.000000 0.000000 1.046645
    20 1.646739 0.449550 -1.702251 0.142629 -0.222485 0.179225
    21 0.928312 0.000000 -0.000002 0.000000 0.000000 0.000000
    22 0.928312 -0.000002 0.000001 0.000000 0.000000 0.000000
    23 11.585398 0.000000 0.000001 0.000000 0.000000 -1.384845
    24 10.127097 0.000000 0.000000 1.718023 0.000000 -0.069778
    25 2.683750 -0.427338 0.044205 0.001045 0.043611 0.000046
    26 1.438891 0.000000 0.000001 0.000000 0.000000 1.421705
    27 1.533672 0.109716 1.664490 -0.233255 -0.412980 0.435684
    28 0.928313 0.000001 0.000000 0.000000 0.000000 0.000000
    29 0.928314 0.000000 0.000001 0.000000 0.000000 0.000000
    30 18.045698 0.000000 0.000000 0.000000 0.000000 -1.911125
    31 17.597605 0.000000 0.000000 -0.024432 0.009581 -0.073157
    32 3.793091 6.407220 0.000000 0.000000 0.000000 1.570800
    33 2.046988 0.000000 0.000000 0.047603 0.005954 -0.613572
  time 20
    0 0.235347 -164.790864 37.529945 0.000000 0.000000 -1.570808
    1 -1.968810 -0.015625 0.000000 0.000000 -1.570450 -1.570790
    2 1.293671 0.684478 -0.000001 -0.000004 -0.000001 0.143847
    3 5.309690 -0.003834 0.000000 0.001222 0.001079 0.133628
    4 4.826789 -0.004591 0.000000 0.113314 -0.007502 0.079798
    5 5.792767 -0.005304 0.000000 -0.073513 0.001330 0.017396
    6 6.662318 -0.001453 0.000000 0.000000 -0.000001 0.471000
    7 -3.112020 1.517251 4.341910 -0.223366 -1.463897 2.891911
    8 4.827230 0.000000 0.000000 0.308755 1.193522 0.159092
    9 -2.869900 1.399661 -4.140400 -0.510386 1.342536 2.170524
    10 4.972051 0.000000 -0.000002 0.881833 -1.023371 -0.742221
    11 11.139798 0.000000 0.000001 0.000000 0.000000 -1.426455
    12 0.000004 -0.000003 -3.713250 3.134442 -0.016142 3.393471
    13 -0.000004 0.000007 3.713250 -3.161063 0.017586 2.204403
    14 18.045700 0.000000 0.000000 0.000000 0.000000 -0.521347
    15 17.597601 0.000000 0.000000 0.011834 -0.013094 0.204185
    16 3.793090 6.407220 0.000000 0.000000 0.000000 1.570800
    17 10.314602 0.000000 -0.000001 -1.570000 0.000000 -0.069778
    18 2.975830 -0.386307 -0.044143 -0.028637 -0.032909 0.698246
    19 1.438889 -0.000001 0.000000 0.000000 0.000000 1.046645
    20 1.646739 0.449550 -1.702251 0.142629 -0.222485 0.179225
    21 0.928312 0.000000 -0.000002 0.000000 0.000000 0.000000
    22 0.928312 -0.000002 0.000001 0.000000 0.000000 0.000000
    23 11.585398 0.000000 0.000001 0.000000 0.000000 -1.368000
    24 10.127097 0.000000 0.000000 1.718023 0.000000 -0.069778
    25 2.683750 -0.427338 0.044205 0.001045 0.043611 0.000046
    26 1.438891 0.000000 0.000001 0.000000 0.000000 1.462572
    27 1.533672 0.109716 1.664490 -0.233255 -0.412980 0.435684
    28 0.928313 0.000001 0.000000 0.000000 0.000000 0.000000
    29 0.928314 0.000000 0.000001 0.000000 0.000000 0.000000
    30 18.045698 0.000000 0.000000 0.000000 0.000000 -1.780910
    31 17.597605 0.000000 0.000000 -0.020097 0.016856 0.070970
    32 3.793091 6.407220 0.000000 0.000000 0.000000 1.570800
    33 2.046988 0.000000 0.000000 -0.041450 0.003241 -0.566809
  time 21
    0 0.235347 -173.444900 38.154965 0.000000 0.000000 -1.570808
    1 -1.543016 -0.042970 0.000000 0.000000 -1.570450 -1.570790
    2 1.293671 0.684478 -0.000001 -0.000004 -0.000001 0.115120
    3 5.309690 -0.003834 0.000000 0.027936 -0.001762 0.110669
    4 4.826789 -0.004591 0.000000 0.138098 -0.008233 0.068244
    5 5.792767 -0.005304 0.000000 -0.028116 0.000503 0.017444
    6 6.662318 -0.001453 0.000000 0.000000 -0.000001 0.471000
    7 -3.112020 1.517251 4.341910 -0.460888 -1.425746 3.126501
    8 4.827230 0.000000 0.000000 0.809105 1.071828 0.581007
    9 -2.869900 1.399661 -4.140400 -0.614902 1.327552 2.068899
    10 4.972051 0.000000 -0.000002 0.895231 -1.049989 -0.622476
    11 11.139798 0.000000 0.000001 0.000000 0.000000 -1.442230
    12 0.000004 -0.000003 -3.713250 3.132393 -0.014920 3.523148
    13 -0.000004 0.000007 3.713250 -3.160464 0.018197 2.237450
    14 18.045700 0.000000 0.000000 0.000000 0.000000 -0.445135
    15 17.597601 0.000000 0.000000 0.014851 -0.009295 -0.014613
    16 3.793090 6.407220 0.000000 0.000000 0.000000 1.570800
    17 10.314602 0.000000 -0.000001 -1.570000 0.000000 -0.069778
    18 2.975830 -0.386307 -0.044143 -0.028637 -0.032909 0.698246
    19 1.438889 -0.000001 0.000000 0.000000 0.000000 1.046645
    20 1.646739 0.449550 -1.702251 0.142629 -0.222485 0.179225
    21 0.928312 0.000000 -0.000002 0.000000 0.000000 0.000000
    22 0.928312 -0.000002 0.000001 0.000000 0.000000 0.000000
    23 11.585398 0.000000 0.000001 0.000000 0.000000 -1.394941
    24 10.127097 0.000000 0.000000 1.718023 0.000000 -0.069778
    25 2.683750 -0.427338 0.044205 0.001045 0.043611 0.000046
    26 1.438891 0.000000 0.000001 0.000000 0.000000 1.530720
    27 1.533672 0.109716 1.664490 -0.233255 -0.412980 0.435684
    28 0.928313 0.000001 0.000000 0.000000 0.000000 0.000000
    29 0.928314 0.000000 0.000001 0.000000 0.000000 0.000000
    30 18.045698 0.000000 0.000000 0.000000 0.000000 -1.597818
    31 17.597605 0.000000 0.000000 -0.014991 0.021494 0.184473
    32 3.793091 6.407220 0.000000 0.000000 0.000000 1.570800
    33 2.046988 0.000000 0.000000 -0.137899 0.009746 -0.504612
  time 22
    0 0.235347 -182.095029 38.869830 0.000000 0.000000 -1.570808
    1 -1.121128 -0.062502 0.000000 0.000000 -1.570450 -1.570790
    2 1.293671 0.684478 -0.000001 -0.000004 -0.000001 0.088107
    3 5.309690 -0.003834 0.000000 0.054794 -0.003919 0.087100
    4 4.826789 -0.004591 0.000000 0.162211 -0.008413 0.054486
    5 5.792767 -0.005304 0.000000 0.018109 -0.000324 0.017444
    6 6.662318 -0.001453 0.000000 0.000000 -0.000001 0.471000
    7 -3.112020 1.517251 4.341910 -0.614736 -1.374969 3.275497
    8 4.827230 0.000000 0.000000 1.082702 0.840692 0.778889
    9 -2.869900 1.399661 -4.140400 -0.702748 1.311149 1.983842
    10 4.972051 0.000000 -0.000002 0.896404 -1.084934 -0.488959
    11 11.139798 0.000000 0.000001 0.000000 0.000000 -1.537822
    12 0.000004 -0.000003 -3.713250 3.131086 -0.014105 3.614681
    13 -0.000004 0.000007 3.713250 -3.159062 0.019515 2.310861
    14 18.045700 0.000000 0.000000 0.000000 0.000000 -0.443351
    15 17.597601 0.000000 0.000000 0.016908 -0.004813 -0.209813
    16 3.793090 6.407220 0.000000 0.000000 0.000000 1.570800
    17 10.314602 0.000000 -0.000001 -1.570000 0.000000 -0.069778
    18 2.975830 -0.386307 -0.044143 -0.028637 -0.032909 0.698246
    19 1.438889 -0.000001 0.000000 0.000000 0.000000 1.046645
    20 1.646739 0.449550 -1.702251 0.142629 -0.222485 0.179225
    21 0.928312 0.000000 -0.000002 0.000000 0.000000 0.000000
    22 0.928312 -0.000002 0.000001 0.000000 0.000000 0.000000
    23 11.585398 0.000000 0.000001 0.000000 0.000000 -1.439824
    24 10.127097 0.000000 0.000000 1.718023 0.000000 -0.069778
    25 2.683750 -0.427338 0.044205 0.001045 0.043611 0.000046
    26 1.438891 0.000000 0.000001 0.000000 0.000000 1.544342
    27 1.533672 0.109716 1.664490 -0.233255 -0.412980 0.435684
    28 0.928313 0.000001 0.000000 0.000000 0.000000 0.000000
    29 0.928314 0.000000 0.000001 0.000000 0.000000 0.000000
    30 18.045698 0.000000 0.000000 0.000000 0.000000 -1.363444
    31 17.597605 0.000000 0.000000 -0.009725 0.024322 0.252051
    32 3.793091 6.407220 0.000000 0.000000 0.000000 1.570800
    33 2.046988 0.000000 0.000000 -0.233851 0.026502 -0.443379
  time 23
    0 0.235347 -190.264675 39.576883 0.000000 0.000000 -1.570808
    1 -0.800806 -0.070315 0.000000 0.000000 -1.570450 -1.570790
    2 1.293671 0.684478 -0.000001 -0.000004 -0.000001 0.070585
    3 5.309690 -0.003834 0.000000 0.079709 -0.005321 0.065838
    4 4.826789 -0.004591 0.000000 0.185653 -0.008233 0.043017
    5 5.792767 -0.005304 0.000000 0.060055 -0.001091 0.017420
    6 6.662318 -0.001453 0.000000 0.000000 -0.000001 0.471000
    7 -3.112020 1.517251 4.341910 -0.699178 -1.326604 3.354174
    8 4.827230 0.000000 0.000000 1.181006 0.645096 0.811052
    9 -2.869900 1.399661 -4.140400 -0.776968 1.293809 1.912236
    10 4.972051 0.000000 -0.000002 0.914827 -1.109589 -0.382377
    11 11.139798 0.000000 0.000001 0.000000 0.000000 -1.628334
    12 0.000004 -0.000003 -3.713250 3.131518 -0.014381 3.584715
    13 -0.000004 0.000007 3.713250 -3.156989 0.021169 2.412411
    14 18.045700 0.000000 0.000000 0.000000 0.000000 -0.646892
    15 17.597601 0.000000 0.000000 0.017533 -0.000810 -0.266758
    16 3.793090 6.407220 0.000000 0.000000 0.000000 1.570800
    17 10.314602 0.000000 -0.000001 -1.570000 0.000000 -0.069778
    18 2.975830 -0.386307 -0.044143 -0.028637 -0.032909 0.698246
    19 1.438889 -0.000001 0.000000 0.000000 0.000000 1.046645
    20 1.646739 0.449550 -1.702251 0.142629 -0.222485 0.179225
    21 0.928312 0.000000 -0.000002 0.000000 0.000000 0.000000
    22 0.928312 -0.000002 0.000001 0.000000 0.000000 0.000000
    23 11.585398 0.000000 0.000001 0.000000 0.000000 -1.476696
    24 10.127097 0.000000 0.000000 1.718023 0.000000 -0.069778
    25 2.683750 -0.427338 0.044205 0.001045 0.043611 0.000046
    26 1.438891 0.000000 0.000001 0.000000 0.000000 1.421705
    27 1.533672 0.109716 1.664490 -0.233255 -0.412980 0.435684
    28 0.928313 0.000001 0.000000 0.000000 0.000000 0.000000
    29 0.928314 0.000000 0.000001 0.000000 0.000000 0.000000
    30 18.045698 0.000000 0.000000 0.000000 0.000000 -0.989992
    31 17.597605 0.000000 0.000000 -0.005443 0.025604 0.151338
    32 3.793091 6.407220 0.000000 0.000000 0.000000 1.570800
    33 2.046988 0.000000 0.000000 -0.322096 0.048085 -0.398571
  time 24
    0 0.235347 -190.266103 40.201902 0.000000 0.000000 -1.570808
    1 -1.074252 -0.058596 0.000000 0.000000 -1.570450 -1.570790
    2 1.293671 0.684478 -0.000001 -0.000004 -0.000001 0.114185
    3 5.309690 -0.003834 0.000000 0.095805 -0.005081 0.052088
    4 4.826789 -0.004591 0.000000 0.200538 -0.005369 0.025615
    5 5.792767 -0.005304 0.000000 0.087200 -0.001582 0.017384
    6 6.662318 -0.001453 0.000000 0.000000 -0.000001 0.471000
    7 -3.112020 1.517251 4.341910 -0.725596 -1.306201 3.377854
    8 4.827230 0.000000 0.000000 1.123926 0.822702 0.657358
    9 -2.869900 1.399661 -4.140400 -0.818877 1.282293 1.871999
    10 4.972051 0.000000 -0.000002 0.974562 -1.089663 -0.361779
    11 11.139798 0.000000 0.000001 0.000000 0.000000 -1.665319
    12 0.000004 -0.000003 -3.713250 3.130859 -0.013865 3.631778
    13 -0.000004 0.000007 3.713250 -3.158750 0.019767 2.326226
    14 18.045700 0.000000 0.000000 0.000000 0.000000 -0.389159
    15 17.597601 0.000000 0.000000 0.017411 0.002018 -0.638291
    16 3.793090 6.407220 0.000000 0.000000 0.000000 1.570800
    17 10.314602 0.000000 -0.000001 -1.570000 0.000000 -0.069778
    18 2.975830 -0.386307 -0.044143 -0.028637 -0.032909 0.698246
    19 1.438889 -0.000001 0.000000 0.000000 0.000000 1.046645
    20 1.646739 0.449550 -1.702251 0.142629 -0.222485 0.179225
    21 0.928312 0.000000 -0.000002 0.000000 0.000000 0.000000
    22 0.928312 -0.000002 0.000001 0.000000 0.000000 0.000000
    23 11.585398 0.000000 0.000001 0.000000 0.000000 -1.506051
    24 10.127097 0.000000 0.000000 1.718023 0.000000 -0.069778
    25 2.683750 -0.427338 0.044205 0.001045 0.043611 0.000046
    26 1.438891 0.000000 0.000001 0.000000 0.000000 1.421705
    27 1.533672 0.109716 1.664490 -0.233255 -0.412980 0.435684
    28 0.928313 0.000001 0.000000 0.000000 0.000000 0.000000
    29 0.928314 0.000000 0.000001 0.000000 0.000000 0.000000
    30 18.045698 0.000000 0.000000 0.000000 0.000000 -1.011143
    31 17.597605 0.000000 0.000000 -0.002613 0.026036 0.195900
    32 3.793091 6.407220 0.000000 0.000000 0.000000 1.570800
    33 2.046988 0.000000 0.000000 -0.381103 0.044798 -0.411737
end
