// Created by Crowbar 0.74
version 1
nodes
  0 "Bip01" -1
  1 "Bip01 Pelvis" 0
  2 "Bip01 Spine" 1
  3 "Bip01 Spine1" 2
  4 "Bip01 Spine2" 3
  5 "Bip01 Spine3" 4
  6 "Bip01 Neck" 5
  7 "Bip01 L Clavicle" 6
  8 "Bip01 L UpperArm" 7
  9 "Bip01 R Clavicle" 6
  10 "Bip01 R UpperArm" 9
  11 "Bip01 L Forearm" 8
  12 "Bip01 R Thigh" 1
  13 "Bip01 L Thigh" 1
  14 "Bip01 R Calf" 12
  15 "Bip01 R Foot" 14
  16 "Bip01 R Toe0" 15
  17 "Bip01 L Hand" 11
  18 "Bip01 L Finger1" 17
  19 "Bip01 L Finger11" 18
  20 "Bip01 L Finger0" 17
  21 "Bip01 L Finger01" 20
  22 "Bip01 L Finger02" 21
  23 "Bip01 R Forearm" 10
  24 "Bip01 R Hand" 23
  25 "Bip01 R Finger1" 24
  26 "Bip01 R Finger11" 25
  27 "Bip01 R Finger0" 24
  28 "Bip01 R Finger01" 27
  29 "Bip01 R Finger02" 28
  30 "Bip01 L Calf" 13
  31 "Bip01 L Foot" 30
  32 "Bip01 L Toe0" 31
  33 "Bip01 Head" 6
end
skeleton
  time 0
    0 0.235347 0.719305 38.057305 0.000000 0.000000 -1.570808
    1 0.429701 0.089846 0.000000 0.000000 -1.570450 -1.570790
    2 1.293671 0.684478 -0.000001 -0.522814 -0.030154 -0.052269
    3 5.309690 -0.003834 0.000000 -0.173573 0.018289 0.103158
    4 4.826789 -0.004591 0.000000 -0.104746 -0.000815 -0.008637
    5 5.792767 -0.005304 0.000000 -0.096008 0.001738 0.017361
    6 6.662318 -0.001453 0.000000 0.000000 -0.000001 0.471000
    7 -3.112020 1.517251 4.341910 0.414797 -1.352834 2.263794
    8 4.827230 0.000000 0.000000 -0.876510 1.073481 -0.773581
    9 -2.869900 1.399661 -4.140400 -1.294292 0.932026 1.438714
    10 4.972051 0.000000 -0.000002 0.475016 -1.195301 -0.906451
    11 11.139798 0.000000 0.000001 0.000000 0.000000 -1.180384
    12 0.000004 -0.000003 -3.713250 3.486046 0.159660 3.099552
    13 -0.000004 0.000007 3.713250 -3.148408 -0.061788 2.767515
    14 18.045700 0.000000 0.000000 0.000000 0.000000 -0.404414
    15 17.597601 0.000000 0.000000 0.082099 0.135730 0.310201
    16 3.793090 6.407220 0.000000 0.000000 0.000000 1.570800
    17 10.314602 0.000000 -0.000001 -3.291919 0.065376 -0.184458
    18 2.975830 -0.386307 -0.044143 -0.000797 -0.043611 0.000035
    19 1.438889 -0.000001 0.000000 0.000000 0.000000 0.462269
    20 1.646739 0.449550 -1.702251 0.273668 1.032178 0.447356
    21 0.928312 0.000000 -0.000002 0.000000 0.000000 0.000000
    22 0.928312 -0.000002 0.000001 0.000000 0.000000 0.000000
    23 11.585398 0.000000 0.000001 0.000000 0.000000 -1.342870
    24 10.127097 0.000000 0.000000 1.691418 0.171260 0.199672
    25 2.683750 -0.427338 0.044205 -0.005786 0.043240 -0.157096
    26 1.438891 0.000000 0.000001 0.000000 0.000000 0.732635
    27 1.533672 0.109716 1.664490 -0.264762 -0.055959 0.783117
    28 0.928313 0.000001 0.000000 0.000000 0.000000 -0.453542
    29 0.928314 0.000000 0.000001 0.000000 0.000000 0.000000
    30 18.045698 0.000000 0.000000 0.000000 0.000000 -0.458381
    31 17.597605 0.000000 0.000000 -0.232822 -0.055004 0.083306
    32 3.793091 6.407220 0.000000 0.000000 0.000000 1.570800
    33 2.046988 0.000000 0.000000 0.878696 -0.219552 -0.349603
  time 1
    0 0.235347 0.719305 38.057305 0.000000 0.000000 -1.570808
    1 0.429701 0.089846 0.000000 0.000000 -1.570450 -1.570790
    2 1.293671 0.684478 -0.000001 -0.522814 -0.030154 -0.052269
    3 5.309690 -0.003834 0.000000 -0.173573 0.018289 0.103158
    4 4.826789 -0.004591 0.000000 -0.104746 -0.000815 -0.008637
    5 5.792767 -0.005304 0.000000 -0.096008 0.001738 0.017361
    6 6.662318 -0.001453 0.000000 0.000000 -0.000001 0.471000
    7 -3.112020 1.517251 4.341910 0.414797 -1.352834 2.263794
    8 4.827230 0.000000 0.000000 -0.876510 1.073481 -0.773581
    9 -2.869900 1.399661 -4.140400 -1.294292 0.932026 1.438714
    10 4.972051 0.000000 -0.000002 0.475016 -1.195301 -0.906451
    11 11.139798 0.000000 0.000001 0.000000 0.000000 -1.180384
    12 0.000004 -0.000003 -3.713250 3.486046 0.159660 3.099552
    13 -0.000004 0.000007 3.713250 -3.148408 -0.061788 2.767515
    14 18.045700 0.000000 0.000000 0.000000 0.000000 -0.404414
    15 17.597601 0.000000 0.000000 0.082099 0.135730 0.310201
    16 3.793090 6.407220 0.000000 0.000000 0.000000 1.570800
    17 10.314602 0.000000 -0.000001 -3.291919 0.065376 -0.184458
    18 2.975830 -0.386307 -0.044143 -0.000797 -0.043611 0.000035
    19 1.438889 -0.000001 0.000000 0.000000 0.000000 0.462269
    20 1.646739 0.449550 -1.702251 0.273668 1.032178 0.447356
    21 0.928312 0.000000 -0.000002 0.000000 0.000000 0.000000
    22 0.928312 -0.000002 0.000001 0.000000 0.000000 0.000000
    23 11.585398 0.000000 0.000001 0.000000 0.000000 -1.342870
    24 10.127097 0.000000 0.000000 1.691418 0.171260 0.199672
    25 2.683750 -0.427338 0.044205 -0.005786 0.043240 -0.157096
    26 1.438891 0.000000 0.000001 0.000000 0.000000 0.732635
    27 1.533672 0.109716 1.664490 -0.264762 -0.055959 0.783117
    28 0.928313 0.000001 0.000000 0.000000 0.000000 -0.453542
    29 0.928314 0.000000 0.000001 0.000000 0.000000 0.000000
    30 18.045698 0.000000 0.000000 0.000000 0.000000 -0.458381
    31 17.597605 0.000000 0.000000 -0.232822 -0.055004 0.083306
    32 3.793091 6.407220 0.000000 0.000000 0.000000 1.570800
    33 2.046988 0.000000 0.000000 0.878696 -0.219552 -0.349603
  time 2
    0 0.235347 0.719305 38.057305 0.000000 0.000000 -1.570808
    1 0.714866 -0.066408 0.000000 0.000000 -1.570450 -1.570790
    2 1.293671 0.684478 -0.000001 -0.521633 -0.047556 -0.082530
    3 5.309690 -0.003834 0.000000 -0.173573 0.018289 0.103158
    4 4.826789 -0.004591 0.000000 -0.104746 -0.000815 -0.008637
    5 5.792767 -0.005304 0.000000 -0.235545 0.004254 0.016941
    6 6.662318 -0.001453 0.000000 0.000000 -0.000001 0.471000
    7 -3.112020 1.517251 4.341910 0.414797 -1.352834 2.263794
    8 4.827230 0.000000 0.000000 -0.765362 1.146166 -0.492139
    9 -2.869900 1.399661 -4.140400 -1.294292 0.932026 1.438751
    10 4.972051 0.000000 -0.000002 -0.716402 -1.200476 0.184965
    11 11.139798 0.000000 0.000001 0.000000 0.000000 -1.279817
    12 0.000004 -0.000003 -3.713250 3.486046 0.159660 3.099552
    13 -0.000004 0.000007 3.713250 -3.148408 -0.061788 2.767515
    14 18.045700 0.000000 0.000000 0.000000 0.000000 -0.404414
    15 17.597601 0.000000 0.000000 0.082099 0.135730 0.310201
    16 3.793090 6.407220 0.000000 0.000000 0.000000 1.570800
    17 10.314602 0.000000 -0.000001 -3.304837 0.076869 -0.175098
    18 2.975830 -0.386307 -0.044143 -0.000797 -0.043611 0.000035
    19 1.438889 -0.000001 0.000000 0.000000 0.000000 0.462269
    20 1.646739 0.449550 -1.702251 0.273668 1.032178 0.447356
    21 0.928312 0.000000 -0.000002 0.000000 0.000000 0.000000
    22 0.928312 -0.000002 0.000001 0.000000 0.000000 0.000000
    23 11.585398 0.000000 0.000001 0.000000 0.000000 -1.731728
    24 10.127097 0.000000 0.000000 1.691418 0.171260 0.199672
    25 2.683750 -0.427338 0.044205 -0.005786 0.043240 -0.157096
    26 1.438891 0.000000 0.000001 0.000000 0.000000 0.732635
    27 1.533672 0.109716 1.664490 -0.264762 -0.055959 0.783117
    28 0.928313 0.000001 0.000000 0.000000 0.000000 -0.453542
    29 0.928314 0.000000 0.000001 0.000000 0.000000 0.000000
    30 18.045698 0.000000 0.000000 0.000000 0.000000 -0.458381
    31 17.597605 0.000000 0.000000 -0.232822 -0.055004 0.083306
    32 3.793091 6.407220 0.000000 0.000000 0.000000 1.570800
    33 2.046988 0.000000 0.000000 1.018118 -0.253731 -0.350783
  time 3
    0 0.235347 0.719305 38.057305 0.000000 0.000000 -1.570808
    1 0.703146 -0.058596 0.000000 0.000000 -1.570450 -1.570790
    2 1.293671 0.684478 -0.000001 -0.521697 -0.046669 -0.080996
    3 5.309690 -0.003834 0.000000 -0.173573 0.018289 0.103158
    4 4.826789 -0.004591 0.000000 -0.104746 -0.000815 -0.008637
    5 5.792767 -0.005304 0.000000 -0.228438 0.004123 0.016977
    6 6.662318 -0.001453 0.000000 0.000000 -0.000001 0.471000
    7 -3.112020 1.517251 4.341910 0.414797 -1.352834 2.263794
    8 4.827230 0.000000 0.000000 -0.771865 1.142836 -0.507403
    9 -2.869900 1.399661 -4.140400 -1.294292 0.932026 1.438751
    10 4.972051 0.000000 -0.000002 -0.666995 -1.211926 0.140906
    11 11.139798 0.000000 0.000001 0.000000 0.000000 -1.275386
    12 0.000004 -0.000003 -3.713250 3.486046 0.159660 3.099552
    13 -0.000004 0.000007 3.713250 -3.148408 -0.061788 2.767515
    14 18.045700 0.000000 0.000000 0.000000 0.000000 -0.404414
    15 17.597601 0.000000 0.000000 0.082099 0.135730 0.310201
    16 3.793090 6.407220 0.000000 0.000000 0.000000 1.570800
    17 10.314602 0.000000 -0.000001 -3.303990 0.076138 -0.175122
    18 2.975830 -0.386307 -0.044143 -0.000797 -0.043611 0.000035
    19 1.438889 -0.000001 0.000000 0.000000 0.000000 0.462269
    20 1.646739 0.449550 -1.702251 0.273668 1.032178 0.447356
    21 0.928312 0.000000 -0.000002 0.000000 0.000000 0.000000
    22 0.928312 -0.000002 0.000001 0.000000 0.000000 0.000000
    23 11.585398 0.000000 0.000001 0.000000 0.000000 -1.711920
    24 10.127097 0.000000 0.000000 1.691418 0.171260 0.199672
    25 2.683750 -0.427338 0.044205 -0.005786 0.043240 -0.157096
    26 1.438891 0.000000 0.000001 0.000000 0.000000 0.732635
    27 1.533672 0.109716 1.664490 -0.264762 -0.055959 0.783117
    28 0.928313 0.000001 0.000000 0.000000 0.000000 -0.453542
    29 0.928314 0.000000 0.000001 0.000000 0.000000 0.000000
    30 18.045698 0.000000 0.000000 0.000000 0.000000 -0.458381
    31 17.597605 0.000000 0.000000 -0.232822 -0.055004 0.083306
    32 3.793091 6.407220 0.000000 0.000000 0.000000 1.570800
    33 2.046988 0.000000 0.000000 1.011003 -0.251892 -0.350566
  time 4
    0 0.235347 0.719305 38.057305 0.000000 0.000000 -1.570808
    1 0.664083 -0.039064 0.000000 0.000000 -1.570450 -1.570790
    2 1.293671 0.684478 -0.000001 -0.521889 -0.044344 -0.076921
    3 5.309690 -0.003834 0.000000 -0.173573 0.018289 0.103158
    4 4.826789 -0.004591 0.000000 -0.104746 -0.000815 -0.008637
    5 5.792767 -0.005304 0.000000 -0.209706 0.003787 0.017049
    6 6.662318 -0.001453 0.000000 0.000000 -0.000001 0.471000
    7 -3.112020 1.517251 4.341910 0.414797 -1.352834 2.263794
    8 4.827230 0.000000 0.000000 -0.788563 1.133817 -0.547155
    9 -2.869900 1.399661 -4.140400 -1.294292 0.932026 1.438714
    10 4.972051 0.000000 -0.000002 -0.521787 -1.237354 0.009705
    11 11.139798 0.000000 0.000001 0.000000 0.000000 -1.263334
    12 0.000004 -0.000003 -3.713250 3.486046 0.159660 3.099552
    13 -0.000004 0.000007 3.713250 -3.148408 -0.061788 2.767515
    14 18.045700 0.000000 0.000000 0.000000 0.000000 -0.404414
    15 17.597601 0.000000 0.000000 0.082099 0.135730 0.310201
    16 3.793090 6.407220 0.000000 0.000000 0.000000 1.570800
    17 10.314602 0.000000 -0.000001 -3.301767 0.074280 -0.175422
    18 2.975830 -0.386307 -0.044143 -0.000797 -0.043611 0.000035
    19 1.438889 -0.000001 0.000000 0.000000 0.000000 0.462269
    20 1.646739 0.449550 -1.702251 0.273668 1.032178 0.447356
    21 0.928312 0.000000 -0.000002 0.000000 0.000000 0.000000
    22 0.928312 -0.000002 0.000001 0.000000 0.000000 0.000000
    23 11.585398 0.000000 0.000001 0.000000 0.000000 -1.659739
    24 10.127097 0.000000 0.000000 1.691418 0.171260 0.199672
    25 2.683750 -0.427338 0.044205 -0.005786 0.043240 -0.157096
    26 1.438891 0.000000 0.000001 0.000000 0.000000 0.732635
    27 1.533672 0.109716 1.664490 -0.264762 -0.055959 0.783117
    28 0.928313 0.000001 0.000000 0.000000 0.000000 -0.453542
    29 0.928314 0.000000 0.000001 0.000000 0.000000 0.000000
    30 18.045698 0.000000 0.000000 0.000000 0.000000 -0.458381
    31 17.597605 0.000000 0.000000 -0.232822 -0.055004 0.083306
    32 3.793091 6.407220 0.000000 0.000000 0.000000 1.570800
    33 2.046988 0.000000 0.000000 0.992266 -0.247088 -0.350038
  time 5
    0 0.235347 0.719305 38.057305 0.000000 0.000000 -1.570808
    1 0.609394 -0.007813 0.000000 0.000000 -1.570450 -1.570790
    2 1.293671 0.684478 -0.000001 -0.522128 -0.041036 -0.071181
    3 5.309690 -0.003834 0.000000 -0.173573 0.018289 0.103158
    4 4.826789 -0.004591 0.000000 -0.104746 -0.000815 -0.008637
    5 5.792767 -0.005304 0.000000 -0.183220 0.003320 0.017145
    6 6.662318 -0.001453 0.000000 0.000000 -0.000001 0.471000
    7 -3.112020 1.517251 4.341910 0.414797 -1.352834 2.263794
    8 4.827230 0.000000 0.000000 -0.811042 1.120593 -0.602112
    9 -2.869900 1.399661 -4.140400 -1.294292 0.932026 1.438751
    10 4.972051 0.000000 -0.000002 -0.283961 -1.259095 -0.208640
    11 11.139798 0.000000 0.000001 0.000000 0.000000 -1.245491
    12 0.000004 -0.000003 -3.713250 3.486046 0.159660 3.099552
    13 -0.000004 0.000007 3.713250 -3.148408 -0.061788 2.767515
    14 18.045700 0.000000 0.000000 0.000000 0.000000 -0.404414
    15 17.597601 0.000000 0.000000 0.082099 0.135730 0.310201
    16 3.793090 6.407220 0.000000 0.000000 0.000000 1.570800
    17 10.314602 0.000000 -0.000001 -3.298960 0.071836 -0.176405
    18 2.975830 -0.386307 -0.044143 -0.000797 -0.043611 0.000035
    19 1.438889 -0.000001 0.000000 0.000000 0.000000 0.462269
    20 1.646739 0.449550 -1.702251 0.273668 1.032178 0.447356
    21 0.928312 0.000000 -0.000002 0.000000 0.000000 0.000000
    22 0.928312 -0.000002 0.000001 0.000000 0.000000 0.000000
    23 11.585398 0.000000 0.000001 0.000000 0.000000 -1.585886
    24 10.127097 0.000000 0.000000 1.691418 0.171260 0.199672
    25 2.683750 -0.427338 0.044205 -0.005786 0.043240 -0.157096
    26 1.438891 0.000000 0.000001 0.000000 0.000000 0.732635
    27 1.533672 0.109716 1.664490 -0.264762 -0.055959 0.783117
    28 0.928313 0.000001 0.000000 0.000000 0.000000 -0.453542
    29 0.928314 0.000000 0.000001 0.000000 0.000000 0.000000
    30 18.045698 0.000000 0.000000 0.000000 0.000000 -0.458381
    31 17.597605 0.000000 0.000000 -0.232822 -0.055004 0.083306
    32 3.793091 6.407220 0.000000 0.000000 0.000000 1.570800
    33 2.046988 0.000000 0.000000 0.965761 -0.240423 -0.349541
  time 6
    0 0.235347 0.719305 38.057305 0.000000 0.000000 -1.570808
    1 0.546892 0.023438 0.000000 0.000000 -1.570450 -1.570790
    2 1.293671 0.684478 -0.000001 -0.522383 -0.037249 -0.064601
    3 5.309690 -0.003834 0.000000 -0.173573 0.018289 0.103158
    4 4.826789 -0.004591 0.000000 -0.104746 -0.000815 -0.008637
    5 5.792767 -0.005304 0.000000 -0.152863 0.002768 0.017241
    6 6.662318 -0.001453 0.000000 0.000000 -0.000001 0.471000
    7 -3.112020 1.517251 4.341910 0.414797 -1.352834 2.263794
    8 4.827230 0.000000 0.000000 -0.835246 1.104791 -0.663432
    9 -2.869900 1.399661 -4.140400 -1.294292 0.932013 1.438714
    10 4.972051 0.000000 -0.000002 0.009525 -1.259719 -0.480427
    11 11.139798 0.000000 0.000001 0.000000 0.000000 -1.223927
    12 0.000004 -0.000003 -3.713250 3.486046 0.159660 3.099552
    13 -0.000004 0.000007 3.713250 -3.148408 -0.061788 2.767515
    14 18.045700 0.000000 0.000000 0.000000 0.000000 -0.404414
    15 17.597601 0.000000 0.000000 0.082099 0.135730 0.310201
    16 3.793090 6.407220 0.000000 0.000000 0.000000 1.570800
    17 10.314602 0.000000 -0.000001 -3.296101 0.069307 -0.178370
    18 2.975830 -0.386307 -0.044143 -0.000797 -0.043611 0.000035
    19 1.438889 -0.000001 0.000000 0.000000 0.000000 0.462269
    20 1.646739 0.449550 -1.702251 0.273668 1.032178 0.447356
    21 0.928312 0.000000 -0.000002 0.000000 0.000000 0.000000
    22 0.928312 -0.000002 0.000001 0.000000 0.000000 0.000000
    23 11.585398 0.000000 0.000001 0.000000 0.000000 -1.501277
    24 10.127097 0.000000 0.000000 1.691418 0.171260 0.199672
    25 2.683750 -0.427338 0.044205 -0.005786 0.043240 -0.157096
    26 1.438891 0.000000 0.000001 0.000000 0.000000 0.732635
    27 1.533672 0.109716 1.664490 -0.264762 -0.055959 0.783117
    28 0.928313 0.000001 0.000000 0.000000 0.000000 -0.453556
    29 0.928314 0.000000 0.000001 0.000000 0.000000 0.000000
    30 18.045698 0.000000 0.000000 0.000000 0.000000 -0.458381
    31 17.597605 0.000000 0.000000 -0.232822 -0.055004 0.083306
    32 3.793091 6.407220 0.000000 0.000000 0.000000 1.570800
    33 2.046988 0.000000 0.000000 0.935435 -0.232953 -0.349262
  time 7
    0 0.235347 0.719305 38.057305 0.000000 0.000000 -1.570808
    1 0.484390 0.058596 0.000000 0.000000 -1.570450 -1.570790
    2 1.293671 0.684478 -0.000001 -0.522622 -0.033462 -0.058010
    3 5.309690 -0.003834 0.000000 -0.173573 0.018289 0.103158
    4 4.826789 -0.004591 0.000000 -0.104746 -0.000815 -0.008637
    5 5.792767 -0.005304 0.000000 -0.122494 0.002217 0.017313
    6 6.662318 -0.001453 0.000000 0.000000 -0.000001 0.471000
    7 -3.112020 1.517251 4.341910 0.414797 -1.352834 2.263794
    8 4.827230 0.000000 0.000000 -0.857925 1.088334 -0.722972
    9 -2.869900 1.399661 -4.140400 -1.294292 0.932026 1.438714
    10 4.972051 0.000000 -0.000002 0.280680 -1.234499 -0.730277
    11 11.139798 0.000000 0.000001 0.000000 0.000000 -1.201240
    12 0.000004 -0.000003 -3.713250 3.486046 0.159660 3.099552
    13 -0.000004 0.000007 3.713250 -3.148408 -0.061788 2.767515
    14 18.045700 0.000000 0.000000 0.000000 0.000000 -0.404414
    15 17.597601 0.000000 0.000000 0.082099 0.135730 0.310201
    16 3.793090 6.407220 0.000000 0.000000 0.000000 1.570800
    17 10.314602 0.000000 -0.000001 -3.293719 0.067078 -0.181223
    18 2.975830 -0.386307 -0.044143 -0.000797 -0.043611 0.000035
    19 1.438889 -0.000001 0.000000 0.000000 0.000000 0.462269
    20 1.646739 0.449550 -1.702251 0.273668 1.032178 0.447356
    21 0.928312 0.000000 -0.000002 0.000000 0.000000 0.000000
    22 0.928312 -0.000002 0.000001 0.000000 0.000000 0.000000
    23 11.585398 0.000000 0.000001 0.000000 0.000000 -1.416669
    24 10.127097 0.000000 0.000000 1.691418 0.171260 0.199672
    25 2.683750 -0.427338 0.044205 -0.005786 0.043240 -0.157096
    26 1.438891 0.000000 0.000001 0.000000 0.000000 0.732635
    27 1.533672 0.109716 1.664490 -0.264762 -0.055959 0.783117
    28 0.928313 0.000001 0.000000 0.000000 0.000000 -0.453542
    29 0.928314 0.000000 0.000001 0.000000 0.000000 0.000000
    30 18.045698 0.000000 0.000000 0.000000 0.000000 -0.458381
    31 17.597605 0.000000 0.000000 -0.232822 -0.055004 0.083306
    32 3.793091 6.407220 0.000000 0.000000 0.000000 1.570800
    33 2.046988 0.000000 0.000000 0.905108 -0.225689 -0.349324
  time 8
    0 0.235347 0.719305 38.057305 0.000000 0.000000 -1.570808
    1 0.429701 0.089846 0.000000 0.000000 -1.570450 -1.570790
    2 1.293671 0.684478 -0.000001 -0.522814 -0.030154 -0.052269
    3 5.309690 -0.003834 0.000000 -0.173573 0.018289 0.103158
    4 4.826789 -0.004591 0.000000 -0.104746 -0.000815 -0.008637
    5 5.792767 -0.005304 0.000000 -0.096008 0.001738 0.017361
    6 6.662318 -0.001453 0.000000 0.000000 -0.000001 0.471000
    7 -3.112020 1.517251 4.341910 0.414797 -1.352834 2.263794
    8 4.827230 0.000000 0.000000 -0.876510 1.073481 -0.773581
    9 -2.869900 1.399661 -4.140400 -1.294292 0.932026 1.438714
    10 4.972051 0.000000 -0.000002 0.475016 -1.195301 -0.906451
    11 11.139798 0.000000 0.000001 0.000000 0.000000 -1.180384
    12 0.000004 -0.000003 -3.713250 3.486046 0.159660 3.099552
    13 -0.000004 0.000007 3.713250 -3.148408 -0.061788 2.767515
    14 18.045700 0.000000 0.000000 0.000000 0.000000 -0.404414
    15 17.597601 0.000000 0.000000 0.082099 0.135730 0.310201
    16 3.793090 6.407220 0.000000 0.000000 0.000000 1.570800
    17 10.314602 0.000000 -0.000001 -3.291919 0.065376 -0.184458
    18 2.975830 -0.386307 -0.044143 -0.000797 -0.043611 0.000035
    19 1.438889 -0.000001 0.000000 0.000000 0.000000 0.462269
    20 1.646739 0.449550 -1.702251 0.273668 1.032178 0.447356
    21 0.928312 0.000000 -0.000002 0.000000 0.000000 0.000000
    22 0.928312 -0.000002 0.000001 0.000000 0.000000 0.000000
    23 11.585398 0.000000 0.000001 0.000000 0.000000 -1.342870
    24 10.127097 0.000000 0.000000 1.691418 0.171260 0.199672
    25 2.683750 -0.427338 0.044205 -0.005786 0.043240 -0.157096
    26 1.438891 0.000000 0.000001 0.000000 0.000000 0.732635
    27 1.533672 0.109716 1.664490 -0.264762 -0.055959 0.783117
    28 0.928313 0.000001 0.000000 0.000000 0.000000 -0.453542
    29 0.928314 0.000000 0.000001 0.000000 0.000000 0.000000
    30 18.045698 0.000000 0.000000 0.000000 0.000000 -0.458381
    31 17.597605 0.000000 0.000000 -0.232822 -0.055004 0.083306
    32 3.793091 6.407220 0.000000 0.000000 0.000000 1.570800
    33 2.046988 0.000000 0.000000 0.878696 -0.219552 -0.349603
end
