// Created by Crowbar 0.74
version 1
nodes
  0 "Bip01" -1
  1 "Bip01 Pelvis" 0
  2 "Bip01 Spine" 1
  3 "Bip01 Spine1" 2
  4 "Bip01 Spine2" 3
  5 "Bip01 Spine3" 4
  6 "Bip01 Neck" 5
  7 "Bip01 L Clavicle" 6
  8 "Bip01 L UpperArm" 7
  9 "Bip01 R Clavicle" 6
  10 "Bip01 R UpperArm" 9
  11 "Bip01 L Forearm" 8
  12 "Bip01 R Thigh" 1
  13 "Bip01 L Thigh" 1
  14 "Bip01 R Calf" 12
  15 "Bip01 R Foot" 14
  16 "Bip01 R Toe0" 15
  17 "Bip01 L Hand" 11
  18 "Bip01 L Finger1" 17
  19 "Bip01 L Finger11" 18
  20 "Bip01 L Finger0" 17
  21 "Bip01 L Finger01" 20
  22 "Bip01 L Finger02" 21
  23 "Bip01 R Forearm" 10
  24 "Bip01 R Hand" 23
  25 "Bip01 R Finger1" 24
  26 "Bip01 R Finger11" 25
  27 "Bip01 R Finger0" 24
  28 "Bip01 R Finger01" 27
  29 "Bip01 R Finger02" 28
  30 "Bip01 L Calf" 13
  31 "Bip01 L Foot" 30
  32 "Bip01 L Toe0" 31
  33 "Bip01 Head" 6
end
skeleton
  time 0
    0 0.235347 0.367732 38.811235 0.000000 0.000000 -1.658042
    1 0.316416 0.054689 0.000000 0.000000 -1.570450 -1.570790
    2 1.293671 0.684478 -0.000001 -0.000004 -0.000001 0.044411
    3 5.309690 -0.003834 0.000000 0.165327 0.011362 -0.068842
    4 4.826789 -0.004591 0.000000 0.061049 -0.000575 0.008693
    5 5.792767 -0.005304 0.000000 -0.139524 0.002529 0.017277
    6 6.662318 -0.001453 0.000000 0.000000 -0.000001 0.471000
    7 -3.112020 1.517251 4.341910 -1.212984 -1.046071 3.832815
    8 4.827230 0.000000 0.000000 0.858598 1.152049 0.431428
    9 -2.869900 1.399661 -4.140400 -0.948909 1.235949 1.748209
    10 4.972051 0.000000 -0.000002 0.677392 -1.263972 -0.221863
    11 11.139798 0.000000 0.000001 0.000000 0.000000 -0.165142
    12 0.000004 -0.000003 -3.713250 3.134957 -0.016238 3.361376
    13 -0.000004 0.000007 3.713250 -3.303752 -0.008781 2.846566
    14 18.045700 0.000000 0.000000 0.000000 0.000000 -0.389159
    15 17.597601 0.000000 0.000000 -0.007976 -0.014772 0.207669
    16 3.793090 6.407220 0.000000 0.000000 0.000000 1.570800
    17 10.314602 0.000000 -0.000001 -1.570000 0.000000 0.296555
    18 2.975830 -0.386307 -0.044143 -0.000797 -0.043611 0.000035
    19 1.438889 -0.000001 0.000000 0.000000 0.000000 0.314000
    20 1.646739 0.449550 -1.702251 0.154002 0.442277 0.277235
    21 0.928312 0.000000 -0.000002 0.000000 0.000000 0.000000
    22 0.928312 -0.000002 0.000001 0.000000 0.000000 0.000000
    23 11.585398 0.000000 0.000001 0.000000 0.000000 -1.482128
    24 10.127097 0.000000 0.000000 1.569750 0.000000 -0.069778
    25 2.683750 -0.427338 0.044205 0.001045 0.043611 0.000046
    26 1.438891 0.000000 0.000001 0.000000 0.000000 1.064084
    27 1.533672 0.109716 1.664490 -0.233255 -0.412980 0.435684
    28 0.928313 0.000001 0.000000 0.000000 0.000000 0.000000
    29 0.928314 0.000000 0.000001 0.000000 0.000000 0.000000
    30 18.045698 0.000000 0.000000 0.000000 0.000000 -0.121501
    31 17.597605 0.000000 0.000000 0.070547 0.038656 -0.171174
    32 3.793091 6.407220 0.000000 0.000000 0.000000 1.570800
    33 2.046988 0.000000 0.000000 -0.008669 0.015561 -0.272192
  time 1
    0 0.235347 -1.683038 39.018272 0.000000 0.000000 -1.642407
    1 0.316416 0.050783 0.000000 0.000000 -1.570450 -1.570790
    2 1.293671 0.684478 -0.000001 -0.000004 -0.000001 0.044411
    3 5.309690 -0.003834 0.000000 0.149711 0.010295 -0.069017
    4 4.826789 -0.004591 0.000000 0.050095 -0.000467 0.008705
    5 5.792767 -0.005304 0.000000 -0.148908 0.002696 0.017253
    6 6.662318 -0.001453 0.000000 0.000000 -0.000001 0.471000
    7 -3.112020 1.517251 4.341910 -1.191033 -1.070400 3.813650
    8 4.827230 0.000000 0.000000 0.764830 1.194859 0.374018
    9 -2.869900 1.399661 -4.140400 -0.948909 1.235949 1.748209
    10 4.972051 0.000000 -0.000002 0.611627 -1.275511 -0.190480
    11 11.139798 0.000000 0.000001 0.000000 0.000000 -0.165142
    12 0.000004 -0.000003 -3.713250 3.135736 -0.016538 3.313819
    13 -0.000004 0.000007 3.713250 -3.279555 -0.010542 2.829951
    14 18.045700 0.000000 0.000000 0.000000 0.000000 -0.481857
    15 17.597601 0.000000 0.000000 -0.004167 -0.014532 0.164547
    16 3.793090 6.407220 0.000000 0.000000 0.000000 1.570800
    17 10.314602 0.000000 -0.000001 -1.570000 0.000000 0.261344
    18 2.975830 -0.386307 -0.044143 -0.000797 -0.043611 0.000035
    19 1.438889 -0.000001 0.000000 0.000000 0.000000 0.314000
    20 1.646739 0.449550 -1.702251 0.154002 0.442277 0.277235
    21 0.928312 0.000000 -0.000002 0.000000 0.000000 0.000000
    22 0.928312 -0.000002 0.000001 0.000000 0.000000 0.000000
    23 11.585398 0.000000 0.000001 0.000000 0.000000 -1.491511
    24 10.127097 0.000000 0.000000 1.569750 0.000000 -0.069778
    25 2.683750 -0.427338 0.044205 0.001045 0.043611 0.000046
    26 1.438891 0.000000 0.000001 0.000000 0.000000 1.064084
    27 1.533672 0.109716 1.664490 -0.233255 -0.412980 0.435684
    28 0.928313 0.000001 0.000000 0.000000 0.000000 0.000000
    29 0.928314 0.000000 0.000001 0.000000 0.000000 0.000000
    30 18.045698 0.000000 0.000000 0.000000 0.000000 -0.267254
    31 17.597605 0.000000 0.000000 0.056897 0.032220 -0.042906
    32 3.793091 6.407220 0.000000 0.000000 0.000000 1.570800
    33 2.046988 0.000000 0.000000 0.015132 0.008666 -0.271912
  time 2
    0 0.235347 -4.163508 39.256561 0.000000 0.000000 -1.624950
    1 0.320322 0.046876 0.000000 0.000000 -1.570450 -1.570790
    2 1.293671 0.684478 -0.000001 -0.000004 -0.000001 0.044411
    3 5.309690 -0.003834 0.000000 0.132298 0.009108 -0.069179
    4 4.826789 -0.004591 0.000000 0.037871 -0.000359 0.008705
    5 5.792767 -0.005304 0.000000 -0.159395 0.002888 0.017217
    6 6.662318 -0.001453 0.000000 0.000000 -0.000001 0.471000
    7 -3.112020 1.517251 4.341910 -1.164039 -1.097288 3.789826
    8 4.827230 0.000000 0.000000 0.630560 1.236914 0.280214
    9 -2.869900 1.399661 -4.140400 -0.948909 1.235949 1.748209
    10 4.972051 0.000000 -0.000002 0.532407 -1.287051 -0.149468
    11 11.139798 0.000000 0.000001 0.000000 0.000000 -0.165142
    12 0.000004 -0.000003 -3.713250 3.137103 -0.016957 3.231822
    13 -0.000004 0.000007 3.713250 -3.237261 0.000172 2.879308
    14 18.045700 0.000000 0.000000 0.000000 0.000000 -0.647077
    15 17.597601 0.000000 0.000000 0.002538 -0.013274 0.087128
    16 3.793090 6.407220 0.000000 0.000000 0.000000 1.570800
    17 10.314602 0.000000 -0.000001 -1.570000 0.000000 0.222047
    18 2.975830 -0.386307 -0.044143 -0.000797 -0.043611 0.000035
    19 1.438889 -0.000001 0.000000 0.000000 0.000000 0.314000
    20 1.646739 0.449550 -1.702251 0.154002 0.442277 0.277235
    21 0.928312 0.000000 -0.000002 0.000000 0.000000 0.000000
    22 0.928312 -0.000002 0.000001 0.000000 0.000000 0.000000
    23 11.585398 0.000000 0.000001 0.000000 0.000000 -1.501991
    24 10.127097 0.000000 0.000000 1.569750 0.000000 -0.069778
    25 2.683750 -0.427338 0.044205 0.001045 0.043611 0.000046
    26 1.438891 0.000000 0.000001 0.000000 0.000000 1.064084
    27 1.533672 0.109716 1.664490 -0.233255 -0.412980 0.435684
    28 0.928313 0.000001 0.000000 0.000000 0.000000 0.000000
    29 0.928314 0.000000 0.000001 0.000000 0.000000 0.000000
    30 18.045698 0.000000 0.000000 0.000000 0.000000 -0.319836
    31 17.597605 0.000000 0.000000 0.028163 0.024945 0.058768
    32 3.793091 6.407220 0.000000 0.000000 0.000000 1.570800
    33 2.046988 0.000000 0.000000 0.042134 0.001012 -0.272161
  time 3
    0 0.235347 -6.659604 39.475317 0.000000 0.000000 -1.606278
    1 0.320322 0.039064 0.000000 0.000000 -1.570450 -1.570790
    2 1.293671 0.684478 -0.000001 -0.000004 -0.000001 0.044411
    3 5.309690 -0.003834 0.000000 0.113662 0.007826 -0.069341
    4 4.826789 -0.004591 0.000000 0.024796 -0.000227 0.008717
    5 5.792767 -0.005304 0.000000 -0.170588 0.003092 0.017181
    6 6.662318 -0.001453 0.000000 0.000000 -0.000001 0.471000
    7 -3.112020 1.517251 4.341910 -1.131953 -1.125663 3.761007
    8 4.827230 0.000000 0.000000 0.446155 1.272236 0.138836
    9 -2.869900 1.399661 -4.140400 -0.948909 1.235949 1.748209
    10 4.972051 0.000000 -0.000002 0.440906 -1.297609 -0.098767
    11 11.139798 0.000000 0.000001 0.000000 0.000000 -0.165142
    12 0.000004 -0.000003 -3.713250 3.138433 -0.017257 3.154145
    13 -0.000004 0.000007 3.713250 -3.196178 0.013043 2.968877
    14 18.045700 0.000000 0.000000 0.000000 0.000000 -0.804915
    15 17.597601 0.000000 0.000000 0.008679 -0.011057 0.013011
    16 3.793090 6.407220 0.000000 0.000000 0.000000 1.570800
    17 10.314602 0.000000 -0.000001 -1.570000 0.000000 0.180029
    18 2.975830 -0.386307 -0.044143 -0.000797 -0.043611 0.000035
    19 1.438889 -0.000001 0.000000 0.000000 0.000000 0.314000
    20 1.646739 0.449550 -1.702251 0.154002 0.442277 0.277235
    21 0.928312 0.000000 -0.000002 0.000000 0.000000 0.000000
    22 0.928312 -0.000002 0.000001 0.000000 0.000000 0.000000
    23 11.585398 0.000000 0.000001 0.000000 0.000000 -1.513239
    24 10.127097 0.000000 0.000000 1.569750 0.000000 -0.069778
    25 2.683750 -0.427338 0.044205 0.001045 0.043611 0.000046
    26 1.438891 0.000000 0.000001 0.000000 0.000000 1.064084
    27 1.533672 0.109716 1.664490 -0.233255 -0.412980 0.435684
    28 0.928313 0.000001 0.000000 0.000000 0.000000 0.000000
    29 0.928314 0.000000 0.000001 0.000000 0.000000 0.000000
    30 18.045698 0.000000 0.000000 0.000000 0.000000 -0.292954
    31 17.597605 0.000000 0.000000 0.003836 0.022213 0.121113
    32 3.793091 6.407220 0.000000 0.000000 0.000000 1.570800
    33 2.046988 0.000000 0.000000 0.071218 -0.007125 -0.272906
  time 4
    0 0.235347 -9.167419 39.635478 0.000000 0.000000 -1.586949
    1 0.320322 0.035157 0.000000 0.000000 -1.570450 -1.570790
    2 1.293671 0.684478 -0.000001 -0.000004 -0.000001 0.044411
    3 5.309690 -0.003834 0.000000 0.094427 0.006508 -0.069478
    4 4.826789 -0.004591 0.000000 0.011301 -0.000108 0.008717
    5 5.792767 -0.005304 0.000000 -0.182166 0.003296 0.017145
    6 6.662318 -0.001453 0.000000 0.000000 -0.000001 0.471000
    7 -3.112020 1.517251 4.341910 -1.094536 -1.154477 3.727048
    8 4.827230 0.000000 0.000000 0.212860 1.294188 -0.050261
    9 -2.869900 1.399661 -4.140400 -0.948909 1.235949 1.748209
    10 4.972051 0.000000 -0.000002 0.339578 -1.306233 -0.039595
    11 11.139798 0.000000 0.000001 0.000000 0.000000 -0.165142
    12 0.000004 -0.000003 -3.713250 3.139619 -0.017425 3.085449
    13 -0.000004 0.000007 3.713250 -3.159374 0.021996 3.092224
    14 18.045700 0.000000 0.000000 0.000000 0.000000 -0.939010
    15 17.597601 0.000000 0.000000 0.013571 -0.008504 -0.049341
    16 3.793090 6.407220 0.000000 0.000000 0.000000 1.570800
    17 10.314602 0.000000 -0.000001 -1.570000 0.000000 0.136645
    18 2.975830 -0.386307 -0.044143 -0.000797 -0.043611 0.000035
    19 1.438889 -0.000001 0.000000 0.000000 0.000000 0.314000
    20 1.646739 0.449550 -1.702251 0.154002 0.442277 0.277235
    21 0.928312 0.000000 -0.000002 0.000000 0.000000 0.000000
    22 0.928312 -0.000002 0.000001 0.000000 0.000000 0.000000
    23 11.585398 0.000000 0.000001 0.000000 0.000000 -1.524761
    24 10.127097 0.000000 0.000000 1.569750 0.000000 -0.069778
    25 2.683750 -0.427338 0.044205 0.001045 0.043611 0.000046
    26 1.438891 0.000000 0.000001 0.000000 0.000000 1.064084
    27 1.533672 0.109716 1.664490 -0.233255 -0.412980 0.435684
    28 0.928313 0.000001 0.000000 0.000000 0.000000 0.000000
    29 0.928314 0.000000 0.000001 0.000000 0.000000 0.000000
    30 18.045698 0.000000 0.000000 0.000000 0.000000 -0.196829
    31 17.597605 0.000000 0.000000 -0.012376 0.022836 0.147867
    32 3.793091 6.407220 0.000000 0.000000 0.000000 1.570800
    33 2.046988 0.000000 0.000000 0.101389 -0.015445 -0.274086
  time 5
    0 0.235347 -11.686953 39.701887 0.000000 0.000000 -1.567670
    1 0.320322 0.027345 0.000000 0.000000 -1.570450 -1.570790
    2 1.293671 0.684478 -0.000001 -0.000004 -0.000001 0.044411
    3 5.309690 -0.003834 0.000000 0.075191 0.005190 -0.069591
    4 4.826789 -0.004591 0.000000 -0.002181 0.000012 0.008717
    5 5.792767 -0.005304 0.000000 -0.193731 0.003511 0.017109
    6 6.662318 -0.001453 0.000000 0.000000 -0.000001 0.471000
    7 -3.112020 1.517251 4.341910 -1.051979 -1.182730 3.687854
    8 4.827230 0.000000 0.000000 -0.044039 1.297664 -0.263174
    9 -2.869900 1.399661 -4.140400 -0.948909 1.235949 1.748209
    10 4.972051 0.000000 -0.000002 0.232501 -1.312330 0.025488
    11 11.139798 0.000000 0.000001 0.000000 0.000000 -0.165142
    12 0.000004 -0.000003 -3.713250 3.141177 -0.017533 2.996045
    13 -0.000004 0.000007 3.713250 -3.135836 0.023386 3.263740
    14 18.045700 0.000000 0.000000 0.000000 0.000000 -1.008579
    15 17.597601 0.000000 0.000000 0.015643 -0.007929 -0.070313
    16 3.793090 6.407220 0.000000 0.000000 0.000000 1.570800
    17 10.314602 0.000000 -0.000001 -1.570000 0.000000 0.093261
    18 2.975830 -0.386307 -0.044143 -0.000797 -0.043611 0.000035
    19 1.438889 -0.000001 0.000000 0.000000 0.000000 0.314000
    20 1.646739 0.449550 -1.702251 0.154002 0.442277 0.277235
    21 0.928312 0.000000 -0.000002 0.000000 0.000000 0.000000
    22 0.928312 -0.000002 0.000001 0.000000 0.000000 0.000000
    23 11.585398 0.000000 0.000001 0.000000 0.000000 -1.536339
    24 10.127097 0.000000 0.000000 1.569750 0.000000 -0.069778
    25 2.683750 -0.427338 0.044205 0.001045 0.043611 0.000046
    26 1.438891 0.000000 0.000001 0.000000 0.000000 1.064084
    27 1.533672 0.109716 1.664490 -0.233255 -0.412980 0.435684
    28 0.928313 0.000001 0.000000 0.000000 0.000000 0.000000
    29 0.928314 0.000000 0.000001 0.000000 0.000000 0.000000
    30 18.045698 0.000000 0.000000 0.000000 0.000000 -0.001744
    31 17.597605 0.000000 0.000000 -0.012107 0.023915 0.123783
    32 3.793091 6.407220 0.000000 0.000000 0.000000 1.570800
    33 2.046988 0.000000 0.000000 0.131592 -0.023697 -0.275607
  time 6
    0 0.235347 -14.206487 39.651104 0.000000 0.000000 -1.548999
    1 0.320322 0.023438 0.000000 0.000000 -1.570450 -1.570790
    2 1.293671 0.684478 -0.000001 -0.000004 -0.000001 0.044411
    3 5.309690 -0.003834 0.000000 0.056555 0.003895 -0.069678
    4 4.826789 -0.004591 0.000000 -0.015257 0.000144 0.008717
    5 5.792767 -0.005304 0.000000 -0.204936 0.003703 0.017073
    6 6.662318 -0.001453 0.000000 0.000000 -0.000001 0.471000
    7 -3.112020 1.517251 4.341910 -1.004810 -1.209374 3.644000
    8 4.827230 0.000000 0.000000 -0.282393 1.282714 -0.459071
    9 -2.869900 1.399661 -4.140400 -0.948909 1.235949 1.748209
    10 4.972051 0.000000 -0.000002 0.124809 -1.315602 0.092460
    11 11.139798 0.000000 0.000001 0.000000 0.000000 -0.165142
    12 0.000004 -0.000003 -3.713250 3.141825 -0.017892 2.884267
    13 -0.000004 0.000007 3.713250 -3.132852 0.023722 3.295751
    14 18.045700 0.000000 0.000000 0.000000 0.000000 -1.016268
    15 17.597601 0.000000 0.000000 0.014577 -0.008864 -0.060970
    16 3.793090 6.407220 0.000000 0.000000 0.000000 1.570800
    17 10.314602 0.000000 -0.000001 -1.570000 0.000000 0.051243
    18 2.975830 -0.386307 -0.044143 -0.000797 -0.043611 0.000035
    19 1.438889 -0.000001 0.000000 0.000000 0.000000 0.314000
    20 1.646739 0.449550 -1.702251 0.154002 0.442277 0.277235
    21 0.928312 0.000000 -0.000002 0.000000 0.000000 0.000000
    22 0.928312 -0.000002 0.000001 0.000000 0.000000 0.000000
    23 11.585398 0.000000 0.000001 0.000000 0.000000 -1.547532
    24 10.127097 0.000000 0.000000 1.569750 0.000000 -0.069778
    25 2.683750 -0.427338 0.044205 0.001045 0.043611 0.000046
    26 1.438891 0.000000 0.000001 0.000000 0.000000 1.064084
    27 1.533672 0.109716 1.664490 -0.233255 -0.412980 0.435684
    28 0.928313 0.000001 0.000000 0.000000 0.000000 0.000000
    29 0.928314 0.000000 0.000001 0.000000 0.000000 0.000000
    30 18.045698 0.000000 0.000000 0.000000 0.000000 -0.052258
    31 17.597605 0.000000 0.000000 -0.011265 0.024274 0.145010
    32 3.793091 6.407220 0.000000 0.000000 0.000000 1.570800
    33 2.046988 0.000000 0.000000 0.160769 -0.031627 -0.277284
  time 7
    0 0.235347 -16.733834 39.526100 0.000000 0.000000 -1.531542
    1 0.320322 0.015625 0.000000 0.000000 -1.570450 -1.570790
    2 1.293671 0.684478 -0.000001 -0.000004 -0.000001 0.044411
    3 5.309690 -0.003834 0.000000 0.039130 0.002697 -0.069728
    4 4.826789 -0.004591 0.000000 -0.027481 0.000252 0.008717
    5 5.792767 -0.005304 0.000000 -0.215411 0.003895 0.017025
    6 6.662318 -0.001453 0.000000 0.000000 -0.000001 0.471000
    7 -3.112020 1.517251 4.341910 -0.954424 -1.233532 3.596592
    8 4.827230 0.000000 0.000000 -0.472939 1.254612 -0.610109
    9 -2.869900 1.399661 -4.140400 -0.948909 1.235949 1.748209
    10 4.972051 0.000000 -0.000002 0.022477 -1.316226 0.156750
    11 11.139798 0.000000 0.000001 0.000000 0.000000 -0.165142
    12 0.000004 -0.000003 -3.713250 3.141753 -0.018503 2.766194
    13 -0.000004 0.000007 3.713250 -3.132792 0.024237 3.307884
    14 18.045700 0.000000 0.000000 0.000000 0.000000 -1.020328
    15 17.597601 0.000000 0.000000 0.012900 -0.009295 -0.054816
    16 3.793090 6.407220 0.000000 0.000000 0.000000 1.570800
    17 10.314602 0.000000 -0.000001 -1.570000 0.000000 0.011945
    18 2.975830 -0.386307 -0.044143 -0.000797 -0.043611 0.000035
    19 1.438889 -0.000001 0.000000 0.000000 0.000000 0.314000
    20 1.646739 0.449550 -1.702251 0.154002 0.442277 0.277235
    21 0.928312 0.000000 -0.000002 0.000000 0.000000 0.000000
    22 0.928312 -0.000002 0.000001 0.000000 0.000000 0.000000
    23 11.585398 0.000000 0.000001 0.000000 0.000000 -1.558012
    24 10.127097 0.000000 0.000000 1.569750 0.000000 -0.069778
    25 2.683750 -0.427338 0.044205 0.001045 0.043611 0.000046
    26 1.438891 0.000000 0.000001 0.000000 0.000000 1.064084
    27 1.533672 0.109716 1.664490 -0.233255 -0.412980 0.435684
    28 0.928313 0.000001 0.000000 0.000000 0.000000 0.000000
    29 0.928314 0.000000 0.000001 0.000000 0.000000 0.000000
    30 18.045698 0.000000 0.000000 0.000000 0.000000 -0.139875
    31 17.597605 0.000000 0.000000 -0.010352 0.024358 0.173472
    32 3.793091 6.407220 0.000000 0.000000 0.000000 1.570800
    33 2.046988 0.000000 0.000000 0.187833 -0.039005 -0.278992
  time 8
    0 0.235347 -19.257275 39.354220 0.000000 0.000000 -1.515906
    1 0.324229 0.011719 0.000000 0.000000 -1.570450 -1.570790
    2 1.293671 0.684478 -0.000001 -0.000004 -0.000001 0.044411
    3 5.309690 -0.003834 0.000000 0.023526 0.001618 -0.069765
    4 4.826789 -0.004591 0.000000 -0.038435 0.000360 0.008705
    5 5.792767 -0.005304 0.000000 -0.224795 0.004063 0.016989
    6 6.662318 -0.001453 0.000000 0.000000 -0.000001 0.471000
    7 -3.112020 1.517251 4.341910 -0.903077 -1.254423 3.547984
    8 4.827230 0.000000 0.000000 -0.611303 1.220530 -0.713224
    9 -2.869900 1.399661 -4.140400 -0.948909 1.235949 1.748209
    10 4.972051 0.000000 -0.000002 -0.069136 -1.314739 0.214337
    11 11.139798 0.000000 0.000001 0.000000 0.000000 -0.165142
    12 0.000004 -0.000003 -3.713250 3.143311 -0.018383 2.655033
    13 -0.000004 0.000007 3.713250 -3.133870 0.024788 3.312732
    14 18.045700 0.000000 0.000000 0.000000 0.000000 -1.007411
    15 17.597601 0.000000 0.000000 0.011026 -0.010985 -0.027169
    16 3.793090 6.407220 0.000000 0.000000 0.000000 1.570800
    17 10.314602 0.000000 -0.000001 -1.570000 0.000000 -0.023266
    18 2.975830 -0.386307 -0.044143 -0.000797 -0.043611 0.000035
    19 1.438889 -0.000001 0.000000 0.000000 0.000000 0.314000
    20 1.646739 0.449550 -1.702251 0.154002 0.442277 0.277235
    21 0.928312 0.000000 -0.000002 0.000000 0.000000 0.000000
    22 0.928312 -0.000002 0.000001 0.000000 0.000000 0.000000
    23 11.585398 0.000000 0.000001 0.000000 0.000000 -1.567450
    24 10.127097 0.000000 0.000000 1.569750 0.000000 -0.069778
    25 2.683750 -0.427338 0.044205 0.001045 0.043611 0.000046
    26 1.438891 0.000000 0.000001 0.000000 0.000000 1.064084
    27 1.533672 0.109716 1.664490 -0.233255 -0.412980 0.435684
    28 0.928313 0.000001 0.000000 0.000000 0.000000 0.000000
    29 0.928314 0.000000 0.000001 0.000000 0.000000 0.000000
    30 18.045698 0.000000 0.000000 0.000000 0.000000 -0.234464
    31 17.597605 0.000000 0.000000 -0.009599 0.024418 0.202255
    32 3.793091 6.407220 0.000000 0.000000 0.000000 1.570800
    33 2.046988 0.000000 0.000000 0.211727 -0.045625 -0.280451
  time 9
    0 0.235347 -21.780715 39.162808 0.000000 0.000000 -1.502700
    1 0.324229 0.007813 0.000000 0.000000 -1.570450 -1.570790
    2 1.293671 0.684478 -0.000001 -0.000004 -0.000001 0.044411
    3 5.309690 -0.003834 0.000000 0.010331 0.000707 -0.069778
    4 4.826789 -0.004591 0.000000 -0.047687 0.000444 0.008705
    5 5.792767 -0.005304 0.000000 -0.232729 0.004207 0.016953
    6 6.662318 -0.001453 0.000000 0.000000 -0.000001 0.471000
    7 -3.112020 1.517251 4.341910 -0.854372 -1.271390 3.501585
    8 4.827230 0.000000 0.000000 -0.706034 1.186885 -0.778280
    9 -2.869900 1.399661 -4.140400 -0.948909 1.235949 1.748209
    10 4.972051 0.000000 -0.000002 -0.145341 -1.312003 0.261809
    11 11.139798 0.000000 0.000001 0.000000 0.000000 -0.165142
    12 0.000004 -0.000003 -3.713250 3.148560 -0.016094 2.563963
    13 -0.000004 0.000007 3.713250 -3.134338 0.025148 3.322792
    14 18.045700 0.000000 0.000000 0.000000 0.000000 -0.964107
    15 17.597601 0.000000 0.000000 0.008542 -0.015323 0.046698
    16 3.793090 6.407220 0.000000 0.000000 0.000000 1.570800
    17 10.314602 0.000000 -0.000001 -1.570000 0.000000 -0.053023
    18 2.975830 -0.386307 -0.044143 -0.000797 -0.043611 0.000035
    19 1.438889 -0.000001 0.000000 0.000000 0.000000 0.314000
    20 1.646739 0.449550 -1.702251 0.154002 0.442277 0.277235
    21 0.928312 0.000000 -0.000002 0.000000 0.000000 0.000000
    22 0.928312 -0.000002 0.000001 0.000000 0.000000 0.000000
    23 11.585398 0.000000 0.000001 0.000000 0.000000 -1.575351
    24 10.127097 0.000000 0.000000 1.569750 0.000000 -0.069778
    25 2.683750 -0.427338 0.044205 0.001045 0.043611 0.000046
    26 1.438891 0.000000 0.000001 0.000000 0.000000 1.064084
    27 1.533672 0.109716 1.664490 -0.233255 -0.412980 0.435684
    28 0.928313 0.000001 0.000000 0.000000 0.000000 0.000000
    29 0.928314 0.000000 0.000001 0.000000 0.000000 0.000000
    30 18.045698 0.000000 0.000000 0.000000 0.000000 -0.305716
    31 17.597605 0.000000 0.000000 -0.009277 0.024478 0.224390
    32 3.793091 6.407220 0.000000 0.000000 0.000000 1.570800
    33 2.046988 0.000000 0.000000 0.231427 -0.051325 -0.281507
  time 10
    0 0.235347 -24.292436 38.990928 0.000000 0.000000 -1.492479
    1 0.324229 0.003906 0.000000 0.000000 -1.570450 -1.570790
    2 1.293671 0.684478 -0.000001 -0.000004 -0.000001 0.044411
    3 5.309690 -0.003834 0.000000 0.000156 0.000000 -0.069778
    4 4.826789 -0.004591 0.000000 -0.054830 0.000516 0.008705
    5 5.792767 -0.005304 0.000000 -0.238853 0.004314 0.016929
    6 6.662318 -0.001453 0.000000 0.000000 -0.000001 0.471000
    7 -3.112020 1.517251 4.341910 -0.813112 -1.283969 3.462054
    8 4.827230 0.000000 0.000000 -0.767128 1.158662 -0.816543
    9 -2.869900 1.399661 -4.140400 -0.948909 1.235949 1.748209
    10 4.972051 0.000000 -0.000002 -0.202955 -1.308999 0.297275
    11 11.139798 0.000000 0.000001 0.000000 0.000000 -0.165142
    12 0.000004 -0.000003 -3.713250 3.180667 -0.000466 2.613001
    13 -0.000004 0.000007 3.713250 -3.133415 0.025004 3.359162
    14 18.045700 0.000000 0.000000 0.000000 0.000000 -0.693579
    15 17.597601 0.000000 0.000000 -0.005858 -0.022790 0.456307
    16 3.793090 6.407220 0.000000 0.000000 0.000000 1.570800
    17 10.314602 0.000000 -0.000001 -1.570000 0.000000 -0.075950
    18 2.975830 -0.386307 -0.044143 -0.000797 -0.043611 0.000035
    19 1.438889 -0.000001 0.000000 0.000000 0.000000 0.314000
    20 1.646739 0.449550 -1.702251 0.154002 0.442277 0.277235
    21 0.928312 0.000000 -0.000002 0.000000 0.000000 0.000000
    22 0.928312 -0.000002 0.000001 0.000000 0.000000 0.000000
    23 11.585398 0.000000 0.000001 0.000000 0.000000 -1.581496
    24 10.127097 0.000000 0.000000 1.569750 0.000000 -0.069778
    25 2.683750 -0.427338 0.044205 0.001045 0.043611 0.000046
    26 1.438891 0.000000 0.000001 0.000000 0.000000 1.064084
    27 1.533672 0.109716 1.664490 -0.233255 -0.412980 0.435684
    28 0.928313 0.000001 0.000000 0.000000 0.000000 0.000000
    29 0.928314 0.000000 0.000001 0.000000 0.000000 0.000000
    30 18.045698 0.000000 0.000000 0.000000 0.000000 -0.312096
    31 17.597605 0.000000 0.000000 -0.009062 0.024550 0.252265
    32 3.793091 6.407220 0.000000 0.000000 0.000000 1.570800
    33 2.046988 0.000000 0.000000 0.245783 -0.055922 -0.281818
  time 11
    0 0.235347 -26.792439 38.862017 0.000000 0.000000 -1.485901
    1 0.324229 0.003906 0.000000 0.000000 -1.570450 -1.570790
    2 1.293671 0.684478 -0.000001 -0.000004 -0.000001 0.044411
    3 5.309690 -0.003834 0.000000 -0.006376 -0.000431 -0.069778
    4 4.826789 -0.004591 0.000000 -0.059420 0.000564 0.008693
    5 5.792767 -0.005304 0.000000 -0.242784 0.004374 0.016917
    6 6.662318 -0.001453 0.000000 0.000000 -0.000001 0.471000
    7 -3.112020 1.517251 4.341910 -0.784628 -1.291818 3.434724
    8 4.827230 0.000000 0.000000 -0.801689 1.139627 -0.836448
    9 -2.869900 1.399661 -4.140400 -0.948909 1.235949 1.748209
    10 4.972051 0.000000 -0.000002 -0.239355 -1.306650 0.319396
    11 11.139798 0.000000 0.000001 0.000000 0.000000 -0.165142
    12 0.000004 -0.000003 -3.713250 3.223440 0.014263 2.751442
    13 -0.000004 0.000007 3.713250 -3.132480 0.024609 3.397392
    14 18.045700 0.000000 0.000000 0.000000 0.000000 -0.321435
    15 17.597601 0.000000 0.000000 -0.004319 -0.014616 0.114254
    16 3.793090 6.407220 0.000000 0.000000 0.000000 1.570800
    17 10.314602 0.000000 -0.000001 -1.570000 0.000000 -0.090715
    18 2.975830 -0.386307 -0.044143 -0.000797 -0.043611 0.000035
    19 1.438889 -0.000001 0.000000 0.000000 0.000000 0.314000
    20 1.646739 0.449550 -1.702251 0.154002 0.442277 0.277235
    21 0.928312 0.000000 -0.000002 0.000000 0.000000 0.000000
    22 0.928312 -0.000002 0.000001 0.000000 0.000000 0.000000
    23 11.585398 0.000000 0.000001 0.000000 0.000000 -1.585392
    24 10.127097 0.000000 0.000000 1.569750 0.000000 -0.069778
    25 2.683750 -0.427338 0.044205 0.001045 0.043611 0.000046
    26 1.438891 0.000000 0.000001 0.000000 0.000000 1.064084
    27 1.533672 0.109716 1.664490 -0.233255 -0.412980 0.435684
    28 0.928313 0.000001 0.000000 0.000000 0.000000 0.000000
    29 0.928314 0.000000 0.000001 0.000000 0.000000 0.000000
    30 18.045698 0.000000 0.000000 0.000000 0.000000 -0.294845
    31 17.597605 0.000000 0.000000 -0.009366 0.024430 0.272503
    32 3.793091 6.407220 0.000000 0.000000 0.000000 1.570800
    33 2.046988 0.000000 0.000000 0.253768 -0.059255 -0.281228
  time 12
    0 0.235347 -29.276815 38.811235 0.000000 0.000000 -1.483573
    1 0.324229 0.003906 0.000000 0.000000 -1.570450 -1.570790
    2 1.293671 0.684478 -0.000001 -0.000004 -0.000001 0.044411
    3 5.309690 -0.003834 0.000000 -0.008701 -0.000599 -0.069778
    4 4.826789 -0.004591 0.000000 -0.061050 0.000576 0.008693
    5 5.792767 -0.005304 0.000000 -0.244174 0.004398 0.016905
    6 6.662318 -0.001453 0.000000 0.000000 -0.000001 0.471000
    7 -3.112020 1.517251 4.341910 -0.774205 -1.294524 3.424685
    8 4.827230 0.000000 0.000000 -0.813089 1.132772 -0.842694
    9 -2.869900 1.399661 -4.140400 -0.948909 1.235949 1.748209
    10 4.972051 0.000000 -0.000002 -0.252083 -1.305757 0.327075
    11 11.139798 0.000000 0.000001 0.000000 0.000000 -0.165142
    12 0.000004 -0.000003 -3.713250 3.247996 0.017235 2.876614
    13 -0.000004 0.000007 3.713250 -3.132864 0.024668 3.381844
    14 18.045700 0.000000 0.000000 0.000000 0.000000 -0.057797
    15 17.597601 0.000000 0.000000 -0.002536 -0.011285 -0.207528
    16 3.793090 6.407220 0.000000 0.000000 0.000000 1.570800
    17 10.314602 0.000000 -0.000001 -1.570000 0.000000 -0.095940
    18 2.975830 -0.386307 -0.044143 -0.000797 -0.043611 0.000035
    19 1.438889 -0.000001 0.000000 0.000000 0.000000 0.314000
    20 1.646739 0.449550 -1.702251 0.154002 0.442277 0.277235
    21 0.928312 0.000000 -0.000002 0.000000 0.000000 0.000000
    22 0.928312 -0.000002 0.000001 0.000000 0.000000 0.000000
    23 11.585398 0.000000 0.000001 0.000000 0.000000 -1.586818
    24 10.127097 0.000000 0.000000 1.569750 0.000000 -0.069778
    25 2.683750 -0.427338 0.044205 0.001045 0.043611 0.000046
    26 1.438891 0.000000 0.000001 0.000000 0.000000 1.064084
    27 1.533672 0.109716 1.664490 -0.233255 -0.412980 0.435684
    28 0.928313 0.000001 0.000000 0.000000 0.000000 0.000000
    29 0.928314 0.000000 0.000001 0.000000 0.000000 0.000000
    30 18.045698 0.000000 0.000000 0.000000 0.000000 -0.348254
    31 17.597605 0.000000 0.000000 -0.011355 0.023579 0.239422
    32 3.793091 6.407220 0.000000 0.000000 0.000000 1.570800
    33 2.046988 0.000000 0.000000 0.254297 -0.061071 -0.279396
  time 13
    0 0.235347 -31.729941 38.904987 0.000000 0.000000 -1.485901
    1 0.324229 0.003906 0.000000 0.000000 -1.570450 -1.570790
    2 1.293671 0.684478 -0.000001 -0.000004 -0.000001 0.044411
    3 5.309690 -0.003834 0.000000 -0.006376 -0.000431 -0.069778
    4 4.826789 -0.004591 0.000000 -0.059420 0.000564 0.008693
    5 5.792767 -0.005304 0.000000 -0.242784 0.004374 0.016917
    6 6.662318 -0.001453 0.000000 0.000000 -0.000001 0.471000
    7 -3.112020 1.517251 4.341910 -0.784628 -1.291818 3.434724
    8 4.827230 0.000000 0.000000 -0.801689 1.139627 -0.836448
    9 -2.869900 1.399661 -4.140400 -0.948909 1.235949 1.748209
    10 4.972051 0.000000 -0.000002 -0.239355 -1.306650 0.319396
    11 11.139798 0.000000 0.000001 0.000000 0.000000 -0.165142
    12 0.000004 -0.000003 -3.713250 3.235580 0.009816 2.947378
    13 -0.000004 0.000007 3.713250 -3.134865 0.025292 3.301665
    14 18.045700 0.000000 0.000000 0.000000 0.000000 -0.003605
    15 17.597601 0.000000 0.000000 -0.001469 -0.008564 -0.207574
    16 3.793090 6.407220 0.000000 0.000000 0.000000 1.570800
    17 10.314602 0.000000 -0.000001 -1.570000 0.000000 -0.090715
    18 2.975830 -0.386307 -0.044143 -0.000797 -0.043611 0.000035
    19 1.438889 -0.000001 0.000000 0.000000 0.000000 0.314000
    20 1.646739 0.449550 -1.702251 0.154002 0.442277 0.277235
    21 0.928312 0.000000 -0.000002 0.000000 0.000000 0.000000
    22 0.928312 -0.000002 0.000001 0.000000 0.000000 0.000000
    23 11.585398 0.000000 0.000001 0.000000 0.000000 -1.585392
    24 10.127097 0.000000 0.000000 1.569750 0.000000 -0.069778
    25 2.683750 -0.427338 0.044205 0.001045 0.043611 0.000046
    26 1.438891 0.000000 0.000001 0.000000 0.000000 1.064084
    27 1.533672 0.109716 1.664490 -0.233255 -0.412980 0.435684
    28 0.928313 0.000001 0.000000 0.000000 0.000000 0.000000
    29 0.928314 0.000000 0.000001 0.000000 0.000000 0.000000
    30 18.045698 0.000000 0.000000 0.000000 0.000000 -0.507300
    31 17.597605 0.000000 0.000000 -0.015511 0.021062 0.131980
    32 3.793091 6.407220 0.000000 0.000000 0.000000 1.570800
    33 2.046988 0.000000 0.000000 0.246311 -0.061392 -0.275763
  time 14
    0 0.235347 -34.140097 39.127650 0.000000 0.000000 -1.492479
    1 0.324229 0.003906 0.000000 0.000000 -1.570450 -1.570790
    2 1.293671 0.684478 -0.000001 -0.000004 -0.000001 0.044411
    3 5.309690 -0.003834 0.000000 0.000156 0.000000 -0.069778
    4 4.826789 -0.004591 0.000000 -0.054830 0.000516 0.008705
    5 5.792767 -0.005304 0.000000 -0.238853 0.004314 0.016929
    6 6.662318 -0.001453 0.000000 0.000000 -0.000001 0.471000
    7 -3.112020 1.517251 4.341910 -0.813112 -1.283969 3.462054
    8 4.827230 0.000000 0.000000 -0.767128 1.158662 -0.816543
    9 -2.869900 1.399661 -4.140400 -0.948909 1.235949 1.748209
    10 4.972051 0.000000 -0.000002 -0.202955 -1.308999 0.297275
    11 11.139798 0.000000 0.000001 0.000000 0.000000 -0.165142
    12 0.000004 -0.000003 -3.713250 3.212222 0.000984 3.007526
    13 -0.000004 0.000007 3.713250 -3.137657 0.025879 3.192616
    14 18.045700 0.000000 0.000000 0.000000 0.000000 0.001069
    15 17.597601 0.000000 0.000000 -0.000220 -0.007797 -0.140584
    16 3.793090 6.407220 0.000000 0.000000 0.000000 1.570800
    17 10.314602 0.000000 -0.000001 -1.570000 0.000000 -0.075950
    18 2.975830 -0.386307 -0.044143 -0.000797 -0.043611 0.000035
    19 1.438889 -0.000001 0.000000 0.000000 0.000000 0.314000
    20 1.646739 0.449550 -1.702251 0.154002 0.442277 0.277235
    21 0.928312 0.000000 -0.000002 0.000000 0.000000 0.000000
    22 0.928312 -0.000002 0.000001 0.000000 0.000000 0.000000
    23 11.585398 0.000000 0.000001 0.000000 0.000000 -1.581496
    24 10.127097 0.000000 0.000000 1.569750 0.000000 -0.069778
    25 2.683750 -0.427338 0.044205 0.001045 0.043611 0.000046
    26 1.438891 0.000000 0.000001 0.000000 0.000000 1.064084
    27 1.533672 0.109716 1.664490 -0.233255 -0.412980 0.435684
    28 0.928313 0.000001 0.000000 0.000000 0.000000 0.000000
    29 0.928314 0.000000 0.000001 0.000000 0.000000 0.000000
    30 18.045698 0.000000 0.000000 0.000000 0.000000 -0.717983
    31 17.597605 0.000000 0.000000 -0.020258 0.016544 -0.017487
    32 3.793091 6.407220 0.000000 0.000000 0.000000 1.570800
    33 2.046988 0.000000 0.000000 0.230433 -0.060381 -0.270049
  time 15
    0 0.235347 -36.530721 39.389377 0.000000 0.000000 -1.502700
    1 0.324229 0.007813 0.000000 0.000000 -1.570450 -1.570790
    2 1.293671 0.684478 -0.000001 -0.000004 -0.000001 0.044411
    3 5.309690 -0.003834 0.000000 0.010331 0.000707 -0.069778
    4 4.826789 -0.004591 0.000000 -0.047687 0.000444 0.008705
    5 5.792767 -0.005304 0.000000 -0.232729 0.004207 0.016953
    6 6.662318 -0.001453 0.000000 0.000000 -0.000001 0.471000
    7 -3.112020 1.517251 4.341910 -0.854372 -1.271390 3.501585
    8 4.827230 0.000000 0.000000 -0.706034 1.186885 -0.778280
    9 -2.869900 1.399661 -4.140400 -0.948909 1.235949 1.748209
    10 4.972051 0.000000 -0.000002 -0.145341 -1.312003 0.261809
    11 11.139798 0.000000 0.000001 0.000000 0.000000 -0.165142
    12 0.000004 -0.000003 -3.713250 3.184046 -0.007274 3.060174
    13 -0.000004 0.000007 3.713250 -3.140869 0.026155 3.068963
    14 18.045700 0.000000 0.000000 0.000000 0.000000 -0.025442
    15 17.597601 0.000000 0.000000 0.000953 -0.009762 -0.037961
    16 3.793090 6.407220 0.000000 0.000000 0.000000 1.570800
    17 10.314602 0.000000 -0.000001 -1.570000 0.000000 -0.053023
    18 2.975830 -0.386307 -0.044143 -0.000797 -0.043611 0.000035
    19 1.438889 -0.000001 0.000000 0.000000 0.000000 0.314000
    20 1.646739 0.449550 -1.702251 0.154002 0.442277 0.277235
    21 0.928312 0.000000 -0.000002 0.000000 0.000000 0.000000
    22 0.928312 -0.000002 0.000001 0.000000 0.000000 0.000000
    23 11.585398 0.000000 0.000001 0.000000 0.000000 -1.575351
    24 10.127097 0.000000 0.000000 1.569750 0.000000 -0.069778
    25 2.683750 -0.427338 0.044205 0.001045 0.043611 0.000046
    26 1.438891 0.000000 0.000001 0.000000 0.000000 1.064084
    27 1.533672 0.109716 1.664490 -0.233255 -0.412980 0.435684
    28 0.928313 0.000001 0.000000 0.000000 0.000000 0.000000
    29 0.928314 0.000000 0.000001 0.000000 0.000000 0.000000
    30 18.045698 0.000000 0.000000 0.000000 0.000000 -0.941014
    31 17.597605 0.000000 0.000000 -0.023805 0.010863 -0.174671
    32 3.793091 6.407220 0.000000 0.000000 0.000000 1.570800
    33 2.046988 0.000000 0.000000 0.207968 -0.057945 -0.262721
  time 16
    0 0.235347 -38.925251 39.608134 0.000000 0.000000 -1.515906
    1 0.324229 0.011719 0.000000 0.000000 -1.570450 -1.570790
    2 1.293671 0.684478 -0.000001 -0.000004 -0.000001 0.044411
    3 5.309690 -0.003834 0.000000 0.023526 0.001618 -0.069765
    4 4.826789 -0.004591 0.000000 -0.038435 0.000360 0.008705
    5 5.792767 -0.005304 0.000000 -0.224795 0.004063 0.016989
    6 6.662318 -0.001453 0.000000 0.000000 -0.000001 0.471000
    7 -3.112020 1.517251 4.341910 -0.903077 -1.254423 3.547984
    8 4.827230 0.000000 0.000000 -0.611303 1.220530 -0.713224
    9 -2.869900 1.399661 -4.140400 -0.948909 1.235949 1.748209
    10 4.972051 0.000000 -0.000002 -0.069136 -1.314739 0.214337
    11 11.139798 0.000000 0.000001 0.000000 0.000000 -0.165142
    12 0.000004 -0.000003 -3.713250 3.157333 -0.013638 3.108348
    13 -0.000004 0.000007 3.713250 -3.144105 0.026047 2.945037
    14 18.045700 0.000000 0.000000 0.000000 0.000000 -0.064563
    15 17.597601 0.000000 0.000000 0.001746 -0.013705 0.068870
    16 3.793090 6.407220 0.000000 0.000000 0.000000 1.570800
    17 10.314602 0.000000 -0.000001 -1.570000 0.000000 -0.023266
    18 2.975830 -0.386307 -0.044143 -0.000797 -0.043611 0.000035
    19 1.438889 -0.000001 0.000000 0.000000 0.000000 0.314000
    20 1.646739 0.449550 -1.702251 0.154002 0.442277 0.277235
    21 0.928312 0.000000 -0.000002 0.000000 0.000000 0.000000
    22 0.928312 -0.000002 0.000001 0.000000 0.000000 0.000000
    23 11.585398 0.000000 0.000001 0.000000 0.000000 -1.567450
    24 10.127097 0.000000 0.000000 1.569750 0.000000 -0.069778
    25 2.683750 -0.427338 0.044205 0.001045 0.043611 0.000046
    26 1.438891 0.000000 0.000001 0.000000 0.000000 1.064084
    27 1.533672 0.109716 1.664490 -0.233255 -0.412980 0.435684
    28 0.928313 0.000001 0.000000 0.000000 0.000000 0.000000
    29 0.928314 0.000000 0.000001 0.000000 0.000000 0.000000
    30 18.045698 0.000000 0.000000 0.000000 0.000000 -1.136868
    31 17.597605 0.000000 0.000000 -0.025489 0.005854 -0.305235
    32 3.793091 6.407220 0.000000 0.000000 0.000000 1.570800
    33 2.046988 0.000000 0.000000 0.180251 -0.053991 -0.254337
  time 17
    0 0.235347 -41.347126 39.701887 0.000000 0.000000 -1.531542
    1 0.320322 0.015625 0.000000 0.000000 -1.570450 -1.570790
    2 1.293671 0.684478 -0.000001 -0.000004 -0.000001 0.044411
    3 5.309690 -0.003834 0.000000 0.039130 0.002697 -0.069728
    4 4.826789 -0.004591 0.000000 -0.027481 0.000252 0.008717
    5 5.792767 -0.005304 0.000000 -0.215411 0.003895 0.017025
    6 6.662318 -0.001453 0.000000 0.000000 -0.000001 0.471000
    7 -3.112020 1.517251 4.341910 -0.954424 -1.233532 3.596592
    8 4.827230 0.000000 0.000000 -0.472939 1.254612 -0.610109
    9 -2.869900 1.399661 -4.140400 -0.948909 1.235949 1.748209
    10 4.972051 0.000000 -0.000002 0.022477 -1.316226 0.156750
    11 11.139798 0.000000 0.000001 0.000000 0.000000 -0.165142
    12 0.000004 -0.000003 -3.713250 3.138421 -0.017257 3.154886
    13 -0.000004 0.000007 3.713250 -3.146945 0.025615 2.835164
    14 18.045700 0.000000 0.000000 0.000000 0.000000 -0.098026
    15 17.597601 0.000000 0.000000 0.002310 -0.017385 0.148552
    16 3.793090 6.407220 0.000000 0.000000 0.000000 1.570800
    17 10.314602 0.000000 -0.000001 -1.570000 0.000000 0.011945
    18 2.975830 -0.386307 -0.044143 -0.000797 -0.043611 0.000035
    19 1.438889 -0.000001 0.000000 0.000000 0.000000 0.314000
    20 1.646739 0.449550 -1.702251 0.154002 0.442277 0.277235
    21 0.928312 0.000000 -0.000002 0.000000 0.000000 0.000000
    22 0.928312 -0.000002 0.000001 0.000000 0.000000 0.000000
    23 11.585398 0.000000 0.000001 0.000000 0.000000 -1.558012
    24 10.127097 0.000000 0.000000 1.569750 0.000000 -0.069778
    25 2.683750 -0.427338 0.044205 0.001045 0.043611 0.000046
    26 1.438891 0.000000 0.000001 0.000000 0.000000 1.064084
    27 1.533672 0.109716 1.664490 -0.233255 -0.412980 0.435684
    28 0.928313 0.000001 0.000000 0.000000 0.000000 0.000000
    29 0.928314 0.000000 0.000001 0.000000 0.000000 0.000000
    30 18.045698 0.000000 0.000000 0.000000 0.000000 -1.266255
    31 17.597605 0.000000 0.000000 -0.025919 0.003553 -0.374896
    32 3.793091 6.407220 0.000000 0.000000 0.000000 1.570800
    33 2.046988 0.000000 0.000000 0.148619 -0.048544 -0.245394
  time 18
    0 0.235347 -43.819783 39.666729 0.000000 0.000000 -1.548999
    1 0.320322 0.023438 0.000000 0.000000 -1.570450 -1.570790
    2 1.293671 0.684478 -0.000001 -0.000004 -0.000001 0.044411
    3 5.309690 -0.003834 0.000000 0.056555 0.003895 -0.069678
    4 4.826789 -0.004591 0.000000 -0.015257 0.000144 0.008717
    5 5.792767 -0.005304 0.000000 -0.204936 0.003703 0.017073
    6 6.662318 -0.001453 0.000000 0.000000 -0.000001 0.471000
    7 -3.112020 1.517251 4.341910 -1.004810 -1.209374 3.644000
    8 4.827230 0.000000 0.000000 -0.282393 1.282714 -0.459071
    9 -2.869900 1.399661 -4.140400 -0.948909 1.235949 1.748209
    10 4.972051 0.000000 -0.000002 0.124809 -1.315602 0.092460
    11 11.139798 0.000000 0.000001 0.000000 0.000000 -0.165142
    12 0.000004 -0.000003 -3.713250 3.130859 -0.018192 3.197505
    13 -0.000004 0.000007 3.713250 -3.147820 0.025412 2.737516
    14 18.045700 0.000000 0.000000 0.000000 0.000000 -0.131980
    15 17.597601 0.000000 0.000000 0.003361 -0.018943 0.201153
    16 3.793090 6.407220 0.000000 0.000000 0.000000 1.570800
    17 10.314602 0.000000 -0.000001 -1.570000 0.000000 0.051243
    18 2.975830 -0.386307 -0.044143 -0.000797 -0.043611 0.000035
    19 1.438889 -0.000001 0.000000 0.000000 0.000000 0.314000
    20 1.646739 0.449550 -1.702251 0.154002 0.442277 0.277235
    21 0.928312 0.000000 -0.000002 0.000000 0.000000 0.000000
    22 0.928312 -0.000002 0.000001 0.000000 0.000000 0.000000
    23 11.585398 0.000000 0.000001 0.000000 0.000000 -1.547532
    24 10.127097 0.000000 0.000000 1.569750 0.000000 -0.069778
    25 2.683750 -0.427338 0.044205 0.001045 0.043611 0.000046
    26 1.438891 0.000000 0.000001 0.000000 0.000000 1.064084
    27 1.533672 0.109716 1.664490 -0.233255 -0.412980 0.435684
    28 0.928313 0.000001 0.000000 0.000000 0.000000 0.000000
    29 0.928314 0.000000 0.000001 0.000000 0.000000 0.000000
    30 18.045698 0.000000 0.000000 0.000000 0.000000 -1.302945
    31 17.597605 0.000000 0.000000 -0.025005 0.004212 -0.362240
    32 3.793091 6.407220 0.000000 0.000000 0.000000 1.570800
    33 2.046988 0.000000 0.000000 0.114378 -0.041602 -0.236483
  time 19
    0 0.235347 -46.331505 39.576883 0.000000 0.000000 -1.567670
    1 0.320322 0.027345 0.000000 0.000000 -1.570450 -1.570790
    2 1.293671 0.684478 -0.000001 -0.000004 -0.000001 0.044411
    3 5.309690 -0.003834 0.000000 0.075191 0.005190 -0.069591
    4 4.826789 -0.004591 0.000000 -0.002181 0.000012 0.008717
    5 5.792767 -0.005304 0.000000 -0.193731 0.003511 0.017109
    6 6.662318 -0.001453 0.000000 0.000000 -0.000001 0.471000
    7 -3.112020 1.517251 4.341910 -1.051979 -1.182730 3.687854
    8 4.827230 0.000000 0.000000 -0.044039 1.297664 -0.263174
    9 -2.869900 1.399661 -4.140400 -0.948909 1.235949 1.748209
    10 4.972051 0.000000 -0.000002 0.232501 -1.312330 0.025488
    11 11.139798 0.000000 0.000001 0.000000 0.000000 -0.165142
    12 0.000004 -0.000003 -3.713250 3.130991 -0.017808 3.233519
    13 -0.000004 0.000007 3.713250 -3.147497 0.025519 2.644838
    14 18.045700 0.000000 0.000000 0.000000 0.000000 -0.179282
    15 17.597601 0.000000 0.000000 0.004809 -0.018775 0.245270
    16 3.793090 6.407220 0.000000 0.000000 0.000000 1.570800
    17 10.314602 0.000000 -0.000001 -1.570000 0.000000 0.093261
    18 2.975830 -0.386307 -0.044143 -0.000797 -0.043611 0.000035
    19 1.438889 -0.000001 0.000000 0.000000 0.000000 0.314000
    20 1.646739 0.449550 -1.702251 0.154002 0.442277 0.277235
    21 0.928312 0.000000 -0.000002 0.000000 0.000000 0.000000
    22 0.928312 -0.000002 0.000001 0.000000 0.000000 0.000000
    23 11.585398 0.000000 0.000001 0.000000 0.000000 -1.536339
    24 10.127097 0.000000 0.000000 1.569750 0.000000 -0.069778
    25 2.683750 -0.427338 0.044205 0.001045 0.043611 0.000046
    26 1.438891 0.000000 0.000001 0.000000 0.000000 1.064084
    27 1.533672 0.109716 1.664490 -0.233255 -0.412980 0.435684
    28 0.928313 0.000001 0.000000 0.000000 0.000000 0.000000
    29 0.928314 0.000000 0.000001 0.000000 0.000000 0.000000
    30 18.045698 0.000000 0.000000 0.000000 0.000000 -1.266905
    31 17.597605 0.000000 0.000000 -0.022963 0.007232 -0.283048
    32 3.793091 6.407220 0.000000 0.000000 0.000000 1.570800
    33 2.046988 0.000000 0.000000 0.078831 -0.033351 -0.228099
  time 20
    0 0.235347 -48.851039 39.447973 0.000000 0.000000 -1.586949
    1 0.320322 0.035157 0.000000 0.000000 -1.570450 -1.570790
    2 1.293671 0.684478 -0.000001 -0.000004 -0.000001 0.044411
    3 5.309690 -0.003834 0.000000 0.094427 0.006508 -0.069478
    4 4.826789 -0.004591 0.000000 0.011301 -0.000108 0.008717
    5 5.792767 -0.005304 0.000000 -0.182166 0.003296 0.017145
    6 6.662318 -0.001453 0.000000 0.000000 -0.000001 0.471000
    7 -3.112020 1.517251 4.341910 -1.094536 -1.154477 3.727048
    8 4.827230 0.000000 0.000000 0.212860 1.294188 -0.050261
    9 -2.869900 1.399661 -4.140400 -0.948909 1.235949 1.748209
    10 4.972051 0.000000 -0.000002 0.339578 -1.306233 -0.039595
    11 11.139798 0.000000 0.000001 0.000000 0.000000 -0.165142
    12 0.000004 -0.000003 -3.713250 3.134250 -0.017089 3.265244
    13 -0.000004 0.000007 3.713250 -3.148983 0.024968 2.563287
    14 18.045700 0.000000 0.000000 0.000000 0.000000 -0.230829
    15 17.597601 0.000000 0.000000 0.005738 -0.017708 0.277577
    16 3.793090 6.407220 0.000000 0.000000 0.000000 1.570800
    17 10.314602 0.000000 -0.000001 -1.570000 0.000000 0.136645
    18 2.975830 -0.386307 -0.044143 -0.000797 -0.043611 0.000035
    19 1.438889 -0.000001 0.000000 0.000000 0.000000 0.314000
    20 1.646739 0.449550 -1.702251 0.154002 0.442277 0.277235
    21 0.928312 0.000000 -0.000002 0.000000 0.000000 0.000000
    22 0.928312 -0.000002 0.000001 0.000000 0.000000 0.000000
    23 11.585398 0.000000 0.000001 0.000000 0.000000 -1.524761
    24 10.127097 0.000000 0.000000 1.569750 0.000000 -0.069778
    25 2.683750 -0.427338 0.044205 0.001045 0.043611 0.000046
    26 1.438891 0.000000 0.000001 0.000000 0.000000 1.064084
    27 1.533672 0.109716 1.664490 -0.233255 -0.412980 0.435684
    28 0.928313 0.000001 0.000000 0.000000 0.000000 0.000000
    29 0.928314 0.000000 0.000001 0.000000 0.000000 0.000000
    30 18.045698 0.000000 0.000000 0.000000 0.000000 -1.187737
    31 17.597605 0.000000 0.000000 -0.019935 0.013260 -0.158651
    32 3.793091 6.407220 0.000000 0.000000 0.000000 1.570800
    33 2.046988 0.000000 0.000000 0.043253 -0.024065 -0.220864
  time 21
    0 0.235347 -51.347135 39.287812 0.000000 0.000000 -1.606278
    1 0.320322 0.039064 0.000000 0.000000 -1.570450 -1.570790
    2 1.293671 0.684478 -0.000001 -0.000004 -0.000001 0.044411
    3 5.309690 -0.003834 0.000000 0.113662 0.007826 -0.069341
    4 4.826789 -0.004591 0.000000 0.024796 -0.000227 0.008717
    5 5.792767 -0.005304 0.000000 -0.170588 0.003092 0.017181
    6 6.662318 -0.001453 0.000000 0.000000 -0.000001 0.471000
    7 -3.112020 1.517251 4.341910 -1.131953 -1.125663 3.761007
    8 4.827230 0.000000 0.000000 0.446155 1.272236 0.138836
    9 -2.869900 1.399661 -4.140400 -0.948909 1.235949 1.748209
    10 4.972051 0.000000 -0.000002 0.440906 -1.297609 -0.098767
    11 11.139798 0.000000 0.000001 0.000000 0.000000 -0.165142
    12 0.000004 -0.000003 -3.713250 3.136048 -0.016646 3.294963
    13 -0.000004 0.000007 3.713250 -3.155095 0.022415 2.499114
    14 18.045700 0.000000 0.000000 0.000000 0.000000 -0.277762
    15 17.597601 0.000000 0.000000 0.005266 -0.016738 0.294726
    16 3.793090 6.407220 0.000000 0.000000 0.000000 1.570800
    17 10.314602 0.000000 -0.000001 -1.570000 0.000000 0.180029
    18 2.975830 -0.386307 -0.044143 -0.000797 -0.043611 0.000035
    19 1.438889 -0.000001 0.000000 0.000000 0.000000 0.314000
    20 1.646739 0.449550 -1.702251 0.154002 0.442277 0.277235
    21 0.928312 0.000000 -0.000002 0.000000 0.000000 0.000000
    22 0.928312 -0.000002 0.000001 0.000000 0.000000 0.000000
    23 11.585398 0.000000 0.000001 0.000000 0.000000 -1.513239
    24 10.127097 0.000000 0.000000 1.569750 0.000000 -0.069778
    25 2.683750 -0.427338 0.044205 0.001045 0.043611 0.000046
    26 1.438891 0.000000 0.000001 0.000000 0.000000 1.064084
    27 1.533672 0.109716 1.664490 -0.233255 -0.412980 0.435684
    28 0.928313 0.000001 0.000000 0.000000 0.000000 0.000000
    29 0.928314 0.000000 0.000001 0.000000 0.000000 0.000000
    30 18.045698 0.000000 0.000000 0.000000 0.000000 -1.094920
    31 17.597605 0.000000 0.000000 -0.013952 0.022141 -0.010358
    32 3.793091 6.407220 0.000000 0.000000 0.000000 1.570800
    33 2.046988 0.000000 0.000000 0.008887 -0.014135 -0.215243
  time 22
    0 0.235347 -53.784635 39.119838 0.000000 0.000000 -1.624950
    1 0.320322 0.046876 0.000000 0.000000 -1.570450 -1.570790
    2 1.293671 0.684478 -0.000001 -0.000004 -0.000001 0.044411
    3 5.309690 -0.003834 0.000000 0.132298 0.009108 -0.069179
    4 4.826789 -0.004591 0.000000 0.037871 -0.000359 0.008705
    5 5.792767 -0.005304 0.000000 -0.159395 0.002888 0.017217
    6 6.662318 -0.001453 0.000000 0.000000 -0.000001 0.471000
    7 -3.112020 1.517251 4.341910 -1.164039 -1.097288 3.789826
    8 4.827230 0.000000 0.000000 0.630560 1.236914 0.280214
    9 -2.869900 1.399661 -4.140400 -0.948909 1.235949 1.748209
    10 4.972051 0.000000 -0.000002 0.532407 -1.287051 -0.149468
    11 11.139798 0.000000 0.000001 0.000000 0.000000 -0.165142
    12 0.000004 -0.000003 -3.713250 3.135629 -0.016490 3.320393
    13 -0.000004 0.000007 3.713250 -3.194776 0.008010 2.568226
    14 18.045700 0.000000 0.000000 0.000000 0.000000 -0.316883
    15 17.597601 0.000000 0.000000 0.002218 -0.015875 0.282351
    16 3.793090 6.407220 0.000000 0.000000 0.000000 1.570800
    17 10.314602 0.000000 -0.000001 -1.570000 0.000000 0.222047
    18 2.975830 -0.386307 -0.044143 -0.000797 -0.043611 0.000035
    19 1.438889 -0.000001 0.000000 0.000000 0.000000 0.314000
    20 1.646739 0.449550 -1.702251 0.154002 0.442277 0.277235
    21 0.928312 0.000000 -0.000002 0.000000 0.000000 0.000000
    22 0.928312 -0.000002 0.000001 0.000000 0.000000 0.000000
    23 11.585398 0.000000 0.000001 0.000000 0.000000 -1.501991
    24 10.127097 0.000000 0.000000 1.569750 0.000000 -0.069778
    25 2.683750 -0.427338 0.044205 0.001045 0.043611 0.000046
    26 1.438891 0.000000 0.000001 0.000000 0.000000 1.064084
    27 1.533672 0.109716 1.664490 -0.233255 -0.412980 0.435684
    28 0.928313 0.000001 0.000000 0.000000 0.000000 0.000000
    29 0.928314 0.000000 0.000001 0.000000 0.000000 0.000000
    30 18.045698 0.000000 0.000000 0.000000 0.000000 -0.817653
    31 17.597605 0.000000 0.000000 0.022234 0.035935 0.391373
    32 3.793091 6.407220 0.000000 0.000000 0.000000 1.570800
    33 2.046988 0.000000 0.000000 -0.023024 -0.004045 -0.211703
  time 23
    0 0.235347 -56.132289 38.955770 0.000000 0.000000 -1.642407
    1 0.316416 0.050783 0.000000 0.000000 -1.570450 -1.570790
    2 1.293671 0.684478 -0.000001 -0.000004 -0.000001 0.044411
    3 5.309690 -0.003834 0.000000 0.149711 0.010295 -0.069017
    4 4.826789 -0.004591 0.000000 0.050095 -0.000467 0.008705
    5 5.792767 -0.005304 0.000000 -0.148908 0.002696 0.017253
    6 6.662318 -0.001453 0.000000 0.000000 -0.000001 0.471000
    7 -3.112020 1.517251 4.341910 -1.191033 -1.070400 3.813650
    8 4.827230 0.000000 0.000000 0.764830 1.194859 0.374018
    9 -2.869900 1.399661 -4.140400 -0.948909 1.235949 1.748209
    10 4.972051 0.000000 -0.000002 0.611627 -1.275511 -0.190480
    11 11.139798 0.000000 0.000001 0.000000 0.000000 -0.165142
    12 0.000004 -0.000003 -3.713250 3.135281 -0.016370 3.340884
    13 -0.000004 0.000007 3.713250 -3.247580 -0.004166 2.701390
    14 18.045700 0.000000 0.000000 0.000000 0.000000 -0.353052
    15 17.597601 0.000000 0.000000 -0.002841 -0.015084 0.245021
    16 3.793090 6.407220 0.000000 0.000000 0.000000 1.570800
    17 10.314602 0.000000 -0.000001 -1.570000 0.000000 0.261344
    18 2.975830 -0.386307 -0.044143 -0.000797 -0.043611 0.000035
    19 1.438889 -0.000001 0.000000 0.000000 0.000000 0.314000
    20 1.646739 0.449550 -1.702251 0.154002 0.442277 0.277235
    21 0.928312 0.000000 -0.000002 0.000000 0.000000 0.000000
    22 0.928312 -0.000002 0.000001 0.000000 0.000000 0.000000
    23 11.585398 0.000000 0.000001 0.000000 0.000000 -1.491511
    24 10.127097 0.000000 0.000000 1.569750 0.000000 -0.069778
    25 2.683750 -0.427338 0.044205 0.001045 0.043611 0.000046
    26 1.438891 0.000000 0.000001 0.000000 0.000000 1.064084
    27 1.533672 0.109716 1.664490 -0.233255 -0.412980 0.435684
    28 0.928313 0.000001 0.000000 0.000000 0.000000 0.000000
    29 0.928314 0.000000 0.000001 0.000000 0.000000 0.000000
    30 18.045698 0.000000 0.000000 0.000000 0.000000 -0.475456
    31 17.597605 0.000000 0.000000 0.047958 0.034940 0.166851
    32 3.793091 6.407220 0.000000 0.000000 0.000000 1.570800
    33 2.046988 0.000000 0.000000 -0.051362 0.005655 -0.210648
  time 24
    0 0.235347 -57.382253 38.811235 0.000000 0.000000 -1.658042
    1 0.316416 0.054689 0.000000 0.000000 -1.570450 -1.570790
    2 1.293671 0.684478 -0.000001 -0.000004 -0.000001 0.044411
    3 5.309690 -0.003834 0.000000 0.165327 0.011362 -0.068842
    4 4.826789 -0.004591 0.000000 0.061049 -0.000575 0.008693
    5 5.792767 -0.005304 0.000000 -0.139524 0.002529 0.017277
    6 6.662318 -0.001453 0.000000 0.000000 -0.000001 0.471000
    7 -3.112020 1.517251 4.341910 -1.212984 -1.046071 3.832815
    8 4.827230 0.000000 0.000000 0.858598 1.152049 0.431428
    9 -2.869900 1.399661 -4.140400 -0.948909 1.235949 1.748209
    10 4.972051 0.000000 -0.000002 0.677392 -1.263972 -0.221863
    11 11.139798 0.000000 0.000001 0.000000 0.000000 -0.165142
    12 0.000004 -0.000003 -3.713250 3.134957 -0.016238 3.361376
    13 -0.000004 0.000007 3.713250 -3.303752 -0.008781 2.846566
    14 18.045700 0.000000 0.000000 0.000000 0.000000 -0.389159
    15 17.597601 0.000000 0.000000 -0.007976 -0.014772 0.207669
    16 3.793090 6.407220 0.000000 0.000000 0.000000 1.570800
    17 10.314602 0.000000 -0.000001 -1.570000 0.000000 0.296555
    18 2.975830 -0.386307 -0.044143 -0.000797 -0.043611 0.000035
    19 1.438889 -0.000001 0.000000 0.000000 0.000000 0.314000
    20 1.646739 0.449550 -1.702251 0.154002 0.442277 0.277235
    21 0.928312 0.000000 -0.000002 0.000000 0.000000 0.000000
    22 0.928312 -0.000002 0.000001 0.000000 0.000000 0.000000
    23 11.585398 0.000000 0.000001 0.000000 0.000000 -1.482128
    24 10.127097 0.000000 0.000000 1.569750 0.000000 -0.069778
    25 2.683750 -0.427338 0.044205 0.001045 0.043611 0.000046
    26 1.438891 0.000000 0.000001 0.000000 0.000000 1.064084
    27 1.533672 0.109716 1.664490 -0.233255 -0.412980 0.435684
    28 0.928313 0.000001 0.000000 0.000000 0.000000 0.000000
    29 0.928314 0.000000 0.000001 0.000000 0.000000 0.000000
    30 18.045698 0.000000 0.000000 0.000000 0.000000 -0.121501
    31 17.597605 0.000000 0.000000 0.070547 0.038656 -0.171174
    32 3.793091 6.407220 0.000000 0.000000 0.000000 1.570800
    33 2.046988 0.000000 0.000000 -0.008669 0.015561 -0.272192
end
