// Created by Crowbar 0.74
version 1
nodes
  0 "ValveBiped.hips" -1
  1 "ValveBiped.leg_bone1_L" 0
  2 "ValveBiped.leg_bone2_L" 1
  3 "ValveBiped.leg_bone3_L" 2
  4 "ValveBiped.Bip01_L_Foot" 3
  5 "ValveBiped.Bip01_L_Toe0" 4
  6 "ValveBiped.leg_bone1_R" 0
  7 "ValveBiped.leg_bone2_R" 6
  8 "ValveBiped.leg_bone3_R" 7
  9 "ValveBiped.Bip01_R_Foot" 8
  10 "ValveBiped.Bip01_R_Toe0" 9
  11 "ValveBiped.spine1" 0
  12 "ValveBiped.spine2" 11
  13 "ValveBiped.spine3" 12
  14 "ValveBiped.spine4" 13
  15 "ValveBiped.neck1" 14
  16 "ValveBiped.neck2" 15
  17 "ValveBiped.head" 16
  18 "ValveBiped.clavical_L" 14
  19 "ValveBiped.arm1_L" 18
  20 "ValveBiped.arm2_L" 19
  21 "ValveBiped.hand1_L" 20
  22 "ValveBiped.index1_L" 21
  23 "ValveBiped.index2_L" 22
  24 "ValveBiped.index3_L" 23
  25 "ValveBiped.pinky1_L" 21
  26 "ValveBiped.pinky2_L" 25
  27 "ValveBiped.pinky3_L" 26
  28 "ValveBiped.clavical_R" 14
  29 "ValveBiped.arm1_R" 28
  30 "ValveBiped.arm2_R" 29
  31 "ValveBiped.hand1_R" 30
  32 "ValveBiped.index1_R" 31
  33 "ValveBiped.index2_R" 32
  34 "ValveBiped.index3_R" 33
  35 "ValveBiped.pinky1_R" 31
  36 "ValveBiped.pinky2_R" 35
  37 "ValveBiped.pinky3_R" 36
  38 "ValveBiped.cleaver_attachment" 31
  39 "ValveBiped.bone" 13
  40 "ValveBiped.bone1" 39
  41 "ValveBiped.bone2" 40
  42 "ValveBiped.bone3" 41
  43 "ValveBiped.bone4" 42
  44 "ValveBiped.bone5" 41
  45 "ValveBiped.bone6" 44
  46 "ValveBiped.nectar" 21
  47 "ValveBiped.forward" 17
  48 "ValveBiped.hlp_wrist_L" 20
  49 "ValveBiped.hlp_ulna_L" 20
  50 "ValveBiped.l_shoulderBlade" 18
  51 "ValveBiped.hlp_ulna_R" 30
  52 "ValveBiped.hlp_wrist_R" 30
  53 "ValveBiped.r_shoulderBlade" 28
end
skeleton
  time 0
    0 0.000002 6.867188 40.375000 0.000000 -0.261794 -1.570796
    1 0.000002 3.722111 -0.000003 -1.019347 1.246155 0.575673
    2 16.293058 -0.000001 0.000000 0.000000 0.000000 1.509012
    3 14.550485 0.000000 0.000000 0.000000 0.000000 -1.542944
    4 13.312028 0.000000 0.000000 0.029086 0.172969 0.169211
    5 7.548074 0.000000 -0.000001 -0.005134 -0.005140 -1.136543
    6 -0.000008 -3.722115 -0.000005 -2.125860 1.244091 -0.578604
    7 16.293055 -0.000002 0.000000 0.000000 0.000000 1.514068
    8 14.550489 -0.000001 0.000000 0.000000 0.000000 -1.548196
    9 13.312049 0.000122 0.000000 -0.017708 -0.174894 0.174185
    10 7.637530 0.000000 0.000000 -0.076864 -0.005156 -1.140261
    11 1.521736 0.000004 4.280872 -1.570805 -1.405235 0.000008
    12 3.403125 0.000000 0.000000 0.000000 0.000000 0.110428
    13 4.482062 0.000000 0.000000 0.000000 0.000000 0.204522
    14 10.798348 0.000000 0.000000 0.000000 0.000000 0.769527
    15 4.747087 0.000003 0.000000 0.000001 0.000000 0.673778
    16 6.478227 0.000000 0.000000 0.000000 0.000000 0.122291
    17 5.452011 -0.000002 0.000000 0.000000 0.000000 0.253363
    18 1.508954 -0.508922 1.824568 0.000002 -1.370796 -3.141541
    19 5.310891 -0.000001 0.000000 -1.281563 -0.100195 -0.131305
    20 20.607864 0.000001 0.000005 0.000000 0.000000 -0.916453
    21 15.149604 0.000003 -0.000002 -0.286585 0.235568 -0.144811
    22 4.065570 0.002192 -1.519180 -0.071226 0.269312 -0.307220
    23 3.619752 0.000000 -0.000002 0.000000 0.000000 0.113446
    24 3.076452 0.000003 -0.000006 0.000000 0.000000 0.436333
    25 4.173203 -0.002194 1.519182 0.010009 0.088350 -0.196909
    26 3.619755 0.000001 0.000006 0.000000 0.000000 0.017457
    27 3.076452 0.000002 -0.000002 0.000000 0.000000 0.366516
    28 1.508950 -0.508920 -1.824640 -0.000008 1.370793 -3.141546
    29 5.310891 0.000001 0.000000 1.281563 0.100195 -0.131305
    30 20.607861 -0.000001 0.000003 0.000000 0.000000 -0.916453
    31 15.149600 0.000000 0.000000 0.286586 -0.235569 -0.144810
    32 4.065568 0.002194 1.519178 0.071226 -0.269312 -0.307220
    33 3.619751 -0.000001 -0.000002 0.000000 0.000000 0.113446
    34 3.076451 -0.000001 0.000004 0.000000 0.000000 0.436333
    35 4.173203 -0.002192 -1.519185 -0.010009 -0.088350 -0.196909
    36 3.619754 0.000001 0.000000 0.000000 0.000000 0.017457
    37 3.076450 0.000002 0.000000 0.000000 0.000000 0.366516
    38 3.548693 1.687083 1.906621 -3.054447 0.049373 -1.604879
    39 3.444982 7.027712 -0.000027 0.000000 0.000000 3.065041
    40 6.662012 0.000000 0.000000 0.000000 0.000000 -2.783442
    41 6.061831 -0.000001 0.000000 0.000000 0.000000 2.645724
    42 2.288945 0.044154 -0.938771 -0.141729 -0.059397 0.338445
    43 3.500005 -0.000005 -0.000001 0.000000 0.000000 1.460283
    44 2.463229 -0.122145 0.785866 -0.037350 -0.273327 0.333895
    45 3.453002 -0.000004 -0.000001 0.000000 0.000000 1.447892
    46 5.179169 2.228604 -0.990341 -0.716974 0.883236 -0.667835
    47 3.999999 1.999997 0.000000 1.570796 0.000000 -0.122173
    48 15.149603 0.000000 -0.000006 -0.240625 0.235568 -0.144811
    49 7.910053 0.000000 -0.000004 -0.065928 0.000000 0.000000
    50 3.808902 2.999998 -1.557297 -2.027529 -0.521202 -0.556116
    51 7.438743 0.000001 -0.000001 0.000000 0.000000 0.000000
    52 15.149600 0.000001 0.000000 0.445865 -0.105183 -0.171931
    53 4.808901 3.000004 1.557291 2.140411 0.378178 -0.355629
  time 1
    0 0.000002 6.867188 40.375000 0.000000 -0.261794 -1.570796
    1 0.000002 3.722111 -0.000003 -1.019347 1.246155 0.575673
    2 16.293058 -0.000001 0.000000 0.000000 0.000000 1.509012
    3 14.550485 0.000000 0.000000 0.000000 0.000000 -1.542944
    4 13.312028 0.000000 0.000000 0.029086 0.172969 0.169211
    5 7.548074 0.000000 -0.000001 -0.005134 -0.005140 -1.136543
    6 -0.000008 -3.722115 -0.000005 -2.125860 1.244091 -0.578604
    7 16.293055 -0.000002 0.000000 0.000000 0.000000 1.514068
    8 14.550489 -0.000001 0.000000 0.000000 0.000000 -1.548196
    9 13.312049 0.000122 0.000000 -0.017708 -0.174894 0.174185
    10 7.637530 0.000000 0.000000 -0.076864 -0.005156 -1.140261
    11 1.521736 0.000004 4.280872 -1.570805 -1.405235 0.000008
    12 3.403125 0.000000 0.000000 0.000000 0.000000 0.110428
    13 4.482062 0.000000 0.000000 0.000000 0.000000 0.204522
    14 10.798348 0.000000 0.000000 0.000000 0.000000 0.769527
    15 4.747087 0.000003 0.000000 0.000001 0.000000 0.673778
    16 6.478227 0.000000 0.000000 0.000000 0.000000 0.122291
    17 5.452011 -0.000002 0.000000 0.000000 0.000000 0.253363
    18 1.508954 -0.508922 1.824568 0.000002 -1.370796 -3.141541
    19 5.310891 -0.000001 0.000000 -1.281563 -0.100195 -0.131305
    20 20.607864 0.000001 0.000005 0.000000 0.000000 -0.916453
    21 15.149604 0.000003 -0.000002 -0.286585 0.235568 -0.144811
    22 4.065570 0.002192 -1.519180 -0.071226 0.269312 -0.307220
    23 3.619752 0.000000 -0.000002 0.000000 0.000000 0.113446
    24 3.076452 0.000003 -0.000006 0.000000 0.000000 0.436333
    25 4.173203 -0.002194 1.519182 0.010009 0.088350 -0.196909
    26 3.619755 0.000001 0.000006 0.000000 0.000000 0.017457
    27 3.076452 0.000002 -0.000002 0.000000 0.000000 0.366516
    28 1.508950 -0.508920 -1.824640 -0.000008 1.370793 -3.141546
    29 5.310891 0.000001 0.000000 1.281563 0.100195 -0.131305
    30 20.607861 -0.000001 0.000003 0.000000 0.000000 -0.916453
    31 15.149600 0.000000 0.000000 0.286586 -0.235569 -0.144810
    32 4.065568 0.002194 1.519178 0.071226 -0.269312 -0.307220
    33 3.619751 -0.000001 -0.000002 0.000000 0.000000 0.113446
    34 3.076451 -0.000001 0.000004 0.000000 0.000000 0.436333
    35 4.173203 -0.002192 -1.519185 -0.010009 -0.088350 -0.196909
    36 3.619754 0.000001 0.000000 0.000000 0.000000 0.017457
    37 3.076450 0.000002 0.000000 0.000000 0.000000 0.366516
    38 3.548693 1.687083 1.906621 -3.054447 0.049373 -1.604879
    39 3.444982 7.027712 -0.000027 0.000000 0.000000 3.065041
    40 6.662012 0.000000 0.000000 0.000000 0.000000 -2.783442
    41 6.061831 -0.000001 0.000000 0.000000 0.000000 2.645724
    42 2.288945 0.044154 -0.938771 -0.141729 -0.059397 0.338445
    43 3.500005 -0.000005 -0.000001 0.000000 0.000000 1.460283
    44 2.463229 -0.122145 0.785866 -0.037350 -0.273327 0.333895
    45 3.453002 -0.000004 -0.000001 0.000000 0.000000 1.447892
    46 5.179169 2.228604 -0.990341 -0.716974 0.883236 -0.667835
    47 3.999999 1.999997 0.000000 1.570796 0.000000 -0.122173
    48 15.149603 0.000000 -0.000006 -0.240625 0.235568 -0.144811
    49 7.910053 0.000000 -0.000004 -0.065928 0.000000 0.000000
    50 3.808902 2.999998 -1.557297 -2.027529 -0.521202 -0.556116
    51 7.438743 0.000001 -0.000001 0.000000 0.000000 0.000000
    52 15.149600 0.000001 0.000000 0.445865 -0.105183 -0.171931
    53 4.808901 3.000004 1.557291 2.140411 0.378178 -0.355629
  time 2
    0 0.000002 6.867188 40.375000 0.000000 -0.261794 -1.570796
    1 0.000002 3.722111 -0.000003 -1.019347 1.246155 0.575673
    2 16.293058 -0.000001 0.000000 0.000000 0.000000 1.509012
    3 14.550485 0.000000 0.000000 0.000000 0.000000 -1.542944
    4 13.312028 0.000000 0.000000 0.029086 0.172969 0.169211
    5 7.548074 0.000000 -0.000001 -0.005134 -0.005140 -1.136543
    6 -0.000008 -3.722115 -0.000005 -2.125860 1.244091 -0.578604
    7 16.293055 -0.000002 0.000000 0.000000 0.000000 1.514068
    8 14.550489 -0.000001 0.000000 0.000000 0.000000 -1.548196
    9 13.312049 0.000122 0.000000 -0.017708 -0.174894 0.174185
    10 7.637530 0.000000 0.000000 -0.076864 -0.005156 -1.140261
    11 1.521736 0.000004 4.280872 -1.570805 -1.405235 0.000008
    12 3.403125 0.000000 0.000000 0.000000 0.000000 0.110428
    13 4.482062 0.000000 0.000000 0.000000 0.000000 0.204522
    14 10.798348 0.000000 0.000000 0.000000 0.000000 0.769527
    15 4.747087 0.000003 0.000000 0.000001 0.000000 0.673778
    16 6.478227 0.000000 0.000000 0.000000 0.000000 0.122291
    17 5.452011 -0.000002 0.000000 0.000000 0.000000 0.253363
    18 1.508954 -0.508922 1.824568 0.000002 -1.370796 -3.141541
    19 5.310891 -0.000001 0.000000 -1.281563 -0.100195 -0.131305
    20 20.607864 0.000001 0.000005 0.000000 0.000000 -0.916453
    21 15.149604 0.000003 -0.000002 -0.286585 0.235568 -0.144811
    22 4.065570 0.002192 -1.519180 -0.071226 0.269312 -0.307220
    23 3.619752 0.000000 -0.000002 0.000000 0.000000 0.113446
    24 3.076452 0.000003 -0.000006 0.000000 0.000000 0.436333
    25 4.173203 -0.002194 1.519182 0.010009 0.088350 -0.196909
    26 3.619755 0.000001 0.000006 0.000000 0.000000 0.017457
    27 3.076452 0.000002 -0.000002 0.000000 0.000000 0.366516
    28 1.508950 -0.508920 -1.824640 -0.000008 1.370793 -3.141546
    29 5.310891 0.000001 0.000000 1.281563 0.100195 -0.131305
    30 20.607861 -0.000001 0.000003 0.000000 0.000000 -0.916453
    31 15.149600 0.000000 0.000000 0.286586 -0.235569 -0.144810
    32 4.065568 0.002194 1.519178 0.071226 -0.269312 -0.307220
    33 3.619751 -0.000001 -0.000002 0.000000 0.000000 0.113446
    34 3.076451 -0.000001 0.000004 0.000000 0.000000 0.436333
    35 4.173203 -0.002192 -1.519185 -0.010009 -0.088350 -0.196909
    36 3.619754 0.000001 0.000000 0.000000 0.000000 0.017457
    37 3.076450 0.000002 0.000000 0.000000 0.000000 0.366516
    38 3.548693 1.687083 1.906621 -3.054447 0.049373 -1.604879
    39 3.444982 7.027712 -0.000027 0.000000 0.000000 3.065041
    40 6.662012 0.000000 0.000000 0.000000 0.000000 -2.783442
    41 6.061831 -0.000001 0.000000 0.000000 0.000000 2.645724
    42 2.288945 0.044154 -0.938771 -0.141729 -0.059397 0.338445
    43 3.500005 -0.000005 -0.000001 0.000000 0.000000 1.460283
    44 2.463229 -0.122145 0.785866 -0.037350 -0.273327 0.333895
    45 3.453002 -0.000004 -0.000001 0.000000 0.000000 1.447892
    46 5.179169 2.228604 -0.990341 -0.716974 0.883236 -0.667835
    47 3.999999 1.999997 0.000000 1.570796 0.000000 -0.122173
    48 15.149603 0.000000 -0.000006 -0.240625 0.235568 -0.144811
    49 7.910053 0.000000 -0.000004 -0.065928 0.000000 0.000000
    50 3.808902 2.999998 -1.557297 -2.027529 -0.521202 -0.556116
    51 7.438743 0.000001 -0.000001 0.000000 0.000000 0.000000
    52 15.149600 0.000001 0.000000 0.445865 -0.105183 -0.171931
    53 4.808901 3.000004 1.557291 2.140411 0.378178 -0.355629
end
