// Created by Crowbar 0.74
version 1
nodes
  0 "ValveBiped.Bip01" -1
  1 "ValveBiped.Bip01_Pelvis" 0
  2 "ValveBiped.Bip01_L_Thigh" 1
  3 "ValveBiped.Bip01_L_Calf" 2
  4 "ValveBiped.Bip01_L_Foot" 3
  5 "ValveBiped.Bip01_L_Toe0" 4
  6 "ValveBiped.Bip01_R_Thigh" 1
  7 "ValveBiped.Bip01_R_Calf" 6
  8 "ValveBiped.Bip01_R_Foot" 7
  9 "ValveBiped.Bip01_R_Toe0" 8
  10 "ValveBiped.Cod" 1
  11 "ValveBiped.Pouch" 1
  12 "ValveBiped.Bip01_Spine" 0
  13 "ValveBiped.Bip01_Spine1" 12
  14 "ValveBiped.Bip01_Spine2" 13
  15 "ValveBiped.Bip01_Spine4" 14
  16 "ValveBiped.Bip01_Neck1" 15
  17 "ValveBiped.Bip01_Head1" 16
  18 "ValveBiped.Bip01_L_Clavicle" 15
  19 "ValveBiped.Bip01_L_UpperArm" 18
  20 "ValveBiped.Bip01_L_Forearm" 19
  21 "ValveBiped.Bip01_L_Hand" 20
  22 "ValveBiped.Bip01_L_Finger4" 21
  23 "ValveBiped.Bip01_L_Finger41" 22
  24 "ValveBiped.Bip01_L_Finger42" 23
  25 "ValveBiped.Bip01_L_Finger3" 21
  26 "ValveBiped.Bip01_L_Finger31" 25
  27 "ValveBiped.Bip01_L_Finger32" 26
  28 "ValveBiped.Bip01_L_Finger2" 21
  29 "ValveBiped.Bip01_L_Finger21" 28
  30 "ValveBiped.Bip01_L_Finger22" 29
  31 "ValveBiped.Bip01_L_Finger1" 21
  32 "ValveBiped.Bip01_L_Finger11" 31
  33 "ValveBiped.Bip01_L_Finger12" 32
  34 "ValveBiped.Bip01_L_Finger0" 21
  35 "ValveBiped.Bip01_L_Finger01" 34
  36 "ValveBiped.Bip01_L_Finger02" 35
  37 "ValveBiped.Bip01_R_Clavicle" 15
  38 "ValveBiped.Bip01_R_UpperArm" 37
  39 "ValveBiped.Bip01_R_Forearm" 38
  40 "ValveBiped.Bip01_R_Hand" 39
  41 "ValveBiped.Bip01_R_Finger4" 40
  42 "ValveBiped.Bip01_R_Finger41" 41
  43 "ValveBiped.Bip01_R_Finger42" 42
  44 "ValveBiped.Bip01_R_Finger3" 40
  45 "ValveBiped.Bip01_R_Finger31" 44
  46 "ValveBiped.Bip01_R_Finger32" 45
  47 "ValveBiped.Bip01_R_Finger2" 40
  48 "ValveBiped.Bip01_R_Finger21" 47
  49 "ValveBiped.Bip01_R_Finger22" 48
  50 "ValveBiped.Bip01_R_Finger1" 40
  51 "ValveBiped.Bip01_R_Finger11" 50
  52 "ValveBiped.Bip01_R_Finger12" 51
  53 "ValveBiped.Bip01_R_Finger0" 40
  54 "ValveBiped.Bip01_R_Finger01" 53
  55 "ValveBiped.Bip01_R_Finger02" 54
end
skeleton
  time 0
    0 -0.002349 -0.531261 38.566917 1.570796 0.000000 0.000000
    1 0.000000 0.000000 0.000000 0.000000 0.000000 0.000000
    2 3.890452 -0.000004 -0.000003 -1.995309 0.053289 -1.558791
    3 17.848177 0.000000 0.000000 0.000000 0.000000 0.034200
    4 16.525253 0.000000 0.000000 -0.112251 -0.116836 -1.054692
    5 6.879454 0.000000 0.000000 -0.007299 -0.002951 -0.584373
    6 -3.890452 0.000004 0.000007 -1.350627 0.052240 -1.579616
    7 17.848173 0.000000 0.000000 0.000000 0.000000 0.034187
    8 16.525257 0.000000 0.000000 0.240671 0.304680 -1.029506
    9 6.879455 0.000000 0.000000 -0.081333 -0.002951 -0.584373
    10 -0.044717 2.313936 4.661499 -0.039270 0.000000 0.000000
    11 4.041916 4.954661 -8.467939 0.000000 -0.392699 0.000000
    12 0.000005 3.345128 -2.981901 1.570796 0.086293 1.570796
    13 4.018331 0.000000 0.000000 0.000000 0.000000 -0.029242
    14 3.518565 0.000000 0.000000 0.000000 0.000000 0.100336
    15 8.942642 0.000000 0.000000 0.000000 0.000000 0.194096
    16 3.307271 0.000000 0.000000 3.141590 0.000000 0.259108
    17 3.593712 -0.000001 0.000000 0.411813 0.104373 0.711151
    18 2.033346 1.000768 1.937660 0.989539 -1.171041 3.589787
    19 6.028142 0.000002 0.000000 -0.599416 -0.098249 -0.946817
    20 11.692554 0.000000 -0.000001 0.000000 0.000000 -0.060372
    21 11.481673 0.000000 -0.000032 1.573183 -0.106613 0.044193
    22 3.859703 -0.142404 -1.191974 -0.479144 0.152190 -0.879874
    23 1.312561 0.000002 0.000001 0.000000 0.009665 -0.439720
    24 0.729364 0.000000 0.000001 0.000000 0.004971 -0.244299
    25 3.942326 0.046773 -0.431443 -0.155014 0.073328 -0.810648
    26 1.539093 -0.000003 0.000000 0.000000 0.004460 -0.247797
    27 1.196322 -0.000002 0.000000 0.000000 0.007361 -0.430802
    28 3.883688 -0.046769 0.431443 0.085902 0.021830 -0.587867
    29 1.719574 0.000003 0.000000 0.000000 0.005516 -0.366478
    30 1.209183 -0.000001 0.000000 0.000000 0.003084 -0.216400
    31 3.859860 -0.137947 1.332466 0.354449 -0.042750 -0.531718
    32 1.719429 0.000003 -0.000001 0.000000 0.004074 -0.363009
    33 1.099666 0.000001 0.000001 0.000000 0.002596 -0.244331
    34 0.806048 -0.348923 1.321258 -1.206854 -0.679488 -0.789308
    35 1.789784 0.000001 0.000000 0.000000 0.007387 0.228523
    36 1.206999 0.000001 0.000001 0.000000 0.011267 0.362860
    37 2.033353 1.000771 -1.937610 -1.041886 1.204599 3.604889
    38 6.028142 0.000002 0.000000 1.402927 0.134853 -0.973290
    39 11.692552 0.000000 -0.000002 0.000000 0.000000 -0.060372
    40 11.481701 0.000000 0.000003 -1.564937 0.106606 0.044193
    41 3.859676 -0.132566 1.193108 0.479140 -0.158545 -0.879041
    42 1.312562 0.000002 0.000001 0.000000 -0.011932 -0.439672
    43 0.729364 0.000000 0.000001 0.000000 -0.006134 -0.244271
    44 3.942296 0.050330 0.431043 0.154999 -0.079305 -0.810205
    45 1.539097 0.000000 0.000000 0.000000 -0.005854 -0.247771
    46 1.196323 0.000000 0.000000 0.000000 -0.009663 -0.430761
    47 3.883660 -0.050327 -0.431043 -0.085905 -0.026404 -0.587695
    48 1.719577 -0.000004 0.000000 0.000000 -0.007974 -0.366436
    49 1.209182 0.000004 0.000000 0.000000 -0.004461 -0.216376
    50 3.859832 -0.148933 -1.331282 -0.354419 0.038567 -0.532001
    51 1.719425 0.000000 0.000000 0.000000 -0.006613 -0.362970
    52 1.099665 0.000001 0.000000 0.000000 -0.004211 -0.244312
    53 0.806018 -0.359833 -1.318334 1.204200 0.673618 -0.793956
    54 1.789784 0.000000 0.000002 0.000000 -0.006301 0.228555
    55 1.207000 0.000000 0.000001 0.000000 -0.009618 0.362905
  time 1
    0 -0.002349 -0.531261 38.566917 1.570796 0.000000 0.000000
    1 0.000000 0.000000 0.000000 0.000000 0.000000 0.000000
    2 3.890452 -0.000004 -0.000003 -1.995309 0.053289 -1.558791
    3 17.848177 0.000000 0.000000 0.000000 0.000000 0.034200
    4 16.525253 0.000000 0.000000 -0.112251 -0.116836 -1.054692
    5 6.879454 0.000000 0.000000 -0.007299 -0.002951 -0.584373
    6 -3.890452 0.000004 0.000007 -1.350627 0.052240 -1.579616
    7 17.848173 0.000000 0.000000 0.000000 0.000000 0.034187
    8 16.525257 0.000000 0.000000 0.240671 0.304680 -1.029506
    9 6.879455 0.000000 0.000000 -0.081333 -0.002951 -0.584373
    10 -0.044717 2.313936 4.661499 -0.039270 0.000000 0.000000
    11 4.041916 4.954661 -8.467939 0.000000 -0.392699 0.000000
    12 0.000005 3.345128 -2.981901 1.570796 0.086293 1.570796
    13 4.018331 0.000000 0.000000 0.000000 0.000000 -0.029242
    14 3.518565 0.000000 0.000000 0.000000 0.000000 0.100336
    15 8.942642 0.000000 0.000000 0.000000 0.000000 0.194096
    16 3.307271 0.000000 0.000000 3.141590 0.000000 0.259108
    17 3.593712 -0.000001 0.000000 0.411813 0.104373 0.711151
    18 2.033346 1.000768 1.937660 0.989539 -1.171041 3.589787
    19 6.028142 0.000002 0.000000 -0.599446 -0.098249 -0.946817
    20 11.692554 0.000000 -0.000001 0.000000 0.000000 -0.060372
    21 11.481673 0.000000 -0.000032 1.573183 -0.106613 0.044193
    22 3.859703 -0.142404 -1.191974 -0.479144 0.152190 -0.879874
    23 1.312561 0.000002 0.000001 0.000000 0.009665 -0.439720
    24 0.729364 0.000000 0.000001 0.000000 0.004971 -0.244299
    25 3.942326 0.046773 -0.431443 -0.155014 0.073328 -0.810648
    26 1.539093 -0.000003 0.000000 0.000000 0.004460 -0.247797
    27 1.196322 -0.000002 0.000000 0.000000 0.007361 -0.430802
    28 3.883688 -0.046769 0.431443 0.085902 0.021830 -0.587867
    29 1.719574 0.000003 0.000000 0.000000 0.005516 -0.366478
    30 1.209183 -0.000001 0.000000 0.000000 0.003084 -0.216400
    31 3.859860 -0.137947 1.332466 0.354449 -0.042750 -0.531718
    32 1.719429 0.000003 -0.000001 0.000000 0.004074 -0.363009
    33 1.099666 0.000001 0.000001 0.000000 0.002596 -0.244331
    34 0.806048 -0.348923 1.321258 -1.206854 -0.679488 -0.789308
    35 1.789784 0.000001 0.000000 0.000000 0.007387 0.228523
    36 1.206999 0.000001 0.000001 0.000000 0.011267 0.362860
    37 2.033353 1.000771 -1.937610 -1.041886 1.204599 3.604889
    38 6.028142 0.000002 0.000000 1.402927 0.134853 -0.973290
    39 11.692552 0.000000 -0.000002 0.000000 0.000000 -0.060372
    40 11.481701 0.000000 0.000003 -1.564937 0.106606 0.044193
    41 3.859676 -0.132566 1.193108 0.479140 -0.158545 -0.879041
    42 1.312562 0.000002 0.000001 0.000000 -0.011932 -0.439672
    43 0.729364 0.000000 0.000001 0.000000 -0.006134 -0.244271
    44 3.942296 0.050330 0.431043 0.154999 -0.079305 -0.810205
    45 1.539097 0.000000 0.000000 0.000000 -0.005854 -0.247771
    46 1.196323 0.000000 0.000000 0.000000 -0.009663 -0.430761
    47 3.883660 -0.050327 -0.431043 -0.085905 -0.026404 -0.587695
    48 1.719577 -0.000004 0.000000 0.000000 -0.007974 -0.366436
    49 1.209182 0.000004 0.000000 0.000000 -0.004461 -0.216376
    50 3.859832 -0.148933 -1.331282 -0.354419 0.038567 -0.532001
    51 1.719425 0.000000 0.000000 0.000000 -0.006613 -0.362970
    52 1.099665 0.000001 0.000000 0.000000 -0.004211 -0.244312
    53 0.806018 -0.359833 -1.318334 1.204200 0.673618 -0.793956
    54 1.789784 0.000000 0.000002 0.000000 -0.006301 0.228555
    55 1.207000 0.000000 0.000001 0.000000 -0.009618 0.362905
end
