// Created by Crowbar 0.74
version 1
nodes
  0 "ValveBiped.Bip01" -1
  1 "ValveBiped.Bip01_Spine" 0
  2 "ValveBiped.Bip01_Spine1" 1
  3 "ValveBiped.Bip01_Spine2" 2
  4 "ValveBiped.Bip01_Spine4" 3
  5 "ValveBiped.Bip01_L_Clavicle" 4
  6 "ValveBiped.Bip01_L_UpperArm" 5
  7 "ValveBiped.Bip01_L_Forearm" 6
end
skeleton
  time 0
    0 -13.000000 -1.071289 -13.125000 1.570674 0.000061 -0.000061
    1 0.000000 3.345132 -2.981898 1.570796 -0.167321 1.570796
    2 4.001674 0.000000 0.000000 0.000000 0.000000 -0.329319
    3 3.501194 0.000000 0.000000 0.000000 0.000000 0.097307
    4 10.379999 0.000000 0.000000 0.000000 0.000000 0.186413
    5 1.966379 0.994008 1.937661 1.589740 -1.286515 2.950147
    6 4.145986 0.000002 0.000000 -1.534847 0.091944 -0.418392
    7 12.835728 0.000000 0.000002 0.000000 0.000000 -0.333853
end
