// Created by Crowbar 0.74
version 1
nodes
  0 "ValveBiped.Bip01" -1
  1 "ValveBiped.Bip01_Pelvis" 0
  2 "ValveBiped.Bip01_L_Thigh" 1
  3 "ValveBiped.Bip01_L_Calf" 2
  4 "ValveBiped.Bip01_L_Foot" 3
  5 "ValveBiped.Bip01_R_Thigh" 1
  6 "ValveBiped.Bip01_R_Calf" 5
  7 "ValveBiped.Bip01_R_Foot" 6
  8 "ValveBiped.Bip01_Spine" 0
  9 "ValveBiped.Bip01_Spine1" 8
  10 "ValveBiped.Bip01_Spine2" 9
  11 "ValveBiped.Bip01_Spine4" 10
  12 "ValveBiped.Bip01_Neck1" 11
  13 "ValveBiped.Bip01_Head1" 12
  14 "ValveBiped.Bip01_L_Clavicle" 11
  15 "ValveBiped.Bip01_L_UpperArm" 14
  16 "ValveBiped.Bip01_L_Forearm" 15
  17 "ValveBiped.Bip01_L_Hand" 16
  18 "ValveBiped.Bip01_L_Finger3" 17
  19 "ValveBiped.Bip01_L_Finger31" 18
  20 "ValveBiped.Bip01_L_Finger32" 19
  21 "ValveBiped.Bip01_L_Finger1" 17
  22 "ValveBiped.Bip01_L_Finger11" 21
  23 "ValveBiped.Bip01_L_Finger12" 22
  24 "ValveBiped.Bip01_L_Finger2" 17
  25 "ValveBiped.Bip01_L_Finger21" 24
  26 "ValveBiped.Bip01_L_Finger22" 25
  27 "ValveBiped.Bip01_R_Clavicle" 11
  28 "ValveBiped.Bip01_R_UpperArm" 27
  29 "ValveBiped.Bip01_R_Forearm" 28
  30 "ValveBiped.Bip01_R_Hand" 29
  31 "ValveBiped.Bip01_R_Finger3" 30
  32 "ValveBiped.Bip01_R_Finger31" 31
  33 "ValveBiped.Bip01_R_Finger32" 32
  34 "ValveBiped.Bip01_R_Finger2" 30
  35 "ValveBiped.Bip01_R_Finger21" 34
  36 "ValveBiped.Bip01_R_Finger22" 35
  37 "ValveBiped.Bip01_R_Finger1" 30
  38 "ValveBiped.Bip01_R_Finger11" 37
  39 "ValveBiped.Bip01_R_Finger12" 38
  40 "ValveBiped.HC_BodyCube" 11
  41 "ValveBiped.HC_HeadCube" 40
  42 "ValveBiped.HC_BoneLF" 41
  43 "ValveBiped.HC_BoneLF1" 42
  44 "ValveBiped.HC_BoneRF" 41
  45 "ValveBiped.HC_BoneRF1" 44
  46 "ValveBiped.HC_BoneLB" 40
  47 "ValveBiped.HC_BoneLB1" 46
  48 "ValveBiped.HC_BoneLB2" 47
  49 "ValveBiped.HC_BoneRB" 40
  50 "ValveBiped.HC_BoneRB1" 49
  51 "ValveBiped.HC_BoneRB2" 50
end
skeleton
  time 0
    0 1.516078 0.000000 38.353989 1.570796 0.000000 -1.570796
    1 0.000000 0.000000 0.000000 0.000000 0.000000 0.000000
    2 3.890447 0.000000 0.000000 -1.570796 -0.054711 -1.451993
    3 17.591000 0.000000 0.000000 0.000000 0.000000 0.153903
    4 17.699581 0.000000 0.000000 -0.122557 0.022046 -1.083904
    5 -3.890447 0.000000 0.000000 -1.570797 -0.054711 -1.689600
    6 17.590998 0.000000 0.000000 0.000000 0.000000 0.153903
    7 17.699581 0.000000 0.000000 0.133252 -0.022046 -1.083904
    8 0.000000 3.345132 -2.981898 1.570796 0.052893 1.570796
    9 4.126621 0.000000 0.000000 0.000000 0.000000 -0.109958
    10 3.612873 0.000000 0.000000 0.000000 0.000000 0.157085
    11 9.183975 0.000000 0.000000 0.000000 0.000000 0.173457
    12 3.138083 0.000000 0.000000 3.141592 0.000000 -0.936567
    13 1.707666 0.000001 0.000000 0.000000 0.000000 -0.403112
    14 1.663039 1.210510 2.595493 1.585881 -1.286515 2.954168
    15 6.028141 0.000002 0.000000 -1.570685 -0.056434 -0.592417
    16 12.693002 0.000000 0.000001 0.000000 0.000000 -0.762857
    17 11.575974 0.000001 -0.000031 1.151993 -0.002657 0.038189
    18 5.562233 -0.288268 -0.510574 -3.061675 0.198455 -0.005041
    19 5.158500 -0.000001 -0.000001 -0.070282 -0.005680 0.008797
    20 3.326002 -0.000001 0.000000 0.008885 -0.007390 0.009850
    21 5.591166 -0.279020 1.848881 -3.062784 -0.107159 0.004678
    22 5.292999 0.000001 -0.000002 -0.073575 -0.006250 0.008402
    23 3.079116 -0.000001 0.000002 0.006978 -0.006850 0.007920
    24 5.739738 -0.095433 0.607274 -3.063221 0.025568 -0.018370
    25 5.652501 -0.000001 0.000000 -0.067745 -0.006072 0.008532
    26 3.325017 0.000000 -0.000002 0.009338 -0.006636 0.008100
    27 1.663050 1.210515 -2.595442 -1.665774 1.282032 2.945760
    28 6.028141 -0.000001 0.000000 1.632088 0.067144 -0.580410
    29 12.693002 0.000000 0.000003 0.000000 0.000000 -0.811694
    30 11.599607 0.000002 0.000001 -1.164891 -0.106508 0.028596
    31 5.928185 0.378912 0.637283 2.945638 -0.186886 0.107105
    32 5.074002 0.000001 -0.000001 0.000000 0.000000 0.000000
    33 3.325999 0.000001 0.000002 0.000000 -0.000001 0.000000
    34 6.189647 0.568800 -0.554352 2.949214 -0.013682 0.082709
    35 5.511002 0.000002 0.000001 0.000000 0.000000 0.012404
    36 3.325017 -0.000001 -0.000001 0.000000 0.000000 -0.009884
    37 5.900460 0.299200 -1.780354 2.948545 0.128545 0.102472
    38 5.248501 0.000003 -0.000001 0.000000 0.000000 0.011838
    39 3.151001 0.000001 -0.000001 0.000000 0.000000 -0.010015
    40 7.600445 -0.908441 0.636362 0.000000 -1.570796 2.973902
    41 0.051795 -3.221541 -2.149795 1.570796 -0.003965 -3.124561
    42 -3.929418 0.000003 0.000000 0.456323 0.600730 -2.513550
    43 13.106231 0.000003 0.000000 0.000000 0.000000 2.026915
    44 3.929418 -0.000002 0.000000 -0.411327 0.538162 -0.583342
    45 13.106231 0.000002 0.000000 0.000000 0.000000 -2.064136
    46 3.007646 4.344520 0.542817 1.321605 -0.270767 0.706112
    47 10.074753 -0.000005 -0.000001 0.000000 0.000000 -1.630424
    48 10.292003 -0.000002 0.000000 0.000000 0.000000 -0.425803
    49 -2.753414 4.323161 0.558394 1.931780 -0.224239 2.278513
    50 10.074757 0.000002 0.000000 0.000000 0.000000 -1.604180
    51 10.292000 -0.000001 -0.000001 0.000000 0.000000 -0.406073
  time 1
    0 1.516078 0.000000 38.353989 1.570796 0.000000 -1.570796
    1 0.000000 0.000000 0.000000 0.000000 0.000000 0.000000
    2 3.890447 0.000000 0.000000 -1.570796 -0.054711 -1.451993
    3 17.591000 0.000000 0.000000 0.000000 0.000000 0.153903
    4 17.699581 0.000000 0.000000 -0.122557 0.022046 -1.083904
    5 -3.890447 0.000000 0.000000 -1.570797 -0.054711 -1.689600
    6 17.590998 0.000000 0.000000 0.000000 0.000000 0.153903
    7 17.699581 0.000000 0.000000 0.133252 -0.022046 -1.083904
    8 0.000000 3.345132 -2.981898 1.570796 0.052893 1.570796
    9 4.126621 0.000000 0.000000 0.000000 0.000000 -0.109958
    10 3.612873 0.000000 0.000000 0.000000 0.000000 0.157085
    11 9.183975 0.000000 0.000000 0.000000 0.000000 0.173457
    12 3.138083 0.000000 0.000000 3.141592 0.000000 -0.936567
    13 1.707666 0.000001 0.000000 0.000000 0.000000 -0.403112
    14 1.663039 1.210510 2.595493 1.585881 -1.286515 2.954168
    15 6.028141 0.000002 0.000000 -1.570685 -0.056434 -0.592417
    16 12.693002 0.000000 0.000001 0.000000 0.000000 -0.762857
    17 11.575974 0.000001 -0.000031 1.151993 -0.002657 0.038189
    18 5.562233 -0.288268 -0.510574 -3.061675 0.198455 -0.005041
    19 5.158500 -0.000001 -0.000001 -0.070282 -0.005680 0.008797
    20 3.326002 -0.000001 0.000000 0.008885 -0.007390 0.009850
    21 5.591166 -0.279020 1.848881 -3.062784 -0.107159 0.004678
    22 5.292999 0.000001 -0.000002 -0.073575 -0.006250 0.008402
    23 3.079116 -0.000001 0.000002 0.006978 -0.006850 0.007920
    24 5.739738 -0.095433 0.607274 -3.063221 0.025568 -0.018370
    25 5.652501 -0.000001 0.000000 -0.067745 -0.006072 0.008532
    26 3.325017 0.000000 -0.000002 0.009338 -0.006636 0.008100
    27 1.663050 1.210515 -2.595442 -1.665774 1.282032 2.945760
    28 6.028141 -0.000001 0.000000 1.632088 0.067144 -0.580410
    29 12.693002 0.000000 0.000003 0.000000 0.000000 -0.811694
    30 11.599607 0.000002 0.000001 -1.164891 -0.106508 0.028596
    31 5.928185 0.378912 0.637283 2.945638 -0.186886 0.107105
    32 5.074002 0.000001 -0.000001 0.000000 0.000000 0.000000
    33 3.325999 0.000001 0.000002 0.000000 -0.000001 0.000000
    34 6.189647 0.568800 -0.554352 2.949214 -0.013682 0.082709
    35 5.511002 0.000002 0.000001 0.000000 0.000000 0.012404
    36 3.325017 -0.000001 -0.000001 0.000000 0.000000 -0.009884
    37 5.900460 0.299200 -1.780354 2.948545 0.128545 0.102472
    38 5.248501 0.000003 -0.000001 0.000000 0.000000 0.011838
    39 3.151001 0.000001 -0.000001 0.000000 0.000000 -0.010015
    40 7.600445 -0.908441 0.636362 0.000000 -1.570796 2.973902
    41 0.051795 -3.221541 -2.149795 1.570796 -0.003965 -3.124561
    42 -3.929418 0.000003 0.000000 0.456323 0.600730 -2.513550
    43 13.106231 0.000003 0.000000 0.000000 0.000000 2.026915
    44 3.929418 -0.000002 0.000000 -0.411327 0.538162 -0.583342
    45 13.106231 0.000002 0.000000 0.000000 0.000000 -2.064136
    46 3.007646 4.344520 0.542817 1.321605 -0.270767 0.706112
    47 10.074753 -0.000005 -0.000001 0.000000 0.000000 -1.630424
    48 10.292003 -0.000002 0.000000 0.000000 0.000000 -0.425803
    49 -2.753414 4.323161 0.558394 1.931780 -0.224239 2.278513
    50 10.074757 0.000002 0.000000 0.000000 0.000000 -1.604180
    51 10.292000 -0.000001 -0.000001 0.000000 0.000000 -0.406073
  time 2
    0 1.516078 0.000000 38.353989 1.570796 0.000000 -1.570796
    1 0.000000 0.000000 0.000000 0.000000 0.000000 0.000000
    2 3.890447 0.000000 0.000000 -1.570796 -0.054711 -1.451993
    3 17.591000 0.000000 0.000000 0.000000 0.000000 0.153903
    4 17.699581 0.000000 0.000000 -0.122557 0.022046 -1.083904
    5 -3.890447 0.000000 0.000000 -1.570797 -0.054711 -1.689600
    6 17.590998 0.000000 0.000000 0.000000 0.000000 0.153903
    7 17.699581 0.000000 0.000000 0.133252 -0.022046 -1.083904
    8 0.000000 3.345132 -2.981898 1.570796 0.052893 1.570796
    9 4.126621 0.000000 0.000000 0.000000 0.000000 -0.109958
    10 3.612873 0.000000 0.000000 0.000000 0.000000 0.157085
    11 9.183975 0.000000 0.000000 0.000000 0.000000 0.173457
    12 3.138083 0.000000 0.000000 3.141592 0.000000 -0.936567
    13 1.707666 0.000001 0.000000 0.000000 0.000000 -0.403112
    14 1.663039 1.210510 2.595493 1.585881 -1.286515 2.954168
    15 6.028141 0.000002 0.000000 -1.570685 -0.056434 -0.592417
    16 12.693002 0.000000 0.000001 0.000000 0.000000 -0.762857
    17 11.575974 0.000001 -0.000031 1.151993 -0.002657 0.038189
    18 5.562233 -0.288268 -0.510574 -3.061675 0.198455 -0.005041
    19 5.158500 -0.000001 -0.000001 -0.070282 -0.005680 0.008797
    20 3.326002 -0.000001 0.000000 0.008885 -0.007390 0.009850
    21 5.591166 -0.279020 1.848881 -3.062784 -0.107159 0.004678
    22 5.292999 0.000001 -0.000002 -0.073575 -0.006250 0.008402
    23 3.079116 -0.000001 0.000002 0.006978 -0.006850 0.007920
    24 5.739738 -0.095433 0.607274 -3.063221 0.025568 -0.018370
    25 5.652501 -0.000001 0.000000 -0.067745 -0.006072 0.008532
    26 3.325017 0.000000 -0.000002 0.009338 -0.006636 0.008100
    27 1.663050 1.210515 -2.595442 -1.665774 1.282032 2.945760
    28 6.028141 -0.000001 0.000000 1.632088 0.067144 -0.580410
    29 12.693002 0.000000 0.000003 0.000000 0.000000 -0.811694
    30 11.599607 0.000002 0.000001 -1.164891 -0.106508 0.028596
    31 5.928185 0.378912 0.637283 2.945638 -0.186886 0.107105
    32 5.074002 0.000001 -0.000001 0.000000 0.000000 0.000000
    33 3.325999 0.000001 0.000002 0.000000 -0.000001 0.000000
    34 6.189647 0.568800 -0.554352 2.949214 -0.013682 0.082709
    35 5.511002 0.000002 0.000001 0.000000 0.000000 0.012404
    36 3.325017 -0.000001 -0.000001 0.000000 0.000000 -0.009884
    37 5.900460 0.299200 -1.780354 2.948545 0.128545 0.102472
    38 5.248501 0.000003 -0.000001 0.000000 0.000000 0.011838
    39 3.151001 0.000001 -0.000001 0.000000 0.000000 -0.010015
    40 7.600445 -0.908441 0.636362 0.000000 -1.570796 2.973902
    41 0.051795 -3.221541 -2.149795 1.570796 -0.003965 -3.124561
    42 -3.929418 0.000003 0.000000 0.456323 0.600730 -2.513550
    43 13.106231 0.000003 0.000000 0.000000 0.000000 2.026915
    44 3.929418 -0.000002 0.000000 -0.411327 0.538162 -0.583342
    45 13.106231 0.000002 0.000000 0.000000 0.000000 -2.064136
    46 3.007646 4.344520 0.542817 1.321605 -0.270767 0.706112
    47 10.074753 -0.000005 -0.000001 0.000000 0.000000 -1.630424
    48 10.292003 -0.000002 0.000000 0.000000 0.000000 -0.425803
    49 -2.753414 4.323161 0.558394 1.931780 -0.224239 2.278513
    50 10.074757 0.000002 0.000000 0.000000 0.000000 -1.604180
    51 10.292000 -0.000001 -0.000001 0.000000 0.000000 -0.406073
  time 3
    0 1.516078 0.000000 38.353989 1.570796 0.000000 -1.570796
    1 0.000000 0.000000 0.000000 0.000000 0.000000 0.000000
    2 3.890447 0.000000 0.000000 -1.570796 -0.054711 -1.451993
    3 17.591000 0.000000 0.000000 0.000000 0.000000 0.153903
    4 17.699581 0.000000 0.000000 -0.122557 0.022046 -1.083904
    5 -3.890447 0.000000 0.000000 -1.570797 -0.054711 -1.689600
    6 17.590998 0.000000 0.000000 0.000000 0.000000 0.153903
    7 17.699581 0.000000 0.000000 0.133252 -0.022046 -1.083904
    8 0.000000 3.345132 -2.981898 1.570796 0.052893 1.570796
    9 4.126621 0.000000 0.000000 0.000000 0.000000 -0.109958
    10 3.612873 0.000000 0.000000 0.000000 0.000000 0.157085
    11 9.183975 0.000000 0.000000 0.000000 0.000000 0.173457
    12 3.138083 0.000000 0.000000 3.141592 0.000000 -0.936567
    13 1.707666 0.000001 0.000000 0.000000 0.000000 -0.403112
    14 1.663039 1.210510 2.595493 1.585881 -1.286515 2.954168
    15 6.028141 0.000002 0.000000 -1.570685 -0.056434 -0.592417
    16 12.693002 0.000000 0.000001 0.000000 0.000000 -0.762857
    17 11.575974 0.000001 -0.000031 1.151993 -0.002657 0.038189
    18 5.562233 -0.288268 -0.510574 -3.061675 0.198455 -0.005041
    19 5.158500 -0.000001 -0.000001 -0.070282 -0.005680 0.008797
    20 3.326002 -0.000001 0.000000 0.008885 -0.007390 0.009850
    21 5.591166 -0.279020 1.848881 -3.062784 -0.107159 0.004678
    22 5.292999 0.000001 -0.000002 -0.073575 -0.006250 0.008402
    23 3.079116 -0.000001 0.000002 0.006978 -0.006850 0.007920
    24 5.739738 -0.095433 0.607274 -3.063221 0.025568 -0.018370
    25 5.652501 -0.000001 0.000000 -0.067745 -0.006072 0.008532
    26 3.325017 0.000000 -0.000002 0.009338 -0.006636 0.008100
    27 1.663050 1.210515 -2.595442 -1.665774 1.282032 2.945760
    28 6.028141 -0.000001 0.000000 1.632088 0.067144 -0.580410
    29 12.693002 0.000000 0.000003 0.000000 0.000000 -0.811694
    30 11.599607 0.000002 0.000001 -1.164891 -0.106508 0.028596
    31 5.928185 0.378912 0.637283 2.945638 -0.186886 0.107105
    32 5.074002 0.000001 -0.000001 0.000000 0.000000 0.000000
    33 3.325999 0.000001 0.000002 0.000000 -0.000001 0.000000
    34 6.189647 0.568800 -0.554352 2.949214 -0.013682 0.082709
    35 5.511002 0.000002 0.000001 0.000000 0.000000 0.012404
    36 3.325017 -0.000001 -0.000001 0.000000 0.000000 -0.009884
    37 5.900460 0.299200 -1.780354 2.948545 0.128545 0.102472
    38 5.248501 0.000003 -0.000001 0.000000 0.000000 0.011838
    39 3.151001 0.000001 -0.000001 0.000000 0.000000 -0.010015
    40 7.600445 -0.908441 0.636362 0.000000 -1.570796 2.973902
    41 0.051795 -3.221541 -2.149795 1.570796 -0.003965 -3.124561
    42 -3.929418 0.000003 0.000000 0.456323 0.600730 -2.513550
    43 13.106231 0.000003 0.000000 0.000000 0.000000 2.026915
    44 3.929418 -0.000002 0.000000 -0.411327 0.538162 -0.583342
    45 13.106231 0.000002 0.000000 0.000000 0.000000 -2.064136
    46 3.007646 4.344520 0.542817 1.321605 -0.270767 0.706112
    47 10.074753 -0.000005 -0.000001 0.000000 0.000000 -1.630424
    48 10.292003 -0.000002 0.000000 0.000000 0.000000 -0.425803
    49 -2.753414 4.323161 0.558394 1.931780 -0.224239 2.278513
    50 10.074757 0.000002 0.000000 0.000000 0.000000 -1.604180
    51 10.292000 -0.000001 -0.000001 0.000000 0.000000 -0.406073
  time 4
    0 1.516078 0.000000 38.353989 1.570796 0.000000 -1.570796
    1 0.000000 0.000000 0.000000 0.000000 0.000000 0.000000
    2 3.890447 0.000000 0.000000 -1.570796 -0.054711 -1.451993
    3 17.591000 0.000000 0.000000 0.000000 0.000000 0.153903
    4 17.699581 0.000000 0.000000 -0.122557 0.022046 -1.083904
    5 -3.890447 0.000000 0.000000 -1.570797 -0.054711 -1.689600
    6 17.590998 0.000000 0.000000 0.000000 0.000000 0.153903
    7 17.699581 0.000000 0.000000 0.133252 -0.022046 -1.083904
    8 0.000000 3.345132 -2.981898 1.570796 0.052893 1.570796
    9 4.126621 0.000000 0.000000 0.000000 0.000000 -0.109958
    10 3.612873 0.000000 0.000000 0.000000 0.000000 0.157085
    11 9.183975 0.000000 0.000000 0.000000 0.000000 0.173457
    12 3.138083 0.000000 0.000000 3.141592 0.000000 -0.936567
    13 1.707666 0.000001 0.000000 0.000000 0.000000 -0.403112
    14 1.663039 1.210510 2.595493 1.585881 -1.286515 2.954168
    15 6.028141 0.000002 0.000000 -1.570685 -0.056434 -0.592417
    16 12.693002 0.000000 0.000001 0.000000 0.000000 -0.762857
    17 11.575974 0.000001 -0.000031 1.151993 -0.002657 0.038189
    18 5.562233 -0.288268 -0.510574 -3.061675 0.198455 -0.005041
    19 5.158500 -0.000001 -0.000001 -0.070282 -0.005680 0.008797
    20 3.326002 -0.000001 0.000000 0.008885 -0.007390 0.009850
    21 5.591166 -0.279020 1.848881 -3.062784 -0.107159 0.004678
    22 5.292999 0.000001 -0.000002 -0.073575 -0.006250 0.008402
    23 3.079116 -0.000001 0.000002 0.006978 -0.006850 0.007920
    24 5.739738 -0.095433 0.607274 -3.063221 0.025568 -0.018370
    25 5.652501 -0.000001 0.000000 -0.067745 -0.006072 0.008532
    26 3.325017 0.000000 -0.000002 0.009338 -0.006636 0.008100
    27 1.663050 1.210515 -2.595442 -1.665774 1.282032 2.945760
    28 6.028141 -0.000001 0.000000 1.632088 0.067144 -0.580410
    29 12.693002 0.000000 0.000003 0.000000 0.000000 -0.811694
    30 11.599607 0.000002 0.000001 -1.164891 -0.106508 0.028596
    31 5.928185 0.378912 0.637283 2.945638 -0.186886 0.107105
    32 5.074002 0.000001 -0.000001 0.000000 0.000000 0.000000
    33 3.325999 0.000001 0.000002 0.000000 -0.000001 0.000000
    34 6.189647 0.568800 -0.554352 2.949214 -0.013682 0.082709
    35 5.511002 0.000002 0.000001 0.000000 0.000000 0.012404
    36 3.325017 -0.000001 -0.000001 0.000000 0.000000 -0.009884
    37 5.900460 0.299200 -1.780354 2.948545 0.128545 0.102472
    38 5.248501 0.000003 -0.000001 0.000000 0.000000 0.011838
    39 3.151001 0.000001 -0.000001 0.000000 0.000000 -0.010015
    40 7.600445 -0.908441 0.636362 0.000000 -1.570796 2.973902
    41 0.051795 -3.221541 -2.149795 1.570796 -0.003965 -3.124561
    42 -3.929418 0.000003 0.000000 0.456323 0.600730 -2.513550
    43 13.106231 0.000003 0.000000 0.000000 0.000000 2.026915
    44 3.929418 -0.000002 0.000000 -0.411327 0.538162 -0.583342
    45 13.106231 0.000002 0.000000 0.000000 0.000000 -2.064136
    46 3.007646 4.344520 0.542817 1.321605 -0.270767 0.706112
    47 10.074753 -0.000005 -0.000001 0.000000 0.000000 -1.630424
    48 10.292003 -0.000002 0.000000 0.000000 0.000000 -0.425803
    49 -2.753414 4.323161 0.558394 1.931780 -0.224239 2.278513
    50 10.074757 0.000002 0.000000 0.000000 0.000000 -1.604180
    51 10.292000 -0.000001 -0.000001 0.000000 0.000000 -0.406073
  time 5
    0 1.516078 0.000000 38.353989 1.570796 0.000000 -1.570796
    1 0.000000 0.000000 0.000000 0.000000 0.000000 0.000000
    2 3.890447 0.000000 0.000000 -1.570796 -0.054711 -1.451993
    3 17.591000 0.000000 0.000000 0.000000 0.000000 0.153903
    4 17.699581 0.000000 0.000000 -0.122557 0.022046 -1.083904
    5 -3.890447 0.000000 0.000000 -1.570797 -0.054711 -1.689600
    6 17.590998 0.000000 0.000000 0.000000 0.000000 0.153903
    7 17.699581 0.000000 0.000000 0.133252 -0.022046 -1.083904
    8 0.000000 3.345132 -2.981898 1.570796 0.052893 1.570796
    9 4.126621 0.000000 0.000000 0.000000 0.000000 -0.109958
    10 3.612873 0.000000 0.000000 0.000000 0.000000 0.157085
    11 9.183975 0.000000 0.000000 0.000000 0.000000 0.173457
    12 3.138083 0.000000 0.000000 3.141592 0.000000 -0.936567
    13 1.707666 0.000001 0.000000 0.000000 0.000000 -0.403112
    14 1.663039 1.210510 2.595493 1.585881 -1.286515 2.954168
    15 6.028141 0.000002 0.000000 -1.570685 -0.056434 -0.592417
    16 12.693002 0.000000 0.000001 0.000000 0.000000 -0.762857
    17 11.575974 0.000001 -0.000031 1.151993 -0.002657 0.038189
    18 5.562233 -0.288268 -0.510574 -3.061675 0.198455 -0.005041
    19 5.158500 -0.000001 -0.000001 -0.070282 -0.005680 0.008797
    20 3.326002 -0.000001 0.000000 0.008885 -0.007390 0.009850
    21 5.591166 -0.279020 1.848881 -3.062784 -0.107159 0.004678
    22 5.292999 0.000001 -0.000002 -0.073575 -0.006250 0.008402
    23 3.079116 -0.000001 0.000002 0.006978 -0.006850 0.007920
    24 5.739738 -0.095433 0.607274 -3.063221 0.025568 -0.018370
    25 5.652501 -0.000001 0.000000 -0.067745 -0.006072 0.008532
    26 3.325017 0.000000 -0.000002 0.009338 -0.006636 0.008100
    27 1.663050 1.210515 -2.595442 -1.665774 1.282032 2.945760
    28 6.028141 -0.000001 0.000000 1.632088 0.067144 -0.580410
    29 12.693002 0.000000 0.000003 0.000000 0.000000 -0.811694
    30 11.599607 0.000002 0.000001 -1.164891 -0.106508 0.028596
    31 5.928185 0.378912 0.637283 2.945638 -0.186886 0.107105
    32 5.074002 0.000001 -0.000001 0.000000 0.000000 0.000000
    33 3.325999 0.000001 0.000002 0.000000 -0.000001 0.000000
    34 6.189647 0.568800 -0.554352 2.949214 -0.013682 0.082709
    35 5.511002 0.000002 0.000001 0.000000 0.000000 0.012404
    36 3.325017 -0.000001 -0.000001 0.000000 0.000000 -0.009884
    37 5.900460 0.299200 -1.780354 2.948545 0.128545 0.102472
    38 5.248501 0.000003 -0.000001 0.000000 0.000000 0.011838
    39 3.151001 0.000001 -0.000001 0.000000 0.000000 -0.010015
    40 7.600445 -0.908441 0.636362 0.000000 -1.570796 2.973902
    41 0.051795 -3.221541 -2.149795 1.570796 -0.003965 -3.124561
    42 -3.929418 0.000003 0.000000 0.456323 0.600730 -2.513550
    43 13.106231 0.000003 0.000000 0.000000 0.000000 2.026915
    44 3.929418 -0.000002 0.000000 -0.411327 0.538162 -0.583342
    45 13.106231 0.000002 0.000000 0.000000 0.000000 -2.064136
    46 3.007646 4.344520 0.542817 1.321605 -0.270767 0.706112
    47 10.074753 -0.000005 -0.000001 0.000000 0.000000 -1.630424
    48 10.292003 -0.000002 0.000000 0.000000 0.000000 -0.425803
    49 -2.753414 4.323161 0.558394 1.931780 -0.224239 2.278513
    50 10.074757 0.000002 0.000000 0.000000 0.000000 -1.604180
    51 10.292000 -0.000001 -0.000001 0.000000 0.000000 -0.406073
  time 6
    0 1.516078 0.000000 38.353989 1.570796 0.000000 -1.570796
    1 0.000000 0.000000 0.000000 0.000000 0.000000 0.000000
    2 3.890447 0.000000 0.000000 -1.570796 -0.054711 -1.451993
    3 17.591000 0.000000 0.000000 0.000000 0.000000 0.153903
    4 17.699581 0.000000 0.000000 -0.122557 0.022046 -1.083904
    5 -3.890447 0.000000 0.000000 -1.570797 -0.054711 -1.689600
    6 17.590998 0.000000 0.000000 0.000000 0.000000 0.153903
    7 17.699581 0.000000 0.000000 0.133252 -0.022046 -1.083904
    8 0.000000 3.345132 -2.981898 1.570796 0.052893 1.570796
    9 4.126621 0.000000 0.000000 0.000000 0.000000 -0.109958
    10 3.612873 0.000000 0.000000 0.000000 0.000000 0.157085
    11 9.183975 0.000000 0.000000 0.000000 0.000000 0.173457
    12 3.138083 0.000000 0.000000 3.141592 0.000000 -0.936567
    13 1.707666 0.000001 0.000000 0.000000 0.000000 -0.403112
    14 1.663039 1.210510 2.595493 1.585881 -1.286515 2.954168
    15 6.028141 0.000002 0.000000 -1.570685 -0.056434 -0.592417
    16 12.693002 0.000000 0.000001 0.000000 0.000000 -0.762857
    17 11.575974 0.000001 -0.000031 1.151993 -0.002657 0.038189
    18 5.562233 -0.288268 -0.510574 -3.061675 0.198455 -0.005041
    19 5.158500 -0.000001 -0.000001 -0.070282 -0.005680 0.008797
    20 3.326002 -0.000001 0.000000 0.008885 -0.007390 0.009850
    21 5.591166 -0.279020 1.848881 -3.062784 -0.107159 0.004678
    22 5.292999 0.000001 -0.000002 -0.073575 -0.006250 0.008402
    23 3.079116 -0.000001 0.000002 0.006978 -0.006850 0.007920
    24 5.739738 -0.095433 0.607274 -3.063221 0.025568 -0.018370
    25 5.652501 -0.000001 0.000000 -0.067745 -0.006072 0.008532
    26 3.325017 0.000000 -0.000002 0.009338 -0.006636 0.008100
    27 1.663050 1.210515 -2.595442 -1.665774 1.282032 2.945760
    28 6.028141 -0.000001 0.000000 1.632088 0.067144 -0.580410
    29 12.693002 0.000000 0.000003 0.000000 0.000000 -0.811694
    30 11.599607 0.000002 0.000001 -1.164891 -0.106508 0.028596
    31 5.928185 0.378912 0.637283 2.945638 -0.186886 0.107105
    32 5.074002 0.000001 -0.000001 0.000000 0.000000 0.000000
    33 3.325999 0.000001 0.000002 0.000000 -0.000001 0.000000
    34 6.189647 0.568800 -0.554352 2.949214 -0.013682 0.082709
    35 5.511002 0.000002 0.000001 0.000000 0.000000 0.012404
    36 3.325017 -0.000001 -0.000001 0.000000 0.000000 -0.009884
    37 5.900460 0.299200 -1.780354 2.948545 0.128545 0.102472
    38 5.248501 0.000003 -0.000001 0.000000 0.000000 0.011838
    39 3.151001 0.000001 -0.000001 0.000000 0.000000 -0.010015
    40 7.600445 -0.908441 0.636362 0.000000 -1.570796 2.973902
    41 0.051795 -3.221541 -2.149795 1.570796 -0.003965 -3.124561
    42 -3.929418 0.000003 0.000000 0.456323 0.600730 -2.513550
    43 13.106231 0.000003 0.000000 0.000000 0.000000 2.026915
    44 3.929418 -0.000002 0.000000 -0.411327 0.538162 -0.583342
    45 13.106231 0.000002 0.000000 0.000000 0.000000 -2.064136
    46 3.007646 4.344520 0.542817 1.321605 -0.270767 0.706112
    47 10.074753 -0.000005 -0.000001 0.000000 0.000000 -1.630424
    48 10.292003 -0.000002 0.000000 0.000000 0.000000 -0.425803
    49 -2.753414 4.323161 0.558394 1.931780 -0.224239 2.278513
    50 10.074757 0.000002 0.000000 0.000000 0.000000 -1.604180
    51 10.292000 -0.000001 -0.000001 0.000000 0.000000 -0.406073
  time 7
    0 1.516078 0.000000 38.353989 1.570796 0.000000 -1.570796
    1 0.000000 0.000000 0.000000 0.000000 0.000000 0.000000
    2 3.890447 0.000000 0.000000 -1.570796 -0.054711 -1.451993
    3 17.591000 0.000000 0.000000 0.000000 0.000000 0.153903
    4 17.699581 0.000000 0.000000 -0.122557 0.022046 -1.083904
    5 -3.890447 0.000000 0.000000 -1.570797 -0.054711 -1.689600
    6 17.590998 0.000000 0.000000 0.000000 0.000000 0.153903
    7 17.699581 0.000000 0.000000 0.133252 -0.022046 -1.083904
    8 0.000000 3.345132 -2.981898 1.570796 0.052893 1.570796
    9 4.126621 0.000000 0.000000 0.000000 0.000000 -0.109958
    10 3.612873 0.000000 0.000000 0.000000 0.000000 0.157085
    11 9.183975 0.000000 0.000000 0.000000 0.000000 0.173457
    12 3.138083 0.000000 0.000000 3.141592 0.000000 -0.936567
    13 1.707666 0.000001 0.000000 0.000000 0.000000 -0.403112
    14 1.663039 1.210510 2.595493 1.585881 -1.286515 2.954168
    15 6.028141 0.000002 0.000000 -1.570685 -0.056434 -0.592417
    16 12.693002 0.000000 0.000001 0.000000 0.000000 -0.762857
    17 11.575974 0.000001 -0.000031 1.151993 -0.002657 0.038189
    18 5.562233 -0.288268 -0.510574 -3.061675 0.198455 -0.005041
    19 5.158500 -0.000001 -0.000001 -0.070282 -0.005680 0.008797
    20 3.326002 -0.000001 0.000000 0.008885 -0.007390 0.009850
    21 5.591166 -0.279020 1.848881 -3.062784 -0.107159 0.004678
    22 5.292999 0.000001 -0.000002 -0.073575 -0.006250 0.008402
    23 3.079116 -0.000001 0.000002 0.006978 -0.006850 0.007920
    24 5.739738 -0.095433 0.607274 -3.063221 0.025568 -0.018370
    25 5.652501 -0.000001 0.000000 -0.067745 -0.006072 0.008532
    26 3.325017 0.000000 -0.000002 0.009338 -0.006636 0.008100
    27 1.663050 1.210515 -2.595442 -1.665774 1.282032 2.945760
    28 6.028141 -0.000001 0.000000 1.632088 0.067144 -0.580410
    29 12.693002 0.000000 0.000003 0.000000 0.000000 -0.811694
    30 11.599607 0.000002 0.000001 -1.164891 -0.106508 0.028596
    31 5.928185 0.378912 0.637283 2.945638 -0.186886 0.107105
    32 5.074002 0.000001 -0.000001 0.000000 0.000000 0.000000
    33 3.325999 0.000001 0.000002 0.000000 -0.000001 0.000000
    34 6.189647 0.568800 -0.554352 2.949214 -0.013682 0.082709
    35 5.511002 0.000002 0.000001 0.000000 0.000000 0.012404
    36 3.325017 -0.000001 -0.000001 0.000000 0.000000 -0.009884
    37 5.900460 0.299200 -1.780354 2.948545 0.128545 0.102472
    38 5.248501 0.000003 -0.000001 0.000000 0.000000 0.011838
    39 3.151001 0.000001 -0.000001 0.000000 0.000000 -0.010015
    40 7.600445 -0.908441 0.636362 0.000000 -1.570796 2.973902
    41 0.051795 -3.221541 -2.149795 1.570796 -0.003965 -3.124561
    42 -3.929418 0.000003 0.000000 0.456323 0.600730 -2.513550
    43 13.106231 0.000003 0.000000 0.000000 0.000000 2.026915
    44 3.929418 -0.000002 0.000000 -0.411327 0.538162 -0.583342
    45 13.106231 0.000002 0.000000 0.000000 0.000000 -2.064136
    46 3.007646 4.344520 0.542817 1.321605 -0.270767 0.706112
    47 10.074753 -0.000005 -0.000001 0.000000 0.000000 -1.630424
    48 10.292003 -0.000002 0.000000 0.000000 0.000000 -0.425803
    49 -2.753414 4.323161 0.558394 1.931780 -0.224239 2.278513
    50 10.074757 0.000002 0.000000 0.000000 0.000000 -1.604180
    51 10.292000 -0.000001 -0.000001 0.000000 0.000000 -0.406073
  time 8
    0 1.516078 0.000000 38.353989 1.570796 0.000000 -1.570796
    1 0.000000 0.000000 0.000000 0.000000 0.000000 0.000000
    2 3.890447 0.000000 0.000000 -1.570796 -0.054711 -1.451993
    3 17.591000 0.000000 0.000000 0.000000 0.000000 0.153903
    4 17.699581 0.000000 0.000000 -0.122557 0.022046 -1.083904
    5 -3.890447 0.000000 0.000000 -1.570797 -0.054711 -1.689600
    6 17.590998 0.000000 0.000000 0.000000 0.000000 0.153903
    7 17.699581 0.000000 0.000000 0.133252 -0.022046 -1.083904
    8 0.000000 3.345132 -2.981898 1.570796 0.052893 1.570796
    9 4.126621 0.000000 0.000000 0.000000 0.000000 -0.109958
    10 3.612873 0.000000 0.000000 0.000000 0.000000 0.157085
    11 9.183975 0.000000 0.000000 0.000000 0.000000 0.173457
    12 3.138083 0.000000 0.000000 3.141592 0.000000 -0.936567
    13 1.707666 0.000001 0.000000 0.000000 0.000000 -0.403112
    14 1.663039 1.210510 2.595493 1.585881 -1.286515 2.954168
    15 6.028141 0.000002 0.000000 -1.570685 -0.056434 -0.592417
    16 12.693002 0.000000 0.000001 0.000000 0.000000 -0.762857
    17 11.575974 0.000001 -0.000031 1.151993 -0.002657 0.038189
    18 5.562233 -0.288268 -0.510574 -3.061675 0.198455 -0.005041
    19 5.158500 -0.000001 -0.000001 -0.070282 -0.005680 0.008797
    20 3.326002 -0.000001 0.000000 0.008885 -0.007390 0.009850
    21 5.591166 -0.279020 1.848881 -3.062784 -0.107159 0.004678
    22 5.292999 0.000001 -0.000002 -0.073575 -0.006250 0.008402
    23 3.079116 -0.000001 0.000002 0.006978 -0.006850 0.007920
    24 5.739738 -0.095433 0.607274 -3.063221 0.025568 -0.018370
    25 5.652501 -0.000001 0.000000 -0.067745 -0.006072 0.008532
    26 3.325017 0.000000 -0.000002 0.009338 -0.006636 0.008100
    27 1.663050 1.210515 -2.595442 -1.665774 1.282032 2.945760
    28 6.028141 -0.000001 0.000000 1.632088 0.067144 -0.580410
    29 12.693002 0.000000 0.000003 0.000000 0.000000 -0.811694
    30 11.599607 0.000002 0.000001 -1.164891 -0.106508 0.028596
    31 5.928185 0.378912 0.637283 2.945638 -0.186886 0.107105
    32 5.074002 0.000001 -0.000001 0.000000 0.000000 0.000000
    33 3.325999 0.000001 0.000002 0.000000 -0.000001 0.000000
    34 6.189647 0.568800 -0.554352 2.949214 -0.013682 0.082709
    35 5.511002 0.000002 0.000001 0.000000 0.000000 0.012404
    36 3.325017 -0.000001 -0.000001 0.000000 0.000000 -0.009884
    37 5.900460 0.299200 -1.780354 2.948545 0.128545 0.102472
    38 5.248501 0.000003 -0.000001 0.000000 0.000000 0.011838
    39 3.151001 0.000001 -0.000001 0.000000 0.000000 -0.010015
    40 7.600445 -0.908441 0.636362 0.000000 -1.570796 2.973902
    41 0.051795 -3.221541 -2.149795 1.570796 -0.003965 -3.124561
    42 -3.929418 0.000003 0.000000 0.456323 0.600730 -2.513550
    43 13.106231 0.000003 0.000000 0.000000 0.000000 2.026915
    44 3.929418 -0.000002 0.000000 -0.411327 0.538162 -0.583342
    45 13.106231 0.000002 0.000000 0.000000 0.000000 -2.064136
    46 3.007646 4.344520 0.542817 1.321605 -0.270767 0.706112
    47 10.074753 -0.000005 -0.000001 0.000000 0.000000 -1.630424
    48 10.292003 -0.000002 0.000000 0.000000 0.000000 -0.425803
    49 -2.753414 4.323161 0.558394 1.931780 -0.224239 2.278513
    50 10.074757 0.000002 0.000000 0.000000 0.000000 -1.604180
    51 10.292000 -0.000001 -0.000001 0.000000 0.000000 -0.406073
  time 9
    0 1.516078 0.000000 38.353989 1.570796 0.000000 -1.570796
    1 0.000000 0.000000 0.000000 0.000000 0.000000 0.000000
    2 3.890447 0.000000 0.000000 -1.570796 -0.054711 -1.451993
    3 17.591000 0.000000 0.000000 0.000000 0.000000 0.153903
    4 17.699581 0.000000 0.000000 -0.122557 0.022046 -1.083904
    5 -3.890447 0.000000 0.000000 -1.570797 -0.054711 -1.689600
    6 17.590998 0.000000 0.000000 0.000000 0.000000 0.153903
    7 17.699581 0.000000 0.000000 0.133252 -0.022046 -1.083904
    8 0.000000 3.345132 -2.981898 1.570796 0.052893 1.570796
    9 4.126621 0.000000 0.000000 0.000000 0.000000 -0.109958
    10 3.612873 0.000000 0.000000 0.000000 0.000000 0.157085
    11 9.183975 0.000000 0.000000 0.000000 0.000000 0.173457
    12 3.138083 0.000000 0.000000 3.141592 0.000000 -0.936567
    13 1.707666 0.000001 0.000000 0.000000 0.000000 -0.403112
    14 1.663039 1.210510 2.595493 1.585881 -1.286515 2.954168
    15 6.028141 0.000002 0.000000 -1.570685 -0.056434 -0.592417
    16 12.693002 0.000000 0.000001 0.000000 0.000000 -0.762857
    17 11.575974 0.000001 -0.000031 1.151993 -0.002657 0.038189
    18 5.562233 -0.288268 -0.510574 -3.061675 0.198455 -0.005041
    19 5.158500 -0.000001 -0.000001 -0.070282 -0.005680 0.008797
    20 3.326002 -0.000001 0.000000 0.008885 -0.007390 0.009850
    21 5.591166 -0.279020 1.848881 -3.062784 -0.107159 0.004678
    22 5.292999 0.000001 -0.000002 -0.073575 -0.006250 0.008402
    23 3.079116 -0.000001 0.000002 0.006978 -0.006850 0.007920
    24 5.739738 -0.095433 0.607274 -3.063221 0.025568 -0.018370
    25 5.652501 -0.000001 0.000000 -0.067745 -0.006072 0.008532
    26 3.325017 0.000000 -0.000002 0.009338 -0.006636 0.008100
    27 1.663050 1.210515 -2.595442 -1.665774 1.282032 2.945760
    28 6.028141 -0.000001 0.000000 1.632088 0.067144 -0.580410
    29 12.693002 0.000000 0.000003 0.000000 0.000000 -0.811694
    30 11.599607 0.000002 0.000001 -1.164891 -0.106508 0.028596
    31 5.928185 0.378912 0.637283 2.945638 -0.186886 0.107105
    32 5.074002 0.000001 -0.000001 0.000000 0.000000 0.000000
    33 3.325999 0.000001 0.000002 0.000000 -0.000001 0.000000
    34 6.189647 0.568800 -0.554352 2.949214 -0.013682 0.082709
    35 5.511002 0.000002 0.000001 0.000000 0.000000 0.012404
    36 3.325017 -0.000001 -0.000001 0.000000 0.000000 -0.009884
    37 5.900460 0.299200 -1.780354 2.948545 0.128545 0.102472
    38 5.248501 0.000003 -0.000001 0.000000 0.000000 0.011838
    39 3.151001 0.000001 -0.000001 0.000000 0.000000 -0.010015
    40 7.600445 -0.908441 0.636362 0.000000 -1.570796 2.973902
    41 0.051795 -3.221541 -2.149795 1.570796 -0.003965 -3.124561
    42 -3.929418 0.000003 0.000000 0.456323 0.600730 -2.513550
    43 13.106231 0.000003 0.000000 0.000000 0.000000 2.026915
    44 3.929418 -0.000002 0.000000 -0.411327 0.538162 -0.583342
    45 13.106231 0.000002 0.000000 0.000000 0.000000 -2.064136
    46 3.007646 4.344520 0.542817 1.321605 -0.270767 0.706112
    47 10.074753 -0.000005 -0.000001 0.000000 0.000000 -1.630424
    48 10.292003 -0.000002 0.000000 0.000000 0.000000 -0.425803
    49 -2.753414 4.323161 0.558394 1.931780 -0.224239 2.278513
    50 10.074757 0.000002 0.000000 0.000000 0.000000 -1.604180
    51 10.292000 -0.000001 -0.000001 0.000000 0.000000 -0.406073
  time 10
    0 1.516078 0.000000 38.353989 1.570796 0.000000 -1.570796
    1 0.000000 0.000000 0.000000 0.000000 0.000000 0.000000
    2 3.890447 0.000000 0.000000 -1.570796 -0.054711 -1.451993
    3 17.591000 0.000000 0.000000 0.000000 0.000000 0.153903
    4 17.699581 0.000000 0.000000 -0.122557 0.022046 -1.083904
    5 -3.890447 0.000000 0.000000 -1.570797 -0.054711 -1.689600
    6 17.590998 0.000000 0.000000 0.000000 0.000000 0.153903
    7 17.699581 0.000000 0.000000 0.133252 -0.022046 -1.083904
    8 0.000000 3.345132 -2.981898 1.570796 0.052893 1.570796
    9 4.126621 0.000000 0.000000 0.000000 0.000000 -0.109958
    10 3.612873 0.000000 0.000000 0.000000 0.000000 0.157085
    11 9.183975 0.000000 0.000000 0.000000 0.000000 0.173457
    12 3.138083 0.000000 0.000000 3.141592 0.000000 -0.936567
    13 1.707666 0.000001 0.000000 0.000000 0.000000 -0.403112
    14 1.663039 1.210510 2.595493 1.585881 -1.286515 2.954168
    15 6.028141 0.000002 0.000000 -1.570685 -0.056434 -0.592417
    16 12.693002 0.000000 0.000001 0.000000 0.000000 -0.762857
    17 11.575974 0.000001 -0.000031 1.151993 -0.002657 0.038189
    18 5.562233 -0.288268 -0.510574 -3.061675 0.198455 -0.005041
    19 5.158500 -0.000001 -0.000001 -0.070282 -0.005680 0.008797
    20 3.326002 -0.000001 0.000000 0.008885 -0.007390 0.009850
    21 5.591166 -0.279020 1.848881 -3.062784 -0.107159 0.004678
    22 5.292999 0.000001 -0.000002 -0.073575 -0.006250 0.008402
    23 3.079116 -0.000001 0.000002 0.006978 -0.006850 0.007920
    24 5.739738 -0.095433 0.607274 -3.063221 0.025568 -0.018370
    25 5.652501 -0.000001 0.000000 -0.067745 -0.006072 0.008532
    26 3.325017 0.000000 -0.000002 0.009338 -0.006636 0.008100
    27 1.663050 1.210515 -2.595442 -1.665774 1.282032 2.945760
    28 6.028141 -0.000001 0.000000 1.632088 0.067144 -0.580410
    29 12.693002 0.000000 0.000003 0.000000 0.000000 -0.811694
    30 11.599607 0.000002 0.000001 -1.164891 -0.106508 0.028596
    31 5.928185 0.378912 0.637283 2.945638 -0.186886 0.107105
    32 5.074002 0.000001 -0.000001 0.000000 0.000000 0.000000
    33 3.325999 0.000001 0.000002 0.000000 -0.000001 0.000000
    34 6.189647 0.568800 -0.554352 2.949214 -0.013682 0.082709
    35 5.511002 0.000002 0.000001 0.000000 0.000000 0.012404
    36 3.325017 -0.000001 -0.000001 0.000000 0.000000 -0.009884
    37 5.900460 0.299200 -1.780354 2.948545 0.128545 0.102472
    38 5.248501 0.000003 -0.000001 0.000000 0.000000 0.011838
    39 3.151001 0.000001 -0.000001 0.000000 0.000000 -0.010015
    40 7.600445 -0.908441 0.636362 0.000000 -1.570796 2.973902
    41 0.051795 -3.221541 -2.149795 1.570796 -0.003965 -3.124561
    42 -3.929418 0.000003 0.000000 0.456323 0.600730 -2.513550
    43 13.106231 0.000003 0.000000 0.000000 0.000000 2.026915
    44 3.929418 -0.000002 0.000000 -0.411327 0.538162 -0.583342
    45 13.106231 0.000002 0.000000 0.000000 0.000000 -2.064136
    46 3.007646 4.344520 0.542817 1.321605 -0.270767 0.706112
    47 10.074753 -0.000005 -0.000001 0.000000 0.000000 -1.630424
    48 10.292003 -0.000002 0.000000 0.000000 0.000000 -0.425803
    49 -2.753414 4.323161 0.558394 1.931780 -0.224239 2.278513
    50 10.074757 0.000002 0.000000 0.000000 0.000000 -1.604180
    51 10.292000 -0.000001 -0.000001 0.000000 0.000000 -0.406073
end
