// Created by Crowbar 0.74
version 1
nodes
  0 "Charple1.Pelvis" -1
  1 "Charple1.Lumbar" 0
  2 "Charple1.Spine" 1
  3 "Charple1.Humerus_R" 2
  4 "Charple1.Radius_R" 3
  5 "Charple1.Carpus_R" 4
  6 "Charple1.Humerus_L" 2
  7 "Charple1.Radius_L" 6
  8 "Charple1.Carpus_L" 7
  9 "Charple1.Head" 2
  10 "Charple1.Femur_R" 0
  11 "Charple1.Tibia_R" 10
  12 "Charple1.Tarsus_R" 11
  13 "Charple1.Femur_L" 0
  14 "Charple1.Tibia_L" 13
  15 "Charple1.Tarsus_L" 14
end
skeleton
  time 0
    0 0.000000 1.997070 41.906250 1.558883 -1.562171 -4.700311
    1 5.695656 0.000000 0.000000 0.000000 0.000000 -0.165717
    2 4.946400 0.000000 0.000000 0.000000 0.000000 0.130568
    3 6.479578 0.277505 -4.762589 0.081034 0.602582 3.003045
    4 12.049999 0.000000 -0.000002 0.709076 -0.035423 -2.392244
    5 10.621000 0.000000 0.000000 -0.687500 -0.623927 1.027513
    6 6.479581 0.277504 4.762589 0.217769 -0.737890 2.569549
    7 12.050000 0.000000 -0.000001 -0.830836 -0.226465 -2.363565
    8 10.621001 0.000000 0.000002 0.710337 0.781847 0.959592
    9 10.804881 -0.033414 0.000000 0.027512 0.015072 -0.518973
    10 -3.534505 -0.652041 -2.454911 0.078797 0.338791 1.946169
    11 18.591515 0.000000 0.000000 0.000000 0.000000 2.144828
    12 15.870234 0.000000 0.000000 0.000000 0.000000 -1.203282
    13 -3.534506 -0.652041 2.454911 -0.223513 -0.387713 2.082319
    14 18.591516 0.000000 0.000000 0.000000 0.000000 2.144828
    15 15.870234 0.000000 0.000000 0.000000 0.000000 -1.203282
end
