// Created by Crowbar 0.74
version 1
nodes
  0 "ValveBiped.Bip01" -1
  1 "ValveBiped.Bip01_Spine" 0
  2 "ValveBiped.Bip01_Spine2" 1
  3 "ValveBiped.Bip01_R_Clavicle" 2
  4 "ValveBiped.Bip01_R_UpperArm" 3
  5 "ValveBiped.Bip01_R_Forearm" 4
  6 "ValveBiped.Bip01_L_Clavicle" 2
  7 "ValveBiped.Bip01_L_UpperArm" 6
  8 "ValveBiped.Bip01_L_Forearm" 7
  9 "ValveBiped.Bip01_Head1" 2
  10 "ValveBiped.Bip01_L_Thigh" 0
  11 "ValveBiped.Bip01_L_Calf" 10
  12 "ValveBiped.Bip01_L_Foot" 11
  13 "ValveBiped.Bip01_R_Thigh" 0
  14 "ValveBiped.Bip01_R_Calf" 13
  15 "ValveBiped.Bip01_R_Foot" 14
end
skeleton
  time 0
    0 -3.486830 6.316604 30.039313 1.602445 -0.047651 -0.579500
    1 0.000005 3.345128 -2.981901 1.612827 -0.044847 1.536304
    2 7.446251 0.800806 0.074221 -0.315425 -0.157178 0.554244
    3 10.596343 1.889813 -1.609475 -2.843862 0.867932 2.016475
    4 6.028143 0.000001 0.000000 1.477862 0.870238 -0.760390
    5 11.692552 0.000000 0.000002 0.000000 0.000000 -1.859252
    6 10.682277 1.065563 2.175949 -0.931113 -1.347859 5.766454
    7 6.028142 0.000001 0.000000 -2.629042 -1.018908 -0.117576
    8 11.692555 0.000000 0.000000 0.000000 0.000000 -0.993351
    9 15.391364 2.361872 0.375011 3.904558 0.085953 -0.202422
    10 3.890452 -0.058600 -0.000003 -2.339561 -0.551063 -1.028641
    11 17.848177 0.000000 0.000000 0.000000 0.000000 1.684464
    12 16.525253 0.000000 0.000000 0.299888 0.398925 -1.435084
    13 -3.890452 0.058599 0.000007 -1.509935 -0.818169 -1.643304
    14 17.848173 0.000000 0.000000 0.000000 0.000000 1.425332
    15 16.525257 0.000000 0.000000 -0.197064 -0.144359 -1.594493
  time 1
    0 -2.588647 5.353939 29.937748 1.602814 -0.047399 -0.587412
    1 0.000005 3.345128 -2.981901 1.618198 -0.044847 1.536328
    2 7.446251 0.796899 0.074221 -0.304560 -0.155920 0.552953
    3 10.596343 1.889813 -1.609475 -2.843095 0.867380 2.017139
    4 6.028143 0.000001 0.000000 1.482545 0.867980 -0.757967
    5 11.692552 0.000000 0.000002 0.000000 0.000000 -1.872469
    6 10.682277 1.065563 2.175949 -0.927300 -1.346710 5.762524
    7 6.028142 0.000001 0.000000 -2.630577 -1.025438 -0.120978
    8 11.692555 0.000000 0.000000 0.000000 0.000000 -0.997180
    9 15.391364 2.361872 0.375011 3.905299 0.086049 -0.202229
    10 3.890452 -0.003910 -0.000003 -2.375790 -0.603310 -0.891749
    11 17.848177 0.000000 0.000000 0.000000 0.000000 1.642057
    12 16.525253 0.000000 0.000000 0.210750 0.399637 -1.392676
    13 -3.890452 0.003910 0.000007 -1.527259 -0.818475 -1.680467
    14 17.848173 0.000000 0.000000 0.000000 0.000000 1.442194
    15 16.525257 0.000000 0.000000 -0.152382 -0.164425 -1.612314
  time 2
    0 -1.690464 4.391273 29.843995 1.603129 -0.047195 -0.594093
    1 0.000005 3.345128 -2.981901 1.623106 -0.044847 1.536340
    2 7.446251 0.796899 0.074221 -0.294529 -0.153882 0.551620
    3 10.596343 1.889813 -1.609475 -2.840795 0.865780 2.019070
    4 6.028143 0.000001 0.000000 1.486474 0.864801 -0.757407
    5 11.692552 0.000000 0.000002 0.000000 0.000000 -1.888372
    6 10.682277 1.065563 2.175949 -0.916528 -1.343502 5.751595
    7 6.028142 0.000001 0.000000 -2.624784 -1.030948 -0.131816
    8 11.692555 0.000000 0.000000 0.000000 0.000000 -1.006488
    9 15.391364 2.361872 0.375011 3.907474 0.086349 -0.201670
    10 3.890452 0.062498 -0.000003 -2.383384 -0.618302 -0.803060
    11 17.848177 0.000000 0.000000 0.000000 0.000000 1.530206
    12 16.525253 0.000000 0.000000 0.087833 0.314499 -1.449914
    13 -3.890452 -0.062498 0.000007 -1.547304 -0.821142 -1.715165
    14 17.848173 0.000000 0.000000 0.000000 0.000000 1.457827
    15 16.525257 0.000000 0.000000 -0.106289 -0.174498 -1.619280
  time 3
    0 -0.792282 3.428608 29.765868 1.603375 -0.047028 -0.599192
    1 0.000005 3.345128 -2.981901 1.627164 -0.044847 1.536352
    2 7.446251 0.796899 0.074221 -0.286251 -0.152120 0.550519
    3 10.596343 1.889813 -1.609475 -2.837315 0.863279 2.022088
    4 6.028143 0.000001 0.000000 1.488481 0.860885 -0.760297
    5 11.692552 0.000000 0.000002 0.000000 0.000000 -1.905002
    6 10.682277 1.065563 2.175949 -0.900512 -1.338408 5.735202
    7 6.028142 0.000001 0.000000 -2.612654 -1.035138 -0.147399
    8 11.692555 0.000000 0.000000 0.000000 0.000000 -1.019401
    9 15.391364 2.361872 0.375011 3.910835 0.086804 -0.200811
    10 3.890452 0.144532 -0.000003 -2.365086 -0.601245 -0.765149
    11 17.848177 0.000000 0.000000 0.000000 0.000000 1.372008
    12 16.525253 0.000000 0.000000 0.021344 0.167090 -1.545684
    13 -3.890452 -0.144532 0.000007 -1.568982 -0.824201 -1.748014
    14 17.848173 0.000000 0.000000 0.000000 0.000000 1.470105
    15 16.525257 0.000000 0.000000 -0.059893 -0.177252 -1.615093
  time 4
    0 0.105901 2.465942 29.718991 1.603532 -0.046920 -0.602474
    1 0.000005 3.345128 -2.981901 1.629997 -0.044847 1.536364
    2 7.446251 0.796899 0.074221 -0.280444 -0.150778 0.549736
    3 10.596343 1.889813 -1.609475 -2.832832 0.860008 2.025951
    4 6.028143 0.000001 0.000000 1.487812 0.856692 -0.767287
    5 11.692552 0.000000 0.000002 0.000000 0.000000 -1.920396
    6 10.682277 1.065563 2.175949 -0.880588 -1.331710 5.714879
    7 6.028142 0.000001 0.000000 -2.595573 -1.037554 -0.166029
    8 11.692555 0.000000 0.000000 0.000000 0.000000 -1.034265
    9 15.391364 2.361872 0.375011 3.915333 0.087416 -0.199651
    10 3.886546 0.222659 -0.000003 -2.331511 -0.556135 -0.771067
    11 17.848177 0.000000 0.000000 0.000000 0.000000 1.215586
    12 16.525253 0.000000 0.000000 0.017515 0.028692 -1.644913
    13 -3.886546 -0.222659 0.000007 -1.589481 -0.826168 -1.780158
    14 17.848173 0.000000 0.000000 0.000000 0.000000 1.477717
    15 16.525257 0.000000 0.000000 -0.014158 -0.175121 -1.600310
  time 5
    0 1.004084 1.503277 29.695553 1.603585 -0.046884 -0.603587
    1 0.000005 3.345128 -2.981901 1.631350 -0.044847 1.536364
    2 7.446251 0.796899 0.074221 -0.277656 -0.149688 0.549292
    3 10.596343 1.889813 -1.609475 -2.827464 0.856096 2.030478
    4 6.028143 0.000001 0.000000 1.484050 0.852960 -0.778099
    5 11.692552 0.000000 0.000002 0.000000 0.000000 -1.933395
    6 10.682277 1.065563 2.175949 -0.858281 -1.323603 5.692063
    7 6.028142 0.000001 0.000000 -2.575571 -1.038044 -0.185687
    8 11.692555 0.000000 0.000000 0.000000 0.000000 -1.049654
    9 15.391364 2.361872 0.375011 3.920720 0.088171 -0.198276
    10 3.878733 0.300786 -0.000003 -2.309096 -0.509140 -0.797142
    11 17.848177 0.000000 0.000000 0.000000 0.000000 1.148152
    12 16.525253 0.000000 0.000000 -0.093010 -0.017833 -1.581077
    13 -3.878733 -0.300787 0.000007 -1.607984 -0.825819 -1.813359
    14 17.848173 0.000000 0.000000 0.000000 0.000000 1.480255
    15 16.525257 0.000000 0.000000 0.030149 -0.170215 -1.576078
  time 6
    0 1.902267 0.540611 29.687740 1.603532 -0.046920 -0.602591
    1 0.000005 3.345128 -2.981901 1.630989 -0.044847 1.536364
    2 7.446251 0.796899 0.074221 -0.278260 -0.148561 0.549144
    3 10.596343 1.889813 -1.609475 -2.821507 0.851691 2.035547
    4 6.028143 0.000001 0.000000 1.476943 0.850841 -0.792079
    5 11.692552 0.000000 0.000002 0.000000 0.000000 -1.943053
    6 10.682277 1.065563 2.175949 -0.834926 -1.314326 5.668096
    7 6.028142 0.000001 0.000000 -2.554925 -1.036270 -0.204593
    8 11.692555 0.000000 0.000000 0.000000 0.000000 -1.064593
    9 15.391364 2.361872 0.375011 3.926948 0.089034 -0.196687
    10 3.874826 0.367195 -0.000003 -2.301228 -0.470000 -0.827334
    11 17.848177 0.000000 0.000000 0.000000 0.000000 1.124206
    12 16.525253 0.000000 0.000000 -0.262410 0.019700 -1.432105
    13 -3.874826 -0.367195 0.000007 -1.622859 -0.822628 -1.848586
    14 17.848173 0.000000 0.000000 0.000000 0.000000 1.478045
    15 16.525257 0.000000 0.000000 0.072261 -0.164244 -1.544252
  time 7
    0 2.800450 -0.422054 29.695553 1.603392 -0.047016 -0.599661
    1 0.000005 3.345128 -2.981901 1.628903 -0.044847 1.536352
    2 7.446251 0.796899 0.074221 -0.282284 -0.147231 0.549249
    3 10.596343 1.889813 -1.609475 -2.815136 0.846907 2.040919
    4 6.028143 0.000001 0.000000 1.465990 0.850610 -0.809322
    5 11.692552 0.000000 0.000002 0.000000 0.000000 -1.948136
    6 10.682277 1.065563 2.175949 -0.811665 -1.304181 5.644130
    7 6.028142 0.000001 0.000000 -2.535368 -1.032383 -0.221443
    8 11.692555 0.000000 0.000000 0.000000 0.000000 -1.077806
    9 15.391364 2.361872 0.375011 3.933818 0.090004 -0.194926
    10 3.870920 0.417978 -0.000003 -2.310377 -0.448141 -0.850235
    11 17.848177 0.000000 0.000000 0.000000 0.000000 1.128917
    12 16.525253 0.000000 0.000000 -0.349722 0.087139 -1.348282
    13 -3.870920 -0.417978 0.000007 -1.632655 -0.815547 -1.885574
    14 17.848173 0.000000 0.000000 0.000000 0.000000 1.470351
    15 16.525257 0.000000 0.000000 0.111266 -0.158393 -1.506052
  time 8
    0 3.698633 -1.384720 29.715085 1.603182 -0.047159 -0.595031
    1 0.000005 3.345128 -2.981901 1.625180 -0.044847 1.536340
    2 7.446251 0.796899 0.074221 -0.289585 -0.145745 0.549609
    3 10.596343 1.889813 -1.609475 -2.808589 0.841890 2.046412
    4 6.028143 0.000001 0.000000 1.450940 0.852177 -0.829826
    5 11.692552 0.000000 0.000002 0.000000 0.000000 -1.947701
    6 10.682277 1.065563 2.175949 -0.789263 -1.293451 5.620930
    7 6.028142 0.000001 0.000000 -2.518386 -1.027023 -0.234456
    8 11.692555 0.000000 0.000000 0.000000 0.000000 -1.087340
    9 15.391364 2.361872 0.375011 3.941231 0.091047 -0.193057
    10 3.867014 0.445322 -0.000003 -2.332151 -0.439298 -0.866875
    11 17.848177 0.000000 0.000000 0.000000 0.000000 1.159893
    12 16.525253 0.000000 0.000000 -0.335192 0.116231 -1.372113
    13 -3.867014 -0.445322 0.000007 -1.637008 -0.803526 -1.924939
    14 17.848173 0.000000 0.000000 0.000000 0.000000 1.456108
    15 16.525257 0.000000 0.000000 0.146112 -0.153185 -1.462851
  time 9
    0 4.596815 -2.347385 29.754148 1.602901 -0.047351 -0.588994
    1 0.000005 3.345128 -2.981901 1.619989 -0.044847 1.536328
    2 7.446251 0.796899 0.074221 -0.299846 -0.144199 0.550202
    3 10.596343 1.889813 -1.609475 -2.801983 0.836787 2.051904
    4 6.028143 0.000001 0.000000 1.431710 0.855356 -0.853686
    5 11.692552 0.000000 0.000002 0.000000 0.000000 -1.942109
    6 10.682277 1.065563 2.175949 -0.768386 -1.282439 5.599169
    7 6.028142 0.000001 0.000000 -2.504622 -1.020154 -0.243553
    8 11.692555 0.000000 0.000000 0.000000 0.000000 -1.093646
    9 15.391364 2.361872 0.375011 3.948942 0.092150 -0.191102
    10 3.867014 0.453135 -0.000003 -2.360329 -0.435393 -0.882314
    11 17.848177 0.000000 0.000000 0.000000 0.000000 1.207321
    12 16.525253 0.000000 0.000000 -0.271775 0.131875 -1.446198
    13 -3.867014 -0.453135 0.000007 -1.635104 -0.785780 -1.966859
    14 17.848173 0.000000 0.000000 0.000000 0.000000 1.434827
    15 16.525257 0.000000 0.000000 0.175799 -0.148682 -1.416204
  time 10
    0 5.494998 -3.310050 29.812744 1.602551 -0.047579 -0.581785
    1 0.000005 3.345128 -2.981901 1.613510 -0.044847 1.536304
    2 7.446251 0.800806 0.074221 -0.312608 -0.142701 0.551027
    3 10.596343 1.889813 -1.609475 -2.795553 0.831741 2.057276
    4 6.028143 0.000001 0.000000 1.408968 0.859825 -0.880156
    5 11.692552 0.000000 0.000002 0.000000 0.000000 -1.932669
    6 10.682277 1.065563 2.175949 -0.749225 -1.271471 5.579229
    7 6.028142 0.000001 0.000000 -2.492987 -1.011209 -0.250396
    8 11.692555 0.000000 0.000000 0.000000 0.000000 -1.098825
    9 15.391364 2.361872 0.375011 3.956899 0.093300 -0.189104
    10 3.867014 0.453135 -0.000003 -2.390520 -0.429199 -0.903671
    11 17.848177 0.000000 0.000000 0.000000 0.000000 1.248338
    12 16.525253 0.000000 0.000000 -0.211044 0.141538 -1.515415
    13 -3.867014 -0.453135 0.000007 -1.627303 -0.761827 -2.010980
    14 17.848173 0.000000 0.000000 0.000000 0.000000 1.406343
    15 16.525257 0.000000 0.000000 0.199435 -0.144620 -1.367890
  time 11
    0 6.393181 -4.272716 29.894778 1.602165 -0.047831 -0.573639
    1 0.000005 3.345128 -2.981901 1.606026 -0.044847 1.536280
    2 7.446251 0.800806 0.074221 -0.327410 -0.141346 0.552043
    3 10.596343 1.889813 -1.609475 -2.789419 0.826885 2.062285
    4 6.028143 0.000001 0.000000 1.383635 0.864617 -0.908303
    5 11.692552 0.000000 0.000002 0.000000 0.000000 -1.919961
    6 10.682277 1.065563 2.175949 -0.732351 -1.260850 5.561494
    7 6.028142 0.000001 0.000000 -2.482788 -1.000489 -0.255617
    8 11.692555 0.000000 0.000000 0.000000 0.000000 -1.103255
    9 15.391364 2.361872 0.375011 3.964955 0.094475 -0.187085
    10 3.867014 0.437509 -0.000003 -2.419979 -0.418741 -0.930775
    11 17.848177 0.000000 0.000000 0.000000 0.000000 1.279005
    12 16.525253 0.000000 0.000000 -0.157095 0.151751 -1.574479
    13 -3.867014 -0.437510 0.000007 -1.613335 -0.730879 -2.056510
    14 17.848173 0.000000 0.000000 0.000000 0.000000 1.369919
    15 16.525257 0.000000 0.000000 0.216090 -0.140217 -1.319242
  time 12
    0 7.291364 -5.235381 29.988531 1.601744 -0.048106 -0.564789
    1 0.000005 3.345128 -2.981901 1.597846 -0.044847 1.536256
    2 7.446251 0.800806 0.074221 -0.343650 -0.140280 0.553249
    3 10.596343 1.889813 -1.609475 -2.783816 0.822363 2.066872
    4 6.028143 0.000001 0.000000 1.357131 0.869455 -0.936730
    5 11.692552 0.000000 0.000002 0.000000 0.000000 -1.905219
    6 10.682277 1.065563 2.175949 -0.717671 -1.250922 5.545964
    7 6.028142 0.000001 0.000000 -2.473925 -0.988298 -0.259414
    8 11.692555 0.000000 0.000000 0.000000 0.000000 -1.107384
    9 15.391364 2.361872 0.375011 3.972913 0.095649 -0.185109
    10 3.870920 0.414071 -0.000003 -2.446418 -0.403031 -0.961739
    11 17.848177 0.000000 0.000000 0.000000 0.000000 1.299088
    12 16.525253 0.000000 0.000000 -0.110567 0.164425 -1.625214
    13 -3.870920 -0.414071 0.000007 -1.619231 -0.689879 -2.092441
    14 17.848173 0.000000 0.000000 0.000000 0.000000 1.320317
    15 16.525257 0.000000 0.000000 0.233120 -0.086895 -1.237027
  time 13
    0 8.189547 -6.198047 30.070564 1.601288 -0.048394 -0.555412
    1 0.000005 3.345128 -2.981901 1.589280 -0.044847 1.536232
    2 7.446251 0.800806 0.078127 -0.360695 -0.139608 0.554625
    3 10.596343 1.889813 -1.609475 -2.778920 0.818335 2.070856
    4 6.028143 0.000001 0.000000 1.331212 0.874799 -0.963666
    5 11.692552 0.000000 0.000002 0.000000 0.000000 -1.890333
    6 10.682277 1.065563 2.175949 -0.705469 -1.242034 5.532926
    7 6.028142 0.000001 0.000000 -2.467439 -0.975050 -0.261352
    8 11.692555 0.000000 0.000000 0.000000 0.000000 -1.112638
    9 15.391364 2.361872 0.375011 3.980623 0.096800 -0.183197
    10 3.870920 0.386727 -0.000003 -2.470296 -0.383865 -0.995104
    11 17.848177 0.000000 0.000000 0.000000 0.000000 1.312606
    12 16.525253 0.000000 0.000000 -0.068892 0.179459 -1.672459
    13 -3.870920 -0.386727 0.000007 -1.654876 -0.637470 -2.111463
    14 17.848173 0.000000 0.000000 0.000000 0.000000 1.261957
    15 16.525257 0.000000 0.000000 0.279980 0.019084 -1.127838
  time 14
    0 9.087730 -7.160712 30.113534 1.600815 -0.048669 -0.545800
    1 0.000005 3.345128 -2.981901 1.580637 -0.044847 1.536208
    2 7.446251 0.800806 0.078127 -0.377940 -0.139393 0.556106
    3 10.596343 1.889813 -1.609475 -2.774791 0.814933 2.074175
    4 6.028143 0.000001 0.000000 1.307216 0.881203 -0.987712
    5 11.692552 0.000000 0.000002 0.000000 0.000000 -1.877189
    6 10.682277 1.065563 2.175949 -0.695745 -1.234556 5.522572
    7 6.028142 0.000001 0.000000 -2.464172 -0.961010 -0.261035
    8 11.692555 0.000000 0.000000 0.000000 0.000000 -1.120221
    9 15.391364 2.361872 0.375011 3.987987 0.097902 -0.181371
    10 3.874826 0.355476 -0.000003 -2.492619 -0.363577 -1.030871
    11 17.848177 0.000000 0.000000 0.000000 0.000000 1.323652
    12 16.525253 0.000000 0.000000 -0.028909 0.195835 -1.720344
    13 -3.874826 -0.355476 0.000007 -1.700499 -0.578854 -2.113665
    14 17.848173 0.000000 0.000000 0.000000 0.000000 1.213255
    15 16.525257 0.000000 0.000000 0.351011 0.117464 -1.052440
  time 15
    0 9.985913 -8.123378 30.133066 1.600359 -0.048957 -0.536247
    1 0.000005 3.345128 -2.981901 1.572226 -0.044847 1.536185
    2 7.446251 0.800806 0.078127 -0.394784 -0.139537 0.557672
    3 10.596343 1.889813 -1.609475 -2.771665 0.812330 2.076710
    4 6.028143 0.000001 0.000000 1.285979 0.887930 -1.007937
    5 11.692552 0.000000 0.000002 0.000000 0.000000 -1.866079
    6 10.682277 1.065563 2.175949 -0.688500 -1.228790 5.514903
    7 6.028142 0.000001 0.000000 -2.463033 -0.946516 -0.259691
    8 11.692555 0.000000 0.000000 0.000000 0.000000 -1.129755
    9 15.391364 2.361872 0.375011 3.994808 0.098945 -0.179674
    10 3.878733 0.316412 -0.000003 -2.512838 -0.341987 -1.069468
    11 17.848177 0.000000 0.000000 0.000000 0.000000 1.330759
    12 16.525253 0.000000 0.000000 0.008684 0.213107 -1.768004
    13 -3.878733 -0.316412 0.000007 -1.744490 -0.538466 -2.086364
    14 17.848173 0.000000 0.000000 0.000000 0.000000 1.206626
    15 16.525257 0.000000 0.000000 0.388874 0.176355 -1.075152
  time 16
    0 10.884095 -9.086043 30.121347 1.599885 -0.049221 -0.526869
    1 0.000005 3.345128 -2.981901 1.564278 -0.044847 1.536161
    2 7.446251 0.800806 0.078127 -0.410679 -0.139632 0.559175
    3 10.596343 1.889813 -1.609475 -2.769659 0.810658 2.078340
    4 6.028143 0.000001 0.000000 1.268254 0.894887 -1.023036
    5 11.692552 0.000000 0.000002 0.000000 0.000000 -1.857292
    6 10.682277 1.065563 2.175949 -0.684115 -1.225083 5.510110
    7 6.028142 0.000001 0.000000 -2.463181 -0.931720 -0.258781
    8 11.692555 0.000000 0.000000 0.000000 0.000000 -1.141466
    9 15.391364 2.361872 0.375011 4.000986 0.099892 -0.178149
    10 3.882639 0.281255 -0.000003 -2.530495 -0.319230 -1.110811
    11 17.848177 0.000000 0.000000 0.000000 0.000000 1.334003
    12 16.525253 0.000000 0.000000 0.043279 0.230785 -1.815024
    13 -3.882639 -0.281255 0.000007 -1.790385 -0.610850 -1.978748
    14 17.848173 0.000000 0.000000 0.000000 0.000000 1.313032
    15 16.525257 0.000000 0.000000 0.356224 0.228551 -1.169742
  time 17
    0 11.782278 -10.048709 30.082283 1.599447 -0.049472 -0.517961
    1 0.000005 3.345128 -2.981901 1.556988 -0.044847 1.536137
    2 7.446251 0.800806 0.082034 -0.425222 -0.139513 0.560487
    3 10.596343 1.889813 -1.609475 -2.768951 0.810062 2.078883
    4 6.028143 0.000001 0.000000 1.254877 0.901798 -1.032077
    5 11.692552 0.000000 0.000002 0.000000 0.000000 -1.851047
    6 10.682277 1.065563 2.175949 -0.682494 -1.223783 5.508384
    7 6.028142 0.000001 0.000000 -2.463974 -0.916548 -0.259453
    8 11.692555 0.000000 0.000000 0.000000 0.000000 -1.155504
    9 15.391364 2.361872 0.375011 4.006374 0.100719 -0.176817
    10 3.882639 0.246097 -0.000003 -2.545407 -0.295575 -1.154640
    11 17.848177 0.000000 0.000000 0.000000 0.000000 1.332845
    12 16.525253 0.000000 0.000000 0.074432 0.248281 -1.860859
    13 -3.882639 -0.246098 0.000007 -1.814058 -0.709112 -1.832822
    14 17.848173 0.000000 0.000000 0.000000 0.000000 1.430243
    15 16.525257 0.000000 0.000000 0.263968 0.276564 -1.283192
  time 18
    0 12.680461 -11.011374 30.019782 1.599044 -0.049700 -0.509815
    1 0.000005 3.345128 -2.981901 1.550521 -0.044847 1.536113
    2 7.446251 0.800806 0.082034 -0.438099 -0.139345 0.561651
    3 10.596343 1.889813 -1.609475 -2.769541 0.810600 2.078400
    4 6.028143 0.000001 0.000000 1.248439 0.907742 -1.031797
    5 11.692552 0.000000 0.000002 0.000000 0.000000 -1.848215
    6 10.682277 1.065563 2.175949 -0.683924 -1.224953 5.509918
    7 6.028142 0.000001 0.000000 -2.464469 -0.901979 -0.261629
    8 11.692555 0.000000 0.000000 0.000000 0.000000 -1.171644
    9 15.391364 2.361872 0.375011 4.010822 0.101402 -0.175743
    10 3.886546 0.210940 -0.000003 -2.557301 -0.271112 -1.200871
    11 17.848177 0.000000 0.000000 0.000000 0.000000 1.326897
    12 16.525253 0.000000 0.000000 0.101873 0.264881 -1.904676
    13 -3.886546 -0.210940 0.000007 -1.813786 -0.817164 -1.665320
    14 17.848173 0.000000 0.000000 0.000000 0.000000 1.506365
    15 16.525257 0.000000 0.000000 0.123191 0.301456 -1.379154
  time 19
    0 13.578644 -11.974039 29.949467 1.598693 -0.049904 -0.502606
    1 0.000005 3.345128 -2.981901 1.544995 -0.044847 1.536101
    2 7.446251 0.800806 0.082034 -0.449137 -0.139237 0.562688
    3 10.596343 1.889813 -1.609475 -2.771370 0.812097 2.076952
    4 6.028143 0.000001 0.000000 1.250612 0.912119 -1.020892
    5 11.692552 0.000000 0.000002 0.000000 0.000000 -1.848650
    6 10.682277 1.065563 2.175949 -0.687928 -1.228270 5.514232
    7 6.028142 0.000001 0.000000 -2.464271 -0.889221 -0.264477
    8 11.692555 0.000000 0.000000 0.000000 0.000000 -1.188535
    9 15.391364 2.361872 0.375011 4.014133 0.101929 -0.174927
    10 3.886546 0.171876 -0.000003 -2.566175 -0.246201 -1.249332
    11 17.848177 0.000000 0.000000 0.000000 0.000000 1.315851
    12 16.525253 0.000000 0.000000 0.125546 0.279793 -1.945771
    13 -3.886546 -0.171877 0.000007 -1.794285 -0.888369 -1.512613
    14 17.848173 0.000000 0.000000 0.000000 0.000000 1.512668
    15 16.525257 0.000000 0.000000 -0.020174 0.280827 -1.460628
  time 20
    0 14.476827 -12.936705 29.879152 1.598395 -0.050072 -0.496569
    1 0.000005 3.345128 -2.981901 1.540474 -0.044847 1.536077
    2 7.446251 0.800806 0.082034 -0.458162 -0.139237 0.563534
    3 10.596343 1.889813 -1.609475 -2.774201 0.814438 2.074658
    4 6.028143 0.000001 0.000000 1.259642 0.914745 -1.001692
    5 11.692552 0.000000 0.000002 0.000000 0.000000 -1.851192
    6 10.682277 1.065563 2.175949 -0.694315 -1.233472 5.521039
    7 6.028142 0.000001 0.000000 -2.463429 -0.878313 -0.267878
    8 11.692555 0.000000 0.000000 0.000000 0.000000 -1.204975
    9 15.391364 2.361872 0.375011 4.016259 0.102253 -0.174412
    10 3.890452 0.128906 -0.000003 -2.571847 -0.221200 -1.299595
    11 17.848177 0.000000 0.000000 0.000000 0.000000 1.299475
    12 16.525253 0.000000 0.000000 0.145626 0.292121 -1.983118
    13 -3.890452 -0.128907 0.000007 -1.753288 -0.913983 -1.398215
    14 17.848173 0.000000 0.000000 0.000000 0.000000 1.465767
    15 16.525257 0.000000 0.000000 -0.127568 0.208766 -1.536434
  time 21
    0 15.375010 -13.899370 29.824463 1.598167 -0.050191 -0.491998
    1 0.000005 3.345128 -2.981901 1.536983 -0.044847 1.536077
    2 7.446251 0.800806 0.082034 -0.465146 -0.139381 0.564254
    3 10.596343 1.889813 -1.609475 -2.777917 0.817521 2.071701
    4 6.028143 0.000001 0.000000 1.273103 0.915528 -0.977460
    5 11.692552 0.000000 0.000002 0.000000 0.000000 -1.854315
    6 10.682277 1.065563 2.175949 -0.703085 -1.240257 5.530433
    7 6.028142 0.000001 0.000000 -2.462092 -0.869104 -0.271873
    8 11.692555 0.000000 0.000000 0.000000 0.000000 -1.220065
    9 15.391364 2.361872 0.375011 4.017000 0.102372 -0.174218
    10 3.890452 0.078123 -0.000003 -2.574226 -0.196423 -1.351659
    11 17.848177 0.000000 0.000000 0.000000 0.000000 1.277228
    12 16.525253 0.000000 0.000000 0.162530 0.300930 -2.015148
    13 -3.890452 -0.078124 0.000007 -1.701497 -0.908432 -1.307771
    14 17.848173 0.000000 0.000000 0.000000 0.000000 1.374093
    15 16.525257 0.000000 0.000000 -0.184675 0.107954 -1.593678
  time 22
    0 16.273192 -14.862036 29.785399 1.598009 -0.050275 -0.489009
    1 0.000005 3.345128 -2.981901 1.534562 -0.044847 1.536065
    2 7.446251 0.800806 0.082034 -0.470004 -0.139644 0.564804
    3 10.596343 1.889813 -1.609475 -2.782400 0.821185 2.068019
    4 6.028143 0.000001 0.000000 1.288237 0.914837 -0.951270
    5 11.692552 0.000000 0.000002 0.000000 0.000000 -1.857074
    6 10.682277 1.065563 2.175949 -0.714048 -1.248342 5.542129
    7 6.028142 0.000001 0.000000 -2.460557 -0.861064 -0.276540
    8 11.692555 0.000000 0.000000 0.000000 0.000000 -1.233277
    9 15.391364 2.361872 0.375011 4.015369 0.102121 -0.174626
    10 3.890452 0.027341 -0.000003 -2.573036 -0.172319 -1.405009
    11 17.848177 0.000000 0.000000 0.000000 0.000000 1.248956
    12 16.525253 0.000000 0.000000 0.176941 0.305182 -2.040164
    13 -3.890452 -0.027341 0.000007 -1.650251 -0.870272 -1.239872
    14 17.848173 0.000000 0.000000 0.000000 0.000000 1.258437
    15 16.525257 0.000000 0.000000 -0.181230 0.002175 -1.656404
  time 23
    0 17.171375 -15.824701 29.765868 1.597957 -0.050299 -0.488012
    1 0.000005 3.345128 -2.981901 1.533196 -0.044847 1.536065
    2 7.446251 0.800806 0.082034 -0.472792 -0.140064 0.565185
    3 10.596343 1.889813 -1.609475 -2.787532 0.825329 2.063855
    4 6.028143 0.000001 0.000000 1.302868 0.913501 -0.926105
    5 11.692552 0.000000 0.000002 0.000000 0.000000 -1.858672
    6 10.682277 1.065563 2.175949 -0.727204 -1.257446 5.556030
    7 6.028142 0.000001 0.000000 -2.459765 -0.853818 -0.281643
    8 11.692555 0.000000 0.000000 0.000000 0.000000 -1.244538
    9 15.391364 2.361872 0.375011 4.010822 0.101402 -0.175743
    10 3.890452 -0.015629 -0.000003 -2.552909 -0.157732 -1.464277
    11 17.848177 0.000000 0.000000 0.000000 0.000000 1.216127
    12 16.525253 0.000000 0.000000 0.187331 0.286710 -2.057268
    13 -3.890452 0.015629 0.000007 -1.608981 -0.817120 -1.195047
    14 17.848173 0.000000 0.000000 0.000000 0.000000 1.151458
    15 16.525257 0.000000 0.000000 -0.142813 -0.078913 -1.720391
  time 24
    0 18.069558 -16.787367 29.758055 1.598027 -0.050263 -0.489185
    1 0.000005 3.345128 -2.981901 1.533583 -0.044847 1.536065
    2 7.446251 0.800806 0.082034 -0.472102 -0.140843 0.565354
    3 10.596343 1.889813 -1.609475 -2.793135 0.829822 2.059267
    4 6.028143 0.000001 0.000000 1.318336 0.910921 -0.901686
    5 11.692552 0.000000 0.000002 0.000000 0.000000 -1.860342
    6 10.682277 1.065563 2.175949 -0.742456 -1.267266 5.572039
    7 6.028142 0.000001 0.000000 -2.460557 -0.850043 -0.285005
    8 11.692555 0.000000 0.000000 0.000000 0.000000 -1.251294
    9 15.391364 2.361872 0.375011 4.003803 0.100311 -0.177462
    10 3.890452 -0.058600 -0.000003 -2.504147 -0.157372 -1.531694
    11 17.848177 0.000000 0.000000 0.000000 0.000000 1.181212
    12 16.525253 0.000000 0.000000 0.195716 0.234040 -2.062969
    13 -3.890452 0.058599 0.000007 -1.579957 -0.799680 -1.194694
    14 17.848173 0.000000 0.000000 0.000000 0.000000 1.116507
    15 16.525257 0.000000 0.000000 -0.151453 -0.125861 -1.707868
  time 25
    0 18.967741 -17.750032 29.765868 1.598185 -0.050179 -0.492408
    1 0.000005 3.345128 -2.981901 1.536172 -0.044847 1.536065
    2 7.446251 0.800806 0.082034 -0.467072 -0.142149 0.565227
    3 10.596343 1.889813 -1.609475 -2.799093 0.834533 2.054318
    4 6.028143 0.000001 0.000000 1.335977 0.906313 -0.877919
    5 11.692552 0.000000 0.000002 0.000000 0.000000 -1.862811
    6 10.682277 1.065563 2.175949 -0.759616 -1.277541 5.590062
    7 6.028142 0.000001 0.000000 -2.463478 -0.852119 -0.284767
    8 11.692555 0.000000 0.000000 0.000000 0.000000 -1.251144
    9 15.391364 2.361872 0.375011 3.994808 0.098945 -0.179674
    10 3.890452 -0.101570 -0.000003 -2.435348 -0.168055 -1.602113
    11 17.848177 0.000000 0.000000 0.000000 0.000000 1.151087
    12 16.525253 0.000000 0.000000 0.207559 0.157264 -2.047466
    13 -3.890452 0.101569 0.000007 -1.557100 -0.797101 -1.218296
    14 17.848173 0.000000 0.000000 0.000000 0.000000 1.130013
    15 16.525257 0.000000 0.000000 -0.186407 -0.153909 -1.658850
  time 26
    0 19.865924 -18.712698 29.797119 1.598430 -0.050048 -0.497565
    1 0.000005 3.345128 -2.981901 1.540641 -0.044847 1.536089
    2 7.446251 0.800806 0.082034 -0.458334 -0.143827 0.564825
    3 10.596343 1.889813 -1.609475 -2.805286 0.839346 2.049188
    4 6.028143 0.000001 0.000000 1.353870 0.900877 -0.856389
    5 11.692552 0.000000 0.000002 0.000000 0.000000 -1.864844
    6 10.682277 1.065563 2.175949 -0.778586 -1.287945 5.609906
    7 6.028142 0.000001 0.000000 -2.469172 -0.859215 -0.280614
    8 11.692555 0.000000 0.000000 0.000000 0.000000 -1.243712
    9 15.391364 2.361872 0.375011 3.984330 0.097351 -0.182252
    10 3.890452 -0.144540 -0.000003 -2.357676 -0.196468 -1.662840
    11 17.848177 0.000000 0.000000 0.000000 0.000000 1.157189
    12 16.525253 0.000000 0.000000 0.226067 0.066938 -1.993720
    13 -3.890452 0.144539 0.000007 -1.537508 -0.804182 -1.256781
    14 17.848173 0.000000 0.000000 0.000000 0.000000 1.169956
    15 16.525257 0.000000 0.000000 -0.264328 -0.147214 -1.558183
  time 27
    0 20.764107 -19.675363 29.847901 1.598763 -0.049856 -0.504188
    1 0.000005 3.345128 -2.981901 1.546605 -0.044847 1.536101
    2 7.446251 0.800806 0.082034 -0.446636 -0.145709 0.564190
    3 10.596343 1.889813 -1.609475 -2.811538 0.844144 2.043997
    4 6.028143 0.000001 0.000000 1.370592 0.896085 -0.838494
    5 11.692552 0.000000 0.000002 0.000000 0.000000 -1.864045
    6 10.682277 1.065563 2.175949 -0.799082 -1.298263 5.631092
    7 6.028142 0.000001 0.000000 -2.478530 -0.870689 -0.272071
    8 11.692555 0.000000 0.000000 0.000000 0.000000 -1.227497
    9 15.391364 2.361872 0.375011 3.972913 0.095649 -0.185109
    10 3.886546 -0.179697 -0.000003 -2.282291 -0.241398 -1.708642
    11 17.848177 0.000000 0.000000 0.000000 0.000000 1.206549
    12 16.525253 0.000000 0.000000 0.238608 -0.028270 -1.886612
    13 -3.886546 0.179697 0.000007 -1.520729 -0.812837 -1.302399
    14 17.848173 0.000000 0.000000 0.000000 0.000000 1.216611
    15 16.525257 0.000000 0.000000 -0.348748 -0.104790 -1.454367
  time 28
    0 21.662289 -20.638028 29.918216 1.599166 -0.049640 -0.512100
    1 0.000005 3.345128 -2.981901 1.553729 -0.044847 1.536125
    2 7.446251 0.800806 0.082034 -0.432609 -0.147626 0.563344
    3 10.596343 1.889813 -1.609475 -2.817673 0.848797 2.038807
    4 6.028143 0.000001 0.000000 1.385641 0.892353 -0.824048
    5 11.692552 0.000000 0.000002 0.000000 0.000000 -1.859761
    6 10.682277 1.065563 2.175949 -0.820722 -1.308213 5.653429
    7 6.028142 0.000001 0.000000 -2.491303 -0.885673 -0.259453
    8 11.692555 0.000000 0.000000 0.000000 0.000000 -1.202423
    9 15.391364 2.361872 0.375011 3.960952 0.093887 -0.188095
    10 3.886546 -0.207042 -0.000003 -2.220994 -0.294767 -1.736089
    11 17.848177 0.000000 0.000000 0.000000 0.000000 1.281399
    12 16.525253 0.000000 0.000000 0.233398 -0.114242 -1.709838
    13 -3.886546 0.207041 0.000007 -1.506489 -0.815197 -1.347313
    14 17.848173 0.000000 0.000000 0.000000 0.000000 1.252380
    15 16.525257 0.000000 0.000000 -0.386218 -0.080763 -1.417983
  time 29
    0 22.560472 -21.600694 30.000250 1.599605 -0.049388 -0.521067
    1 0.000005 3.345128 -2.981901 1.561650 -0.044847 1.536149
    2 7.446251 0.800806 0.082034 -0.416973 -0.149388 0.562265
    3 10.596343 1.889813 -1.609475 -2.823571 0.853203 2.033857
    4 6.028143 0.000001 0.000000 1.399103 0.889635 -0.812304
    5 11.692552 0.000000 0.000002 0.000000 0.000000 -1.853007
    6 10.682277 1.065563 2.175949 -0.842743 -1.317534 5.676149
    7 6.028142 0.000001 0.000000 -2.507196 -0.903111 -0.243593
    8 11.692555 0.000000 0.000000 0.000000 0.000000 -1.170893
    9 15.391364 2.361872 0.375011 3.948942 0.092150 -0.191102
    10 3.886546 -0.218761 -0.000003 -2.186046 -0.347687 -1.735231
    11 17.848177 0.000000 0.000000 0.000000 0.000000 1.366678
    12 16.525253 0.000000 0.000000 0.218423 -0.169881 -1.486076
    13 -3.886546 0.218760 0.000007 -1.495786 -0.813623 -1.388440
    14 17.848173 0.000000 0.000000 0.000000 0.000000 1.278818
    15 16.525257 0.000000 0.000000 -0.389074 -0.083759 -1.428172
  time 30
    0 23.458655 -22.563359 30.074471 1.600078 -0.049113 -0.530679
    1 0.000005 3.345128 -2.981901 1.569997 -0.044847 1.536173
    2 7.446251 0.800806 0.078127 -0.400446 -0.150970 0.561037
    3 10.596343 1.889813 -1.609475 -2.828998 0.857245 2.029210
    4 6.028143 0.000001 0.000000 1.411477 0.888114 -0.802425
    5 11.692552 0.000000 0.000002 0.000000 0.000000 -1.845673
    6 10.682277 1.065563 2.175949 -0.864573 -1.325966 5.698581
    7 6.028142 0.000001 0.000000 -2.526209 -0.921718 -0.224726
    8 11.692555 0.000000 0.000000 0.000000 0.000000 -1.135985
    9 15.391364 2.361872 0.375011 3.937475 0.090520 -0.194023
    10 3.886546 -0.210948 -0.000003 -2.189706 -0.391002 -1.691316
    11 17.848177 0.000000 0.000000 0.000000 0.000000 1.449330
    12 16.525253 0.000000 0.000000 0.234630 -0.173584 -1.311992
    13 -3.886546 0.210948 0.000007 -1.488257 -0.813361 -1.431152
    14 17.848173 0.000000 0.000000 0.000000 0.000000 1.305748
    15 16.525257 0.000000 0.000000 -0.379916 -0.087478 -1.446475
  time 31
    0 24.356838 -23.526025 30.125254 1.600569 -0.048825 -0.540701
    1 0.000005 3.345128 -2.981901 1.578422 -0.044847 1.536196
    2 7.446251 0.800806 0.078127 -0.383746 -0.152420 0.559767
    3 10.596343 1.889813 -1.609475 -2.833894 0.860793 2.025045
    4 6.028143 0.000001 0.000000 1.423015 0.887884 -0.793943
    5 11.692552 0.000000 0.000002 0.000000 0.000000 -1.839355
    6 10.682277 1.065563 2.175949 -0.885260 -1.333336 5.719672
    7 6.028142 0.000001 0.000000 -2.547944 -0.940251 -0.203565
    8 11.692555 0.000000 0.000000 0.000000 0.000000 -1.100852
    9 15.391364 2.361872 0.375011 3.926948 0.089034 -0.196687
    10 3.886546 -0.199229 -0.000003 -2.218433 -0.425923 -1.611376
    11 17.848177 0.000000 0.000000 0.000000 0.000000 1.525803
    12 16.525253 0.000000 0.000000 0.291859 -0.131168 -1.253409
    13 -3.886546 0.199228 0.000007 -1.484267 -0.814454 -1.474481
    14 17.848173 0.000000 0.000000 0.000000 0.000000 1.333168
    15 16.525257 0.000000 0.000000 -0.359101 -0.092545 -1.471966
  time 32
    0 25.255021 -24.488690 30.152598 1.601060 -0.048526 -0.550899
    1 0.000005 3.345128 -2.981901 1.586588 -0.044847 1.536220
    2 7.446251 0.800806 0.078127 -0.367535 -0.153571 0.558455
    3 10.596343 1.889813 -1.609475 -2.837963 0.863744 2.021484
    4 6.028143 0.000001 0.000000 1.432881 0.888345 -0.787046
    5 11.692552 0.000000 0.000002 0.000000 0.000000 -1.834490
    6 10.682277 1.065563 2.175949 -0.903467 -1.339384 5.738270
    7 6.028142 0.000001 0.000000 -2.570273 -0.957424 -0.182602
    8 11.692555 0.000000 0.000000 0.000000 0.000000 -1.068272
    9 15.391364 2.361872 0.375011 3.917903 0.087775 -0.198985
    10 3.886546 -0.175791 -0.000003 -2.250819 -0.460260 -1.510937
    11 17.848177 0.000000 0.000000 0.000000 0.000000 1.598722
    12 16.525253 0.000000 0.000000 0.354623 -0.051197 -1.277496
    13 -3.886546 0.175790 0.000007 -1.484267 -0.815940 -1.518338
    14 17.848173 0.000000 0.000000 0.000000 0.000000 1.359442
    15 16.525257 0.000000 0.000000 -0.327611 -0.099542 -1.502310
  time 33
    0 26.153204 -25.451356 30.148692 1.601551 -0.048226 -0.560979
    1 0.000005 3.345128 -2.981901 1.594137 -0.044847 1.536244
    2 7.446251 0.800806 0.078127 -0.352532 -0.154326 0.557186
    3 10.596343 1.889813 -1.609475 -2.841149 0.865998 2.018829
    4 6.028143 0.000001 0.000000 1.440740 0.889404 -0.781827
    5 11.692552 0.000000 0.000002 0.000000 0.000000 -1.832384
    6 10.682277 1.065563 2.175949 -0.918053 -1.343958 5.753129
    7 6.028142 0.000001 0.000000 -2.591068 -0.971880 -0.164289
    8 11.692555 0.000000 0.000000 0.000000 0.000000 -1.041847
    9 15.391364 2.361872 0.375011 3.910835 0.086804 -0.200811
    10 3.890452 -0.144540 -0.000003 -2.285493 -0.493610 -1.385024
    11 17.848177 0.000000 0.000000 0.000000 0.000000 1.662604
    12 16.525253 0.000000 0.000000 0.396031 0.074018 -1.349339
    13 -3.890452 0.144539 0.000007 -1.488257 -0.817601 -1.561578
    14 17.848173 0.000000 0.000000 0.000000 0.000000 1.384243
    15 16.525257 0.000000 0.000000 -0.287606 -0.109253 -1.535211
  time 34
    0 27.051387 -26.414021 30.105722 1.602025 -0.047926 -0.570591
    1 0.000005 3.345128 -2.981901 1.600680 -0.044847 1.536268
    2 7.446251 0.800806 0.074221 -0.339482 -0.154649 0.556000
    3 10.596343 1.889813 -1.609475 -2.843154 0.867438 2.017078
    4 6.028143 0.000001 0.000000 1.446258 0.891017 -0.778285
    5 11.692552 0.000000 0.000002 0.000000 0.000000 -1.834272
    6 10.682277 1.065563 2.175949 -0.927681 -1.346841 5.762907
    7 6.028142 0.000001 0.000000 -2.607703 -0.982372 -0.151671
    8 11.692555 0.000000 0.000000 0.000000 0.000000 -1.025481
    9 15.391364 2.361872 0.375011 3.906238 0.086181 -0.201993
    10 3.890452 -0.105476 -0.000003 -2.318885 -0.525120 -1.228061
    11 17.848177 0.000000 0.000000 0.000000 0.000000 1.704857
    12 16.525253 0.000000 0.000000 0.385790 0.233471 -1.427108
    13 -3.890452 0.105476 0.000007 -1.496965 -0.818912 -1.603321
    14 17.848173 0.000000 0.000000 0.000000 0.000000 1.407079
    15 16.525257 0.000000 0.000000 -0.242478 -0.123227 -1.567594
  time 35
    0 27.949569 -27.376687 30.039313 1.602445 -0.047651 -0.579500
    1 0.000005 3.345128 -2.981901 1.612827 -0.044847 1.536304
    2 7.446251 0.800806 0.074221 -0.315425 -0.157178 0.554244
    3 10.596343 1.889813 -1.609475 -2.843862 0.867932 2.016475
    4 6.028143 0.000001 0.000000 1.477862 0.870238 -0.760390
    5 11.692552 0.000000 0.000002 0.000000 0.000000 -1.859252
    6 10.682277 1.065563 2.175949 -0.931113 -1.347859 5.766454
    7 6.028142 0.000001 0.000000 -2.629042 -1.018908 -0.117576
    8 11.692555 0.000000 0.000000 0.000000 0.000000 -0.993351
    9 15.391364 2.361872 0.375011 3.904558 0.085953 -0.202422
    10 3.890452 -0.058600 -0.000003 -2.339561 -0.551063 -1.028641
    11 17.848177 0.000000 0.000000 0.000000 0.000000 1.684464
    12 16.525253 0.000000 0.000000 0.299888 0.398925 -1.435084
    13 -3.890452 0.058599 0.000007 -1.509935 -0.818169 -1.643304
    14 17.848173 0.000000 0.000000 0.000000 0.000000 1.425332
    15 16.525257 0.000000 0.000000 -0.197064 -0.144359 -1.594493
end
