// Created by Crowbar 0.74
version 1
nodes
  0 "ValveBiped.Bip01" -1
  1 "ValveBiped.Bip01_Spine" 0
  2 "ValveBiped.Bip01_Spine2" 1
  3 "ValveBiped.Bip01_R_Clavicle" 2
  4 "ValveBiped.Bip01_R_UpperArm" 3
  5 "ValveBiped.Bip01_R_Forearm" 4
  6 "ValveBiped.Bip01_L_Clavicle" 2
  7 "ValveBiped.Bip01_L_UpperArm" 6
  8 "ValveBiped.Bip01_L_Forearm" 7
  9 "ValveBiped.Bip01_Head1" 2
  10 "ValveBiped.Bip01_L_Thigh" 0
  11 "ValveBiped.Bip01_L_Calf" 10
  12 "ValveBiped.Bip01_L_Foot" 11
  13 "ValveBiped.Bip01_R_Thigh" 0
  14 "ValveBiped.Bip01_R_Calf" 13
  15 "ValveBiped.Bip01_R_Foot" 14
end
skeleton
  time 0
    0 -3.854029 6.316604 28.597863 1.846487 0.190016 -0.571998
    1 0.000005 3.345128 -2.981901 1.576270 -0.089589 1.511664
    2 7.489221 0.582049 -0.039064 -0.511882 -0.082574 0.596591
    3 10.596343 1.725745 -1.785262 -2.604856 0.997849 2.243595
    4 6.028143 0.000001 0.000000 0.969016 1.197868 -1.027696
    5 11.692552 0.000000 0.000002 0.000000 0.000000 -1.571542
    6 10.678370 1.276507 2.062664 -0.717385 -1.422145 5.532447
    7 6.028142 0.000001 0.000000 -2.726479 -0.559040 0.019277
    8 11.692555 0.000000 0.000000 0.000000 0.000000 -1.532359
    9 14.946038 3.107988 0.238289 4.295658 0.176138 -0.143050
    10 3.886546 -0.226573 -0.000003 -2.838349 -0.657532 -0.214149
    11 17.848177 0.000000 0.000000 0.000000 0.000000 1.765572
    12 16.525253 0.000000 0.000000 0.007037 0.616805 -1.010654
    13 -3.886546 0.226573 0.000007 -1.846620 -0.946285 -1.182277
    14 17.848173 0.000000 0.000000 0.000000 0.000000 1.477390
    15 16.525257 0.000000 0.000000 -0.088134 0.060624 -1.782118
  time 1
    0 -2.394117 7.721475 28.785369 1.846487 0.190016 -0.571998
    1 0.000005 3.345128 -2.981901 1.576270 -0.089589 1.511664
    2 7.489221 0.582049 -0.039064 -0.511882 -0.082574 0.596591
    3 10.596343 1.725745 -1.785262 -2.604856 0.997849 2.243595
    4 6.028143 0.000001 0.000000 0.969016 1.197868 -1.027696
    5 11.692552 0.000000 0.000002 0.000000 0.000000 -1.571542
    6 10.678370 1.276507 2.062664 -0.717385 -1.422145 5.532447
    7 6.028142 0.000001 0.000000 -2.726479 -0.559040 0.019277
    8 11.692555 0.000000 0.000000 0.000000 0.000000 -1.532359
    9 14.946038 3.107988 0.238289 4.295658 0.176138 -0.143050
    10 3.886546 -0.226573 -0.000003 -2.633875 -0.527768 -0.346839
    11 17.848177 0.000000 0.000000 0.000000 0.000000 1.712195
    12 16.525253 0.000000 0.000000 0.039792 0.539479 -1.138293
    13 -3.886546 0.226573 0.000007 -1.869205 -1.009665 -1.167218
    14 17.848173 0.000000 0.000000 0.000000 0.000000 1.458891
    15 16.525257 0.000000 0.000000 -0.058287 0.062313 -1.699532
  time 2
    0 -0.934206 9.126346 28.875215 1.846487 0.190016 -0.571998
    1 0.000005 3.345128 -2.981901 1.576270 -0.089589 1.511664
    2 7.489221 0.582049 -0.039064 -0.511882 -0.082574 0.596591
    3 10.596343 1.725745 -1.785262 -2.604856 0.997849 2.243595
    4 6.028143 0.000001 0.000000 0.969016 1.197868 -1.027696
    5 11.692552 0.000000 0.000002 0.000000 0.000000 -1.571542
    6 10.678370 1.276507 2.062664 -0.717385 -1.422145 5.532447
    7 6.028142 0.000001 0.000000 -2.726479 -0.559040 0.019277
    8 11.692555 0.000000 0.000000 0.000000 0.000000 -1.532359
    9 14.946038 3.107988 0.238289 4.295658 0.176138 -0.143050
    10 3.886546 -0.226573 -0.000003 -2.506159 -0.391361 -0.442131
    11 17.848177 0.000000 0.000000 0.000000 0.000000 1.627766
    12 16.525253 0.000000 0.000000 0.087136 0.421323 -1.214941
    13 -3.886546 0.226573 0.000007 -1.898320 -1.074619 -1.148107
    14 17.848173 0.000000 0.000000 0.000000 0.000000 1.436055
    15 16.525257 0.000000 0.000000 -0.023494 0.057527 -1.603829
  time 3
    0 0.525705 10.531217 28.828339 1.846487 0.190016 -0.571998
    1 0.000005 3.345128 -2.981901 1.576270 -0.089589 1.511664
    2 7.489221 0.582049 -0.039064 -0.511882 -0.082574 0.596591
    3 10.596343 1.725745 -1.785262 -2.604856 0.997849 2.243595
    4 6.028143 0.000001 0.000000 0.969016 1.197868 -1.027696
    5 11.692552 0.000000 0.000002 0.000000 0.000000 -1.571542
    6 10.678370 1.276507 2.062664 -0.717385 -1.422145 5.532447
    7 6.028142 0.000001 0.000000 -2.726479 -0.559040 0.019277
    8 11.692555 0.000000 0.000000 0.000000 0.000000 -1.532359
    9 14.946038 3.107988 0.238289 4.295658 0.176138 -0.143050
    10 3.886546 -0.226573 -0.000003 -2.450718 -0.306303 -0.488963
    11 17.848177 0.000000 0.000000 0.000000 0.000000 1.570991
    12 16.525253 0.000000 0.000000 0.132209 0.303188 -1.251968
    13 -3.886546 0.226573 0.000007 -1.934691 -1.138786 -1.125474
    14 17.848173 0.000000 0.000000 0.000000 0.000000 1.409862
    15 16.525257 0.000000 0.000000 0.010906 0.047555 -1.504533
  time 4
    0 1.985617 11.936089 28.644740 1.846487 0.190016 -0.571998
    1 0.000005 3.345128 -2.981901 1.576270 -0.089589 1.511664
    2 7.489221 0.582049 -0.039064 -0.511882 -0.082574 0.596591
    3 10.596343 1.725745 -1.785262 -2.604856 0.997849 2.243595
    4 6.028143 0.000001 0.000000 0.969016 1.197868 -1.027696
    5 11.692552 0.000000 0.000002 0.000000 0.000000 -1.571542
    6 10.678370 1.276507 2.062664 -0.717385 -1.422145 5.532447
    7 6.028142 0.000001 0.000000 -2.726479 -0.559040 0.019277
    8 11.692555 0.000000 0.000000 0.000000 0.000000 -1.532359
    9 14.946038 3.107988 0.238289 4.295658 0.176138 -0.143050
    10 3.886546 -0.226573 -0.000003 -2.461422 -0.325558 -0.478928
    11 17.848177 0.000000 0.000000 0.000000 0.000000 1.606678
    12 16.525253 0.000000 0.000000 0.163228 0.224133 -1.267855
    13 -3.886546 0.226573 0.000007 -1.978137 -1.199325 -1.101256
    14 17.848173 0.000000 0.000000 0.000000 0.000000 1.380396
    15 16.525257 0.000000 0.000000 0.039807 0.034244 -1.410461
  time 5
    0 3.445528 13.340960 28.351762 1.846487 0.190016 -0.571998
    1 0.000005 3.345128 -2.981901 1.576270 -0.089589 1.511664
    2 7.489221 0.582049 -0.039064 -0.511882 -0.082574 0.596591
    3 10.596343 1.725745 -1.785262 -2.604856 0.997849 2.243595
    4 6.028143 0.000001 0.000000 0.969016 1.197868 -1.027696
    5 11.692552 0.000000 0.000002 0.000000 0.000000 -1.571542
    6 10.678370 1.276507 2.062664 -0.717385 -1.422145 5.532447
    7 6.028142 0.000001 0.000000 -2.726479 -0.559040 0.019277
    8 11.692555 0.000000 0.000000 0.000000 0.000000 -1.532359
    9 14.946038 3.107988 0.238289 4.295658 0.176138 -0.143050
    10 3.886546 -0.226573 -0.000003 -2.512838 -0.395984 -0.446248
    11 17.848177 0.000000 0.000000 0.000000 0.000000 1.673418
    12 16.525253 0.000000 0.000000 0.153833 0.202813 -1.306932
    13 -3.886546 0.226573 0.000007 -2.029384 -1.254226 -1.073163
    14 17.848173 0.000000 0.000000 0.000000 0.000000 1.345036
    15 16.525257 0.000000 0.000000 0.066941 0.031289 -1.322985
  time 6
    0 4.905439 14.745831 28.109567 1.846487 0.190016 -0.571998
    1 0.000005 3.345128 -2.981901 1.576270 -0.089589 1.511664
    2 7.489221 0.582049 -0.039064 -0.511882 -0.082574 0.596591
    3 10.596343 1.725745 -1.785262 -2.604856 0.997849 2.243595
    4 6.028143 0.000001 0.000000 0.969016 1.197868 -1.027696
    5 11.692552 0.000000 0.000002 0.000000 0.000000 -1.571542
    6 10.678370 1.276507 2.062664 -0.717385 -1.422145 5.532447
    7 6.028142 0.000001 0.000000 -2.726479 -0.559040 0.019277
    8 11.692555 0.000000 0.000000 0.000000 0.000000 -1.532359
    9 14.946038 3.107988 0.238289 4.295658 0.176138 -0.143050
    10 3.886546 -0.226573 -0.000003 -2.562149 -0.442530 -0.434669
    11 17.848177 0.000000 0.000000 0.000000 0.000000 1.693811
    12 16.525253 0.000000 0.000000 0.098564 0.215894 -1.395559
    13 -3.886546 0.226573 0.000007 -2.079088 -1.296669 -1.047360
    14 17.848173 0.000000 0.000000 0.000000 0.000000 1.290278
    15 16.525257 0.000000 0.000000 0.097681 0.043916 -1.230691
  time 7
    0 6.365350 16.150702 27.984563 1.846487 0.190016 -0.571998
    1 0.000005 3.345128 -2.981901 1.576270 -0.089589 1.511664
    2 7.489221 0.582049 -0.039064 -0.511882 -0.082574 0.596591
    3 10.596343 1.725745 -1.785262 -2.604856 0.997849 2.243595
    4 6.028143 0.000001 0.000000 0.969016 1.197868 -1.027696
    5 11.692552 0.000000 0.000002 0.000000 0.000000 -1.571542
    6 10.678370 1.276507 2.062664 -0.717385 -1.422145 5.532447
    7 6.028142 0.000001 0.000000 -2.726479 -0.559040 0.019277
    8 11.692555 0.000000 0.000000 0.000000 0.000000 -1.532359
    9 14.946038 3.107988 0.238289 4.295658 0.176138 -0.143050
    10 3.886546 -0.226573 -0.000003 -2.607161 -0.474848 -0.439472
    11 17.848177 0.000000 0.000000 0.000000 0.000000 1.682070
    12 16.525253 0.000000 0.000000 0.014398 0.230419 -1.507952
    13 -3.886546 0.226573 0.000007 -2.109927 -1.322982 -1.040403
    14 17.848173 0.000000 0.000000 0.000000 0.000000 1.210882
    15 16.525257 0.000000 0.000000 0.130278 0.063298 -1.129135
  time 8
    0 7.825262 17.555573 27.945500 1.846487 0.190016 -0.571998
    1 0.000005 3.345128 -2.981901 1.576270 -0.089589 1.511664
    2 7.489221 0.582049 -0.039064 -0.511882 -0.082574 0.596591
    3 10.596343 1.725745 -1.785262 -2.604856 0.997849 2.243595
    4 6.028143 0.000001 0.000000 0.969016 1.197868 -1.027696
    5 11.692552 0.000000 0.000002 0.000000 0.000000 -1.571542
    6 10.678370 1.276507 2.062664 -0.717385 -1.422145 5.532447
    7 6.028142 0.000001 0.000000 -2.726479 -0.559040 0.019277
    8 11.692555 0.000000 0.000000 0.000000 0.000000 -1.532359
    9 14.946038 3.107988 0.238289 4.295658 0.176138 -0.143050
    10 3.886546 -0.226573 -0.000003 -2.648971 -0.501824 -0.451995
    11 17.848177 0.000000 0.000000 0.000000 0.000000 1.654416
    12 16.525253 0.000000 0.000000 -0.076847 0.225069 -1.619289
    13 -3.886546 0.226573 0.000007 -2.111469 -1.334434 -1.061715
    14 17.848173 0.000000 0.000000 0.000000 0.000000 1.109550
    15 16.525257 0.000000 0.000000 0.163643 0.080670 -1.016834
  time 9
    0 9.285173 18.960444 27.965031 1.846487 0.190016 -0.571998
    1 0.000005 3.345128 -2.981901 1.576270 -0.089589 1.511664
    2 7.489221 0.582049 -0.039064 -0.511882 -0.082574 0.596591
    3 10.596343 1.725745 -1.785262 -2.604856 0.997849 2.243595
    4 6.028143 0.000001 0.000000 0.969016 1.197868 -1.027696
    5 11.692552 0.000000 0.000002 0.000000 0.000000 -1.571542
    6 10.678370 1.276507 2.062664 -0.717385 -1.422145 5.532447
    7 6.028142 0.000001 0.000000 -2.726479 -0.559040 0.019277
    8 11.692555 0.000000 0.000000 0.000000 0.000000 -1.532359
    9 14.946038 3.107988 0.238289 4.295658 0.176138 -0.143050
    10 3.886546 -0.226573 -0.000003 -2.692884 -0.533064 -0.460830
    11 17.848177 0.000000 0.000000 0.000000 0.000000 1.627535
    12 16.525253 0.000000 0.000000 -0.142372 0.196059 -1.700389
    13 -3.886546 0.226573 0.000007 -2.081084 -1.331724 -1.113145
    14 17.848173 0.000000 0.000000 0.000000 0.000000 0.987591
    15 16.525257 0.000000 0.000000 0.196650 0.085314 -0.890639
  time 10
    0 10.745084 20.365316 28.050972 1.846487 0.190016 -0.571998
    1 0.000005 3.345128 -2.981901 1.576270 -0.089589 1.511664
    2 7.489221 0.582049 -0.039064 -0.511882 -0.082574 0.596591
    3 10.596343 1.725745 -1.785262 -2.604856 0.997849 2.243595
    4 6.028143 0.000001 0.000000 0.969016 1.197868 -1.027696
    5 11.692552 0.000000 0.000002 0.000000 0.000000 -1.571542
    6 10.678370 1.276507 2.062664 -0.717385 -1.422145 5.532447
    7 6.028142 0.000001 0.000000 -2.726479 -0.559040 0.019277
    8 11.692555 0.000000 0.000000 0.000000 0.000000 -1.532359
    9 14.946038 3.107988 0.238289 4.295658 0.176138 -0.143050
    10 3.886546 -0.226573 -0.000003 -2.752351 -0.580239 -0.448736
    11 17.848177 0.000000 0.000000 0.000000 0.000000 1.619810
    12 16.525253 0.000000 0.000000 -0.137029 0.156043 -1.713425
    13 -3.886546 0.226573 0.000007 -2.020858 -1.311137 -1.191788
    14 17.848173 0.000000 0.000000 0.000000 0.000000 0.838786
    15 16.525257 0.000000 0.000000 0.226872 0.060262 -0.742992
  time 11
    0 12.204996 21.770187 28.226758 1.846487 0.190016 -0.571998
    1 0.000005 3.345128 -2.981901 1.576270 -0.089589 1.511664
    2 7.489221 0.582049 -0.039064 -0.511882 -0.082574 0.596591
    3 10.596343 1.725745 -1.785262 -2.604856 0.997849 2.243595
    4 6.028143 0.000001 0.000000 0.969016 1.197868 -1.027696
    5 11.692552 0.000000 0.000002 0.000000 0.000000 -1.571542
    6 10.678370 1.276507 2.062664 -0.717385 -1.422145 5.532447
    7 6.028142 0.000001 0.000000 -2.726479 -0.559040 0.019277
    8 11.692555 0.000000 0.000000 0.000000 0.000000 -1.532359
    9 14.946038 3.107988 0.238289 4.295658 0.176138 -0.143050
    10 3.886546 -0.226573 -0.000003 -2.828743 -0.636840 -0.420259
    11 17.848177 0.000000 0.000000 0.000000 0.000000 1.616875
    12 16.525253 0.000000 0.000000 -0.073508 0.113851 -1.668775
    13 -3.886546 0.226573 0.000007 -2.042535 -1.312317 -1.151014
    14 17.848173 0.000000 0.000000 0.000000 0.000000 0.825608
    15 16.525257 0.000000 0.000000 0.224213 0.016129 -0.640398
  time 12
    0 13.664907 23.175058 28.480672 1.846487 0.190016 -0.571998
    1 0.000005 3.345128 -2.981901 1.576270 -0.089589 1.511664
    2 7.489221 0.582049 -0.039064 -0.511882 -0.082574 0.596591
    3 10.596343 1.725745 -1.785262 -2.604856 0.997849 2.243595
    4 6.028143 0.000001 0.000000 0.969016 1.197868 -1.027696
    5 11.692552 0.000000 0.000002 0.000000 0.000000 -1.571542
    6 10.678370 1.276507 2.062664 -0.717385 -1.422145 5.532447
    7 6.028142 0.000001 0.000000 -2.726479 -0.559040 0.019277
    8 11.692555 0.000000 0.000000 0.000000 0.000000 -1.532359
    9 14.946038 3.107988 0.238289 4.295658 0.176138 -0.143050
    10 3.886546 -0.226573 -0.000003 -2.901658 -0.686438 -0.401475
    11 17.848177 0.000000 0.000000 0.000000 0.000000 1.590225
    12 16.525253 0.000000 0.000000 -0.009111 0.070905 -1.616342
    13 -3.886546 0.226573 0.000007 -2.206615 -1.352618 -0.929791
    14 17.848173 0.000000 0.000000 0.000000 0.000000 1.067724
    15 16.525257 0.000000 0.000000 0.187456 -0.019439 -0.668853
  time 13
    0 15.124818 24.579929 28.722867 1.846487 0.190016 -0.571998
    1 0.000005 3.345128 -2.981901 1.576270 -0.089589 1.511664
    2 7.489221 0.582049 -0.039064 -0.511882 -0.082574 0.596591
    3 10.596343 1.725745 -1.785262 -2.604856 0.997849 2.243595
    4 6.028143 0.000001 0.000000 0.969016 1.197868 -1.027696
    5 11.692552 0.000000 0.000002 0.000000 0.000000 -1.571542
    6 10.678370 1.276507 2.062664 -0.717385 -1.422145 5.532447
    7 6.028142 0.000001 0.000000 -2.726479 -0.559040 0.019277
    8 11.692555 0.000000 0.000000 0.000000 0.000000 -1.532359
    9 14.946038 3.107988 0.238289 4.295658 0.176138 -0.143050
    10 3.886546 -0.226573 -0.000003 -2.970913 -0.731144 -0.388009
    11 17.848177 0.000000 0.000000 0.000000 0.000000 1.550753
    12 16.525253 0.000000 0.000000 0.053906 0.029038 -1.560898
    13 -3.886546 0.226573 0.000007 -2.261761 -1.348946 -0.821646
    14 17.848173 0.000000 0.000000 0.000000 0.000000 1.414037
    15 16.525257 0.000000 0.000000 0.144756 -0.052172 -0.815463
  time 14
    0 16.584730 25.984800 28.824433 1.846487 0.190016 -0.571998
    1 0.000005 3.345128 -2.981901 1.576270 -0.089589 1.511664
    2 7.489221 0.582049 -0.039064 -0.511882 -0.082574 0.596591
    3 10.596343 1.725745 -1.785262 -2.604856 0.997849 2.243595
    4 6.028143 0.000001 0.000000 0.969016 1.197868 -1.027696
    5 11.692552 0.000000 0.000002 0.000000 0.000000 -1.571542
    6 10.678370 1.276507 2.062664 -0.717385 -1.422145 5.532447
    7 6.028142 0.000001 0.000000 -2.726479 -0.559040 0.019277
    8 11.692555 0.000000 0.000000 0.000000 0.000000 -1.532359
    9 14.946038 3.107988 0.238289 4.295658 0.176138 -0.143050
    10 3.886546 -0.226573 -0.000003 -3.041724 -0.773157 -0.371541
    11 17.848177 0.000000 0.000000 0.000000 0.000000 1.511976
    12 16.525253 0.000000 0.000000 0.114518 -0.011364 -1.506927
    13 -3.886546 0.226573 0.000007 -2.021855 -1.219782 -1.027457
    14 17.848173 0.000000 0.000000 0.000000 0.000000 1.700189
    15 16.525257 0.000000 0.000000 0.100145 -0.080200 -1.045326
  time 15
    0 18.044641 27.389671 28.804901 1.846487 0.190016 -0.571998
    1 0.000005 3.345128 -2.981901 1.576270 -0.089589 1.511664
    2 7.489221 0.582049 -0.039064 -0.511882 -0.082574 0.596591
    3 10.596343 1.725745 -1.785262 -2.604856 0.997849 2.243595
    4 6.028143 0.000001 0.000000 0.969016 1.197868 -1.027696
    5 11.692552 0.000000 0.000002 0.000000 0.000000 -1.571542
    6 10.678370 1.276507 2.062664 -0.717385 -1.422145 5.532447
    7 6.028142 0.000001 0.000000 -2.726479 -0.559040 0.019277
    8 11.692555 0.000000 0.000000 0.000000 0.000000 -1.532359
    9 14.946038 3.107988 0.238289 4.295658 0.176138 -0.143050
    10 3.886546 -0.226573 -0.000003 -3.116561 -0.813015 -0.349498
    11 17.848177 0.000000 0.000000 0.000000 0.000000 1.477216
    12 16.525253 0.000000 0.000000 0.172133 -0.050668 -1.453597
    13 -3.886546 0.226573 0.000007 -1.866302 -0.973211 -1.137892
    14 17.848173 0.000000 0.000000 0.000000 0.000000 1.814290
    15 16.525257 0.000000 0.000000 0.049108 -0.071474 -1.238916
  time 16
    0 19.504552 28.794543 28.672084 1.846487 0.190016 -0.571998
    1 0.000005 3.345128 -2.981901 1.576270 -0.089589 1.511664
    2 7.489221 0.582049 -0.039064 -0.511882 -0.082574 0.596591
    3 10.596343 1.725745 -1.785262 -2.604856 0.997849 2.243595
    4 6.028143 0.000001 0.000000 0.969016 1.197868 -1.027696
    5 11.692552 0.000000 0.000002 0.000000 0.000000 -1.571542
    6 10.678370 1.276507 2.062664 -0.717385 -1.422145 5.532447
    7 6.028142 0.000001 0.000000 -2.726479 -0.559040 0.019277
    8 11.692555 0.000000 0.000000 0.000000 0.000000 -1.532359
    9 14.946038 3.107988 0.238289 4.295658 0.176138 -0.143050
    10 3.886546 -0.226573 -0.000003 -3.201461 -0.850809 -0.316389
    11 17.848177 0.000000 0.000000 0.000000 0.000000 1.453038
    12 16.525253 0.000000 0.000000 0.225503 -0.089829 -1.400940
    13 -3.886546 0.226573 0.000007 -1.823763 -0.781278 -1.130318
    14 17.848173 0.000000 0.000000 0.000000 0.000000 1.805777
    15 16.525257 0.000000 0.000000 0.011173 -0.049518 -1.353700
  time 17
    0 20.964464 30.199414 28.472859 1.846487 0.190016 -0.571998
    1 0.000005 3.345128 -2.981901 1.576270 -0.089589 1.511664
    2 7.489221 0.582049 -0.039064 -0.511882 -0.082574 0.596591
    3 10.596343 1.725745 -1.785262 -2.604856 0.997849 2.243595
    4 6.028143 0.000001 0.000000 0.969016 1.197868 -1.027696
    5 11.692552 0.000000 0.000002 0.000000 0.000000 -1.571542
    6 10.678370 1.276507 2.062664 -0.717385 -1.422145 5.532447
    7 6.028142 0.000001 0.000000 -2.726479 -0.559040 0.019277
    8 11.692555 0.000000 0.000000 0.000000 0.000000 -1.532359
    9 14.946038 3.107988 0.238289 4.295658 0.176138 -0.143050
    10 3.886546 -0.226573 -0.000003 -3.285537 -0.874104 -0.262267
    11 17.848177 0.000000 0.000000 0.000000 0.000000 1.459372
    12 16.525253 0.000000 0.000000 0.227759 -0.096339 -1.314074
    13 -3.886546 0.226573 0.000007 -1.810521 -0.711253 -1.140093
    14 17.848173 0.000000 0.000000 0.000000 0.000000 1.756503
    15 16.525257 0.000000 0.000000 -0.005054 -0.063170 -1.472596
  time 18
    0 22.424375 31.604285 28.277541 1.846487 0.190016 -0.571998
    1 0.000005 3.345128 -2.981901 1.576270 -0.089589 1.511664
    2 7.489221 0.582049 -0.039064 -0.511882 -0.082574 0.596591
    3 10.596343 1.725745 -1.785262 -2.604856 0.997849 2.243595
    4 6.028143 0.000001 0.000000 0.969016 1.197868 -1.027696
    5 11.692552 0.000000 0.000002 0.000000 0.000000 -1.571542
    6 10.678370 1.276507 2.062664 -0.717385 -1.422145 5.532447
    7 6.028142 0.000001 0.000000 -2.726479 -0.559040 0.019277
    8 11.692555 0.000000 0.000000 0.000000 0.000000 -1.532359
    9 14.946038 3.107988 0.238289 4.295658 0.176138 -0.143050
    10 3.886546 -0.226573 -0.000003 -3.351682 -0.875316 -0.191334
    11 17.848177 0.000000 0.000000 0.000000 0.000000 1.501625
    12 16.525253 0.000000 0.000000 0.166538 -0.044524 -1.173270
    13 -3.886546 0.226573 0.000007 -1.804353 -0.690535 -1.155769
    14 17.848173 0.000000 0.000000 0.000000 0.000000 1.681281
    15 16.525257 0.000000 0.000000 -0.017675 -0.057058 -1.573188
  time 19
    0 23.884286 33.009156 28.148631 1.846487 0.190016 -0.571998
    1 0.000005 3.345128 -2.981901 1.576270 -0.089589 1.511664
    2 7.489221 0.582049 -0.039064 -0.511882 -0.082574 0.596591
    3 10.596343 1.725745 -1.785262 -2.604856 0.997849 2.243595
    4 6.028143 0.000001 0.000000 0.969016 1.197868 -1.027696
    5 11.692552 0.000000 0.000002 0.000000 0.000000 -1.571542
    6 10.678370 1.276507 2.062664 -0.717385 -1.422145 5.532447
    7 6.028142 0.000001 0.000000 -2.726479 -0.559040 0.019277
    8 11.692555 0.000000 0.000000 0.000000 0.000000 -1.532359
    9 14.946038 3.107988 0.238289 4.295658 0.176138 -0.143050
    10 3.886546 -0.226573 -0.000003 -3.391022 -0.860773 -0.119028
    11 17.848177 0.000000 0.000000 0.000000 0.000000 1.564812
    12 16.525253 0.000000 0.000000 0.093384 0.067365 -1.008732
    13 -3.886546 0.226573 0.000007 -1.802176 -0.702205 -1.173823
    14 17.848173 0.000000 0.000000 0.000000 0.000000 1.599266
    15 16.525257 0.000000 0.000000 -0.034455 -0.038761 -1.662666
  time 20
    0 25.344198 34.414027 28.086129 1.846487 0.190016 -0.571998
    1 0.000005 3.345128 -2.981901 1.576270 -0.089589 1.511664
    2 7.489221 0.582049 -0.039064 -0.511882 -0.082574 0.596591
    3 10.596343 1.725745 -1.785262 -2.604856 0.997849 2.243595
    4 6.028143 0.000001 0.000000 0.969016 1.197868 -1.027696
    5 11.692552 0.000000 0.000002 0.000000 0.000000 -1.571542
    6 10.678370 1.276507 2.062664 -0.717385 -1.422145 5.532447
    7 6.028142 0.000001 0.000000 -2.726479 -0.559040 0.019277
    8 11.692555 0.000000 0.000000 0.000000 0.000000 -1.532359
    9 14.946038 3.107988 0.238289 4.295658 0.176138 -0.143050
    10 3.886546 -0.226573 -0.000003 -3.394224 -0.836939 -0.057444
    11 17.848177 0.000000 0.000000 0.000000 0.000000 1.636109
    12 16.525253 0.000000 0.000000 0.050359 0.229565 -0.854379
    13 -3.886546 0.226573 0.000007 -1.803718 -0.735950 -1.188442
    14 17.848173 0.000000 0.000000 0.000000 0.000000 1.536323
    15 16.525257 0.000000 0.000000 -0.060108 -0.014372 -1.751996
  time 21
    0 26.804109 35.818898 28.093942 1.846487 0.190016 -0.571998
    1 0.000005 3.345128 -2.981901 1.576270 -0.089589 1.511664
    2 7.489221 0.582049 -0.039064 -0.511882 -0.082574 0.596591
    3 10.596343 1.725745 -1.785262 -2.604856 0.997849 2.243595
    4 6.028143 0.000001 0.000000 0.969016 1.197868 -1.027696
    5 11.692552 0.000000 0.000002 0.000000 0.000000 -1.571542
    6 10.678370 1.276507 2.062664 -0.717385 -1.422145 5.532447
    7 6.028142 0.000001 0.000000 -2.726479 -0.559040 0.019277
    8 11.692555 0.000000 0.000000 0.000000 0.000000 -1.532359
    9 14.946038 3.107988 0.238289 4.295658 0.176138 -0.143050
    10 3.886546 -0.226573 -0.000003 -3.352323 -0.809784 -0.018503
    11 17.848177 0.000000 0.000000 0.000000 0.000000 1.701844
    12 16.525253 0.000000 0.000000 0.046975 0.409951 -0.745317
    13 -3.886546 0.226573 0.000007 -1.809251 -0.783725 -1.196632
    14 17.848173 0.000000 0.000000 0.000000 0.000000 1.502764
    15 16.525257 0.000000 0.000000 -0.091080 0.010017 -1.832210
  time 22
    0 28.264020 37.223770 28.179882 1.846487 0.190016 -0.571998
    1 0.000005 3.345128 -2.981901 1.576270 -0.089589 1.511664
    2 7.489221 0.582049 -0.039064 -0.511882 -0.082574 0.596591
    3 10.596343 1.725745 -1.785262 -2.604856 0.997849 2.243595
    4 6.028143 0.000001 0.000000 0.969016 1.197868 -1.027696
    5 11.692552 0.000000 0.000002 0.000000 0.000000 -1.571542
    6 10.678370 1.276507 2.062664 -0.717385 -1.422145 5.532447
    7 6.028142 0.000001 0.000000 -2.726479 -0.559040 0.019277
    8 11.692555 0.000000 0.000000 0.000000 0.000000 -1.532359
    9 14.946038 3.107988 0.238289 4.295658 0.176138 -0.143050
    10 3.886546 -0.226573 -0.000003 -3.255713 -0.782583 -0.019875
    11 17.848177 0.000000 0.000000 0.000000 0.000000 1.742553
    12 16.525253 0.000000 0.000000 0.035146 0.557788 -0.740480
    13 -3.886546 0.226573 0.000007 -1.817867 -0.834561 -1.197777
    14 17.848173 0.000000 0.000000 0.000000 0.000000 1.494006
    15 16.525257 0.000000 0.000000 -0.111555 0.033219 -1.868261
  time 23
    0 29.723932 38.628641 28.359575 1.846487 0.190016 -0.571998
    1 0.000005 3.345128 -2.981901 1.576270 -0.089589 1.511664
    2 7.489221 0.582049 -0.039064 -0.511882 -0.082574 0.596591
    3 10.596343 1.725745 -1.785262 -2.604856 0.997849 2.243595
    4 6.028143 0.000001 0.000000 0.969016 1.197868 -1.027696
    5 11.692552 0.000000 0.000002 0.000000 0.000000 -1.571542
    6 10.678370 1.276507 2.062664 -0.717385 -1.422145 5.532447
    7 6.028142 0.000001 0.000000 -2.726479 -0.559040 0.019277
    8 11.692555 0.000000 0.000000 0.000000 0.000000 -1.532359
    9 14.946038 3.107988 0.238289 4.295658 0.176138 -0.143050
    10 3.886546 -0.226573 -0.000003 -3.075300 -0.740974 -0.086520
    11 17.848177 0.000000 0.000000 0.000000 0.000000 1.767580
    12 16.525253 0.000000 0.000000 0.003490 0.625817 -0.858799
    13 -3.886546 0.226573 0.000007 -1.829840 -0.887319 -1.192493
    14 17.848173 0.000000 0.000000 0.000000 0.000000 1.490568
    15 16.525257 0.000000 0.000000 -0.107592 0.051435 -1.842140
  time 24
    0 31.183843 40.033512 28.597863 1.846487 0.190016 -0.571998
    1 0.000005 3.345128 -2.981901 1.576270 -0.089589 1.511664
    2 7.489221 0.582049 -0.039064 -0.511882 -0.082574 0.596591
    3 10.596343 1.725745 -1.785262 -2.604856 0.997849 2.243595
    4 6.028143 0.000001 0.000000 0.969016 1.197868 -1.027696
    5 11.692552 0.000000 0.000002 0.000000 0.000000 -1.571542
    6 10.678370 1.276507 2.062664 -0.717385 -1.422145 5.532447
    7 6.028142 0.000001 0.000000 -2.726479 -0.559040 0.019277
    8 11.692555 0.000000 0.000000 0.000000 0.000000 -1.532359
    9 14.946038 3.107988 0.238289 4.295658 0.176138 -0.143050
    10 3.886546 -0.226573 -0.000003 -2.838349 -0.657532 -0.214149
    11 17.848177 0.000000 0.000000 0.000000 0.000000 1.765572
    12 16.525253 0.000000 0.000000 0.007037 0.616805 -1.010654
    13 -3.886546 0.226573 0.000007 -1.846620 -0.946285 -1.182277
    14 17.848173 0.000000 0.000000 0.000000 0.000000 1.477390
    15 16.525257 0.000000 0.000000 -0.088134 0.060624 -1.782118
end
