// Created by Crowbar 0.74
version 1
nodes
  0 "ValveBiped.Bip01" -1
  1 "ValveBiped.Bip01_Spine" 0
  2 "ValveBiped.Bip01_Spine2" 1
  3 "ValveBiped.Bip01_R_Clavicle" 2
  4 "ValveBiped.Bip01_R_UpperArm" 3
  5 "ValveBiped.Bip01_R_Forearm" 4
  6 "ValveBiped.Bip01_L_Clavicle" 2
  7 "ValveBiped.Bip01_L_UpperArm" 6
  8 "ValveBiped.Bip01_L_Forearm" 7
  9 "ValveBiped.Bip01_Head1" 2
  10 "ValveBiped.Bip01_L_Thigh" 0
  11 "ValveBiped.Bip01_L_Calf" 10
  12 "ValveBiped.Bip01_L_Foot" 11
  13 "ValveBiped.Bip01_R_Thigh" 0
  14 "ValveBiped.Bip01_R_Calf" 13
  15 "ValveBiped.Bip01_R_Foot" 14
end
skeleton
  time 0
    0 -4.615771 5.593926 28.597863 1.846487 0.190016 -0.571998
    1 0.000005 3.345128 -2.981901 1.576270 -0.089589 1.511664
    2 7.489221 0.582049 -0.039064 -0.511882 -0.082574 0.596591
    3 10.596343 1.725745 -1.785262 -2.604856 0.997849 2.243595
    4 6.028143 0.000001 0.000000 0.969016 1.197868 -1.027696
    5 11.692552 0.000000 0.000002 0.000000 0.000000 -1.571542
    6 10.678370 1.276507 2.062664 -0.717385 -1.422145 5.532447
    7 6.028142 0.000001 0.000000 -2.726479 -0.559040 0.019277
    8 11.692555 0.000000 0.000000 0.000000 0.000000 -1.532359
    9 14.946038 3.107988 0.238289 4.295658 0.176138 -0.143050
    10 3.886546 -0.226573 -0.000003 -3.399896 -1.163033 0.233410
    11 17.848177 0.000000 0.000000 0.000000 0.000000 1.821729
    12 16.525253 0.000000 0.000000 0.309357 -0.263319 -1.116929
    13 -3.886546 0.226573 0.000007 -1.218511 -0.964337 -1.638284
    14 17.848173 0.000000 0.000000 0.000000 0.000000 1.461756
    15 16.525257 0.000000 0.000000 -0.076906 -0.122363 -1.677449
  time 1
    0 -6.510680 5.750182 28.785369 1.846487 0.190016 -0.571998
    1 0.000005 3.345128 -2.981901 1.576270 -0.089589 1.511664
    2 7.489221 0.582049 -0.039064 -0.511882 -0.082574 0.596591
    3 10.596343 1.725745 -1.785262 -2.604856 0.997849 2.243595
    4 6.028143 0.000001 0.000000 0.969016 1.197868 -1.027696
    5 11.692552 0.000000 0.000002 0.000000 0.000000 -1.571542
    6 10.678370 1.276507 2.062664 -0.717385 -1.422145 5.532447
    7 6.028142 0.000001 0.000000 -2.726479 -0.559040 0.019277
    8 11.692555 0.000000 0.000000 0.000000 0.000000 -1.532359
    9 14.946038 3.107988 0.238289 4.295658 0.176138 -0.143050
    10 3.886546 -0.226573 -0.000003 -3.349670 -1.236735 -0.020390
    11 17.848177 0.000000 0.000000 0.000000 0.000000 1.656733
    12 16.525253 0.000000 0.000000 0.443390 -0.178324 -1.246299
    13 -3.886546 0.226573 0.000007 -1.252161 -0.927708 -1.559200
    14 17.848173 0.000000 0.000000 0.000000 0.000000 1.452753
    15 16.525257 0.000000 0.000000 -0.160308 -0.127530 -1.695715
  time 2
    0 -8.389963 5.925970 28.875215 1.846487 0.190016 -0.571998
    1 0.000005 3.345128 -2.981901 1.576270 -0.089589 1.511664
    2 7.489221 0.582049 -0.039064 -0.511882 -0.082574 0.596591
    3 10.596343 1.725745 -1.785262 -2.604856 0.997849 2.243595
    4 6.028143 0.000001 0.000000 0.969016 1.197868 -1.027696
    5 11.692552 0.000000 0.000002 0.000000 0.000000 -1.571542
    6 10.678370 1.276507 2.062664 -0.717385 -1.422145 5.532447
    7 6.028142 0.000001 0.000000 -2.726479 -0.559040 0.019277
    8 11.692555 0.000000 0.000000 0.000000 0.000000 -1.532359
    9 14.946038 3.107988 0.238289 4.295658 0.176138 -0.143050
    10 3.886546 -0.226573 -0.000003 -3.111438 -1.274977 -0.348811
    11 17.848177 0.000000 0.000000 0.000000 0.000000 1.504251
    12 16.525253 0.000000 0.000000 0.458380 -0.003857 -1.354080
    13 -3.886546 0.226573 0.000007 -1.282002 -0.893308 -1.483992
    14 17.848173 0.000000 0.000000 0.000000 0.000000 1.443749
    15 16.525257 0.000000 0.000000 -0.243388 -0.137060 -1.710647
  time 3
    0 -10.249714 6.113477 28.828339 1.846487 0.190016 -0.571998
    1 0.000005 3.345128 -2.981901 1.576270 -0.089589 1.511664
    2 7.489221 0.582049 -0.039064 -0.511882 -0.082574 0.596591
    3 10.596343 1.725745 -1.785262 -2.604856 0.997849 2.243595
    4 6.028143 0.000001 0.000000 0.969016 1.197868 -1.027696
    5 11.692552 0.000000 0.000002 0.000000 0.000000 -1.571542
    6 10.678370 1.276507 2.062664 -0.717385 -1.422145 5.532447
    7 6.028142 0.000001 0.000000 -2.726479 -0.559040 0.019277
    8 11.692555 0.000000 0.000000 0.000000 0.000000 -1.532359
    9 14.946038 3.107988 0.238289 4.295658 0.176138 -0.143050
    10 3.886546 -0.226573 -0.000003 -2.922883 -1.273182 -0.558524
    11 17.848177 0.000000 0.000000 0.000000 0.000000 1.418278
    12 16.525253 0.000000 0.000000 0.398970 0.147662 -1.456704
    13 -3.886546 0.226573 0.000007 -1.310210 -0.859214 -1.408783
    14 17.848173 0.000000 0.000000 0.000000 0.000000 1.435891
    15 16.525257 0.000000 0.000000 -0.317525 -0.138367 -1.728468
  time 4
    0 -12.089934 6.316609 28.644740 1.846487 0.190016 -0.571998
    1 0.000005 3.345128 -2.981901 1.576270 -0.089589 1.511664
    2 7.489221 0.582049 -0.039064 -0.511882 -0.082574 0.596591
    3 10.596343 1.725745 -1.785262 -2.604856 0.997849 2.243595
    4 6.028143 0.000001 0.000000 0.969016 1.197868 -1.027696
    5 11.692552 0.000000 0.000002 0.000000 0.000000 -1.571542
    6 10.678370 1.276507 2.062664 -0.717385 -1.422145 5.532447
    7 6.028142 0.000001 0.000000 -2.726479 -0.559040 0.019277
    8 11.692555 0.000000 0.000000 0.000000 0.000000 -1.532359
    9 14.946038 3.107988 0.238289 4.295658 0.176138 -0.143050
    10 3.886546 -0.226573 -0.000003 -2.908153 -1.262678 -0.552606
    11 17.848177 0.000000 0.000000 0.000000 0.000000 1.420827
    12 16.525253 0.000000 0.000000 0.339782 0.213860 -1.521757
    13 -3.886546 0.226573 0.000007 -1.338781 -0.821491 -1.329964
    14 17.848173 0.000000 0.000000 0.000000 0.000000 1.425414
    15 16.525257 0.000000 0.000000 -0.373365 -0.119789 -1.755552
  time 5
    0 -14.367667 6.093948 28.351762 1.846487 0.190016 -0.571998
    1 0.000005 3.345128 -2.981901 1.576270 -0.089589 1.511664
    2 7.489221 0.582049 -0.039064 -0.511882 -0.082574 0.596591
    3 10.596343 1.725745 -1.785262 -2.604856 0.997849 2.243595
    4 6.028143 0.000001 0.000000 0.969016 1.197868 -1.027696
    5 11.692552 0.000000 0.000002 0.000000 0.000000 -1.571542
    6 10.678370 1.276507 2.062664 -0.717385 -1.422145 5.532447
    7 6.028142 0.000001 0.000000 -2.726479 -0.559040 0.019277
    8 11.692555 0.000000 0.000000 0.000000 0.000000 -1.532359
    9 14.946038 3.107988 0.238289 4.295658 0.176138 -0.143050
    10 3.886546 -0.226573 -0.000003 -2.956550 -1.233952 -0.424891
    11 17.848177 0.000000 0.000000 0.000000 0.000000 1.511126
    12 16.525253 0.000000 0.000000 0.270131 0.227164 -1.583703
    13 -3.886546 0.226573 0.000007 -1.354745 -0.778611 -1.294385
    14 17.848173 0.000000 0.000000 0.000000 0.000000 1.460610
    15 16.525257 0.000000 0.000000 -0.365457 -0.102980 -1.744252
  time 6
    0 -16.621962 5.879099 28.109567 1.846487 0.190016 -0.571998
    1 0.000005 3.345128 -2.981901 1.576270 -0.089589 1.511664
    2 7.489221 0.582049 -0.039064 -0.511882 -0.082574 0.596591
    3 10.596343 1.725745 -1.785262 -2.604856 0.997849 2.243595
    4 6.028143 0.000001 0.000000 0.969016 1.197868 -1.027696
    5 11.692552 0.000000 0.000002 0.000000 0.000000 -1.571542
    6 10.678370 1.276507 2.062664 -0.717385 -1.422145 5.532447
    7 6.028142 0.000001 0.000000 -2.726479 -0.559040 0.019277
    8 11.692555 0.000000 0.000000 0.000000 0.000000 -1.532359
    9 14.946038 3.107988 0.238289 4.295658 0.176138 -0.143050
    10 3.886546 -0.226573 -0.000003 -2.938161 -1.202846 -0.366909
    11 17.848177 0.000000 0.000000 0.000000 0.000000 1.567438
    12 16.525253 0.000000 0.000000 0.212383 0.216830 -1.612242
    13 -3.886546 0.226573 0.000007 -1.344223 -0.770656 -1.337538
    14 17.848173 0.000000 0.000000 0.000000 0.000000 1.568736
    15 16.525257 0.000000 0.000000 -0.297532 -0.135251 -1.629098
  time 7
    0 -18.860631 5.675969 27.984563 1.846487 0.190016 -0.571998
    1 0.000005 3.345128 -2.981901 1.576270 -0.089589 1.511664
    2 7.489221 0.582049 -0.039064 -0.511882 -0.082574 0.596591
    3 10.596343 1.725745 -1.785262 -2.604856 0.997849 2.243595
    4 6.028143 0.000001 0.000000 0.969016 1.197868 -1.027696
    5 11.692552 0.000000 0.000002 0.000000 0.000000 -1.571542
    6 10.678370 1.276507 2.062664 -0.717385 -1.422145 5.532447
    7 6.028142 0.000001 0.000000 -2.726479 -0.559040 0.019277
    8 11.692555 0.000000 0.000000 0.000000 0.000000 -1.532359
    9 14.946038 3.107988 0.238289 4.295658 0.176138 -0.143050
    10 3.886546 -0.226573 -0.000003 -2.875858 -1.169317 -0.356445
    11 17.848177 0.000000 0.000000 0.000000 0.000000 1.594242
    12 16.525253 0.000000 0.000000 0.160245 0.194167 -1.615253
    13 -3.886546 0.226573 0.000007 -1.317738 -0.780928 -1.433530
    14 17.848173 0.000000 0.000000 0.000000 0.000000 1.699944
    15 16.525257 0.000000 0.000000 -0.247905 -0.244789 -1.437842
  time 8
    0 -21.083675 5.488464 27.945500 1.846487 0.190016 -0.571998
    1 0.000005 3.345128 -2.981901 1.576270 -0.089589 1.511664
    2 7.489221 0.582049 -0.039064 -0.511882 -0.082574 0.596591
    3 10.596343 1.725745 -1.785262 -2.604856 0.997849 2.243595
    4 6.028143 0.000001 0.000000 0.969016 1.197868 -1.027696
    5 11.692552 0.000000 0.000002 0.000000 0.000000 -1.571542
    6 10.678370 1.276507 2.062664 -0.717385 -1.422145 5.532447
    7 6.028142 0.000001 0.000000 -2.726479 -0.559040 0.019277
    8 11.692555 0.000000 0.000000 0.000000 0.000000 -1.532359
    9 14.946038 3.107988 0.238289 4.295658 0.176138 -0.143050
    10 3.886546 -0.226573 -0.000003 -2.794801 -1.132690 -0.368710
    11 17.848177 0.000000 0.000000 0.000000 0.000000 1.600499
    12 16.525253 0.000000 0.000000 0.108270 0.167273 -1.601864
    13 -3.886546 0.226573 0.000007 -1.280097 -0.810782 -1.562547
    14 17.848173 0.000000 0.000000 0.000000 0.000000 1.826649
    15 16.525257 0.000000 0.000000 -0.290713 -0.404352 -1.186860
  time 9
    0 -23.291093 5.324398 27.965031 1.846487 0.190016 -0.571998
    1 0.000005 3.345128 -2.981901 1.576270 -0.089589 1.511664
    2 7.489221 0.582049 -0.039064 -0.511882 -0.082574 0.596591
    3 10.596343 1.725745 -1.785262 -2.604856 0.997849 2.243595
    4 6.028143 0.000001 0.000000 0.969016 1.197868 -1.027696
    5 11.692552 0.000000 0.000002 0.000000 0.000000 -1.571542
    6 10.678370 1.276507 2.062664 -0.717385 -1.422145 5.532447
    7 6.028142 0.000001 0.000000 -2.726479 -0.559040 0.019277
    8 11.692555 0.000000 0.000000 0.000000 0.000000 -1.532359
    9 14.946038 3.107988 0.238289 4.295658 0.176138 -0.143050
    10 3.886546 -0.226573 -0.000003 -2.711182 -1.092652 -0.385951
    11 17.848177 0.000000 0.000000 0.000000 0.000000 1.593856
    12 16.525253 0.000000 0.000000 0.049646 0.144244 -1.582038
    13 -3.886546 0.226573 0.000007 -1.229939 -0.881419 -1.697552
    14 17.848173 0.000000 0.000000 0.000000 0.000000 1.935184
    15 16.525257 0.000000 0.000000 -0.428472 -0.533474 -0.896604
  time 10
    0 -25.482886 5.207208 28.050972 1.846487 0.190016 -0.571998
    1 0.000005 3.345128 -2.981901 1.576270 -0.089589 1.511664
    2 7.489221 0.582049 -0.039064 -0.511882 -0.082574 0.596591
    3 10.596343 1.725745 -1.785262 -2.604856 0.997849 2.243595
    4 6.028143 0.000001 0.000000 0.969016 1.197868 -1.027696
    5 11.692552 0.000000 0.000002 0.000000 0.000000 -1.571542
    6 10.678370 1.276507 2.062664 -0.717385 -1.422145 5.532447
    7 6.028142 0.000001 0.000000 -2.726479 -0.559040 0.019277
    8 11.692555 0.000000 0.000000 0.000000 0.000000 -1.532359
    9 14.946038 3.107988 0.238289 4.295658 0.176138 -0.143050
    10 3.886546 -0.226573 -0.000003 -2.632320 -1.048889 -0.397444
    11 17.848177 0.000000 0.000000 0.000000 0.000000 1.579025
    12 16.525253 0.000000 0.000000 -0.026045 0.135964 -1.568265
    13 -3.886546 0.226573 0.000007 -1.142956 -1.033706 -1.801911
    14 17.848173 0.000000 0.000000 0.000000 0.000000 2.006313
    15 16.525257 0.000000 0.000000 -0.515837 -0.571374 -0.667223
  time 11
    0 -27.655147 5.281431 28.226758 1.846487 0.190016 -0.571998
    1 0.000005 3.345128 -2.981901 1.576270 -0.089589 1.511664
    2 7.489221 0.582049 -0.039064 -0.511882 -0.082574 0.596591
    3 10.596343 1.725745 -1.785262 -2.604856 0.997849 2.243595
    4 6.028143 0.000001 0.000000 0.969016 1.197868 -1.027696
    5 11.692552 0.000000 0.000002 0.000000 0.000000 -1.571542
    6 10.678370 1.276507 2.062664 -0.717385 -1.422145 5.532447
    7 6.028142 0.000001 0.000000 -2.726479 -0.559040 0.019277
    8 11.692555 0.000000 0.000000 0.000000 0.000000 -1.532359
    9 14.946038 3.107988 0.238289 4.295658 0.176138 -0.143050
    10 3.886546 -0.226573 -0.000003 -2.552543 -0.998168 -0.406879
    11 17.848177 0.000000 0.000000 0.000000 0.000000 1.542797
    12 16.525253 0.000000 0.000000 -0.121179 0.134255 -1.558047
    13 -3.886546 0.226573 0.000007 -0.988310 -1.184201 -1.949069
    14 17.848173 0.000000 0.000000 0.000000 0.000000 1.975046
    15 16.525257 0.000000 0.000000 -0.428008 -0.585207 -0.621206
  time 12
    0 -29.811783 5.519720 28.480672 1.846487 0.190016 -0.571998
    1 0.000005 3.345128 -2.981901 1.576270 -0.089589 1.511664
    2 7.489221 0.582049 -0.039064 -0.511882 -0.082574 0.596591
    3 10.596343 1.725745 -1.785262 -2.604856 0.997849 2.243595
    4 6.028143 0.000001 0.000000 0.969016 1.197868 -1.027696
    5 11.692552 0.000000 0.000002 0.000000 0.000000 -1.571542
    6 10.678370 1.276507 2.062664 -0.717385 -1.422145 5.532447
    7 6.028142 0.000001 0.000000 -2.726479 -0.559040 0.019277
    8 11.692555 0.000000 0.000000 0.000000 0.000000 -1.532359
    9 14.946038 3.107988 0.238289 4.295658 0.176138 -0.143050
    10 3.886546 -0.226573 -0.000003 -2.469473 -0.938650 -0.425406
    11 17.848177 0.000000 0.000000 0.000000 0.000000 1.474589
    12 16.525253 0.000000 0.000000 -0.217173 0.120584 -1.533544
    13 -3.886546 0.226573 0.000007 -0.872937 -1.225770 -2.125378
    14 17.848173 0.000000 0.000000 0.000000 0.000000 1.852678
    15 16.525257 0.000000 0.000000 -0.234998 -0.618060 -0.751587
  time 13
    0 -31.948887 5.761917 28.722867 1.846487 0.190016 -0.571998
    1 0.000005 3.345128 -2.981901 1.576270 -0.089589 1.511664
    2 7.489221 0.582049 -0.039064 -0.511882 -0.082574 0.596591
    3 10.596343 1.725745 -1.785262 -2.604856 0.997849 2.243595
    4 6.028143 0.000001 0.000000 0.969016 1.197868 -1.027696
    5 11.692552 0.000000 0.000002 0.000000 0.000000 -1.571542
    6 10.678370 1.276507 2.062664 -0.717385 -1.422145 5.532447
    7 6.028142 0.000001 0.000000 -2.726479 -0.559040 0.019277
    8 11.692555 0.000000 0.000000 0.000000 0.000000 -1.532359
    9 14.946038 3.107988 0.238289 4.295658 0.176138 -0.143050
    10 3.886546 -0.226573 -0.000003 -2.395186 -0.875182 -0.444790
    11 17.848177 0.000000 0.000000 0.000000 0.000000 1.392401
    12 16.525253 0.000000 0.000000 -0.303343 0.098430 -1.498183
    13 -3.886546 0.226573 0.000007 -0.887087 -1.194823 -2.196535
    14 17.848173 0.000000 0.000000 0.000000 0.000000 1.673424
    15 16.525257 0.000000 0.000000 0.021134 -0.583578 -1.008016
  time 14
    0 -34.066459 6.004113 28.824433 1.846487 0.190016 -0.571998
    1 0.000005 3.345128 -2.981901 1.576270 -0.089589 1.511664
    2 7.489221 0.582049 -0.039064 -0.511882 -0.082574 0.596591
    3 10.596343 1.725745 -1.785262 -2.604856 0.997849 2.243595
    4 6.028143 0.000001 0.000000 0.969016 1.197868 -1.027696
    5 11.692552 0.000000 0.000002 0.000000 0.000000 -1.571542
    6 10.678370 1.276507 2.062664 -0.717385 -1.422145 5.532447
    7 6.028142 0.000001 0.000000 -2.726479 -0.559040 0.019277
    8 11.692555 0.000000 0.000000 0.000000 0.000000 -1.532359
    9 14.946038 3.107988 0.238289 4.295658 0.176138 -0.143050
    10 3.886546 -0.226573 -0.000003 -2.339379 -0.817279 -0.452939
    11 17.848177 0.000000 0.000000 0.000000 0.000000 1.316546
    12 16.525253 0.000000 0.000000 -0.373617 0.075238 -1.454878
    13 -3.886546 0.226573 0.000007 -0.962278 -1.131399 -2.190635
    14 17.848173 0.000000 0.000000 0.000000 0.000000 1.465439
    15 16.525257 0.000000 0.000000 0.228533 -0.435275 -1.269520
  time 15
    0 -36.164499 6.246309 28.804901 1.846487 0.190016 -0.571998
    1 0.000005 3.345128 -2.981901 1.576270 -0.089589 1.511664
    2 7.489221 0.582049 -0.039064 -0.511882 -0.082574 0.596591
    3 10.596343 1.725745 -1.785262 -2.604856 0.997849 2.243595
    4 6.028143 0.000001 0.000000 0.969016 1.197868 -1.027696
    5 11.692552 0.000000 0.000002 0.000000 0.000000 -1.571542
    6 10.678370 1.276507 2.062664 -0.717385 -1.422145 5.532447
    7 6.028142 0.000001 0.000000 -2.726479 -0.559040 0.019277
    8 11.692555 0.000000 0.000000 0.000000 0.000000 -1.532359
    9 14.946038 3.107988 0.238289 4.295658 0.176138 -0.143050
    10 3.886546 -0.226573 -0.000003 -2.303790 -0.774189 -0.446849
    11 17.848177 0.000000 0.000000 0.000000 0.000000 1.261779
    12 16.525253 0.000000 0.000000 -0.421213 0.059004 -1.405744
    13 -3.886546 0.226573 0.000007 -1.027312 -1.069461 -2.157610
    14 17.848173 0.000000 0.000000 0.000000 0.000000 1.263921
    15 16.525257 0.000000 0.000000 0.309828 -0.233811 -1.460184
  time 16
    0 -38.235194 6.336157 28.672084 1.846487 0.190016 -0.571998
    1 0.000005 3.345128 -2.981901 1.576270 -0.089589 1.511664
    2 7.489221 0.582049 -0.039064 -0.511882 -0.082574 0.596591
    3 10.596343 1.725745 -1.785262 -2.604856 0.997849 2.243595
    4 6.028143 0.000001 0.000000 0.969016 1.197868 -1.027696
    5 11.692552 0.000000 0.000002 0.000000 0.000000 -1.571542
    6 10.678370 1.276507 2.062664 -0.717385 -1.422145 5.532447
    7 6.028142 0.000001 0.000000 -2.726479 -0.559040 0.019277
    8 11.692555 0.000000 0.000000 0.000000 0.000000 -1.532359
    9 14.946038 3.107988 0.238289 4.295658 0.176138 -0.143050
    10 3.886546 -0.226573 -0.000003 -2.293726 -0.759781 -0.421460
    11 17.848177 0.000000 0.000000 0.000000 0.000000 1.260002
    12 16.525253 0.000000 0.000000 -0.435788 0.056868 -1.361383
    13 -3.886546 0.226573 0.000007 -1.044817 -1.053376 -2.136210
    14 17.848173 0.000000 0.000000 0.000000 0.000000 1.148184
    15 16.525257 0.000000 0.000000 0.314862 -0.113194 -1.552107
  time 17
    0 -40.282451 6.238499 28.472859 1.846487 0.190016 -0.571998
    1 0.000005 3.345128 -2.981901 1.576270 -0.089589 1.511664
    2 7.489221 0.582049 -0.039064 -0.511882 -0.082574 0.596591
    3 10.596343 1.725745 -1.785262 -2.604856 0.997849 2.243595
    4 6.028143 0.000001 0.000000 0.969016 1.197868 -1.027696
    5 11.692552 0.000000 0.000002 0.000000 0.000000 -1.571542
    6 10.678370 1.276507 2.062664 -0.717385 -1.422145 5.532447
    7 6.028142 0.000001 0.000000 -2.726479 -0.559040 0.019277
    8 11.692555 0.000000 0.000000 0.000000 0.000000 -1.532359
    9 14.946038 3.107988 0.238289 4.295658 0.176138 -0.143050
    10 3.886546 -0.226573 -0.000003 -2.313396 -0.781147 -0.363650
    11 17.848177 0.000000 0.000000 0.000000 0.000000 1.330141
    12 16.525253 0.000000 0.000000 -0.406802 0.070702 -1.307540
    13 -3.886546 0.226573 0.000007 -1.021325 -1.082268 -2.138588
    14 17.848173 0.000000 0.000000 0.000000 0.000000 1.159070
    15 16.525257 0.000000 0.000000 0.322538 -0.119628 -1.549142
  time 18
    0 -42.306270 6.058807 28.277541 1.846487 0.190016 -0.571998
    1 0.000005 3.345128 -2.981901 1.576270 -0.089589 1.511664
    2 7.489221 0.582049 -0.039064 -0.511882 -0.082574 0.596591
    3 10.596343 1.725745 -1.785262 -2.604856 0.997849 2.243595
    4 6.028143 0.000001 0.000000 0.969016 1.197868 -1.027696
    5 11.692552 0.000000 0.000002 0.000000 0.000000 -1.571542
    6 10.678370 1.276507 2.062664 -0.717385 -1.422145 5.532447
    7 6.028142 0.000001 0.000000 -2.726479 -0.559040 0.019277
    8 11.692555 0.000000 0.000000 0.000000 0.000000 -1.532359
    9 14.946038 3.107988 0.238289 4.295658 0.176138 -0.143050
    10 3.886546 -0.226573 -0.000003 -2.354565 -0.822486 -0.277878
    11 17.848177 0.000000 0.000000 0.000000 0.000000 1.440138
    12 16.525253 0.000000 0.000000 -0.344246 0.086834 -1.230732
    13 -3.886546 0.226573 0.000007 -1.007266 -1.103162 -2.123704
    14 17.848173 0.000000 0.000000 0.000000 0.000000 1.215056
    15 16.525257 0.000000 0.000000 0.305544 -0.149204 -1.556479
  time 19
    0 -44.306651 5.840052 28.148631 1.846487 0.190016 -0.571998
    1 0.000005 3.345128 -2.981901 1.576270 -0.089589 1.511664
    2 7.489221 0.582049 -0.039064 -0.511882 -0.082574 0.596591
    3 10.596343 1.725745 -1.785262 -2.604856 0.997849 2.243595
    4 6.028143 0.000001 0.000000 0.969016 1.197868 -1.027696
    5 11.692552 0.000000 0.000002 0.000000 0.000000 -1.571542
    6 10.678370 1.276507 2.062664 -0.717385 -1.422145 5.532447
    7 6.028142 0.000001 0.000000 -2.726479 -0.559040 0.019277
    8 11.692555 0.000000 0.000000 0.000000 0.000000 -1.532359
    9 14.946038 3.107988 0.238289 4.295658 0.176138 -0.143050
    10 3.886546 -0.226573 -0.000003 -2.417142 -0.874508 -0.175637
    11 17.848177 0.000000 0.000000 0.000000 0.000000 1.563730
    12 16.525253 0.000000 0.000000 -0.262083 0.089927 -1.136500
    13 -3.886546 0.226573 0.000007 -1.010985 -1.111554 -2.083282
    14 17.848173 0.000000 0.000000 0.000000 0.000000 1.289050
    15 16.525257 0.000000 0.000000 0.265753 -0.186280 -1.566816
  time 20
    0 -46.287500 5.625203 28.086129 1.846487 0.190016 -0.571998
    1 0.000005 3.345128 -2.981901 1.576270 -0.089589 1.511664
    2 7.489221 0.582049 -0.039064 -0.511882 -0.082574 0.596591
    3 10.596343 1.725745 -1.785262 -2.604856 0.997849 2.243595
    4 6.028143 0.000001 0.000000 0.969016 1.197868 -1.027696
    5 11.692552 0.000000 0.000002 0.000000 0.000000 -1.571542
    6 10.678370 1.276507 2.062664 -0.717385 -1.422145 5.532447
    7 6.028142 0.000001 0.000000 -2.726479 -0.559040 0.019277
    8 11.692555 0.000000 0.000000 0.000000 0.000000 -1.532359
    9 14.946038 3.107988 0.238289 4.295658 0.176138 -0.143050
    10 3.886546 -0.226573 -0.000003 -2.508081 -0.932321 -0.062590
    11 17.848177 0.000000 0.000000 0.000000 0.000000 1.685468
    12 16.525253 0.000000 0.000000 -0.174177 0.070356 -1.037879
    13 -3.886546 0.226573 0.000007 -1.037017 -1.104167 -2.013974
    14 17.848173 0.000000 0.000000 0.000000 0.000000 1.361979
    15 16.525257 0.000000 0.000000 0.205808 -0.214610 -1.576412
  time 21
    0 -48.248817 5.465043 28.093942 1.846487 0.190016 -0.571998
    1 0.000005 3.345128 -2.981901 1.576270 -0.089589 1.511664
    2 7.489221 0.582049 -0.039064 -0.511882 -0.082574 0.596591
    3 10.596343 1.725745 -1.785262 -2.604856 0.997849 2.243595
    4 6.028143 0.000001 0.000000 0.969016 1.197868 -1.027696
    5 11.692552 0.000000 0.000002 0.000000 0.000000 -1.571542
    6 10.678370 1.276507 2.062664 -0.717385 -1.422145 5.532447
    7 6.028142 0.000001 0.000000 -2.726479 -0.559040 0.019277
    8 11.692555 0.000000 0.000000 0.000000 0.000000 -1.532359
    9 14.946038 3.107988 0.238289 4.295658 0.176138 -0.143050
    10 3.886546 -0.226573 -0.000003 -2.643298 -0.992423 0.059121
    11 17.848177 0.000000 0.000000 0.000000 0.000000 1.794461
    12 16.525253 0.000000 0.000000 -0.090516 0.023078 -0.956235
    13 -3.886546 0.226573 0.000007 -1.081279 -1.080214 -1.921593
    14 17.848173 0.000000 0.000000 0.000000 0.000000 1.420830
    15 16.525257 0.000000 0.000000 0.133813 -0.217787 -1.588083
  time 22
    0 -50.194509 5.402542 28.179882 1.846487 0.190016 -0.571998
    1 0.000005 3.345128 -2.981901 1.576270 -0.089589 1.511664
    2 7.489221 0.582049 -0.039064 -0.511882 -0.082574 0.596591
    3 10.596343 1.725745 -1.785262 -2.604856 0.997849 2.243595
    4 6.028143 0.000001 0.000000 0.969016 1.197868 -1.027696
    5 11.692552 0.000000 0.000002 0.000000 0.000000 -1.571542
    6 10.678370 1.276507 2.062664 -0.717385 -1.422145 5.532447
    7 6.028142 0.000001 0.000000 -2.726479 -0.559040 0.019277
    8 11.692555 0.000000 0.000000 0.000000 0.000000 -1.532359
    9 14.946038 3.107988 0.238289 4.295658 0.176138 -0.143050
    10 3.886546 -0.226573 -0.000003 -2.844936 -1.049068 0.182204
    11 17.848177 0.000000 0.000000 0.000000 0.000000 1.875646
    12 16.525253 0.000000 0.000000 -0.009972 -0.056832 -0.926287
    13 -3.886546 0.226573 0.000007 -1.132707 -1.043235 -1.820140
    14 17.848173 0.000000 0.000000 0.000000 0.000000 1.455781
    15 16.525257 0.000000 0.000000 0.065531 -0.179545 -1.614685
  time 23
    0 -52.120668 5.465046 28.359575 1.846487 0.190016 -0.571998
    1 0.000005 3.345128 -2.981901 1.576270 -0.089589 1.511664
    2 7.489221 0.582049 -0.039064 -0.511882 -0.082574 0.596591
    3 10.596343 1.725745 -1.785262 -2.604856 0.997849 2.243595
    4 6.028143 0.000001 0.000000 0.969016 1.197868 -1.027696
    5 11.692552 0.000000 0.000002 0.000000 0.000000 -1.571542
    6 10.678370 1.276507 2.062664 -0.717385 -1.422145 5.532447
    7 6.028142 0.000001 0.000000 -2.726479 -0.559040 0.019277
    8 11.692555 0.000000 0.000000 0.000000 0.000000 -1.532359
    9 14.946038 3.107988 0.238289 4.295658 0.176138 -0.143050
    10 3.886546 -0.226573 -0.000003 -3.159011 -1.102931 0.286760
    11 17.848177 0.000000 0.000000 0.000000 0.000000 1.905153
    12 16.525253 0.000000 0.000000 0.116834 -0.182250 -0.987528
    13 -3.886546 0.226573 0.000007 -1.178874 -1.003633 -1.725117
    14 17.848173 0.000000 0.000000 0.000000 0.000000 1.466422
    15 16.525257 0.000000 0.000000 -0.000109 -0.135050 -1.651625
  time 24
    0 -54.031203 5.593957 28.597863 1.846487 0.190016 -0.571998
    1 0.000005 3.345128 -2.981901 1.576270 -0.089589 1.511664
    2 7.489221 0.582049 -0.039064 -0.511882 -0.082574 0.596591
    3 10.596343 1.725745 -1.785262 -2.604856 0.997849 2.243595
    4 6.028143 0.000001 0.000000 0.969016 1.197868 -1.027696
    5 11.692552 0.000000 0.000002 0.000000 0.000000 -1.571542
    6 10.678370 1.276507 2.062664 -0.717385 -1.422145 5.532447
    7 6.028142 0.000001 0.000000 -2.726479 -0.559040 0.019277
    8 11.692555 0.000000 0.000000 0.000000 0.000000 -1.532359
    9 14.946038 3.107988 0.238289 4.295658 0.176138 -0.143050
    10 3.886546 -0.226573 -0.000003 -3.399896 -1.163033 0.233410
    11 17.848177 0.000000 0.000000 0.000000 0.000000 1.821729
    12 16.525253 0.000000 0.000000 0.309357 -0.263319 -1.116929
    13 -3.886546 0.226573 0.000007 -1.218511 -0.964337 -1.638284
    14 17.848173 0.000000 0.000000 0.000000 0.000000 1.461756
    15 16.525257 0.000000 0.000000 -0.076906 -0.122363 -1.677449
end
