// Created by Crowbar 0.74
version 1
nodes
  0 "ValveBiped.Bip01" -1
  1 "ValveBiped.Bip01_Spine" 0
  2 "ValveBiped.Bip01_Spine2" 1
  3 "ValveBiped.Bip01_R_Clavicle" 2
  4 "ValveBiped.Bip01_R_UpperArm" 3
  5 "ValveBiped.Bip01_R_Forearm" 4
  6 "ValveBiped.Bip01_L_Clavicle" 2
  7 "ValveBiped.Bip01_L_UpperArm" 6
  8 "ValveBiped.Bip01_L_Forearm" 7
  9 "ValveBiped.Bip01_Head1" 2
  10 "ValveBiped.Bip01_L_Thigh" 0
  11 "ValveBiped.Bip01_L_Calf" 10
  12 "ValveBiped.Bip01_L_Foot" 11
  13 "ValveBiped.Bip01_R_Thigh" 0
  14 "ValveBiped.Bip01_R_Calf" 13
  15 "ValveBiped.Bip01_R_Foot" 14
end
skeleton
  time 0
    0 -4.678273 5.816589 28.597863 1.846487 0.190016 -0.571998
    1 0.000005 3.345128 -2.981901 1.576270 -0.089589 1.511664
    2 7.489221 0.582049 -0.039064 -0.511882 -0.082574 0.596591
    3 10.596343 1.725745 -1.785262 -2.604856 0.997849 2.243595
    4 6.028143 0.000001 0.000000 0.969016 1.197868 -1.027696
    5 11.692552 0.000000 0.000002 0.000000 0.000000 -1.571542
    6 10.678370 1.276507 2.062664 -0.717385 -1.422145 5.532447
    7 6.028142 0.000001 0.000000 -2.726479 -0.559040 0.019277
    8 11.692555 0.000000 0.000000 0.000000 0.000000 -1.532359
    9 14.946038 3.107988 0.238289 4.295658 0.176138 -0.143050
    10 3.886546 -0.226573 -0.000003 -3.431917 -0.561073 -0.206172
    11 17.848177 0.000000 0.000000 0.000000 0.000000 1.679598
    12 16.525253 0.000000 0.000000 0.147511 0.343062 -1.194410
    13 -3.886546 0.226573 0.000007 -1.779410 -0.896062 -1.386679
    14 17.848173 0.000000 0.000000 0.000000 0.000000 1.411909
    15 16.525257 0.000000 0.000000 0.053267 -0.135974 -1.826023
  time 1
    0 -2.487287 5.980771 28.785369 1.846487 0.190016 -0.571998
    1 0.000005 3.345128 -2.981901 1.576270 -0.089589 1.511664
    2 7.489221 0.582049 -0.039064 -0.511882 -0.082574 0.596591
    3 10.596343 1.725745 -1.785262 -2.604856 0.997849 2.243595
    4 6.028143 0.000001 0.000000 0.969016 1.197868 -1.027696
    5 11.692552 0.000000 0.000002 0.000000 0.000000 -1.571542
    6 10.678370 1.276507 2.062664 -0.717385 -1.422145 5.532447
    7 6.028142 0.000001 0.000000 -2.726479 -0.559040 0.019277
    8 11.692555 0.000000 0.000000 0.000000 0.000000 -1.532359
    9 14.946038 3.107988 0.238289 4.295658 0.176138 -0.143050
    10 3.886546 -0.226573 -0.000003 -3.219392 -0.427090 -0.152479
    11 17.848177 0.000000 0.000000 0.000000 0.000000 1.575162
    12 16.525253 0.000000 0.000000 0.004306 0.391276 -1.310007
    13 -3.886546 0.226573 0.000007 -1.767074 -0.939335 -1.454490
    14 17.848173 0.000000 0.000000 0.000000 0.000000 1.385716
    15 16.525257 0.000000 0.000000 0.121031 -0.115426 -1.758553
  time 2
    0 -0.272864 6.094170 28.875215 1.846487 0.190016 -0.571998
    1 0.000005 3.345128 -2.981901 1.576270 -0.089589 1.511664
    2 7.489221 0.582049 -0.039064 -0.511882 -0.082574 0.596591
    3 10.596343 1.725745 -1.785262 -2.604856 0.997849 2.243595
    4 6.028143 0.000001 0.000000 0.969016 1.197868 -1.027696
    5 11.692552 0.000000 0.000002 0.000000 0.000000 -1.571542
    6 10.678370 1.276507 2.062664 -0.717385 -1.422145 5.532447
    7 6.028142 0.000001 0.000000 -2.726479 -0.559040 0.019277
    8 11.692555 0.000000 0.000000 0.000000 0.000000 -1.532359
    9 14.946038 3.107988 0.238289 4.295658 0.176138 -0.143050
    10 3.886546 -0.226573 -0.000003 -3.006319 -0.328745 -0.184300
    11 17.848177 0.000000 0.000000 0.000000 0.000000 1.350456
    12 16.525253 0.000000 0.000000 -0.128273 0.349124 -1.399306
    13 -3.886546 0.226573 0.000007 -1.749841 -0.977451 -1.531195
    14 17.848173 0.000000 0.000000 0.000000 0.000000 1.352485
    15 16.525257 0.000000 0.000000 0.195061 -0.105111 -1.680488
  time 3
    0 1.964998 6.234914 28.828339 1.846487 0.190016 -0.571998
    1 0.000005 3.345128 -2.981901 1.576270 -0.089589 1.511664
    2 7.489221 0.582049 -0.039064 -0.511882 -0.082574 0.596591
    3 10.596343 1.725745 -1.785262 -2.604856 0.997849 2.243595
    4 6.028143 0.000001 0.000000 0.969016 1.197868 -1.027696
    5 11.692552 0.000000 0.000002 0.000000 0.000000 -1.571542
    6 10.678370 1.276507 2.062664 -0.717385 -1.422145 5.532447
    7 6.028142 0.000001 0.000000 -2.726479 -0.559040 0.019277
    8 11.692555 0.000000 0.000000 0.000000 0.000000 -1.532359
    9 14.946038 3.107988 0.238289 4.295658 0.176138 -0.143050
    10 3.886546 -0.226573 -0.000003 -2.879975 -0.255358 -0.246228
    11 17.848177 0.000000 0.000000 0.000000 0.000000 1.133089
    12 16.525253 0.000000 0.000000 -0.173970 0.267445 -1.443988
    13 -3.886546 0.226573 0.000007 -1.727619 -1.009840 -1.615210
    14 17.848173 0.000000 0.000000 0.000000 0.000000 1.310904
    15 16.525257 0.000000 0.000000 0.268805 -0.110902 -1.600161
  time 4
    0 4.238017 6.551445 28.644740 1.846487 0.190016 -0.571998
    1 0.000005 3.345128 -2.981901 1.576270 -0.089589 1.511664
    2 7.489221 0.582049 -0.039064 -0.511882 -0.082574 0.596591
    3 10.596343 1.725745 -1.785262 -2.604856 0.997849 2.243595
    4 6.028143 0.000001 0.000000 0.969016 1.197868 -1.027696
    5 11.692552 0.000000 0.000002 0.000000 0.000000 -1.571542
    6 10.678370 1.276507 2.062664 -0.717385 -1.422145 5.532447
    7 6.028142 0.000001 0.000000 -2.726479 -0.559040 0.019277
    8 11.692555 0.000000 0.000000 0.000000 0.000000 -1.532359
    9 14.946038 3.107988 0.238289 4.295658 0.176138 -0.143050
    10 3.886546 -0.226573 -0.000003 -2.882628 -0.253293 -0.246657
    11 17.848177 0.000000 0.000000 0.000000 0.000000 1.123588
    12 16.525253 0.000000 0.000000 -0.135204 0.225171 -1.496518
    13 -3.886546 0.226573 0.000007 -1.701497 -1.036984 -1.703188
    14 17.848173 0.000000 0.000000 0.000000 0.000000 1.257537
    15 16.525257 0.000000 0.000000 0.334838 -0.135009 -1.524430
  time 5
    0 6.128212 6.403117 28.351762 1.846487 0.190016 -0.571998
    1 0.000005 3.345128 -2.981901 1.576270 -0.089589 1.511664
    2 7.489221 0.582049 -0.039064 -0.511882 -0.082574 0.596591
    3 10.596343 1.725745 -1.785262 -2.604856 0.997849 2.243595
    4 6.028143 0.000001 0.000000 0.969016 1.197868 -1.027696
    5 11.692552 0.000000 0.000002 0.000000 0.000000 -1.571542
    6 10.678370 1.276507 2.062664 -0.717385 -1.422145 5.532447
    7 6.028142 0.000001 0.000000 -2.726479 -0.559040 0.019277
    8 11.692555 0.000000 0.000000 0.000000 0.000000 -1.532359
    9 14.946038 3.107988 0.238289 4.295658 0.176138 -0.143050
    10 3.886546 -0.226573 -0.000003 -2.910166 -0.298178 -0.217151
    11 17.848177 0.000000 0.000000 0.000000 0.000000 1.241309
    12 16.525253 0.000000 0.000000 -0.109528 0.215955 -1.550648
    13 -3.886546 0.226573 0.000007 -1.675647 -1.052021 -1.781567
    14 17.848173 0.000000 0.000000 0.000000 0.000000 1.231099
    15 16.525257 0.000000 0.000000 0.354957 -0.149606 -1.442399
  time 6
    0 8.022313 6.262603 28.109567 1.846487 0.190016 -0.571998
    1 0.000005 3.345128 -2.981901 1.576270 -0.089589 1.511664
    2 7.489221 0.582049 -0.039064 -0.511882 -0.082574 0.596591
    3 10.596343 1.725745 -1.785262 -2.604856 0.997849 2.243595
    4 6.028143 0.000001 0.000000 0.969016 1.197868 -1.027696
    5 11.692552 0.000000 0.000002 0.000000 0.000000 -1.571542
    6 10.678370 1.276507 2.062664 -0.717385 -1.422145 5.532447
    7 6.028142 0.000001 0.000000 -2.726479 -0.559040 0.019277
    8 11.692555 0.000000 0.000000 0.000000 0.000000 -1.532359
    9 14.946038 3.107988 0.238289 4.295658 0.176138 -0.143050
    10 3.886546 -0.226573 -0.000003 -2.897815 -0.362724 -0.202398
    11 17.848177 0.000000 0.000000 0.000000 0.000000 1.324348
    12 16.525253 0.000000 0.000000 -0.123672 0.200250 -1.560706
    13 -3.886546 0.226573 0.000007 -1.655239 -1.082793 -1.846296
    14 17.848173 0.000000 0.000000 0.000000 0.000000 1.237893
    15 16.525257 0.000000 0.000000 0.330554 -0.137060 -1.298864
  time 7
    0 9.920320 6.137714 27.984563 1.846487 0.190016 -0.571998
    1 0.000005 3.345128 -2.981901 1.576270 -0.089589 1.511664
    2 7.489221 0.582049 -0.039064 -0.511882 -0.082574 0.596591
    3 10.596343 1.725745 -1.785262 -2.604856 0.997849 2.243595
    4 6.028143 0.000001 0.000000 0.969016 1.197868 -1.027696
    5 11.692552 0.000000 0.000002 0.000000 0.000000 -1.571542
    6 10.678370 1.276507 2.062664 -0.717385 -1.422145 5.532447
    7 6.028142 0.000001 0.000000 -2.726479 -0.559040 0.019277
    8 11.692555 0.000000 0.000000 0.000000 0.000000 -1.532359
    9 14.946038 3.107988 0.238289 4.295658 0.176138 -0.143050
    10 3.886546 -0.226573 -0.000003 -2.866801 -0.438760 -0.200683
    11 17.848177 0.000000 0.000000 0.000000 0.000000 1.381663
    12 16.525253 0.000000 0.000000 -0.158045 0.185480 -1.544499
    13 -3.886546 0.226573 0.000007 -1.637462 -1.119379 -1.901337
    14 17.848173 0.000000 0.000000 0.000000 0.000000 1.260238
    15 16.525257 0.000000 0.000000 0.301349 -0.101734 -1.123059
  time 8
    0 11.826141 6.024544 27.945500 1.846487 0.190016 -0.571998
    1 0.000005 3.345128 -2.981901 1.576270 -0.089589 1.511664
    2 7.489221 0.582049 -0.039064 -0.511882 -0.082574 0.596591
    3 10.596343 1.725745 -1.785262 -2.604856 0.997849 2.243595
    4 6.028143 0.000001 0.000000 0.969016 1.197868 -1.027696
    5 11.692552 0.000000 0.000002 0.000000 0.000000 -1.571542
    6 10.678370 1.276507 2.062664 -0.717385 -1.422145 5.532447
    7 6.028142 0.000001 0.000000 -2.726479 -0.559040 0.019277
    8 11.692555 0.000000 0.000000 0.000000 0.000000 -1.532359
    9 14.946038 3.107988 0.238289 4.295658 0.176138 -0.143050
    10 3.886546 -0.226573 -0.000003 -2.836519 -0.515918 -0.206430
    11 17.848177 0.000000 0.000000 0.000000 0.000000 1.424534
    12 16.525253 0.000000 0.000000 -0.193249 0.177119 -1.517337
    13 -3.886546 0.226573 0.000007 -1.621680 -1.157319 -1.947924
    14 17.848173 0.000000 0.000000 0.000000 0.000000 1.292160
    15 16.525257 0.000000 0.000000 0.292655 -0.059269 -0.945474
  time 9
    0 13.731961 5.934812 27.965031 1.846487 0.190016 -0.571998
    1 0.000005 3.345128 -2.981901 1.576270 -0.089589 1.511664
    2 7.489221 0.582049 -0.039064 -0.511882 -0.082574 0.596591
    3 10.596343 1.725745 -1.785262 -2.604856 0.997849 2.243595
    4 6.028143 0.000001 0.000000 0.969016 1.197868 -1.027696
    5 11.692552 0.000000 0.000002 0.000000 0.000000 -1.571542
    6 10.678370 1.276507 2.062664 -0.717385 -1.422145 5.532447
    7 6.028142 0.000001 0.000000 -2.726479 -0.559040 0.019277
    8 11.692555 0.000000 0.000000 0.000000 0.000000 -1.532359
    9 14.946038 3.107988 0.238289 4.295658 0.176138 -0.143050
    10 3.886546 -0.226573 -0.000003 -2.827828 -0.584009 -0.213291
    11 17.848177 0.000000 0.000000 0.000000 0.000000 1.461226
    12 16.525253 0.000000 0.000000 -0.206532 0.172359 -1.490496
    13 -3.886546 0.226573 0.000007 -1.608619 -1.191720 -1.984120
    14 17.848173 0.000000 0.000000 0.000000 0.000000 1.329239
    15 16.525257 0.000000 0.000000 0.302616 -0.033634 -0.797642
  time 10
    0 15.645594 5.895863 28.050972 1.846487 0.190016 -0.571998
    1 0.000005 3.345128 -2.981901 1.576270 -0.089589 1.511664
    2 7.489221 0.582049 -0.039064 -0.511882 -0.082574 0.596591
    3 10.596343 1.725745 -1.785262 -2.604856 0.997849 2.243595
    4 6.028143 0.000001 0.000000 0.969016 1.197868 -1.027696
    5 11.692552 0.000000 0.000002 0.000000 0.000000 -1.571542
    6 10.678370 1.276507 2.062664 -0.717385 -1.422145 5.532447
    7 6.028142 0.000001 0.000000 -2.726479 -0.559040 0.019277
    8 11.692555 0.000000 0.000000 0.000000 0.000000 -1.532359
    9 14.946038 3.107988 0.238289 4.295658 0.176138 -0.143050
    10 3.886546 -0.226573 -0.000003 -2.865154 -0.633204 -0.217666
    11 17.848177 0.000000 0.000000 0.000000 0.000000 1.495909
    12 16.525253 0.000000 0.000000 -0.169161 0.155107 -1.474673
    13 -3.886546 0.226573 0.000007 -1.602723 -1.214099 -2.000324
    14 17.848173 0.000000 0.000000 0.000000 0.000000 1.363698
    15 16.525257 0.000000 0.000000 0.301938 -0.046623 -0.723058
  time 11
    0 17.563133 6.044419 28.226758 1.846487 0.190016 -0.571998
    1 0.000005 3.345128 -2.981901 1.576270 -0.089589 1.511664
    2 7.489221 0.582049 -0.039064 -0.511882 -0.082574 0.596591
    3 10.596343 1.725745 -1.785262 -2.604856 0.997849 2.243595
    4 6.028143 0.000001 0.000000 0.969016 1.197868 -1.027696
    5 11.692552 0.000000 0.000002 0.000000 0.000000 -1.571542
    6 10.678370 1.276507 2.062664 -0.717385 -1.422145 5.532447
    7 6.028142 0.000001 0.000000 -2.726479 -0.559040 0.019277
    8 11.692555 0.000000 0.000000 0.000000 0.000000 -1.532359
    9 14.946038 3.107988 0.238289 4.295658 0.176138 -0.143050
    10 3.886546 -0.226573 -0.000003 -2.934959 -0.666688 -0.227615
    11 17.848177 0.000000 0.000000 0.000000 0.000000 1.516379
    12 16.525253 0.000000 0.000000 -0.092223 0.118570 -1.479798
    13 -3.886546 0.226573 0.000007 -1.623040 -1.233944 -1.957347
    14 17.848173 0.000000 0.000000 0.000000 0.000000 1.430080
    15 16.525257 0.000000 0.000000 0.261326 -0.099240 -0.764963
  time 12
    0 19.484579 6.357044 28.480672 1.846487 0.190016 -0.571998
    1 0.000005 3.345128 -2.981901 1.576270 -0.089589 1.511664
    2 7.489221 0.582049 -0.039064 -0.511882 -0.082574 0.596591
    3 10.596343 1.725745 -1.785262 -2.604856 0.997849 2.243595
    4 6.028143 0.000001 0.000000 0.969016 1.197868 -1.027696
    5 11.692552 0.000000 0.000002 0.000000 0.000000 -1.571542
    6 10.678370 1.276507 2.062664 -0.717385 -1.422145 5.532447
    7 6.028142 0.000001 0.000000 -2.726479 -0.559040 0.019277
    8 11.692555 0.000000 0.000000 0.000000 0.000000 -1.532359
    9 14.946038 3.107988 0.238289 4.295658 0.176138 -0.143050
    10 3.886546 -0.226573 -0.000003 -3.001104 -0.695056 -0.251203
    11 17.848177 0.000000 0.000000 0.000000 0.000000 1.512826
    12 16.525253 0.000000 0.000000 -0.011144 0.083233 -1.496453
    13 -3.886546 0.226573 0.000007 -1.675556 -1.250335 -1.847001
    14 17.848173 0.000000 0.000000 0.000000 0.000000 1.533540
    15 16.525257 0.000000 0.000000 0.201041 -0.171623 -0.885452
  time 13
    0 21.417744 6.673574 28.722867 1.846487 0.190016 -0.571998
    1 0.000005 3.345128 -2.981901 1.576270 -0.089589 1.511664
    2 7.489221 0.582049 -0.039064 -0.511882 -0.082574 0.596591
    3 10.596343 1.725745 -1.785262 -2.604856 0.997849 2.243595
    4 6.028143 0.000001 0.000000 0.969016 1.197868 -1.027696
    5 11.692552 0.000000 0.000002 0.000000 0.000000 -1.571542
    6 10.678370 1.276507 2.062664 -0.717385 -1.422145 5.532447
    7 6.028142 0.000001 0.000000 -2.726479 -0.559040 0.019277
    8 11.692555 0.000000 0.000000 0.000000 0.000000 -1.532359
    9 14.946038 3.107988 0.238289 4.295658 0.176138 -0.143050
    10 3.886546 -0.226573 -0.000003 -3.062126 -0.720237 -0.284482
    11 17.848177 0.000000 0.000000 0.000000 0.000000 1.498381
    12 16.525253 0.000000 0.000000 0.072354 0.055017 -1.520668
    13 -3.886546 0.226573 0.000007 -1.743220 -1.245352 -1.697640
    14 17.848173 0.000000 0.000000 0.000000 0.000000 1.641665
    15 16.525257 0.000000 0.000000 0.148629 -0.262060 -1.054107
  time 14
    0 23.354815 6.990105 28.824433 1.846487 0.190016 -0.571998
    1 0.000005 3.345128 -2.981901 1.576270 -0.089589 1.511664
    2 7.489221 0.582049 -0.039064 -0.511882 -0.082574 0.596591
    3 10.596343 1.725745 -1.785262 -2.604856 0.997849 2.243595
    4 6.028143 0.000001 0.000000 0.969016 1.197868 -1.027696
    5 11.692552 0.000000 0.000002 0.000000 0.000000 -1.571542
    6 10.678370 1.276507 2.062664 -0.717385 -1.422145 5.532447
    7 6.028142 0.000001 0.000000 -2.726479 -0.559040 0.019277
    8 11.692555 0.000000 0.000000 0.000000 0.000000 -1.532359
    9 14.946038 3.107988 0.238289 4.295658 0.176138 -0.143050
    10 3.886546 -0.226573 -0.000003 -3.125252 -0.744834 -0.315789
    11 17.848177 0.000000 0.000000 0.000000 0.000000 1.484477
    12 16.525253 0.000000 0.000000 0.157796 0.033839 -1.541680
    13 -3.886546 0.226573 0.000007 -1.805351 -1.216503 -1.537800
    14 17.848173 0.000000 0.000000 0.000000 0.000000 1.738086
    15 16.525257 0.000000 0.000000 0.123834 -0.361224 -1.249216
  time 15
    0 25.299699 7.306635 28.804901 1.846487 0.190016 -0.571998
    1 0.000005 3.345128 -2.981901 1.576270 -0.089589 1.511664
    2 7.489221 0.582049 -0.039064 -0.511882 -0.082574 0.596591
    3 10.596343 1.725745 -1.785262 -2.604856 0.997849 2.243595
    4 6.028143 0.000001 0.000000 0.969016 1.197868 -1.027696
    5 11.692552 0.000000 0.000002 0.000000 0.000000 -1.571542
    6 10.678370 1.276507 2.062664 -0.717385 -1.422145 5.532447
    7 6.028142 0.000001 0.000000 -2.726479 -0.559040 0.019277
    8 11.692555 0.000000 0.000000 0.000000 0.000000 -1.532359
    9 14.946038 3.107988 0.238289 4.295658 0.176138 -0.143050
    10 3.886546 -0.226573 -0.000003 -3.194325 -0.770464 -0.341006
    11 17.848177 0.000000 0.000000 0.000000 0.000000 1.471268
    12 16.525253 0.000000 0.000000 0.244737 0.014004 -1.541968
    13 -3.886546 0.226573 0.000007 -1.847164 -1.165712 -1.391346
    14 17.848173 0.000000 0.000000 0.000000 0.000000 1.805041
    15 16.525257 0.000000 0.000000 0.133652 -0.448384 -1.446327
  time 16
    0 27.260209 7.470818 28.672084 1.846487 0.190016 -0.571998
    1 0.000005 3.345128 -2.981901 1.576270 -0.089589 1.511664
    2 7.489221 0.582049 -0.039064 -0.511882 -0.082574 0.596591
    3 10.596343 1.725745 -1.785262 -2.604856 0.997849 2.243595
    4 6.028143 0.000001 0.000000 0.969016 1.197868 -1.027696
    5 11.692552 0.000000 0.000002 0.000000 0.000000 -1.571542
    6 10.678370 1.276507 2.062664 -0.717385 -1.422145 5.532447
    7 6.028142 0.000001 0.000000 -2.726479 -0.559040 0.019277
    8 11.692555 0.000000 0.000000 0.000000 0.000000 -1.532359
    9 14.946038 3.107988 0.238289 4.295658 0.176138 -0.143050
    10 3.886546 -0.226573 -0.000003 -3.272455 -0.797979 -0.357131
    11 17.848177 0.000000 0.000000 0.000000 0.000000 1.464470
    12 16.525253 0.000000 0.000000 0.330358 -0.017284 -1.504205
    13 -3.886546 0.226573 0.000007 -1.860316 -1.107009 -1.297468
    14 17.848173 0.000000 0.000000 0.000000 0.000000 1.828941
    15 16.525257 0.000000 0.000000 0.161590 -0.494608 -1.606201
  time 17
    0 29.240250 7.463120 28.472859 1.846487 0.190016 -0.571998
    1 0.000005 3.345128 -2.981901 1.576270 -0.089589 1.511664
    2 7.489221 0.582049 -0.039064 -0.511882 -0.082574 0.596591
    3 10.596343 1.725745 -1.785262 -2.604856 0.997849 2.243595
    4 6.028143 0.000001 0.000000 0.969016 1.197868 -1.027696
    5 11.692552 0.000000 0.000002 0.000000 0.000000 -1.571542
    6 10.678370 1.276507 2.062664 -0.717385 -1.422145 5.532447
    7 6.028142 0.000001 0.000000 -2.726479 -0.559040 0.019277
    8 11.692555 0.000000 0.000000 0.000000 0.000000 -1.532359
    9 14.946038 3.107988 0.238289 4.295658 0.176138 -0.143050
    10 3.886546 -0.226573 -0.000003 -3.355891 -0.826840 -0.366995
    11 17.848177 0.000000 0.000000 0.000000 0.000000 1.468873
    12 16.525253 0.000000 0.000000 0.375965 -0.047026 -1.425091
    13 -3.886546 0.226573 0.000007 -1.853785 -1.047300 -1.256781
    14 17.848173 0.000000 0.000000 0.000000 0.000000 1.802258
    15 16.525257 0.000000 0.000000 0.156216 -0.467887 -1.698420
  time 18
    0 31.243730 7.381200 28.277541 1.846487 0.190016 -0.571998
    1 0.000005 3.345128 -2.981901 1.576270 -0.089589 1.511664
    2 7.489221 0.582049 -0.039064 -0.511882 -0.082574 0.596591
    3 10.596343 1.725745 -1.785262 -2.604856 0.997849 2.243595
    4 6.028143 0.000001 0.000000 0.969016 1.197868 -1.027696
    5 11.692552 0.000000 0.000002 0.000000 0.000000 -1.571542
    6 10.678370 1.276507 2.062664 -0.717385 -1.422145 5.532447
    7 6.028142 0.000001 0.000000 -2.726479 -0.559040 0.019277
    8 11.692555 0.000000 0.000000 0.000000 0.000000 -1.532359
    9 14.946038 3.107988 0.238289 4.295658 0.176138 -0.143050
    10 3.886546 -0.226573 -0.000003 -3.429446 -0.854938 -0.381233
    11 17.848177 0.000000 0.000000 0.000000 0.000000 1.478838
    12 16.525253 0.000000 0.000000 0.367164 -0.047983 -1.326598
    13 -3.886546 0.226573 0.000007 -1.842085 -0.971724 -1.222523
    14 17.848173 0.000000 0.000000 0.000000 0.000000 1.736286
    15 16.525257 0.000000 0.000000 0.113891 -0.399325 -1.762259
  time 19
    0 33.282366 7.264124 28.148631 1.846487 0.190016 -0.571998
    1 0.000005 3.345128 -2.981901 1.576270 -0.089589 1.511664
    2 7.489221 0.582049 -0.039064 -0.511882 -0.082574 0.596591
    3 10.596343 1.725745 -1.785262 -2.604856 0.997849 2.243595
    4 6.028143 0.000001 0.000000 0.969016 1.197868 -1.027696
    5 11.692552 0.000000 0.000002 0.000000 0.000000 -1.571542
    6 10.678370 1.276507 2.062664 -0.717385 -1.422145 5.532447
    7 6.028142 0.000001 0.000000 -2.726479 -0.559040 0.019277
    8 11.692555 0.000000 0.000000 0.000000 0.000000 -1.532359
    9 14.946038 3.107988 0.238289 4.295658 0.176138 -0.143050
    10 3.886546 -0.226573 -0.000003 -3.487083 -0.879625 -0.400446
    11 17.848177 0.000000 0.000000 0.000000 0.000000 1.488416
    12 16.525253 0.000000 0.000000 0.330061 -0.019298 -1.219009
    13 -3.886546 0.226573 0.000007 -1.828933 -0.895144 -1.202708
    14 17.848173 0.000000 0.000000 0.000000 0.000000 1.643712
    15 16.525257 0.000000 0.000000 0.052714 -0.319383 -1.804459
  time 20
    0 35.348348 7.139235 28.086129 1.846487 0.190016 -0.571998
    1 0.000005 3.345128 -2.981901 1.576270 -0.089589 1.511664
    2 7.489221 0.582049 -0.039064 -0.511882 -0.082574 0.596591
    3 10.596343 1.725745 -1.785262 -2.604856 0.997849 2.243595
    4 6.028143 0.000001 0.000000 0.969016 1.197868 -1.027696
    5 11.692552 0.000000 0.000002 0.000000 0.000000 -1.571542
    6 10.678370 1.276507 2.062664 -0.717385 -1.422145 5.532447
    7 6.028142 0.000001 0.000000 -2.726479 -0.559040 0.019277
    8 11.692555 0.000000 0.000000 0.000000 0.000000 -1.532359
    9 14.946038 3.107988 0.238289 4.295658 0.176138 -0.143050
    10 3.886546 -0.226573 -0.000003 -3.529442 -0.894797 -0.417000
    11 17.848177 0.000000 0.000000 0.000000 0.000000 1.501316
    12 16.525253 0.000000 0.000000 0.286219 0.036586 -1.118499
    13 -3.886546 0.226573 0.000007 -1.816779 -0.832900 -1.200947
    14 17.848173 0.000000 0.000000 0.000000 0.000000 1.547618
    15 16.525257 0.000000 0.000000 -0.009588 -0.246579 -1.835656
  time 21
    0 37.441674 7.033878 28.093942 1.846487 0.190016 -0.571998
    1 0.000005 3.345128 -2.981901 1.576270 -0.089589 1.511664
    2 7.489221 0.582049 -0.039064 -0.511882 -0.082574 0.596591
    3 10.596343 1.725745 -1.785262 -2.604856 0.997849 2.243595
    4 6.028143 0.000001 0.000000 0.969016 1.197868 -1.027696
    5 11.692552 0.000000 0.000002 0.000000 0.000000 -1.571542
    6 10.678370 1.276507 2.062664 -0.717385 -1.422145 5.532447
    7 6.028142 0.000001 0.000000 -2.726479 -0.559040 0.019277
    8 11.692555 0.000000 0.000000 0.000000 0.000000 -1.532359
    9 14.946038 3.107988 0.238289 4.295658 0.176138 -0.143050
    10 3.886546 -0.226573 -0.000003 -3.560181 -0.890173 -0.419488
    11 17.848177 0.000000 0.000000 0.000000 0.000000 1.525571
    12 16.525253 0.000000 0.000000 0.252084 0.109151 -1.045118
    13 -3.886546 0.226573 0.000007 -1.806530 -0.800598 -1.219881
    14 17.848173 0.000000 0.000000 0.000000 0.000000 1.474116
    15 16.525257 0.000000 0.000000 -0.053485 -0.192734 -1.863259
  time 22
    0 39.562344 6.987116 28.179882 1.846487 0.190016 -0.571998
    1 0.000005 3.345128 -2.981901 1.576270 -0.089589 1.511664
    2 7.489221 0.582049 -0.039064 -0.511882 -0.082574 0.596591
    3 10.596343 1.725745 -1.785262 -2.604856 0.997849 2.243595
    4 6.028143 0.000001 0.000000 0.969016 1.197868 -1.027696
    5 11.692552 0.000000 0.000002 0.000000 0.000000 -1.571542
    6 10.678370 1.276507 2.062664 -0.717385 -1.422145 5.532447
    7 6.028142 0.000001 0.000000 -2.726479 -0.559040 0.019277
    8 11.692555 0.000000 0.000000 0.000000 0.000000 -1.532359
    9 14.946038 3.107988 0.238289 4.295658 0.176138 -0.143050
    10 3.886546 -0.226573 -0.000003 -3.576558 -0.848654 -0.395128
    11 17.848177 0.000000 0.000000 0.000000 0.000000 1.568828
    12 16.525253 0.000000 0.000000 0.238073 0.180069 -1.024587
    13 -3.886546 0.226573 0.000007 -1.797641 -0.811788 -1.264443
    14 17.848173 0.000000 0.000000 0.000000 0.000000 1.443094
    15 16.525257 0.000000 0.000000 -0.050950 -0.169009 -1.883044
  time 23
    0 41.706453 7.057545 28.359575 1.846487 0.190016 -0.571998
    1 0.000005 3.345128 -2.981901 1.576270 -0.089589 1.511664
    2 7.489221 0.582049 -0.039064 -0.511882 -0.082574 0.596591
    3 10.596343 1.725745 -1.785262 -2.604856 0.997849 2.243595
    4 6.028143 0.000001 0.000000 0.969016 1.197868 -1.027696
    5 11.692552 0.000000 0.000002 0.000000 0.000000 -1.571542
    6 10.678370 1.276507 2.062664 -0.717385 -1.422145 5.532447
    7 6.028142 0.000001 0.000000 -2.726479 -0.559040 0.019277
    8 11.692555 0.000000 0.000000 0.000000 0.000000 -1.532359
    9 14.946038 3.107988 0.238289 4.295658 0.176138 -0.143050
    10 3.886546 -0.226573 -0.000003 -3.553411 -0.727688 -0.311758
    11 17.848177 0.000000 0.000000 0.000000 0.000000 1.646537
    12 16.525253 0.000000 0.000000 0.221525 0.253733 -1.087974
    13 -3.886546 0.226573 0.000007 -1.788843 -0.852132 -1.324680
    14 17.848173 0.000000 0.000000 0.000000 0.000000 1.432126
    15 16.525257 0.000000 0.000000 -0.004714 -0.157468 -1.872040
  time 24
    0 43.874000 7.225634 28.597863 1.846487 0.190016 -0.571998
    1 0.000005 3.345128 -2.981901 1.576270 -0.089589 1.511664
    2 7.489221 0.582049 -0.039064 -0.511882 -0.082574 0.596591
    3 10.596343 1.725745 -1.785262 -2.604856 0.997849 2.243595
    4 6.028143 0.000001 0.000000 0.969016 1.197868 -1.027696
    5 11.692552 0.000000 0.000002 0.000000 0.000000 -1.571542
    6 10.678370 1.276507 2.062664 -0.717385 -1.422145 5.532447
    7 6.028142 0.000001 0.000000 -2.726479 -0.559040 0.019277
    8 11.692555 0.000000 0.000000 0.000000 0.000000 -1.532359
    9 14.946038 3.107988 0.238289 4.295658 0.176138 -0.143050
    10 3.886546 -0.226573 -0.000003 -3.431917 -0.561073 -0.206172
    11 17.848177 0.000000 0.000000 0.000000 0.000000 1.679598
    12 16.525253 0.000000 0.000000 0.147511 0.343062 -1.194410
    13 -3.886546 0.226573 0.000007 -1.779410 -0.896062 -1.386679
    14 17.848173 0.000000 0.000000 0.000000 0.000000 1.411909
    15 16.525257 0.000000 0.000000 0.053267 -0.135974 -1.826023
end
