// Created by Crowbar 0.74
version 1
nodes
  0 "ValveBiped.Bip01" -1
  1 "ValveBiped.Bip01_Spine" 0
  2 "ValveBiped.Bip01_Spine2" 1
  3 "ValveBiped.Bip01_R_Clavicle" 2
  4 "ValveBiped.Bip01_R_UpperArm" 3
  5 "ValveBiped.Bip01_R_Forearm" 4
  6 "ValveBiped.Bip01_L_Clavicle" 2
  7 "ValveBiped.Bip01_L_UpperArm" 6
  8 "ValveBiped.Bip01_L_Forearm" 7
  9 "ValveBiped.Bip01_Head1" 2
  10 "ValveBiped.Bip01_L_Thigh" 0
  11 "ValveBiped.Bip01_L_Calf" 10
  12 "ValveBiped.Bip01_L_Foot" 11
  13 "ValveBiped.Bip01_R_Thigh" 0
  14 "ValveBiped.Bip01_R_Calf" 13
  15 "ValveBiped.Bip01_R_Foot" 14
end
skeleton
  time 0
    0 -0.701589 0.117196 31.402636 1.570796 0.000000 -0.000042
    1 0.742215 4.083432 -1.688893 1.153746 -0.372080 1.692943
    2 7.434531 0.750023 -0.023438 0.022678 -0.011349 0.558223
    3 10.682283 1.444487 -1.941516 -2.003094 1.195336 2.829172
    4 6.028143 0.000001 0.000000 1.562893 0.600062 -0.586939
    5 11.692552 0.000000 0.000002 0.000000 0.000000 -1.995192
    6 10.693996 1.440574 1.933754 2.042587 -1.094720 2.692337
    7 6.028142 0.000001 0.000000 -2.517643 -1.188981 0.569579
    8 11.692555 0.000000 0.000000 0.000000 0.000000 -0.978187
    9 15.000727 2.971266 -0.015625 3.458349 -0.075791 -0.312467
    10 3.617006 -0.062506 1.433635 -1.463939 -0.905390 -1.604944
    11 17.848177 0.000000 0.000000 0.000000 0.000000 1.304418
    12 16.525253 0.000000 0.000000 -0.216861 0.063276 -1.398730
    13 -3.617006 0.062506 -1.433631 -1.205631 -0.507388 -1.758406
    14 17.848173 0.000000 0.000000 0.000000 0.000000 1.394556
    15 16.525257 0.000000 0.000000 0.047073 0.038648 -1.647586
  time 1
    0 -0.678164 -1.880807 31.320603 1.570796 0.000000 -0.000042
    1 0.730496 4.087338 -1.684986 1.152470 -0.373108 1.694513
    2 7.438438 0.750023 -0.003906 0.021643 -0.017581 0.556191
    3 10.682283 1.444487 -1.941516 -2.015363 1.197342 2.815893
    4 6.028143 0.000001 0.000000 1.563896 0.598311 -0.595234
    5 11.692552 0.000000 0.000002 0.000000 0.000000 -1.995192
    6 10.693996 1.440574 1.933754 2.044207 -1.089887 2.688886
    7 6.028142 0.000001 0.000000 -2.523634 -1.184188 0.590266
    8 11.692555 0.000000 0.000000 0.000000 0.000000 -0.972031
    9 15.004634 2.967359 -0.015625 3.459140 -0.070601 -0.314873
    10 3.613100 -0.050787 1.441447 -1.454699 -0.966299 -1.607860
    11 17.848177 0.000000 0.000000 0.000000 0.000000 1.159120
    12 16.525253 0.000000 0.000000 -0.231510 0.024644 -1.373971
    13 -3.613100 0.050786 -1.441443 -1.213522 -0.469010 -1.770031
    14 17.848173 0.000000 0.000000 0.000000 0.000000 1.435154
    15 16.525257 0.000000 0.000000 0.067548 0.012268 -1.597086
  time 2
    0 -0.639115 -3.878810 31.023718 1.570796 0.000000 -0.000042
    1 0.722683 4.087338 -1.684986 1.151595 -0.374182 1.693974
    2 7.438438 0.746117 0.003906 0.019028 -0.020637 0.553948
    3 10.682283 1.440580 -1.941516 -2.025980 1.199043 2.804063
    4 6.028143 0.000001 0.000000 1.560803 0.597343 -0.603436
    5 11.692552 0.000000 0.000002 0.000000 0.000000 -1.995192
    6 10.693996 1.440574 1.933754 2.045447 -1.085746 2.685722
    7 6.028142 0.000001 0.000000 -2.516356 -1.175016 0.593984
    8 11.692555 0.000000 0.000000 0.000000 0.000000 -0.975634
    9 15.008540 2.963453 -0.015625 3.461018 -0.064921 -0.317773
    10 3.613100 -0.042974 1.449260 -1.451588 -0.984164 -1.607174
    11 17.848177 0.000000 0.000000 0.000000 0.000000 1.024637
    12 16.525253 0.000000 0.000000 -0.227918 -0.001986 -1.325701
    13 -3.613100 0.042974 -1.449256 -1.219781 -0.436970 -1.787820
    14 17.848173 0.000000 0.000000 0.000000 0.000000 1.485575
    15 16.525257 0.000000 0.000000 0.083186 -0.022113 -1.533137
  time 3
    0 -0.576626 -5.876813 30.570580 1.570796 0.000000 -0.000042
    1 0.714871 4.087338 -1.684986 1.151169 -0.375327 1.693794
    2 7.438438 0.738304 0.015625 0.013825 -0.023909 0.551831
    3 10.686190 1.440580 -1.941516 -2.034297 1.200381 2.794406
    4 6.028143 0.000001 0.000000 1.555368 0.598080 -0.612384
    5 11.692552 0.000000 0.000002 0.000000 0.000000 -1.995192
    6 10.697902 1.436668 1.933754 2.046400 -1.082495 2.682942
    7 6.028142 0.000001 0.000000 -2.506206 -1.162976 0.594458
    8 11.692555 0.000000 0.000000 0.000000 0.000000 -0.984117
    9 15.008540 2.955640 -0.015625 3.463835 -0.058964 -0.321016
    10 3.609193 -0.031255 1.453166 -1.449301 -0.996597 -1.608546
    11 17.848177 0.000000 0.000000 0.000000 0.000000 0.956197
    12 16.525253 0.000000 0.000000 -0.211726 -0.014355 -1.278969
    13 -3.609193 0.031255 -1.453162 -1.224588 -0.413847 -1.814152
    14 17.848173 0.000000 0.000000 0.000000 0.000000 1.559650
    15 16.525257 0.000000 0.000000 0.091380 -0.065301 -1.472188
  time 4
    0 -0.498513 -7.874816 30.051033 1.570796 0.000000 -0.000042
    1 0.703151 4.091244 -1.684986 1.151273 -0.376472 1.694165
    2 7.438438 0.734397 0.035157 0.006323 -0.027624 0.550054
    3 10.686190 1.436674 -1.941516 -2.039782 1.201283 2.787646
    4 6.028143 0.000001 0.000000 1.548261 0.600661 -0.621704
    5 11.692552 0.000000 0.000002 0.000000 0.000000 -1.995192
    6 10.697902 1.436668 1.933754 2.046877 -1.080327 2.680737
    7 6.028142 0.000001 0.000000 -2.496007 -1.148935 0.594419
    8 11.692555 0.000000 0.000000 0.000000 0.000000 -0.996279
    9 15.012447 2.947827 -0.015625 3.467493 -0.052912 -0.324389
    10 3.609193 -0.019536 1.457073 -1.444361 -1.021419 -1.615837
    11 17.848177 0.000000 0.000000 0.000000 0.000000 0.975740
    12 16.525253 0.000000 0.000000 -0.179788 -0.021251 -1.265197
    13 -3.609193 0.019535 -1.457069 -1.229395 -0.393347 -1.847529
    14 17.848173 0.000000 0.000000 0.000000 0.000000 1.641338
    15 16.525257 0.000000 0.000000 0.089131 -0.116894 -1.409609
  time 5
    0 -0.393055 -9.872819 29.562736 1.570796 0.000000 -0.000042
    1 0.687526 4.095151 -1.681080 1.151955 -0.377570 1.695268
    2 7.438438 0.730491 0.054689 -0.003133 -0.031975 0.548805
    3 10.690096 1.436674 -1.941516 -2.041847 1.201690 2.784629
    4 6.028143 0.000001 0.000000 1.539984 0.605176 -0.630931
    5 11.692552 0.000000 0.000002 0.000000 0.000000 -1.995192
    6 10.697902 1.432762 1.933754 2.046972 -1.079482 2.679491
    7 6.028142 0.000001 0.000000 -2.488036 -1.133951 0.596199
    8 11.692555 0.000000 0.000000 0.000000 0.000000 -1.010467
    9 15.016353 2.943921 -0.015625 3.471694 -0.046944 -0.327611
    10 3.609193 -0.007817 1.460979 -1.437499 -1.052390 -1.628445
    11 17.848177 0.000000 0.000000 0.000000 0.000000 1.062796
    12 16.525253 0.000000 0.000000 -0.139923 -0.026927 -1.284286
    13 -3.609193 0.007816 -1.460975 -1.235653 -0.365853 -1.882667
    14 17.848173 0.000000 0.000000 0.000000 0.000000 1.700271
    15 16.525257 0.000000 0.000000 0.073564 -0.172708 -1.330765
  time 6
    0 -0.260252 -11.870822 29.187725 1.570796 0.000000 -0.000042
    1 0.667994 4.099057 -1.684986 1.153243 -0.378598 1.697293
    2 7.442344 0.726585 0.078127 -0.014256 -0.037152 0.548297
    3 10.690096 1.432768 -1.941516 -2.040136 1.201573 2.785836
    4 6.028143 0.000001 0.000000 1.531205 0.611672 -0.639785
    5 11.692552 0.000000 0.000002 0.000000 0.000000 -1.995192
    6 10.701809 1.432762 1.933754 2.046591 -1.080045 2.679395
    7 6.028142 0.000001 0.000000 -2.484124 -1.118853 0.601499
    8 11.692555 0.000000 0.000000 0.000000 0.000000 -1.025481
    9 15.016353 2.940015 -0.011719 3.476340 -0.041227 -0.330446
    10 3.609193 0.007809 1.457073 -1.432376 -1.072902 -1.641997
    11 17.848177 0.000000 0.000000 0.000000 0.000000 1.176037
    12 16.525253 0.000000 0.000000 -0.101855 -0.031097 -1.297707
    13 -3.609193 -0.007809 -1.457069 -1.243544 -0.329005 -1.916573
    14 17.848173 0.000000 0.000000 0.000000 0.000000 1.729328
    15 16.525257 0.000000 0.000000 0.044520 -0.227055 -1.237805
  time 7
    0 -0.107917 -13.868825 28.972875 1.570796 0.000000 -0.000042
    1 0.644556 4.099057 -1.684986 1.155021 -0.379463 1.700373
    2 7.438438 0.726585 0.109378 -0.026673 -0.043228 0.548932
    3 10.690096 1.432768 -1.937610 -2.034946 1.200948 2.790966
    4 6.028143 0.000001 0.000000 1.522761 0.620196 -0.647801
    5 11.692552 0.000000 0.000002 0.000000 0.000000 -1.995192
    6 10.697902 1.432762 1.937660 2.045828 -1.081931 2.680546
    7 6.028142 0.000001 0.000000 -2.485412 -1.104284 0.611466
    8 11.692555 0.000000 0.000000 0.000000 0.000000 -1.040195
    9 15.016353 2.936108 -0.011719 3.481233 -0.035942 -0.332594
    10 3.609193 0.023434 1.453166 -1.432559 -1.072005 -1.651689
    11 17.848177 0.000000 0.000000 0.000000 0.000000 1.271589
    12 16.525253 0.000000 0.000000 -0.072350 -0.036143 -1.281916
    13 -3.609193 -0.023435 -1.453162 -1.250256 -0.298626 -1.946779
    14 17.848173 0.000000 0.000000 0.000000 0.000000 1.736858
    15 16.525257 0.000000 0.000000 0.007210 -0.269540 -1.134544
  time 8
    0 0.063949 -15.866828 28.945530 1.570796 0.000000 -0.000042
    1 0.617211 4.106870 -1.684986 1.157133 -0.380140 1.705035
    2 7.438438 0.722678 0.144536 -0.040154 -0.050719 0.550667
    3 10.690096 1.432768 -1.937610 -2.026865 1.199901 2.799657
    4 6.028143 0.000001 0.000000 1.515152 0.630562 -0.654977
    5 11.692552 0.000000 0.000002 0.000000 0.000000 -1.995192
    6 10.697902 1.432762 1.937660 2.044684 -1.084901 2.682846
    7 6.028142 0.000001 0.000000 -2.492937 -1.090885 0.627722
    8 11.692555 0.000000 0.000000 0.000000 0.000000 -1.052957
    9 15.016353 2.940015 -0.011719 3.486225 -0.031256 -0.333475
    10 3.613100 0.050779 1.449260 -1.438414 -1.047901 -1.656493
    11 17.848177 0.000000 0.000000 0.000000 0.000000 1.339951
    12 16.525253 0.000000 0.000000 -0.055698 -0.042266 -1.296842
    13 -3.613100 -0.050779 -1.449256 -1.253068 -0.293556 -1.970117
    14 17.848173 0.000000 0.000000 0.000000 0.000000 1.738741
    15 16.525257 0.000000 0.000000 -0.025583 -0.292119 -1.036619
  time 9
    0 0.235816 -17.864831 29.117410 1.570796 0.000000 -0.000042
    1 0.582054 4.110776 -1.684986 1.159452 -0.380561 1.711495
    2 7.438438 0.726585 0.183599 -0.054324 -0.059815 0.553143
    3 10.690096 1.436674 -1.937610 -2.016483 1.198476 2.811487
    4 6.028143 0.000001 0.000000 1.509049 0.642357 -0.661315
    5 11.692552 0.000000 0.000002 0.000000 0.000000 -1.995192
    6 10.697902 1.436668 1.937660 2.043159 -1.088781 2.686489
    7 6.028142 0.000001 0.000000 -2.506503 -1.079147 0.650228
    8 11.692555 0.000000 0.000000 0.000000 0.000000 -1.062942
    9 15.012447 2.947827 -0.007813 3.491068 -0.027385 -0.328663
    10 3.613100 0.078123 1.441447 -1.448295 -1.000861 -1.657265
    11 17.848177 0.000000 0.000000 0.000000 0.000000 1.386762
    12 16.525253 0.000000 0.000000 -0.046407 -0.047718 -1.368237
    13 -3.613100 -0.078124 -1.441443 -1.251798 -0.311258 -1.982006
    14 17.848173 0.000000 0.000000 0.000000 0.000000 1.739478
    15 16.525257 0.000000 0.000000 -0.037329 -0.296140 -0.982006
  time 10
    0 0.399869 -19.862834 29.461171 1.570796 0.000000 -0.000042
    1 0.546897 4.114683 -1.688893 1.161796 -0.380677 1.718710
    2 7.434531 0.730491 0.226569 -0.068264 -0.068935 0.555789
    3 10.686190 1.440580 -1.937610 -2.004392 1.196746 2.825792
    4 6.028143 0.000001 0.000000 1.503781 0.654475 -0.666162
    5 11.692552 0.000000 0.000002 0.000000 0.000000 -1.995192
    6 10.693996 1.436668 1.937660 2.041252 -1.093333 2.691378
    7 6.028142 0.000001 0.000000 -2.522000 -1.069145 0.672971
    8 11.692555 0.000000 0.000000 0.000000 0.000000 -1.071274
    9 15.008540 2.959546 -0.007813 3.495665 -0.024544 -0.318847
    10 3.617006 0.105468 1.433635 -1.459456 -0.935104 -1.655635
    11 17.848177 0.000000 0.000000 0.000000 0.000000 1.408467
    12 16.525253 0.000000 0.000000 -0.036404 -0.054350 -1.456288
    13 -3.617006 -0.105468 -1.433631 -1.245630 -0.349418 -1.976722
    14 17.848173 0.000000 0.000000 0.000000 0.000000 1.746435
    15 16.525257 0.000000 0.000000 -0.015247 -0.279915 -1.013240
  time 11
    0 0.536579 -21.860837 29.922122 1.570796 0.000000 -0.000042
    1 0.519552 4.114683 -1.688893 1.164128 -0.380514 1.724295
    2 7.430625 0.738304 0.253914 -0.080451 -0.074796 0.558180
    3 10.686190 1.444487 -1.937610 -1.991120 1.194739 2.841062
    4 6.028143 0.000001 0.000000 1.497678 0.664979 -0.669051
    5 11.692552 0.000000 0.000002 0.000000 0.000000 -1.995192
    6 10.690089 1.440574 1.937660 2.039250 -1.098405 2.696172
    7 6.028142 0.000001 0.000000 -2.531556 -1.060728 0.684521
    8 11.692555 0.000000 0.000000 0.000000 0.000000 -1.081709
    9 15.004634 2.967359 -0.003906 3.499718 -0.022998 -0.312875
    10 3.620912 0.125000 1.421915 -1.469886 -0.856734 -1.652890
    11 17.848177 0.000000 0.000000 0.000000 0.000000 1.406073
    12 16.525253 0.000000 0.000000 -0.027603 -0.060168 -1.532263
    13 -3.620912 -0.125000 -1.421911 -1.232479 -0.416207 -1.958140
    14 17.848173 0.000000 0.000000 0.000000 0.000000 1.758222
    15 16.525257 0.000000 0.000000 0.032631 -0.236847 -1.123133
  time 12
    0 0.638130 -23.858840 30.429950 1.570796 0.000000 -0.000042
    1 0.507833 4.118589 -1.692799 1.166356 -0.380093 1.726847
    2 7.426719 0.746117 0.265633 -0.089879 -0.075599 0.559894
    3 10.686190 1.444487 -1.937610 -1.977259 1.192500 2.856030
    4 6.028143 0.000001 0.000000 1.489902 0.672766 -0.669517
    5 11.692552 0.000000 0.000002 0.000000 0.000000 -1.995192
    6 10.690089 1.440574 1.937660 2.037058 -1.103803 2.700390
    7 6.028142 0.000001 0.000000 -2.530962 -1.054010 0.678667
    8 11.692555 0.000000 0.000000 0.000000 0.000000 -1.096198
    9 15.000727 2.971266 0.000000 3.503029 -0.023034 -0.312854
    10 3.624819 0.128906 1.414103 -1.478760 -0.770868 -1.649545
    11 17.848177 0.000000 0.000000 0.000000 0.000000 1.386298
    12 16.525253 0.000000 0.000000 -0.020301 -0.065010 -1.598469
    13 -3.624819 -0.128907 -1.414099 -1.209441 -0.514862 -1.930751
    14 17.848173 0.000000 0.000000 0.000000 0.000000 1.743980
    15 16.525257 0.000000 0.000000 0.080990 -0.168647 -1.263666
  time 13
    0 0.696712 -25.856843 30.902621 1.570796 0.000000 -0.000042
    1 0.507833 4.114683 -1.692799 1.168430 -0.379486 1.727375
    2 7.426719 0.746117 0.261727 -0.096720 -0.072938 0.560254
    3 10.686190 1.444487 -1.937610 -1.963279 1.190101 2.870516
    4 6.028143 0.000001 0.000000 1.481207 0.677604 -0.668119
    5 11.692552 0.000000 0.000002 0.000000 0.000000 -1.995192
    6 10.686183 1.440574 1.937660 2.034674 -1.109352 2.704033
    7 6.028142 0.000001 0.000000 -2.522842 -1.049783 0.659998
    8 11.692555 0.000000 0.000000 0.000000 0.000000 -1.112338
    9 15.000727 2.971266 0.000000 3.505451 -0.024808 -0.313885
    10 3.628725 0.128906 1.402384 -1.485073 -0.691914 -1.646886
    11 17.848177 0.000000 0.000000 0.000000 0.000000 1.369690
    12 16.525253 0.000000 0.000000 -0.016576 -0.068184 -1.635624
    13 -3.628725 -0.128907 -1.402380 -1.174248 -0.634673 -1.902130
    14 17.848173 0.000000 0.000000 0.000000 0.000000 1.657217
    15 16.525257 0.000000 0.000000 0.103912 -0.087257 -1.363666
  time 14
    0 0.716230 -27.854846 31.246382 1.570796 0.000000 -0.000042
    1 0.511739 4.114683 -1.696705 1.170298 -0.378738 1.726380
    2 7.426719 0.746117 0.246101 -0.100859 -0.067737 0.559344
    3 10.686190 1.444487 -1.937610 -1.949713 1.187600 2.884458
    4 6.028143 0.000001 0.000000 1.472762 0.679815 -0.665043
    5 11.692552 0.000000 0.000002 0.000000 0.000000 -1.995192
    6 10.686183 1.440574 1.937660 2.032387 -1.114858 2.707484
    7 6.028142 0.000001 0.000000 -2.509771 -1.048462 0.632429
    8 11.692555 0.000000 0.000000 0.000000 0.000000 -1.128028
    9 15.000727 2.971266 0.000000 3.506884 -0.027972 -0.315539
    10 3.632632 0.117187 1.394571 -1.489098 -0.630601 -1.645428
    11 17.848177 0.000000 0.000000 0.000000 0.000000 1.374480
    12 16.525253 0.000000 0.000000 -0.017763 -0.069588 -1.633894
    13 -3.632632 -0.117187 -1.394567 -1.123093 -0.765498 -1.891914
    14 17.848173 0.000000 0.000000 0.000000 0.000000 1.537550
    15 16.525257 0.000000 0.000000 0.093683 -0.015800 -1.420058
  time 15
    0 0.708404 -29.852849 31.398730 1.570796 0.000000 -0.000042
    1 0.527365 4.110776 -1.696705 1.171895 -0.377850 1.724235
    2 7.430625 0.746117 0.222663 -0.102152 -0.060726 0.557842
    3 10.686190 1.444487 -1.937610 -1.936972 1.185099 2.897314
    4 6.028143 0.000001 0.000000 1.465823 0.679861 -0.660010
    5 11.692552 0.000000 0.000002 0.000000 0.000000 -1.995192
    6 10.686183 1.440574 1.937660 2.030289 -1.120125 2.710456
    7 6.028142 0.000001 0.000000 -2.494225 -1.050386 0.599798
    8 11.692555 0.000000 0.000000 0.000000 0.000000 -1.141466
    9 15.004634 2.967359 0.000000 3.507230 -0.032239 -0.317708
    10 3.636538 0.101562 1.382852 -1.491660 -0.584683 -1.644913
    11 17.848177 0.000000 0.000000 0.000000 0.000000 1.401438
    12 16.525253 0.000000 0.000000 -0.022290 -0.069669 -1.607149
    13 -3.636538 -0.101562 -1.382848 -1.084363 -0.842123 -1.868577
    14 17.848173 0.000000 0.000000 0.000000 0.000000 1.331449
    15 16.525257 0.000000 0.000000 0.064049 0.030907 -1.401384
  time 16
    0 0.684952 -31.850852 31.308883 1.570796 0.000000 -0.000042
    1 0.542990 4.110776 -1.696705 1.173157 -0.376869 1.721358
    2 7.434531 0.742210 0.195318 -0.100485 -0.052636 0.555916
    3 10.690096 1.440580 -1.937610 -1.925529 1.182715 2.908540
    4 6.028143 0.000001 0.000000 1.460890 0.677742 -0.653300
    5 11.692552 0.000000 0.000002 0.000000 0.000000 -1.995192
    6 10.690089 1.440574 1.937660 2.028287 -1.124959 2.712948
    7 6.028142 0.000001 0.000000 -2.477540 -1.055822 0.564754
    8 11.692555 0.000000 0.000000 0.000000 0.000000 -1.151075
    9 15.004634 2.967359 0.000000 3.506538 -0.037356 -0.320286
    10 3.640444 0.082030 1.375039 -1.493307 -0.551512 -1.645342
    11 17.848177 0.000000 0.000000 0.000000 0.000000 1.447862
    12 16.525253 0.000000 0.000000 -0.028954 -0.068469 -1.563941
    13 -3.640444 -0.082030 -1.375035 -1.039738 -0.913415 -1.869105
    14 17.848173 0.000000 0.000000 0.000000 0.000000 1.199586
    15 16.525257 0.000000 0.000000 0.033059 0.053989 -1.385749
  time 17
    0 0.649781 -33.848855 31.023718 1.570796 0.000000 -0.000042
    1 0.562522 4.106870 -1.700612 1.174020 -0.375818 1.718794
    2 7.434531 0.738304 0.167974 -0.096404 -0.045134 0.553799
    3 10.690096 1.440580 -1.937610 -1.915914 1.180592 2.917775
    4 6.028143 0.000001 0.000000 1.458800 0.673780 -0.645844
    5 11.692552 0.000000 0.000002 0.000000 0.000000 -1.995192
    6 10.690089 1.440574 1.937660 2.026571 -1.129121 2.714770
    7 6.028142 0.000001 0.000000 -2.462290 -1.064767 0.532320
    8 11.692555 0.000000 0.000000 0.000000 0.000000 -1.154828
    9 15.008540 2.959546 0.000000 3.504660 -0.043073 -0.323100
    10 3.644351 0.062498 1.367226 -1.494587 -0.525209 -1.645857
    11 17.848177 0.000000 0.000000 0.000000 0.000000 1.503247
    12 16.525253 0.000000 0.000000 -0.037087 -0.065539 -1.506319
    13 -3.644351 -0.062498 -1.367222 -1.021144 -0.940996 -1.852813
    14 17.848173 0.000000 0.000000 0.000000 0.000000 1.074517
    15 16.525257 0.000000 0.000000 0.005943 0.064967 -1.347068
  time 18
    0 0.595078 -35.846858 30.609643 1.570796 0.000000 -0.000042
    1 0.578148 4.102963 -1.700612 1.174433 -0.374743 1.716996
    2 7.438438 0.738304 0.144536 -0.090281 -0.039034 0.551704
    3 10.690096 1.440580 -1.937610 -1.908482 1.178876 2.924534
    4 6.028143 0.000001 0.000000 1.459803 0.668343 -0.638201
    5 11.692552 0.000000 0.000002 0.000000 0.000000 -1.995192
    6 10.690089 1.436668 1.937660 2.025332 -1.132394 2.715824
    7 6.028142 0.000001 0.000000 -2.449962 -1.076882 0.505266
    8 11.692555 0.000000 0.000000 0.000000 0.000000 -1.152126
    9 15.008540 2.955640 0.000000 3.501843 -0.049161 -0.326021
    10 3.644351 0.046872 1.363320 -1.495319 -0.508557 -1.646800
    11 17.848177 0.000000 0.000000 0.000000 0.000000 1.579952
    12 16.525253 0.000000 0.000000 -0.045843 -0.060799 -1.449882
    13 -3.644351 -0.046873 -1.363316 -1.010441 -0.956426 -1.842421
    14 17.848173 0.000000 0.000000 0.000000 0.000000 1.007727
    15 16.525257 0.000000 0.000000 -0.024083 0.073110 -1.311276
  time 19
    0 0.516937 -37.844861 30.090096 1.570796 0.000000 -0.000042
    1 0.593773 4.102963 -1.700612 1.174343 -0.373692 1.715570
    2 7.438438 0.734397 0.121097 -0.082291 -0.033797 0.549906
    3 10.690096 1.436674 -1.937610 -1.903705 1.177684 2.928578
    4 6.028143 0.000001 0.000000 1.463565 0.661754 -0.630185
    5 11.692552 0.000000 0.000002 0.000000 0.000000 -1.995192
    6 10.693996 1.436668 1.937660 2.024474 -1.134605 2.716112
    7 6.028142 0.000001 0.000000 -2.440208 -1.091112 0.483116
    8 11.692555 0.000000 0.000000 0.000000 0.000000 -1.144243
    9 15.012447 2.947827 0.000000 3.498186 -0.055405 -0.328835
    10 3.648257 0.031247 1.359414 -1.495777 -0.497111 -1.647401
    11 17.848177 0.000000 0.000000 0.000000 0.000000 1.668706
    12 16.525253 0.000000 0.000000 -0.054452 -0.053923 -1.395847
    13 -3.648257 -0.031247 -1.359410 -0.992119 -0.977625 -1.854310
    14 17.848173 0.000000 0.000000 0.000000 0.000000 1.024588
    15 16.525257 0.000000 0.000000 -0.063856 0.083525 -1.313240
  time 20
    0 0.419264 -39.842864 29.554924 1.570796 0.000000 -0.000042
    1 0.613305 4.099057 -1.700612 1.173673 -0.372640 1.714108
    2 7.438438 0.730491 0.097659 -0.072633 -0.028895 0.548615
    3 10.694003 1.436674 -1.937610 -1.901876 1.177146 2.929544
    4 6.028143 0.000001 0.000000 1.469585 0.654336 -0.621984
    5 11.692552 0.000000 0.000002 0.000000 0.000000 -1.995192
    6 10.693996 1.432762 1.937660 2.024284 -1.135494 2.715536
    7 6.028142 0.000001 0.000000 -2.432831 -1.106247 0.465317
    8 11.692555 0.000000 0.000000 0.000000 0.000000 -1.132607
    9 15.016353 2.943921 0.000000 3.493935 -0.061589 -0.331284
    10 3.648257 0.015621 1.359414 -1.496509 -0.479022 -1.645943
    11 17.848177 0.000000 0.000000 0.000000 0.000000 1.739385
    12 16.525253 0.000000 0.000000 -0.062065 -0.044382 -1.332043
    13 -3.648257 -0.015622 -1.359410 -0.967267 -1.001666 -1.885662
    14 17.848173 0.000000 0.000000 0.000000 0.000000 1.108977
    15 16.525257 0.000000 0.000000 -0.096507 0.094925 -1.348661
  time 21
    0 0.298152 -41.840867 29.136942 1.570796 0.000000 -0.000042
    1 0.632837 4.095151 -1.700612 1.172397 -0.371659 1.712034
    2 7.442344 0.726585 0.074221 -0.061510 -0.023610 0.548085
    3 10.694003 1.432768 -1.937610 -1.903351 1.177335 2.927250
    4 6.028143 0.000001 0.000000 1.477528 0.646458 -0.613502
    5 11.692552 0.000000 0.000002 0.000000 0.000000 -1.995192
    6 10.693996 1.432762 1.937660 2.024760 -1.134952 2.714290
    7 6.028142 0.000001 0.000000 -2.427385 -1.121231 0.450920
    8 11.692555 0.000000 0.000000 0.000000 0.000000 -1.118869
    9 15.016353 2.940015 0.000000 3.489190 -0.067509 -0.333046
    10 3.648257 -0.000004 1.359414 -1.497515 -0.449847 -1.641482
    11 17.848177 0.000000 0.000000 0.000000 0.000000 1.781330
    12 16.525253 0.000000 0.000000 -0.067571 -0.032501 -1.259687
    13 -3.648257 0.000004 -1.359410 -0.951666 -1.014124 -1.917189
    14 17.848173 0.000000 0.000000 0.000000 0.000000 1.218903
    15 16.525257 0.000000 0.000000 -0.111305 0.108959 -1.375189
  time 22
    0 0.149696 -43.838870 28.906466 1.570796 0.000000 -0.000042
    1 0.656275 4.091244 -1.700612 1.170646 -0.370795 1.708331
    2 7.442344 0.726585 0.039064 -0.048863 -0.016599 0.548678
    3 10.694003 1.432768 -1.937610 -1.907893 1.178178 2.922241
    4 6.028143 0.000001 0.000000 1.486641 0.638671 -0.604182
    5 11.692552 0.000000 0.000002 0.000000 0.000000 -1.995192
    6 10.697902 1.432762 1.937660 2.025904 -1.133110 2.712469
    7 6.028142 0.000001 0.000000 -2.422484 -1.134894 0.437314
    8 11.692555 0.000000 0.000000 0.000000 0.000000 -1.105206
    9 15.016353 2.936108 0.000000 3.484248 -0.072938 -0.333819
    10 3.644351 -0.019536 1.363320 -1.498430 -0.424352 -1.633248
    11 17.848177 0.000000 0.000000 0.000000 0.000000 1.799328
    12 16.525253 0.000000 0.000000 -0.068833 -0.012463 -1.178779
    13 -3.644351 0.019535 -1.363316 -0.957381 -1.006911 -1.929695
    14 17.848173 0.000000 0.000000 0.000000 0.000000 1.310413
    15 16.525257 0.000000 0.000000 -0.107325 0.123818 -1.367408
  time 23
    0 -0.026104 -45.836873 28.875215 1.570796 0.000000 -0.000042
    1 0.691432 4.087338 -1.700612 1.168546 -0.370094 1.702555
    2 7.442344 0.726585 0.000000 -0.034951 -0.007418 0.550540
    3 10.694003 1.432768 -1.937610 -1.915089 1.179574 2.915119
    4 6.028143 0.000001 0.000000 1.496507 0.631300 -0.594023
    5 11.692552 0.000000 0.000002 0.000000 0.000000 -1.995192
    6 10.697902 1.432762 1.937660 2.027429 -1.130162 2.710551
    7 6.028142 0.000001 0.000000 -2.417830 -1.146670 0.423628
    8 11.692555 0.000000 0.000000 0.000000 0.000000 -1.092895
    9 15.016353 2.940015 -0.003906 3.479256 -0.077672 -0.333260
    10 3.644351 -0.046880 1.367226 -1.498430 -0.422377 -1.621240
    11 17.848177 0.000000 0.000000 0.000000 0.000000 1.807670
    12 16.525253 0.000000 0.000000 -0.062599 0.017870 -1.098128
    13 -3.644351 0.046880 -1.367222 -0.983775 -0.979811 -1.917894
    14 17.848173 0.000000 0.000000 0.000000 0.000000 1.373848
    15 16.525257 0.000000 0.000000 -0.091705 0.127919 -1.381710
  time 24
    0 -0.213623 -47.834876 29.047096 1.570796 0.000000 -0.000042
    1 0.726590 4.079525 -1.696705 1.166266 -0.369626 1.695783
    2 7.442344 0.726585 -0.039064 -0.020666 0.002145 0.553249
    3 10.690096 1.436674 -1.937610 -1.924408 1.181391 2.906488
    4 6.028143 0.000001 0.000000 1.507042 0.624757 -0.584236
    5 11.692552 0.000000 0.000002 0.000000 0.000000 -1.995192
    6 10.693996 1.436668 1.937660 2.029431 -1.126282 2.708826
    7 6.028142 0.000001 0.000000 -2.416295 -1.156672 0.414571
    8 11.692555 0.000000 0.000000 0.000000 0.000000 -1.080959
    9 15.012447 2.947827 -0.003906 3.474412 -0.081507 -0.325742
    10 3.640444 -0.074225 1.375039 -1.497789 -0.441004 -1.607174
    11 17.848177 0.000000 0.000000 0.000000 0.000000 1.809292
    12 16.525253 0.000000 0.000000 -0.051142 0.052616 -1.048737
    13 -3.640444 0.074225 -1.375035 -1.024772 -0.932472 -1.887247
    14 17.848173 0.000000 0.000000 0.000000 0.000000 1.414855
    15 16.525257 0.000000 0.000000 -0.072657 0.119756 -1.446919
  time 25
    0 -0.401143 -49.832879 29.390856 1.570796 0.000000 -0.000042
    1 0.761747 4.075619 -1.696705 1.163922 -0.369439 1.689372
    2 7.438438 0.734397 -0.074221 -0.007157 0.010103 0.556000
    3 10.686190 1.440580 -1.937610 -1.935556 1.183529 2.897012
    4 6.028143 0.000001 0.000000 1.518162 0.619274 -0.575941
    5 11.692552 0.000000 0.000002 0.000000 0.000000 -1.995192
    6 10.693996 1.436668 1.937660 2.031624 -1.121708 2.707676
    7 6.028142 0.000001 0.000000 -2.420404 -1.165203 0.414571
    8 11.692555 0.000000 0.000000 0.000000 0.000000 -1.068272
    9 15.008540 2.959546 -0.007813 3.469865 -0.084228 -0.315431
    10 3.636538 -0.101570 1.382852 -1.496509 -0.476778 -1.592335
    11 17.848177 0.000000 0.000000 0.000000 0.000000 1.808983
    12 16.525253 0.000000 0.000000 -0.043246 0.089153 -1.068052
    13 -3.636538 0.101569 -1.382848 -1.070304 -0.867999 -1.848850
    14 17.848173 0.000000 0.000000 0.000000 0.000000 1.430898
    15 16.525257 0.000000 0.000000 -0.056394 0.109220 -1.529209
  time 26
    0 -0.553505 -51.830882 29.855714 1.570796 0.000000 -0.000042
    1 0.785185 4.071712 -1.696705 1.161603 -0.369533 1.684206
    2 7.438438 0.742210 -0.101566 0.004800 0.015352 0.558519
    3 10.682283 1.444487 -1.937610 -1.948061 1.185841 2.885846
    4 6.028143 0.000001 0.000000 1.528864 0.614252 -0.570256
    5 11.692552 0.000000 0.000002 0.000000 0.000000 -1.995192
    6 10.690089 1.440574 1.937660 2.033912 -1.116614 2.706046
    7 6.028142 0.000001 0.000000 -2.428870 -1.172412 0.423193
    8 11.692555 0.000000 0.000000 0.000000 0.000000 -1.054384
    9 15.000727 2.971266 -0.007813 3.465862 -0.085630 -0.309481
    10 3.632632 -0.117195 1.394571 -1.493947 -0.537822 -1.580070
    11 17.848177 0.000000 0.000000 0.000000 0.000000 1.807747
    12 16.525253 0.000000 0.000000 -0.050815 0.125589 -1.155045
    13 -3.632632 0.117195 -1.394567 -1.112753 -0.791331 -1.812038
    14 17.848173 0.000000 0.000000 0.000000 0.000000 1.422795
    15 16.525257 0.000000 0.000000 -0.039293 0.098122 -1.598642
  time 27
    0 -0.651178 -53.828885 30.375261 1.570796 0.000000 -0.000042
    1 0.796904 4.071712 -1.692799 1.159375 -0.369883 1.681354
    2 7.434531 0.750023 -0.113285 0.014400 0.016539 0.560381
    3 10.682283 1.444487 -1.937610 -1.961510 1.188269 2.872628
    4 6.028143 0.000001 0.000000 1.538646 0.609276 -0.568392
    5 11.692552 0.000000 0.000002 0.000000 0.000000 -1.995192
    6 10.690089 1.444481 1.937660 2.036295 -1.111195 2.703074
    7 6.028142 0.000001 0.000000 -2.441248 -1.178488 0.440953
    8 11.692555 0.000000 0.000000 0.000000 0.000000 -1.038694
    9 15.000727 2.975172 -0.011719 3.462550 -0.085534 -0.308794
    10 3.628725 -0.125008 1.402384 -1.489373 -0.626651 -1.575266
    11 17.848177 0.000000 0.000000 0.000000 0.000000 1.777931
    12 16.525253 0.000000 0.000000 -0.084387 0.152280 -1.277848
    13 -3.628725 0.125007 -1.402380 -1.148942 -0.706751 -1.781215
    14 17.848173 0.000000 0.000000 0.000000 0.000000 1.397012
    15 16.525257 0.000000 0.000000 -0.021049 0.086239 -1.657034
  time 28
    0 -0.686349 -55.826888 30.859651 1.570796 0.000000 -0.000042
    1 0.789092 4.071712 -1.692799 1.157288 -0.370421 1.682924
    2 7.434531 0.753929 -0.097659 0.020292 0.010858 0.560804
    3 10.682283 1.444487 -1.941516 -1.975430 1.190697 2.858324
    4 6.028143 0.000001 0.000000 1.548094 0.605130 -0.571374
    5 11.692552 0.000000 0.000002 0.000000 0.000000 -1.995192
    6 10.690089 1.444481 1.933754 2.038583 -1.105645 2.699527
    7 6.028142 0.000001 0.000000 -2.463429 -1.184188 0.476234
    8 11.692555 0.000000 0.000000 0.000000 0.000000 -1.018575
    9 15.000727 2.975172 -0.011719 3.460128 -0.083700 -0.309352
    10 3.624819 -0.113289 1.414103 -1.482145 -0.731683 -1.583157
    11 17.848177 0.000000 0.000000 0.000000 0.000000 1.672105
    12 16.525253 0.000000 0.000000 -0.137712 0.147458 -1.369647
    13 -3.624819 0.113288 -1.414099 -1.175337 -0.627766 -1.762369
    14 17.848173 0.000000 0.000000 0.000000 0.000000 1.374503
    15 16.525257 0.000000 0.000000 -0.000127 0.073753 -1.686675
  time 29
    0 -0.709801 -57.824891 31.226850 1.570796 0.000000 -0.000042
    1 0.765653 4.075619 -1.688893 1.155407 -0.371168 1.687921
    2 7.434531 0.753929 -0.062502 0.022649 -0.000072 0.559831
    3 10.682283 1.444487 -1.941516 -1.989291 1.193053 2.843778
    4 6.028143 0.000001 0.000000 1.556790 0.602135 -0.578271
    5 11.692552 0.000000 0.000002 0.000000 0.000000 -1.995192
    6 10.690089 1.444481 1.933754 2.040680 -1.100140 2.695980
    7 6.028142 0.000001 0.000000 -2.492739 -1.188453 0.524647
    8 11.692555 0.000000 0.000000 0.000000 0.000000 -0.996279
    9 15.000727 2.975172 -0.015625 3.458744 -0.080369 -0.310577
    10 3.620912 -0.089850 1.421915 -1.471167 -0.847263 -1.595337
    11 17.848177 0.000000 0.000000 0.000000 0.000000 1.530901
    12 16.525253 0.000000 0.000000 -0.188544 0.113606 -1.419389
    13 -3.620912 0.089850 -1.421911 -1.192479 -0.564517 -1.755588
    14 17.848173 0.000000 0.000000 0.000000 0.000000 1.373848
    15 16.525257 0.000000 0.000000 0.022348 0.059659 -1.678005
  time 30
    0 -0.702002 -59.822894 31.402636 1.570796 0.000000 -0.000042
    1 0.742215 4.083432 -1.688893 1.153746 -0.372080 1.692943
    2 7.434531 0.750023 -0.023438 0.022678 -0.011349 0.558223
    3 10.682283 1.444487 -1.941516 -2.003094 1.195336 2.829172
    4 6.028143 0.000001 0.000000 1.562893 0.600062 -0.586939
    5 11.692552 0.000000 0.000002 0.000000 0.000000 -1.995192
    6 10.693996 1.440574 1.933754 2.042587 -1.094720 2.692337
    7 6.028142 0.000001 0.000000 -2.517643 -1.188981 0.569579
    8 11.692555 0.000000 0.000000 0.000000 0.000000 -0.978187
    9 15.000727 2.971266 -0.015625 3.458349 -0.075791 -0.312467
    10 3.617006 -0.066412 1.433635 -1.463939 -0.905390 -1.604944
    11 17.848177 0.000000 0.000000 0.000000 0.000000 1.304418
    12 16.525253 0.000000 0.000000 -0.216861 0.063276 -1.398730
    13 -3.617006 0.066412 -1.433631 -1.205631 -0.507388 -1.758406
    14 17.848173 0.000000 0.000000 0.000000 0.000000 1.394556
    15 16.525257 0.000000 0.000000 0.047073 0.038648 -1.647586
end
