// Created by Crowbar 0.74
version 1
nodes
  0 "ValveBiped.Bip01" -1
  1 "ValveBiped.Bip01_Spine" 0
  2 "ValveBiped.Bip01_Spine2" 1
  3 "ValveBiped.Bip01_R_Clavicle" 2
  4 "ValveBiped.Bip01_R_UpperArm" 3
  5 "ValveBiped.Bip01_R_Forearm" 4
  6 "ValveBiped.Bip01_L_Clavicle" 2
  7 "ValveBiped.Bip01_L_UpperArm" 6
  8 "ValveBiped.Bip01_L_Forearm" 7
  9 "ValveBiped.Bip01_Head1" 2
  10 "ValveBiped.Bip01_L_Thigh" 0
  11 "ValveBiped.Bip01_L_Calf" 10
  12 "ValveBiped.Bip01_L_Foot" 11
  13 "ValveBiped.Bip01_R_Thigh" 0
  14 "ValveBiped.Bip01_R_Calf" 13
  15 "ValveBiped.Bip01_R_Foot" 14
end
skeleton
  time 0
    0 -3.018066 6.820526 28.875215 1.846487 0.190016 -0.571998
    1 0.000005 3.345128 -2.981901 1.576270 -0.089589 1.511664
    2 7.489221 0.582049 -0.039064 -0.511882 -0.082574 0.596591
    3 10.596343 1.725745 -1.785262 -2.604856 0.997849 2.243595
    4 6.028143 0.000001 0.000000 0.969016 1.197868 -1.027696
    5 11.692552 0.000000 0.000002 0.000000 0.000000 -1.571542
    6 10.678370 1.276507 2.062664 -0.717385 -1.422145 5.532447
    7 6.028142 0.000001 0.000000 -2.726479 -0.559040 0.019277
    8 11.692555 0.000000 0.000000 0.000000 0.000000 -1.532359
    9 14.946038 3.107988 0.238289 4.295658 0.176138 -0.143050
    10 3.886546 -0.226573 -0.000003 -2.759395 -0.598059 -0.258751
    11 17.848177 0.000000 0.000000 0.000000 0.000000 1.847683
    12 16.525253 0.000000 0.000000 0.106519 0.387614 -0.997521
    13 -3.886546 0.226573 0.000007 -2.153736 -1.128427 -1.146522
    14 17.848173 0.000000 0.000000 0.000000 0.000000 1.347655
    15 16.525257 0.000000 0.000000 -0.028100 -0.340816 -1.495826
  time 1
    0 -4.447272 8.298708 28.828339 1.846487 0.190016 -0.571998
    1 0.000005 3.345128 -2.981901 1.576270 -0.089589 1.511664
    2 7.489221 0.582049 -0.039064 -0.511882 -0.082574 0.596591
    3 10.596343 1.725745 -1.785262 -2.604856 0.997849 2.243595
    4 6.028143 0.000001 0.000000 0.969016 1.197868 -1.027696
    5 11.692552 0.000000 0.000002 0.000000 0.000000 -1.571542
    6 10.678370 1.276507 2.062664 -0.717385 -1.422145 5.532447
    7 6.028142 0.000001 0.000000 -2.726479 -0.559040 0.019277
    8 11.692555 0.000000 0.000000 0.000000 0.000000 -1.532359
    9 14.946038 3.107988 0.238289 4.295658 0.176138 -0.143050
    10 3.886546 -0.226573 -0.000003 -2.657662 -0.524356 -0.493080
    11 17.848177 0.000000 0.000000 0.000000 0.000000 1.927323
    12 16.525253 0.000000 0.000000 0.161373 0.496371 -1.141400
    13 -3.886546 0.226573 0.000007 -2.211422 -1.144163 -1.007994
    14 17.848173 0.000000 0.000000 0.000000 0.000000 1.365745
    15 16.525257 0.000000 0.000000 -0.100684 -0.320228 -1.435285
  time 2
    0 -5.880384 9.616729 28.644740 1.846487 0.190016 -0.571998
    1 0.000005 3.345128 -2.981901 1.576270 -0.089589 1.511664
    2 7.489221 0.582049 -0.039064 -0.511882 -0.082574 0.596591
    3 10.596343 1.725745 -1.785262 -2.604856 0.997849 2.243595
    4 6.028143 0.000001 0.000000 0.969016 1.197868 -1.027696
    5 11.692552 0.000000 0.000002 0.000000 0.000000 -1.571542
    6 10.678370 1.276507 2.062664 -0.717385 -1.422145 5.532447
    7 6.028142 0.000001 0.000000 -2.726479 -0.559040 0.019277
    8 11.692555 0.000000 0.000000 0.000000 0.000000 -1.532359
    9 14.946038 3.107988 0.238289 4.295658 0.176138 -0.143050
    10 3.886546 -0.226573 -0.000003 -2.588864 -0.454066 -0.686925
    11 17.848177 0.000000 0.000000 0.000000 0.000000 1.925932
    12 16.525253 0.000000 0.000000 0.191887 0.516450 -1.261961
    13 -3.886546 0.226573 0.000007 -2.269199 -1.152074 -0.875631
    14 17.848173 0.000000 0.000000 0.000000 0.000000 1.381869
    15 16.525257 0.000000 0.000000 -0.166716 -0.289485 -1.387453
  time 3
    0 -7.266621 10.938657 28.351762 1.846487 0.190016 -0.571998
    1 0.000005 3.345128 -2.981901 1.576270 -0.089589 1.511664
    2 7.489221 0.582049 -0.039064 -0.511882 -0.082574 0.596591
    3 10.596343 1.725745 -1.785262 -2.604856 0.997849 2.243595
    4 6.028143 0.000001 0.000000 0.969016 1.197868 -1.027696
    5 11.692552 0.000000 0.000002 0.000000 0.000000 -1.571542
    6 10.678370 1.276507 2.062664 -0.717385 -1.422145 5.532447
    7 6.028142 0.000001 0.000000 -2.726479 -0.559040 0.019277
    8 11.692555 0.000000 0.000000 0.000000 0.000000 -1.532359
    9 14.946038 3.107988 0.238289 4.295658 0.176138 -0.143050
    10 3.886546 -0.226573 -0.000003 -2.579349 -0.450699 -0.770038
    11 17.848177 0.000000 0.000000 0.000000 0.000000 1.907548
    12 16.525253 0.000000 0.000000 0.161848 0.463658 -1.384989
    13 -3.886546 0.226573 0.000007 -2.341670 -1.152424 -0.737719
    14 17.848173 0.000000 0.000000 0.000000 0.000000 1.392019
    15 16.525257 0.000000 0.000000 -0.225501 -0.252731 -1.343881
  time 4
    0 -8.656763 12.373869 28.109567 1.846487 0.190016 -0.571998
    1 0.000005 3.345128 -2.981901 1.576270 -0.089589 1.511664
    2 7.489221 0.582049 -0.039064 -0.511882 -0.082574 0.596591
    3 10.596343 1.725745 -1.785262 -2.604856 0.997849 2.243595
    4 6.028143 0.000001 0.000000 0.969016 1.197868 -1.027696
    5 11.692552 0.000000 0.000002 0.000000 0.000000 -1.571542
    6 10.678370 1.276507 2.062664 -0.717385 -1.422145 5.532447
    7 6.028142 0.000001 0.000000 -2.726479 -0.559040 0.019277
    8 11.692555 0.000000 0.000000 0.000000 0.000000 -1.532359
    9 14.946038 3.107988 0.238289 4.295658 0.176138 -0.143050
    10 3.886546 -0.226573 -0.000003 -2.562698 -0.446705 -0.880598
    11 17.848177 0.000000 0.000000 0.000000 0.000000 1.837332
    12 16.525253 0.000000 0.000000 0.113895 0.381694 -1.577137
    13 -3.886546 0.226573 0.000007 -2.420127 -1.138611 -0.602009
    14 17.848173 0.000000 0.000000 0.000000 0.000000 1.381296
    15 16.525257 0.000000 0.000000 -0.278502 -0.214771 -1.288527
  time 5
    0 -10.046905 13.898928 27.984563 1.846487 0.190016 -0.571998
    1 0.000005 3.345128 -2.981901 1.576270 -0.089589 1.511664
    2 7.489221 0.582049 -0.039064 -0.511882 -0.082574 0.596591
    3 10.596343 1.725745 -1.785262 -2.604856 0.997849 2.243595
    4 6.028143 0.000001 0.000000 0.969016 1.197868 -1.027696
    5 11.692552 0.000000 0.000002 0.000000 0.000000 -1.571542
    6 10.678370 1.276507 2.062664 -0.717385 -1.422145 5.532447
    7 6.028142 0.000001 0.000000 -2.726479 -0.559040 0.019277
    8 11.692555 0.000000 0.000000 0.000000 0.000000 -1.532359
    9 14.946038 3.107988 0.238289 4.295658 0.176138 -0.143050
    10 3.886546 -0.226573 -0.000003 -2.542846 -0.442081 -0.983010
    11 17.848177 0.000000 0.000000 0.000000 0.000000 1.733978
    12 16.525253 0.000000 0.000000 0.089050 0.297919 -1.773545
    13 -3.886546 0.226573 0.000007 -2.484978 -1.112210 -0.490870
    14 17.848173 0.000000 0.000000 0.000000 0.000000 1.343399
    15 16.525257 0.000000 0.000000 -0.322149 -0.178117 -1.218835
  time 6
    0 -11.440954 15.509927 27.941593 1.846487 0.190016 -0.571998
    1 0.000005 3.345128 -2.981901 1.576270 -0.089589 1.511664
    2 7.489221 0.582049 -0.039064 -0.511882 -0.082574 0.596591
    3 10.596343 1.725745 -1.785262 -2.604856 0.997849 2.243595
    4 6.028143 0.000001 0.000000 0.969016 1.197868 -1.027696
    5 11.692552 0.000000 0.000002 0.000000 0.000000 -1.571542
    6 10.678370 1.276507 2.062664 -0.717385 -1.422145 5.532447
    7 6.028142 0.000001 0.000000 -2.726479 -0.559040 0.019277
    8 11.692555 0.000000 0.000000 0.000000 0.000000 -1.532359
    9 14.946038 3.107988 0.238289 4.295658 0.176138 -0.143050
    10 3.886546 -0.226573 -0.000003 -2.524731 -0.437548 -1.063464
    11 17.848177 0.000000 0.000000 0.000000 0.000000 1.622359
    12 16.525253 0.000000 0.000000 0.095403 0.234183 -1.949230
    13 -3.886546 0.226573 0.000007 -2.533050 -1.079777 -0.408968
    14 17.848173 0.000000 0.000000 0.000000 0.000000 1.281192
    15 16.525257 0.000000 0.000000 -0.354407 -0.145223 -1.135989
  time 7
    0 -12.835003 17.206866 27.949406 1.846487 0.190016 -0.571998
    1 0.000005 3.345128 -2.981901 1.576270 -0.089589 1.511664
    2 7.489221 0.582049 -0.039064 -0.511882 -0.082574 0.596591
    3 10.596343 1.725745 -1.785262 -2.604856 0.997849 2.243595
    4 6.028143 0.000001 0.000000 0.969016 1.197868 -1.027696
    5 11.692552 0.000000 0.000002 0.000000 0.000000 -1.571542
    6 10.678370 1.276507 2.062664 -0.717385 -1.422145 5.532447
    7 6.028142 0.000001 0.000000 -2.726479 -0.559040 0.019277
    8 11.692555 0.000000 0.000000 0.000000 0.000000 -1.532359
    9 14.946038 3.107988 0.238289 4.295658 0.176138 -0.143050
    10 3.886546 -0.226573 -0.000003 -2.515400 -0.438805 -1.105664
    11 17.848177 0.000000 0.000000 0.000000 0.000000 1.534609
    12 16.525253 0.000000 0.000000 0.116003 0.202772 -2.080810
    13 -3.886546 0.226573 0.000007 -2.565159 -1.046907 -0.355424
    14 17.848173 0.000000 0.000000 0.000000 0.000000 1.197049
    15 16.525257 0.000000 0.000000 -0.374454 -0.117014 -1.041621
  time 8
    0 -14.229052 18.985839 28.027533 1.846487 0.190016 -0.571998
    1 0.000005 3.345128 -2.981901 1.576270 -0.089589 1.511664
    2 7.489221 0.582049 -0.039064 -0.511882 -0.082574 0.596591
    3 10.596343 1.725745 -1.785262 -2.604856 0.997849 2.243595
    4 6.028143 0.000001 0.000000 0.969016 1.197868 -1.027696
    5 11.692552 0.000000 0.000002 0.000000 0.000000 -1.571542
    6 10.678370 1.276507 2.062664 -0.717385 -1.422145 5.532447
    7 6.028142 0.000001 0.000000 -2.726479 -0.559040 0.019277
    8 11.692555 0.000000 0.000000 0.000000 0.000000 -1.532359
    9 14.946038 3.107988 0.238289 4.295658 0.176138 -0.143050
    10 3.886546 -0.226573 -0.000003 -2.530403 -0.460036 -1.069983
    11 17.848177 0.000000 0.000000 0.000000 0.000000 1.521709
    12 16.525253 0.000000 0.000000 0.118570 0.201592 -2.121200
    13 -3.886546 0.226573 0.000007 -2.577222 -1.016266 -0.333848
    14 17.848173 0.000000 0.000000 0.000000 0.000000 1.087286
    15 16.525257 0.000000 0.000000 -0.381291 -0.091620 -0.936100
  time 9
    0 -15.627007 20.854658 28.207226 1.846487 0.190016 -0.571998
    1 0.000005 3.345128 -2.981901 1.576270 -0.089589 1.511664
    2 7.489221 0.582049 -0.039064 -0.511882 -0.082574 0.596591
    3 10.596343 1.725745 -1.785262 -2.604856 0.997849 2.243595
    4 6.028143 0.000001 0.000000 0.969016 1.197868 -1.027696
    5 11.692552 0.000000 0.000002 0.000000 0.000000 -1.571542
    6 10.678370 1.276507 2.062664 -0.717385 -1.422145 5.532447
    7 6.028142 0.000001 0.000000 -2.726479 -0.559040 0.019277
    8 11.692555 0.000000 0.000000 0.000000 0.000000 -1.532359
    9 14.946038 3.107988 0.238289 4.295658 0.176138 -0.143050
    10 3.886546 -0.226573 -0.000003 -2.569834 -0.495360 -0.958737
    11 17.848177 0.000000 0.000000 0.000000 0.000000 1.563885
    12 16.525253 0.000000 0.000000 0.093369 0.217806 -2.072066
    13 -3.886546 0.226573 0.000007 -2.607970 -1.012113 -0.327947
    14 17.848173 0.000000 0.000000 0.000000 0.000000 1.026061
    15 16.525257 0.000000 0.000000 -0.381773 -0.031664 -0.824577
  time 10
    0 -17.028869 22.817230 28.480672 1.846487 0.190016 -0.571998
    1 0.000005 3.345128 -2.981901 1.576270 -0.089589 1.511664
    2 7.489221 0.582049 -0.039064 -0.511882 -0.082574 0.596591
    3 10.596343 1.725745 -1.785262 -2.604856 0.997849 2.243595
    4 6.028143 0.000001 0.000000 0.969016 1.197868 -1.027696
    5 11.692552 0.000000 0.000002 0.000000 0.000000 -1.571542
    6 10.678370 1.276507 2.062664 -0.717385 -1.422145 5.532447
    7 6.028142 0.000001 0.000000 -2.726479 -0.559040 0.019277
    8 11.692555 0.000000 0.000000 0.000000 0.000000 -1.532359
    9 14.946038 3.107988 0.238289 4.295658 0.176138 -0.143050
    10 3.886546 -0.226573 -0.000003 -2.608991 -0.523189 -0.843287
    11 17.848177 0.000000 0.000000 0.000000 0.000000 1.583659
    12 16.525253 0.000000 0.000000 0.063954 0.236421 -1.999357
    13 -3.886546 0.226573 0.000007 -2.704567 -1.051147 -0.306988
    14 17.848173 0.000000 0.000000 0.000000 0.000000 1.123383
    15 16.525257 0.000000 0.000000 -0.358637 0.061066 -0.775300
  time 11
    0 -18.430730 24.764177 28.722867 1.846487 0.190016 -0.571998
    1 0.000005 3.345128 -2.981901 1.576270 -0.089589 1.511664
    2 7.489221 0.582049 -0.039064 -0.511882 -0.082574 0.596591
    3 10.596343 1.725745 -1.785262 -2.604856 0.997849 2.243595
    4 6.028143 0.000001 0.000000 0.969016 1.197868 -1.027696
    5 11.692552 0.000000 0.000002 0.000000 0.000000 -1.571542
    6 10.678370 1.276507 2.062664 -0.717385 -1.422145 5.532447
    7 6.028142 0.000001 0.000000 -2.726479 -0.559040 0.019277
    8 11.692555 0.000000 0.000000 0.000000 0.000000 -1.532359
    9 14.946038 3.107988 0.238289 4.295658 0.176138 -0.143050
    10 3.886546 -0.226573 -0.000003 -2.643664 -0.542356 -0.730583
    11 17.848177 0.000000 0.000000 0.000000 0.000000 1.585899
    12 16.525253 0.000000 0.000000 0.030783 0.257191 -1.914798
    13 -3.886546 0.226573 0.000007 -2.796085 -1.105042 -0.348555
    14 17.848173 0.000000 0.000000 0.000000 0.000000 1.350356
    15 16.525257 0.000000 0.000000 -0.289017 0.138475 -0.836767
  time 12
    0 -19.832592 26.582213 28.824433 1.846487 0.190016 -0.571998
    1 0.000005 3.345128 -2.981901 1.576270 -0.089589 1.511664
    2 7.489221 0.582049 -0.039064 -0.511882 -0.082574 0.596591
    3 10.596343 1.725745 -1.785262 -2.604856 0.997849 2.243595
    4 6.028143 0.000001 0.000000 0.969016 1.197868 -1.027696
    5 11.692552 0.000000 0.000002 0.000000 0.000000 -1.571542
    6 10.678370 1.276507 2.062664 -0.717385 -1.422145 5.532447
    7 6.028142 0.000001 0.000000 -2.726479 -0.559040 0.019277
    8 11.692555 0.000000 0.000000 0.000000 0.000000 -1.532359
    9 14.946038 3.107988 0.238289 4.295658 0.176138 -0.143050
    10 3.886546 -0.226573 -0.000003 -2.669921 -0.552769 -0.625855
    11 17.848177 0.000000 0.000000 0.000000 0.000000 1.577634
    12 16.525253 0.000000 0.000000 -0.006365 0.280159 -1.830303
    13 -3.886546 0.226573 0.000007 -2.661030 -1.137781 -0.675016
    14 17.848173 0.000000 0.000000 0.000000 0.000000 1.545408
    15 16.525257 0.000000 0.000000 -0.185193 0.162944 -0.962036
  time 13
    0 -21.238360 28.279152 28.804901 1.846487 0.190016 -0.571998
    1 0.000005 3.345128 -2.981901 1.576270 -0.089589 1.511664
    2 7.489221 0.582049 -0.039064 -0.511882 -0.082574 0.596591
    3 10.596343 1.725745 -1.785262 -2.604856 0.997849 2.243595
    4 6.028143 0.000001 0.000000 0.969016 1.197868 -1.027696
    5 11.692552 0.000000 0.000002 0.000000 0.000000 -1.571542
    6 10.678370 1.276507 2.062664 -0.717385 -1.422145 5.532447
    7 6.028142 0.000001 0.000000 -2.726479 -0.559040 0.019277
    8 11.692555 0.000000 0.000000 0.000000 0.000000 -1.532359
    9 14.946038 3.107988 0.238289 4.295658 0.176138 -0.143050
    10 3.886546 -0.226573 -0.000003 -2.686846 -0.556898 -0.531677
    11 17.848177 0.000000 0.000000 0.000000 0.000000 1.559559
    12 16.525253 0.000000 0.000000 -0.046333 0.304368 -1.748114
    13 -3.886546 0.226573 0.000007 -2.339493 -1.108014 -1.187473
    14 17.848173 0.000000 0.000000 0.000000 0.000000 1.573974
    15 16.525257 0.000000 0.000000 -0.092169 0.132524 -1.018538
  time 14
    0 -22.648034 29.858900 28.672084 1.846487 0.190016 -0.571998
    1 0.000005 3.345128 -2.981901 1.576270 -0.089589 1.511664
    2 7.489221 0.582049 -0.039064 -0.511882 -0.082574 0.596591
    3 10.596343 1.725745 -1.785262 -2.604856 0.997849 2.243595
    4 6.028143 0.000001 0.000000 0.969016 1.197868 -1.027696
    5 11.692552 0.000000 0.000002 0.000000 0.000000 -1.571542
    6 10.678370 1.276507 2.062664 -0.717385 -1.422145 5.532447
    7 6.028142 0.000001 0.000000 -2.726479 -0.559040 0.019277
    8 11.692555 0.000000 0.000000 0.000000 0.000000 -1.532359
    9 14.946038 3.107988 0.238289 4.295658 0.176138 -0.143050
    10 3.886546 -0.226573 -0.000003 -2.695538 -0.557527 -0.448736
    11 17.848177 0.000000 0.000000 0.000000 0.000000 1.534222
    12 16.525253 0.000000 0.000000 -0.087592 0.328414 -1.670889
    13 -3.886546 0.226573 0.000007 -2.135142 -1.051627 -1.510147
    14 17.848173 0.000000 0.000000 0.000000 0.000000 1.509639
    15 16.525257 0.000000 0.000000 -0.057894 0.055175 -1.039250
  time 15
    0 -24.057708 31.348802 28.472859 1.846487 0.190016 -0.571998
    1 0.000005 3.345128 -2.981901 1.576270 -0.089589 1.511664
    2 7.489221 0.582049 -0.039064 -0.511882 -0.082574 0.596591
    3 10.596343 1.725745 -1.785262 -2.604856 0.997849 2.243595
    4 6.028143 0.000001 0.000000 0.969016 1.197868 -1.027696
    5 11.692552 0.000000 0.000002 0.000000 0.000000 -1.571542
    6 10.678370 1.276507 2.062664 -0.717385 -1.422145 5.532447
    7 6.028142 0.000001 0.000000 -2.726479 -0.559040 0.019277
    8 11.692555 0.000000 0.000000 0.000000 0.000000 -1.532359
    9 14.946038 3.107988 0.238289 4.295658 0.176138 -0.143050
    10 3.886546 -0.226573 -0.000003 -2.700203 -0.558559 -0.371284
    11 17.848177 0.000000 0.000000 0.000000 0.000000 1.508886
    12 16.525253 0.000000 0.000000 -0.097136 0.324549 -1.589821
    13 -3.886546 0.226573 0.000007 -2.042808 -0.996334 -1.645417
    14 17.848173 0.000000 0.000000 0.000000 0.000000 1.435400
    15 16.525257 0.000000 0.000000 -0.062107 -0.073565 -1.154774
  time 16
    0 -25.471289 32.791827 28.277541 1.846487 0.190016 -0.571998
    1 0.000005 3.345128 -2.981901 1.576270 -0.089589 1.511664
    2 7.489221 0.582049 -0.039064 -0.511882 -0.082574 0.596591
    3 10.596343 1.725745 -1.785262 -2.604856 0.997849 2.243595
    4 6.028143 0.000001 0.000000 0.969016 1.197868 -1.027696
    5 11.692552 0.000000 0.000002 0.000000 0.000000 -1.571542
    6 10.678370 1.276507 2.062664 -0.717385 -1.422145 5.532447
    7 6.028142 0.000001 0.000000 -2.726479 -0.559040 0.019277
    8 11.692555 0.000000 0.000000 0.000000 0.000000 -1.532359
    9 14.946038 3.107988 0.238289 4.295658 0.176138 -0.143050
    10 3.886546 -0.226573 -0.000003 -2.703131 -0.561297 -0.297262
    11 17.848177 0.000000 0.000000 0.000000 0.000000 1.482623
    12 16.525253 0.000000 0.000000 -0.060210 0.280403 -1.492866
    13 -3.886546 0.226573 0.000007 -1.980949 -0.940734 -1.723356
    14 17.848173 0.000000 0.000000 0.000000 0.000000 1.339307
    15 16.525257 0.000000 0.000000 -0.030956 -0.210508 -1.281080
  time 17
    0 -26.888776 34.238758 28.148631 1.846487 0.190016 -0.571998
    1 0.000005 3.345128 -2.981901 1.576270 -0.089589 1.511664
    2 7.489221 0.582049 -0.039064 -0.511882 -0.082574 0.596591
    3 10.596343 1.725745 -1.785262 -2.604856 0.997849 2.243595
    4 6.028143 0.000001 0.000000 0.969016 1.197868 -1.027696
    5 11.692552 0.000000 0.000002 0.000000 0.000000 -1.571542
    6 10.678370 1.276507 2.062664 -0.717385 -1.422145 5.532447
    7 6.028142 0.000001 0.000000 -2.726479 -0.559040 0.019277
    8 11.692555 0.000000 0.000000 0.000000 0.000000 -1.532359
    9 14.946038 3.107988 0.238289 4.295658 0.176138 -0.143050
    10 3.886546 -0.226573 -0.000003 -2.704778 -0.565606 -0.231647
    11 17.848177 0.000000 0.000000 0.000000 0.000000 1.447013
    12 16.525253 0.000000 0.000000 0.001961 0.210116 -1.380857
    13 -3.886546 0.226573 0.000007 -1.943580 -0.897985 -1.756028
    14 17.848173 0.000000 0.000000 0.000000 0.000000 1.246651
    15 16.525257 0.000000 0.000000 0.045591 -0.330220 -1.418983
  time 18
    0 -28.306263 35.759911 28.078316 1.846487 0.190016 -0.571998
    1 0.000005 3.345128 -2.981901 1.576270 -0.089589 1.511664
    2 7.489221 0.582049 -0.039064 -0.511882 -0.082574 0.596591
    3 10.596343 1.725745 -1.785262 -2.604856 0.997849 2.243595
    4 6.028143 0.000001 0.000000 0.969016 1.197868 -1.027696
    5 11.692552 0.000000 0.000002 0.000000 0.000000 -1.571542
    6 10.678370 1.276507 2.062664 -0.717385 -1.422145 5.532447
    7 6.028142 0.000001 0.000000 -2.726479 -0.559040 0.019277
    8 11.692555 0.000000 0.000000 0.000000 0.000000 -1.532359
    9 14.946038 3.107988 0.238289 4.295658 0.176138 -0.143050
    10 3.886546 -0.226573 -0.000003 -2.708803 -0.572429 -0.175552
    11 17.848177 0.000000 0.000000 0.000000 0.000000 1.400048
    12 16.525253 0.000000 0.000000 0.071597 0.125568 -1.255780
    13 -3.886546 0.226573 0.000007 -1.926165 -0.883866 -1.753386
    14 17.848173 0.000000 0.000000 0.000000 0.000000 1.190419
    15 16.525257 0.000000 0.000000 0.155199 -0.410504 -1.567853
  time 19
    0 -29.723750 37.433412 28.078316 1.846487 0.190016 -0.571998
    1 0.000005 3.345128 -2.981901 1.576270 -0.089589 1.511664
    2 7.489221 0.582049 -0.039064 -0.511882 -0.082574 0.596591
    3 10.596343 1.725745 -1.785262 -2.604856 0.997849 2.243595
    4 6.028143 0.000001 0.000000 0.969016 1.197868 -1.027696
    5 11.692552 0.000000 0.000002 0.000000 0.000000 -1.571542
    6 10.678370 1.276507 2.062664 -0.717385 -1.422145 5.532447
    7 6.028142 0.000001 0.000000 -2.726479 -0.559040 0.019277
    8 11.692555 0.000000 0.000000 0.000000 0.000000 -1.532359
    9 14.946038 3.107988 0.238289 4.295658 0.176138 -0.143050
    10 3.886546 -0.226573 -0.000003 -2.720330 -0.582842 -0.130264
    11 17.848177 0.000000 0.000000 0.000000 0.000000 1.340337
    12 16.525253 0.000000 0.000000 0.133426 0.041529 -1.115232
    13 -3.886546 0.226573 0.000007 -1.927889 -0.905809 -1.717631
    14 17.848173 0.000000 0.000000 0.000000 0.000000 1.185017
    15 16.525257 0.000000 0.000000 0.252596 -0.439316 -1.694678
  time 20
    0 -31.145143 39.317856 28.179882 1.846487 0.190016 -0.571998
    1 0.000005 3.345128 -2.981901 1.576270 -0.089589 1.511664
    2 7.489221 0.582049 -0.039064 -0.511882 -0.082574 0.596591
    3 10.596343 1.725745 -1.785262 -2.604856 0.997849 2.243595
    4 6.028143 0.000001 0.000000 0.969016 1.197868 -1.027696
    5 11.692552 0.000000 0.000002 0.000000 0.000000 -1.571542
    6 10.678370 1.276507 2.062664 -0.717385 -1.422145 5.532447
    7 6.028142 0.000001 0.000000 -2.726479 -0.559040 0.019277
    8 11.692555 0.000000 0.000000 0.000000 0.000000 -1.532359
    9 14.946038 3.107988 0.238289 4.295658 0.176138 -0.143050
    10 3.886546 -0.226573 -0.000003 -2.747502 -0.598507 -0.100330
    11 17.848177 0.000000 0.000000 0.000000 0.000000 1.265023
    12 16.525253 0.000000 0.000000 0.172593 -0.017508 -0.950437
    13 -3.886546 0.226573 0.000007 -1.952015 -0.959966 -1.644360
    14 17.848173 0.000000 0.000000 0.000000 0.000000 1.220540
    15 16.525257 0.000000 0.000000 0.262040 -0.420638 -1.729469
  time 21
    0 -32.570443 41.268709 28.355668 1.846487 0.190016 -0.571998
    1 0.000005 3.345128 -2.981901 1.576270 -0.089589 1.511664
    2 7.489221 0.582049 -0.039064 -0.511882 -0.082574 0.596591
    3 10.596343 1.725745 -1.785262 -2.604856 0.997849 2.243595
    4 6.028143 0.000001 0.000000 0.969016 1.197868 -1.027696
    5 11.692552 0.000000 0.000002 0.000000 0.000000 -1.571542
    6 10.678370 1.276507 2.062664 -0.717385 -1.422145 5.532447
    7 6.028142 0.000001 0.000000 -2.726479 -0.559040 0.019277
    8 11.692555 0.000000 0.000000 0.000000 0.000000 -1.532359
    9 14.946038 3.107988 0.238289 4.295658 0.176138 -0.143050
    10 3.886546 -0.226573 -0.000003 -2.791507 -0.619155 -0.075799
    11 17.848177 0.000000 0.000000 0.000000 0.000000 1.301329
    12 16.525253 0.000000 0.000000 0.158835 -0.008292 -0.844770
    13 -3.886546 0.226573 0.000007 -1.994464 -1.021554 -1.539473
    14 17.848173 0.000000 0.000000 0.000000 0.000000 1.266541
    15 16.525257 0.000000 0.000000 0.194383 -0.387563 -1.683007
  time 22
    0 -33.995743 43.102371 28.586144 1.846487 0.190016 -0.571998
    1 0.000005 3.345128 -2.981901 1.576270 -0.089589 1.511664
    2 7.489221 0.582049 -0.039064 -0.511882 -0.082574 0.596591
    3 10.596343 1.725745 -1.785262 -2.604856 0.997849 2.243595
    4 6.028143 0.000001 0.000000 0.969016 1.197868 -1.027696
    5 11.692552 0.000000 0.000002 0.000000 0.000000 -1.571542
    6 10.678370 1.276507 2.062664 -0.717385 -1.422145 5.532447
    7 6.028142 0.000001 0.000000 -2.726479 -0.559040 0.019277
    8 11.692555 0.000000 0.000000 0.000000 0.000000 -1.532359
    9 14.946038 3.107988 0.238289 4.295658 0.176138 -0.143050
    10 3.886546 -0.226573 -0.000003 -2.826364 -0.633563 -0.063362
    11 17.848177 0.000000 0.000000 0.000000 0.000000 1.475130
    12 16.525253 0.000000 0.000000 0.110110 0.082135 -0.833560
    13 -3.886546 0.226573 0.000007 -2.043624 -1.068893 -1.417942
    14 17.848173 0.000000 0.000000 0.000000 0.000000 1.300345
    15 16.525257 0.000000 0.000000 0.122263 -0.368241 -1.625467
  time 23
    0 -35.421043 44.818842 28.785369 1.846487 0.190016 -0.571998
    1 0.000005 3.345128 -2.981901 1.576270 -0.089589 1.511664
    2 7.489221 0.582049 -0.039064 -0.511882 -0.082574 0.596591
    3 10.596343 1.725745 -1.785262 -2.604856 0.997849 2.243595
    4 6.028143 0.000001 0.000000 0.969016 1.197868 -1.027696
    5 11.692552 0.000000 0.000002 0.000000 0.000000 -1.571542
    6 10.678370 1.276507 2.062664 -0.717385 -1.422145 5.532447
    7 6.028142 0.000001 0.000000 -2.726479 -0.559040 0.019277
    8 11.692555 0.000000 0.000000 0.000000 0.000000 -1.532359
    9 14.946038 3.107988 0.238289 4.295658 0.176138 -0.143050
    10 3.886546 -0.226573 -0.000003 -2.821973 -0.630645 -0.111394
    11 17.848177 0.000000 0.000000 0.000000 0.000000 1.680293
    12 16.525253 0.000000 0.000000 0.083396 0.230521 -0.887594
    13 -3.886546 0.226573 0.000007 -2.097319 -1.103774 -1.285138
    14 17.848173 0.000000 0.000000 0.000000 0.000000 1.326210
    15 16.525257 0.000000 0.000000 0.047251 -0.354951 -1.561184
  time 24
    0 -36.850249 46.422028 28.875215 1.846487 0.190016 -0.571998
    1 0.000005 3.345128 -2.981901 1.576270 -0.089589 1.511664
    2 7.489221 0.582049 -0.039064 -0.511882 -0.082574 0.596591
    3 10.596343 1.725745 -1.785262 -2.604856 0.997849 2.243595
    4 6.028143 0.000001 0.000000 0.969016 1.197868 -1.027696
    5 11.692552 0.000000 0.000002 0.000000 0.000000 -1.571542
    6 10.678370 1.276507 2.062664 -0.717385 -1.422145 5.532447
    7 6.028142 0.000001 0.000000 -2.726479 -0.559040 0.019277
    8 11.692555 0.000000 0.000000 0.000000 0.000000 -1.532359
    9 14.946038 3.107988 0.238289 4.295658 0.176138 -0.143050
    10 3.886546 -0.226573 -0.000003 -2.759395 -0.598059 -0.258751
    11 17.848177 0.000000 0.000000 0.000000 0.000000 1.847683
    12 16.525253 0.000000 0.000000 0.106519 0.387614 -0.997521
    13 -3.886546 0.226573 0.000007 -2.153736 -1.128427 -1.146522
    14 17.848173 0.000000 0.000000 0.000000 0.000000 1.347655
    15 16.525257 0.000000 0.000000 -0.028100 -0.340816 -1.495826
end
