// Created by Crowbar 0.74
version 1
nodes
  0 "ValveBiped.Bip01" -1
  1 "ValveBiped.Bip01_Spine" 0
  2 "ValveBiped.Bip01_Spine2" 1
  3 "ValveBiped.Bip01_R_Clavicle" 2
  4 "ValveBiped.Bip01_R_UpperArm" 3
  5 "ValveBiped.Bip01_R_Forearm" 4
  6 "ValveBiped.Bip01_L_Clavicle" 2
  7 "ValveBiped.Bip01_L_UpperArm" 6
  8 "ValveBiped.Bip01_L_Forearm" 7
  9 "ValveBiped.Bip01_Head1" 2
  10 "ValveBiped.Bip01_L_Thigh" 0
  11 "ValveBiped.Bip01_L_Calf" 10
  12 "ValveBiped.Bip01_L_Foot" 11
  13 "ValveBiped.Bip01_R_Thigh" 0
  14 "ValveBiped.Bip01_R_Calf" 13
  15 "ValveBiped.Bip01_R_Foot" 14
end
skeleton
  time 0
    0 -3.451673 6.316604 28.785369 1.846487 0.190016 -0.571998
    1 0.000005 3.345128 -2.981901 1.576270 -0.089589 1.511664
    2 7.489221 0.582049 -0.039064 -0.511882 -0.082574 0.596591
    3 10.596343 1.725745 -1.785262 -2.604856 0.997849 2.243595
    4 6.028143 0.000001 0.000000 0.969016 1.197868 -1.027696
    5 11.692552 0.000000 0.000002 0.000000 0.000000 -1.571542
    6 10.678370 1.276507 2.062664 -0.717385 -1.422145 5.532447
    7 6.028142 0.000001 0.000000 -2.726479 -0.559040 0.019277
    8 11.692555 0.000000 0.000000 0.000000 0.000000 -1.532359
    9 14.946038 3.107988 0.238289 4.295658 0.176138 -0.143050
    10 3.886546 -0.226573 -0.000003 -3.079692 -0.938919 -0.000662
    11 17.848177 0.000000 0.000000 0.000000 0.000000 1.621123
    12 16.525253 0.000000 0.000000 -0.042207 0.088177 -0.871451
    13 -3.886546 0.226573 0.000007 -1.887889 -1.010758 -1.240489
    14 17.848173 0.000000 0.000000 0.000000 0.000000 1.455290
    15 16.525257 0.000000 0.000000 -0.067248 -0.124956 -1.707868
  time 1
    0 -3.334482 8.327364 28.875215 1.846487 0.190016 -0.571998
    1 0.000005 3.345128 -2.981901 1.576270 -0.089589 1.511664
    2 7.489221 0.582049 -0.039064 -0.511882 -0.082574 0.596591
    3 10.596343 1.725745 -1.785262 -2.604856 0.997849 2.243595
    4 6.028143 0.000001 0.000000 0.969016 1.197868 -1.027696
    5 11.692552 0.000000 0.000002 0.000000 0.000000 -1.571542
    6 10.678370 1.276507 2.062664 -0.717385 -1.422145 5.532447
    7 6.028142 0.000001 0.000000 -2.726479 -0.559040 0.019277
    8 11.692555 0.000000 0.000000 0.000000 0.000000 -1.532359
    9 14.946038 3.107988 0.238289 4.295658 0.176138 -0.143050
    10 3.886546 -0.226573 -0.000003 -3.007051 -0.931154 -0.079401
    11 17.848177 0.000000 0.000000 0.000000 0.000000 1.821960
    12 16.525253 0.000000 0.000000 -0.044285 0.118814 -0.896755
    13 -3.886546 0.226573 0.000007 -1.906574 -1.069461 -1.180075
    14 17.848173 0.000000 0.000000 0.000000 0.000000 1.438183
    15 16.525257 0.000000 0.000000 -0.098203 -0.131873 -1.610350
  time 2
    0 -3.197759 10.338125 28.828339 1.846487 0.190016 -0.571998
    1 0.000005 3.345128 -2.981901 1.576270 -0.089589 1.511664
    2 7.489221 0.582049 -0.039064 -0.511882 -0.082574 0.596591
    3 10.596343 1.725745 -1.785262 -2.604856 0.997849 2.243595
    4 6.028143 0.000001 0.000000 0.969016 1.197868 -1.027696
    5 11.692552 0.000000 0.000002 0.000000 0.000000 -1.571542
    6 10.678370 1.276507 2.062664 -0.717385 -1.422145 5.532447
    7 6.028142 0.000001 0.000000 -2.726479 -0.559040 0.019277
    8 11.692555 0.000000 0.000000 0.000000 0.000000 -1.532359
    9 14.946038 3.107988 0.238289 4.295658 0.176138 -0.143050
    10 3.886546 -0.226573 -0.000003 -2.851797 -0.903729 -0.266470
    11 17.848177 0.000000 0.000000 0.000000 0.000000 1.962469
    12 16.525253 0.000000 0.000000 -0.037473 0.144976 -0.981859
    13 -3.886546 0.226573 0.000007 -1.940133 -1.124842 -1.107157
    14 17.848173 0.000000 0.000000 0.000000 0.000000 1.418620
    15 16.525257 0.000000 0.000000 -0.127158 -0.133602 -1.512240
  time 3
    0 -3.061036 12.348885 28.644740 1.846487 0.190016 -0.571998
    1 0.000005 3.345128 -2.981901 1.576270 -0.089589 1.511664
    2 7.489221 0.582049 -0.039064 -0.511882 -0.082574 0.596591
    3 10.596343 1.725745 -1.785262 -2.604856 0.997849 2.243595
    4 6.028143 0.000001 0.000000 0.969016 1.197868 -1.027696
    5 11.692552 0.000000 0.000002 0.000000 0.000000 -1.571542
    6 10.678370 1.276507 2.062664 -0.717385 -1.422145 5.532447
    7 6.028142 0.000001 0.000000 -2.726479 -0.559040 0.019277
    8 11.692555 0.000000 0.000000 0.000000 0.000000 -1.532359
    9 14.946038 3.107988 0.238289 4.295658 0.176138 -0.143050
    10 3.886546 -0.226573 -0.000003 -2.732315 -0.868180 -0.420688
    11 17.848177 0.000000 0.000000 0.000000 0.000000 2.017854
    12 16.525253 0.000000 0.000000 -0.032382 0.152747 -1.071767
    13 -3.886546 0.226573 0.000007 -1.995552 -1.175459 -1.015392
    14 17.848173 0.000000 0.000000 0.000000 0.000000 1.396848
    15 16.525257 0.000000 0.000000 -0.154774 -0.124514 -1.420502
  time 4
    0 -2.900875 14.359646 28.351762 1.846487 0.190016 -0.571998
    1 0.000005 3.345128 -2.981901 1.576270 -0.089589 1.511664
    2 7.489221 0.582049 -0.039064 -0.511882 -0.082574 0.596591
    3 10.596343 1.725745 -1.785262 -2.604856 0.997849 2.243595
    4 6.028143 0.000001 0.000000 0.969016 1.197868 -1.027696
    5 11.692552 0.000000 0.000002 0.000000 0.000000 -1.571542
    6 10.678370 1.276507 2.062664 -0.717385 -1.422145 5.532447
    7 6.028142 0.000001 0.000000 -2.726479 -0.559040 0.019277
    8 11.692555 0.000000 0.000000 0.000000 0.000000 -1.532359
    9 14.946038 3.107988 0.238289 4.295658 0.176138 -0.143050
    10 3.886546 -0.226573 -0.000003 -2.654277 -0.838690 -0.536481
    11 17.848177 0.000000 0.000000 0.000000 0.000000 2.010516
    12 16.525253 0.000000 0.000000 -0.037191 0.133930 -1.211226
    13 -3.886546 0.226573 0.000007 -2.079360 -1.219039 -0.900113
    14 17.848173 0.000000 0.000000 0.000000 0.000000 1.369510
    15 16.525257 0.000000 0.000000 -0.178338 -0.106378 -1.332729
  time 5
    0 -2.689931 16.370406 28.109567 1.846487 0.190016 -0.571998
    1 0.000005 3.345128 -2.981901 1.576270 -0.089589 1.511664
    2 7.489221 0.582049 -0.039064 -0.511882 -0.082574 0.596591
    3 10.596343 1.725745 -1.785262 -2.604856 0.997849 2.243595
    4 6.028143 0.000001 0.000000 0.969016 1.197868 -1.027696
    5 11.692552 0.000000 0.000002 0.000000 0.000000 -1.571542
    6 10.678370 1.276507 2.062664 -0.717385 -1.422145 5.532447
    7 6.028142 0.000001 0.000000 -2.726479 -0.559040 0.019277
    8 11.692555 0.000000 0.000000 0.000000 0.000000 -1.532359
    9 14.946038 3.107988 0.238289 4.295658 0.176138 -0.143050
    10 3.886546 -0.226573 -0.000003 -2.527842 -0.770419 -0.731441
    11 17.848177 0.000000 0.000000 0.000000 0.000000 1.943930
    12 16.525253 0.000000 0.000000 -0.041747 0.096803 -1.454238
    13 -3.886546 0.226573 0.000007 -2.180946 -1.248062 -0.774002
    14 17.848173 0.000000 0.000000 0.000000 0.000000 1.322936
    15 16.525257 0.000000 0.000000 -0.194600 -0.085367 -1.237842
  time 6
    0 -2.455549 18.381167 27.984563 1.846487 0.190016 -0.571998
    1 0.000005 3.345128 -2.981901 1.576270 -0.089589 1.511664
    2 7.489221 0.582049 -0.039064 -0.511882 -0.082574 0.596591
    3 10.596343 1.725745 -1.785262 -2.604856 0.997849 2.243595
    4 6.028143 0.000001 0.000000 0.969016 1.197868 -1.027696
    5 11.692552 0.000000 0.000002 0.000000 0.000000 -1.571542
    6 10.678370 1.276507 2.062664 -0.717385 -1.422145 5.532447
    7 6.028142 0.000001 0.000000 -2.726479 -0.559040 0.019277
    8 11.692555 0.000000 0.000000 0.000000 0.000000 -1.532359
    9 14.946038 3.107988 0.238289 4.295658 0.176138 -0.143050
    10 3.886546 -0.226573 -0.000003 -2.423547 -0.687740 -0.908474
    11 17.848177 0.000000 0.000000 0.000000 0.000000 1.828217
    12 16.525253 0.000000 0.000000 -0.033866 0.055424 -1.700933
    13 -3.886546 0.226573 0.000007 -2.277362 -1.258728 -0.660485
    14 17.848173 0.000000 0.000000 0.000000 0.000000 1.250334
    15 16.525257 0.000000 0.000000 -0.203812 -0.062868 -1.134507
  time 7
    0 -2.217261 20.391927 27.941593 1.846487 0.190016 -0.571998
    1 0.000005 3.345128 -2.981901 1.576270 -0.089589 1.511664
    2 7.489221 0.582049 -0.039064 -0.511882 -0.082574 0.596591
    3 10.596343 1.725745 -1.785262 -2.604856 0.997849 2.243595
    4 6.028143 0.000001 0.000000 0.969016 1.197868 -1.027696
    5 11.692552 0.000000 0.000002 0.000000 0.000000 -1.571542
    6 10.678370 1.276507 2.062664 -0.717385 -1.422145 5.532447
    7 6.028142 0.000001 0.000000 -2.726479 -0.559040 0.019277
    8 11.692555 0.000000 0.000000 0.000000 0.000000 -1.532359
    9 14.946038 3.107988 0.238289 4.295658 0.176138 -0.143050
    10 3.886546 -0.226573 -0.000003 -2.351638 -0.609370 -1.044766
    11 17.848177 0.000000 0.000000 0.000000 0.000000 1.691185
    12 16.525253 0.000000 0.000000 -0.012421 0.023383 -1.914862
    13 -3.886546 0.226573 0.000007 -2.350558 -1.253483 -0.577439
    14 17.848173 0.000000 0.000000 0.000000 0.000000 1.153258
    15 16.525257 0.000000 0.000000 -0.206864 -0.039827 -1.023837
  time 8
    0 -1.998504 22.402688 27.949406 1.846487 0.190016 -0.571998
    1 0.000005 3.345128 -2.981901 1.576270 -0.089589 1.511664
    2 7.489221 0.582049 -0.039064 -0.511882 -0.082574 0.596591
    3 10.596343 1.725745 -1.785262 -2.604856 0.997849 2.243595
    4 6.028143 0.000001 0.000000 0.969016 1.197868 -1.027696
    5 11.692552 0.000000 0.000002 0.000000 0.000000 -1.571542
    6 10.678370 1.276507 2.062664 -0.717385 -1.422145 5.532447
    7 6.028142 0.000001 0.000000 -2.726479 -0.559040 0.019277
    8 11.692555 0.000000 0.000000 0.000000 0.000000 -1.532359
    9 14.946038 3.107988 0.238289 4.295658 0.176138 -0.143050
    10 3.886546 -0.226573 -0.000003 -2.311749 -0.556225 -1.129852
    11 17.848177 0.000000 0.000000 0.000000 0.000000 1.573077
    12 16.525253 0.000000 0.000000 0.013463 0.006803 -2.069695
    13 -3.886546 0.226573 0.000007 -2.389379 -1.234556 -0.535255
    14 17.848173 0.000000 0.000000 0.000000 0.000000 1.031218
    15 16.525257 0.000000 0.000000 -0.205097 -0.016886 -0.905274
  time 9
    0 -1.822718 24.413448 28.027533 1.846487 0.190016 -0.571998
    1 0.000005 3.345128 -2.981901 1.576270 -0.089589 1.511664
    2 7.489221 0.582049 -0.039064 -0.511882 -0.082574 0.596591
    3 10.596343 1.725745 -1.785262 -2.604856 0.997849 2.243595
    4 6.028143 0.000001 0.000000 0.969016 1.197868 -1.027696
    5 11.692552 0.000000 0.000002 0.000000 0.000000 -1.571542
    6 10.678370 1.276507 2.062664 -0.717385 -1.422145 5.532447
    7 6.028142 0.000001 0.000000 -2.726479 -0.559040 0.019277
    8 11.692555 0.000000 0.000000 0.000000 0.000000 -1.532359
    9 14.946038 3.107988 0.238289 4.295658 0.176138 -0.143050
    10 3.886546 -0.226573 -0.000003 -2.315683 -0.570499 -1.130281
    11 17.848177 0.000000 0.000000 0.000000 0.000000 1.541252
    12 16.525253 0.000000 0.000000 0.029744 0.000984 -2.116395
    13 -3.886546 0.226573 0.000007 -2.383211 -1.200287 -0.544326
    14 17.848173 0.000000 0.000000 0.000000 0.000000 0.874555
    15 16.525257 0.000000 0.000000 -0.200134 0.005513 -0.774448
  time 10
    0 -1.713339 26.424209 28.207226 1.846487 0.190016 -0.571998
    1 0.000005 3.345128 -2.981901 1.576270 -0.089589 1.511664
    2 7.489221 0.582049 -0.039064 -0.511882 -0.082574 0.596591
    3 10.596343 1.725745 -1.785262 -2.604856 0.997849 2.243595
    4 6.028143 0.000001 0.000000 0.969016 1.197868 -1.027696
    5 11.692552 0.000000 0.000002 0.000000 0.000000 -1.571542
    6 10.678370 1.276507 2.062664 -0.717385 -1.422145 5.532447
    7 6.028142 0.000001 0.000000 -2.726479 -0.559040 0.019277
    8 11.692555 0.000000 0.000000 0.000000 0.000000 -1.532359
    9 14.946038 3.107988 0.238289 4.295658 0.176138 -0.143050
    10 3.886546 -0.226573 -0.000003 -2.362982 -0.644650 -1.051885
    11 17.848177 0.000000 0.000000 0.000000 0.000000 1.579411
    12 16.525253 0.000000 0.000000 0.035399 -0.000969 -2.061784
    13 -3.886546 0.226573 0.000007 -2.396544 -1.177033 -0.548553
    14 17.848173 0.000000 0.000000 0.000000 0.000000 0.787137
    15 16.525257 0.000000 0.000000 -0.188156 0.025961 -0.638768
  time 11
    0 -1.693808 28.434969 28.480672 1.846487 0.190016 -0.571998
    1 0.000005 3.345128 -2.981901 1.576270 -0.089589 1.511664
    2 7.489221 0.582049 -0.039064 -0.511882 -0.082574 0.596591
    3 10.596343 1.725745 -1.785262 -2.604856 0.997849 2.243595
    4 6.028143 0.000001 0.000000 0.969016 1.197868 -1.027696
    5 11.692552 0.000000 0.000002 0.000000 0.000000 -1.571542
    6 10.678370 1.276507 2.062664 -0.717385 -1.422145 5.532447
    7 6.028142 0.000001 0.000000 -2.726479 -0.559040 0.019277
    8 11.692555 0.000000 0.000000 0.000000 0.000000 -1.532359
    9 14.946038 3.107988 0.238289 4.295658 0.176138 -0.143050
    10 3.886546 -0.226573 -0.000003 -2.416868 -0.708387 -0.967485
    11 17.848177 0.000000 0.000000 0.000000 0.000000 1.596559
    12 16.525253 0.000000 0.000000 0.038931 0.000801 -1.988595
    13 -3.886546 0.226573 0.000007 -2.542120 -1.206537 -0.441641
    14 17.848173 0.000000 0.000000 0.000000 0.000000 0.950431
    15 16.525257 0.000000 0.000000 -0.158969 0.029680 -0.598457
  time 12
    0 -1.756310 30.445730 28.722867 1.846487 0.190016 -0.571998
    1 0.000005 3.345128 -2.981901 1.576270 -0.089589 1.511664
    2 7.489221 0.582049 -0.039064 -0.511882 -0.082574 0.596591
    3 10.596343 1.725745 -1.785262 -2.604856 0.997849 2.243595
    4 6.028143 0.000001 0.000000 0.969016 1.197868 -1.027696
    5 11.692552 0.000000 0.000002 0.000000 0.000000 -1.571542
    6 10.678370 1.276507 2.062664 -0.717385 -1.422145 5.532447
    7 6.028142 0.000001 0.000000 -2.726479 -0.559040 0.019277
    8 11.692555 0.000000 0.000000 0.000000 0.000000 -1.532359
    9 14.946038 3.107988 0.238289 4.295658 0.176138 -0.143050
    10 3.886546 -0.226573 -0.000003 -2.477432 -0.763237 -0.875795
    11 17.848177 0.000000 0.000000 0.000000 0.000000 1.602584
    12 16.525253 0.000000 0.000000 0.040118 0.005297 -1.906278
    13 -3.886546 0.226573 0.000007 -2.729238 -1.241637 -0.327331
    14 17.848173 0.000000 0.000000 0.000000 0.000000 1.300100
    15 16.525257 0.000000 0.000000 -0.120213 -0.004661 -0.698382
  time 13
    0 -1.889126 32.456490 28.824433 1.846487 0.190016 -0.571998
    1 0.000005 3.345128 -2.981901 1.576270 -0.089589 1.511664
    2 7.489221 0.582049 -0.039064 -0.511882 -0.082574 0.596591
    3 10.596343 1.725745 -1.785262 -2.604856 0.997849 2.243595
    4 6.028143 0.000001 0.000000 0.969016 1.197868 -1.027696
    5 11.692552 0.000000 0.000002 0.000000 0.000000 -1.571542
    6 10.678370 1.276507 2.062664 -0.717385 -1.422145 5.532447
    7 6.028142 0.000001 0.000000 -2.726479 -0.559040 0.019277
    8 11.692555 0.000000 0.000000 0.000000 0.000000 -1.532359
    9 14.946038 3.107988 0.238289 4.295658 0.176138 -0.143050
    10 3.886546 -0.226573 -0.000003 -2.546231 -0.811265 -0.774756
    11 17.848177 0.000000 0.000000 0.000000 0.000000 1.606060
    12 16.525253 0.000000 0.000000 0.039213 0.011421 -1.821591
    13 -3.886546 0.226573 0.000007 -2.602981 -1.229660 -0.566959
    14 17.848173 0.000000 0.000000 0.000000 0.000000 1.632171
    15 16.525257 0.000000 0.000000 -0.100559 -0.078350 -0.899087
  time 14
    0 -2.088351 34.467251 28.804901 1.846487 0.190016 -0.571998
    1 0.000005 3.345128 -2.981901 1.576270 -0.089589 1.511664
    2 7.489221 0.582049 -0.039064 -0.511882 -0.082574 0.596591
    3 10.596343 1.725745 -1.785262 -2.604856 0.997849 2.243595
    4 6.028143 0.000001 0.000000 0.969016 1.197868 -1.027696
    5 11.692552 0.000000 0.000002 0.000000 0.000000 -1.571542
    6 10.678370 1.276507 2.062664 -0.717385 -1.422145 5.532447
    7 6.028142 0.000001 0.000000 -2.726479 -0.559040 0.019277
    8 11.692555 0.000000 0.000000 0.000000 0.000000 -1.532359
    9 14.946038 3.107988 0.238289 4.295658 0.176138 -0.143050
    10 3.886546 -0.226573 -0.000003 -2.622256 -0.851662 -0.665053
    11 17.848177 0.000000 0.000000 0.000000 0.000000 1.605597
    12 16.525253 0.000000 0.000000 0.035710 0.018460 -1.734725
    13 -3.886546 0.226573 0.000007 -2.277362 -1.133891 -1.003415
    14 17.848173 0.000000 0.000000 0.000000 0.000000 1.798247
    15 16.525257 0.000000 0.000000 -0.121802 -0.154372 -1.074967
  time 15
    0 -2.342265 36.478011 28.672084 1.846487 0.190016 -0.571998
    1 0.000005 3.345128 -2.981901 1.576270 -0.089589 1.511664
    2 7.489221 0.582049 -0.039064 -0.511882 -0.082574 0.596591
    3 10.596343 1.725745 -1.785262 -2.604856 0.997849 2.243595
    4 6.028143 0.000001 0.000000 0.969016 1.197868 -1.027696
    5 11.692552 0.000000 0.000002 0.000000 0.000000 -1.571542
    6 10.678370 1.276507 2.062664 -0.717385 -1.422145 5.532447
    7 6.028142 0.000001 0.000000 -2.726479 -0.559040 0.019277
    8 11.692555 0.000000 0.000000 0.000000 0.000000 -1.532359
    9 14.946038 3.107988 0.238289 4.295658 0.176138 -0.143050
    10 3.886546 -0.226573 -0.000003 -2.704046 -0.884114 -0.548231
    11 17.848177 0.000000 0.000000 0.000000 0.000000 1.600422
    12 16.525253 0.000000 0.000000 0.028898 0.025193 -1.646578
    13 -3.886546 0.226573 0.000007 -2.114915 -1.029248 -1.225694
    14 17.848173 0.000000 0.000000 0.000000 0.000000 1.836799
    15 16.525257 0.000000 0.000000 -0.153042 -0.221305 -1.198420
  time 16
    0 -2.639149 38.488771 28.472859 1.846487 0.190016 -0.571998
    1 0.000005 3.345128 -2.981901 1.576270 -0.089589 1.511664
    2 7.489221 0.582049 -0.039064 -0.511882 -0.082574 0.596591
    3 10.596343 1.725745 -1.785262 -2.604856 0.997849 2.243595
    4 6.028143 0.000001 0.000000 0.969016 1.197868 -1.027696
    5 11.692552 0.000000 0.000002 0.000000 0.000000 -1.571542
    6 10.678370 1.276507 2.062664 -0.717385 -1.422145 5.532447
    7 6.028142 0.000001 0.000000 -2.726479 -0.559040 0.019277
    8 11.692555 0.000000 0.000000 0.000000 0.000000 -1.532359
    9 14.946038 3.107988 0.238289 4.295658 0.176138 -0.143050
    10 3.886546 -0.226573 -0.000003 -2.787299 -0.908173 -0.429609
    11 17.848177 0.000000 0.000000 0.000000 0.000000 1.586672
    12 16.525253 0.000000 0.000000 0.019474 0.031520 -1.555485
    13 -3.886546 0.226573 0.000007 -2.033284 -0.943094 -1.325649
    14 17.848173 0.000000 0.000000 0.000000 0.000000 1.793663
    15 16.525257 0.000000 0.000000 -0.130282 -0.284237 -1.366038
  time 17
    0 -2.943846 40.499532 28.277541 1.846487 0.190016 -0.571998
    1 0.000005 3.345128 -2.981901 1.576270 -0.089589 1.511664
    2 7.489221 0.582049 -0.039064 -0.511882 -0.082574 0.596591
    3 10.596343 1.725745 -1.785262 -2.604856 0.997849 2.243595
    4 6.028143 0.000001 0.000000 0.969016 1.197868 -1.027696
    5 11.692552 0.000000 0.000002 0.000000 0.000000 -1.571542
    6 10.678370 1.276507 2.062664 -0.717385 -1.422145 5.532447
    7 6.028142 0.000001 0.000000 -2.726479 -0.559040 0.019277
    8 11.692555 0.000000 0.000000 0.000000 0.000000 -1.532359
    9 14.946038 3.107988 0.238289 4.295658 0.176138 -0.143050
    10 3.886546 -0.226573 -0.000003 -2.864971 -0.923883 -0.318620
    11 17.848177 0.000000 0.000000 0.000000 0.000000 1.558477
    12 16.525253 0.000000 0.000000 0.009426 0.038254 -1.458530
    13 -3.886546 0.226573 0.000007 -1.971879 -0.857596 -1.388616
    14 17.848173 0.000000 0.000000 0.000000 0.000000 1.696669
    15 16.525257 0.000000 0.000000 -0.069997 -0.305510 -1.523800
  time 18
    0 -3.225105 42.510292 28.148631 1.846487 0.190016 -0.571998
    1 0.000005 3.345128 -2.981901 1.576270 -0.089589 1.511664
    2 7.489221 0.582049 -0.039064 -0.511882 -0.082574 0.596591
    3 10.596343 1.725745 -1.785262 -2.604856 0.997849 2.243595
    4 6.028143 0.000001 0.000000 0.969016 1.197868 -1.027696
    5 11.692552 0.000000 0.000002 0.000000 0.000000 -1.571542
    6 10.678370 1.276507 2.062664 -0.717385 -1.422145 5.532447
    7 6.028142 0.000001 0.000000 -2.726479 -0.559040 0.019277
    8 11.692555 0.000000 0.000000 0.000000 0.000000 -1.532359
    9 14.946038 3.107988 0.238289 4.295658 0.176138 -0.143050
    10 3.886546 -0.226573 -0.000003 -2.929653 -0.932680 -0.225300
    11 17.848177 0.000000 0.000000 0.000000 0.000000 1.511049
    12 16.525253 0.000000 0.000000 0.000135 0.044479 -1.355137
    13 -3.886546 0.226573 0.000007 -1.927526 -0.788796 -1.422434
    14 17.848173 0.000000 0.000000 0.000000 0.000000 1.580768
    15 16.525257 0.000000 0.000000 -0.001126 -0.287535 -1.663407
  time 19
    0 -3.447768 44.521053 28.078316 1.846487 0.190016 -0.571998
    1 0.000005 3.345128 -2.981901 1.576270 -0.089589 1.511664
    2 7.489221 0.582049 -0.039064 -0.511882 -0.082574 0.596591
    3 10.596343 1.725745 -1.785262 -2.604856 0.997849 2.243595
    4 6.028143 0.000001 0.000000 0.969016 1.197868 -1.027696
    5 11.692552 0.000000 0.000002 0.000000 0.000000 -1.571542
    6 10.678370 1.276507 2.062664 -0.717385 -1.422145 5.532447
    7 6.028142 0.000001 0.000000 -2.726479 -0.559040 0.019277
    8 11.692555 0.000000 0.000000 0.000000 0.000000 -1.532359
    9 14.946038 3.107988 0.238289 4.295658 0.176138 -0.143050
    10 3.886546 -0.226573 -0.000003 -2.978964 -0.937124 -0.154194
    11 17.848177 0.000000 0.000000 0.000000 0.000000 1.444541
    12 16.525253 0.000000 0.000000 -0.007078 0.049300 -1.246619
    13 -3.886546 0.226573 0.000007 -1.896415 -0.752604 -1.433794
    14 17.848173 0.000000 0.000000 0.000000 0.000000 1.490568
    15 16.525257 0.000000 0.000000 0.051678 -0.241673 -1.788713
  time 20
    0 -3.588398 46.531813 28.078316 1.846487 0.190016 -0.571998
    1 0.000005 3.345128 -2.981901 1.576270 -0.089589 1.511664
    2 7.489221 0.582049 -0.039064 -0.511882 -0.082574 0.596591
    3 10.596343 1.725745 -1.785262 -2.604856 0.997849 2.243595
    4 6.028143 0.000001 0.000000 0.969016 1.197868 -1.027696
    5 11.692552 0.000000 0.000002 0.000000 0.000000 -1.571542
    6 10.678370 1.276507 2.062664 -0.717385 -1.422145 5.532447
    7 6.028142 0.000001 0.000000 -2.726479 -0.559040 0.019277
    8 11.692555 0.000000 0.000000 0.000000 0.000000 -1.532359
    9 14.946038 3.107988 0.238289 4.295658 0.176138 -0.143050
    10 3.886546 -0.226573 -0.000003 -3.011442 -0.939278 -0.108221
    11 17.848177 0.000000 0.000000 0.000000 0.000000 1.358335
    12 16.525253 0.000000 0.000000 -0.011174 0.052047 -1.133425
    13 -3.886546 0.226573 0.000007 -1.877096 -0.759204 -1.424283
    14 17.848173 0.000000 0.000000 0.000000 0.000000 1.449478
    15 16.525257 0.000000 0.000000 0.071654 -0.185395 -1.887046
  time 21
    0 -3.635274 48.542574 28.179882 1.846487 0.190016 -0.571998
    1 0.000005 3.345128 -2.981901 1.576270 -0.089589 1.511664
    2 7.489221 0.582049 -0.039064 -0.511882 -0.082574 0.596591
    3 10.596343 1.725745 -1.785262 -2.604856 0.997849 2.243595
    4 6.028143 0.000001 0.000000 0.969016 1.197868 -1.027696
    5 11.692552 0.000000 0.000002 0.000000 0.000000 -1.571542
    6 10.678370 1.276507 2.062664 -0.717385 -1.422145 5.532447
    7 6.028142 0.000001 0.000000 -2.726479 -0.559040 0.019277
    8 11.692555 0.000000 0.000000 0.000000 0.000000 -1.532359
    9 14.946038 3.107988 0.238289 4.295658 0.176138 -0.143050
    10 3.886546 -0.226573 -0.000003 -3.022695 -0.940131 -0.093468
    11 17.848177 0.000000 0.000000 0.000000 0.000000 1.247875
    12 16.525253 0.000000 0.000000 -0.011782 0.052454 -1.014369
    13 -3.886546 0.226573 0.000007 -1.870837 -0.810782 -1.390994
    14 17.848173 0.000000 0.000000 0.000000 0.000000 1.454226
    15 16.525257 0.000000 0.000000 0.048947 -0.140981 -1.915389
  time 22
    0 -3.615742 50.553334 28.355668 1.846487 0.190016 -0.571998
    1 0.000005 3.345128 -2.981901 1.576270 -0.089589 1.511664
    2 7.489221 0.582049 -0.039064 -0.511882 -0.082574 0.596591
    3 10.596343 1.725745 -1.785262 -2.604856 0.997849 2.243595
    4 6.028143 0.000001 0.000000 0.969016 1.197868 -1.027696
    5 11.692552 0.000000 0.000002 0.000000 0.000000 -1.571542
    6 10.678370 1.276507 2.062664 -0.717385 -1.422145 5.532447
    7 6.028142 0.000001 0.000000 -2.726479 -0.559040 0.019277
    8 11.692555 0.000000 0.000000 0.000000 0.000000 -1.532359
    9 14.946038 3.107988 0.238289 4.295658 0.176138 -0.143050
    10 3.886546 -0.226573 -0.000003 -3.039986 -0.940849 -0.069280
    11 17.848177 0.000000 0.000000 0.000000 0.000000 1.248107
    12 16.525253 0.000000 0.000000 -0.017363 0.054691 -0.931956
    13 -3.886546 0.226573 0.000007 -1.873558 -0.882555 -1.342998
    14 17.848173 0.000000 0.000000 0.000000 0.000000 1.469696
    15 16.525257 0.000000 0.000000 0.005032 -0.121800 -1.869558
  time 23
    0 -3.549334 52.564095 28.586144 1.846487 0.190016 -0.571998
    1 0.000005 3.345128 -2.981901 1.576270 -0.089589 1.511664
    2 7.489221 0.582049 -0.039064 -0.511882 -0.082574 0.596591
    3 10.596343 1.725745 -1.785262 -2.604856 0.997849 2.243595
    4 6.028143 0.000001 0.000000 0.969016 1.197868 -1.027696
    5 11.692552 0.000000 0.000002 0.000000 0.000000 -1.571542
    6 10.678370 1.276507 2.062664 -0.717385 -1.422145 5.532447
    7 6.028142 0.000001 0.000000 -2.726479 -0.559040 0.019277
    8 11.692555 0.000000 0.000000 0.000000 0.000000 -1.532359
    9 14.946038 3.107988 0.238289 4.295658 0.176138 -0.143050
    10 3.886546 -0.226573 -0.000003 -3.075941 -0.941208 -0.016444
    11 17.848177 0.000000 0.000000 0.000000 0.000000 1.407541
    12 16.525253 0.000000 0.000000 -0.030572 0.065392 -0.889452
    13 -3.886546 0.226573 0.000007 -1.878275 -0.948908 -1.293593
    14 17.848173 0.000000 0.000000 0.000000 0.000000 1.467813
    15 16.525257 0.000000 0.000000 -0.033295 -0.119206 -1.797309
  time 24
    0 -3.451675 54.574855 28.785369 1.846487 0.190016 -0.571998
    1 0.000005 3.345128 -2.981901 1.576270 -0.089589 1.511664
    2 7.489221 0.582049 -0.039064 -0.511882 -0.082574 0.596591
    3 10.596343 1.725745 -1.785262 -2.604856 0.997849 2.243595
    4 6.028143 0.000001 0.000000 0.969016 1.197868 -1.027696
    5 11.692552 0.000000 0.000002 0.000000 0.000000 -1.571542
    6 10.678370 1.276507 2.062664 -0.717385 -1.422145 5.532447
    7 6.028142 0.000001 0.000000 -2.726479 -0.559040 0.019277
    8 11.692555 0.000000 0.000000 0.000000 0.000000 -1.532359
    9 14.946038 3.107988 0.238289 4.295658 0.176138 -0.143050
    10 3.886546 -0.226573 -0.000003 -3.079692 -0.938919 -0.000662
    11 17.848177 0.000000 0.000000 0.000000 0.000000 1.621123
    12 16.525253 0.000000 0.000000 -0.042207 0.088177 -0.871451
    13 -3.886546 0.226573 0.000007 -1.887889 -1.010758 -1.240489
    14 17.848173 0.000000 0.000000 0.000000 0.000000 1.455290
    15 16.525257 0.000000 0.000000 -0.067248 -0.124956 -1.707868
end
