// Created by Crowbar 0.74
version 1
nodes
  0 "ValveBiped.Bip01" -1
  1 "ValveBiped.Bip01_Spine" 0
  2 "ValveBiped.Bip01_Spine2" 1
  3 "ValveBiped.Bip01_R_Clavicle" 2
  4 "ValveBiped.Bip01_R_UpperArm" 3
  5 "ValveBiped.Bip01_R_Forearm" 4
  6 "ValveBiped.Bip01_L_Clavicle" 2
  7 "ValveBiped.Bip01_L_UpperArm" 6
  8 "ValveBiped.Bip01_L_Forearm" 7
  9 "ValveBiped.Bip01_Head1" 2
  10 "ValveBiped.Bip01_L_Thigh" 0
  11 "ValveBiped.Bip01_L_Calf" 10
  12 "ValveBiped.Bip01_L_Foot" 11
  13 "ValveBiped.Bip01_R_Thigh" 0
  14 "ValveBiped.Bip01_R_Calf" 13
  15 "ValveBiped.Bip01_R_Foot" 14
end
skeleton
  time 0
    0 -3.486830 6.316604 30.039313 1.827199 0.177731 -0.589228
    1 0.000005 3.345128 -2.981901 1.611178 0.008422 1.570916
    2 7.489221 0.582049 -0.042970 -0.440657 -0.083005 0.471454
    3 10.596343 1.889813 -1.609475 -2.843862 0.867932 2.016475
    4 6.028143 0.000001 0.000000 1.463816 1.132812 -0.724786
    5 11.692552 0.000000 0.000002 0.000000 0.000000 -1.696735
    6 10.682277 1.065563 2.175949 -0.931113 -1.347859 5.766454
    7 6.028142 0.000001 0.000000 -2.781040 -0.744437 0.050050
    8 11.692555 0.000000 0.000000 0.000000 0.000000 -1.170743
    9 15.391364 2.361872 0.375011 4.067858 0.057214 -0.234858
    10 3.890452 -0.058600 -0.000003 -2.498657 -1.051043 -0.434669
    11 17.848177 0.000000 0.000000 0.000000 0.000000 1.684310
    12 16.525253 0.000000 0.000000 -0.020064 0.296922 -1.208856
    13 -3.890452 0.058599 0.000007 -1.318736 -1.023609 -1.534806
    14 17.848173 0.000000 0.000000 0.000000 0.000000 1.333331
    15 16.525257 0.000000 0.000000 -0.079530 0.056964 -1.548772
  time 1
    0 -4.459476 5.329853 29.937748 1.825797 0.176797 -0.597258
    1 0.000005 3.345128 -2.981901 1.616550 0.008422 1.570928
    2 7.489221 0.582049 -0.042970 -0.429850 -0.081615 0.470460
    3 10.596343 1.889813 -1.609475 -2.843095 0.867380 2.017139
    4 6.028143 0.000001 0.000000 1.472093 1.131660 -0.715373
    5 11.692552 0.000000 0.000002 0.000000 0.000000 -1.709007
    6 10.682277 1.065563 2.175949 -0.927300 -1.346710 5.762524
    7 6.028142 0.000001 0.000000 -2.785645 -0.751721 0.045620
    8 11.692555 0.000000 0.000000 0.000000 0.000000 -1.173446
    9 15.391364 2.361872 0.375011 4.068600 0.057334 -0.234686
    10 3.890452 -0.003910 -0.000003 -2.702399 -1.128516 -0.305582
    11 17.848177 0.000000 0.000000 0.000000 0.000000 1.595478
    12 16.525253 0.000000 0.000000 0.021834 0.214043 -1.107865
    13 -3.890452 0.003910 0.000007 -1.340958 -0.991001 -1.511645
    14 17.848173 0.000000 0.000000 0.000000 0.000000 1.365008
    15 16.525257 0.000000 0.000000 -0.081511 0.057145 -1.607460
  time 2
    0 -5.424310 4.343103 29.843995 1.824622 0.175994 -0.603939
    1 0.000005 3.345128 -2.981901 1.621457 0.008422 1.570952
    2 7.489221 0.582049 -0.042970 -0.419905 -0.079458 0.469423
    3 10.596343 1.889813 -1.609475 -2.840795 0.865780 2.019070
    4 6.028143 0.000001 0.000000 1.479535 1.129034 -0.707451
    5 11.692552 0.000000 0.000002 0.000000 0.000000 -1.724402
    6 10.682277 1.065563 2.175949 -0.916528 -1.343502 5.751595
    7 6.028142 0.000001 0.000000 -2.785546 -0.758440 0.036206
    8 11.692555 0.000000 0.000000 0.000000 0.000000 -1.182004
    9 15.391364 2.361872 0.375011 4.070725 0.057694 -0.234213
    10 3.890452 0.062498 -0.000003 -2.822247 -1.172548 -0.294518
    11 17.848177 0.000000 0.000000 0.000000 0.000000 1.417660
    12 16.525253 0.000000 0.000000 0.087908 0.130512 -1.096879
    13 -3.890452 -0.062498 0.000007 -1.350754 -0.958349 -1.495088
    14 17.848173 0.000000 0.000000 0.000000 0.000000 1.395866
    15 16.525257 0.000000 0.000000 -0.085171 0.056663 -1.653255
  time 3
    0 -6.389143 3.356352 29.765868 1.823710 0.175383 -0.609097
    1 0.000005 3.345128 -2.981901 1.625515 0.008422 1.570964
    2 7.489221 0.582049 -0.042970 -0.411685 -0.077612 0.468555
    3 10.596343 1.889813 -1.609475 -2.837315 0.863279 2.022088
    4 6.028143 0.000001 0.000000 1.484133 1.125210 -0.704095
    5 11.692552 0.000000 0.000002 0.000000 0.000000 -1.741031
    6 10.682277 1.065563 2.175949 -0.900512 -1.338408 5.735202
    7 6.028142 0.000001 0.000000 -2.780941 -0.764139 0.023786
    8 11.692555 0.000000 0.000000 0.000000 0.000000 -1.194390
    9 15.391364 2.361872 0.375011 4.074086 0.058269 -0.233440
    10 3.890452 0.144532 -0.000003 -2.775772 -1.189560 -0.445562
    11 17.848177 0.000000 0.000000 0.000000 0.000000 1.170553
    12 16.525253 0.000000 0.000000 0.168423 0.097494 -1.129870
    13 -3.890452 -0.144532 0.000007 -1.351207 -0.924779 -1.483463
    14 17.848173 0.000000 0.000000 0.000000 0.000000 1.423695
    15 16.525257 0.000000 0.000000 -0.089759 0.055517 -1.686193
  time 4
    0 -7.346164 2.369602 29.718991 1.823131 0.174987 -0.612379
    1 0.000005 3.345128 -2.981901 1.628349 0.008422 1.570964
    2 7.489221 0.582049 -0.046876 -0.405936 -0.076186 0.467941
    3 10.596343 1.889813 -1.609475 -2.832832 0.860008 2.025951
    4 6.028143 0.000001 0.000000 1.484050 1.120694 -0.706798
    5 11.692552 0.000000 0.000002 0.000000 0.000000 -1.756862
    6 10.682277 1.065563 2.175949 -0.880588 -1.331710 5.714879
    7 6.028142 0.000001 0.000000 -2.772128 -0.768215 0.009508
    8 11.692555 0.000000 0.000000 0.000000 0.000000 -1.209104
    9 15.391364 2.361872 0.375011 4.078534 0.059024 -0.232409
    10 3.886546 0.222659 -0.000003 -2.620427 -1.173670 -0.666254
    11 17.848177 0.000000 0.000000 0.000000 0.000000 0.929780
    12 16.525253 0.000000 0.000000 0.218854 0.111450 -1.165327
    13 -3.886546 -0.222659 0.000007 -1.344405 -0.889986 -1.476066
    14 17.848173 0.000000 0.000000 0.000000 0.000000 1.447268
    15 16.525257 0.000000 0.000000 -0.094793 0.053808 -1.706571
  time 5
    0 -8.299278 1.382851 29.695553 1.822939 0.174843 -0.613551
    1 0.000005 3.345128 -2.981901 1.629701 0.008422 1.570976
    2 7.489221 0.582049 -0.046876 -0.403177 -0.075071 0.467561
    3 10.596343 1.889813 -1.609475 -2.827464 0.856096 2.030478
    4 6.028143 0.000001 0.000000 1.479033 1.116225 -0.715653
    5 11.692552 0.000000 0.000002 0.000000 0.000000 -1.770732
    6 10.682277 1.065563 2.175949 -0.858281 -1.323603 5.692063
    7 6.028142 0.000001 0.000000 -2.760196 -0.770291 -0.005127
    8 11.692555 0.000000 0.000000 0.000000 0.000000 -1.224794
    9 15.391364 2.361872 0.375011 4.083921 0.059947 -0.231185
    10 3.878733 0.300786 -0.000003 -2.587674 -1.159487 -0.690699
    11 17.848177 0.000000 0.000000 0.000000 0.000000 0.898573
    12 16.525253 0.000000 0.000000 0.207975 0.090781 -1.122695
    13 -3.878733 -0.300787 0.000007 -1.332432 -0.854274 -1.471398
    14 17.848173 0.000000 0.000000 0.000000 0.000000 1.466504
    15 16.525257 0.000000 0.000000 -0.099970 0.051697 -1.715315
  time 6
    0 -9.248486 0.396101 29.687740 1.823114 0.174975 -0.612496
    1 0.000005 3.345128 -2.981901 1.629340 0.008422 1.570976
    2 7.489221 0.582049 -0.046876 -0.403780 -0.073957 0.467412
    3 10.596343 1.889813 -1.609475 -2.821507 0.851691 2.035547
    4 6.028143 0.000001 0.000000 1.469083 1.112908 -0.730006
    5 11.692552 0.000000 0.000002 0.000000 0.000000 -1.781624
    6 10.682277 1.065563 2.175949 -0.834926 -1.314326 5.668096
    7 6.028142 0.000001 0.000000 -2.746878 -0.769914 -0.018892
    8 11.692555 0.000000 0.000000 0.000000 0.000000 -1.240259
    9 15.391364 2.361872 0.375011 4.090100 0.061026 -0.229767
    10 3.874826 0.367195 -0.000003 -2.609357 -1.157332 -0.642581
    11 17.848177 0.000000 0.000000 0.000000 0.000000 0.960291
    12 16.525253 0.000000 0.000000 0.179554 0.049809 -1.041306
    13 -3.874826 -0.367195 0.000007 -1.316378 -0.818257 -1.469285
    14 17.848173 0.000000 0.000000 0.000000 0.000000 1.481973
    15 16.525257 0.000000 0.000000 -0.105165 0.049445 -1.713611
  time 7
    0 -10.193787 -0.590650 29.695553 1.823640 0.175335 -0.609565
    1 0.000005 3.345128 -2.981901 1.627254 0.008422 1.570964
    2 7.489221 0.582049 -0.046876 -0.407833 -0.072663 0.467434
    3 10.596343 1.889813 -1.609475 -2.815136 0.846907 2.040919
    4 6.028143 0.000001 0.000000 1.453198 1.111249 -0.750324
    5 11.692552 0.000000 0.000002 0.000000 0.000000 -1.788160
    6 10.682277 1.065563 2.175949 -0.811665 -1.304181 5.644130
    7 6.028142 0.000001 0.000000 -2.733064 -0.766970 -0.031074
    8 11.692555 0.000000 0.000000 0.000000 0.000000 -1.254147
    9 15.391364 2.361872 0.375011 4.096920 0.062212 -0.228220
    10 3.870920 0.417978 -0.000003 -2.616950 -1.154908 -0.611531
    11 17.848177 0.000000 0.000000 0.000000 0.000000 1.026799
    12 16.525253 0.000000 0.000000 0.152052 0.028265 -1.004216
    13 -3.870920 -0.417978 0.000007 -1.298963 -0.782239 -1.468228
    14 17.848173 0.000000 0.000000 0.000000 0.000000 1.493514
    15 16.525257 0.000000 0.000000 -0.110324 0.047334 -1.702125
  time 8
    0 -11.135183 -1.577400 29.715085 1.824447 0.175886 -0.604935
    1 0.000005 3.345128 -2.981901 1.623531 0.008422 1.570952
    2 7.489221 0.582049 -0.042970 -0.415105 -0.071260 0.467624
    3 10.596343 1.889813 -1.609475 -2.808589 0.841890 2.046412
    4 6.028143 0.000001 0.000000 1.430540 1.111111 -0.777260
    5 11.692552 0.000000 0.000002 0.000000 0.000000 -1.789322
    6 10.682277 1.065563 2.175949 -0.789263 -1.293451 5.620930
    7 6.028142 0.000001 0.000000 -2.719647 -0.761950 -0.040408
    8 11.692555 0.000000 0.000000 0.000000 0.000000 -1.264582
    9 15.391364 2.361872 0.375011 4.104235 0.063506 -0.226566
    10 3.867014 0.445322 -0.000003 -2.589047 -1.145976 -0.620709
    11 17.848177 0.000000 0.000000 0.000000 0.000000 1.069902
    12 16.525253 0.000000 0.000000 0.134183 0.027838 -1.035605
    13 -3.867014 -0.445322 0.000007 -1.281639 -0.746528 -1.467700
    14 17.848173 0.000000 0.000000 0.000000 0.000000 1.500472
    15 16.525257 0.000000 0.000000 -0.115465 0.045685 -1.681303
  time 9
    0 -12.072671 -2.564151 29.754148 1.825499 0.176605 -0.598840
    1 0.000005 3.345128 -2.981901 1.618327 0.008422 1.570940
    2 7.489221 0.582049 -0.042970 -0.425337 -0.069822 0.467984
    3 10.596343 1.889813 -1.609475 -2.801983 0.836787 2.051904
    4 6.028143 0.000001 0.000000 1.401360 1.112447 -0.810440
    5 11.692552 0.000000 0.000002 0.000000 0.000000 -1.785473
    6 10.682277 1.065563 2.175949 -0.768386 -1.282439 5.599169
    7 6.028142 0.000001 0.000000 -2.707319 -0.754854 -0.046816
    8 11.692555 0.000000 0.000000 0.000000 0.000000 -1.271863
    9 15.391364 2.361872 0.375011 4.111945 0.064873 -0.224826
    10 3.867014 0.453135 -0.000003 -2.549158 -1.134216 -0.641637
    11 17.848177 0.000000 0.000000 0.000000 0.000000 1.111074
    12 16.525253 0.000000 0.000000 0.119372 0.036952 -1.100594
    13 -3.867014 -0.453135 0.000007 -1.265585 -0.711865 -1.467435
    14 17.848173 0.000000 0.000000 0.000000 0.000000 1.503418
    15 16.525257 0.000000 0.000000 -0.120660 0.044840 -1.652070
  time 10
    0 -13.006254 -3.550901 29.812744 1.826796 0.177456 -0.591573
    1 0.000005 3.345128 -2.981901 1.611861 0.008422 1.570916
    2 7.489221 0.582049 -0.042970 -0.438099 -0.068468 0.468513
    3 10.596343 1.889813 -1.609475 -2.795553 0.831741 2.057276
    4 6.028143 0.000001 0.000000 1.366829 1.114659 -0.848840
    5 11.692552 0.000000 0.000002 0.000000 0.000000 -1.777848
    6 10.682277 1.065563 2.175949 -0.749225 -1.271471 5.579229
    7 6.028142 0.000001 0.000000 -2.695832 -0.745380 -0.051325
    8 11.692555 0.000000 0.000000 0.000000 0.000000 -1.277794
    9 15.391364 2.361872 0.375011 4.119804 0.066287 -0.223044
    10 3.867014 0.453135 -0.000003 -2.509087 -1.121513 -0.659649
    11 17.848177 0.000000 0.000000 0.000000 0.000000 1.158116
    12 16.525253 0.000000 0.000000 0.101547 0.049117 -1.172438
    13 -3.867014 -0.453135 0.000007 -1.252161 -0.679214 -1.467347
    14 17.848173 0.000000 0.000000 0.000000 0.000000 1.503091
    15 16.525257 0.000000 0.000000 -0.125926 0.045263 -1.615612
  time 11
    0 -13.939836 -4.537652 29.894778 1.828251 0.178415 -0.583368
    1 0.000005 3.345128 -2.981901 1.604377 0.008422 1.570892
    2 7.489221 0.582049 -0.042970 -0.452873 -0.067293 0.469169
    3 10.596343 1.889813 -1.609475 -2.789419 0.826885 2.062285
    4 6.028143 0.000001 0.000000 1.328285 1.116916 -0.890874
    5 11.692552 0.000000 0.000002 0.000000 0.000000 -1.767101
    6 10.682277 1.065563 2.175949 -0.732351 -1.260850 5.561494
    7 6.028142 0.000001 0.000000 -2.684742 -0.733944 -0.054450
    8 11.692555 0.000000 0.000000 0.000000 0.000000 -1.282599
    9 15.391364 2.361872 0.375011 4.127761 0.067725 -0.221239
    10 3.867014 0.437509 -0.000003 -2.464990 -1.106701 -0.680921
    11 17.848177 0.000000 0.000000 0.000000 0.000000 1.202532
    12 16.525253 0.000000 0.000000 0.082179 0.061242 -1.241815
    13 -3.867014 -0.437510 0.000007 -1.242093 -0.649272 -1.467964
    14 17.848173 0.000000 0.000000 0.000000 0.000000 1.500063
    15 16.525257 0.000000 0.000000 -0.131281 0.047414 -1.573040
  time 12
    0 -14.869512 -5.524403 29.988531 1.829847 0.179433 -0.574401
    1 0.000005 3.345128 -2.981901 1.596197 0.008422 1.570868
    2 7.489221 0.582049 -0.042970 -0.469084 -0.066407 0.469994
    3 10.596343 1.889813 -1.609475 -2.783816 0.822363 2.066872
    4 6.028143 0.000001 0.000000 1.288069 1.118851 -0.934214
    5 11.692552 0.000000 0.000002 0.000000 0.000000 -1.754248
    6 10.682277 1.065563 2.175949 -0.717671 -1.250922 5.545964
    7 6.028142 0.000001 0.000000 -2.674295 -0.721073 -0.056269
    8 11.692555 0.000000 0.000000 0.000000 0.000000 -1.286803
    9 15.391364 2.361872 0.375011 4.135669 0.069175 -0.219478
    10 3.870920 0.414071 -0.000003 -2.417966 -1.089241 -0.704851
    11 17.848177 0.000000 0.000000 0.000000 0.000000 1.240846
    12 16.525253 0.000000 0.000000 0.061816 0.073143 -1.306387
    13 -3.870920 -0.414071 0.000007 -1.233567 -0.644027 -1.484080
    14 17.848173 0.000000 0.000000 0.000000 0.000000 1.515205
    15 16.525257 0.000000 0.000000 -0.147098 0.064645 -1.458035
  time 13
    0 -15.795282 -6.511153 30.070564 1.831530 0.180500 -0.564965
    1 0.000005 3.345128 -2.981901 1.587619 0.008422 1.570844
    2 7.489221 0.582049 -0.039064 -0.486071 -0.065939 0.470947
    3 10.596343 1.889813 -1.609475 -2.778920 0.818335 2.070856
    4 6.028143 0.000001 0.000000 1.249526 1.120879 -0.975502
    5 11.692552 0.000000 0.000002 0.000000 0.000000 -1.741394
    6 10.682277 1.065563 2.175949 -0.705469 -1.242034 5.532926
    7 6.028142 0.000001 0.000000 -2.665631 -0.707221 -0.055953
    8 11.692555 0.000000 0.000000 0.000000 0.000000 -1.291232
    9 15.391364 2.361872 0.375011 4.143330 0.070589 -0.217759
    10 3.870920 0.386727 -0.000003 -2.369752 -1.069177 -0.730068
    11 17.848177 0.000000 0.000000 0.000000 0.000000 1.273752
    12 16.525253 0.000000 0.000000 0.040756 0.085247 -1.369935
    13 -3.870920 -0.386727 0.000007 -1.227672 -0.667237 -1.511468
    14 17.848173 0.000000 0.000000 0.000000 0.000000 1.556458
    15 16.525257 0.000000 0.000000 -0.168144 0.112478 -1.277412
  time 14
    0 -16.717146 -7.497904 30.113534 1.833266 0.181579 -0.555236
    1 0.000005 3.345128 -2.981901 1.578988 0.008422 1.570820
    2 7.489221 0.582049 -0.039064 -0.503231 -0.065939 0.472026
    3 10.596343 1.889813 -1.609475 -2.774791 0.814933 2.074175
    4 6.028143 0.000001 0.000000 1.215497 1.123597 -1.011852
    5 11.692552 0.000000 0.000002 0.000000 0.000000 -1.730429
    6 10.682277 1.065563 2.175949 -0.695745 -1.234556 5.522572
    7 6.028142 0.000001 0.000000 -2.659937 -0.692766 -0.053026
    8 11.692555 0.000000 0.000000 0.000000 0.000000 -1.296787
    9 15.391364 2.361872 0.375011 4.150645 0.071943 -0.216127
    10 3.874826 0.355476 -0.000003 -2.321539 -1.046240 -0.756057
    11 17.848177 0.000000 0.000000 0.000000 0.000000 1.303260
    12 16.525253 0.000000 0.000000 0.019058 0.097596 -1.436846
    13 -3.874826 -0.355476 0.000007 -1.224316 -0.711210 -1.545198
    14 17.848173 0.000000 0.000000 0.000000 0.000000 1.611217
    15 16.525257 0.000000 0.000000 -0.173000 0.160411 -1.121502
  time 15
    0 -17.639009 -8.484654 30.133066 1.835020 0.182633 -0.545565
    1 0.000005 3.345128 -2.981901 1.570577 0.008422 1.570796
    2 7.489221 0.582049 -0.039064 -0.520017 -0.066299 0.473169
    3 10.596343 1.889813 -1.609475 -2.771665 0.812330 2.076710
    4 6.028143 0.000001 0.000000 1.187069 1.126500 -1.041863
    5 11.692552 0.000000 0.000002 0.000000 0.000000 -1.721424
    6 10.682277 1.065563 2.175949 -0.688500 -1.228790 5.514903
    7 6.028142 0.000001 0.000000 -2.656323 -0.678272 -0.048556
    8 11.692555 0.000000 0.000000 0.000000 0.000000 -1.303393
    9 15.391364 2.361872 0.375011 4.157416 0.073214 -0.214623
    10 3.878733 0.316412 -0.000003 -2.274057 -1.019893 -0.781960
    11 17.848177 0.000000 0.000000 0.000000 0.000000 1.328442
    12 16.525253 0.000000 0.000000 -0.003352 0.109965 -1.505646
    13 -3.878733 -0.316412 0.000007 -1.217694 -0.779180 -1.590288
    14 17.848173 0.000000 0.000000 0.000000 0.000000 1.660982
    15 16.525257 0.000000 0.000000 -0.169894 0.152147 -1.063370
  time 16
    0 -18.556966 -9.471405 30.121347 1.836756 0.183652 -0.536130
    1 0.000005 3.345128 -2.981901 1.562617 0.008422 1.570772
    2 7.489221 0.582049 -0.039064 -0.535854 -0.066598 0.474269
    3 10.596343 1.889813 -1.609475 -2.769659 0.810658 2.078340
    4 6.028143 0.000001 0.000000 1.165080 1.129679 -1.064232
    5 11.692552 0.000000 0.000002 0.000000 0.000000 -1.714671
    6 10.682277 1.065563 2.175949 -0.684115 -1.225083 5.510110
    7 6.028142 0.000001 0.000000 -2.654342 -0.663816 -0.044087
    8 11.692555 0.000000 0.000000 0.000000 0.000000 -1.311426
    9 15.391364 2.361872 0.375011 4.163545 0.074376 -0.213248
    10 3.882639 0.281255 -0.000003 -2.228862 -0.990178 -0.806405
    11 17.848177 0.000000 0.000000 0.000000 0.000000 1.349220
    12 16.525253 0.000000 0.000000 -0.026535 0.122130 -1.574991
    13 -3.882639 -0.281255 0.000007 -1.192842 -0.889155 -1.667257
    14 17.848173 0.000000 0.000000 0.000000 0.000000 1.694951
    15 16.525257 0.000000 0.000000 -0.160022 0.083082 -1.063073
  time 17
    0 -19.471016 -10.458155 30.082283 1.838386 0.184599 -0.527163
    1 0.000005 3.345128 -2.981901 1.555326 0.008422 1.570748
    2 7.489221 0.582049 -0.035157 -0.550340 -0.066670 0.475243
    3 10.596343 1.889813 -1.609475 -2.768951 0.810062 2.078883
    4 6.028143 0.000001 0.000000 1.150532 1.133180 -1.077653
    5 11.692552 0.000000 0.000002 0.000000 0.000000 -1.710314
    6 10.682277 1.065563 2.175949 -0.682494 -1.223783 5.508384
    7 6.028142 0.000001 0.000000 -2.653600 -0.649474 -0.040685
    8 11.692555 0.000000 0.000000 0.000000 0.000000 -1.321335
    9 15.391364 2.361872 0.375011 4.168883 0.075395 -0.212067
    10 3.882639 0.246097 -0.000003 -2.186778 -0.957143 -0.828363
    11 17.848177 0.000000 0.000000 0.000000 0.000000 1.365674
    12 16.525253 0.000000 0.000000 -0.050385 0.133950 -1.643247
    13 -3.882639 -0.246098 0.000007 -1.180325 -0.999131 -1.735245
    14 17.848173 0.000000 0.000000 0.000000 0.000000 1.690612
    15 16.525257 0.000000 0.000000 -0.120910 0.006418 -1.068149
  time 18
    0 -20.385067 -11.444906 30.019782 1.839912 0.185462 -0.518899
    1 0.000005 3.345128 -2.981901 1.548860 0.008422 1.570736
    2 7.489221 0.582049 -0.035157 -0.563188 -0.066682 0.476110
    3 10.596343 1.889813 -1.609475 -2.769541 0.810600 2.078400
    4 6.028143 0.000001 0.000000 1.147104 1.136175 -1.078492
    5 11.692552 0.000000 0.000002 0.000000 0.000000 -1.708716
    6 10.682277 1.065563 2.175949 -0.683924 -1.224953 5.509918
    7 6.028142 0.000001 0.000000 -2.653204 -0.636188 -0.038352
    8 11.692555 0.000000 0.000000 0.000000 0.000000 -1.333046
    9 15.391364 2.361872 0.375011 4.173282 0.076234 -0.211100
    10 3.886546 0.210940 -0.000003 -2.148537 -0.920875 -0.847233
    11 17.848177 0.000000 0.000000 0.000000 0.000000 1.377569
    12 16.525253 0.000000 0.000000 -0.074666 0.145342 -1.708108
    13 -3.886546 -0.210940 0.000007 -1.194747 -1.100452 -1.775139
    14 17.848173 0.000000 0.000000 0.000000 0.000000 1.647804
    15 16.525257 0.000000 0.000000 -0.046183 -0.059209 -1.085971
  time 19
    0 -21.295211 -12.431656 29.949467 1.841262 0.186217 -0.511573
    1 0.000005 3.345128 -2.981901 1.543334 0.008422 1.570712
    2 7.489221 0.582049 -0.035157 -0.574168 -0.066730 0.476851
    3 10.596343 1.889813 -1.609475 -2.771370 0.812097 2.076952
    4 6.028143 0.000001 0.000000 1.155883 1.138110 -1.065723
    5 11.692552 0.000000 0.000002 0.000000 0.000000 -1.709515
    6 10.682277 1.065563 2.175949 -0.687928 -1.228270 5.514232
    7 6.028142 0.000001 0.000000 -2.652609 -0.625016 -0.036493
    8 11.692555 0.000000 0.000000 0.000000 0.000000 -1.345358
    9 15.391364 2.361872 0.375011 4.176593 0.076881 -0.210370
    10 3.886546 0.171876 -0.000003 -2.114686 -0.881825 -0.862329
    11 17.848177 0.000000 0.000000 0.000000 0.000000 1.385139
    12 16.525253 0.000000 0.000000 -0.098783 0.156389 -1.766691
    13 -3.886546 -0.171877 0.000007 -1.215971 -1.182322 -1.796186
    14 17.848173 0.000000 0.000000 0.000000 0.000000 1.566117
    15 16.525257 0.000000 0.000000 0.046162 -0.100688 -1.117056
  time 20
    0 -22.201449 -13.418407 29.879152 1.842384 0.186828 -0.505478
    1 0.000005 3.345128 -2.981901 1.538799 0.008422 1.570700
    2 7.489221 0.585955 -0.035157 -0.583193 -0.066850 0.477507
    3 10.596343 1.889813 -1.609475 -2.774201 0.814438 2.074658
    4 6.028143 0.000001 0.000000 1.173776 1.138801 -1.042888
    5 11.692552 0.000000 0.000002 0.000000 0.000000 -1.711476
    6 10.682277 1.065563 2.175949 -0.694315 -1.233472 5.521039
    7 6.028142 0.000001 0.000000 -2.651768 -0.615882 -0.035425
    8 11.692555 0.000000 0.000000 0.000000 0.000000 -1.357369
    9 15.391364 2.361872 0.375011 4.178669 0.077277 -0.209897
    10 3.890452 0.128906 -0.000003 -2.085685 -0.840575 -0.873308
    11 17.848177 0.000000 0.000000 0.000000 0.000000 1.389002
    12 16.525253 0.000000 0.000000 -0.121698 0.167375 -1.814608
    13 -3.890452 -0.128907 0.000007 -1.206447 -1.234774 -1.822430
    14 17.848173 0.000000 0.000000 0.000000 0.000000 1.444076
    15 16.525257 0.000000 0.000000 0.128564 -0.113275 -1.153700
  time 21
    0 -23.103781 -14.405157 29.824463 1.843261 0.187295 -0.500848
    1 0.000005 3.345128 -2.981901 1.535322 0.008422 1.570688
    2 7.489221 0.585955 -0.035157 -0.590121 -0.067090 0.478057
    3 10.596343 1.889813 -1.609475 -2.777917 0.817521 2.071701
    4 6.028143 0.000001 0.000000 1.196517 1.138295 -1.014741
    5 11.692552 0.000000 0.000002 0.000000 0.000000 -1.713364
    6 10.682277 1.065563 2.175949 -0.703085 -1.240257 5.530433
    7 6.028142 0.000001 0.000000 -2.650629 -0.608446 -0.035543
    8 11.692555 0.000000 0.000000 0.000000 0.000000 -1.368404
    9 15.391364 2.361872 0.375011 4.179411 0.077420 -0.209747
    10 3.890452 0.078123 -0.000003 -2.061624 -0.797844 -0.879912
    11 17.848177 0.000000 0.000000 0.000000 0.000000 1.390083
    12 16.525253 0.000000 0.000000 -0.141140 0.178767 -1.844428
    13 -3.890452 -0.078124 0.000007 -1.177151 -1.253920 -1.838458
    14 17.848173 0.000000 0.000000 0.000000 0.000000 1.280701
    15 16.525257 0.000000 0.000000 0.189670 -0.098235 -1.188379
  time 22
    0 -24.006112 -15.391908 29.785399 1.843804 0.187595 -0.497858
    1 0.000005 3.345128 -2.981901 1.532900 0.008422 1.570688
    2 7.489221 0.585955 -0.035157 -0.594949 -0.067425 0.478481
    3 10.596343 1.889813 -1.609475 -2.782400 0.821185 2.068019
    4 6.028143 0.000001 0.000000 1.220011 1.136866 -0.985475
    5 11.692552 0.000000 0.000002 0.000000 0.000000 -1.714235
    6 10.682277 1.065563 2.175949 -0.714048 -1.248342 5.542129
    7 6.028142 0.000001 0.000000 -2.649490 -0.602219 -0.037244
    8 11.692555 0.000000 0.000000 0.000000 0.000000 -1.378089
    9 15.391364 2.361872 0.375011 4.177780 0.077109 -0.210091
    10 3.890452 0.027341 -0.000003 -2.042869 -0.755203 -0.881628
    11 17.848177 0.000000 0.000000 0.000000 0.000000 1.391628
    12 16.525253 0.000000 0.000000 -0.151589 0.190688 -1.840552
    13 -3.890452 -0.027341 0.000007 -1.187219 -1.239757 -1.797595
    14 17.848173 0.000000 0.000000 0.000000 0.000000 1.080247
    15 16.525257 0.000000 0.000000 0.232853 -0.058546 -1.219465
  time 23
    0 -24.908444 -16.378659 29.765868 1.843997 0.187703 -0.496862
    1 0.000005 3.345128 -2.981901 1.531535 0.008422 1.570676
    2 7.489221 0.585955 -0.035157 -0.597709 -0.067881 0.478798
    3 10.596343 1.889813 -1.609475 -2.787532 0.825329 2.063855
    4 6.028143 0.000001 0.000000 1.240997 1.135576 -0.958353
    5 11.692552 0.000000 0.000002 0.000000 0.000000 -1.713509
    6 10.682277 1.065563 2.175949 -0.727204 -1.257446 5.556030
    7 6.028142 0.000001 0.000000 -2.649144 -0.596519 -0.040448
    8 11.692555 0.000000 0.000000 0.000000 0.000000 -1.386271
    9 15.391364 2.361872 0.375011 4.173282 0.076234 -0.211100
    10 3.890452 -0.015629 -0.000003 -2.033354 -0.721090 -0.869191
    11 17.848177 0.000000 0.000000 0.000000 0.000000 1.409163
    12 16.525253 0.000000 0.000000 -0.145355 0.202447 -1.774506
    13 -3.890452 0.015629 0.000007 -1.217422 -1.203172 -1.731810
    14 17.848173 0.000000 0.000000 0.000000 0.000000 0.901402
    15 16.525257 0.000000 0.000000 0.256006 -0.017469 -1.246289
  time 24
    0 -25.802962 -17.365409 29.758055 1.843787 0.187583 -0.497976
    1 0.000005 3.345128 -2.981901 1.531908 0.008422 1.570676
    2 7.489221 0.585955 -0.035157 -0.597019 -0.068648 0.478967
    3 10.596343 1.889813 -1.609475 -2.793135 0.829822 2.059267
    4 6.028143 0.000001 0.000000 1.262318 1.133871 -0.931697
    5 11.692552 0.000000 0.000002 0.000000 0.000000 -1.712928
    6 10.682277 1.065563 2.175949 -0.742456 -1.267266 5.572039
    7 6.028142 0.000001 0.000000 -2.650381 -0.593953 -0.043098
    8 11.692555 0.000000 0.000000 0.000000 0.000000 -1.390926
    9 15.391364 2.361872 0.375011 4.166313 0.074904 -0.212647
    10 3.890452 -0.058600 -0.000003 -2.032440 -0.696986 -0.841829
    11 17.848177 0.000000 0.000000 0.000000 0.000000 1.449330
    12 16.525253 0.000000 0.000000 -0.125883 0.213860 -1.655675
    13 -3.890452 0.058599 0.000007 -1.212071 -1.196746 -1.713140
    14 17.848173 0.000000 0.000000 0.000000 0.000000 0.870708
    15 16.525257 0.000000 0.000000 0.250490 -0.009326 -1.228357
  time 25
    0 -26.697481 -18.352160 29.765868 1.843173 0.187259 -0.501316
    1 0.000005 3.345128 -2.981901 1.534510 0.008422 1.570688
    2 7.489221 0.585955 -0.035157 -0.591960 -0.069894 0.478946
    3 10.596343 1.889813 -1.609475 -2.799093 0.834533 2.054318
    4 6.028143 0.000001 0.000000 1.285979 1.131245 -0.904016
    5 11.692552 0.000000 0.000002 0.000000 0.000000 -1.713364
    6 10.682277 1.065563 2.175949 -0.759616 -1.277541 5.590062
    7 6.028142 0.000001 0.000000 -2.653748 -0.596595 -0.043375
    8 11.692555 0.000000 0.000000 0.000000 0.000000 -1.390100
    9 15.391364 2.361872 0.375011 4.157416 0.073214 -0.214623
    10 3.890452 -0.101570 -0.000003 -2.035367 -0.676967 -0.809493
    11 17.848177 0.000000 0.000000 0.000000 0.000000 1.498690
    12 16.525253 0.000000 0.000000 -0.097581 0.221407 -1.500393
    13 -3.890452 0.101569 0.000007 -1.202366 -1.195173 -1.702308
    14 17.848173 0.000000 0.000000 0.000000 0.000000 0.891662
    15 16.525257 0.000000 0.000000 0.217929 -0.007476 -1.201347
  time 26
    0 -27.588093 -19.338910 29.797119 1.842209 0.186732 -0.506474
    1 0.000005 3.345128 -2.981901 1.538980 0.008422 1.570700
    2 7.489221 0.585955 -0.035157 -0.583251 -0.071452 0.478735
    3 10.596343 1.889813 -1.609475 -2.805286 0.839346 2.049188
    4 6.028143 0.000001 0.000000 1.309473 1.128619 -0.877733
    5 11.692552 0.000000 0.000002 0.000000 0.000000 -1.713582
    6 10.682277 1.065563 2.175949 -0.778586 -1.287945 5.609906
    7 6.028142 0.000001 0.000000 -2.659541 -0.603502 -0.041160
    8 11.692555 0.000000 0.000000 0.000000 0.000000 -1.383344
    9 15.391364 2.361872 0.375011 4.147037 0.071272 -0.216922
    10 3.890452 -0.144540 -0.000003 -2.037563 -0.654076 -0.785134
    11 17.848177 0.000000 0.000000 0.000000 0.000000 1.533759
    12 16.525253 0.000000 0.000000 -0.065063 0.220085 -1.317566
    13 -3.890452 0.144539 0.000007 -1.191119 -1.195216 -1.697816
    14 17.848173 0.000000 0.000000 0.000000 0.000000 0.942082
    15 16.525257 0.000000 0.000000 0.160394 -0.004681 -1.148031
  time 27
    0 -28.478706 -20.325661 29.847901 1.840964 0.186049 -0.513214
    1 0.000005 3.345128 -2.981901 1.544944 0.008422 1.570724
    2 7.489221 0.582049 -0.035157 -0.571524 -0.073178 0.478354
    3 10.596343 1.889813 -1.609475 -2.811538 0.844144 2.043997
    4 6.028143 0.000001 0.000000 1.330292 1.127467 -0.855177
    5 11.692552 0.000000 0.000002 0.000000 0.000000 -1.711331
    6 10.682277 1.065563 2.175949 -0.799082 -1.298263 5.631092
    7 6.028142 0.000001 0.000000 -2.668007 -0.613919 -0.036295
    8 11.692555 0.000000 0.000000 0.000000 0.000000 -1.369155
    9 15.391364 2.361872 0.375011 4.135669 0.069175 -0.219478
    10 3.886546 -0.179697 -0.000003 -2.040307 -0.632037 -0.766521
    11 17.848177 0.000000 0.000000 0.000000 0.000000 1.555851
    12 16.525253 0.000000 0.000000 -0.036004 0.212537 -1.127243
    13 -3.886546 0.179697 0.000007 -1.184498 -1.192375 -1.692004
    14 17.848173 0.000000 0.000000 0.000000 0.000000 1.001588
    15 16.525257 0.000000 0.000000 0.096967 0.011665 -1.095752
  time 28
    0 -29.361506 -21.312411 29.918216 1.839473 0.185222 -0.521243
    1 0.000005 3.345128 -2.981901 1.552067 0.008422 1.570748
    2 7.489221 0.582049 -0.035157 -0.557526 -0.074904 0.477803
    3 10.596343 1.889813 -1.609475 -2.817673 0.848797 2.038807
    4 6.028143 0.000001 0.000000 1.347850 1.128020 -0.836630
    5 11.692552 0.000000 0.000002 0.000000 0.000000 -1.705594
    6 10.682277 1.065563 2.175949 -0.820722 -1.308213 5.653429
    7 6.028142 0.000001 0.000000 -2.678603 -0.627016 -0.029373
    8 11.692555 0.000000 0.000000 0.000000 0.000000 -1.347760
    9 15.391364 2.361872 0.375011 4.123807 0.067006 -0.222141
    10 3.886546 -0.207042 -0.000003 -2.050737 -0.629389 -0.738302
    11 17.848177 0.000000 0.000000 0.000000 0.000000 1.586595
    12 16.525253 0.000000 0.000000 -0.013326 0.207329 -0.950661
    13 -3.886546 0.207041 0.000007 -1.187219 -1.182628 -1.676769
    14 17.848173 0.000000 0.000000 0.000000 0.000000 1.051435
    15 16.525257 0.000000 0.000000 0.052696 0.030806 -1.098716
  time 29
    0 -30.244305 -22.299162 30.000250 1.837825 0.184275 -0.530269
    1 0.000005 3.345128 -2.981901 1.559989 0.008422 1.570772
    2 7.489221 0.582049 -0.039064 -0.541919 -0.076462 0.477084
    3 10.596343 1.889813 -1.609475 -2.823571 0.853203 2.033857
    4 6.028143 0.000001 0.000000 1.362649 1.130001 -0.821252
    5 11.692552 0.000000 0.000002 0.000000 0.000000 -1.697461
    6 10.682277 1.065563 2.175949 -0.842743 -1.317534 5.676149
    7 6.028142 0.000001 0.000000 -2.691030 -0.641925 -0.020830
    8 11.692555 0.000000 0.000000 0.000000 0.000000 -1.321035
    9 15.391364 2.361872 0.375011 4.111945 0.064873 -0.224826
    10 3.886546 -0.218761 -0.000003 -2.070681 -0.651383 -0.701935
    11 17.848177 0.000000 0.000000 0.000000 0.000000 1.627689
    12 16.525253 0.000000 0.000000 0.004692 0.204278 -0.806078
    13 -3.886546 0.218760 0.000007 -1.197468 -1.167810 -1.655457
    14 17.848173 0.000000 0.000000 0.000000 0.000000 1.093180
    15 16.525257 0.000000 0.000000 0.021652 0.042146 -1.143511
  time 30
    0 -31.127105 -23.285912 30.074471 1.836054 0.183244 -0.539939
    1 0.000005 3.345128 -2.981901 1.568336 0.008422 1.570796
    2 7.489221 0.582049 -0.039064 -0.525420 -0.077840 0.476237
    3 10.596343 1.889813 -1.609475 -2.828998 0.857245 2.029210
    4 6.028143 0.000001 0.000000 1.376110 1.133226 -0.807457
    5 11.692552 0.000000 0.000002 0.000000 0.000000 -1.688601
    6 10.682277 1.065563 2.175949 -0.864573 -1.325966 5.698581
    7 6.028142 0.000001 0.000000 -2.705338 -0.657740 -0.010704
    8 11.692555 0.000000 0.000000 0.000000 0.000000 -1.291457
    9 15.391364 2.361872 0.375011 4.100528 0.062847 -0.227404
    10 3.886546 -0.210948 -0.000003 -2.100963 -0.694383 -0.660164
    11 17.848177 0.000000 0.000000 0.000000 0.000000 1.669247
    12 16.525253 0.000000 0.000000 0.018969 0.205010 -0.709155
    13 -3.886546 0.210948 0.000007 -1.211073 -1.150151 -1.634673
    14 17.848173 0.000000 0.000000 0.000000 0.000000 1.136315
    15 16.525257 0.000000 0.000000 -0.005964 0.050792 -1.199124
  time 31
    0 -32.002092 -24.272663 30.125254 1.834196 0.182142 -0.550137
    1 0.000005 3.345128 -2.981901 1.576773 0.008422 1.570808
    2 7.489221 0.582049 -0.039064 -0.508749 -0.079062 0.475348
    3 10.596343 1.889813 -1.609475 -2.833894 0.860793 2.025045
    4 6.028143 0.000001 0.000000 1.388986 1.137419 -0.794223
    5 11.692552 0.000000 0.000002 0.000000 0.000000 -1.680904
    6 10.682277 1.065563 2.175949 -0.885260 -1.333336 5.719672
    7 6.028142 0.000001 0.000000 -2.721429 -0.673441 0.000806
    8 11.692555 0.000000 0.000000 0.000000 0.000000 -1.261429
    9 15.391364 2.361872 0.375011 4.090100 0.061026 -0.229767
    10 3.886546 -0.199229 -0.000003 -2.143230 -0.756190 -0.629372
    11 17.848177 0.000000 0.000000 0.000000 0.000000 1.699450
    12 16.525253 0.000000 0.000000 0.035102 0.213087 -0.707041
    13 -3.886546 0.199228 0.000007 -1.227490 -1.130088 -1.615298
    14 17.848173 0.000000 0.000000 0.000000 0.000000 1.180269
    15 16.525257 0.000000 0.000000 -0.030206 0.056482 -1.263851
  time 32
    0 -32.877079 -25.259413 30.152598 1.832354 0.181003 -0.560393
    1 0.000005 3.345128 -2.981901 1.584939 0.008422 1.570832
    2 7.489221 0.582049 -0.039064 -0.492596 -0.080021 0.474438
    3 10.596343 1.889813 -1.609475 -2.837963 0.863744 2.021484
    4 6.028143 0.000001 0.000000 1.400189 1.141934 -0.782665
    5 11.692552 0.000000 0.000002 0.000000 0.000000 -1.674586
    6 10.682277 1.065563 2.175949 -0.903467 -1.339384 5.738270
    7 6.028142 0.000001 0.000000 -2.737768 -0.688123 0.011841
    8 11.692555 0.000000 0.000000 0.000000 0.000000 -1.233427
    9 15.391364 2.361872 0.375011 4.081104 0.059468 -0.231829
    10 3.886546 -0.175791 -0.000003 -2.210748 -0.842909 -0.591117
    11 17.848177 0.000000 0.000000 0.000000 0.000000 1.728417
    12 16.525253 0.000000 0.000000 0.050507 0.239838 -0.801690
    13 -3.886546 0.175790 0.000007 -1.246719 -1.107052 -1.595836
    14 17.848173 0.000000 0.000000 0.000000 0.000000 1.222750
    15 16.525257 0.000000 0.000000 -0.050736 0.059317 -1.334730
  time 33
    0 -33.748159 -26.246164 30.148692 1.830531 0.179877 -0.570532
    1 0.000005 3.345128 -2.981901 1.592475 0.008422 1.570856
    2 7.489221 0.582049 -0.042970 -0.477650 -0.080584 0.473528
    3 10.596343 1.889813 -1.609475 -2.841149 0.865998 2.018829
    4 6.028143 0.000001 0.000000 1.409386 1.146404 -0.772600
    5 11.692552 0.000000 0.000002 0.000000 0.000000 -1.670955
    6 10.682277 1.065563 2.175949 -0.918053 -1.343958 5.753129
    7 6.028142 0.000001 0.000000 -2.753265 -0.700692 0.020978
    8 11.692555 0.000000 0.000000 0.000000 0.000000 -1.210381
    9 15.391364 2.361872 0.375011 4.074086 0.058269 -0.233440
    10 3.890452 -0.144540 -0.000003 -2.303333 -0.932635 -0.540598
    11 17.848177 0.000000 0.000000 0.000000 0.000000 1.739154
    12 16.525253 0.000000 0.000000 0.047287 0.277372 -0.945216
    13 -3.890452 0.144539 0.000007 -1.268759 -1.081569 -1.576109
    14 17.848173 0.000000 0.000000 0.000000 0.000000 1.263185
    15 16.525257 0.000000 0.000000 -0.066748 0.059699 -1.408831
  time 34
    0 -34.615333 -27.232915 30.105722 1.828795 0.178762 -0.580261
    1 0.000005 3.345128 -2.981901 1.599031 0.008422 1.570880
    2 7.489221 0.582049 -0.042970 -0.464629 -0.080752 0.472661
    3 10.596343 1.889813 -1.609475 -2.843154 0.867438 2.017078
    4 6.028143 0.000001 0.000000 1.416410 1.150550 -0.764211
    5 11.692552 0.000000 0.000002 0.000000 0.000000 -1.671391
    6 10.682277 1.065563 2.175949 -0.927681 -1.346841 5.762907
    7 6.028142 0.000001 0.000000 -2.766583 -0.710165 0.026555
    8 11.692555 0.000000 0.000000 0.000000 0.000000 -1.195366
    9 15.391364 2.361872 0.375011 4.069489 0.057490 -0.234493
    10 3.890452 -0.105476 -0.000003 -2.410464 -1.007190 -0.482101
    11 17.848177 0.000000 0.000000 0.000000 0.000000 1.724400
    12 16.525253 0.000000 0.000000 0.019548 0.303697 -1.094797
    13 -3.890452 0.105476 0.000007 -1.292433 -1.053944 -1.556030
    14 17.848173 0.000000 0.000000 0.000000 0.000000 1.301000
    15 16.525257 0.000000 0.000000 -0.076959 0.058452 -1.482192
  time 35
    0 -35.478601 -28.219665 30.039313 1.827199 0.177731 -0.589228
    1 0.000005 3.345128 -2.981901 1.611178 0.008422 1.570916
    2 7.489221 0.582049 -0.042970 -0.440657 -0.083005 0.471454
    3 10.596343 1.889813 -1.609475 -2.843862 0.867932 2.016475
    4 6.028143 0.000001 0.000000 1.463816 1.132812 -0.724786
    5 11.692552 0.000000 0.000002 0.000000 0.000000 -1.696735
    6 10.682277 1.065563 2.175949 -0.931113 -1.347859 5.766454
    7 6.028142 0.000001 0.000000 -2.781040 -0.744437 0.050050
    8 11.692555 0.000000 0.000000 0.000000 0.000000 -1.170743
    9 15.391364 2.361872 0.375011 4.067858 0.057214 -0.234858
    10 3.890452 -0.058600 -0.000003 -2.498657 -1.051043 -0.434669
    11 17.848177 0.000000 0.000000 0.000000 0.000000 1.684310
    12 16.525253 0.000000 0.000000 -0.020064 0.296922 -1.208856
    13 -3.890452 0.058599 0.000007 -1.318736 -1.023609 -1.534806
    14 17.848173 0.000000 0.000000 0.000000 0.000000 1.333331
    15 16.525257 0.000000 0.000000 -0.079530 0.056964 -1.548772
end
