// Created by Crowbar 0.74
version 1
nodes
  0 "ValveBiped.Bip01" -1
  1 "ValveBiped.Bip01_Spine" 0
  2 "ValveBiped.Bip01_Spine2" 1
  3 "ValveBiped.Bip01_R_Clavicle" 2
  4 "ValveBiped.Bip01_R_UpperArm" 3
  5 "ValveBiped.Bip01_R_Forearm" 4
  6 "ValveBiped.Bip01_L_Clavicle" 2
  7 "ValveBiped.Bip01_L_UpperArm" 6
  8 "ValveBiped.Bip01_L_Forearm" 7
  9 "ValveBiped.Bip01_Head1" 2
  10 "ValveBiped.Bip01_L_Thigh" 0
  11 "ValveBiped.Bip01_L_Calf" 10
  12 "ValveBiped.Bip01_L_Foot" 11
  13 "ValveBiped.Bip01_R_Thigh" 0
  14 "ValveBiped.Bip01_R_Calf" 13
  15 "ValveBiped.Bip01_R_Foot" 14
end
skeleton
  time 0
    0 -0.002349 -0.531261 34.555076 1.649735 -0.050815 -0.131324
    1 0.000005 3.345128 -2.981901 1.571569 0.077672 1.570796
    2 7.516565 0.054689 -0.109378 -0.022822 0.034300 0.176380
    3 10.697909 1.417142 -1.945423 -1.982921 1.127621 2.830017
    4 6.028143 0.000001 0.000000 1.016005 -0.341132 -0.454871
    5 11.692552 0.000000 0.000002 0.000000 0.000000 -1.790847
    6 10.697902 1.440574 1.929847 2.094636 -1.100140 2.633188
    7 6.028142 0.000001 0.000000 -1.470095 0.006510 -0.868848
    8 11.692555 0.000000 0.000000 0.000000 0.000000 -1.712904
    9 15.024166 2.924389 0.093753 3.285164 -0.101905 0.235223
    10 3.843575 -0.605491 -0.000003 -2.472309 -0.541907 -0.897495
    11 17.848177 0.000000 0.000000 0.000000 0.000000 1.624677
    12 16.525253 0.000000 0.000000 0.012187 0.121642 -1.057930
    13 -3.843575 0.605491 0.000007 -1.858683 -0.593322 -1.485225
    14 17.848173 0.000000 0.000000 0.000000 0.000000 0.919900
    15 16.525257 0.000000 0.000000 -0.161272 -0.259989 -1.355923
  time 1
    0 -3.534350 3.000740 35.074623 1.636374 -0.050575 -0.162562
    1 0.000005 3.345128 -2.981901 1.569985 0.081550 1.570796
    2 7.516565 0.082034 -0.101566 -0.031071 0.033257 0.191871
    3 10.697909 1.409329 -1.953236 -1.919336 1.114797 2.894537
    4 6.028143 0.000001 0.000000 1.037660 -0.415218 -0.424859
    5 11.692552 0.000000 0.000002 0.000000 0.000000 -1.731155
    6 10.697902 1.448387 1.922035 2.103025 -1.071505 2.619863
    7 6.028142 0.000001 0.000000 -1.475888 -0.046217 -0.797217
    8 11.692555 0.000000 0.000000 0.000000 0.000000 -1.789326
    9 15.024166 2.924389 0.089846 3.321689 -0.110786 0.234127
    10 3.859201 -0.515645 -0.000003 -2.436812 -0.426641 -1.008656
    11 17.848177 0.000000 0.000000 0.000000 0.000000 1.634796
    12 16.525253 0.000000 0.000000 0.027993 0.240672 -0.981795
    13 -3.859201 0.515644 0.000007 -1.926709 -0.588427 -1.346961
    14 17.848173 0.000000 0.000000 0.000000 0.000000 0.752760
    15 16.525257 0.000000 0.000000 -0.229857 -0.189859 -1.127653
  time 2
    0 -7.066351 6.532742 35.883242 1.644405 -0.050467 -0.174811
    1 0.000005 3.345128 -2.981901 1.568838 0.092741 1.570796
    2 7.516565 0.070315 -0.082034 -0.035670 0.028787 0.184125
    3 10.697909 1.401517 -1.953236 -1.904471 1.129003 2.911618
    4 6.028143 0.000001 0.000000 1.112824 -0.486448 -0.485441
    5 11.692552 0.000000 0.000002 0.000000 0.000000 -1.656722
    6 10.697902 1.456200 1.918128 2.134579 -1.075038 2.588419
    7 6.028142 0.000001 0.000000 -1.466976 -0.075016 -0.757466
    8 11.692555 0.000000 0.000000 0.000000 0.000000 -1.863421
    9 15.024166 2.924389 0.074221 3.341805 -0.107058 0.232903
    10 3.878733 -0.304701 -0.000003 -2.404609 -0.320531 -1.138686
    11 17.848177 0.000000 0.000000 0.000000 0.000000 1.538162
    12 16.525253 0.000000 0.000000 0.073586 0.361351 -0.916325
    13 -3.878733 0.304700 0.000007 -1.924805 -0.499520 -1.301871
    14 17.848173 0.000000 0.000000 0.000000 0.000000 0.411685
    15 16.525257 0.000000 0.000000 -0.289784 -0.147254 -0.852662
  time 3
    0 -10.598352 10.064743 36.176219 1.665306 -0.050575 -0.162972
    1 0.000005 3.345128 -2.981901 1.568426 0.107367 1.570796
    2 7.516565 0.031251 -0.058596 -0.036848 0.021416 0.161671
    3 10.697909 1.401517 -1.957142 -1.926060 1.161209 2.892606
    4 6.028143 0.000001 0.000000 1.214744 -0.538051 -0.606885
    5 11.692552 0.000000 0.000002 0.000000 0.000000 -1.589914
    6 10.697902 1.456200 1.918128 2.182816 -1.100010 2.544033
    7 6.028142 0.000001 0.000000 -1.424743 -0.089623 -0.715026
    8 11.692555 0.000000 0.000000 0.000000 0.000000 -1.921826
    9 15.024166 2.924389 0.050783 3.344424 -0.092173 0.232108
    10 3.890452 -0.074225 -0.000003 -2.367191 -0.231703 -1.260226
    11 17.848177 0.000000 0.000000 0.000000 0.000000 1.384599
    12 16.525253 0.000000 0.000000 0.105762 0.429135 -0.888908
    13 -3.890452 0.074225 0.000007 -1.881449 -0.446018 -1.288045
    14 17.848173 0.000000 0.000000 0.000000 0.000000 0.162366
    15 16.525257 0.000000 0.000000 -0.283965 -0.140096 -0.662554
  time 4
    0 -14.130353 13.596745 35.754332 1.691747 -0.050815 -0.131617
    1 0.000005 3.345128 -2.981901 1.568864 0.118628 1.570796
    2 7.516565 -0.015625 -0.027345 -0.034319 0.012092 0.132403
    3 10.697909 1.401517 -1.953236 -1.978320 1.198971 2.842812
    4 6.028143 0.000001 0.000000 1.282050 -0.549477 -0.736903
    5 11.692552 0.000000 0.000002 0.000000 0.000000 -1.544093
    6 10.697902 1.456200 1.918128 2.238584 -1.134779 2.493991
    7 6.028142 0.000001 0.000000 -1.363301 -0.094152 -0.677411
    8 11.692555 0.000000 0.000000 0.000000 0.000000 -1.942545
    9 15.024166 2.924389 0.023438 3.325297 -0.067425 0.232344
    10 3.890452 0.035153 -0.000003 -2.324466 -0.169671 -1.353717
    11 17.848177 0.000000 0.000000 0.000000 0.000000 1.245017
    12 16.525253 0.000000 0.000000 0.111357 0.479262 -0.921066
    13 -3.890452 -0.035154 0.000007 -1.808072 -0.655916 -1.232915
    14 17.848173 0.000000 0.000000 0.000000 0.000000 0.514409
    15 16.525257 0.000000 0.000000 -0.213130 -0.165309 -0.808497
  time 5
    0 -17.662355 17.128746 34.844148 1.711017 -0.051066 -0.086430
    1 0.000005 3.345128 -2.981901 1.569972 0.122553 1.570796
    2 7.516565 -0.058595 0.000000 -0.027277 0.002049 0.109865
    3 10.697909 1.409329 -1.953236 -2.042319 1.219196 2.779559
    4 6.028143 0.000001 0.000000 1.303621 -0.517732 -0.838028
    5 11.692552 0.000000 0.000002 0.000000 0.000000 -1.524341
    6 10.697902 1.448387 1.922035 2.264418 -1.162286 2.472422
    7 6.028142 0.000001 0.000000 -1.298689 -0.079847 -0.658109
    8 11.692555 0.000000 0.000000 0.000000 0.000000 -1.932561
    9 15.024166 2.924389 0.000000 3.276663 -0.034372 0.233805
    10 3.890452 0.058592 -0.000003 -2.274697 -0.129633 -1.415645
    11 17.848177 0.000000 0.000000 0.000000 0.000000 1.140041
    12 16.525253 0.000000 0.000000 0.078988 0.501762 -1.020615
    13 -3.890452 -0.058592 0.000007 -1.698957 -0.851258 -1.255548
    14 17.848173 0.000000 0.000000 0.000000 0.000000 0.902139
    15 16.525257 0.000000 0.000000 -0.103790 -0.168707 -1.038953
  time 6
    0 -21.194356 20.660747 34.137095 1.715787 -0.051222 -0.032745
    1 0.000005 3.345128 -2.981901 1.571543 0.115638 1.570796
    2 7.516565 -0.070315 0.035157 -0.015924 -0.009336 0.102034
    3 10.697909 1.417142 -1.945423 -2.098885 1.212842 2.721496
    4 6.028143 0.000001 0.000000 1.310477 -0.443830 -0.902711
    5 11.692552 0.000000 0.000002 0.000000 0.000000 -1.539590
    6 10.697902 1.440574 1.929847 2.234103 -1.177026 2.504824
    7 6.028142 0.000001 0.000000 -1.232246 -0.039310 -0.638293
    8 11.692555 0.000000 0.000000 0.000000 0.000000 -1.907638
    9 15.024166 2.924389 -0.023438 3.210483 0.002277 0.235438
    10 3.890452 0.097655 -0.000003 -2.218433 -0.103600 -1.456558
    11 17.848177 0.000000 0.000000 0.000000 0.000000 1.029040
    12 16.525253 0.000000 0.000000 0.028883 0.426023 -1.126346
    13 -3.890452 -0.097656 0.000007 -1.564991 -0.958131 -1.343350
    14 17.848173 0.000000 0.000000 0.000000 0.000000 1.190173
    15 16.525257 0.000000 0.000000 -0.009624 -0.115245 -1.237805
  time 7
    0 -24.726357 24.192749 33.773802 1.699603 -0.051234 0.024339
    1 0.000005 3.345128 -2.981901 1.573372 0.100264 1.570796
    2 7.516565 -0.046876 0.070315 -0.002012 -0.021105 0.115896
    3 10.697909 1.428861 -1.937610 -2.131504 1.179661 2.684558
    4 6.028143 0.000001 0.000000 1.306045 -0.337123 -0.912870
    5 11.692552 0.000000 0.000002 0.000000 0.000000 -1.583161
    6 10.697902 1.428855 1.937660 2.142587 -1.175227 2.596184
    7 6.028142 0.000001 0.000000 -1.164367 0.025986 -0.597949
    8 11.692555 0.000000 0.000000 0.000000 0.000000 -1.875432
    9 15.024166 2.924389 -0.046876 3.143858 0.037512 0.236683
    10 3.882639 0.289067 -0.000003 -2.193914 -0.085286 -1.460160
    11 17.848177 0.000000 0.000000 0.000000 0.000000 0.907997
    12 16.525253 0.000000 0.000000 -0.023759 0.272185 -1.472111
    13 -3.882639 -0.289068 0.000007 -1.422408 -0.984444 -1.468492
    14 17.848173 0.000000 0.000000 0.000000 0.000000 1.418866
    15 16.525257 0.000000 0.000000 0.058658 -0.041194 -1.380858
  time 8
    0 -28.258358 27.724750 33.762083 1.667287 -0.051090 0.079490
    1 0.000005 3.345128 -2.981901 1.575292 0.084821 1.570796
    2 7.516565 0.003906 0.093753 0.011612 -0.029314 0.146688
    3 10.697909 1.444487 -1.929797 -2.143006 1.132056 2.666572
    4 6.028143 0.000001 0.000000 1.290494 -0.224058 -0.870836
    5 11.692552 0.000000 0.000002 0.000000 0.000000 -1.642925
    6 10.697902 1.413230 1.945473 2.024570 -1.158796 2.713523
    7 6.028142 0.000001 0.000000 -1.102775 0.101322 -0.537314
    8 11.692555 0.000000 0.000000 0.000000 0.000000 -1.838122
    9 15.024166 2.924389 -0.062502 3.075948 0.068324 0.237328
    10 3.855295 0.519543 -0.000003 -2.089070 -0.143413 -1.446179
    11 17.848177 0.000000 0.000000 0.000000 0.000000 0.816616
    12 16.525253 0.000000 0.000000 -0.039002 0.134499 -1.674925
    13 -3.855295 -0.519543 0.000007 -1.309212 -0.940952 -1.595836
    14 17.848173 0.000000 0.000000 0.000000 0.000000 1.585352
    15 16.525257 0.000000 0.000000 0.111695 0.013857 -1.447772
  time 9
    0 -31.790359 31.256752 34.293350 1.635234 -0.050839 0.127255
    1 0.000005 3.345128 -2.981901 1.577095 0.077695 1.570796
    2 7.516565 0.058596 0.097659 0.022793 -0.031795 0.177586
    3 10.697909 1.456206 -1.918078 -2.143595 1.086182 2.659148
    4 6.028143 0.000001 0.000000 1.262485 -0.130990 -0.799349
    5 11.692552 0.000000 0.000002 0.000000 0.000000 -1.711839
    6 10.697902 1.401511 1.957192 1.922853 -1.135689 2.814949
    7 6.028142 0.000001 0.000000 -1.058612 0.170544 -0.476165
    8 11.692555 0.000000 0.000000 0.000000 0.000000 -1.795482
    9 15.024166 2.924389 -0.066408 3.020938 0.087751 0.237135
    10 3.843575 0.605483 -0.000003 -2.084770 -0.259846 -1.332188
    11 17.848177 0.000000 0.000000 0.000000 0.000000 0.845351
    12 16.525253 0.000000 0.000000 -0.045784 0.176997 -1.527395
    13 -3.843575 -0.605484 0.000007 -1.275381 -0.845226 -1.680555
    14 17.848173 0.000000 0.000000 0.000000 0.000000 1.661146
    15 16.525257 0.000000 0.000000 0.154467 0.044861 -1.399680
  time 10
    0 -35.322360 34.788753 35.230878 1.619839 -0.050587 0.161424
    1 0.000005 3.345128 -2.981901 1.578628 0.082788 1.570796
    2 7.516565 0.082034 0.089846 0.030496 -0.030201 0.191850
    3 10.697909 1.464019 -1.914172 -2.150792 1.059049 2.647499
    4 6.028143 0.000001 0.000000 1.225362 -0.066809 -0.735039
    5 11.692552 0.000000 0.000002 0.000000 0.000000 -1.784674
    6 10.697902 1.393698 1.961098 1.862033 -1.123030 2.876686
    7 6.028142 0.000001 0.000000 -1.067969 0.244560 -0.478221
    8 11.692555 0.000000 0.000000 0.000000 0.000000 -1.733173
    9 15.024166 2.924389 -0.058596 2.986340 0.095277 0.236426
    10 3.859201 0.503918 -0.000003 -2.043601 -0.334401 -1.281669
    11 17.848177 0.000000 0.000000 0.000000 0.000000 0.713648
    12 16.525253 0.000000 0.000000 -0.070272 0.175105 -1.303504
    13 -3.859201 -0.503918 0.000007 -1.301956 -0.735731 -1.728816
    14 17.848173 0.000000 0.000000 0.000000 0.000000 1.649769
    15 16.525257 0.000000 0.000000 0.189795 0.063841 -1.289935
  time 11
    0 -38.854361 38.320755 36.016058 1.629062 -0.050467 0.174728
    1 0.000005 3.345128 -2.981901 1.579723 0.094073 1.570796
    2 7.516565 0.066408 0.070315 0.034865 -0.025216 0.181607
    3 10.697909 1.467925 -1.910265 -2.182289 1.062452 2.615993
    4 6.028143 0.000001 0.000000 1.189327 -0.024836 -0.703443
    5 11.692552 0.000000 0.000002 0.000000 0.000000 -1.855331
    6 10.697902 1.389792 1.965005 1.845827 -1.137358 2.895284
    7 6.028142 0.000001 0.000000 -1.129214 0.312838 -0.557328
    8 11.692555 0.000000 0.000000 0.000000 0.000000 -1.655100
    9 15.024166 2.924389 -0.046876 2.970574 0.094690 0.235481
    10 3.882639 0.296880 -0.000003 -2.032257 -0.346565 -1.261169
    11 17.848177 0.000000 0.000000 0.000000 0.000000 0.426219
    12 16.525253 0.000000 0.000000 -0.088913 0.186904 -1.010846
    13 -3.882639 -0.296880 0.000007 -1.354110 -0.650146 -1.762369
    14 17.848173 0.000000 0.000000 0.000000 0.000000 1.595829
    15 16.525257 0.000000 0.000000 0.220053 0.070938 -1.185934
  time 12
    0 -42.386363 41.852756 36.207470 1.651541 -0.050575 0.162244
    1 0.000005 3.345128 -2.981901 1.580199 0.106690 1.570796
    2 7.516565 0.027345 0.046876 0.036101 -0.017821 0.158984
    3 10.697909 1.467925 -1.906359 -2.236378 1.089133 2.565717
    4 6.028143 0.000001 0.000000 1.162655 -0.003688 -0.705866
    5 11.692552 0.000000 0.000002 0.000000 0.000000 -1.911174
    6 10.697902 1.385885 1.965005 1.866418 -1.173363 2.878124
    7 6.028142 0.000001 0.000000 -1.212342 0.359980 -0.678993
    8 11.692555 0.000000 0.000000 0.000000 0.000000 -1.584758
    9 15.024166 2.924389 -0.031251 2.974676 0.085210 0.234858
    10 3.890452 0.089843 -0.000003 -2.023016 -0.275780 -1.298737
    11 17.848177 0.000000 0.000000 0.000000 0.000000 0.000058
    12 16.525253 0.000000 0.000000 -0.100742 0.179113 -0.680200
    13 -3.890452 -0.089843 0.000007 -1.423496 -0.595595 -1.785002
    14 17.848173 0.000000 0.000000 0.000000 0.000000 1.539842
    15 16.525257 0.000000 0.000000 0.228497 0.028373 -1.096382
  time 13
    0 -45.918364 45.384758 35.887148 1.677562 -0.050827 0.129072
    1 0.000005 3.345128 -2.981901 1.579800 0.116806 1.570796
    2 7.516565 -0.015625 0.015625 0.033974 -0.008988 0.133757
    3 10.697909 1.467925 -1.910265 -2.297133 1.123594 2.510129
    4 6.028143 0.000001 0.000000 1.145850 -0.011889 -0.725439
    5 11.692552 0.000000 0.000002 0.000000 0.000000 -1.931289
    6 10.697902 1.389792 1.965005 1.915418 -1.213595 2.832301
    7 6.028142 0.000001 0.000000 -1.278736 0.373265 -0.805840
    8 11.692555 0.000000 0.000000 0.000000 0.000000 -1.536488
    9 15.024166 2.924389 -0.011719 3.001464 0.065484 0.234879
    10 3.890452 -0.027349 -0.000003 -2.060892 -0.421434 -1.224630
    11 17.848177 0.000000 0.000000 0.000000 0.000000 0.173782
    12 16.525253 0.000000 0.000000 -0.128495 0.162919 -0.717675
    13 -3.890452 0.027348 0.000007 -1.501137 -0.556868 -1.798916
    14 17.848173 0.000000 0.000000 0.000000 0.000000 1.457254
    15 16.525257 0.000000 0.000000 0.174211 -0.073183 -0.995382
  time 14
    0 -49.450365 48.916759 35.250410 1.699550 -0.051078 0.081717
    1 0.000005 3.345128 -2.981901 1.578744 0.121058 1.570796
    2 7.516565 -0.050783 -0.007813 0.027823 0.000395 0.113505
    3 10.697909 1.464019 -1.914172 -2.320196 1.147571 2.490633
    4 6.028143 0.000001 0.000000 1.123861 -0.051374 -0.727210
    5 11.692552 0.000000 0.000002 0.000000 0.000000 -1.921994
    6 10.697902 1.393698 1.961098 1.972710 -1.231868 2.775836
    7 6.028142 0.000001 0.000000 -1.323940 0.349562 -0.905672
    8 11.692555 0.000000 0.000000 0.000000 0.000000 -1.515543
    9 15.024166 2.924389 0.003906 3.055683 0.033653 0.235523
    10 3.890452 -0.066412 -0.000003 -2.164547 -0.605195 -1.087652
    11 17.848177 0.000000 0.000000 0.000000 0.000000 0.566573
    12 16.525253 0.000000 0.000000 -0.147493 0.145729 -0.903449
    13 -3.890452 0.066412 0.000007 -1.578143 -0.531865 -1.804024
    14 17.848173 0.000000 0.000000 0.000000 0.000000 1.356004
    15 16.525257 0.000000 0.000000 0.057034 -0.179545 -0.950402
  time 15
    0 -52.982366 52.448761 34.637110 1.710579 -0.051234 0.026449
    1 0.000005 3.345128 -2.981901 1.577211 0.115100 1.570796
    2 7.516565 -0.066408 -0.042970 0.017418 0.011613 0.105039
    3 10.697909 1.456206 -1.918078 -2.291234 1.161428 2.521415
    4 6.028143 0.000001 0.000000 1.096521 -0.115048 -0.698783
    5 11.692552 0.000000 0.000002 0.000000 0.000000 -1.898321
    6 10.697902 1.401511 1.957192 2.028955 -1.225604 2.717933
    7 6.028142 0.000001 0.000000 -1.366123 0.287285 -0.970499
    8 11.692555 0.000000 0.000000 0.000000 0.000000 -1.531083
    9 15.024166 2.924389 0.031251 3.121468 -0.005729 0.235910
    10 3.890452 -0.105476 -0.000003 -2.311658 -0.719294 -0.931461
    11 17.848177 0.000000 0.000000 0.000000 0.000000 0.996597
    12 16.525253 0.000000 0.000000 -0.123672 0.127542 -1.088070
    13 -3.890452 0.105476 0.000007 -1.647620 -0.475435 -1.787644
    14 17.848173 0.000000 0.000000 0.000000 0.000000 1.102920
    15 16.525257 0.000000 0.000000 -0.025654 -0.248006 -1.275226
  time 16
    0 -56.514367 55.980762 34.301162 1.701987 -0.051222 -0.031104
    1 0.000005 3.345128 -2.981901 1.575395 0.101035 1.570796
    2 7.516565 -0.042970 -0.082034 0.003823 0.023562 0.116996
    3 10.697909 1.444487 -1.925891 -2.209658 1.164292 2.603620
    4 6.028143 0.000001 0.000000 1.064247 -0.191346 -0.635405
    5 11.692552 0.000000 0.000002 0.000000 0.000000 -1.867676
    6 10.697902 1.413230 1.949379 2.072806 -1.196687 2.669713
    7 6.028142 0.000001 0.000000 -1.408256 0.193379 -0.987309
    8 11.692555 0.000000 0.000000 0.000000 0.000000 -1.576651
    9 15.024166 2.920483 0.058596 3.181025 -0.044619 0.236060
    10 3.882639 -0.265637 -0.000003 -2.426566 -0.725264 -0.841400
    11 17.848177 0.000000 0.000000 0.000000 0.000000 1.303028
    12 16.525253 0.000000 0.000000 -0.065820 0.107259 -1.146942
    13 -3.882639 0.265637 0.000007 -1.657598 -0.477752 -1.771440
    14 17.848173 0.000000 0.000000 0.000000 0.000000 0.973431
    15 16.525257 0.000000 0.000000 -0.046665 -0.356278 -1.555145
  time 17
    0 -60.046368 59.512763 34.297256 1.677545 -0.051066 -0.085258
    1 0.000005 3.345128 -2.981901 1.573462 0.085686 1.570796
    2 7.516565 0.000000 -0.105472 -0.010462 0.031879 0.145164
    3 10.697909 1.428861 -1.937610 -2.092928 1.151627 2.720108
    4 6.028143 0.000001 0.000000 1.033396 -0.267921 -0.544998
    5 11.692552 0.000000 0.000002 0.000000 0.000000 -1.832094
    6 10.697902 1.428855 1.937660 2.092635 -1.150082 2.642966
    7 6.028142 0.000001 0.000000 -1.445835 0.090905 -0.947796
    8 11.692555 0.000000 0.000000 0.000000 0.000000 -1.639260
    9 15.024166 2.924389 0.085940 3.235195 -0.079721 0.235932
    10 3.863107 -0.488300 -0.000003 -2.484477 -0.654210 -0.829993
    11 17.848177 0.000000 0.000000 0.000000 0.000000 1.511203
    12 16.525253 0.000000 0.000000 -0.010001 0.097128 -1.125802
    13 -3.863107 0.488300 0.000007 -1.822130 -0.526314 -1.630534
    14 17.848173 0.000000 0.000000 0.000000 0.000000 0.955506
    15 16.525257 0.000000 0.000000 -0.050736 -0.283494 -1.542659
  time 18
    0 -63.578370 63.044765 34.555076 1.649735 -0.050815 -0.131324
    1 0.000005 3.345128 -2.981901 1.571569 0.077672 1.570796
    2 7.516565 0.054689 -0.109378 -0.022822 0.034300 0.176380
    3 10.697909 1.417142 -1.945423 -1.982921 1.127621 2.830017
    4 6.028143 0.000001 0.000000 1.016005 -0.341132 -0.454871
    5 11.692552 0.000000 0.000002 0.000000 0.000000 -1.790847
    6 10.697902 1.440574 1.929847 2.094636 -1.100140 2.633188
    7 6.028142 0.000001 0.000000 -1.470095 0.006510 -0.868848
    8 11.692555 0.000000 0.000000 0.000000 0.000000 -1.712904
    9 15.024166 2.924389 0.093753 3.285164 -0.101905 0.235223
    10 3.843575 -0.605491 -0.000003 -2.472309 -0.541907 -0.897495
    11 17.848177 0.000000 0.000000 0.000000 0.000000 1.624677
    12 16.525253 0.000000 0.000000 0.012187 0.121642 -1.057930
    13 -3.843575 0.605491 0.000007 -1.858683 -0.593322 -1.485225
    14 17.848173 0.000000 0.000000 0.000000 0.000000 0.919900
    15 16.525257 0.000000 0.000000 -0.161272 -0.259989 -1.355923
end
