// Created by Crowbar 0.74
version 1
nodes
  0 "ValveBiped.Bip01" -1
  1 "ValveBiped.Bip01_Spine" 0
  2 "ValveBiped.Bip01_Spine2" 1
  3 "ValveBiped.Bip01_R_Clavicle" 2
  4 "ValveBiped.Bip01_R_UpperArm" 3
  5 "ValveBiped.Bip01_R_Forearm" 4
  6 "ValveBiped.Bip01_L_Clavicle" 2
  7 "ValveBiped.Bip01_L_UpperArm" 6
  8 "ValveBiped.Bip01_L_Forearm" 7
  9 "ValveBiped.Bip01_Head1" 2
  10 "ValveBiped.Bip01_L_Thigh" 0
  11 "ValveBiped.Bip01_L_Calf" 10
  12 "ValveBiped.Bip01_L_Foot" 11
  13 "ValveBiped.Bip01_R_Thigh" 0
  14 "ValveBiped.Bip01_R_Calf" 13
  15 "ValveBiped.Bip01_R_Foot" 14
end
skeleton
  time 0
    0 -0.002349 -0.531261 35.816833 1.772265 -0.058868 -0.222049
    1 0.000005 3.345128 -2.981901 1.587297 0.128838 1.570796
    2 7.516565 0.054689 -0.121097 0.197176 0.011170 0.173692
    3 10.701815 1.542146 -1.847764 -2.228887 1.064008 2.584186
    4 6.028143 0.000001 0.000000 1.226366 0.049020 -0.603623
    5 11.692552 0.000000 0.000002 0.000000 0.000000 -1.711839
    6 10.697902 1.315571 2.019694 1.815513 -1.147481 2.912636
    7 6.028142 0.000001 0.000000 -1.131887 0.317556 -0.678044
    8 11.692555 0.000000 0.000000 0.000000 0.000000 -1.795482
    9 15.031978 2.916576 0.054689 3.107431 -0.051642 0.237177
    10 3.843575 -0.605491 -0.000003 -1.368152 -0.872713 -1.649631
    11 17.848177 0.000000 0.000000 0.000000 0.000000 1.779476
    12 16.525253 0.000000 0.000000 -0.189657 0.144244 -1.265229
    13 -3.843575 0.605491 0.000007 -1.240733 -0.317072 -1.664087
    14 17.848173 0.000000 0.000000 0.000000 0.000000 0.936925
    15 16.525257 0.000000 0.000000 0.028775 -0.134487 -1.427505
  time 1
    0 -4.947071 -5.475983 36.555137 1.759149 -0.058425 -0.253287
    1 0.000005 3.345128 -2.981901 1.596378 0.132787 1.570796
    2 7.516565 0.082034 -0.117191 0.250696 0.003392 0.188527
    3 10.701815 1.589022 -1.808700 -2.267168 1.025040 2.546946
    4 6.028143 0.000001 0.000000 1.210146 0.118269 -0.523561
    5 11.692552 0.000000 0.000002 0.000000 0.000000 -1.784674
    6 10.693996 1.260881 2.054851 1.705693 -1.134822 3.017992
    7 6.028142 0.000001 0.000000 -1.127233 0.413047 -0.672902
    8 11.692555 0.000000 0.000000 0.000000 0.000000 -1.733173
    9 15.031978 2.912670 0.097659 3.095471 -0.047950 0.236340
    10 3.859201 -0.515645 -0.000003 -1.362389 -0.956918 -1.797416
    11 17.848177 0.000000 0.000000 0.000000 0.000000 1.530824
    12 16.525253 0.000000 0.000000 -0.341975 0.161353 -1.353375
    13 -3.859201 0.515644 0.000007 -1.223136 -0.244294 -1.647266
    14 17.848173 0.000000 0.000000 0.000000 0.000000 1.098009
    15 16.525257 0.000000 0.000000 0.055641 -0.221949 -1.242362
  time 2
    0 -9.891792 -10.420706 37.406726 1.767267 -0.058233 -0.265478
    1 0.000005 3.345128 -2.981901 1.602831 0.144258 1.570796
    2 7.516565 0.070315 -0.101566 0.275041 -0.002840 0.180168
    3 10.701815 1.616367 -1.781355 -2.315890 1.019733 2.500653
    4 6.028143 0.000001 0.000000 1.195347 0.162408 -0.491686
    5 11.692552 0.000000 0.000002 0.000000 0.000000 -1.855331
    6 10.693996 1.229630 2.074383 1.655169 -1.148522 3.068896
    7 6.028142 0.000001 0.000000 -1.192241 0.488761 -0.739232
    8 11.692555 0.000000 0.000000 0.000000 0.000000 -1.655100
    9 15.031978 2.912670 0.117191 3.089589 -0.037560 0.235631
    10 3.878733 -0.304701 -0.000003 -1.390292 -0.914591 -1.862003
    11 17.848177 0.000000 0.000000 0.000000 0.000000 1.130617
    12 16.525253 0.000000 0.000000 -0.448536 0.119079 -1.328424
    13 -3.878733 0.304700 0.000007 -1.245177 -0.203949 -1.597597
    14 17.848173 0.000000 0.000000 0.000000 0.000000 1.234946
    15 16.525257 0.000000 0.000000 0.085060 -0.267147 -1.029950
  time 3
    0 -14.836514 -15.365428 37.723142 1.788080 -0.058413 -0.253697
    1 0.000005 3.345128 -2.981901 1.605691 0.159234 1.570796
    2 7.516565 0.027345 -0.074221 0.274667 -0.008102 0.157375
    3 10.701815 1.624180 -1.777449 -2.376880 1.040685 2.442711
    4 6.028143 0.000001 0.000000 1.201617 0.175861 -0.509674
    5 11.692552 0.000000 0.000002 0.000000 0.000000 -1.911174
    6 10.693996 1.221818 2.078289 1.649449 -1.185350 3.078771
    7 6.028142 0.000001 0.000000 -1.267992 0.526467 -0.835109
    8 11.692555 0.000000 0.000000 0.000000 0.000000 -1.584758
    9 15.028072 2.912670 0.109378 3.086772 -0.021273 0.235459
    10 3.890452 -0.074225 -0.000003 -1.398983 -0.815439 -1.908148
    11 17.848177 0.000000 0.000000 0.000000 0.000000 0.705537
    12 16.525253 0.000000 0.000000 -0.430964 0.152137 -1.213308
    13 -3.890452 0.074225 0.000007 -1.256877 -0.190399 -1.523269
    14 17.848173 0.000000 0.000000 0.000000 0.000000 1.383179
    15 16.525257 0.000000 0.000000 0.146452 -0.281704 -0.868149
  time 4
    0 -19.781236 -20.310150 37.625482 1.814277 -0.058868 -0.222342
    1 0.000005 3.345128 -2.981901 1.603334 0.170776 1.570796
    2 7.516565 -0.019532 -0.042970 0.250724 -0.012548 0.128065
    3 10.701815 1.616367 -1.781355 -2.435039 1.073503 2.387304
    4 6.028143 0.000001 0.000000 1.220931 0.154207 -0.558699
    5 11.692552 0.000000 0.000002 0.000000 0.000000 -1.931289
    6 10.693996 1.229630 2.074383 1.685007 -1.228140 3.048861
    7 6.028142 0.000001 0.000000 -1.315176 0.520050 -0.929680
    8 11.692555 0.000000 0.000000 0.000000 0.000000 -1.536488
    9 15.028072 2.916576 0.085940 3.088403 -0.001906 0.235738
    10 3.890452 0.035153 -0.000003 -1.391847 -0.674409 -1.906004
    11 17.848177 0.000000 0.000000 0.000000 0.000000 0.353068
    12 16.525253 0.000000 0.000000 -0.210227 0.090923 -0.996240
    13 -3.890452 -0.035154 0.000007 -1.257331 -0.247048 -1.471398
    14 17.848173 0.000000 0.000000 0.000000 0.000000 1.504073
    15 16.525257 0.000000 0.000000 0.189117 -0.287414 -0.739657
  time 5
    0 -24.725958 -25.254872 37.141093 1.833179 -0.059408 -0.177097
    1 0.000005 3.345128 -2.981901 1.597048 0.174795 1.570796
    2 7.516565 -0.062502 -0.007813 0.199591 -0.016095 0.105971
    3 10.701815 1.592929 -1.804793 -2.444300 1.103659 2.378612
    4 6.028143 0.000001 0.000000 1.224944 0.101452 -0.605114
    5 11.692552 0.000000 0.000002 0.000000 0.000000 -1.921994
    6 10.693996 1.256975 2.054851 1.765941 -1.248927 2.971497
    7 6.028142 0.000001 0.000000 -1.345031 0.470757 -1.003882
    8 11.692555 0.000000 0.000000 0.000000 0.000000 -1.515543
    9 15.024166 2.920483 0.046876 3.096261 0.016503 0.236275
    10 3.890452 0.058592 -0.000003 -1.363212 -0.577052 -1.892023
    11 17.848177 0.000000 0.000000 0.000000 0.000000 0.167911
    12 16.525253 0.000000 0.000000 0.068169 -0.156231 -0.813477
    13 -3.890452 -0.058592 0.000007 -1.229939 -0.369743 -1.472279
    14 17.848173 0.000000 0.000000 0.000000 0.000000 1.642075
    15 16.525257 0.000000 0.000000 0.210021 -0.249112 -0.654403
  time 6
    0 -29.670680 -30.199595 36.305130 1.837492 -0.059887 -0.123412
    1 0.000005 3.345128 -2.981901 1.587979 0.167716 1.570796
    2 7.516565 -0.074221 0.031251 0.118248 -0.019487 0.098881
    3 10.701815 1.546052 -1.843857 -2.385964 1.132173 2.435106
    4 6.028143 0.000001 0.000000 1.201701 0.029485 -0.635498
    5 11.692552 0.000000 0.000002 0.000000 0.000000 -1.898321
    6 10.697902 1.307758 2.023600 1.889965 -1.241818 2.849077
    7 6.028142 0.000001 0.000000 -1.390928 0.378663 -1.053323
    8 11.692555 0.000000 0.000000 0.000000 0.000000 -1.531083
    9 15.024166 2.924389 0.000000 3.118058 0.030237 0.236791
    10 3.890452 0.097655 -0.000003 -1.309692 -0.662065 -1.869722
    11 17.848177 0.000000 0.000000 0.000000 0.000000 0.559853
    12 16.525253 0.000000 0.000000 0.067278 -0.184264 -1.108538
    13 -3.890452 -0.097656 0.000007 -1.157650 -0.508874 -1.535863
    14 17.848173 0.000000 0.000000 0.000000 0.000000 1.865120
    15 16.525257 0.000000 0.000000 0.179870 -0.149687 -0.725763
  time 7
    0 -34.615402 -35.144317 35.785583 1.820782 -0.060211 -0.066327
    1 0.000005 3.345128 -2.981901 1.577224 0.151968 1.570796
    2 7.516565 -0.050783 0.074221 0.012618 -0.021321 0.113547
    3 10.697909 1.479644 -1.898546 -2.250122 1.154681 2.566562
    4 6.028143 0.000001 0.000000 1.147522 -0.050775 -0.633354
    5 11.692552 0.000000 0.000002 0.000000 0.000000 -1.867676
    6 10.697902 1.378073 1.972817 2.025523 -1.204512 2.713715
    7 6.028142 0.000001 0.000000 -1.457965 0.252221 -1.055578
    8 11.692555 0.000000 0.000000 0.000000 0.000000 -1.576651
    9 15.024166 2.924389 -0.046876 3.169163 0.034683 0.237113
    10 3.882639 0.289067 -0.000003 -1.294139 -0.572384 -1.748698
    11 17.848177 0.000000 0.000000 0.000000 0.000000 0.742692
    12 16.525253 0.000000 0.000000 -0.038378 -0.093105 -1.375956
    13 -3.882639 -0.289068 0.000007 -1.030849 -0.606348 -1.682845
    14 17.848173 0.000000 0.000000 0.000000 0.000000 2.050840
    15 16.525257 0.000000 0.000000 0.097574 -0.037052 -0.877708
  time 8
    0 -39.560123 -40.089039 35.672298 1.787975 -0.060342 -0.011060
    1 0.000005 3.345128 -2.981901 1.565811 0.136151 1.570796
    2 7.516565 0.000000 0.105472 -0.097640 -0.017833 0.144593
    3 10.697909 1.397610 -1.957142 -2.054705 1.157880 2.755114
    4 6.028143 0.000001 0.000000 1.077123 -0.133017 -0.586473
    5 11.692552 0.000000 0.000002 0.000000 0.000000 -1.832094
    6 10.697902 1.460106 1.918128 2.128192 -1.142170 2.610564
    7 6.028142 0.000001 0.000000 -1.530449 0.121364 -0.995220
    8 11.692555 0.000000 0.000000 0.000000 0.000000 -1.639260
    9 15.024166 2.920483 -0.089846 3.234701 0.030609 0.236232
    10 3.855295 0.519543 -0.000003 -1.298897 -0.298403 -1.560428
    11 17.848177 0.000000 0.000000 0.000000 0.000000 0.566341
    12 16.525253 0.000000 0.000000 -0.123568 -0.021963 -1.526402
    13 -3.855295 -0.519543 0.000007 -0.931349 -0.557523 -1.800325
    14 17.848173 0.000000 0.000000 0.000000 0.000000 2.061726
    15 16.525257 0.000000 0.000000 0.033559 0.012469 -1.116649
  time 9
    0 -44.504845 -45.033761 35.984807 1.755484 -0.060306 0.036706
    1 0.000005 3.345128 -2.981901 1.554772 0.128838 1.570796
    2 7.516565 0.058596 0.113285 -0.188582 -0.009336 0.175089
    3 10.697909 1.323389 -2.015737 -1.870732 1.139937 2.931536
    4 6.028143 0.000001 0.000000 1.021523 -0.213968 -0.513868
    5 11.692552 0.000000 0.000002 0.000000 0.000000 -1.791573
    6 10.701809 1.534327 1.855626 2.186820 -1.075862 2.551607
    7 6.028142 0.000001 0.000000 -1.584217 0.019155 -0.894992
    8 11.692555 0.000000 0.000000 0.000000 0.000000 -1.711553
    9 15.028072 2.916576 -0.117191 3.297174 0.019427 0.234127
    10 3.843575 0.605483 -0.000003 -1.281240 0.008076 -1.373359
    11 17.848177 0.000000 0.000000 0.000000 0.000000 0.207306
    12 16.525253 0.000000 0.000000 -0.221447 0.017361 -1.381209
    13 -3.843575 -0.605484 0.000007 -0.832756 -0.530161 -1.973287
    14 17.848173 0.000000 0.000000 0.000000 0.000000 1.978565
    15 16.525257 0.000000 0.000000 -0.004179 -0.026396 -1.336767
  time 10
    0 -49.449567 -49.978484 36.703579 1.739756 -0.060199 0.070874
    1 0.000005 3.345128 -2.981901 1.545253 0.134072 1.570796
    2 7.516565 0.082034 0.105472 -0.247390 -0.000683 0.188591
    3 10.694003 1.264794 -2.050895 -1.753235 1.125906 3.043979
    4 6.028143 0.000001 0.000000 1.012493 -0.297776 -0.477426
    5 11.692552 0.000000 0.000002 0.000000 0.000000 -1.732462
    6 10.701809 1.585110 1.808750 2.228288 -1.032834 2.511055
    7 6.028142 0.000001 0.000000 -1.609270 -0.043613 -0.807422
    8 11.692555 0.000000 0.000000 0.000000 0.000000 -1.787975
    9 15.028072 2.912670 -0.136723 3.334342 0.008377 0.232108
    10 3.859201 0.503918 -0.000003 -1.260472 -0.010238 -1.290160
    11 17.848177 0.000000 0.000000 0.000000 0.000000 0.389064
    12 16.525253 0.000000 0.000000 -0.364445 0.092876 -1.125225
    13 -3.859201 -0.503918 0.000007 -0.739152 -0.559359 -2.188433
    14 17.848173 0.000000 0.000000 0.000000 0.000000 1.709848
    15 16.525257 0.000000 0.000000 0.091880 -0.074088 -1.477079
  time 11
    0 -54.394289 -54.923206 37.613763 1.748856 -0.060127 0.084178
    1 0.000005 3.345128 -2.981901 1.538465 0.145637 1.570796
    2 7.516565 0.066408 0.089846 -0.274207 0.006052 0.177628
    3 10.694003 1.233543 -2.070427 -1.701033 1.138817 3.095946
    4 6.028143 0.000001 0.000000 1.059816 -0.372969 -0.514055
    5 11.692552 0.000000 0.000002 0.000000 0.000000 -1.658102
    6 10.701809 1.616361 1.785312 2.278145 -1.026092 2.463794
    7 6.028142 0.000001 0.000000 -1.618033 -0.075922 -0.765575
    8 11.692555 0.000000 0.000000 0.000000 0.000000 -1.862145
    9 15.028072 2.912670 -0.156255 3.343090 0.001486 0.230948
    10 3.882639 0.296880 -0.000003 -1.261478 -0.070743 -1.233465
    11 17.848177 0.000000 0.000000 0.000000 0.000000 0.625820
    12 16.525253 0.000000 0.000000 -0.388666 0.254181 -0.932180
    13 -3.882639 -0.296880 0.000007 -0.709493 -0.561414 -2.245940
    14 17.848173 0.000000 0.000000 0.000000 0.000000 1.319089
    15 16.525257 0.000000 0.000000 0.174568 -0.023983 -1.550958
  time 12
    0 -59.339011 -59.867928 38.070809 1.771440 -0.060187 0.071695
    1 0.000005 3.345128 -2.981901 1.535901 0.158557 1.570796
    2 7.516565 0.023438 0.062502 -0.273690 0.011301 0.154645
    3 10.694003 1.221824 -2.078239 -1.696609 1.171737 3.103672
    4 6.028143 0.000001 0.000000 1.126954 -0.415356 -0.594116
    5 11.692552 0.000000 0.000002 0.000000 0.000000 -1.590931
    6 10.701809 1.624174 1.777499 2.333436 -1.044908 2.411643
    7 6.028142 0.000001 0.000000 -1.603527 -0.080791 -0.731045
    8 11.692555 0.000000 0.000000 0.000000 0.000000 -1.921075
    9 15.028072 2.912670 -0.156255 3.346451 -0.007778 0.230261
    10 3.890452 0.089843 -0.000003 -1.285905 -0.100772 -1.188949
    11 17.848177 0.000000 0.000000 0.000000 0.000000 0.819010
    12 16.525253 0.000000 0.000000 -0.267753 0.345889 -0.772767
    13 -3.890452 -0.089843 0.000007 -0.719833 -0.565610 -2.219961
    14 17.848173 0.000000 0.000000 0.000000 0.000000 0.903284
    15 16.525257 0.000000 0.000000 0.218500 0.019366 -1.547660
  time 13
    0 -64.283733 -64.812650 38.000494 1.797794 -0.060294 0.038523
    1 0.000005 3.345128 -2.981901 1.538426 0.168930 1.570796
    2 7.516565 -0.019532 0.031251 -0.246557 0.015316 0.129504
    3 10.694003 1.229636 -2.074333 -1.736955 1.212798 3.068363
    4 6.028143 0.000001 0.000000 1.160231 -0.411486 -0.678651
    5 11.692552 0.000000 0.000002 0.000000 0.000000 -1.544746
    6 10.701809 1.616361 1.781405 2.386821 -1.078528 2.361314
    7 6.028142 0.000001 0.000000 -1.568919 -0.063428 -0.709567
    8 11.692555 0.000000 0.000000 0.000000 0.000000 -1.942470
    9 15.028072 2.912670 -0.140629 3.342299 -0.019475 0.230282
    10 3.890452 -0.027349 -0.000003 -1.314998 -0.167831 -1.198298
    11 17.848177 0.000000 0.000000 0.000000 0.000000 1.040317
    12 16.525253 0.000000 0.000000 -0.179758 0.348534 -0.755759
    13 -3.890452 0.027348 0.000007 -0.787224 -0.531516 -2.105915
    14 17.848173 0.000000 0.000000 0.000000 0.000000 0.507779
    15 16.525257 0.000000 0.000000 0.195704 0.000929 -1.409535
  time 14
    0 -69.228454 -69.757373 37.434070 1.820221 -0.060342 -0.008833
    1 0.000005 3.345128 -2.981901 1.544944 0.173299 1.570796
    2 7.516565 -0.054689 0.000000 -0.189301 0.017881 0.109759
    3 10.694003 1.264794 -2.054801 -1.826612 1.236790 2.982899
    4 6.028143 0.000001 0.000000 1.162154 -0.364583 -0.743986
    5 11.692552 0.000000 0.000002 0.000000 0.000000 -1.524486
    6 10.701809 1.589016 1.808750 2.398451 -1.113449 2.350673
    7 6.028142 0.000001 0.000000 -1.517279 -0.028063 -0.721236
    8 11.692555 0.000000 0.000000 0.000000 0.000000 -1.932936
    9 15.028072 2.916576 -0.105472 3.328707 -0.033689 0.231249
    10 3.890452 -0.066412 -0.000003 -1.336040 -0.271067 -1.263142
    11 17.848177 0.000000 0.000000 0.000000 0.000000 1.284180
    12 16.525253 0.000000 0.000000 -0.150639 0.295824 -0.871291
    13 -3.890452 0.066412 0.000007 -0.847632 -0.542968 -2.029650
    14 17.848173 0.000000 0.000000 0.000000 0.000000 0.376489
    15 16.525257 0.000000 0.000000 0.119389 -0.080381 -1.261628
  time 15
    0 -74.173176 -74.702095 36.379351 1.831758 -0.060223 -0.064217
    1 0.000005 3.345128 -2.981901 1.554218 0.167178 1.570796
    2 7.516565 -0.070315 -0.039064 -0.101721 0.020578 0.102034
    3 10.697909 1.319483 -2.015737 -1.955670 1.230029 2.856211
    4 6.028143 0.000001 0.000000 1.174946 -0.279946 -0.783970
    5 11.692552 0.000000 0.000002 0.000000 0.000000 -1.539009
    6 10.701809 1.538234 1.851720 2.336868 -1.145075 2.410397
    7 6.028142 0.000001 0.000000 -1.439250 0.028628 -0.749437
    8 11.692555 0.000000 0.000000 0.000000 0.000000 -1.908163
    9 15.024166 2.920483 -0.050783 3.300733 -0.048633 0.233096
    10 3.890452 -0.105476 -0.000003 -1.355070 -0.398632 -1.342052
    11 17.848177 0.000000 0.000000 0.000000 0.000000 1.505333
    12 16.525253 0.000000 0.000000 -0.229121 0.235037 -1.016419
    13 -3.890452 0.105476 0.000007 -0.878198 -0.634979 -2.027008
    14 17.848173 0.000000 0.000000 0.000000 0.000000 0.651101
    15 16.525257 0.000000 0.000000 0.027864 -0.149405 -1.288009
  time 16
    0 -79.117898 -79.646817 35.680111 1.823675 -0.059899 -0.121712
    1 0.000005 3.345128 -2.981901 1.565077 0.152763 1.570796
    2 7.516565 -0.050783 -0.085940 0.005691 0.022375 0.114605
    3 10.697909 1.389798 -1.964955 -2.082664 1.188473 2.729886
    4 6.028143 0.000001 0.000000 1.200698 -0.166789 -0.771481
    5 11.692552 0.000000 0.000002 0.000000 0.000000 -1.582217
    6 10.697902 1.467919 1.910315 2.188345 -1.165018 2.553907
    7 6.028142 0.000001 0.000000 -1.333248 0.113212 -0.762925
    8 11.692555 0.000000 0.000000 0.000000 0.000000 -1.876108
    9 15.024166 2.924389 -0.007813 3.238111 -0.055692 0.235889
    10 3.882639 -0.265637 -0.000003 -1.366048 -0.534545 -1.439232
    11 17.848177 0.000000 0.000000 0.000000 0.000000 1.685700
    12 16.525253 0.000000 0.000000 -0.320514 0.157365 -1.105943
    13 -3.882639 0.265637 0.000007 -0.944592 -0.594066 -1.913931
    14 17.848173 0.000000 0.000000 0.000000 0.000000 0.831828
    15 16.525257 0.000000 0.000000 -0.085225 -0.190663 -1.371113
  time 17
    0 -84.062620 -84.591539 35.508230 1.799706 -0.059420 -0.175866
    1 0.000005 3.345128 -2.981901 1.576386 0.137016 1.570796
    2 7.516565 0.000000 -0.113285 0.111666 0.019355 0.142900
    3 10.697909 1.471831 -1.906359 -2.174209 1.126167 2.638506
    4 6.028143 0.000001 0.000000 1.223523 -0.049670 -0.702325
    5 11.692552 0.000000 0.000002 0.000000 0.000000 -1.641763
    6 10.697902 1.385885 1.968911 1.991872 -1.164952 2.743433
    7 6.028142 0.000001 0.000000 -1.220759 0.216818 -0.736305
    8 11.692555 0.000000 0.000000 0.000000 0.000000 -1.838798
    9 15.028072 2.920483 0.019532 3.158191 -0.055764 0.237521
    10 3.863107 -0.488300 -0.000003 -1.371080 -0.711394 -1.536926
    11 17.848177 0.000000 0.000000 0.000000 0.000000 1.814313
    12 16.525253 0.000000 0.000000 -0.246515 0.106608 -1.172694
    13 -3.863107 0.488300 0.000007 -1.122639 -0.447985 -1.754179
    14 17.848173 0.000000 0.000000 0.000000 0.000000 0.874227
    15 16.525257 0.000000 0.000000 -0.044238 -0.153849 -1.486416
  time 18
    0 -89.007342 -89.536262 35.816833 1.772265 -0.058868 -0.222049
    1 0.000005 3.345128 -2.981901 1.587297 0.128838 1.570796
    2 7.516565 0.054689 -0.121097 0.197176 0.011170 0.173692
    3 10.701815 1.542146 -1.847764 -2.228887 1.064008 2.584186
    4 6.028143 0.000001 0.000000 1.226366 0.049020 -0.603623
    5 11.692552 0.000000 0.000002 0.000000 0.000000 -1.711839
    6 10.697902 1.315571 2.019694 1.815513 -1.147481 2.912636
    7 6.028142 0.000001 0.000000 -1.131887 0.317556 -0.678044
    8 11.692555 0.000000 0.000000 0.000000 0.000000 -1.795482
    9 15.031978 2.916576 0.054689 3.107431 -0.051642 0.237177
    10 3.843575 -0.605491 -0.000003 -1.368152 -0.872713 -1.649631
    11 17.848177 0.000000 0.000000 0.000000 0.000000 1.779476
    12 16.525253 0.000000 0.000000 -0.189657 0.144244 -1.265229
    13 -3.843575 0.605491 0.000007 -1.240733 -0.317072 -1.664087
    14 17.848173 0.000000 0.000000 0.000000 0.000000 0.936925
    15 16.525257 0.000000 0.000000 0.028775 -0.134487 -1.427505
end
