// Created by Crowbar 0.74
version 1
nodes
  0 "ValveBiped.Bip01" -1
  1 "ValveBiped.Bip01_Spine" 0
  2 "ValveBiped.Bip01_Spine2" 1
  3 "ValveBiped.Bip01_R_Clavicle" 2
  4 "ValveBiped.Bip01_R_UpperArm" 3
  5 "ValveBiped.Bip01_R_Forearm" 4
  6 "ValveBiped.Bip01_L_Clavicle" 2
  7 "ValveBiped.Bip01_L_UpperArm" 6
  8 "ValveBiped.Bip01_L_Forearm" 7
  9 "ValveBiped.Bip01_Head1" 2
  10 "ValveBiped.Bip01_L_Thigh" 0
  11 "ValveBiped.Bip01_L_Calf" 10
  12 "ValveBiped.Bip01_L_Foot" 11
  13 "ValveBiped.Bip01_R_Thigh" 0
  14 "ValveBiped.Bip01_R_Calf" 13
  15 "ValveBiped.Bip01_R_Foot" 14
end
skeleton
  time 0
    0 -0.002349 -0.531261 35.254316 1.738546 0.043432 0.043621
    1 0.000005 3.345128 -2.981901 1.576592 0.088045 1.570796
    2 7.516565 0.023438 -0.113285 0.057572 0.025240 0.156656
    3 10.701815 1.542146 -1.847764 -2.224169 1.038766 2.583884
    4 6.028143 0.000001 0.000000 1.248271 0.134441 -0.660476
    5 11.692552 0.000000 0.000002 0.000000 0.000000 -1.784674
    6 10.697902 1.315571 2.019694 1.766513 -1.131419 2.962869
    7 6.028142 0.000001 0.000000 -1.048363 0.466945 -0.500015
    8 11.692555 0.000000 0.000000 0.000000 0.000000 -1.733173
    9 15.031978 2.916576 0.054689 3.058254 0.028739 0.193486
    10 3.843575 -0.605491 -0.000003 -2.435165 -0.454919 -1.225831
    11 17.848177 0.000000 0.000000 0.000000 0.000000 1.960461
    12 16.525253 0.000000 0.000000 -0.064811 -0.094468 -1.238291
    13 -3.843575 0.605491 0.000007 -1.869567 -0.334294 -1.735949
    14 17.848173 0.000000 0.000000 0.000000 0.000000 0.534872
    15 16.525257 0.000000 0.000000 0.133349 -0.255707 -1.461480
  time 1
    0 5.270009 -0.390632 35.730893 1.722239 0.043468 0.012442
    1 0.000005 3.345128 -2.981901 1.587297 0.091620 1.570796
    2 7.516565 0.046876 -0.109378 0.128797 0.016311 0.170369
    3 10.701815 1.589022 -1.808700 -2.293122 1.028021 2.520087
    4 6.028143 0.000001 0.000000 1.277618 0.158261 -0.615553
    5 11.692552 0.000000 0.000002 0.000000 0.000000 -1.855331
    6 10.693996 1.260881 2.054851 1.690250 -1.147525 3.036877
    7 6.028142 0.000001 0.000000 -1.078069 0.511822 -0.543800
    8 11.692555 0.000000 0.000000 0.000000 0.000000 -1.655100
    9 15.031978 2.912670 0.097659 3.016687 0.040532 0.192305
    10 3.859201 -0.515645 -0.000003 -2.483013 -0.420222 -1.007541
    11 17.848177 0.000000 0.000000 0.000000 0.000000 1.814777
    12 16.525253 0.000000 0.000000 -0.117706 -0.062020 -1.165327
    13 -3.859201 0.515644 0.000007 -1.876551 -0.305357 -1.896846
    14 17.848173 0.000000 0.000000 0.000000 0.000000 0.425764
    15 16.525257 0.000000 0.000000 0.202523 -0.232625 -1.204755
  time 2
    0 10.718153 -0.230470 36.418414 1.729113 0.043480 0.000193
    1 0.000005 3.345128 -2.981901 1.596378 0.101993 1.570796
    2 7.516565 0.035157 -0.093753 0.174038 0.007814 0.162687
    3 10.701815 1.616367 -1.781355 -2.370097 1.043433 2.448565
    4 6.028143 0.000001 0.000000 1.319674 0.152179 -0.623102
    5 11.692552 0.000000 0.000002 0.000000 0.000000 -1.911174
    6 10.693996 1.229630 2.074383 1.661175 -1.185155 3.067938
    7 6.028142 0.000001 0.000000 -1.117777 0.529826 -0.619386
    8 11.692555 0.000000 0.000000 0.000000 0.000000 -1.584758
    9 15.031978 2.912670 0.117191 2.974923 0.060558 0.190844
    10 3.878733 -0.304701 -0.000003 -2.476609 -0.371476 -0.955306
    11 17.848177 0.000000 0.000000 0.000000 0.000000 1.488493
    12 16.525253 0.000000 0.000000 -0.183335 -0.161113 -1.249502
    13 -3.878733 0.304700 0.000007 -1.845441 -0.349942 -2.027448
    14 17.848173 0.000000 0.000000 0.000000 0.000000 0.380746
    15 16.525257 0.000000 0.000000 0.048072 -0.221949 -0.686600
  time 3
    0 16.123327 -0.070309 36.914523 1.751118 0.043468 0.012032
    1 0.000005 3.345128 -2.981901 1.602831 0.115521 1.570796
    2 7.516565 0.000000 -0.070315 0.194503 0.000000 0.141694
    3 10.701815 1.624180 -1.777449 -2.441173 1.070827 2.381872
    4 6.028143 0.000001 0.000000 1.375190 0.109653 -0.672313
    5 11.692552 0.000000 0.000002 0.000000 0.000000 -1.931289
    6 10.693996 1.221818 2.078289 1.673186 -1.228421 3.059981
    7 6.028142 0.000001 0.000000 -1.121589 0.511331 -0.692401
    8 11.692555 0.000000 0.000000 0.000000 0.000000 -1.536488
    9 15.028072 2.912670 0.109378 2.935383 0.086421 0.189383
    10 3.890452 -0.074225 -0.000003 -2.437636 -0.298896 -1.028040
    11 17.848177 0.000000 0.000000 0.000000 0.000000 1.062487
    12 16.525253 0.000000 0.000000 -0.133438 -0.271681 -1.373618
    13 -3.890452 0.074225 0.000007 -1.804806 -0.398505 -2.108909
    14 17.848173 0.000000 0.000000 0.000000 0.000000 0.396707
    15 16.525257 0.000000 0.000000 -0.045862 -0.114682 -0.333914
  time 4
    0 21.407404 0.085946 36.996557 1.780523 0.043432 0.043328
    1 0.000005 3.345128 -2.981901 1.605691 0.125941 1.570796
    2 7.516565 -0.046876 -0.039064 0.194015 -0.007215 0.114711
    3 10.701815 1.616367 -1.781355 -2.465711 1.094557 2.359540
    4 6.028143 0.000001 0.000000 1.425857 0.032249 -0.731404
    5 11.692552 0.000000 0.000002 0.000000 0.000000 -1.921994
    6 10.693996 1.229630 2.074383 1.724092 -1.250662 3.011186
    7 6.028142 0.000001 0.000000 -1.095596 0.455584 -0.747143
    8 11.692555 0.000000 0.000000 0.000000 0.000000 -1.515543
    9 15.028072 2.916576 0.085940 2.901428 0.114920 0.188180
    10 3.890452 0.035153 -0.000003 -2.391709 -0.232286 -1.108580
    11 17.848177 0.000000 0.000000 0.000000 0.000000 0.729792
    12 16.525253 0.000000 0.000000 -0.172990 -0.142865 -1.285856
    13 -3.890452 -0.035154 0.000007 -1.788752 -0.566878 -2.095083
    14 17.848173 0.000000 0.000000 0.000000 0.000000 0.727468
    15 16.525257 0.000000 0.000000 -0.146812 -0.012502 -0.427060
  time 5
    0 26.519600 0.226576 36.547325 1.804054 0.043312 0.088515
    1 0.000005 3.345128 -2.981901 1.603334 0.129563 1.570796
    2 7.516565 -0.082034 -0.003906 0.173521 -0.013734 0.094183
    3 10.701815 1.592929 -1.804793 -2.429199 1.116251 2.396116
    4 6.028143 0.000001 0.000000 1.461642 -0.069850 -0.790774
    5 11.692552 0.000000 0.000002 0.000000 0.000000 -1.898321
    6 10.693996 1.256975 2.054851 1.815513 -1.247584 2.919634
    7 6.028142 0.000001 0.000000 -1.073564 0.367641 -0.790572
    8 11.692555 0.000000 0.000000 0.000000 0.000000 -1.531083
    9 15.024166 2.920483 0.046876 2.875925 0.141754 0.187257
    10 3.890452 0.058592 -0.000003 -2.343770 -0.192697 -1.157642
    11 17.848177 0.000000 0.000000 0.000000 0.000000 0.511575
    12 16.525253 0.000000 0.000000 -0.255850 0.075259 -1.287009
    13 -3.890452 -0.058592 0.000007 -1.780408 -0.718772 -2.048848
    14 17.848173 0.000000 0.000000 0.000000 0.000000 1.067151
    15 16.525257 0.000000 0.000000 -0.229964 0.048098 -0.630617
  time 6
    0 31.487261 0.339860 35.512137 1.813891 0.043037 0.142200
    1 0.000005 3.345128 -2.981901 1.597048 0.123278 1.570796
    2 7.516565 -0.093753 0.031251 0.129602 -0.020350 0.087432
    3 10.701815 1.546052 -1.843857 -2.322496 1.134703 2.500592
    4 6.028143 0.000001 0.000000 1.472511 -0.180288 -0.835325
    5 11.692552 0.000000 0.000002 0.000000 0.000000 -1.867676
    6 10.697902 1.307758 2.023600 1.930098 -1.217323 2.803157
    7 6.028142 0.000001 0.000000 -1.073267 0.251769 -0.815332
    8 11.692555 0.000000 0.000000 0.000000 0.000000 -1.576651
    9 15.024166 2.924389 0.000000 2.866929 0.163326 0.187171
    10 3.890452 0.097655 -0.000003 -2.304065 -0.266220 -1.170679
    11 17.848177 0.000000 0.000000 0.000000 0.000000 0.668073
    12 16.525253 0.000000 0.000000 -0.253490 0.158891 -1.489983
    13 -3.890452 -0.097656 0.000007 -1.781768 -0.855979 -1.960518
    14 17.848173 0.000000 0.000000 0.000000 0.000000 1.406670
    15 16.525257 0.000000 0.000000 -0.270648 0.011665 -0.874892
  time 7
    0 36.368981 0.417988 34.871492 1.803072 0.042617 0.199226
    1 0.000005 3.345128 -2.981901 1.587979 0.109260 1.570796
    2 7.516565 -0.074221 0.070315 0.059728 -0.025467 0.100510
    3 10.697909 1.479644 -1.898546 -2.150438 1.140839 2.667779
    4 6.028143 0.000001 0.000000 1.450689 -0.284092 -0.845484
    5 11.692552 0.000000 0.000002 0.000000 0.000000 -1.832094
    6 10.697902 1.378073 1.972817 2.034579 -1.161463 2.696076
    7 6.028142 0.000001 0.000000 -1.099705 0.127328 -0.804772
    8 11.692555 0.000000 0.000000 0.000000 0.000000 -1.639260
    9 15.024166 2.924389 -0.046876 2.893718 0.174568 0.189791
    10 3.882639 0.289067 -0.000003 -2.259693 -0.292927 -1.284499
    11 17.848177 0.000000 0.000000 0.000000 0.000000 0.780465
    12 16.525253 0.000000 0.000000 -0.152331 0.130085 -1.641678
    13 -3.882639 -0.289068 0.000007 -1.793469 -0.945105 -1.803408
    14 17.848173 0.000000 0.000000 0.000000 0.000000 1.656562
    15 16.525257 0.000000 0.000000 -0.284090 -0.042340 -1.077338
  time 8
    0 41.196013 0.445333 34.734769 1.775912 0.042078 0.254435
    1 0.000005 3.345128 -2.981901 1.577224 0.095171 1.570796
    2 7.516565 -0.023438 0.101566 -0.030611 -0.024413 0.128615
    3 10.697909 1.397610 -1.957142 -1.962099 1.130835 2.848667
    4 6.028143 0.000001 0.000000 1.403450 -0.371679 -0.819481
    5 11.692552 0.000000 0.000002 0.000000 0.000000 -1.791573
    6 10.697902 1.460106 1.918128 2.113893 -1.096151 2.616124
    7 6.028142 0.000001 0.000000 -1.146295 0.023759 -0.759602
    8 11.692555 0.000000 0.000000 0.000000 0.000000 -1.711553
    9 15.024166 2.920483 -0.089846 2.943192 0.175287 0.193314
    10 3.855295 0.519543 -0.000003 -2.127403 -0.226496 -1.479373
    11 17.848177 0.000000 0.000000 0.000000 0.000000 0.688620
    12 16.525253 0.000000 0.000000 -0.067557 0.039312 -1.688666
    13 -3.855295 -0.519543 0.000007 -1.795011 -0.973517 -1.588614
    14 17.848173 0.000000 0.000000 0.000000 0.000000 1.755766
    15 16.525257 0.000000 0.000000 -0.264846 -0.063391 -1.178412
  time 9
    0 45.980074 0.378925 35.047279 1.748295 0.041515 0.302142
    1 0.000005 3.345128 -2.981901 1.565811 0.088676 1.570796
    2 7.516565 0.023438 0.109378 -0.124457 -0.016323 0.156127
    3 10.697909 1.323389 -2.015737 -1.819180 1.122838 2.984529
    4 6.028143 0.000001 0.000000 1.371846 -0.437979 -0.806432
    5 11.692552 0.000000 0.000002 0.000000 0.000000 -1.732462
    6 10.701809 1.534327 1.855626 2.181291 -1.048788 2.551607
    7 6.028142 0.000001 0.000000 -1.199569 -0.042783 -0.709923
    8 11.692555 0.000000 0.000000 0.000000 0.000000 -1.787975
    9 15.028072 2.916576 -0.117191 3.001662 0.165591 0.196236
    10 3.843575 0.605483 -0.000003 -2.075713 -0.057502 -1.638309
    11 17.848177 0.000000 0.000000 0.000000 0.000000 0.487165
    12 16.525253 0.000000 0.000000 -0.138988 0.072695 -1.557823
    13 -3.843575 -0.605484 0.000007 -1.755011 -0.938242 -1.395661
    14 17.848173 0.000000 0.000000 0.000000 0.000000 1.670232
    15 16.525257 0.000000 0.000000 -0.219539 -0.068538 -1.216019
  time 10
    0 50.748510 0.207045 35.715268 1.736039 0.041047 0.336251
    1 0.000005 3.345128 -2.981901 1.554772 0.093325 1.570796
    2 7.516565 0.046876 0.105472 -0.201689 -0.006196 0.168063
    3 10.694003 1.264794 -2.050895 -1.738960 1.138134 3.061543
    4 6.028143 0.000001 0.000000 1.387063 -0.481979 -0.848094
    5 11.692552 0.000000 0.000002 0.000000 0.000000 -1.658102
    6 10.701809 1.585110 1.808750 2.253455 -1.035673 2.484980
    7 6.028142 0.000001 0.000000 -1.248089 -0.073204 -0.685559
    8 11.692555 0.000000 0.000000 0.000000 0.000000 -1.862145
    9 15.028072 2.912670 -0.136723 3.054646 0.150479 0.197589
    10 3.859201 0.503918 -0.000003 -2.016429 0.039540 -1.746468
    11 17.848177 0.000000 0.000000 0.000000 0.000000 0.386206
    12 16.525253 0.000000 0.000000 -0.214991 0.250926 -1.261609
    13 -3.859201 -0.503918 0.000007 -1.706849 -0.846363 -1.262770
    14 17.848173 0.000000 0.000000 0.000000 0.000000 1.426969
    15 16.525257 0.000000 0.000000 -0.047272 -0.205944 -1.244029
  time 11
    0 55.524758 -0.023431 36.574669 1.746489 0.040855 0.349556
    1 0.000005 3.345128 -2.981901 1.545253 0.103582 1.570796
    2 7.516565 0.027345 0.085940 -0.251529 0.002816 0.157904
    3 10.694003 1.233543 -2.070427 -1.709055 1.171620 3.092204
    4 6.028143 0.000001 0.000000 1.420172 -0.493912 -0.918369
    5 11.692552 0.000000 0.000002 0.000000 0.000000 -1.590931
    6 10.701809 1.616361 1.785312 2.326096 -1.048051 2.418066
    7 6.028142 0.000001 0.000000 -1.270716 -0.083621 -0.653956
    8 11.692555 0.000000 0.000000 0.000000 0.000000 -1.921075
    9 15.028072 2.912670 -0.156255 3.096410 0.134743 0.197202
    10 3.882639 0.296880 -0.000003 -2.171134 0.074731 -1.776230
    11 17.848177 0.000000 0.000000 0.000000 0.000000 0.403663
    12 16.525253 0.000000 0.000000 0.027681 0.461828 -0.849190
    13 -3.882639 -0.296880 0.000007 -1.694060 -0.719602 -1.175232
    14 17.848173 0.000000 0.000000 0.000000 0.000000 1.096699
    15 16.525257 0.000000 0.000000 0.158001 -0.175021 -1.239954
  time 12
    0 60.320539 -0.277345 37.078591 1.767811 0.041035 0.337072
    1 0.000005 3.345128 -2.981901 1.538465 0.115007 1.570796
    2 7.516565 -0.003906 0.062502 -0.274236 0.010427 0.137017
    3 10.694003 1.221824 -2.078239 -1.723978 1.213017 3.080555
    4 6.028143 0.000001 0.000000 1.404453 -0.465485 -0.971122
    5 11.692552 0.000000 0.000002 0.000000 0.000000 -1.544746
    6 10.701809 1.624174 1.777499 2.393780 -1.075363 2.355274
    7 6.028142 0.000001 0.000000 -1.278786 -0.065844 -0.624924
    8 11.692555 0.000000 0.000000 0.000000 0.000000 -1.942470
    9 15.028072 2.912670 -0.156255 3.135357 0.115951 0.196558
    10 3.890452 0.089843 -0.000003 -2.294733 0.040259 -1.764137
    11 17.848177 0.000000 0.000000 0.000000 0.000000 0.572521
    12 16.525253 0.000000 0.000000 0.221199 0.485975 -0.695478
    13 -3.890452 -0.089843 0.000007 -1.711384 -0.560015 -1.136042
    14 17.848173 0.000000 0.000000 0.000000 0.000000 0.721411
    15 16.525257 0.000000 0.000000 0.051696 -0.102236 -1.116686
  time 13
    0 65.167102 -0.511727 37.160625 1.790798 0.041491 0.303958
    1 0.000005 3.345128 -2.981901 1.535901 0.124212 1.570796
    2 7.516565 -0.042970 0.031251 -0.273747 0.016982 0.114288
    3 10.694003 1.229636 -2.074333 -1.780368 1.238564 3.026597
    4 6.028143 0.000001 0.000000 1.338068 -0.396282 -0.987153
    5 11.692552 0.000000 0.000002 0.000000 0.000000 -1.524486
    6 10.701809 1.616361 1.781405 2.422664 -1.102719 2.329007
    7 6.028142 0.000001 0.000000 -1.281509 -0.006058 -0.621760
    8 11.692555 0.000000 0.000000 0.000000 0.000000 -1.932936
    9 15.028072 2.912670 -0.140629 3.165012 0.095301 0.195913
    10 3.890452 -0.027349 -0.000003 -2.344776 -0.013694 -1.761306
    11 17.848177 0.000000 0.000000 0.000000 0.000000 0.766406
    12 16.525253 0.000000 0.000000 0.256492 0.399983 -0.696279
    13 -3.890452 0.027348 0.000007 -1.741134 -0.361088 -1.158675
    14 17.848173 0.000000 0.000000 0.000000 0.000000 0.294884
    15 16.525257 0.000000 0.000000 -0.112341 -0.046482 -0.958553
  time 14
    0 70.056635 -0.683607 36.941868 1.808403 0.042054 0.256662
    1 0.000005 3.345128 -2.981901 1.538426 0.128067 1.570796
    2 7.516565 -0.074221 0.000000 -0.250523 0.022459 0.096426
    3 10.694003 1.264794 -2.054801 -1.875451 1.236194 2.931898
    4 6.028143 0.000001 0.000000 1.270261 -0.290865 -0.977926
    5 11.692552 0.000000 0.000002 0.000000 0.000000 -1.539009
    6 10.701809 1.589016 1.808750 2.385009 -1.126823 2.366778
    7 6.028142 0.000001 0.000000 -1.267943 0.093321 -0.631450
    8 11.692555 0.000000 0.000000 0.000000 0.000000 -1.908163
    9 15.028072 2.916576 -0.105472 3.182656 0.072926 0.195720
    10 3.890452 -0.066412 -0.000003 -2.348161 -0.097136 -1.752643
    11 17.848177 0.000000 0.000000 0.000000 0.000000 0.997137
    12 16.525253 0.000000 0.000000 0.183531 0.290697 -0.806046
    13 -3.890452 0.066412 0.000007 -1.785305 -0.318733 -1.203853
    14 17.848173 0.000000 0.000000 0.000000 0.000000 0.228011
    15 16.525257 0.000000 0.000000 -0.235052 0.008247 -1.011054
  time 15
    0 74.977420 -0.750015 36.359819 1.814242 0.042593 0.201336
    1 0.000005 3.345128 -2.981901 1.544944 0.122577 1.570796
    2 7.516565 -0.089846 -0.035157 -0.201373 0.028368 0.089569
    3 10.697909 1.319483 -2.015737 -1.985398 1.201384 2.820360
    4 6.028143 0.000001 0.000000 1.224694 -0.158634 -0.934680
    5 11.692552 0.000000 0.000002 0.000000 0.000000 -1.582217
    6 10.701809 1.538234 1.851720 2.265562 -1.143471 2.483255
    7 6.028142 0.000001 0.000000 -1.227394 0.214516 -0.628049
    8 11.692555 0.000000 0.000000 0.000000 0.000000 -1.876108
    9 15.024166 2.920483 -0.050783 3.184683 0.050239 0.195978
    10 3.890452 -0.105476 -0.000003 -2.337091 -0.214557 -1.706755
    11 17.848177 0.000000 0.000000 0.000000 0.000000 1.299861
    12 16.525253 0.000000 0.000000 0.061000 0.163041 -0.978624
    13 -3.890452 0.105476 0.000007 -1.839001 -0.450957 -1.255812
    14 17.848173 0.000000 0.000000 0.000000 0.000000 0.564093
    15 16.525257 0.000000 0.000000 -0.234480 0.003422 -1.276597
  time 16
    0 79.929455 -0.722670 35.570732 1.800249 0.043025 0.143841
    1 0.000005 3.345128 -2.981901 1.554218 0.109587 1.570796
    2 7.516565 -0.070315 -0.078127 -0.126095 0.033437 0.101484
    3 10.697909 1.389798 -1.964955 -2.084139 1.144197 2.720168
    4 6.028143 0.000001 0.000000 1.211567 -0.027186 -0.854805
    5 11.692552 0.000000 0.000002 0.000000 0.000000 -1.641763
    6 10.697902 1.467919 1.910315 2.087105 -1.147698 2.656196
    7 6.028142 0.000001 0.000000 -1.158178 0.327633 -0.591699
    8 11.692555 0.000000 0.000000 0.000000 0.000000 -1.838798
    9 15.024166 2.924389 -0.007813 3.155819 0.034144 0.195935
    10 3.882639 -0.265637 -0.000003 -2.334896 -0.351009 -1.627845
    11 17.848177 0.000000 0.000000 0.000000 0.000000 1.635954
    12 16.525253 0.000000 0.000000 -0.056900 0.013435 -1.150945
    13 -3.882639 0.265637 0.000007 -1.824126 -0.512720 -1.390377
    14 17.848173 0.000000 0.000000 0.000000 0.000000 0.772977
    15 16.525257 0.000000 0.000000 -0.142546 -0.114501 -1.440769
  time 17
    0 84.908835 -0.644542 35.086342 1.770704 0.043300 0.089746
    1 0.000005 3.345128 -2.981901 1.565077 0.095405 1.570796
    2 7.516565 -0.023438 -0.105472 -0.034147 0.032802 0.127980
    3 10.697909 1.471831 -1.906359 -2.160347 1.082939 2.644482
    4 6.028143 0.000001 0.000000 1.224108 0.073762 -0.752281
    5 11.692552 0.000000 0.000002 0.000000 0.000000 -1.710532
    6 10.697902 1.385885 1.968911 1.904455 -1.138659 2.831534
    7 6.028142 0.000001 0.000000 -1.075891 0.406329 -0.524459
    8 11.692555 0.000000 0.000000 0.000000 0.000000 -1.796308
    9 15.028072 2.920483 0.019532 3.105207 0.025839 0.194925
    10 3.863107 -0.488300 -0.000003 -2.369295 -0.451687 -1.470196
    11 17.848177 0.000000 0.000000 0.000000 0.000000 1.910715
    12 16.525253 0.000000 0.000000 -0.088127 -0.102239 -1.258470
    13 -3.863107 0.488300 0.000007 -1.913013 -0.470102 -1.521068
    14 17.848173 0.000000 0.000000 0.000000 0.000000 0.781653
    15 16.525257 0.000000 0.000000 0.013851 -0.140860 -1.516278
  time 18
    0 89.907746 -0.531257 35.254316 1.738546 0.043432 0.043621
    1 0.000005 3.345128 -2.981901 1.576592 0.088045 1.570796
    2 7.516565 0.019532 -0.113285 0.057572 0.025240 0.156656
    3 10.701815 1.542146 -1.847764 -2.224169 1.038766 2.583884
    4 6.028143 0.000001 0.000000 1.248271 0.134441 -0.660476
    5 11.692552 0.000000 0.000002 0.000000 0.000000 -1.784674
    6 10.697902 1.315571 2.019694 1.766513 -1.131419 2.962869
    7 6.028142 0.000001 0.000000 -1.048363 0.466945 -0.500015
    8 11.692555 0.000000 0.000000 0.000000 0.000000 -1.733173
    9 15.031978 2.916576 0.054689 3.058254 0.028739 0.193486
    10 3.843575 -0.605491 -0.000003 -2.435165 -0.454919 -1.225831
    11 17.848177 0.000000 0.000000 0.000000 0.000000 1.960461
    12 16.525253 0.000000 0.000000 -0.064811 -0.094468 -1.238291
    13 -3.843575 0.605491 0.000007 -1.869567 -0.334294 -1.735949
    14 17.848173 0.000000 0.000000 0.000000 0.000000 0.534872
    15 16.525257 0.000000 0.000000 0.133349 -0.255707 -1.461480
end
