// Created by Crowbar 0.74
version 1
nodes
  0 "ValveBiped.Bip01" -1
  1 "ValveBiped.Bip01_Spine" 0
  2 "ValveBiped.Bip01_Spine2" 1
  3 "ValveBiped.Bip01_R_Clavicle" 2
  4 "ValveBiped.Bip01_R_UpperArm" 3
  5 "ValveBiped.Bip01_R_Forearm" 4
  6 "ValveBiped.Bip01_L_Clavicle" 2
  7 "ValveBiped.Bip01_L_UpperArm" 6
  8 "ValveBiped.Bip01_L_Forearm" 7
  9 "ValveBiped.Bip01_Head1" 2
  10 "ValveBiped.Bip01_L_Thigh" 0
  11 "ValveBiped.Bip01_L_Calf" 10
  12 "ValveBiped.Bip01_L_Foot" 11
  13 "ValveBiped.Bip01_R_Thigh" 0
  14 "ValveBiped.Bip01_R_Calf" 13
  15 "ValveBiped.Bip01_R_Foot" 14
end
skeleton
  time 0
    0 -0.002349 -0.531261 36.234815 1.723291 -0.067701 -0.306034
    1 0.000005 3.345128 -2.981901 1.584695 0.081667 1.538821
    2 7.516565 0.039064 -0.113285 0.079359 0.023322 0.166983
    3 10.701815 1.542146 -1.847764 -2.228887 1.064008 2.584186
    4 6.028143 0.000001 0.000000 0.903550 0.292335 -0.561308
    5 11.692552 0.000000 0.000002 0.000000 0.000000 -1.855331
    6 10.697902 1.315571 2.019694 1.752977 -1.144577 2.979742
    7 6.028142 0.000001 0.000000 -1.523963 0.610597 -0.856665
    8 11.692555 0.000000 0.000000 0.000000 0.000000 -1.655100
    9 15.031978 2.916576 0.054689 3.321343 -0.109935 0.233247
    10 3.843575 -0.605491 -0.000003 -2.131886 -0.934700 -1.018262
    11 17.848177 0.000000 0.000000 0.000000 0.000000 1.588835
    12 16.525253 0.000000 0.000000 -0.069263 0.319382 -1.046912
    13 -3.843575 0.605491 0.000007 -1.449074 -0.237694 -1.424987
    14 17.848173 0.000000 0.000000 0.000000 0.000000 0.633830
    15 16.525257 0.000000 0.000000 -0.064249 0.000707 -1.419946
  time 1
    0 -5.403616 -0.468760 37.234846 1.710439 -0.067006 -0.337331
    1 0.000005 3.345128 -2.981901 1.593969 0.085779 1.542692
    2 7.516565 0.070315 -0.109378 0.119542 0.017258 0.183215
    3 10.701815 1.589022 -1.808700 -2.267168 1.025040 2.546946
    4 6.028143 0.000001 0.000000 0.930138 0.280725 -0.509301
    5 11.692552 0.000000 0.000002 0.000000 0.000000 -1.911174
    6 10.693996 1.260881 2.054851 1.699402 -1.184115 3.032563
    7 6.028142 0.000001 0.000000 -1.587832 0.604407 -0.962470
    8 11.692555 0.000000 0.000000 0.000000 0.000000 -1.584758
    9 15.031978 2.912670 0.097659 3.303995 -0.112164 0.233569
    10 3.859201 -0.515645 -0.000003 -2.087332 -0.840530 -1.238439
    11 17.848177 0.000000 0.000000 0.000000 0.000000 1.395027
    12 16.525253 0.000000 0.000000 -0.109024 0.250620 -1.047841
    13 -3.859201 0.515644 0.000007 -1.509482 -0.245999 -1.323447
    14 17.848173 0.000000 0.000000 0.000000 0.000000 0.727468
    15 16.525257 0.000000 0.000000 -0.006089 -0.162535 -1.117612
  time 2
    0 -10.808790 -0.453134 37.891116 1.718662 -0.066718 -0.349521
    1 0.000005 3.345128 -2.981901 1.600603 0.097741 1.548085
    2 7.516565 0.054689 -0.093753 0.137592 0.011254 0.174792
    3 10.701815 1.616367 -1.781355 -2.315890 1.019733 2.500653
    4 6.028143 0.000001 0.000000 0.972862 0.231702 -0.504455
    5 11.692552 0.000000 0.000002 0.000000 0.000000 -1.931289
    6 10.693996 1.229630 2.074383 1.686246 -1.228118 3.047710
    7 6.028142 0.000001 0.000000 -1.602091 0.584026 -1.045729
    8 11.692555 0.000000 0.000000 0.000000 0.000000 -1.536488
    9 15.031978 2.912670 0.117191 3.290848 -0.110378 0.233698
    10 3.878733 -0.304701 -0.000003 -2.024389 -0.739089 -1.440347
    11 17.848177 0.000000 0.000000 0.000000 0.000000 1.134711
    12 16.525253 0.000000 0.000000 -0.189479 0.306240 -1.076956
    13 -3.878733 0.304700 0.000007 -1.530252 -0.284595 -1.281175
    14 17.848173 0.000000 0.000000 0.000000 0.000000 0.863423
    15 16.525257 0.000000 0.000000 0.061443 -0.202988 -0.859220
  time 3
    0 -16.042083 -0.429696 37.832520 1.739370 -0.066994 -0.337741
    1 0.000005 3.345128 -2.981901 1.603772 0.113348 1.553778
    2 7.516565 0.011719 -0.066408 0.136989 0.005153 0.150921
    3 10.701815 1.624180 -1.777449 -2.376880 1.040685 2.442711
    4 6.028143 0.000001 0.000000 1.026122 0.147710 -0.534466
    5 11.692552 0.000000 0.000002 0.000000 0.000000 -1.921994
    6 10.693996 1.221818 2.078289 1.711508 -1.251073 3.023169
    7 6.028142 0.000001 0.000000 -1.566542 0.546018 -1.082355
    8 11.692555 0.000000 0.000000 0.000000 0.000000 -1.515543
    9 15.028072 2.912670 0.109378 3.282791 -0.104446 0.233977
    10 3.890452 -0.074225 -0.000003 -1.946076 -0.647253 -1.614979
    11 17.848177 0.000000 0.000000 0.000000 0.000000 0.871537
    12 16.525253 0.000000 0.000000 -0.143812 0.376059 -1.083938
    13 -3.890452 0.074225 0.000007 -1.450707 -0.365503 -1.301783
    14 17.848173 0.000000 0.000000 0.000000 0.000000 1.082130
    15 16.525257 0.000000 0.000000 0.132099 -0.254762 -0.822688
  time 4
    0 -21.119122 -0.382820 37.316879 1.765286 -0.067701 -0.306327
    1 0.000005 3.345128 -2.981901 1.601827 0.125380 1.558775
    2 7.516565 -0.039064 -0.035157 0.118708 -0.000851 0.119917
    3 10.701815 1.616367 -1.781355 -2.435039 1.073503 2.387304
    4 6.028143 0.000001 0.000000 1.080050 0.038608 -0.578924
    5 11.692552 0.000000 0.000002 0.000000 0.000000 -1.898321
    6 10.693996 1.229630 2.074383 1.774140 -1.250011 2.958939
    7 6.028142 0.000001 0.000000 -1.518220 0.485854 -1.085836
    8 11.692555 0.000000 0.000000 0.000000 0.000000 -1.531083
    9 15.028072 2.916576 0.085940 3.282445 -0.094702 0.234235
    10 3.890452 0.035153 -0.000003 -1.861542 -0.567222 -1.749898
    11 17.848177 0.000000 0.000000 0.000000 0.000000 0.643664
    12 16.525253 0.000000 0.000000 0.126421 0.245311 -1.055272
    13 -3.890452 -0.035154 0.000007 -1.256333 -0.428403 -1.425604
    14 17.848173 0.000000 0.000000 0.000000 0.000000 1.304765
    15 16.525257 0.000000 0.000000 0.121477 -0.291516 -0.852477
  time 5
    0 -26.176628 -0.324225 36.469197 1.783785 -0.068600 -0.261141
    1 0.000005 3.345128 -2.981901 1.595940 0.129563 1.562251
    2 7.516565 -0.082034 0.000000 0.080078 -0.006256 0.096172
    3 10.701815 1.592929 -1.804793 -2.444300 1.103659 2.378612
    4 6.028143 0.000001 0.000000 1.119262 -0.077590 -0.606325
    5 11.692552 0.000000 0.000002 0.000000 0.000000 -1.867676
    6 10.693996 1.256975 2.054851 1.861366 -1.224260 2.867675
    7 6.028142 0.000001 0.000000 -1.480790 0.403649 -1.062065
    8 11.692555 0.000000 0.000000 0.000000 0.000000 -1.576651
    9 15.024166 2.920483 0.046876 3.291144 -0.081052 0.234192
    10 3.890452 0.058592 -0.000003 -1.790365 -0.535578 -1.814227
    11 17.848177 0.000000 0.000000 0.000000 0.000000 0.562711
    12 16.525253 0.000000 0.000000 0.303020 0.129474 -1.145756
    13 -3.890452 -0.058592 0.000007 -1.043910 -0.451525 -1.607373
    14 17.848173 0.000000 0.000000 0.000000 0.000000 1.518561
    15 16.525257 0.000000 0.000000 0.095789 -0.301951 -0.897308
  time 6
    0 -31.241948 -0.257817 35.726987 1.787607 -0.069475 -0.207338
    1 0.000005 3.345128 -2.981901 1.587091 0.123768 1.563545
    2 7.516565 -0.093753 0.035157 0.018855 -0.011685 0.088003
    3 10.701815 1.546052 -1.843857 -2.385964 1.132173 2.435106
    4 6.028143 0.000001 0.000000 1.136235 -0.174115 -0.608656
    5 11.692552 0.000000 0.000002 0.000000 0.000000 -1.832094
    6 10.697902 1.307758 2.023600 1.949545 -1.175032 2.774398
    7 6.028142 0.000001 0.000000 -1.468164 0.311366 -1.009143
    8 11.692555 0.000000 0.000000 0.000000 0.000000 -1.639260
    9 15.024166 2.924389 0.000000 3.311161 -0.065759 0.233504
    10 3.890452 0.097655 -0.000003 -1.751117 -0.578578 -1.760363
    11 17.848177 0.000000 0.000000 0.000000 0.000000 0.695495
    12 16.525253 0.000000 0.000000 0.302055 0.119242 -1.304433
    13 -3.890452 -0.097656 0.000007 -0.888629 -0.469010 -1.796803
    14 17.848173 0.000000 0.000000 0.000000 0.000000 1.711812
    15 16.525257 0.000000 0.000000 0.120442 -0.282046 -0.962888
  time 7
    0 -36.311174 -0.199221 35.226972 1.770336 -0.070194 -0.150254
    1 0.000005 3.345128 -2.981901 1.576296 0.110895 1.562395
    2 7.516565 -0.074221 0.078127 -0.060504 -0.015736 0.099474
    3 10.697909 1.479644 -1.898546 -2.250122 1.154681 2.566562
    4 6.028143 0.000001 0.000000 1.129295 -0.235116 -0.586566
    5 11.692552 0.000000 0.000002 0.000000 0.000000 -1.791573
    6 10.697902 1.378073 1.972817 2.028955 -1.115422 2.692145
    7 6.028142 0.000001 0.000000 -1.480393 0.233312 -0.935020
    8 11.692555 0.000000 0.000000 0.000000 0.000000 -1.711553
    9 15.024166 2.924389 -0.046876 3.342101 -0.052744 0.232001
    10 3.882639 0.289067 -0.000003 -1.794482 -0.593839 -1.575009
    11 17.848177 0.000000 0.000000 0.000000 0.000000 0.822718
    12 16.525253 0.000000 0.000000 0.203092 0.252655 -1.381562
    13 -3.882639 -0.289068 0.000007 -0.801736 -0.486100 -1.990020
    14 17.848173 0.000000 0.000000 0.000000 0.000000 1.871504
    15 16.525257 0.000000 0.000000 0.182422 -0.246679 -1.058850
  time 8
    0 -41.399932 -0.156252 35.113687 1.736968 -0.070673 -0.094987
    1 0.000005 3.345128 -2.981901 1.564716 0.097928 1.559638
    2 7.516565 -0.031251 0.105472 -0.143370 -0.014837 0.124552
    3 10.697909 1.397610 -1.957142 -2.054705 1.157880 2.755114
    4 6.028143 0.000001 0.000000 1.120015 -0.269303 -0.561588
    5 11.692552 0.000000 0.000002 0.000000 0.000000 -1.732462
    6 10.697902 1.460106 1.918128 2.111986 -1.069142 2.612098
    7 6.028142 0.000001 0.000000 -1.507426 0.184434 -0.870469
    8 11.692555 0.000000 0.000000 0.000000 0.000000 -1.787975
    9 15.024166 2.920483 -0.089846 3.374178 -0.042581 0.230046
    10 3.855295 0.519543 -0.000003 -1.669236 -0.534860 -1.463591
    11 17.848177 0.000000 0.000000 0.000000 0.000000 0.757987
    12 16.525253 0.000000 0.000000 0.019919 0.278471 -1.378327
    13 -3.855295 -0.519543 0.000007 -0.767270 -0.507038 -2.182973
    14 17.848173 0.000000 0.000000 0.000000 0.000000 1.941569
    15 16.525257 0.000000 0.000000 0.231085 -0.199832 -1.134359
  time 9
    0 -46.367592 -0.144533 35.656672 1.703969 -0.070913 -0.047162
    1 0.000005 3.345128 -2.981901 1.553407 0.091947 1.555959
    2 7.516565 0.011719 0.113285 -0.211663 -0.008881 0.149439
    3 10.697909 1.323389 -2.015737 -1.870732 1.139937 2.931536
    4 6.028143 0.000001 0.000000 1.133559 -0.291602 -0.558046
    5 11.692552 0.000000 0.000002 0.000000 0.000000 -1.658102
    6 10.701809 1.534327 1.855626 2.207030 -1.052234 2.525148
    7 6.028142 0.000001 0.000000 -1.536093 0.162958 -0.841002
    8 11.692555 0.000000 0.000000 0.000000 0.000000 -1.862145
    9 15.028072 2.916576 -0.117191 3.405959 -0.038159 0.227769
    10 3.843575 0.605483 -0.000003 -1.684148 -0.502587 -1.311946
    11 17.848177 0.000000 0.000000 0.000000 0.000000 0.712257
    12 16.525253 0.000000 0.000000 0.007838 0.397603 -1.259463
    13 -3.843575 -0.605484 0.000007 -0.799015 -0.520763 -2.311197
    14 17.848173 0.000000 0.000000 0.000000 0.000000 1.842692
    15 16.525257 0.000000 0.000000 0.313880 -0.141685 -1.156701
  time 10
    0 -51.151653 -0.171877 36.508261 1.687872 -0.070985 -0.012994
    1 0.000005 3.345128 -2.981901 1.543411 0.096199 1.551741
    2 7.516565 0.035157 0.105472 -0.255754 -0.001918 0.160529
    3 10.694003 1.264794 -2.050895 -1.753235 1.125906 3.043979
    4 6.028143 0.000001 0.000000 1.156050 -0.300955 -0.583304
    5 11.692552 0.000000 0.000002 0.000000 0.000000 -1.590931
    6 10.701809 1.585110 1.808750 2.301406 -1.058217 2.439540
    7 6.028142 0.000001 0.000000 -1.530102 0.165185 -0.807896
    8 11.692555 0.000000 0.000000 0.000000 0.000000 -1.921075
    9 15.028072 2.912670 -0.136723 3.433982 -0.038411 0.225492
    10 3.859201 0.503918 -0.000003 -1.634837 -0.532256 -1.203359
    11 17.848177 0.000000 0.000000 0.000000 0.000000 0.728633
    12 16.525253 0.000000 0.000000 0.115082 0.403869 -1.054151
    13 -3.859201 -0.503918 0.000007 -0.888084 -0.491608 -2.330748
    14 17.848173 0.000000 0.000000 0.000000 0.000000 1.596156
    15 16.525257 0.000000 0.000000 0.389999 -0.052755 -1.172151
  time 11
    0 -55.818523 -0.273443 37.215314 1.696832 -0.070997 0.000369
    1 0.000005 3.345128 -2.981901 1.535978 0.105591 1.547234
    2 7.516565 0.019532 0.089846 -0.275759 0.004314 0.151661
    3 10.694003 1.233543 -2.070427 -1.701033 1.138817 3.095946
    4 6.028143 0.000001 0.000000 1.139496 -0.278794 -0.626644
    5 11.692552 0.000000 0.000002 0.000000 0.000000 -1.544746
    6 10.701809 1.616361 1.785312 2.386344 -1.078723 2.361697
    7 6.028142 0.000001 0.000000 -1.505891 0.188925 -0.777322
    8 11.692555 0.000000 0.000000 0.000000 0.000000 -1.942470
    9 15.028072 2.912670 -0.156255 3.450639 -0.039537 0.223688
    10 3.882639 0.296880 -0.000003 -1.639594 -0.591460 -1.098459
    11 17.848177 0.000000 0.000000 0.000000 0.000000 0.767101
    12 16.525253 0.000000 0.000000 0.259193 0.321355 -0.875487
    13 -3.882639 -0.296880 0.000007 -0.984591 -0.424425 -2.274738
    14 17.848173 0.000000 0.000000 0.000000 0.000000 1.258847
    15 16.525257 0.000000 0.000000 0.403816 0.006840 -1.170372
  time 12
    0 -60.430703 -0.476575 37.254377 1.719557 -0.070985 -0.012173
    1 0.000005 3.345128 -2.981901 1.532642 0.116058 1.542740
    2 7.516565 -0.011719 0.062502 -0.275213 0.010007 0.132974
    3 10.694003 1.221824 -2.078239 -1.696609 1.171737 3.103672
    4 6.028143 0.000001 0.000000 1.072776 -0.217516 -0.675482
    5 11.692552 0.000000 0.000002 0.000000 0.000000 -1.524486
    6 10.701809 1.624174 1.777499 2.429719 -1.099446 2.322776
    7 6.028142 0.000001 0.000000 -1.496484 0.241049 -0.773208
    8 11.692555 0.000000 0.000000 0.000000 0.000000 -1.932936
    9 15.028072 2.912670 -0.156255 3.458398 -0.043204 0.222657
    10 3.890452 0.089843 -0.000003 -1.661551 -0.676698 -1.001280
    11 17.848177 0.000000 0.000000 0.000000 0.000000 0.870610
    12 16.525253 0.000000 0.000000 0.324421 0.223767 -0.828403
    13 -3.890452 -0.089843 0.000007 -1.062594 -0.343998 -2.196535
    14 17.848173 0.000000 0.000000 0.000000 0.000000 0.922110
    15 16.525257 0.000000 0.000000 0.377128 -0.025451 -1.177560
  time 13
    0 -65.046790 -0.722676 36.891085 1.746261 -0.070925 -0.045346
    1 0.000005 3.345128 -2.981901 1.534433 0.124469 1.538689
    2 7.516565 -0.046876 0.031251 -0.254691 0.015113 0.112510
    3 10.694003 1.229636 -2.074333 -1.736955 1.212798 3.068363
    4 6.028143 0.000001 0.000000 0.993598 -0.123894 -0.733827
    5 11.692552 0.000000 0.000002 0.000000 0.000000 -1.539009
    6 10.701809 1.616361 1.781405 2.410176 -1.116267 2.344058
    7 6.028142 0.000001 0.000000 -1.496286 0.323066 -0.784402
    8 11.692555 0.000000 0.000000 0.000000 0.000000 -1.908163
    9 15.028072 2.912670 -0.140629 3.458695 -0.050994 0.222506
    10 3.890452 -0.027349 -0.000003 -1.694761 -0.768803 -0.915079
    11 17.848177 0.000000 0.000000 0.000000 0.000000 1.023323
    12 16.525253 0.000000 0.000000 0.322981 0.142922 -0.835545
    13 -3.890452 0.027348 0.000007 -1.113206 -0.281229 -2.113313
    14 17.848173 0.000000 0.000000 0.000000 0.000000 0.653965
    15 16.525257 0.000000 0.000000 0.328965 -0.104327 -1.219613
  time 14
    0 -69.764443 -0.929714 36.391070 1.769196 -0.070685 -0.092760
    1 0.000005 3.345128 -2.981901 1.540474 0.127997 1.535753
    2 7.516565 -0.078127 0.000000 -0.211576 0.019247 0.096468
    3 10.694003 1.264794 -2.054801 -1.826612 1.236790 2.982899
    4 6.028143 0.000001 0.000000 0.923784 -0.009033 -0.776048
    5 11.692552 0.000000 0.000002 0.000000 0.000000 -1.582217
    6 10.701809 1.589016 1.808750 2.316563 -1.126715 2.437047
    7 6.028142 0.000001 0.000000 -1.489652 0.423389 -0.790098
    8 11.692555 0.000000 0.000000 0.000000 0.000000 -1.876108
    9 15.028072 2.916576 -0.105472 3.453308 -0.065172 0.223215
    10 3.890452 -0.066412 -0.000003 -1.761455 -0.846994 -0.839428
    11 17.848177 0.000000 0.000000 0.000000 0.000000 1.189864
    12 16.525253 0.000000 0.000000 0.286842 0.107992 -0.836570
    13 -3.890452 0.066412 0.000007 -1.149396 -0.286562 -2.031059
    14 17.848173 0.000000 0.000000 0.000000 0.000000 0.569004
    15 16.525257 0.000000 0.000000 0.252025 -0.174056 -1.317834
  time 15
    0 -74.618819 -1.015654 35.898867 1.781277 -0.070218 -0.148144
    1 0.000005 3.345128 -2.981901 1.549787 0.121619 1.534291
    2 7.516565 -0.089846 -0.039064 -0.145698 0.023993 0.090268
    3 10.697909 1.319483 -2.015737 -1.955670 1.230029 2.856211
    4 6.028143 0.000001 0.000000 0.881645 0.108179 -0.780056
    5 11.692552 0.000000 0.000002 0.000000 0.000000 -1.641763
    6 10.701809 1.538234 1.851720 2.166515 -1.129446 2.584009
    7 6.028142 0.000001 0.000000 -1.467174 0.515144 -0.775423
    8 11.692555 0.000000 0.000000 0.000000 0.000000 -1.838798
    9 15.024166 2.920483 -0.050783 3.442780 -0.084659 0.224633
    10 3.890452 -0.105476 -0.000003 -1.852210 -0.907948 -0.791567
    11 17.848177 0.000000 0.000000 0.000000 0.000000 1.357640
    12 16.525253 0.000000 0.000000 0.213199 0.148007 -0.857134
    13 -3.890452 0.105476 0.000007 -1.182865 -0.365853 -1.936123
    14 17.848173 0.000000 0.000000 0.000000 0.000000 0.699966
    15 16.525257 0.000000 0.000000 0.139632 -0.180490 -1.462221
  time 16
    0 -79.617730 -0.910183 35.551200 1.773773 -0.069499 -0.205697
    1 0.000005 3.345128 -2.981901 1.561200 0.106573 1.534387
    2 7.516565 -0.066408 -0.078127 -0.064844 0.028499 0.103643
    3 10.697909 1.389798 -1.964955 -2.082664 1.188473 2.729886
    4 6.028143 0.000001 0.000000 0.872197 0.204611 -0.731777
    5 11.692552 0.000000 0.000002 0.000000 0.000000 -1.710532
    6 10.697902 1.467919 1.910315 1.997973 -1.124916 2.746789
    7 6.028142 0.000001 0.000000 -1.432368 0.574967 -0.743188
    8 11.692555 0.000000 0.000000 0.000000 0.000000 -1.796308
    9 15.024166 2.924389 -0.007813 3.409122 -0.099496 0.227812
    10 3.882639 -0.265637 -0.000003 -1.967575 -0.978553 -0.800230
    11 17.848177 0.000000 0.000000 0.000000 0.000000 1.551834
    12 16.525253 0.000000 0.000000 0.187212 0.474603 -0.955338
    13 -3.882639 0.265637 0.000007 -1.248261 -0.397237 -1.783241
    14 17.848173 0.000000 0.000000 0.000000 0.000000 0.792540
    15 16.525257 0.000000 0.000000 0.011780 -0.119146 -1.556479
  time 17
    0 -84.749458 -0.699239 35.605890 1.750294 -0.068612 -0.259910
    1 0.000005 3.345128 -2.981901 1.573256 0.090171 1.535957
    2 7.516565 -0.015625 -0.109378 0.014946 0.028619 0.133884
    3 10.697909 1.471831 -1.906359 -2.174209 1.126167 2.638506
    4 6.028143 0.000001 0.000000 0.884320 0.266626 -0.647708
    5 11.692552 0.000000 0.000002 0.000000 0.000000 -1.783367
    6 10.697902 1.385885 1.968911 1.852977 -1.123984 2.884739
    7 6.028142 0.000001 0.000000 -1.453905 0.603690 -0.766999
    8 11.692555 0.000000 0.000000 0.000000 0.000000 -1.734524
    9 15.028072 2.920483 0.019532 3.361179 -0.108293 0.231270
    10 3.863107 -0.488300 -0.000003 -2.094285 -0.989460 -0.855296
    11 17.848177 0.000000 0.000000 0.000000 0.000000 1.645610
    12 16.525253 0.000000 0.000000 -0.058934 0.471796 -1.031249
    13 -3.863107 0.488300 0.000007 -1.410617 -0.312745 -1.568800
    14 17.848173 0.000000 0.000000 0.000000 0.000000 0.685642
    15 16.525257 0.000000 0.000000 -0.090169 0.020472 -1.551106
  time 18
    0 -89.912436 -0.531265 36.234815 1.723291 -0.067701 -0.306034
    1 0.000005 3.345128 -2.981901 1.584695 0.081667 1.538821
    2 7.516565 0.039064 -0.113285 0.079359 0.023322 0.166983
    3 10.701815 1.542146 -1.847764 -2.228887 1.064008 2.584186
    4 6.028143 0.000001 0.000000 0.903550 0.292335 -0.561308
    5 11.692552 0.000000 0.000002 0.000000 0.000000 -1.855331
    6 10.697902 1.315571 2.019694 1.752977 -1.144577 2.979742
    7 6.028142 0.000001 0.000000 -1.523963 0.610597 -0.856665
    8 11.692555 0.000000 0.000000 0.000000 0.000000 -1.655100
    9 15.031978 2.916576 0.054689 3.321343 -0.109935 0.233247
    10 3.843575 -0.605491 -0.000003 -2.131886 -0.934700 -1.018262
    11 17.848177 0.000000 0.000000 0.000000 0.000000 1.588835
    12 16.525253 0.000000 0.000000 -0.069263 0.319382 -1.046912
    13 -3.843575 0.605491 0.000007 -1.449074 -0.237694 -1.424987
    14 17.848173 0.000000 0.000000 0.000000 0.000000 0.633830
    15 16.525257 0.000000 0.000000 -0.064249 0.000707 -1.419946
end
