// Created by Crowbar 0.74
version 1
nodes
  0 "ValveBiped.Bip01" -1
  1 "ValveBiped.Bip01_Spine" 0
  2 "ValveBiped.Bip01_Spine2" 1
  3 "ValveBiped.Bip01_R_Clavicle" 2
  4 "ValveBiped.Bip01_R_UpperArm" 3
  5 "ValveBiped.Bip01_R_Forearm" 4
  6 "ValveBiped.Bip01_L_Clavicle" 2
  7 "ValveBiped.Bip01_L_UpperArm" 6
  8 "ValveBiped.Bip01_L_Forearm" 7
  9 "ValveBiped.Bip01_Head1" 2
  10 "ValveBiped.Bip01_L_Thigh" 0
  11 "ValveBiped.Bip01_L_Calf" 10
  12 "ValveBiped.Bip01_L_Foot" 11
  13 "ValveBiped.Bip01_R_Thigh" 0
  14 "ValveBiped.Bip01_R_Calf" 13
  15 "ValveBiped.Bip01_R_Foot" 14
end
skeleton
  time 0
    0 -0.002349 -0.531261 33.785522 1.653330 0.000000 -0.131206
    1 0.000005 3.345128 -2.981901 1.560607 0.133651 1.570796
    2 7.516565 -0.011719 -0.109378 -0.019861 0.070481 0.152508
    3 10.697909 1.417142 -1.945423 -2.075645 1.153823 2.736163
    4 6.028143 0.000001 0.000000 0.958314 -0.220373 -0.527383
    5 11.692552 0.000000 0.000002 0.000000 0.000000 -1.832094
    6 10.697902 1.440574 1.929847 2.094636 -1.100140 2.633188
    7 6.028142 0.000001 0.000000 -1.571592 0.256411 -1.046006
    8 11.692555 0.000000 0.000000 0.000000 0.000000 -1.639260
    9 15.024166 2.924389 0.093753 3.291243 -0.103763 0.273587
    10 3.843575 -0.605491 -0.000003 -2.213401 -0.895156 -1.133197
    11 17.848177 0.000000 0.000000 0.000000 0.000000 1.511126
    12 16.525253 0.000000 0.000000 0.070157 0.022976 -0.874974
    13 -3.843575 0.605491 0.000007 -1.526443 -0.581215 -1.601384
    14 17.848173 0.000000 0.000000 0.000000 0.000000 1.005926
    15 16.525257 0.000000 0.000000 -0.068194 -0.123931 -1.479820
  time 1
    0 -0.216975 5.129744 34.254286 1.638373 0.000000 -0.162386
    1 0.000005 3.345128 -2.981901 1.564574 0.137950 1.570796
    2 7.516565 0.019532 -0.101566 -0.012446 0.063375 0.171491
    3 10.697909 1.409329 -1.953236 -1.972186 1.128974 2.839734
    4 6.028143 0.000001 0.000000 0.978213 -0.359100 -0.475935
    5 11.692552 0.000000 0.000002 0.000000 0.000000 -1.790847
    6 10.697902 1.448387 1.922035 2.103025 -1.071505 2.619863
    7 6.028142 0.000001 0.000000 -1.540797 0.138311 -0.959227
    8 11.692555 0.000000 0.000000 0.000000 0.000000 -1.712904
    9 15.024166 2.924389 0.089846 3.302710 -0.106207 0.273566
    10 3.859201 -0.515645 -0.000003 -2.090168 -0.620546 -1.234151
    11 17.848177 0.000000 0.000000 0.000000 0.000000 1.625990
    12 16.525253 0.000000 0.000000 0.123987 0.101461 -0.964659
    13 -3.859201 0.515644 0.000007 -1.590297 -0.688174 -1.534101
    14 17.848173 0.000000 0.000000 0.000000 0.000000 0.877174
    15 16.525257 0.000000 0.000000 -0.080065 -0.092465 -1.191788
  time 2
    0 -0.392538 10.790750 34.887118 1.645790 0.000000 -0.174576
    1 0.000005 3.345128 -2.981901 1.567383 0.150450 1.570796
    2 7.516565 0.003906 -0.085940 -0.010577 0.044870 0.162899
    3 10.697909 1.401517 -1.953236 -1.913437 1.115393 2.899788
    4 6.028143 0.000001 0.000000 1.047275 -0.491470 -0.495321
    5 11.692552 0.000000 0.000002 0.000000 0.000000 -1.731155
    6 10.697902 1.456200 1.918128 2.134579 -1.075038 2.588419
    7 6.028142 0.000001 0.000000 -1.500495 0.057389 -0.891828
    8 11.692555 0.000000 0.000000 0.000000 0.000000 -1.789326
    9 15.024166 2.924389 0.074221 3.302759 -0.097327 0.273329
    10 3.878733 -0.304701 -0.000003 -2.006274 -0.320397 -1.308001
    11 17.848177 0.000000 0.000000 0.000000 0.000000 1.539630
    12 16.525253 0.000000 0.000000 0.210439 0.186742 -0.924973
    13 -3.878733 0.304700 0.000007 -1.611158 -0.742506 -1.489012
    14 17.848173 0.000000 0.000000 0.000000 0.000000 0.656503
    15 16.525257 0.000000 0.000000 -0.100827 -0.075415 -0.884674
  time 3
    0 -0.486068 16.451756 35.680111 1.667287 0.000000 -0.162796
    1 0.000005 3.345128 -2.981901 1.568426 0.166758 1.570796
    2 7.516565 -0.035157 -0.058596 -0.013049 0.019091 0.137948
    3 10.697909 1.401517 -1.957142 -1.902643 1.129163 2.913248
    4 6.028143 0.000001 0.000000 1.157388 -0.593708 -0.597844
    5 11.692552 0.000000 0.000002 0.000000 0.000000 -1.656722
    6 10.697902 1.456200 1.918128 2.182816 -1.100010 2.544033
    7 6.028142 0.000001 0.000000 -1.423852 0.005340 -0.812208
    8 11.692555 0.000000 0.000000 0.000000 0.000000 -1.863421
    9 15.024166 2.924389 0.050783 3.295049 -0.079745 0.272986
    10 3.890452 -0.074225 -0.000003 -1.954493 -0.167561 -1.353546
    11 17.848177 0.000000 0.000000 0.000000 0.000000 1.380196
    12 16.525253 0.000000 0.000000 0.263512 0.218905 -0.811235
    13 -3.890452 0.074225 0.000007 -1.611612 -0.729306 -1.473336
    14 17.848173 0.000000 0.000000 0.000000 0.000000 0.378290
    15 16.525257 0.000000 0.000000 -0.111377 -0.049478 -0.570705
  time 4
    0 -0.399904 22.112761 36.180126 1.695324 0.000000 -0.131499
    1 0.000005 3.345128 -2.981901 1.567331 0.179304 1.570796
    2 7.516565 -0.093753 -0.027345 -0.018884 -0.005633 0.105505
    3 10.697909 1.401517 -1.953236 -1.928006 1.161035 2.890795
    4 6.028143 0.000001 0.000000 1.248522 -0.642131 -0.725998
    5 11.692552 0.000000 0.000002 0.000000 0.000000 -1.589914
    6 10.697902 1.456200 1.918128 2.238584 -1.134779 2.493991
    7 6.028142 0.000001 0.000000 -1.335278 -0.030893 -0.729542
    8 11.692555 0.000000 0.000000 0.000000 0.000000 -1.921826
    9 15.024166 2.924389 0.023438 3.278936 -0.055716 0.272835
    10 3.890452 0.035153 -0.000003 -1.896581 -0.115943 -1.408611
    11 17.848177 0.000000 0.000000 0.000000 0.000000 1.202609
    12 16.525253 0.000000 0.000000 0.194543 0.200453 -0.844194
    13 -3.890452 -0.035154 0.000007 -1.603630 -0.796489 -1.475009
    14 17.848173 0.000000 0.000000 0.000000 0.000000 0.275894
    15 16.525257 0.000000 0.000000 -0.049218 -0.075777 -0.556404
  time 5
    0 -0.247332 27.773767 36.152781 1.716891 0.000000 -0.086313
    1 0.000005 3.345128 -2.981901 1.564574 0.183673 1.570796
    2 7.516565 -0.136723 0.000000 -0.027967 -0.023286 0.080617
    3 10.697909 1.409329 -1.953236 -1.985163 1.198244 2.836354
    4 6.028143 0.000001 0.000000 1.289742 -0.633193 -0.844366
    5 11.692552 0.000000 0.000002 0.000000 0.000000 -1.544093
    6 10.697902 1.448387 1.922035 2.264418 -1.162286 2.472422
    7 6.028142 0.000001 0.000000 -1.265121 -0.042141 -0.676145
    8 11.692555 0.000000 0.000000 0.000000 0.000000 -1.942545
    9 15.024166 2.924389 0.000000 3.251950 -0.028200 0.273136
    10 3.890452 0.058592 -0.000003 -1.830619 -0.121060 -1.446265
    11 17.848177 0.000000 0.000000 0.000000 0.000000 1.059783
    12 16.525253 0.000000 0.000000 0.111802 0.160987 -0.969655
    13 -3.890452 -0.058592 0.000007 -1.571884 -0.872851 -1.499844
    14 17.848173 0.000000 0.000000 0.000000 0.000000 0.301759
    15 16.525257 0.000000 0.000000 0.018564 -0.089087 -0.634544
  time 6
    0 -0.051790 33.434773 35.551200 1.724414 0.000000 -0.032686
    1 0.000005 3.345128 -2.981901 1.560684 0.178136 1.570796
    2 7.512659 -0.152348 0.039064 -0.040585 -0.036409 0.072131
    3 10.697909 1.417142 -1.945423 -2.055000 1.217611 2.767729
    4 6.028143 0.000001 0.000000 1.300527 -0.567999 -0.937755
    5 11.692552 0.000000 0.000002 0.000000 0.000000 -1.524341
    6 10.697902 1.440574 1.929847 2.234103 -1.177026 2.504824
    7 6.028142 0.000001 0.000000 -1.206698 -0.017457 -0.641338
    8 11.692555 0.000000 0.000000 0.000000 0.000000 -1.932561
    9 15.024166 2.924389 -0.023438 3.222691 -0.001151 0.273759
    10 3.890452 0.097655 -0.000003 -1.767402 -0.172499 -1.466336
    11 17.848177 0.000000 0.000000 0.000000 0.000000 0.981148
    12 16.525253 0.000000 0.000000 0.052926 0.144407 -1.172085
    13 -3.890452 -0.097656 0.000007 -1.497418 -0.966960 -1.554092
    14 17.848173 0.000000 0.000000 0.000000 0.000000 0.536509
    15 16.525257 0.000000 0.000000 0.042877 -0.095722 -0.734692
  time 7
    0 0.171097 39.095778 34.391009 1.711140 0.000000 0.024281
    1 0.000005 3.345128 -2.981901 1.556124 0.165823 1.570796
    2 7.512659 -0.132816 0.074221 -0.055704 -0.047099 0.083453
    3 10.697909 1.428861 -1.937610 -2.115696 1.210283 2.705743
    4 6.028143 0.000001 0.000000 1.284809 -0.453275 -0.982027
    5 11.692552 0.000000 0.000002 0.000000 0.000000 -1.539590
    6 10.697902 1.428855 1.937660 2.142587 -1.175227 2.596184
    7 6.028142 0.000001 0.000000 -1.150801 0.057540 -0.605306
    8 11.692555 0.000000 0.000000 0.000000 0.000000 -1.907638
    9 15.024166 2.924389 -0.046876 3.196792 0.023478 0.274854
    10 3.882639 0.289067 -0.000003 -1.762736 -0.266265 -1.456901
    11 17.848177 0.000000 0.000000 0.000000 0.000000 0.970874
    12 16.525253 0.000000 0.000000 0.045773 0.162024 -1.417083
    13 -3.882639 -0.289068 0.000007 -1.295244 -1.040700 -1.683902
    14 17.848173 0.000000 0.000000 0.000000 0.000000 0.956815
    15 16.525257 0.000000 0.000000 -0.033259 -0.107745 -0.885896
  time 8
    0 0.401796 44.756784 33.676143 1.681648 0.000000 0.079431
    1 0.000005 3.345128 -2.981901 1.551397 0.153464 1.570796
    2 7.516565 -0.089846 0.101566 -0.070391 -0.052037 0.108235
    3 10.697909 1.444487 -1.929797 -2.148255 1.176608 2.669046
    4 6.028143 0.000001 0.000000 1.252117 -0.309663 -0.963386
    5 11.692552 0.000000 0.000002 0.000000 0.000000 -1.583161
    6 10.697902 1.413230 1.945473 2.024570 -1.158796 2.713523
    7 6.028142 0.000001 0.000000 -1.094606 0.181377 -0.560571
    8 11.692555 0.000000 0.000000 0.000000 0.000000 -1.875432
    9 15.024166 2.924389 -0.062502 3.167681 0.044223 0.276380
    10 3.855295 0.519543 -0.000003 -1.623401 -0.406756 -1.522259
    11 17.848177 0.000000 0.000000 0.000000 0.000000 0.966703
    12 16.525253 0.000000 0.000000 0.008090 0.047653 -1.640781
    13 -3.855295 -0.519543 0.000007 -1.054431 -0.981516 -1.835024
    14 17.848173 0.000000 0.000000 0.000000 0.000000 1.305666
    15 16.525257 0.000000 0.000000 -0.196689 -0.042662 -0.958108
  time 9
    0 0.628589 50.417790 33.519888 1.652032 0.000000 0.127079
    1 0.000005 3.345128 -2.981901 1.546915 0.147740 1.570796
    2 7.516565 -0.046876 0.105472 -0.081659 -0.049820 0.132974
    3 10.697909 1.456206 -1.918078 -2.156041 1.129294 2.654742
    4 6.028143 0.000001 0.000000 1.209393 -0.166052 -0.893204
    5 11.692552 0.000000 0.000002 0.000000 0.000000 -1.642925
    6 10.697902 1.401511 1.957192 1.922853 -1.135689 2.814949
    7 6.028142 0.000001 0.000000 -1.046333 0.328690 -0.507728
    8 11.692555 0.000000 0.000000 0.000000 0.000000 -1.838122
    9 15.024166 2.924389 -0.066408 3.146971 0.054782 0.277625
    10 3.843575 0.605483 -0.000003 -1.623676 -0.598373 -1.543102
    11 17.848177 0.000000 0.000000 0.000000 0.000000 1.027186
    12 16.525253 0.000000 0.000000 0.068302 0.060123 -1.520668
    13 -3.843575 -0.605484 0.000007 -0.974977 -0.866338 -1.876150
    14 17.848173 0.000000 0.000000 0.000000 0.000000 1.550074
    15 16.525257 0.000000 0.000000 -0.256795 0.080690 -0.960294
  time 10
    0 0.843663 56.078795 33.867555 1.638373 0.000000 0.161189
    1 0.000005 3.345128 -2.981901 1.543115 0.152295 1.570796
    2 7.516565 -0.027345 0.097659 -0.088269 -0.042749 0.144233
    3 10.697909 1.464019 -1.914172 -2.152030 1.084204 2.651724
    4 6.028143 0.000001 0.000000 1.157890 -0.046490 -0.801399
    5 11.692552 0.000000 0.000002 0.000000 0.000000 -1.711839
    6 10.697902 1.393698 1.961098 1.862033 -1.123030 2.876686
    7 6.028142 0.000001 0.000000 -1.062226 0.483212 -0.501874
    8 11.692555 0.000000 0.000000 0.000000 0.000000 -1.795482
    9 15.024166 2.924389 -0.058596 3.136740 0.055992 0.278162
    10 3.859201 0.503918 -0.000003 -1.551950 -0.715255 -1.614636
    11 17.848177 0.000000 0.000000 0.000000 0.000000 0.910391
    12 16.525253 0.000000 0.000000 0.092523 0.015408 -1.251135
    13 -3.859201 -0.503918 0.000007 -0.982868 -0.741851 -1.865406
    14 17.848173 0.000000 0.000000 0.000000 0.000000 1.692086
    15 16.525257 0.000000 0.000000 -0.231124 0.113925 -0.884044
  time 11
    0 1.015767 61.739801 34.617578 1.648280 0.000000 0.174493
    1 0.000005 3.345128 -2.981901 1.540410 0.162389 1.570796
    2 7.516565 -0.042970 0.078127 -0.090396 -0.031376 0.134794
    3 10.697909 1.467925 -1.910265 -2.155215 1.057930 2.643637
    4 6.028143 0.000001 0.000000 1.101872 0.045933 -0.723202
    5 11.692552 0.000000 0.000002 0.000000 0.000000 -1.784674
    6 10.697902 1.389792 1.965005 1.845827 -1.137358 2.895284
    7 6.028142 0.000001 0.000000 -1.155504 0.614409 -0.580506
    8 11.692555 0.000000 0.000000 0.000000 0.000000 -1.733173
    9 15.024166 2.924389 -0.046876 3.132243 0.052457 0.277883
    10 3.882639 0.296880 -0.000003 -1.493855 -0.714896 -1.669273
    11 17.848177 0.000000 0.000000 0.000000 0.000000 0.550506
    12 16.525253 0.000000 0.000000 0.076183 -0.003959 -0.879491
    13 -3.882639 -0.296880 0.000007 -1.047266 -0.595508 -1.817939
    14 17.848173 0.000000 0.000000 0.000000 0.000000 1.696997
    15 16.525257 0.000000 0.000000 -0.215808 0.071441 -0.785637
  time 12
    0 1.101931 67.400807 35.582451 1.670110 0.000000 0.162010
    1 0.000005 3.345128 -2.981901 1.539212 0.173627 1.570796
    2 7.516565 -0.078127 0.054689 -0.088816 -0.014286 0.114118
    3 10.697909 1.467925 -1.906359 -2.183646 1.062088 2.614847
    4 6.028143 0.000001 0.000000 1.050703 0.112694 -0.683311
    5 11.692552 0.000000 0.000002 0.000000 0.000000 -1.855331
    6 10.697902 1.385885 1.965005 1.866418 -1.173363 2.878124
    7 6.028142 0.000001 0.000000 -1.292946 0.700012 -0.729304
    8 11.692555 0.000000 0.000000 0.000000 0.000000 -1.655100
    9 15.024166 2.924389 -0.031251 3.133034 0.043792 0.277067
    10 3.890452 0.089843 -0.000003 -1.468788 -0.771047 -1.686513
    11 17.848177 0.000000 0.000000 0.000000 0.000000 0.329199
    12 16.525253 0.000000 0.000000 -0.024130 0.064253 -0.639842
    13 -3.890452 -0.089843 0.000007 -1.136335 -0.447548 -1.755412
    14 17.848173 0.000000 0.000000 0.000000 0.000000 1.561369
    15 16.525257 0.000000 0.000000 -0.225965 -0.013367 -0.719427
  time 13
    0 1.031840 73.061812 36.023871 1.694465 0.000000 0.128896
    1 0.000005 3.345128 -2.981901 1.540203 0.182668 1.570796
    2 7.516565 -0.117191 0.023438 -0.083958 0.006364 0.091093
    3 10.697909 1.467925 -1.910265 -2.235199 1.089482 2.566803
    4 6.028143 0.000001 0.000000 1.012828 0.154253 -0.672127
    5 11.692552 0.000000 0.000002 0.000000 0.000000 -1.911174
    6 10.697902 1.389792 1.965005 1.915418 -1.213595 2.832301
    7 6.028142 0.000001 0.000000 -1.422614 0.734925 -0.894557
    8 11.692555 0.000000 0.000000 0.000000 0.000000 -1.584758
    9 15.024166 2.924389 -0.011719 3.140843 0.028907 0.276014
    10 3.890452 -0.027349 -0.000003 -1.494038 -0.814137 -1.661725
    11 17.848177 0.000000 0.000000 0.000000 0.000000 0.177490
    12 16.525253 0.000000 0.000000 -0.138395 0.142596 -0.504931
    13 -3.890452 0.027348 0.000007 -1.228034 -0.319607 -1.702132
    14 17.848173 0.000000 0.000000 0.000000 0.000000 1.371310
    15 16.525257 0.000000 0.000000 -0.217075 -0.123669 -0.789898
  time 14
    0 0.879715 78.722818 35.625421 1.714051 0.000000 0.081658
    1 0.000005 3.345128 -2.981901 1.542831 0.186477 1.570796
    2 7.516565 -0.148442 -0.003906 -0.075766 0.026162 0.072660
    3 10.697909 1.464019 -1.914172 -2.292886 1.124873 2.513991
    4 6.028143 0.000001 0.000000 0.990671 0.157708 -0.675482
    5 11.692552 0.000000 0.000002 0.000000 0.000000 -1.931289
    6 10.697902 1.393698 1.961098 1.972710 -1.231868 2.775836
    7 6.028142 0.000001 0.000000 -1.514259 0.723979 -1.028959
    8 11.692555 0.000000 0.000000 0.000000 0.000000 -1.536488
    9 15.024166 2.924389 0.003906 3.161156 0.005836 0.274983
    10 3.890452 -0.066412 -0.000003 -1.545637 -0.924466 -1.620211
    11 17.848177 0.000000 0.000000 0.000000 0.000000 0.338700
    12 16.525253 0.000000 0.000000 -0.187416 0.130268 -0.617101
    13 -3.890452 0.066412 0.000007 -1.314564 -0.197873 -1.664087
    14 17.848173 0.000000 0.000000 0.000000 0.000000 1.128294
    15 16.525257 0.000000 0.000000 -0.136762 -0.220179 -1.025059
  time 15
    0 0.680714 84.383824 34.480855 1.722239 0.000000 0.026391
    1 0.000005 3.345128 -2.981901 1.546618 0.179210 1.570796
    2 7.512659 -0.164067 -0.039064 -0.063723 0.044691 0.065041
    3 10.697909 1.456206 -1.918078 -2.311997 1.149999 2.498118
    4 6.028143 0.000001 0.000000 0.976374 0.113247 -0.669237
    5 11.692552 0.000000 0.000002 0.000000 0.000000 -1.921994
    6 10.697902 1.401511 1.957192 2.028955 -1.225604 2.717933
    7 6.028142 0.000001 0.000000 -1.570354 0.661928 -1.123293
    8 11.692555 0.000000 0.000000 0.000000 0.000000 -1.515543
    9 15.024166 2.924389 0.031251 3.194617 -0.025084 0.274146
    10 3.890452 -0.105476 -0.000003 -1.664113 -1.053422 -1.537269
    11 17.848177 0.000000 0.000000 0.000000 0.000000 0.573757
    12 16.525253 0.000000 0.000000 -0.169473 0.091412 -0.696599
    13 -3.890452 0.105476 0.000007 -1.383678 -0.094716 -1.652022
    14 17.848173 0.000000 0.000000 0.000000 0.000000 0.916872
    15 16.525257 0.000000 0.000000 -0.017246 -0.252872 -1.381673
  time 16
    0 0.462181 90.044829 33.707394 1.710702 0.000000 -0.031045
    1 0.000005 3.345128 -2.981901 1.551127 0.162085 1.570796
    2 7.512659 -0.136723 -0.078127 -0.048489 0.060582 0.079707
    3 10.697909 1.444487 -1.925891 -2.278552 1.164830 2.533064
    4 6.028143 0.000001 0.000000 0.967595 0.027458 -0.642675
    5 11.692552 0.000000 0.000002 0.000000 0.000000 -1.898321
    6 10.697902 1.413230 1.949379 2.072806 -1.196687 2.669713
    7 6.028142 0.000001 0.000000 -1.593377 0.550245 -1.158890
    8 11.692555 0.000000 0.000000 0.000000 0.000000 -1.531083
    9 15.024166 2.920483 0.058596 3.230599 -0.057778 0.273802
    10 3.882639 -0.265637 -0.000003 -1.966935 -1.124162 -1.329958
    11 17.848177 0.000000 0.000000 0.000000 0.000000 0.909078
    12 16.525253 0.000000 0.000000 -0.052196 0.035894 -0.725394
    13 -3.882639 0.265637 0.000007 -1.386944 -0.176761 -1.681084
    14 17.848173 0.000000 0.000000 0.000000 0.000000 0.901893
    15 16.525257 0.000000 0.000000 0.004675 -0.242336 -1.661184
  time 17
    0 0.231929 95.705835 33.523795 1.683489 0.000000 -0.085141
    1 0.000005 3.345128 -2.981901 1.555905 0.143394 1.570796
    2 7.516565 -0.078127 -0.105472 -0.032738 0.069714 0.114266
    3 10.697909 1.428861 -1.937610 -2.193673 1.167825 2.618287
    4 6.028143 0.000001 0.000000 0.961492 -0.087266 -0.594209
    5 11.692552 0.000000 0.000002 0.000000 0.000000 -1.867676
    6 10.697902 1.428855 1.937660 2.092635 -1.150082 2.642966
    7 6.028142 0.000001 0.000000 -1.591050 0.405310 -1.127327
    8 11.692555 0.000000 0.000000 0.000000 0.000000 -1.576651
    9 15.024166 2.924389 0.085940 3.264109 -0.087476 0.273694
    10 3.863107 -0.488300 -0.000003 -2.236456 -1.059751 -1.129252
    11 17.848177 0.000000 0.000000 0.000000 0.000000 1.238606
    12 16.525253 0.000000 0.000000 0.039421 -0.019257 -0.782279
    13 -3.863107 0.488300 0.000007 -1.519459 -0.401346 -1.628508
    14 17.848173 0.000000 0.000000 0.000000 0.000000 0.988410
    15 16.525257 0.000000 0.000000 -0.017782 -0.109857 -1.675560
  time 18
    0 0.001677 101.366841 33.785522 1.653330 0.000000 -0.131206
    1 0.000005 3.345128 -2.981901 1.560607 0.133651 1.570796
    2 7.516565 -0.011719 -0.109378 -0.019861 0.070481 0.152508
    3 10.697909 1.417142 -1.945423 -2.075645 1.153823 2.736163
    4 6.028143 0.000001 0.000000 0.958314 -0.220373 -0.527383
    5 11.692552 0.000000 0.000002 0.000000 0.000000 -1.832094
    6 10.697902 1.440574 1.929847 2.094636 -1.100140 2.633188
    7 6.028142 0.000001 0.000000 -1.571592 0.256411 -1.046006
    8 11.692555 0.000000 0.000000 0.000000 0.000000 -1.639260
    9 15.024166 2.924389 0.093753 3.291243 -0.103763 0.273587
    10 3.843575 -0.605491 -0.000003 -2.213401 -0.895156 -1.133197
    11 17.848177 0.000000 0.000000 0.000000 0.000000 1.511126
    12 16.525253 0.000000 0.000000 0.070157 0.022976 -0.874974
    13 -3.843575 0.605491 0.000007 -1.526443 -0.581215 -1.601384
    14 17.848173 0.000000 0.000000 0.000000 0.000000 1.005926
    15 16.525257 0.000000 0.000000 -0.068194 -0.123931 -1.479820
end
