// Created by Crowbar 0.74
version 1
nodes
  0 "ValveBiped.Bip01" -1
  1 "ValveBiped.Bip01_Spine" 0
  2 "ValveBiped.Bip01_Spine2" 1
  3 "ValveBiped.Bip01_R_Clavicle" 2
  4 "ValveBiped.Bip01_R_UpperArm" 3
  5 "ValveBiped.Bip01_R_Forearm" 4
  6 "ValveBiped.Bip01_L_Clavicle" 2
  7 "ValveBiped.Bip01_L_UpperArm" 6
  8 "ValveBiped.Bip01_L_Forearm" 7
  9 "ValveBiped.Bip01_Head1" 2
  10 "ValveBiped.Bip01_L_Thigh" 0
  11 "ValveBiped.Bip01_L_Calf" 10
  12 "ValveBiped.Bip01_L_Foot" 11
  13 "ValveBiped.Bip01_R_Thigh" 0
  14 "ValveBiped.Bip01_R_Calf" 13
  15 "ValveBiped.Bip01_R_Foot" 14
end
skeleton
  time 0
    0 -0.002349 -0.531261 35.398852 1.671004 0.000000 -0.131206
    1 0.000005 3.345128 -2.981901 1.587297 -0.015596 1.570796
    2 7.516565 0.062502 -0.121097 0.197205 0.010930 0.177798
    3 10.701815 1.542146 -1.847764 -2.228887 1.064008 2.584186
    4 6.028143 0.000001 0.000000 1.328954 0.087077 -0.645005
    5 11.692552 0.000000 0.000002 0.000000 0.000000 -1.711839
    6 10.697902 1.315571 2.019694 1.815513 -1.147481 2.912636
    7 6.028142 0.000001 0.000000 -1.098072 0.230217 -0.594191
    8 11.692555 0.000000 0.000000 0.000000 0.000000 -1.795482
    9 15.031978 2.916576 0.054689 3.056721 -0.038387 0.236404
    10 3.843575 -0.605491 -0.000003 -1.897039 -0.850405 -1.335190
    11 17.848177 0.000000 0.000000 0.000000 0.000000 1.877577
    12 16.525253 0.000000 0.000000 0.267593 0.122802 -0.795476
    13 -3.843575 0.605491 0.000007 -1.534878 0.039650 -1.562195
    14 17.848173 0.000000 0.000000 0.000000 0.000000 0.501722
    15 16.525257 0.000000 0.000000 -0.084743 -0.074751 -1.476745
  time 1
    0 0.231832 -7.524268 36.371538 1.656048 0.000000 -0.162386
    1 0.000005 3.345128 -2.981901 1.596378 -0.011344 1.570796
    2 7.516565 0.093753 -0.117191 0.250724 0.003032 0.193860
    3 10.701815 1.589022 -1.808700 -2.267168 1.025040 2.546946
    4 6.028143 0.000001 0.000000 1.318587 0.150521 -0.548633
    5 11.692552 0.000000 0.000002 0.000000 0.000000 -1.784674
    6 10.693996 1.260881 2.054851 1.705693 -1.134822 3.017992
    7 6.028142 0.000001 0.000000 -1.093269 0.320877 -0.592451
    8 11.692555 0.000000 0.000000 0.000000 0.000000 -1.733173
    9 15.031978 2.912670 0.097659 3.044761 -0.034707 0.235395
    10 3.859201 -0.515645 -0.000003 -2.059062 -0.872803 -1.253021
    11 17.848177 0.000000 0.000000 0.000000 0.000000 1.528661
    12 16.525253 0.000000 0.000000 0.277374 0.062320 -1.046880
    13 -3.859201 0.515644 0.000007 -1.582859 0.386318 -1.601824
    14 17.848173 0.000000 0.000000 0.000000 0.000000 0.125451
    15 16.525257 0.000000 0.000000 -0.068373 -0.068820 -1.111239
  time 2
    0 0.512889 -14.517275 37.492666 1.663465 0.000000 -0.174576
    1 0.000005 3.345128 -2.981901 1.602831 0.000992 1.570796
    2 7.516565 0.078127 -0.101566 0.275041 -0.003176 0.184908
    3 10.701815 1.616367 -1.781355 -2.315890 1.019733 2.500653
    4 6.028143 0.000001 0.000000 1.306631 0.187794 -0.507903
    5 11.692552 0.000000 0.000002 0.000000 0.000000 -1.855331
    6 10.693996 1.229630 2.074383 1.655169 -1.148522 3.068896
    7 6.028142 0.000001 0.000000 -1.150900 0.397421 -0.656764
    8 11.692555 0.000000 0.000000 0.000000 0.000000 -1.655100
    9 15.031978 2.912670 0.117191 3.038879 -0.024317 0.234600
    10 3.878733 -0.304701 -0.000003 -2.014874 -0.763821 -1.347198
    11 17.848177 0.000000 0.000000 0.000000 0.000000 0.954884
    12 16.525253 0.000000 0.000000 0.150806 0.190993 -1.190887
    13 -3.878733 0.304700 0.000007 -1.591839 0.407299 -1.647531
    14 17.848173 0.000000 0.000000 0.000000 0.000000 0.365930
    15 16.525257 0.000000 0.000000 -0.087492 -0.072962 -0.953181
  time 3
    0 0.821291 -21.510282 37.910647 1.684962 0.000000 -0.162796
    1 0.000005 3.345128 -2.981901 1.605691 0.017090 1.570796
    2 7.516565 0.035157 -0.074221 0.274667 -0.008305 0.160380
    3 10.701815 1.624180 -1.777449 -2.376880 1.040685 2.442711
    4 6.028143 0.000001 0.000000 1.313152 0.196594 -0.524586
    5 11.692552 0.000000 0.000002 0.000000 0.000000 -1.911174
    6 10.693996 1.221818 2.078289 1.649449 -1.185350 3.078771
    7 6.028142 0.000001 0.000000 -1.217789 0.439090 -0.747736
    8 11.692555 0.000000 0.000000 0.000000 0.000000 -1.584758
    9 15.028072 2.912670 0.109378 3.036012 -0.008042 0.234385
    10 3.890452 -0.074225 -0.000003 -1.964465 -0.703629 -1.443349
    11 17.848177 0.000000 0.000000 0.000000 0.000000 0.530114
    12 16.525253 0.000000 0.000000 -0.008027 0.203037 -1.152034
    13 -3.890452 0.074225 0.000007 -1.583585 0.465347 -1.682933
    14 17.848173 0.000000 0.000000 0.000000 0.000000 0.450155
    15 16.525257 0.000000 0.000000 -0.115447 -0.062165 -0.644251
  time 4
    0 1.137505 -28.503288 37.781737 1.712999 0.000000 -0.131499
    1 0.000005 3.345128 -2.981901 1.603334 0.029496 1.570796
    2 7.516565 -0.019532 -0.042970 0.250724 -0.012596 0.128848
    3 10.701815 1.616367 -1.781355 -2.435039 1.073503 2.387304
    4 6.028143 0.000001 0.000000 1.330710 0.173419 -0.579763
    5 11.692552 0.000000 0.000002 0.000000 0.000000 -1.931289
    6 10.693996 1.229630 2.074383 1.685007 -1.228140 3.048861
    7 6.028142 0.000001 0.000000 -1.257942 0.438335 -0.837245
    8 11.692555 0.000000 0.000000 0.000000 0.000000 -1.536488
    9 15.028072 2.916576 0.085940 3.037643 0.011313 0.234707
    10 3.890452 0.035153 -0.000003 -1.869501 -0.523953 -1.582042
    11 17.848177 0.000000 0.000000 0.000000 0.000000 0.000058
    12 16.525253 0.000000 0.000000 -0.084416 0.156145 -0.978399
    13 -3.890452 -0.035154 0.000007 -1.566896 0.472034 -1.691123
    14 17.848173 0.000000 0.000000 0.000000 0.000000 0.567776
    15 16.525257 0.000000 0.000000 -0.123141 -0.042782 -0.434173
  time 5
    0 1.430282 -35.496295 37.144999 1.734566 0.000000 -0.086313
    1 0.000005 3.345128 -2.981901 1.597048 0.033818 1.570796
    2 7.516565 -0.062502 -0.007813 0.199591 -0.016047 0.104997
    3 10.701815 1.592929 -1.804793 -2.444300 1.103659 2.378612
    4 6.028143 0.000001 0.000000 1.331630 0.121817 -0.638481
    5 11.692552 0.000000 0.000002 0.000000 0.000000 -1.921994
    6 10.693996 1.256975 2.054851 1.765941 -1.248927 2.971497
    7 6.028142 0.000001 0.000000 -1.282846 0.396176 -0.907333
    8 11.692555 0.000000 0.000000 0.000000 0.000000 -1.515543
    9 15.024166 2.920483 0.046876 3.045502 0.029758 0.235330
    10 3.890452 0.058592 -0.000003 -1.820464 -0.579566 -1.602370
    11 17.848177 0.000000 0.000000 0.000000 0.000000 0.172778
    12 16.525253 0.000000 0.000000 -0.055520 0.110901 -1.125610
    13 -3.890452 -0.058592 0.000007 -1.542044 0.309300 -1.670516
    14 17.848173 0.000000 0.000000 0.000000 0.000000 0.988082
    15 16.525257 0.000000 0.000000 -0.205454 -0.048673 -0.487934
  time 6
    0 1.664462 -42.489302 36.039497 1.742088 0.000000 -0.032686
    1 0.000005 3.345128 -2.981901 1.587979 0.026202 1.570796
    2 7.516565 -0.078127 0.031251 0.118248 -0.019463 0.097315
    3 10.701815 1.546052 -1.843857 -2.385964 1.132173 2.435106
    4 6.028143 0.000001 0.000000 1.304373 0.051969 -0.686107
    5 11.692552 0.000000 0.000002 0.000000 0.000000 -1.898321
    6 10.697902 1.307758 2.023600 1.889965 -1.241818 2.849077
    7 6.028142 0.000001 0.000000 -1.325920 0.313064 -0.953887
    8 11.692555 0.000000 0.000000 0.000000 0.000000 -1.531083
    9 15.024166 2.924389 0.000000 3.067249 0.043504 0.236146
    10 3.890452 0.097655 -0.000003 -1.772616 -0.679301 -1.594994
    11 17.848177 0.000000 0.000000 0.000000 0.000000 0.627520
    12 16.525253 0.000000 0.000000 0.017767 0.086814 -1.302928
    13 -3.890452 -0.097656 0.000007 -1.503223 0.059188 -1.646562
    14 17.848173 0.000000 0.000000 0.000000 0.000000 1.470187
    15 16.525257 0.000000 0.000000 -0.306315 -0.051086 -0.645178
  time 7
    0 1.773639 -49.482309 35.355882 1.728815 0.000000 0.024281
    1 0.000005 3.345128 -2.981901 1.577224 0.009286 1.570796
    2 7.516565 -0.050783 0.074221 0.012618 -0.021321 0.113039
    3 10.697909 1.479644 -1.898546 -2.250122 1.154681 2.566562
    4 6.028143 0.000001 0.000000 1.245596 -0.027923 -0.704282
    5 11.692552 0.000000 0.000002 0.000000 0.000000 -1.867676
    6 10.697902 1.378073 1.972817 2.025523 -1.204512 2.713715
    7 6.028142 0.000001 0.000000 -1.392561 0.196210 -0.954876
    8 11.692555 0.000000 0.000000 0.000000 0.000000 -1.576651
    9 15.024166 2.924389 -0.046876 3.118453 0.047962 0.237135
    10 3.882639 0.289067 -0.000003 -1.757247 -0.570723 -1.594222
    11 17.848177 0.000000 0.000000 0.000000 0.000000 0.822332
    12 16.525253 0.000000 0.000000 0.113895 0.097861 -1.386206
    13 -3.882639 -0.289068 0.000007 -1.486443 -0.282453 -1.631855
    14 17.848173 0.000000 0.000000 0.000000 0.000000 1.826322
    15 16.525257 0.000000 0.000000 -0.356959 -0.111003 -0.738694
  time 8
    0 1.710936 -56.475316 35.203534 1.699322 0.000000 0.079431
    1 0.000005 3.345128 -2.981901 1.565811 -0.007723 1.570796
    2 7.516565 0.003906 0.105472 -0.097668 -0.017761 0.146455
    3 10.697909 1.397610 -1.957142 -2.054705 1.157880 2.755114
    4 6.028143 0.000001 0.000000 1.170598 -0.113850 -0.677999
    5 11.692552 0.000000 0.000002 0.000000 0.000000 -1.832094
    6 10.697902 1.460106 1.918128 2.128192 -1.142170 2.610564
    7 6.028142 0.000001 0.000000 -1.465491 0.073505 -0.894439
    8 11.692555 0.000000 0.000000 0.000000 0.000000 -1.639260
    9 15.024166 2.920483 -0.089846 3.183991 0.043864 0.237135
    10 3.855295 0.519543 -0.000003 -1.608214 -0.284264 -1.631962
    11 17.848177 0.000000 0.000000 0.000000 0.000000 0.727784
    12 16.525253 0.000000 0.000000 0.100300 0.024624 -1.557375
    13 -3.855295 -0.519543 0.000007 -1.434199 -0.622871 -1.694822
    14 17.848173 0.000000 0.000000 0.000000 0.000000 1.939686
    15 16.525257 0.000000 0.000000 -0.366010 -0.228181 -0.712906
  time 9
    0 1.546667 -63.468323 35.621515 1.669707 0.000000 0.127079
    1 0.000005 3.345128 -2.981901 1.554772 -0.015596 1.570796
    2 7.516565 0.066408 0.113285 -0.188611 -0.009096 0.179321
    3 10.697909 1.323389 -2.015737 -1.870732 1.139937 2.931536
    4 6.028143 0.000001 0.000000 1.110985 -0.201621 -0.623102
    5 11.692552 0.000000 0.000002 0.000000 0.000000 -1.791573
    6 10.701809 1.534327 1.855626 2.186820 -1.075862 2.551607
    7 6.028142 0.000001 0.000000 -1.519160 -0.023420 -0.795121
    8 11.692555 0.000000 0.000000 0.000000 0.000000 -1.711553
    9 15.028072 2.916576 -0.117191 3.246464 0.032598 0.235846
    10 3.843575 0.605483 -0.000003 -1.612697 0.065978 -1.594994
    11 17.848177 0.000000 0.000000 0.000000 0.000000 0.444062
    12 16.525253 0.000000 0.000000 0.104174 0.071292 -1.445718
    13 -3.843575 -0.605484 0.000007 -1.225676 -0.881506 -1.847001
    14 17.848173 0.000000 0.000000 0.000000 0.000000 1.867984
    15 16.525257 0.000000 0.000000 -0.270790 -0.135311 -0.741547
  time 10
    0 1.319896 -70.461329 36.566856 1.656048 0.000000 0.161189
    1 0.000005 3.345128 -2.981901 1.545253 -0.009942 1.570796
    2 7.516565 0.093753 0.105472 -0.247419 -0.000312 0.193924
    3 10.694003 1.264794 -2.050895 -1.753235 1.125906 3.043979
    4 6.028143 0.000001 0.000000 1.099447 -0.291050 -0.599615
    5 11.692552 0.000000 0.000002 0.000000 0.000000 -1.732462
    6 10.701809 1.585110 1.808750 2.228288 -1.032834 2.511055
    7 6.028142 0.000001 0.000000 -1.543074 -0.083433 -0.709567
    8 11.692555 0.000000 0.000000 0.000000 0.000000 -1.787975
    9 15.028072 2.912670 -0.136723 3.283632 0.021476 0.234321
    10 3.859201 0.503918 -0.000003 -1.558262 0.444273 -1.554853
    11 17.848177 0.000000 0.000000 0.000000 0.000000 0.000058
    12 16.525253 0.000000 0.000000 0.083500 0.057540 -1.031954
    13 -3.859201 -0.503918 0.000007 -1.071937 -0.888762 -1.916661
    14 17.848173 0.000000 0.000000 0.000000 0.000000 1.507347
    15 16.525257 0.000000 0.000000 -0.266417 -0.070690 -0.997753
  time 11
    0 1.050155 -77.454336 37.766112 1.665937 0.000000 0.174493
    1 0.000005 3.345128 -2.981901 1.538465 0.002534 1.570796
    2 7.516565 0.074221 0.089846 -0.274207 0.006364 0.182136
    3 10.694003 1.233543 -2.070427 -1.701033 1.138817 3.095946
    4 6.028143 0.000001 0.000000 1.145683 -0.368407 -0.644166
    5 11.692552 0.000000 0.000002 0.000000 0.000000 -1.658102
    6 10.701809 1.616361 1.785312 2.278145 -1.026092 2.463794
    7 6.028142 0.000001 0.000000 -1.550699 -0.114118 -0.670529
    8 11.692555 0.000000 0.000000 0.000000 0.000000 -1.862145
    9 15.028072 2.912670 -0.156255 3.292380 0.014561 0.233290
    10 3.882639 0.296880 -0.000003 -1.547650 0.443016 -1.510594
    11 17.848177 0.000000 0.000000 0.000000 0.000000 0.278140
    12 16.525253 0.000000 0.000000 0.095759 0.058719 -0.908158
    13 -3.882639 -0.296880 0.000007 -1.113569 -0.754527 -1.810453
    14 17.848173 0.000000 0.000000 0.000000 0.000000 0.904021
    15 16.525257 0.000000 0.000000 -0.160825 -0.189457 -1.143103
  time 12
    0 0.756976 -84.447343 38.371599 1.687785 0.000000 0.162010
    1 0.000005 3.345128 -2.981901 1.535901 0.016436 1.570796
    2 7.516565 0.027345 0.062502 -0.273690 0.011481 0.157354
    3 10.694003 1.221824 -2.078239 -1.696609 1.171737 3.103672
    4 6.028143 0.000001 0.000000 1.212570 -0.410242 -0.726744
    5 11.692552 0.000000 0.000002 0.000000 0.000000 -1.590931
    6 10.701809 1.624174 1.777499 2.333436 -1.044908 2.411643
    7 6.028142 0.000001 0.000000 -1.537083 -0.120459 -0.638372
    8 11.692555 0.000000 0.000000 0.000000 0.000000 -1.921075
    9 15.028072 2.912670 -0.156255 3.295691 0.005273 0.232624
    10 3.890452 0.089843 -0.000003 -1.555243 0.503387 -1.479116
    11 17.848177 0.000000 0.000000 0.000000 0.000000 0.347892
    12 16.525253 0.000000 0.000000 0.115988 0.045883 -0.588434
    13 -3.890452 -0.089843 0.000007 -1.178148 -0.649578 -1.689362
    14 17.848173 0.000000 0.000000 0.000000 0.000000 0.396215
    15 16.525257 0.000000 0.000000 -0.035651 -0.196373 -1.070372
  time 13
    0 0.452078 -91.440350 38.281752 1.712140 0.000000 0.128896
    1 0.000005 3.345128 -2.981901 1.538426 0.027627 1.570796
    2 7.516565 -0.015625 0.031251 -0.246557 0.015364 0.130223
    3 10.694003 1.229636 -2.074333 -1.736955 1.212798 3.068363
    4 6.028143 0.000001 0.000000 1.245596 -0.404161 -0.807830
    5 11.692552 0.000000 0.000002 0.000000 0.000000 -1.544746
    6 10.701809 1.616361 1.781405 2.386821 -1.078528 2.361314
    7 6.028142 0.000001 0.000000 -1.505347 -0.106909 -0.618121
    8 11.692555 0.000000 0.000000 0.000000 0.000000 -1.942470
    9 15.028072 2.912670 -0.140629 3.291490 -0.006400 0.232602
    10 3.890452 -0.027349 -0.000003 -1.574090 0.500470 -1.475085
    11 17.848177 0.000000 0.000000 0.000000 0.000000 0.490410
    12 16.525253 0.000000 0.000000 0.121093 0.027736 -0.388182
    13 -3.890452 0.027348 0.000007 -1.262864 -0.521681 -1.576285
    14 17.848173 0.000000 0.000000 0.000000 0.000000 0.000055
    15 16.525257 0.000000 0.000000 0.041646 -0.151496 -0.918131
  time 14
    0 0.154993 -98.433357 37.527823 1.731708 0.000000 0.081658
    1 0.000005 3.345128 -2.981901 1.544944 0.032323 1.570796
    2 7.516565 -0.054689 0.000000 -0.189301 0.017845 0.108870
    3 10.694003 1.264794 -2.054801 -1.826612 1.236790 2.982899
    4 6.028143 0.000001 0.000000 1.247602 -0.352143 -0.864591
    5 11.692552 0.000000 0.000002 0.000000 0.000000 -1.524486
    6 10.701809 1.589016 1.808750 2.398451 -1.113449 2.350673
    7 6.028142 0.000001 0.000000 -1.457371 -0.075808 -0.629908
    8 11.692555 0.000000 0.000000 0.000000 0.000000 -1.932936
    9 15.028072 2.916576 -0.105472 3.277898 -0.020578 0.233375
    10 3.890452 -0.066412 -0.000003 -1.610501 0.320030 -1.493183
    11 17.848177 0.000000 0.000000 0.000000 0.000000 0.954730
    12 16.525253 0.000000 0.000000 0.218601 0.034816 -0.464381
    13 -3.890452 0.066412 0.000007 -1.331888 -0.493925 -1.531459
    14 17.848173 0.000000 0.000000 0.000000 0.000000 0.000055
    15 16.525257 0.000000 0.000000 0.100359 -0.120030 -1.007386
  time 15
    0 -0.095217 -105.426363 36.137156 1.739914 0.000000 0.026391
    1 0.000005 3.345128 -2.981901 1.554218 0.025734 1.570796
    2 7.516565 -0.074221 -0.039064 -0.101721 0.020554 0.100447
    3 10.697909 1.319483 -2.015737 -1.955670 1.230029 2.856211
    4 6.028143 0.000001 0.000000 1.261147 -0.258015 -0.890688
    5 11.692552 0.000000 0.000002 0.000000 0.000000 -1.539009
    6 10.701809 1.538234 1.851720 2.336868 -1.145075 2.410397
    7 6.028142 0.000001 0.000000 -1.384244 -0.025307 -0.657278
    8 11.692555 0.000000 0.000000 0.000000 0.000000 -1.908163
    9 15.024166 2.920483 -0.050783 3.249874 -0.035474 0.234858
    10 3.890452 -0.105476 -0.000003 -1.657983 0.066382 -1.509822
    11 17.848177 0.000000 0.000000 0.000000 0.000000 1.459835
    12 16.525253 0.000000 0.000000 0.333311 0.035101 -0.639746
    13 -3.890452 0.105476 0.000007 -1.374064 -0.671258 -1.558584
    14 17.848173 0.000000 0.000000 0.000000 0.000000 0.613285
    15 16.525257 0.000000 0.000000 0.054606 -0.110017 -1.293047
  time 16
    0 -0.228235 -112.419370 35.215253 1.728359 0.000000 -0.031045
    1 0.000005 3.345128 -2.981901 1.565077 0.010197 1.570796
    2 7.516565 -0.050783 -0.085940 0.005662 0.022387 0.113991
    3 10.697909 1.389798 -1.964955 -2.082664 1.188473 2.729886
    4 6.028143 0.000001 0.000000 1.289742 -0.134169 -0.858440
    5 11.692552 0.000000 0.000002 0.000000 0.000000 -1.582217
    6 10.697902 1.467919 1.910315 2.188345 -1.165018 2.553907
    7 6.028142 0.000001 0.000000 -1.284777 0.049312 -0.670489
    8 11.692555 0.000000 0.000000 0.000000 0.000000 -1.876108
    9 15.024166 2.924389 -0.007813 3.187302 -0.042449 0.236834
    10 3.882639 -0.265637 -0.000003 -1.705739 -0.259936 -1.494812
    11 17.848177 0.000000 0.000000 0.000000 0.000000 1.818407
    12 16.525253 0.000000 0.000000 0.411362 0.085146 -0.745029
    13 -3.882639 0.265637 0.000007 -1.386490 -0.586897 -1.563251
    14 17.848173 0.000000 0.000000 0.000000 0.000000 0.851636
    15 16.525257 0.000000 0.000000 -0.071711 -0.118583 -1.394715
  time 17
    0 -0.165934 -119.412377 34.988683 1.701163 0.000000 -0.085141
    1 0.000005 3.345128 -2.981901 1.576386 -0.006765 1.570796
    2 7.516565 0.000000 -0.113285 0.111666 0.019295 0.144508
    3 10.697909 1.471831 -1.906359 -2.174209 1.126167 2.638506
    4 6.028143 0.000001 0.000000 1.318503 -0.010737 -0.766169
    5 11.692552 0.000000 0.000002 0.000000 0.000000 -1.641763
    6 10.697902 1.385885 1.968911 1.991872 -1.164952 2.743433
    7 6.028142 0.000001 0.000000 -1.179814 0.140425 -0.646639
    8 11.692555 0.000000 0.000000 0.000000 0.000000 -1.838798
    9 15.028072 2.920483 0.019532 3.107481 -0.042485 0.237414
    10 3.863107 -0.488300 -0.000003 -1.726781 -0.584638 -1.459217
    11 17.848177 0.000000 0.000000 0.000000 0.000000 1.933580
    12 16.525253 0.000000 0.000000 0.381561 0.207980 -0.743459
    13 -3.863107 0.488300 0.000007 -1.533427 -0.309641 -1.525031
    14 17.848173 0.000000 0.000000 0.000000 0.000000 0.773959
    15 16.525257 0.000000 0.000000 -0.079048 -0.034619 -1.579524
  time 18
    0 -0.005974 -126.405384 35.398852 1.671004 0.000000 -0.131206
    1 0.000005 3.345128 -2.981901 1.587297 -0.015596 1.570796
    2 7.516565 0.062502 -0.121097 0.197205 0.010930 0.177798
    3 10.701815 1.542146 -1.847764 -2.228887 1.064008 2.584186
    4 6.028143 0.000001 0.000000 1.328954 0.087077 -0.645005
    5 11.692552 0.000000 0.000002 0.000000 0.000000 -1.711839
    6 10.697902 1.315571 2.019694 1.815513 -1.147481 2.912636
    7 6.028142 0.000001 0.000000 -1.098072 0.230217 -0.594191
    8 11.692555 0.000000 0.000000 0.000000 0.000000 -1.795482
    9 15.031978 2.916576 0.054689 3.056721 -0.038387 0.236404
    10 3.843575 -0.605491 -0.000003 -1.897039 -0.850405 -1.335190
    11 17.848177 0.000000 0.000000 0.000000 0.000000 1.877577
    12 16.525253 0.000000 0.000000 0.267593 0.122802 -0.795476
    13 -3.843575 0.605491 0.000007 -1.534878 0.039650 -1.562195
    14 17.848173 0.000000 0.000000 0.000000 0.000000 0.501722
    15 16.525257 0.000000 0.000000 -0.084743 -0.074751 -1.476745
end
