// Created by Crowbar 0.74
version 1
nodes
  0 "ValveBiped.Bip01" -1
  1 "ValveBiped.Bip01_Spine" 0
  2 "ValveBiped.Bip01_Spine2" 1
  3 "ValveBiped.Bip01_R_Clavicle" 2
  4 "ValveBiped.Bip01_R_UpperArm" 3
  5 "ValveBiped.Bip01_R_Forearm" 4
  6 "ValveBiped.Bip01_L_Clavicle" 2
  7 "ValveBiped.Bip01_L_UpperArm" 6
  8 "ValveBiped.Bip01_L_Forearm" 7
  9 "ValveBiped.Bip01_Head1" 2
  10 "ValveBiped.Bip01_L_Thigh" 0
  11 "ValveBiped.Bip01_L_Calf" 10
  12 "ValveBiped.Bip01_L_Foot" 11
  13 "ValveBiped.Bip01_R_Thigh" 0
  14 "ValveBiped.Bip01_R_Calf" 13
  15 "ValveBiped.Bip01_R_Foot" 14
end
skeleton
  time 0
    0 -0.002349 -0.531261 35.305099 1.774036 0.043348 -0.043236
    1 0.000005 3.345128 -2.981901 1.587297 0.076948 1.570796
    2 7.516565 0.058596 -0.121097 0.197205 0.011050 0.175660
    3 10.701815 1.542146 -1.847764 -2.228887 1.064008 2.584186
    4 6.028143 0.000001 0.000000 1.408801 0.090118 -0.695334
    5 11.692552 0.000000 0.000002 0.000000 0.000000 -1.711839
    6 10.697902 1.315571 2.019694 1.815513 -1.147481 2.912636
    7 6.028142 0.000001 0.000000 -1.046283 0.177565 -0.518249
    8 11.692555 0.000000 0.000000 0.000000 0.000000 -1.795482
    9 15.031978 2.916576 0.054689 2.983918 -0.019451 0.234084
    10 3.843575 -0.605491 -0.000003 -2.548335 -0.901664 -0.733756
    11 17.848177 0.000000 0.000000 0.000000 0.000000 1.987033
    12 16.525253 0.000000 0.000000 0.001605 -0.126936 -1.057065
    13 -3.843575 0.605491 0.000007 -1.602995 -0.436708 -1.633880
    14 17.848173 0.000000 0.000000 0.000000 0.000000 0.870298
    15 16.525257 0.000000 0.000000 -0.000787 -0.157006 -1.423170
  time 1
    0 4.942373 -5.475983 36.051216 1.757729 0.043264 -0.074415
    1 0.000005 3.345128 -2.981901 1.596378 0.080919 1.570796
    2 7.516565 0.085940 -0.117191 0.250696 0.003260 0.190559
    3 10.701815 1.589022 -1.808700 -2.267168 1.025040 2.546946
    4 6.028143 0.000001 0.000000 1.401276 0.148724 -0.589922
    5 11.692552 0.000000 0.000002 0.000000 0.000000 -1.784674
    6 10.693996 1.260881 2.054851 1.705693 -1.134822 3.017992
    7 6.028142 0.000001 0.000000 -1.041481 0.265885 -0.513503
    8 11.692555 0.000000 0.000000 0.000000 0.000000 -1.733173
    9 15.031978 2.912670 0.097659 2.971957 -0.015796 0.232860
    10 3.859201 -0.515645 -0.000003 -2.580721 -0.865711 -0.644210
    11 17.848177 0.000000 0.000000 0.000000 0.000000 1.701844
    12 16.525253 0.000000 0.000000 0.023956 -0.140281 -1.139479
    13 -3.859201 0.515644 0.000007 -1.626668 -0.281710 -1.768005
    14 17.848173 0.000000 0.000000 0.000000 0.000000 0.769703
    15 16.525257 0.000000 0.000000 0.004408 -0.151034 -1.229802
  time 2
    0 9.887096 -10.420704 36.910617 1.764620 0.043216 -0.086664
    1 0.000005 3.345128 -2.981901 1.602831 0.092391 1.570796
    2 7.516565 0.074221 -0.101566 0.275041 -0.002972 0.182157
    3 10.701815 1.616367 -1.781355 -2.315890 1.019733 2.500653
    4 6.028143 0.000001 0.000000 1.391912 0.182864 -0.542481
    5 11.692552 0.000000 0.000002 0.000000 0.000000 -1.855331
    6 10.693996 1.229630 2.074383 1.655169 -1.148522 3.068896
    7 6.028142 0.000001 0.000000 -1.096091 0.341787 -0.574731
    8 11.692555 0.000000 0.000000 0.000000 0.000000 -1.655100
    9 15.031978 2.912670 0.117191 2.966026 -0.005429 0.231958
    10 3.878733 -0.304701 -0.000003 -2.492619 -0.788463 -0.756229
    11 17.848177 0.000000 0.000000 0.000000 0.000000 1.291905
    12 16.525253 0.000000 0.000000 0.078958 -0.152203 -1.254563
    13 -3.878733 0.304700 0.000007 -1.610433 -0.153157 -1.891298
    14 17.848173 0.000000 0.000000 0.000000 0.000000 0.630720
    15 16.525257 0.000000 0.000000 -0.047112 -0.136839 -0.927134
  time 3
    0 14.831818 -15.365425 37.230939 1.786625 0.043264 -0.074825
    1 0.000005 3.345128 -2.981901 1.605691 0.107414 1.570796
    2 7.516565 0.031251 -0.074221 0.274667 -0.008233 0.159301
    3 10.701815 1.624180 -1.777449 -2.376880 1.040685 2.442711
    4 6.028143 0.000001 0.000000 1.400524 0.191112 -0.555437
    5 11.692552 0.000000 0.000002 0.000000 0.000000 -1.911174
    6 10.693996 1.221818 2.078289 1.649449 -1.185350 3.078771
    7 6.028142 0.000001 0.000000 -1.159465 0.383230 -0.663725
    8 11.692555 0.000000 0.000000 0.000000 0.000000 -1.584758
    9 15.028072 2.912670 0.109378 2.963110 0.010834 0.231700
    10 3.890452 -0.074225 -0.000003 -2.430683 -0.752016 -0.846890
    11 17.848177 0.000000 0.000000 0.000000 0.000000 0.983310
    12 16.525253 0.000000 0.000000 0.142955 -0.142194 -1.348987
    13 -3.890452 0.074225 0.000007 -1.577961 -0.040209 -1.991077
    14 17.848173 0.000000 0.000000 0.000000 0.000000 0.499921
    15 16.525257 0.000000 0.000000 -0.166859 -0.150350 -0.661480
  time 4
    0 19.776540 -20.310147 37.133280 1.816013 0.043336 -0.043529
    1 0.000005 3.345128 -2.981901 1.603334 0.118979 1.570796
    2 7.516565 -0.015625 -0.042970 0.250724 -0.012656 0.129927
    3 10.701815 1.616367 -1.781355 -2.435039 1.073503 2.387304
    4 6.028143 0.000001 0.000000 1.419085 0.170056 -0.611358
    5 11.692552 0.000000 0.000002 0.000000 0.000000 -1.931289
    6 10.693996 1.229630 2.074383 1.685007 -1.228140 3.048861
    7 6.028142 0.000001 0.000000 -1.196994 0.383154 -0.752720
    8 11.692555 0.000000 0.000000 0.000000 0.000000 -1.536488
    9 15.028072 2.916576 0.085940 2.964741 0.030201 0.232022
    10 3.890452 0.035153 -0.000003 -2.360786 -0.731324 -0.938066
    11 17.848177 0.000000 0.000000 0.000000 0.000000 0.688543
    12 16.525253 0.000000 0.000000 0.197393 -0.117049 -1.375252
    13 -3.890452 -0.035154 0.000007 -1.541953 -0.052405 -2.049024
    14 17.848173 0.000000 0.000000 0.000000 0.000000 0.612303
    15 16.525257 0.000000 0.000000 -0.304226 -0.128978 -0.539694
  time 5
    0 24.721262 -25.254868 36.644984 1.839544 0.043384 0.001658
    1 0.000005 3.345128 -2.981901 1.597048 0.123021 1.570796
    2 7.516565 -0.058595 -0.007813 0.199591 -0.016167 0.107748
    3 10.701815 1.592929 -1.804793 -2.444300 1.103659 2.378612
    4 6.028143 0.000001 0.000000 1.419169 0.121448 -0.676507
    5 11.692552 0.000000 0.000002 0.000000 0.000000 -1.921994
    6 10.693996 1.256975 2.054851 1.765941 -1.248927 2.971497
    7 6.028142 0.000001 0.000000 -1.219422 0.344580 -0.823006
    8 11.692555 0.000000 0.000000 0.000000 0.000000 -1.515543
    9 15.024166 2.920483 0.046876 2.972501 0.048657 0.232795
    10 3.890452 0.058592 -0.000003 -2.279272 -0.716915 -1.028040
    11 17.848177 0.000000 0.000000 0.000000 0.000000 0.459048
    12 16.525253 0.000000 0.000000 0.212190 -0.112716 -1.249694
    13 -3.890452 -0.058592 0.000007 -1.504312 -0.197349 -2.075973
    14 17.848173 0.000000 0.000000 0.000000 0.000000 1.017303
    15 16.525257 0.000000 0.000000 -0.448626 -0.102277 -0.586230
  time 6
    0 29.665985 -30.199590 35.797302 1.849398 0.043312 0.055343
    1 0.000005 3.345128 -2.981901 1.587979 0.115918 1.570796
    2 7.516565 -0.074221 0.031251 0.118220 -0.019523 0.100659
    3 10.701815 1.546052 -1.843857 -2.385964 1.132173 2.435106
    4 6.028143 0.000001 0.000000 1.388568 0.053167 -0.735878
    5 11.692552 0.000000 0.000002 0.000000 0.000000 -1.898321
    6 10.697902 1.307758 2.023600 1.889965 -1.241818 2.849077
    7 6.028142 0.000001 0.000000 -1.259972 0.269659 -0.870707
    8 11.692555 0.000000 0.000000 0.000000 0.000000 -1.531083
    9 15.024166 2.924389 0.000000 2.994248 0.062452 0.234020
    10 3.890452 0.097655 -0.000003 -2.224837 -0.758838 -1.063207
    11 17.848177 0.000000 0.000000 0.000000 0.000000 0.510184
    12 16.525253 0.000000 0.000000 0.159354 -0.131839 -1.062030
    13 -3.890452 -0.097656 0.000007 -1.461954 -0.343429 -2.075884
    14 17.848173 0.000000 0.000000 0.000000 0.000000 1.395129
    15 16.525257 0.000000 0.000000 -0.538866 -0.058646 -0.698160
  time 7
    0 34.610707 -35.144311 35.273848 1.838579 0.043109 0.112369
    1 0.000005 3.345128 -2.981901 1.577224 0.100124 1.570796
    2 7.516565 -0.046876 0.074221 0.012589 -0.021297 0.115346
    3 10.697909 1.479644 -1.898546 -2.250122 1.154681 2.566562
    4 6.028143 0.000001 0.000000 1.323854 -0.030042 -0.768778
    5 11.692552 0.000000 0.000002 0.000000 0.000000 -1.867676
    6 10.697902 1.378073 1.972817 2.025523 -1.204512 2.713715
    7 6.028142 0.000001 0.000000 -1.324336 0.164732 -0.875572
    8 11.692555 0.000000 0.000000 0.000000 0.000000 -1.576651
    9 15.024166 2.924389 -0.046876 3.045502 0.067006 0.235996
    10 3.882639 0.289067 -0.000003 -2.189157 -0.775222 -1.132082
    11 17.848177 0.000000 0.000000 0.000000 0.000000 0.820169
    12 16.525253 0.000000 0.000000 0.100018 -0.029409 -1.180893
    13 -3.882639 -0.289068 0.000007 -1.414880 -0.519932 -2.027272
    14 17.848173 0.000000 0.000000 0.000000 0.000000 1.725072
    15 16.525257 0.000000 0.000000 -0.546345 -0.000378 -0.824726
  time 8
    0 39.555429 -40.089033 35.156657 1.811471 0.042773 0.167577
    1 0.000005 3.345128 -2.981901 1.565811 0.084284 1.570796
    2 7.516565 0.003906 0.105472 -0.097668 -0.017761 0.146498
    3 10.697909 1.397610 -1.957142 -2.054705 1.157880 2.755114
    4 6.028143 0.000001 0.000000 1.242168 -0.124770 -0.755543
    5 11.692552 0.000000 0.000002 0.000000 0.000000 -1.832094
    6 10.697902 1.460106 1.918128 2.128192 -1.142170 2.610564
    7 6.028142 0.000001 0.000000 -1.394641 0.053388 -0.822650
    8 11.692555 0.000000 0.000000 0.000000 0.000000 -1.639260
    9 15.024166 2.920483 -0.089846 3.111138 0.062931 0.237242
    10 3.855295 0.519543 -0.000003 -1.954035 -0.644874 -1.368298
    11 17.848177 0.000000 0.000000 0.000000 0.000000 0.857864
    12 16.525253 0.000000 0.000000 0.047153 -0.033681 -1.399947
    13 -3.855295 -0.519543 0.000007 -1.360459 -0.652681 -1.936916
    14 17.848173 0.000000 0.000000 0.000000 0.000000 1.850059
    15 16.525257 0.000000 0.000000 -0.483401 -0.009346 -0.937990
  time 9
    0 44.500151 -45.033754 35.476979 1.783890 0.042378 0.215284
    1 0.000005 3.345128 -2.981901 1.554772 0.076948 1.570796
    2 7.516565 0.058596 0.113285 -0.188582 -0.009228 0.177057
    3 10.697909 1.323389 -2.015737 -1.870732 1.139937 2.931536
    4 6.028143 0.000001 0.000000 1.177287 -0.222492 -0.709594
    5 11.692552 0.000000 0.000002 0.000000 0.000000 -1.791573
    6 10.701809 1.534327 1.855626 2.186820 -1.075862 2.551607
    7 6.028142 0.000001 0.000000 -1.445043 -0.037499 -0.732429
    8 11.692555 0.000000 0.000000 0.000000 0.000000 -1.711553
    9 15.028072 2.916576 -0.117191 3.173661 0.051618 0.237156
    10 3.843575 0.605483 -0.000003 -1.868769 -0.361467 -1.555796
    11 17.848177 0.000000 0.000000 0.000000 0.000000 0.662203
    12 16.525253 0.000000 0.000000 0.094690 0.005114 -1.509682
    13 -3.843575 -0.605484 0.000007 -1.292251 -0.765367 -1.845327
    14 17.848173 0.000000 0.000000 0.000000 0.000000 1.828205
    15 16.525257 0.000000 0.000000 -0.380541 -0.047125 -1.084081
  time 10
    0 49.444874 -49.978475 36.203564 1.771668 0.042042 0.249453
    1 0.000005 3.345128 -2.981901 1.545253 0.082204 1.570796
    2 7.516565 0.085940 0.105472 -0.247390 -0.000539 0.190601
    3 10.694003 1.264794 -2.050895 -1.753235 1.125906 3.043979
    4 6.028143 0.000001 0.000000 1.164328 -0.317266 -0.692538
    5 11.692552 0.000000 0.000002 0.000000 0.000000 -1.732462
    6 10.701809 1.585110 1.808750 2.228288 -1.032834 2.511055
    7 6.028142 0.000001 0.000000 -1.466382 -0.097322 -0.654074
    8 11.692555 0.000000 0.000000 0.000000 0.000000 -1.787975
    9 15.028072 2.912670 -0.136723 3.210829 0.040436 0.236318
    10 3.859201 0.503918 -0.000003 -1.791646 -0.194223 -1.660610
    11 17.848177 0.000000 0.000000 0.000000 0.000000 0.609753
    12 16.525253 0.000000 0.000000 0.210127 0.102926 -1.479670
    13 -3.859201 -0.503918 0.000007 -1.209441 -0.930025 -1.763426
    14 17.848173 0.000000 0.000000 0.000000 0.000000 1.686111
    15 16.525257 0.000000 0.000000 -0.306083 -0.031241 -1.097345
  time 11
    0 54.389596 -54.923197 37.121561 1.782119 0.041898 0.262757
    1 0.000005 3.345128 -2.981901 1.538465 0.093793 1.570796
    2 7.516565 0.066408 0.089846 -0.274207 0.006184 0.179596
    3 10.694003 1.233543 -2.070427 -1.701033 1.138817 3.095946
    4 6.028143 0.000001 0.000000 1.213323 -0.393379 -0.742961
    5 11.692552 0.000000 0.000002 0.000000 0.000000 -1.658102
    6 10.701809 1.616361 1.785312 2.278145 -1.026092 2.463794
    7 6.028142 0.000001 0.000000 -1.473363 -0.131291 -0.618279
    8 11.692555 0.000000 0.000000 0.000000 0.000000 -1.862145
    9 15.028072 2.912670 -0.156255 3.219527 0.033509 0.235459
    10 3.882639 0.296880 -0.000003 -1.760540 0.083753 -1.772285
    11 17.848177 0.000000 0.000000 0.000000 0.000000 0.281075
    12 16.525253 0.000000 0.000000 0.389367 0.067427 -1.086149
    13 -3.882639 -0.296880 0.000007 -1.198375 -0.988378 -1.658451
    14 17.848173 0.000000 0.000000 0.000000 0.000000 1.389645
    15 16.525257 0.000000 0.000000 -0.281608 -0.029351 -1.091639
  time 12
    0 59.334318 -59.867918 37.582512 1.803440 0.042030 0.250215
    1 0.000005 3.345128 -2.981901 1.535901 0.106736 1.570796
    2 7.516565 0.027345 0.062502 -0.273690 0.011421 0.156550
    3 10.694003 1.221824 -2.078239 -1.696609 1.171737 3.103672
    4 6.028143 0.000001 0.000000 1.284056 -0.430054 -0.829453
    5 11.692552 0.000000 0.000002 0.000000 0.000000 -1.590931
    6 10.701809 1.624174 1.777499 2.333436 -1.044908 2.411643
    7 6.028142 0.000001 0.000000 -1.461629 -0.144426 -0.585845
    8 11.692555 0.000000 0.000000 0.000000 0.000000 -1.921075
    9 15.028072 2.912670 -0.156255 3.222839 0.024221 0.234858
    10 3.890452 0.089843 -0.000003 -1.742609 0.075808 -1.810539
    11 17.848177 0.000000 0.000000 0.000000 0.000000 0.481295
    12 16.525253 0.000000 0.000000 0.233012 0.060510 -0.879715
    13 -3.890452 -0.089843 0.000007 -1.284723 -0.978587 -1.483375
    14 17.848173 0.000000 0.000000 0.000000 0.000000 1.009528
    15 16.525257 0.000000 0.000000 -0.137476 -0.251665 -1.057590
  time 13
    0 64.279040 -64.812640 37.512198 1.826393 0.042366 0.217101
    1 0.000005 3.345128 -2.981901 1.538426 0.117156 1.570796
    2 7.516565 -0.015625 0.031251 -0.246557 0.015424 0.131345
    3 10.694003 1.229636 -2.074333 -1.736955 1.212798 3.068363
    4 6.028143 0.000001 0.000000 1.319674 -0.417522 -0.910540
    5 11.692552 0.000000 0.000002 0.000000 0.000000 -1.544746
    6 10.701809 1.616361 1.781405 2.386821 -1.078528 2.361314
    7 6.028142 0.000001 0.000000 -1.434002 -0.138576 -0.562746
    8 11.692555 0.000000 0.000000 0.000000 0.000000 -1.942470
    9 15.028072 2.912670 -0.140629 3.218638 0.012536 0.234750
    10 3.890452 -0.027349 -0.000003 -1.732728 -0.120521 -1.807280
    11 17.848177 0.000000 0.000000 0.000000 0.000000 0.956429
    12 16.525253 0.000000 0.000000 0.143281 0.202610 -0.810754
    13 -3.890452 0.027348 0.000007 -1.405356 -0.861749 -1.340532
    14 17.848173 0.000000 0.000000 0.000000 0.000000 0.609274
    15 16.525257 0.000000 0.000000 0.139472 -0.354509 -1.013685
  time 14
    0 69.223763 -69.757361 36.937961 1.843945 0.042761 0.169805
    1 0.000005 3.345128 -2.981901 1.544944 0.121502 1.570796
    2 7.516565 -0.050783 0.000000 -0.189301 0.017941 0.111558
    3 10.694003 1.264794 -2.054801 -1.826612 1.236790 2.982899
    4 6.028143 0.000001 0.000000 1.322684 -0.358179 -0.962547
    5 11.692552 0.000000 0.000002 0.000000 0.000000 -1.524486
    6 10.701809 1.589016 1.808750 2.398451 -1.113449 2.350673
    7 6.028142 0.000001 0.000000 -1.390482 -0.112948 -0.570420
    8 11.692555 0.000000 0.000000 0.000000 0.000000 -1.932936
    9 15.028072 2.916576 -0.105472 3.204947 -0.001606 0.235287
    10 3.890452 -0.066412 -0.000003 -1.760815 -0.267791 -1.790297
    11 17.848177 0.000000 0.000000 0.000000 0.000000 1.181985
    12 16.525253 0.000000 0.000000 0.068258 0.182795 -0.741665
    13 -3.890452 0.066412 0.000007 -1.500684 -0.707188 -1.264619
    14 17.848173 0.000000 0.000000 0.000000 0.000000 0.300368
    15 16.525257 0.000000 0.000000 0.129975 -0.288259 -0.912017
  time 15
    0 74.168485 -74.702082 35.871523 1.849766 0.043097 0.114479
    1 0.000005 3.345128 -2.981901 1.554218 0.115381 1.570796
    2 7.516565 -0.066408 -0.039064 -0.101692 0.020602 0.103791
    3 10.697909 1.319483 -2.015737 -1.955670 1.230029 2.856211
    4 6.028143 0.000001 0.000000 1.336312 -0.256218 -0.979044
    5 11.692552 0.000000 0.000002 0.000000 0.000000 -1.539009
    6 10.701809 1.538234 1.851720 2.336868 -1.145075 2.410397
    7 6.028142 0.000001 0.000000 -1.321662 -0.066221 -0.593123
    8 11.692555 0.000000 0.000000 0.000000 0.000000 -1.908163
    9 15.024166 2.920483 -0.050783 3.176972 -0.016455 0.236232
    10 3.890452 -0.105476 -0.000003 -1.843610 -0.476239 -1.704439
    11 17.848177 0.000000 0.000000 0.000000 0.000000 1.500621
    12 16.525253 0.000000 0.000000 -0.010491 0.090252 -0.811523
    13 -3.890452 0.105476 0.000007 -1.561635 -0.710467 -1.266028
    14 17.848173 0.000000 0.000000 0.000000 0.000000 0.445081
    15 16.525257 0.000000 0.000000 0.014279 -0.211554 -1.019613
  time 16
    0 79.113207 -79.646804 35.164470 1.835739 0.043312 0.056984
    1 0.000005 3.345128 -2.981901 1.565077 0.100942 1.570796
    2 7.516565 -0.046876 -0.085940 0.005691 0.022339 0.116404
    3 10.697909 1.389798 -1.964955 -2.082664 1.188473 2.729886
    4 6.028143 0.000001 0.000000 1.365074 -0.127212 -0.933841
    5 11.692552 0.000000 0.000002 0.000000 0.000000 -1.582217
    6 10.697902 1.467919 1.910315 2.188345 -1.165018 2.553907
    7 6.028142 0.000001 0.000000 -1.226057 0.005076 -0.601706
    8 11.692555 0.000000 0.000000 0.000000 0.000000 -1.876108
    9 15.024166 2.924389 -0.007813 3.114450 -0.023370 0.237027
    10 3.882639 -0.265637 -0.000003 -2.020729 -0.708612 -1.478687
    11 17.848177 0.000000 0.000000 0.000000 0.000000 1.831539
    12 16.525253 0.000000 0.000000 -0.038349 -0.087002 -0.917286
    13 -3.882639 0.265637 0.000007 -1.537781 -0.703604 -1.346961
    14 17.848173 0.000000 0.000000 0.000000 0.000000 0.720101
    15 16.525257 0.000000 0.000000 -0.177427 -0.134426 -1.220687
  time 17
    0 84.057929 -84.591525 34.992590 1.806193 0.043384 0.002889
    1 0.000005 3.345128 -2.981901 1.576386 0.085172 1.570796
    2 7.516565 0.000000 -0.113285 0.111666 0.019283 0.144762
    3 10.697909 1.471831 -1.906359 -2.174209 1.126167 2.638506
    4 6.028143 0.000001 0.000000 1.395591 -0.003688 -0.828055
    5 11.692552 0.000000 0.000002 0.000000 0.000000 -1.641763
    6 10.697902 1.385885 1.968911 1.991872 -1.164952 2.743433
    7 6.028142 0.000001 0.000000 -1.124708 0.092189 -0.573703
    8 11.692555 0.000000 0.000000 0.000000 0.000000 -1.838798
    9 15.028072 2.920483 0.019532 3.034628 -0.023466 0.236060
    10 3.863107 -0.488300 -0.000003 -2.297843 -0.850315 -1.108409
    11 17.848177 0.000000 0.000000 0.000000 0.000000 2.001710
    12 16.525253 0.000000 0.000000 -0.007835 -0.145795 -0.998418
    13 -3.863107 0.488300 0.000007 -1.640546 -0.590044 -1.456867
    14 17.848173 0.000000 0.000000 0.000000 0.000000 0.868007
    15 16.525257 0.000000 0.000000 -0.087188 -0.057460 -1.397975
  time 18
    0 89.002652 -89.536247 35.305099 1.774036 0.043348 -0.043236
    1 0.000005 3.345128 -2.981901 1.587297 0.076948 1.570796
    2 7.516565 0.058596 -0.121097 0.197205 0.011050 0.175660
    3 10.701815 1.542146 -1.847764 -2.228887 1.064008 2.584186
    4 6.028143 0.000001 0.000000 1.408801 0.090118 -0.695334
    5 11.692552 0.000000 0.000002 0.000000 0.000000 -1.711839
    6 10.697902 1.315571 2.019694 1.815513 -1.147481 2.912636
    7 6.028142 0.000001 0.000000 -1.046283 0.177565 -0.518249
    8 11.692555 0.000000 0.000000 0.000000 0.000000 -1.795482
    9 15.031978 2.916576 0.054689 2.983918 -0.019451 0.234084
    10 3.843575 -0.605491 -0.000003 -2.548335 -0.901664 -0.733756
    11 17.848177 0.000000 0.000000 0.000000 0.000000 1.987033
    12 16.525253 0.000000 0.000000 0.001605 -0.126936 -1.057065
    13 -3.843575 0.605491 0.000007 -1.602995 -0.436708 -1.633880
    14 17.848173 0.000000 0.000000 0.000000 0.000000 0.870298
    15 16.525257 0.000000 0.000000 -0.000787 -0.157006 -1.423170
end
