// Created by Crowbar 0.74
version 1
nodes
  0 "ValveBiped.Bip01" -1
  1 "ValveBiped.Bip01_Spine" 0
  2 "ValveBiped.Bip01_Spine2" 1
  3 "ValveBiped.Bip01_R_Clavicle" 2
  4 "ValveBiped.Bip01_R_UpperArm" 3
  5 "ValveBiped.Bip01_R_Forearm" 4
  6 "ValveBiped.Bip01_L_Clavicle" 2
  7 "ValveBiped.Bip01_L_UpperArm" 6
  8 "ValveBiped.Bip01_L_Forearm" 7
  9 "ValveBiped.Bip01_Head1" 2
  10 "ValveBiped.Bip01_L_Thigh" 0
  11 "ValveBiped.Bip01_L_Calf" 10
  12 "ValveBiped.Bip01_L_Foot" 11
  13 "ValveBiped.Bip01_R_Thigh" 0
  14 "ValveBiped.Bip01_R_Calf" 13
  15 "ValveBiped.Bip01_R_Foot" 14
end
skeleton
  time 0
    0 -0.002349 -0.531261 34.922275 1.673985 0.023646 -0.214489
    1 0.000005 3.345128 -2.981901 1.571569 0.082274 1.570796
    2 7.516565 0.042970 -0.109378 -0.020436 0.034036 0.168147
    3 10.697909 1.417142 -1.945423 -1.982921 1.127621 2.830017
    4 6.028143 0.000001 0.000000 1.019182 -0.166328 -0.503709
    5 11.692552 0.000000 0.000002 0.000000 0.000000 -1.790847
    6 10.697902 1.440574 1.929847 2.094636 -1.100140 2.633188
    7 6.028142 0.000001 0.000000 -1.559462 0.197569 -0.987784
    8 11.692555 0.000000 0.000000 0.000000 0.000000 -1.712904
    9 15.024166 2.924389 0.093753 3.297915 -0.105201 0.234729
    10 3.843575 -0.605491 -0.000003 -1.495319 -0.706412 -1.629131
    11 17.848177 0.000000 0.000000 0.000000 0.000000 1.340646
    12 16.525253 0.000000 0.000000 -0.037874 -0.019176 -1.357988
    13 -3.843575 0.605491 0.000007 -1.165722 -0.477533 -1.763690
    14 17.848173 0.000000 0.000000 0.000000 0.000000 0.842796
    15 16.525257 0.000000 0.000000 -0.017121 -0.136276 -1.443844
  time 1
    0 3.529652 3.000740 35.519949 1.658292 0.023478 -0.245668
    1 0.000005 3.345128 -2.981901 1.569985 0.085896 1.570796
    2 7.516565 0.066408 -0.101566 -0.030324 0.033113 0.182707
    3 10.697909 1.409329 -1.953236 -1.919336 1.114797 2.894537
    4 6.028143 0.000001 0.000000 1.038914 -0.239539 -0.481340
    5 11.692552 0.000000 0.000002 0.000000 0.000000 -1.731155
    6 10.697902 1.448387 1.922035 2.103025 -1.071505 2.619863
    7 6.028142 0.000001 0.000000 -1.552828 0.144161 -0.927545
    8 11.692555 0.000000 0.000000 0.000000 0.000000 -1.789326
    9 15.024166 2.924389 0.089846 3.329004 -0.112655 0.233762
    10 3.859201 -0.515645 -0.000003 -1.593210 -0.539618 -1.485463
    11 17.848177 0.000000 0.000000 0.000000 0.000000 1.362275
    12 16.525253 0.000000 0.000000 -0.021726 0.110921 -1.325189
    13 -3.859201 0.515644 0.000007 -1.250256 -0.534619 -1.792047
    14 17.848173 0.000000 0.000000 0.000000 0.000000 0.667716
    15 16.525257 0.000000 0.000000 0.053624 -0.119005 -1.169520
  time 2
    0 7.061654 6.532742 36.394976 1.665411 0.023406 -0.257858
    1 0.000005 3.345128 -2.981901 1.568838 0.096456 1.570796
    2 7.516565 0.054689 -0.082034 -0.035612 0.028703 0.175385
    3 10.697909 1.401517 -1.953236 -1.904471 1.129003 2.911618
    4 6.028143 0.000001 0.000000 1.105467 -0.309295 -0.542947
    5 11.692552 0.000000 0.000002 0.000000 0.000000 -1.656722
    6 10.697902 1.456200 1.918128 2.134579 -1.075038 2.588419
    7 6.028142 0.000001 0.000000 -1.532528 0.114759 -0.893806
    8 11.692555 0.000000 0.000000 0.000000 0.000000 -1.863421
    9 15.024166 2.924389 0.074221 3.340668 -0.106771 0.232946
    10 3.878733 -0.304701 -0.000003 -1.636301 -0.410078 -1.375503
    11 17.848177 0.000000 0.000000 0.000000 0.000000 1.353778
    12 16.525253 0.000000 0.000000 0.064800 0.222851 -1.058635
    13 -3.878733 0.304700 0.000007 -1.221141 -0.557698 -1.836433
    14 17.848173 0.000000 0.000000 0.000000 0.000000 0.475038
    15 16.525257 0.000000 0.000000 0.059479 -0.124856 -0.838323
  time 3
    0 10.593655 10.064743 36.879366 1.687188 0.023466 -0.246078
    1 0.000005 3.345128 -2.981901 1.568426 0.110241 1.570796
    2 7.516565 0.015626 -0.058596 -0.036762 0.021333 0.154243
    3 10.697909 1.401517 -1.957142 -1.926060 1.161209 2.892606
    4 6.028143 0.000001 0.000000 1.194845 -0.359377 -0.658333
    5 11.692552 0.000000 0.000002 0.000000 0.000000 -1.589914
    6 10.697902 1.456200 1.918128 2.182816 -1.100010 2.544033
    7 6.028142 0.000001 0.000000 -1.472026 0.102379 -0.846263
    8 11.692555 0.000000 0.000000 0.000000 0.000000 -1.921826
    9 15.024166 2.924389 0.050783 3.335676 -0.089932 0.232581
    10 3.890452 -0.074225 -0.000003 -1.633099 -0.350021 -1.321553
    11 17.848177 0.000000 0.000000 0.000000 0.000000 1.308512
    12 16.525253 0.000000 0.000000 0.151859 0.260731 -0.825136
    13 -3.890452 0.074225 0.000007 -1.205178 -0.609539 -1.899664
    14 17.848173 0.000000 0.000000 0.000000 0.000000 0.314937
    15 16.525257 0.000000 0.000000 0.107482 -0.120975 -0.546771
  time 4
    0 14.125656 13.596745 36.852021 1.715962 0.023646 -0.214782
    1 0.000005 3.345128 -2.981901 1.568864 0.120848 1.570796
    2 7.516565 -0.027345 -0.027345 -0.033428 0.011961 0.126668
    3 10.697909 1.401517 -1.953236 -1.978320 1.198971 2.842812
    4 6.028143 0.000001 0.000000 1.251783 -0.369467 -0.779031
    5 11.692552 0.000000 0.000002 0.000000 0.000000 -1.544093
    6 10.697902 1.456200 1.918128 2.238584 -1.134779 2.493991
    7 6.028142 0.000001 0.000000 -1.389591 0.100417 -0.792748
    8 11.692555 0.000000 0.000000 0.000000 0.000000 -1.942545
    9 15.024166 2.924389 0.023438 3.314077 -0.064549 0.232860
    10 3.890452 0.035153 -0.000003 -1.606567 -0.379601 -1.337163
    11 17.848177 0.000000 0.000000 0.000000 0.000000 1.257376
    12 16.525253 0.000000 0.000000 0.141589 0.260345 -0.903866
    13 -3.890452 -0.035154 0.000007 -1.131981 -0.692676 -1.982270
    14 17.848173 0.000000 0.000000 0.000000 0.000000 0.375998
    15 16.525257 0.000000 0.000000 0.174443 -0.082512 -0.633840
  time 5
    0 17.657657 17.128746 36.273879 1.738616 0.023849 -0.169653
    1 0.000005 3.345128 -2.981901 1.569972 0.124539 1.570796
    2 7.516565 -0.066408 0.000000 -0.024776 0.001810 0.105441
    3 10.697909 1.409329 -1.953236 -2.042319 1.219196 2.779559
    4 6.028143 0.000001 0.000000 1.267000 -0.337722 -0.869997
    5 11.692552 0.000000 0.000002 0.000000 0.000000 -1.524341
    6 10.697902 1.448387 1.922035 2.264418 -1.162286 2.472422
    7 6.028142 0.000001 0.000000 -1.311760 0.117213 -0.752680
    8 11.692555 0.000000 0.000000 0.000000 0.000000 -1.932561
    9 15.024166 2.924389 0.000000 3.275279 -0.034012 0.233848
    10 3.890452 0.058592 -0.000003 -1.559452 -0.426282 -1.377133
    11 17.848177 0.000000 0.000000 0.000000 0.000000 1.215277
    12 16.525253 0.000000 0.000000 0.104708 0.250722 -1.091337
    13 -3.890452 -0.058592 0.000007 -1.028219 -0.790981 -2.073595
    14 17.848173 0.000000 0.000000 0.000000 0.000000 0.682286
    15 16.525257 0.000000 0.000000 0.209878 0.002678 -0.931543
  time 6
    0 21.189658 20.660747 35.500418 1.747419 0.024041 -0.115968
    1 0.000005 3.345128 -2.981901 1.571543 0.117180 1.570796
    2 7.516565 -0.078127 0.035157 -0.011037 -0.009755 0.098077
    3 10.697909 1.417142 -1.945423 -2.098885 1.212842 2.721496
    4 6.028143 0.000001 0.000000 1.270762 -0.265617 -0.924334
    5 11.692552 0.000000 0.000002 0.000000 0.000000 -1.539590
    6 10.697902 1.440574 1.929847 2.234103 -1.177026 2.504824
    7 6.028142 0.000001 0.000000 -1.239227 0.160203 -0.709370
    8 11.692555 0.000000 0.000000 0.000000 0.000000 -1.907638
    9 15.024166 2.924389 -0.023438 3.213201 0.001558 0.235395
    10 3.890452 0.097655 -0.000003 -1.490653 -0.487865 -1.453813
    11 17.848177 0.000000 0.000000 0.000000 0.000000 1.173874
    12 16.525253 0.000000 0.000000 0.037402 0.200535 -1.303633
    13 -3.890452 -0.097656 0.000007 -0.955748 -0.817863 -2.109526
    14 17.848173 0.000000 0.000000 0.000000 0.000000 0.964427
    15 16.525257 0.000000 0.000000 0.175139 0.059417 -1.108905
  time 7
    0 24.721659 24.192749 35.121500 1.735513 0.024161 -0.058943
    1 0.000005 3.345128 -2.981901 1.573372 0.100825 1.570796
    2 7.516565 -0.050783 0.070315 0.005806 -0.021776 0.112806
    3 10.697909 1.428861 -1.937610 -2.131504 1.179661 2.684558
    4 6.028143 0.000001 0.000000 1.268839 -0.160753 -0.925639
    5 11.692552 0.000000 0.000002 0.000000 0.000000 -1.583161
    6 10.697902 1.428855 1.937660 2.142587 -1.175227 2.596184
    7 6.028142 0.000001 0.000000 -1.169862 0.225801 -0.643949
    8 11.692555 0.000000 0.000000 0.000000 0.000000 -1.875432
    9 15.024166 2.924389 -0.046876 3.136296 0.039501 0.236683
    10 3.882639 0.289067 -0.000003 -1.408955 -0.520451 -1.554853
    11 17.848177 0.000000 0.000000 0.000000 0.000000 1.072915
    12 16.525253 0.000000 0.000000 0.013092 0.119262 -1.438031
    13 -3.882639 -0.289068 0.000007 -0.932438 -0.775683 -2.070953
    14 17.848173 0.000000 0.000000 0.000000 0.000000 1.185672
    15 16.525257 0.000000 0.000000 0.149236 0.118871 -1.189379
  time 8
    0 28.253660 27.724750 35.043372 1.707353 0.024197 -0.003851
    1 0.000005 3.345128 -2.981901 1.575292 0.084377 1.570796
    2 7.516565 0.000000 0.093753 0.022333 -0.030333 0.145545
    3 10.697909 1.444487 -1.929797 -2.143006 1.132056 2.666572
    4 6.028143 0.000001 0.000000 1.260729 -0.048840 -0.875962
    5 11.692552 0.000000 0.000002 0.000000 0.000000 -1.642925
    6 10.697902 1.413230 1.945473 2.024570 -1.158796 2.713523
    7 6.028142 0.000001 0.000000 -1.108815 0.298646 -0.559345
    8 11.692555 0.000000 0.000000 0.000000 0.000000 -1.838122
    9 15.024166 2.924389 -0.062502 3.061565 0.072063 0.237049
    10 3.855295 0.519543 -0.000003 -1.327898 -0.535713 -1.673904
    11 17.848177 0.000000 0.000000 0.000000 0.000000 0.938817
    12 16.525253 0.000000 0.000000 0.065779 0.029628 -1.416410
    13 -3.855295 -0.519543 0.000007 -0.931258 -0.685115 -1.987730
    14 17.848173 0.000000 0.000000 0.000000 0.000000 1.357314
    15 16.525257 0.000000 0.000000 0.163982 0.161738 -1.134248
  time 9
    0 31.785662 31.256752 35.238691 1.678895 0.024173 0.043856
    1 0.000005 3.345128 -2.981901 1.577095 0.076784 1.570796
    2 7.516565 0.058596 0.097659 0.035756 -0.033137 0.178432
    3 10.697909 1.456206 -1.918078 -2.143595 1.086182 2.659148
    4 6.028143 0.000001 0.000000 1.242586 0.043077 -0.798230
    5 11.692552 0.000000 0.000002 0.000000 0.000000 -1.711839
    6 10.697902 1.401511 1.957192 1.922853 -1.135689 2.814949
    7 6.028142 0.000001 0.000000 -1.066236 0.364471 -0.478498
    8 11.692555 0.000000 0.000000 0.000000 0.000000 -1.795482
    9 15.024166 2.924389 -0.066408 3.001612 0.092737 0.236469
    10 3.843575 0.605483 -0.000003 -1.320670 -0.538361 -1.768768
    11 17.848177 0.000000 0.000000 0.000000 0.000000 0.776139
    12 16.525253 0.000000 0.000000 0.164668 0.014635 -1.294120
    13 -3.843575 -0.605484 0.000007 -0.925907 -0.569806 -1.894116
    14 17.848173 0.000000 0.000000 0.000000 0.000000 1.448742
    15 16.525257 0.000000 0.000000 0.215269 0.133147 -1.006349
  time 10
    0 35.317663 34.788753 35.758238 1.666060 0.024125 0.077966
    1 0.000005 3.345128 -2.981901 1.578628 0.082251 1.570796
    2 7.516565 0.085940 0.089846 0.044896 -0.031747 0.193606
    3 10.697909 1.464019 -1.914172 -2.150792 1.059049 2.647499
    4 6.028143 0.000001 0.000000 1.214828 0.105230 -0.729819
    5 11.692552 0.000000 0.000002 0.000000 0.000000 -1.784674
    6 10.697902 1.393698 1.961098 1.862033 -1.123030 2.876686
    7 6.028142 0.000001 0.000000 -1.090546 0.437845 -0.472842
    8 11.692555 0.000000 0.000000 0.000000 0.000000 -1.733173
    9 15.024166 2.924389 -0.058596 2.970079 0.099448 0.235738
    10 3.859201 0.503918 -0.000003 -1.195974 -0.516591 -1.894339
    11 17.848177 0.000000 0.000000 0.000000 0.000000 0.563638
    12 16.525253 0.000000 0.000000 0.142524 -0.039031 -1.024939
    13 -3.859201 -0.503918 0.000007 -0.914932 -0.462628 -1.806226
    14 17.848173 0.000000 0.000000 0.000000 0.000000 1.446450
    15 16.525257 0.000000 0.000000 0.223302 -0.054404 -0.874077
  time 11
    0 38.849664 38.320755 36.387163 1.676282 0.024101 0.091270
    1 0.000005 3.345128 -2.981901 1.579723 0.094260 1.570796
    2 7.516565 0.066408 0.070315 0.049984 -0.026774 0.182665
    3 10.697909 1.467925 -1.910265 -2.182289 1.062452 2.615993
    4 6.028143 0.000001 0.000000 1.185648 0.144347 -0.696826
    5 11.692552 0.000000 0.000002 0.000000 0.000000 -1.855331
    6 10.697902 1.389792 1.965005 1.845827 -1.137358 2.895284
    7 6.028142 0.000001 0.000000 -1.176348 0.506538 -0.556299
    8 11.692555 0.000000 0.000000 0.000000 0.000000 -1.655100
    9 15.024166 2.924389 -0.046876 2.960095 0.097375 0.235008
    10 3.882639 0.296880 -0.000003 -1.236868 -0.465736 -1.931306
    11 17.848177 0.000000 0.000000 0.000000 0.000000 0.237432
    12 16.525253 0.000000 0.000000 0.167280 0.020982 -0.673153
    13 -3.882639 -0.296880 0.000007 -0.912302 -0.383993 -1.725293
    14 17.848173 0.000000 0.000000 0.000000 0.000000 1.361979
    15 16.525257 0.000000 0.000000 0.143078 -0.243402 -0.727727
  time 12
    0 42.381665 41.852756 36.691860 1.697814 0.024125 0.078786
    1 0.000005 3.345128 -2.981901 1.580199 0.107718 1.570796
    2 7.516565 0.023438 0.046876 0.051277 -0.019271 0.158539
    3 10.697909 1.467925 -1.906359 -2.236378 1.089133 2.565717
    4 6.028143 0.000001 0.000000 1.162237 0.162914 -0.701113
    5 11.692552 0.000000 0.000002 0.000000 0.000000 -1.911174
    6 10.697902 1.385885 1.965005 1.866418 -1.173363 2.878124
    7 6.028142 0.000001 0.000000 -1.283588 0.553302 -0.690226
    8 11.692555 0.000000 0.000000 0.000000 0.000000 -1.584758
    9 15.024166 2.924389 -0.031251 2.969041 0.086649 0.234621
    10 3.890452 0.089843 -0.000003 -1.208599 -0.526017 -1.983284
    11 17.848177 0.000000 0.000000 0.000000 0.000000 0.181506
    12 16.525253 0.000000 0.000000 0.074536 0.096681 -0.528730
    13 -3.890452 -0.089843 0.000007 -0.934705 -0.329355 -1.652903
    14 17.848173 0.000000 0.000000 0.000000 0.000000 1.223978
    15 16.525257 0.000000 0.000000 0.071190 -0.326601 -0.619390
  time 13
    0 45.913666 45.384758 36.680141 1.721363 0.024173 0.045673
    1 0.000005 3.345128 -2.981901 1.579800 0.118512 1.570796
    2 7.516565 -0.019532 0.015625 0.048518 -0.010247 0.131662
    3 10.697909 1.467925 -1.910265 -2.297133 1.123594 2.510129
    4 6.028143 0.000001 0.000000 1.145850 0.153331 -0.725439
    5 11.692552 0.000000 0.000002 0.000000 0.000000 -1.931289
    6 10.697902 1.389792 1.965005 1.915418 -1.213595 2.832301
    7 6.028142 0.000001 0.000000 -1.368351 0.566664 -0.832854
    8 11.692555 0.000000 0.000000 0.000000 0.000000 -1.536488
    9 15.024166 2.924389 -0.011719 2.996522 0.066766 0.234707
    10 3.890452 -0.027349 -0.000003 -1.200457 -0.675082 -2.048986
    11 17.848177 0.000000 0.000000 0.000000 0.000000 0.359943
    12 16.525253 0.000000 0.000000 0.010999 0.152158 -0.569216
    13 -3.890452 0.027348 0.000007 -0.979965 -0.287436 -1.594691
    14 17.848173 0.000000 0.000000 0.000000 0.000000 1.062158
    15 16.525257 0.000000 0.000000 0.075367 -0.346004 -0.664926
  time 14
    0 49.445667 48.916759 36.410602 1.739809 0.024197 -0.001624
    1 0.000005 3.345128 -2.981901 1.578744 0.123044 1.570796
    2 7.516565 -0.058595 -0.007813 0.040959 -0.000659 0.110055
    3 10.697909 1.464019 -1.914172 -2.320196 1.147571 2.490633
    4 6.028143 0.000001 0.000000 1.123359 0.114675 -0.734014
    5 11.692552 0.000000 0.000002 0.000000 0.000000 -1.921994
    6 10.697902 1.393698 1.961098 1.972710 -1.231868 2.775836
    7 6.028142 0.000001 0.000000 -1.426328 0.543300 -0.950762
    8 11.692555 0.000000 0.000000 0.000000 0.000000 -1.515543
    9 15.024166 2.924389 0.003906 3.043327 0.036865 0.235223
    10 3.890452 -0.066412 -0.000003 -1.194144 -0.788373 -2.065540
    11 17.848177 0.000000 0.000000 0.000000 0.000000 0.551433
    12 16.525253 0.000000 0.000000 0.022724 0.072390 -0.725586
    13 -3.890452 0.066412 0.000007 -1.036926 -0.251681 -1.556734
    14 17.848173 0.000000 0.000000 0.000000 0.000000 0.902384
    15 16.525257 0.000000 0.000000 0.059176 -0.267670 -1.038953
  time 15
    0 52.977669 52.448761 35.519949 1.746665 0.024161 -0.056891
    1 0.000005 3.345128 -2.981901 1.577211 0.117437 1.570796
    2 7.516565 -0.074221 -0.042970 0.028341 0.010750 0.101040
    3 10.697909 1.456206 -1.918078 -2.291234 1.161428 2.521415
    4 6.028143 0.000001 0.000000 1.095768 0.053812 -0.714068
    5 11.692552 0.000000 0.000002 0.000000 0.000000 -1.898321
    6 10.697902 1.401511 1.957192 2.028955 -1.225604 2.717933
    7 6.028142 0.000001 0.000000 -1.475938 0.480419 -1.035762
    8 11.692555 0.000000 0.000000 0.000000 0.000000 -1.531083
    9 15.024166 2.924389 0.031251 3.107283 -0.002001 0.235803
    10 3.890452 -0.105476 -0.000003 -1.169991 -0.918362 -2.067427
    11 17.848177 0.000000 0.000000 0.000000 0.000000 0.890385
    12 16.525253 0.000000 0.000000 0.033929 -0.036529 -0.997521
    13 -3.890452 0.105476 0.000007 -1.094884 -0.247528 -1.552067
    14 17.848173 0.000000 0.000000 0.000000 0.000000 0.832565
    15 16.525257 0.000000 0.000000 -0.022780 -0.256591 -1.418094
  time 16
    0 56.509670 55.980762 34.832428 1.733724 0.024041 -0.114327
    1 0.000005 3.345128 -2.981901 1.575395 0.104213 1.570796
    2 7.516565 -0.054689 -0.082034 0.011813 0.022903 0.112298
    3 10.697909 1.444487 -1.925891 -2.209658 1.164292 2.603620
    4 6.028143 0.000001 0.000000 1.064080 -0.019399 -0.661129
    5 11.692552 0.000000 0.000002 0.000000 0.000000 -1.867676
    6 10.697902 1.413230 1.949379 2.072806 -1.196687 2.669713
    7 6.028142 0.000001 0.000000 -1.517626 0.385570 -1.072388
    8 11.692555 0.000000 0.000000 0.000000 0.000000 -1.576651
    9 15.024166 2.920483 0.058596 3.175292 -0.043121 0.236125
    10 3.882639 -0.265637 -0.000003 -1.235954 -0.948210 -1.967674
    11 17.848177 0.000000 0.000000 0.000000 0.000000 1.144058
    12 16.525253 0.000000 0.000000 0.015986 -0.090582 -1.189638
    13 -3.882639 0.265637 0.000007 -1.144770 -0.288835 -1.592313
    14 17.848173 0.000000 0.000000 0.000000 0.000000 0.827899
    15 16.525257 0.000000 0.000000 -0.020263 -0.178399 -1.569595
  time 17
    0 60.041671 59.512763 34.660548 1.705231 0.023861 -0.168423
    1 0.000005 3.345128 -2.981901 1.573462 0.089751 1.570796
    2 7.516565 -0.007813 -0.105472 -0.005519 0.031424 0.138794
    3 10.697909 1.428861 -1.937610 -2.092928 1.151627 2.720108
    4 6.028143 0.000001 0.000000 1.034650 -0.094085 -0.582466
    5 11.692552 0.000000 0.000002 0.000000 0.000000 -1.832094
    6 10.697902 1.428855 1.937660 2.092635 -1.150082 2.642966
    7 6.028142 0.000001 0.000000 -1.547332 0.282530 -1.050990
    8 11.692555 0.000000 0.000000 0.000000 0.000000 -1.639260
    9 15.024166 2.924389 0.085940 3.240928 -0.081208 0.235781
    10 3.863107 -0.488300 -0.000003 -1.369982 -0.866294 -1.794414
    11 17.848177 0.000000 0.000000 0.000000 0.000000 1.291441
    12 16.525253 0.000000 0.000000 -0.013593 -0.095424 -1.313081
    13 -3.863107 0.488300 0.000007 -1.181867 -0.378791 -1.667081
    14 17.848173 0.000000 0.000000 0.000000 0.000000 0.860149
    15 16.525257 0.000000 0.000000 -0.021513 -0.090052 -1.579042
  time 18
    0 63.573672 63.044765 34.922275 1.673985 0.023646 -0.214489
    1 0.000005 3.345128 -2.981901 1.571569 0.082274 1.570796
    2 7.516565 0.039064 -0.109378 -0.020436 0.034036 0.168147
    3 10.697909 1.417142 -1.945423 -1.982921 1.127621 2.830017
    4 6.028143 0.000001 0.000000 1.019182 -0.166328 -0.503709
    5 11.692552 0.000000 0.000002 0.000000 0.000000 -1.790847
    6 10.697902 1.440574 1.929847 2.094636 -1.100140 2.633188
    7 6.028142 0.000001 0.000000 -1.559462 0.197569 -0.987784
    8 11.692555 0.000000 0.000000 0.000000 0.000000 -1.712904
    9 15.024166 2.924389 0.093753 3.297915 -0.105201 0.234729
    10 3.843575 -0.605491 -0.000003 -1.495319 -0.706412 -1.629131
    11 17.848177 0.000000 0.000000 0.000000 0.000000 1.340646
    12 16.525253 0.000000 0.000000 -0.037874 -0.019176 -1.357988
    13 -3.843575 0.605491 0.000007 -1.165722 -0.477533 -1.763690
    14 17.848173 0.000000 0.000000 0.000000 0.000000 0.842796
    15 16.525257 0.000000 0.000000 -0.017121 -0.136276 -1.443844
end
