// Created by Crowbar 0.74
version 1
nodes
  0 "ValveBiped.Bip01" -1
  1 "ValveBiped.Bip01_Spine" 0
  2 "ValveBiped.Bip01_Spine2" 1
  3 "ValveBiped.Bip01_R_Clavicle" 2
  4 "ValveBiped.Bip01_R_UpperArm" 3
  5 "ValveBiped.Bip01_R_Forearm" 4
  6 "ValveBiped.Bip01_L_Clavicle" 2
  7 "ValveBiped.Bip01_L_UpperArm" 6
  8 "ValveBiped.Bip01_L_Forearm" 7
  9 "ValveBiped.Bip01_Head1" 2
  10 "ValveBiped.Bip01_L_Thigh" 0
  11 "ValveBiped.Bip01_L_Calf" 10
  12 "ValveBiped.Bip01_L_Foot" 11
  13 "ValveBiped.Bip01_R_Thigh" 0
  14 "ValveBiped.Bip01_R_Calf" 13
  15 "ValveBiped.Bip01_R_Foot" 14
end
skeleton
  time 0
    0 -0.002349 -0.531261 38.113779 1.570796 0.000000 -0.000042
    1 0.082039 3.239656 -3.095186 1.563389 0.152459 1.556486
    2 7.516565 0.007813 -0.085940 -0.048202 0.030585 0.164126
    3 10.686190 1.436674 -1.941516 -1.692539 1.121427 3.154371
    4 6.028143 0.000001 0.000000 1.277367 -0.002352 -0.810906
    5 11.692552 0.000000 0.000002 0.000000 0.000000 -0.436168
    6 10.697902 1.436668 1.933754 1.560602 -1.107249 3.221610
    7 6.028142 0.000001 0.000000 -1.334931 -0.056257 -0.814937
    8 11.692555 0.000000 0.000000 0.000000 0.000000 -0.480092
    9 15.012447 2.951734 -0.015625 3.171486 -0.022651 0.324840
    10 3.890452 -0.070319 0.031248 -2.100963 -0.242790 -1.285443
    11 17.848177 0.000000 0.000000 0.000000 0.000000 0.986478
    12 16.525253 0.000000 0.000000 0.087685 0.206190 -1.214013
    13 -3.890452 0.070318 -0.031244 -1.471206 -0.032167 -1.532692
    14 17.848173 0.000000 0.000000 0.000000 0.000000 0.212214
    15 16.525257 0.000000 0.000000 -0.150400 -0.157709 -1.153625
  time 1
    0 -1.143580 0.590449 38.094247 1.570796 0.000000 -0.000042
    1 0.078132 3.239656 -3.095186 1.560285 0.152436 1.556558
    2 7.516565 0.003906 -0.062502 -0.049926 0.024520 0.161904
    3 10.686190 1.436674 -1.941516 -1.701092 1.125019 3.144291
    4 6.028143 0.000001 0.000000 1.280795 -0.018984 -0.824420
    5 11.692552 0.000000 0.000002 0.000000 0.000000 -0.406540
    6 10.697902 1.432762 1.933754 1.567752 -1.103196 3.212982
    7 6.028142 0.000001 0.000000 -1.334634 -0.062560 -0.802280
    8 11.692555 0.000000 0.000000 0.000000 0.000000 -0.511622
    9 15.012447 2.947827 -0.015625 3.173463 -0.018672 0.323315
    10 3.890452 -0.050787 0.042967 -2.097395 -0.195660 -1.352774
    11 17.848177 0.000000 0.000000 0.000000 0.000000 1.060787
    12 16.525253 0.000000 0.000000 0.135816 0.157142 -1.185153
    13 -3.890452 0.050786 -0.042963 -1.471206 -0.077014 -1.500372
    14 17.848173 0.000000 0.000000 0.000000 0.000000 0.236851
    15 16.525257 0.000000 0.000000 -0.180801 -0.136799 -1.132321
  time 2
    0 -2.265279 1.731692 38.012213 1.570796 0.000000 -0.000042
    1 0.078132 3.239656 -3.095186 1.557580 0.152389 1.554785
    2 7.516565 0.000000 -0.050783 -0.048374 0.020925 0.159492
    3 10.690096 1.432768 -1.941516 -1.708347 1.128043 3.135419
    4 6.028143 0.000001 0.000000 1.285227 -0.031563 -0.838680
    5 11.692552 0.000000 0.000002 0.000000 0.000000 -0.381414
    6 10.701809 1.432762 1.933754 1.573662 -1.099749 3.205409
    7 6.028142 0.000001 0.000000 -1.332554 -0.065731 -0.790018
    8 11.692555 0.000000 0.000000 0.000000 0.000000 -0.544879
    9 15.016353 2.940015 -0.015625 3.173612 -0.013567 0.321467
    10 3.890452 -0.042974 0.050780 -2.096389 -0.156699 -1.440947
    11 17.848177 0.000000 0.000000 0.000000 0.000000 1.111615
    12 16.525253 0.000000 0.000000 0.172919 0.080040 -1.159081
    13 -3.890452 0.042974 -0.050776 -1.471115 -0.118189 -1.468052
    14 17.848173 0.000000 0.000000 0.000000 0.000000 0.252403
    15 16.525257 0.000000 0.000000 -0.210524 -0.115647 -1.106460
  time 3
    0 -3.383072 2.911998 37.867677 1.570796 0.000000 -0.000042
    1 0.074226 3.239656 -3.095186 1.555442 0.152319 1.553742
    2 7.516565 0.000000 -0.035157 -0.044207 0.016239 0.157227
    3 10.690096 1.432768 -1.941516 -1.713833 1.130326 3.128237
    4 6.028143 0.000001 0.000000 1.288655 -0.039994 -0.853873
    5 11.692552 0.000000 0.000002 0.000000 0.000000 -0.360427
    6 10.701809 1.428855 1.933754 1.577952 -1.097105 3.199369
    7 6.028142 0.000001 0.000000 -1.329831 -0.064599 -0.778034
    8 11.692555 0.000000 0.000000 0.000000 0.000000 -0.577835
    9 15.020259 2.932202 -0.015625 3.172079 -0.007634 0.319427
    10 3.890452 -0.031255 0.054686 -2.095017 -0.125504 -1.542930
    11 17.848177 0.000000 0.000000 0.000000 0.000000 1.100491
    12 16.525253 0.000000 0.000000 0.191857 -0.009899 -1.121510
    13 -3.890452 0.031255 -0.054682 -1.471024 -0.158184 -1.435291
    14 17.848173 0.000000 0.000000 0.000000 0.000000 0.263371
    15 16.525257 0.000000 0.000000 -0.240282 -0.094214 -1.077745
  time 4
    0 -4.520397 4.146993 37.691891 1.570796 0.000000 -0.000042
    1 0.062507 3.239656 -3.095186 1.553986 0.152249 1.553742
    2 7.516565 -0.003906 -0.015625 -0.037826 0.010295 0.155386
    3 10.694003 1.428861 -1.941516 -1.717077 1.131736 3.123589
    4 6.028143 0.000001 0.000000 1.294256 -0.046675 -0.869437
    5 11.692552 0.000000 0.000002 0.000000 0.000000 -0.343145
    6 10.701809 1.428855 1.933754 1.580431 -1.095501 3.195343
    7 6.028142 0.000001 0.000000 -1.325771 -0.060598 -0.766801
    8 11.692555 0.000000 0.000000 0.000000 0.000000 -0.607563
    9 15.024166 2.924389 -0.015625 3.169163 -0.001139 0.317386
    10 3.890452 -0.019536 0.058593 -2.091998 -0.091570 -1.630332
    11 17.848177 0.000000 0.000000 0.000000 0.000000 1.029349
    12 16.525253 0.000000 0.000000 0.197705 -0.078640 -1.069237
    13 -3.890452 0.019535 -0.058589 -1.471115 -0.191273 -1.400857
    14 17.848173 0.000000 0.000000 0.000000 0.000000 0.256332
    15 16.525257 0.000000 0.000000 -0.270862 -0.072157 -1.038212
  time 5
    0 -5.696786 5.456209 37.496572 1.570796 0.000000 -0.000042
    1 0.050788 3.239656 -3.095186 1.553394 0.152202 1.555096
    2 7.516565 -0.007813 0.000000 -0.029806 0.002936 0.154180
    3 10.694003 1.428861 -1.941516 -1.717608 1.132085 3.122141
    4 6.028143 0.000001 0.000000 1.301029 -0.044555 -0.884350
    5 11.692552 0.000000 0.000002 0.000000 0.000000 -0.329275
    6 10.705715 1.428855 1.933754 1.580907 -1.095111 3.194001
    7 6.028142 0.000001 0.000000 -1.319979 -0.055427 -0.756398
    8 11.692555 0.000000 0.000000 0.000000 0.000000 -0.631060
    9 15.028072 2.920483 -0.011719 3.165061 0.005633 0.315646
    10 3.890452 -0.000004 0.058593 -2.089985 -0.034521 -1.690973
    11 17.848177 0.000000 0.000000 0.000000 0.000000 0.866361
    12 16.525253 0.000000 0.000000 0.200747 -0.103704 -0.980225
    13 -3.890452 0.000004 -0.058589 -1.471387 -0.218155 -1.364750
    14 17.848173 0.000000 0.000000 0.000000 0.000000 0.228911
    15 16.525257 0.000000 0.000000 -0.298442 -0.050845 -0.973373
  time 6
    0 -6.931770 6.906055 37.301254 1.570796 0.000000 -0.000042
    1 0.031256 3.239656 -3.095186 1.553690 0.152179 1.558008
    2 7.516565 -0.011719 0.031251 -0.020609 -0.005848 0.153968
    3 10.694003 1.428861 -1.937610 -1.715248 1.131344 3.124253
    4 6.028143 0.000001 0.000000 1.307216 -0.034788 -0.898144
    5 11.692552 0.000000 0.000002 0.000000 0.000000 -0.318527
    6 10.705715 1.424949 1.937660 1.579096 -1.096021 3.195535
    7 6.028142 0.000001 0.000000 -1.313443 -0.049916 -0.747064
    8 11.692555 0.000000 0.000000 0.000000 0.000000 -0.645924
    9 15.028072 2.916576 -0.011719 3.160069 0.012440 0.314422
    10 3.890452 0.015621 0.058593 -2.091540 0.018175 -1.713703
    11 17.848177 0.000000 0.000000 0.000000 0.000000 0.723690
    12 16.525253 0.000000 0.000000 0.209133 -0.079820 -0.979360
    13 -3.890452 -0.015622 -0.058589 -1.471478 -0.243420 -1.336657
    14 17.848173 0.000000 0.000000 0.000000 0.000000 0.186430
    15 16.525257 0.000000 0.000000 -0.264364 -0.083678 -0.865037
  time 7
    0 -8.233162 8.461373 37.133280 1.570796 0.000000 -0.000042
    1 0.007818 3.239656 -3.095186 1.554798 0.152155 1.562718
    2 7.516565 -0.015625 0.062502 -0.010750 -0.016203 0.155132
    3 10.694003 1.428861 -1.937610 -1.710412 1.129643 3.129444
    4 6.028143 0.000001 0.000000 1.311480 -0.018247 -0.910260
    5 11.692552 0.000000 0.000002 0.000000 0.000000 -0.310612
    6 10.705715 1.424949 1.937660 1.575378 -1.098015 3.199753
    7 6.028142 0.000001 0.000000 -1.307205 -0.044708 -0.738758
    8 11.692555 0.000000 0.000000 0.000000 0.000000 -0.651179
    9 15.028072 2.916576 -0.011719 3.154385 0.019008 0.313885
    10 3.890452 0.039060 0.050780 -2.094559 0.048877 -1.706240
    11 17.848177 0.000000 0.000000 0.000000 0.000000 0.625202
    12 16.525253 0.000000 0.000000 0.213822 -0.020153 -1.084387
    13 -3.890452 -0.039060 -0.050776 -1.471206 -0.277514 -1.317018
    14 17.848173 0.000000 0.000000 0.000000 0.000000 0.162039
    15 16.525257 0.000000 0.000000 -0.173482 -0.160705 -0.751736
  time 8
    0 -9.534555 10.063567 37.016089 1.570796 0.000000 -0.000042
    1 -0.019527 3.239656 -3.095186 1.556627 0.152179 1.569861
    2 7.516565 -0.015625 0.101566 -0.000862 -0.028835 0.157291
    3 10.694003 1.428861 -1.937610 -1.703687 1.127156 3.137592
    4 6.028143 0.000001 0.000000 1.312901 0.003776 -0.920792
    5 11.692552 0.000000 0.000002 0.000000 0.000000 -0.305311
    6 10.701809 1.428855 1.937660 1.570135 -1.100920 3.206559
    7 6.028142 0.000001 0.000000 -1.302303 -0.039801 -0.731440
    8 11.692555 0.000000 0.000000 0.000000 0.000000 -0.647050
    9 15.024166 2.920483 -0.007813 3.148256 0.025024 0.315539
    10 3.890452 0.070311 0.042967 -2.097670 0.095513 -1.707699
    11 17.848177 0.000000 0.000000 0.000000 0.000000 0.480599
    12 16.525253 0.000000 0.000000 0.201148 0.048283 -1.214813
    13 -3.890452 -0.070311 -0.042963 -1.469392 -0.340064 -1.318339
    14 17.848173 0.000000 0.000000 0.000000 0.000000 0.221135
    15 16.525257 0.000000 0.000000 -0.045094 -0.257376 -0.698605
  time 9
    0 -10.828134 11.654041 36.977025 1.570796 0.000000 -0.000042
    1 -0.054684 3.239656 -3.095186 1.559048 0.152225 1.578802
    2 7.516565 -0.007813 0.148442 0.008767 -0.042557 0.159978
    3 10.694003 1.432768 -1.937610 -1.695430 1.124045 3.148335
    4 6.028143 0.000001 0.000000 1.311313 0.030038 -0.928621
    5 11.692552 0.000000 0.000002 0.000000 0.000000 -0.306981
    6 10.697902 1.432762 1.937660 1.563462 -1.104475 3.215762
    7 6.028142 0.000001 0.000000 -1.299184 -0.035121 -0.725784
    8 11.692555 0.000000 0.000000 0.000000 0.000000 -0.634363
    9 15.020259 2.932202 -0.007813 3.141881 0.030201 0.322412
    10 3.890452 0.101562 0.035154 -2.099225 0.112165 -1.697320
    11 17.848177 0.000000 0.000000 0.000000 0.000000 0.382884
    12 16.525253 0.000000 0.000000 0.177238 0.096579 -1.313017
    13 -3.890452 -0.101562 -0.035150 -1.462226 -0.474211 -1.371091
    14 17.848173 0.000000 0.000000 0.000000 0.000000 0.497629
    15 16.525257 0.000000 0.000000 0.099056 -0.365466 -0.804829
  time 10
    0 -12.113901 13.185921 37.043433 1.570796 0.000000 -0.000042
    1 -0.085935 3.239656 -3.095186 1.561972 0.152295 1.587167
    2 7.512659 0.000000 0.183599 0.018194 -0.053847 0.162497
    3 10.690096 1.436674 -1.937610 -1.686287 1.120439 3.160286
    4 6.028143 0.000001 0.000000 1.309055 0.057682 -0.932070
    5 11.692552 0.000000 0.000002 0.000000 0.000000 -0.316203
    6 10.693996 1.432762 1.937660 1.555740 -1.108550 3.226308
    7 6.028142 0.000001 0.000000 -1.297154 -0.029535 -0.723016
    8 11.692555 0.000000 0.000000 0.000000 0.000000 -0.613718
    9 15.016353 2.943921 -0.003906 3.135604 0.034216 0.328921
    10 3.890452 0.128906 0.023435 -2.100048 0.120514 -1.684797
    11 17.848177 0.000000 0.000000 0.000000 0.000000 0.285324
    12 16.525253 0.000000 0.000000 0.151904 0.127521 -1.349115
    13 -3.890452 -0.128907 -0.023431 -1.453337 -0.586416 -1.441632
    14 17.848173 0.000000 0.000000 0.000000 0.000000 0.760372
    15 16.525257 0.000000 0.000000 0.189206 -0.451260 -0.922540
  time 11
    0 -13.395762 14.592796 37.223126 1.570796 0.000000 -0.000042
    1 -0.105467 3.239656 -3.095186 1.565219 0.152366 1.592248
    2 7.512659 0.003906 0.195318 0.027421 -0.058868 0.164550
    3 10.690096 1.436674 -1.937610 -1.676613 1.116469 3.171814
    4 6.028143 0.000001 0.000000 1.306881 0.084221 -0.930485
    5 11.692552 0.000000 0.000002 0.000000 0.000000 -0.332688
    6 10.693996 1.436668 1.937660 1.547256 -1.112907 3.236565
    7 6.028142 0.000001 0.000000 -1.294877 -0.021910 -0.724202
    8 11.692555 0.000000 0.000000 0.000000 0.000000 -0.586242
    9 15.012447 2.951734 -0.003906 3.129574 0.036685 0.329995
    10 3.890452 0.140625 0.011716 -2.099317 0.108799 -1.661382
    11 17.848177 0.000000 0.000000 0.000000 0.000000 0.228626
    12 16.525253 0.000000 0.000000 0.130517 0.145770 -1.347258
    13 -3.890452 -0.140626 -0.011712 -1.445991 -0.656659 -1.515167
    14 17.848173 0.000000 0.000000 0.000000 0.000000 0.960662
    15 16.525257 0.000000 0.000000 0.184904 -0.496217 -1.007608
  time 12
    0 -14.669810 15.855136 37.500479 1.570796 0.000000 -0.000042
    1 -0.113280 3.239656 -3.095186 1.568645 0.152412 1.594825
    2 7.512659 0.007813 0.191412 0.035785 -0.059000 0.165269
    3 10.690096 1.436674 -1.937610 -1.666940 1.112311 3.182678
    4 6.028143 0.000001 0.000000 1.304457 0.108225 -0.924800
    5 11.692552 0.000000 0.000002 0.000000 0.000000 -0.358467
    6 10.693996 1.436668 1.937660 1.538295 -1.117416 3.246631
    7 6.028142 0.000001 0.000000 -1.291510 -0.011795 -0.728553
    8 11.692555 0.000000 0.000000 0.000000 0.000000 -0.552160
    9 15.012447 2.951734 0.000000 3.123989 0.037320 0.329544
    10 3.890452 0.136719 -0.000003 -2.096297 0.046902 -1.609146
    11 17.848177 0.000000 0.000000 0.000000 0.000000 0.286405
    12 16.525253 0.000000 0.000000 0.119223 0.152809 -1.322979
    13 -3.890452 -0.136719 0.000007 -1.442362 -0.684765 -1.583066
    14 17.848173 0.000000 0.000000 0.000000 0.000000 1.096126
    15 16.525257 0.000000 0.000000 0.129207 -0.502269 -1.063629
  time 13
    0 -15.936045 17.015910 37.816895 1.570796 0.000000 -0.000042
    1 -0.113280 3.239656 -3.095186 1.572110 0.152436 1.595568
    2 7.512659 0.003906 0.179693 0.042626 -0.055453 0.164444
    3 10.690096 1.436674 -1.937610 -1.657502 1.108079 3.192939
    4 6.028143 0.000001 0.000000 1.301530 0.129235 -0.915573
    5 11.692552 0.000000 0.000002 0.000000 0.000000 -0.391798
    6 10.693996 1.436668 1.937660 1.529239 -1.121881 3.256409
    7 6.028142 0.000001 0.000000 -1.286608 0.000434 -0.735277
    8 11.692555 0.000000 0.000000 0.000000 0.000000 -0.518228
    9 15.012447 2.951734 0.000000 3.119244 0.036265 0.328491
    10 3.890452 0.128906 -0.007816 -2.095291 0.014764 -1.573036
    11 17.848177 0.000000 0.000000 0.000000 0.000000 0.279221
    12 16.525253 0.000000 0.000000 0.106281 0.160946 -1.271955
    13 -3.890452 -0.128907 0.007820 -1.444176 -0.663828 -1.643392
    14 17.848173 0.000000 0.000000 0.000000 0.000000 1.159315
    15 16.525257 0.000000 0.000000 0.055427 -0.468491 -1.101643
  time 14
    0 -17.202280 18.110276 38.098153 1.570796 0.000000 -0.000042
    1 -0.105467 3.239656 -3.095186 1.575472 0.152459 1.594897
    2 7.516565 0.003906 0.152348 0.047340 -0.049029 0.162941
    3 10.694003 1.436674 -1.937610 -1.648832 1.103950 3.202233
    4 6.028143 0.000001 0.000000 1.298102 0.147111 -0.903457
    5 11.692552 0.000000 0.000002 0.000000 0.000000 -0.426945
    6 10.693996 1.436668 1.937660 1.520469 -1.126173 3.265612
    7 6.028142 0.000001 0.000000 -1.282301 0.013644 -0.744058
    8 11.692555 0.000000 0.000000 0.000000 0.000000 -0.488125
    9 15.012447 2.947827 0.000000 3.115735 0.033713 0.326902
    10 3.890452 0.109374 -0.015628 -2.094651 -0.005345 -1.543102
    11 17.848177 0.000000 0.000000 0.000000 0.000000 0.248401
    12 16.525253 0.000000 0.000000 0.092672 0.169389 -1.210938
    13 -3.890452 -0.109375 0.015632 -1.450979 -0.589869 -1.696055
    14 17.848173 0.000000 0.000000 0.000000 0.000000 1.153913
    15 16.525257 0.000000 0.000000 -0.007589 -0.402200 -1.136545
  time 15
    0 -18.460702 19.157766 38.273940 1.570796 0.000000 -0.000042
    1 -0.093748 3.239656 -3.095186 1.578576 0.152436 1.593219
    2 7.516565 0.000000 0.121097 0.049409 -0.040580 0.160973
    3 10.694003 1.436674 -1.937610 -1.641223 1.100126 3.210080
    4 6.028143 0.000001 0.000000 1.293922 0.160887 -0.889290
    5 11.692552 0.000000 0.000002 0.000000 0.000000 -0.462963
    6 10.693996 1.432762 1.937660 1.512461 -1.130053 3.273761
    7 6.028142 0.000001 0.000000 -1.280519 0.027232 -0.754302
    8 11.692555 0.000000 0.000000 0.000000 0.000000 -0.462226
    9 15.016353 2.943921 0.000000 3.113807 0.029794 0.324861
    10 3.890452 0.085936 -0.027348 -2.094102 -0.026666 -1.512052
    11 17.848177 0.000000 0.000000 0.000000 0.000000 0.224300
    12 16.525253 0.000000 0.000000 0.078602 0.178014 -1.155237
    13 -3.890452 -0.085936 0.027352 -1.458779 -0.486625 -1.736213
    14 17.848173 0.000000 0.000000 0.000000 0.000000 1.107995
    15 16.525257 0.000000 0.000000 -0.047362 -0.311341 -1.170113
  time 16
    0 -19.719124 20.197443 38.320816 1.570796 0.000000 -0.000042
    1 -0.082029 3.239656 -3.095186 1.581281 0.152389 1.591781
    2 7.516565 0.000000 0.093753 0.048518 -0.032215 0.158751
    3 10.694003 1.432768 -1.937610 -1.634911 1.096869 3.216236
    4 6.028143 0.000001 0.000000 1.289240 0.169503 -0.874470
    5 11.692552 0.000000 0.000002 0.000000 0.000000 -0.500942
    6 10.693996 1.432762 1.937660 1.505597 -1.133348 3.280376
    7 6.028142 0.000001 0.000000 -1.280073 0.040291 -0.765179
    8 11.692555 0.000000 0.000000 0.000000 0.000000 -0.440230
    9 15.016353 2.940015 0.000000 3.113610 0.024676 0.322498
    10 3.890452 0.066404 -0.035160 -2.093827 -0.057053 -1.475428
    11 17.848177 0.000000 0.000000 0.000000 0.000000 0.223759
    12 16.525253 0.000000 0.000000 0.064236 0.186742 -1.112637
    13 -3.890452 -0.066405 0.035164 -1.465219 -0.370661 -1.765363
    14 17.848173 0.000000 0.000000 0.000000 0.000000 1.029745
    15 16.525257 0.000000 0.000000 -0.058215 -0.215575 -1.186341
  time 17
    0 -20.981453 21.244932 38.203625 1.570796 0.000000 -0.000042
    1 -0.074216 3.239656 -3.095186 1.583432 0.152342 1.590870
    2 7.516565 -0.003906 0.066408 0.044724 -0.024616 0.156613
    3 10.694003 1.432768 -1.937610 -1.630310 1.094368 3.220401
    4 6.028143 0.000001 0.000000 1.284809 0.171530 -0.860676
    5 11.692552 0.000000 0.000002 0.000000 0.000000 -0.538631
    6 10.697902 1.432762 1.937660 1.500354 -1.135819 3.284977
    7 6.028142 0.000001 0.000000 -1.279875 0.049878 -0.776373
    8 11.692555 0.000000 0.000000 0.000000 0.000000 -0.421838
    9 15.020259 2.932202 0.000000 3.115092 0.018636 0.319985
    10 3.890452 0.046872 -0.042973 -2.094834 -0.104273 -1.428853
    11 17.848177 0.000000 0.000000 0.000000 0.000000 0.262923
    12 16.525253 0.000000 0.000000 0.049646 0.195489 -1.090601
    13 -3.890452 -0.046873 0.042977 -1.469482 -0.262915 -1.786411
    14 17.848173 0.000000 0.000000 0.000000 0.000000 0.945274
    15 16.525257 0.000000 0.000000 -0.044077 -0.136819 -1.181932
  time 18
    0 -22.239875 22.331486 37.953617 1.570796 0.000000 -0.000042
    1 -0.062497 3.239656 -3.095186 1.584875 0.152295 1.589923
    2 7.516565 -0.007813 0.042970 0.038573 -0.017258 0.154836
    3 10.697909 1.428861 -1.937610 -1.627656 1.092812 3.222332
    4 6.028143 0.000001 0.000000 1.279876 0.167568 -0.848374
    5 11.692552 0.000000 0.000002 0.000000 0.000000 -0.572616
    6 10.697902 1.428855 1.937660 1.497208 -1.137358 3.287278
    7 6.028142 0.000001 0.000000 -1.283291 0.055690 -0.787843
    8 11.692555 0.000000 0.000000 0.000000 0.000000 -0.406673
    9 15.024166 2.924389 0.000000 3.117959 0.011985 0.317536
    10 3.890452 0.027341 -0.046879 -2.097578 -0.158405 -1.378248
    11 17.848177 0.000000 0.000000 0.000000 0.000000 0.315913
    12 16.525253 0.000000 0.000000 0.035013 0.204156 -1.074490
    13 -3.890452 -0.027341 0.046883 -1.471931 -0.170991 -1.799269
    14 17.848173 0.000000 0.000000 0.000000 0.000000 0.857857
    15 16.525257 0.000000 0.000000 -0.019299 -0.092726 -1.151365
  time 19
    0 -23.498298 23.480541 37.676265 1.570796 0.000000 -0.000042
    1 -0.046871 3.239656 -3.095186 1.585480 0.152249 1.588329
    2 7.516565 -0.011719 0.019532 0.030582 -0.009552 0.153756
    3 10.697909 1.428861 -1.937610 -1.627302 1.092419 3.221849
    4 6.028143 0.000001 0.000000 1.274525 0.159044 -0.836910
    5 11.692552 0.000000 0.000002 0.000000 0.000000 -0.599484
    6 10.701809 1.428855 1.937660 1.496636 -1.137748 3.286990
    7 6.028142 0.000001 0.000000 -1.289678 0.055955 -0.799353
    8 11.692555 0.000000 0.000000 0.000000 0.000000 -0.394512
    9 15.028072 2.920483 0.000000 3.122012 0.005034 0.315453
    10 3.890452 0.011715 -0.046879 -2.100872 -0.203245 -1.333303
    11 17.848177 0.000000 0.000000 0.000000 0.000000 0.342408
    12 16.525253 0.000000 0.000000 0.020720 0.212558 -1.042876
    13 -3.890452 -0.011715 0.046883 -1.473110 -0.101360 -1.802351
    14 17.848173 0.000000 0.000000 0.000000 0.000000 0.778952
    15 16.525257 0.000000 0.000000 -0.009624 -0.092746 -1.121984
  time 20
    0 -24.842660 24.723349 37.469228 1.570796 0.000000 -0.000042
    1 -0.027340 3.239656 -3.095186 1.585184 0.152225 1.585261
    2 7.516565 -0.015625 -0.003906 0.021413 -0.000503 0.153672
    3 10.697909 1.428861 -1.937610 -1.629249 1.093248 3.219073
    4 6.028143 0.000001 0.000000 1.269843 0.146881 -0.826005
    5 11.692552 0.000000 0.000002 0.000000 0.000000 -0.616549
    6 10.701809 1.424949 1.937660 1.498829 -1.136946 3.284019
    7 6.028142 0.000001 0.000000 -1.297451 0.051312 -0.810705
    8 11.692555 0.000000 0.000000 0.000000 0.000000 -0.385128
    9 15.028072 2.916576 0.000000 3.127004 -0.001894 0.314056
    10 3.890452 -0.007817 -0.042973 -2.101695 -0.223938 -1.301568
    11 17.848177 0.000000 0.000000 0.000000 0.000000 0.307725
    12 16.525253 0.000000 0.000000 0.003311 0.221407 -0.988457
    13 -3.890452 0.007816 0.042977 -1.473382 -0.050132 -1.793632
    14 17.848173 0.000000 0.000000 0.000000 0.000000 0.692517
    15 16.525257 0.000000 0.000000 -0.014908 -0.104569 -1.120687
  time 21
    0 -26.308120 26.059910 37.391100 1.570796 0.000000 -0.000042
    1 0.000005 3.239656 -3.095186 1.584076 0.152225 1.579365
    2 7.516565 -0.015625 -0.042970 0.011785 0.011625 0.155069
    3 10.697909 1.428861 -1.937610 -1.633319 1.095095 3.214546
    4 6.028143 0.000001 0.000000 1.267000 0.132229 -0.815007
    5 11.692552 0.000000 0.000002 0.000000 0.000000 -0.622577
    6 10.701809 1.424949 1.937660 1.503214 -1.135104 3.279225
    7 6.028142 0.000001 0.000000 -1.304779 0.041876 -0.822096
    8 11.692555 0.000000 0.000000 0.000000 0.000000 -0.378146
    9 15.028072 2.916576 -0.003906 3.132638 -0.008521 0.313670
    10 3.890452 -0.035161 -0.039067 -2.096846 -0.202258 -1.293162
    11 17.848177 0.000000 0.000000 0.000000 0.000000 0.185291
    12 16.525253 0.000000 0.000000 -0.027203 0.229626 -0.944223
    13 -3.890452 0.035161 0.039071 -1.473110 -0.024430 -1.773553
    14 17.848173 0.000000 0.000000 0.000000 0.000000 0.620488
    15 16.525257 0.000000 0.000000 -0.021995 -0.116733 -1.187082
  time 22
    0 -27.765767 27.443347 37.414539 1.570796 0.000000 -0.000042
    1 0.031256 3.239656 -3.095186 1.582260 0.152249 1.571479
    2 7.516565 -0.015625 -0.085940 0.002041 0.025335 0.157714
    3 10.697909 1.428861 -1.937610 -1.639099 1.097799 3.208812
    4 6.028143 0.000001 0.000000 1.266331 0.116058 -0.804661
    5 11.692552 0.000000 0.000002 0.000000 0.000000 -0.617929
    6 10.701809 1.428855 1.937660 1.509506 -1.132394 3.273186
    7 6.028142 0.000001 0.000000 -1.310869 0.028213 -0.832578
    8 11.692555 0.000000 0.000000 0.000000 0.000000 -0.373567
    9 15.024166 2.920483 -0.003906 3.138767 -0.014549 0.315625
    10 3.890452 -0.070319 -0.031254 -2.094559 -0.193954 -1.287501
    11 17.848177 0.000000 0.000000 0.000000 0.000000 0.138713
    12 16.525253 0.000000 0.000000 -0.045116 0.231925 -0.943807
    13 -3.890452 0.070318 0.031258 -1.472657 -0.019185 -1.747574
    14 17.848173 0.000000 0.000000 0.000000 0.000000 0.564174
    15 16.525257 0.000000 0.000000 -0.031313 -0.133381 -1.254292
  time 23
    0 -29.180444 28.830691 37.512198 1.570796 0.000000 -0.000042
    1 0.066413 3.239656 -3.095186 1.579839 0.152295 1.562970
    2 7.516565 -0.007813 -0.128910 -0.007674 0.038423 0.160846
    3 10.694003 1.432768 -1.937610 -1.646295 1.101158 3.202656
    4 6.028143 0.000001 0.000000 1.268087 0.098918 -0.795807
    5 11.692552 0.000000 0.000002 0.000000 0.000000 -0.603478
    6 10.697902 1.432762 1.937660 1.517132 -1.128991 3.266763
    7 6.028142 0.000001 0.000000 -1.315424 0.011455 -0.840725
    8 11.692555 0.000000 0.000000 0.000000 0.000000 -0.374993
    9 15.020259 2.932202 -0.007813 3.145143 -0.019655 0.321188
    10 3.890452 -0.101570 -0.019535 -2.099865 -0.238885 -1.261598
    11 17.848177 0.000000 0.000000 0.000000 0.000000 0.263850
    12 16.525253 0.000000 0.000000 -0.047713 0.230623 -1.029872
    13 -3.890452 0.101569 0.019539 -1.472203 -0.007252 -1.714549
    14 17.848173 0.000000 0.000000 0.000000 0.000000 0.479949
    15 16.525257 0.000000 0.000000 -0.043773 -0.153125 -1.275485
  time 24
    0 -30.516994 30.163345 37.656733 1.570796 0.000000 -0.000042
    1 0.093758 3.239656 -3.095186 1.576927 0.152366 1.555600
    2 7.512659 0.000000 -0.160161 -0.017303 0.048250 0.163682
    3 10.690096 1.436674 -1.937610 -1.654671 1.104968 3.195594
    4 6.028143 0.000001 0.000000 1.271264 0.080443 -0.789935
    5 11.692552 0.000000 0.000002 0.000000 0.000000 -0.579950
    6 10.697902 1.436668 1.937660 1.525712 -1.125046 3.259669
    7 6.028142 0.000001 0.000000 -1.320028 -0.006322 -0.844799
    8 11.692555 0.000000 0.000000 0.000000 0.000000 -0.383026
    9 15.012447 2.947827 -0.007813 3.151469 -0.023562 0.325828
    10 3.890452 -0.121101 -0.011722 -2.105812 -0.276140 -1.246845
    11 17.848177 0.000000 0.000000 0.000000 0.000000 0.413473
    12 16.525253 0.000000 0.000000 -0.036107 0.228263 -1.114944
    13 -3.890452 0.121101 0.011726 -1.471750 0.018013 -1.677209
    14 17.848173 0.000000 0.000000 0.000000 0.000000 0.367567
    15 16.525257 0.000000 0.000000 -0.054663 -0.175282 -1.271854
  time 25
    0 -31.767603 31.390528 37.820801 1.570796 0.000000 -0.000042
    1 0.113290 3.239656 -3.095186 1.573681 0.152412 1.550063
    2 7.512659 0.007813 -0.175787 -0.026415 0.053967 0.165989
    3 10.686190 1.436674 -1.937610 -1.663873 1.109068 3.186420
    4 6.028143 0.000001 0.000000 1.274943 0.060124 -0.787605
    5 11.692552 0.000000 0.000002 0.000000 0.000000 -0.548579
    6 10.693996 1.436668 1.937660 1.534673 -1.120732 3.250849
    7 6.028142 0.000001 0.000000 -1.324435 -0.022779 -0.844404
    8 11.692555 0.000000 0.000000 0.000000 0.000000 -0.397365
    9 15.012447 2.951734 -0.011719 3.157548 -0.025959 0.326902
    10 3.890452 -0.136727 -0.000003 -2.106453 -0.280628 -1.247531
    11 17.848177 0.000000 0.000000 0.000000 0.000000 0.535598
    12 16.525253 0.000000 0.000000 -0.014216 0.229117 -1.145917
    13 -3.890452 0.136727 0.000007 -1.471387 0.042666 -1.638900
    14 17.848173 0.000000 0.000000 0.000000 0.000000 0.256168
    15 16.525257 0.000000 0.000000 -0.067801 -0.194182 -1.237953
  time 26
    0 -32.986962 32.559115 37.965337 1.570796 0.000000 -0.000042
    1 0.113290 3.239656 -3.095186 1.570255 0.152459 1.549308
    2 7.512659 0.011719 -0.164068 -0.035153 0.051378 0.166793
    3 10.686190 1.440580 -1.937610 -1.673428 1.113270 3.175918
    4 6.028143 0.000001 0.000000 1.276949 0.038562 -0.790681
    5 11.692552 0.000000 0.000002 0.000000 0.000000 -0.509656
    6 10.697902 1.436668 1.937660 1.543729 -1.116224 3.240975
    7 6.028142 0.000001 0.000000 -1.328792 -0.036555 -0.838550
    8 11.692555 0.000000 0.000000 0.000000 0.000000 -0.419961
    9 15.008540 2.955640 -0.011719 3.163133 -0.026570 0.326666
    10 3.890452 -0.125008 0.007810 -2.108557 -0.296248 -1.233207
    11 17.848177 0.000000 0.000000 0.000000 0.000000 0.732418
    12 16.525253 0.000000 0.000000 0.009708 0.232454 -1.198446
    13 -3.890452 0.125007 -0.007806 -1.471206 0.027848 -1.602529
    14 17.848173 0.000000 0.000000 0.000000 0.000000 0.222036
    15 16.525257 0.000000 0.000000 -0.091383 -0.196514 -1.203607
  time 27
    0 -34.182882 33.692544 38.070809 1.570796 0.000000 -0.000042
    1 0.101571 3.239656 -3.095186 1.566790 0.152482 1.552771
    2 7.516565 0.011719 -0.125004 -0.042856 0.041563 0.165840
    3 10.686190 1.436674 -1.941516 -1.683102 1.117429 3.165114
    4 6.028143 0.000001 0.000000 1.276949 0.017229 -0.799069
    5 11.692552 0.000000 0.000002 0.000000 0.000000 -0.470806
    6 10.697902 1.436668 1.933754 1.552499 -1.111693 3.231197
    7 6.028142 0.000001 0.000000 -1.332604 -0.047463 -0.827950
    8 11.692555 0.000000 0.000000 0.000000 0.000000 -0.449088
    9 15.012447 2.951734 -0.015625 3.167928 -0.025371 0.325957
    10 3.890452 -0.097663 0.019529 -2.105904 -0.282020 -1.242985
    11 17.848177 0.000000 0.000000 0.000000 0.000000 0.885132
    12 16.525253 0.000000 0.000000 0.043324 0.228812 -1.219874
    13 -3.890452 0.097663 -0.019525 -1.471206 0.007872 -1.566422
    14 17.848173 0.000000 0.000000 0.000000 0.000000 0.197071
    15 16.525257 0.000000 0.000000 -0.119838 -0.177916 -1.174670
  time 28
    0 -35.347552 34.814255 38.113779 1.570796 0.000000 -0.000042
    1 0.082039 3.239656 -3.095186 1.563389 0.152459 1.556486
    2 7.516565 0.007813 -0.085940 -0.048202 0.030585 0.164126
    3 10.686190 1.436674 -1.941516 -1.692539 1.121427 3.154371
    4 6.028143 0.000001 0.000000 1.277367 -0.002352 -0.810906
    5 11.692552 0.000000 0.000002 0.000000 0.000000 -0.436168
    6 10.697902 1.436668 1.933754 1.560602 -1.107249 3.221610
    7 6.028142 0.000001 0.000000 -1.334931 -0.056257 -0.814937
    8 11.692555 0.000000 0.000000 0.000000 0.000000 -0.480092
    9 15.012447 2.951734 -0.015625 3.171486 -0.022651 0.324840
    10 3.890452 -0.070319 0.031248 -2.100963 -0.242790 -1.285443
    11 17.848177 0.000000 0.000000 0.000000 0.000000 0.986478
    12 16.525253 0.000000 0.000000 0.087685 0.206190 -1.214013
    13 -3.890452 0.070318 -0.031244 -1.471206 -0.032167 -1.532692
    14 17.848173 0.000000 0.000000 0.000000 0.000000 0.212214
    15 16.525257 0.000000 0.000000 -0.150400 -0.157709 -1.153625
end
