// Created by Crowbar 0.74
version 1
nodes
  0 "ValveBiped.Bip01" -1
  1 "ValveBiped.Bip01_Spine" 0
  2 "ValveBiped.Bip01_Spine2" 1
  3 "ValveBiped.Bip01_R_Clavicle" 2
  4 "ValveBiped.Bip01_R_UpperArm" 3
  5 "ValveBiped.Bip01_R_Forearm" 4
  6 "ValveBiped.Bip01_L_Clavicle" 2
  7 "ValveBiped.Bip01_L_UpperArm" 6
  8 "ValveBiped.Bip01_L_Forearm" 7
  9 "ValveBiped.Bip01_Head1" 2
  10 "ValveBiped.Bip01_L_Thigh" 0
  11 "ValveBiped.Bip01_L_Calf" 10
  12 "ValveBiped.Bip01_L_Foot" 11
  13 "ValveBiped.Bip01_R_Thigh" 0
  14 "ValveBiped.Bip01_R_Calf" 13
  15 "ValveBiped.Bip01_R_Foot" 14
end
skeleton
  time 0
    0 -0.002349 -0.531261 38.234876 1.570796 0.000000 -0.000042
    1 -0.191407 3.134184 -3.196751 1.650749 0.149492 1.569562
    2 7.512659 0.132817 -0.089846 0.030180 0.023250 0.204611
    3 10.682283 1.444487 -1.941516 -1.692539 1.121427 3.157751
    4 6.028143 0.000001 0.000000 1.415908 0.319888 -0.890781
    5 11.692552 0.000000 0.000002 0.000000 0.000000 -0.412422
    6 10.693996 1.440574 1.933754 1.560602 -1.107249 3.225061
    7 6.028142 0.000001 0.000000 -1.125402 -0.078450 -0.777441
    8 11.692555 0.000000 0.000000 0.000000 0.000000 -0.429495
    9 15.000727 2.971266 -0.015625 3.105751 -0.005441 0.341358
    10 3.878733 -0.070319 -0.300793 -2.119352 -0.192787 -1.378248
    11 17.848177 0.000000 0.000000 0.000000 0.000000 0.850140
    12 16.525253 0.000000 0.000000 -0.082235 0.221834 -1.212155
    13 -3.878733 0.070318 0.300797 -1.691339 0.029727 -1.596364
    14 17.848173 0.000000 0.000000 0.000000 0.000000 0.222200
    15 16.525257 0.000000 0.000000 0.025687 -0.008642 -1.205422
  time 1
    0 1.531833 -2.092899 38.195812 1.570796 0.000000 -0.000042
    1 -0.199220 3.134184 -3.196751 1.648057 0.149819 1.569598
    2 7.516565 0.128910 -0.066408 0.030065 0.016623 0.202220
    3 10.682283 1.440580 -1.941516 -1.701682 1.125280 3.146947
    4 6.028143 0.000001 0.000000 1.410306 0.345551 -0.890501
    5 11.692552 0.000000 0.000002 0.000000 0.000000 -0.486128
    6 10.693996 1.440574 1.933754 1.568324 -1.102914 3.215762
    7 6.028142 0.000001 0.000000 -1.137334 -0.035838 -0.767829
    8 11.692555 0.000000 0.000000 0.000000 0.000000 -0.369438
    9 15.004634 2.967359 -0.015625 3.106146 -0.000671 0.338587
    10 3.882639 -0.050787 -0.292981 -2.122371 -0.228830 -1.317436
    11 17.848177 0.000000 0.000000 0.000000 0.000000 0.728479
    12 16.525253 0.000000 0.000000 -0.153696 0.225781 -1.240565
    13 -3.882639 0.050786 0.292985 -1.691339 0.068324 -1.635466
    14 17.848173 0.000000 0.000000 0.000000 0.000000 0.223018
    15 16.525257 0.000000 0.000000 0.065352 -0.013186 -1.206830
  time 2
    0 3.191018 -3.767822 37.945805 1.570796 0.000000 -0.000042
    1 -0.199220 3.130278 -3.200658 1.645764 0.150146 1.567860
    2 7.516565 0.125004 -0.050783 0.026990 0.012979 0.199617
    3 10.682283 1.440580 -1.941516 -1.709350 1.128450 3.137532
    4 6.028143 0.000001 0.000000 1.403617 0.360893 -0.888917
    5 11.692552 0.000000 0.000002 0.000000 0.000000 -0.563829
    6 10.693996 1.436668 1.933754 1.574425 -1.099294 3.207806
    7 6.028142 0.000001 0.000000 -1.148276 0.000660 -0.763043
    8 11.692555 0.000000 0.000000 0.000000 0.000000 -0.319216
    9 15.008540 2.959546 -0.015625 3.108914 0.004183 0.335344
    10 3.882639 -0.042974 -0.285168 -2.117888 -0.208138 -1.301653
    11 17.848177 0.000000 0.000000 0.000000 0.000000 0.493036
    12 16.525253 0.000000 0.000000 -0.215006 0.201959 -1.219490
    13 -3.882639 0.042974 0.285172 -1.691248 0.082923 -1.670604
    14 17.848173 0.000000 0.000000 0.000000 0.000000 0.281624
    15 16.525257 0.000000 0.000000 0.122816 0.000607 -1.229580
  time 3
    0 4.877548 -5.466184 37.520010 1.570796 0.000000 -0.000042
    1 -0.207033 3.130278 -3.200658 1.644012 0.150426 1.567009
    2 7.516565 0.121098 -0.035157 0.020695 0.008641 0.197246
    3 10.686190 1.436674 -1.941516 -1.714836 1.130748 3.130349
    4 6.028143 0.000001 0.000000 1.395842 0.362736 -0.889569
    5 11.692552 0.000000 0.000002 0.000000 0.000000 -0.639642
    6 10.697902 1.436668 1.933754 1.578715 -1.096628 3.201670
    7 6.028142 0.000001 0.000000 -1.157435 0.023495 -0.762529
    8 11.692555 0.000000 0.000000 0.000000 0.000000 -0.277852
    9 15.012447 2.951734 -0.015625 3.113807 0.008941 0.331821
    10 3.882639 -0.031255 -0.281262 -2.117797 -0.225284 -1.259539
    11 17.848177 0.000000 0.000000 0.000000 0.000000 0.397020
    12 16.525253 0.000000 0.000000 -0.265868 0.165483 -1.270962
    13 -3.882639 0.031255 0.281266 -1.691248 0.118460 -1.708296
    14 17.848173 0.000000 0.000000 0.000000 0.000000 0.305197
    15 16.525257 0.000000 0.000000 0.186742 0.016672 -1.252625
  time 4
    0 6.567985 -7.164545 37.019995 1.570796 0.000000 -0.000042
    1 -0.218752 3.130278 -3.200658 1.642904 0.150683 1.567416
    2 7.516565 0.117191 -0.011719 0.011698 0.003296 0.195426
    3 10.686190 1.436674 -1.941516 -1.717549 1.131969 3.126185
    4 6.028143 0.000001 0.000000 1.385976 0.353429 -0.891433
    5 11.692552 0.000000 0.000002 0.000000 0.000000 -0.705724
    6 10.697902 1.432762 1.933754 1.580812 -1.095241 3.198123
    7 6.028142 0.000001 0.000000 -1.167981 0.031308 -0.766128
    8 11.692555 0.000000 0.000000 0.000000 0.000000 -0.244521
    9 15.016353 2.943921 -0.015625 3.120331 0.013423 0.328362
    10 3.882639 -0.011723 -0.281262 -2.116150 -0.227753 -1.234751
    11 17.848177 0.000000 0.000000 0.000000 0.000000 0.306721
    12 16.525253 0.000000 0.000000 -0.289777 0.128071 -1.298796
    13 -3.882639 0.011723 0.281266 -1.691792 0.182539 -1.752594
    14 17.848173 0.000000 0.000000 0.000000 0.000000 0.271065
    15 16.525257 0.000000 0.000000 0.243867 0.019265 -1.261591
  time 5
    0 8.258421 -8.866812 36.617639 1.570796 0.000000 -0.000042
    1 -0.234377 3.130278 -3.200658 1.642621 0.150917 1.569442
    2 7.516565 0.113285 0.011719 0.000546 -0.003308 0.194410
    3 10.690096 1.432768 -1.941516 -1.717018 1.131925 3.125943
    4 6.028143 0.000001 0.000000 1.374939 0.335184 -0.892459
    5 11.692552 0.000000 0.000002 0.000000 0.000000 -0.753942
    6 10.697902 1.432762 1.933754 1.580431 -1.095327 3.197740
    7 6.028142 0.000001 0.000000 -1.177833 0.022514 -0.773643
    8 11.692555 0.000000 0.000000 0.000000 0.000000 -0.218471
    9 15.016353 2.940015 -0.011719 3.128042 0.017498 0.325377
    10 3.882639 0.003902 -0.281262 -2.117248 -0.242027 -1.216310
    11 17.848177 0.000000 0.000000 0.000000 0.000000 0.302858
    12 16.525253 0.000000 0.000000 -0.273155 0.112121 -1.307764
    13 -3.882639 -0.003903 0.281266 -1.691429 0.212306 -1.803056
    14 17.848173 0.000000 0.000000 0.000000 0.000000 0.286371
    15 16.525257 0.000000 0.000000 0.271233 -0.007576 -1.227875
  time 6
    0 9.952764 -10.565173 36.410602 1.570796 0.000000 -0.000042
    1 -0.257815 3.126371 -3.200658 1.643329 0.151081 1.573349
    2 7.516565 0.109378 0.042970 -0.012130 -0.011313 0.194770
    3 10.690096 1.432768 -1.937610 -1.713243 1.130660 3.129685
    4 6.028143 0.000001 0.000000 1.364237 0.309751 -0.891806
    5 11.692552 0.000000 0.000002 0.000000 0.000000 -0.779140
    6 10.697902 1.432762 1.937660 1.577571 -1.096823 3.200616
    7 6.028142 0.000001 0.000000 -1.184913 -0.000132 -0.784323
    8 11.692555 0.000000 0.000000 0.000000 0.000000 -0.199028
    9 15.016353 2.936108 -0.011719 3.136543 0.021021 0.323207
    10 3.882639 0.027341 -0.285168 -2.120633 -0.264335 -1.200785
    11 17.848177 0.000000 0.000000 0.000000 0.000000 0.350132
    12 16.525253 0.000000 0.000000 -0.230471 0.110779 -1.295401
    13 -3.882639 -0.027341 0.285172 -1.689978 0.190495 -1.836256
    14 17.848173 0.000000 0.000000 0.000000 0.000000 0.382956
    15 16.525257 0.000000 0.000000 0.240190 0.008609 -1.157479
  time 7
    0 11.639294 -12.259628 36.379351 1.570796 0.000000 -0.000042
    1 -0.285160 3.126371 -3.196751 1.644927 0.151197 1.579701
    2 7.516565 0.109378 0.082034 -0.025897 -0.021345 0.196611
    3 10.690096 1.436674 -1.937610 -1.706991 1.128392 3.136988
    4 6.028143 0.000001 0.000000 1.355291 0.278790 -0.889196
    5 11.692552 0.000000 0.000002 0.000000 0.000000 -0.780229
    6 10.697902 1.432762 1.937660 1.572709 -1.099489 3.206463
    7 6.028142 0.000001 0.000000 -1.188231 -0.033875 -0.797138
    8 11.692555 0.000000 0.000000 0.000000 0.000000 -0.185665
    9 15.016353 2.940015 -0.007813 3.145390 0.023837 0.322713
    10 3.882639 0.054685 -0.292981 -2.127037 -0.292927 -1.196154
    11 17.848177 0.000000 0.000000 0.000000 0.000000 0.477432
    12 16.525253 0.000000 0.000000 -0.168820 0.119160 -1.282172
    13 -3.882639 -0.054686 0.292985 -1.687438 0.108406 -1.860563
    14 17.848173 0.000000 0.000000 0.000000 0.000000 0.577925
    15 16.525257 0.000000 0.000000 0.216733 0.042971 -1.042140
  time 8
    0 13.321918 -13.946270 36.496542 1.570796 0.000000 -0.000042
    1 -0.320317 3.122465 -3.196751 1.647284 0.151244 1.588713
    2 7.512659 0.109378 0.132817 -0.040183 -0.033497 0.199320
    3 10.690096 1.436674 -1.937610 -1.698733 1.125295 3.147430
    4 6.028143 0.000001 0.000000 1.349188 0.244004 -0.884536
    5 11.692552 0.000000 0.000002 0.000000 0.000000 -0.758880
    6 10.693996 1.436668 1.937660 1.566131 -1.103066 3.215379
    7 6.028142 0.000001 0.000000 -1.186745 -0.076148 -0.810863
    8 11.692555 0.000000 0.000000 0.000000 0.000000 -0.180785
    9 15.012447 2.947827 -0.007813 3.154187 0.025767 0.330081
    10 3.878733 0.089843 -0.300793 -2.128501 -0.290144 -1.219655
    11 17.848177 0.000000 0.000000 0.000000 0.000000 0.541855
    12 16.525253 0.000000 0.000000 -0.102256 0.127013 -1.161868
    13 -3.878733 -0.089843 0.300797 -1.685443 0.006036 -1.885133
    14 17.848173 0.000000 0.000000 0.000000 0.000000 0.793686
    15 16.525257 0.000000 0.000000 0.222963 0.057246 -0.932543
  time 9
    0 14.996729 -15.617287 36.773894 1.570796 0.000000 -0.000042
    1 -0.355475 3.118558 -3.196751 1.650259 0.151197 1.598325
    2 7.512659 0.121098 0.175787 -0.053835 -0.044703 0.202050
    3 10.686190 1.440580 -1.937610 -1.689118 1.121573 3.160044
    4 6.028143 0.000001 0.000000 1.346763 0.206224 -0.877546
    5 11.692552 0.000000 0.000002 0.000000 0.000000 -0.716834
    6 10.690089 1.440574 1.937660 1.558124 -1.107271 3.226499
    7 6.028142 0.000001 0.000000 -1.181893 -0.123818 -0.824469
    8 11.692555 0.000000 0.000000 0.000000 0.000000 -0.195800
    9 15.004634 2.963453 -0.003906 3.162441 0.026606 0.341444
    10 3.878733 0.121093 -0.312513 -2.123195 -0.249612 -1.267516
    11 17.848177 0.000000 0.000000 0.000000 0.000000 0.551665
    12 16.525253 0.000000 0.000000 -0.073894 0.118062 -1.177530
    13 -3.878733 -0.121094 0.312517 -1.684808 -0.065824 -1.899664
    14 17.848173 0.000000 0.000000 0.000000 0.000000 0.918591
    15 16.525257 0.000000 0.000000 0.209074 0.021397 -0.856700
  time 10
    0 16.655914 -17.276584 37.160625 1.570796 0.000000 -0.000042
    1 -0.378913 3.118558 -3.196751 1.653673 0.151057 1.604760
    2 7.508752 0.128910 0.199225 -0.065563 -0.049736 0.204421
    3 10.686190 1.444487 -1.937610 -1.678796 1.117400 3.172719
    4 6.028143 0.000001 0.000000 1.348017 0.166186 -0.867946
    5 11.692552 0.000000 0.000002 0.000000 0.000000 -0.656852
    6 10.690089 1.440574 1.937660 1.549258 -1.111910 3.237716
    7 6.028142 0.000001 0.000000 -1.174219 -0.173451 -0.837838
    8 11.692555 0.000000 0.000000 0.000000 0.000000 -0.225002
    9 15.000727 2.971266 -0.003906 3.169707 0.026114 0.344559
    10 3.874826 0.136719 -0.324232 -2.115876 -0.184394 -1.329701
    11 17.848177 0.000000 0.000000 0.000000 0.000000 0.512965
    12 16.525253 0.000000 0.000000 -0.057984 0.107788 -1.224422
    13 -3.874826 -0.136719 0.324236 -1.687166 -0.154644 -1.856247
    14 17.848173 0.000000 0.000000 0.000000 0.000000 1.016894
    15 16.525257 0.000000 0.000000 0.166052 0.012490 -0.850031
  time 11
    0 18.283849 -18.900724 37.539542 1.570796 0.000000 -0.000042
    1 -0.390632 3.118558 -3.196751 1.657344 0.150824 1.607972
    2 7.508752 0.132817 0.199225 -0.074760 -0.048849 0.205500
    3 10.686190 1.444487 -1.937610 -1.668356 1.112936 3.184489
    4 6.028143 0.000001 0.000000 1.351194 0.125410 -0.857601
    5 11.692552 0.000000 0.000002 0.000000 0.000000 -0.579805
    6 10.686183 1.440574 1.937660 1.539630 -1.116744 3.248548
    7 6.028142 0.000001 0.000000 -1.163970 -0.221952 -0.850851
    8 11.692555 0.000000 0.000000 0.000000 0.000000 -0.274023
    9 15.000727 2.971266 0.000000 3.175490 0.024053 0.343957
    10 3.874826 0.136719 -0.335951 -2.109929 -0.104542 -1.399176
    11 17.848177 0.000000 0.000000 0.000000 0.000000 0.434948
    12 16.525253 0.000000 0.000000 -0.042697 0.097840 -1.248637
    13 -3.874826 -0.136719 0.335955 -1.691520 -0.228383 -1.765363
    14 17.848173 0.000000 0.000000 0.000000 0.000000 1.049062
    15 16.525257 0.000000 0.000000 0.108696 0.033802 -0.940917
  time 12
    0 19.857094 -20.458456 37.797363 1.570796 0.000000 -0.000042
    1 -0.390632 3.118558 -3.192845 1.661079 0.150543 1.608955
    2 7.508752 0.132817 0.183599 -0.081141 -0.043936 0.204717
    3 10.686190 1.444487 -1.937610 -1.658151 1.108370 3.195655
    4 6.028143 0.000001 0.000000 1.354622 0.086663 -0.848560
    5 11.692552 0.000000 0.000002 0.000000 0.000000 -0.499926
    6 10.686183 1.440574 1.937660 1.529906 -1.121578 3.259189
    7 6.028142 0.000001 0.000000 -1.151791 -0.267131 -0.862757
    8 11.692555 0.000000 0.000000 0.000000 0.000000 -0.340686
    9 15.000727 2.971266 0.000000 3.179493 0.020685 0.342346
    10 3.874826 0.128906 -0.347670 -2.107642 -0.017913 -1.470796
    11 17.848177 0.000000 0.000000 0.000000 0.000000 0.334374
    12 16.525253 0.000000 0.000000 -0.028316 0.088462 -1.257734
    13 -3.874826 -0.128907 0.347674 -1.695511 -0.289578 -1.661005
    14 17.848173 0.000000 0.000000 0.000000 0.000000 1.016649
    15 16.525257 0.000000 0.000000 0.051928 0.023568 -1.050402
  time 13
    0 21.399089 -21.977124 37.895022 1.570796 0.000000 -0.000042
    1 -0.386726 3.118558 -3.192845 1.664686 0.150169 1.608236
    2 7.512659 0.128910 0.160161 -0.084217 -0.036181 0.203130
    3 10.686190 1.444487 -1.937610 -1.648773 1.103921 3.205674
    4 6.028143 0.000001 0.000000 1.359388 0.053351 -0.842315
    5 11.692552 0.000000 0.000002 0.000000 0.000000 -0.429341
    6 10.686183 1.440574 1.937660 1.520469 -1.126195 3.269064
    7 6.028142 0.000001 0.000000 -1.138126 -0.307592 -0.873040
    8 11.692555 0.000000 0.000000 0.000000 0.000000 -0.412454
    9 15.004634 2.967359 0.000000 3.181520 0.016467 0.339940
    10 3.874826 0.109374 -0.359389 -2.108740 0.040618 -1.524575
    11 17.848177 0.000000 0.000000 0.000000 0.000000 0.292971
    12 16.525253 0.000000 0.000000 -0.012539 0.080141 -1.262890
    13 -3.874826 -0.109375 0.359393 -1.698504 -0.338665 -1.557351
    14 17.848173 0.000000 0.000000 0.000000 0.000000 0.931851
    15 16.525257 0.000000 0.000000 0.029239 -0.025632 -1.136582
  time 14
    0 22.937177 -23.491886 37.844239 1.570796 0.000000 -0.000042
    1 -0.375006 3.122465 -3.192845 1.668009 0.149772 1.606390
    2 7.512659 0.128910 0.125004 -0.083728 -0.026750 0.200992
    3 10.690096 1.440580 -1.937610 -1.640633 1.099835 3.214124
    4 6.028143 0.000001 0.000000 1.367164 0.027826 -0.840265
    5 11.692552 0.000000 0.000002 0.000000 0.000000 -0.369359
    6 10.690089 1.440574 1.937660 1.511794 -1.130357 3.277787
    7 6.028142 0.000001 0.000000 -1.123520 -0.340731 -0.881188
    8 11.692555 0.000000 0.000000 0.000000 0.000000 -0.486248
    9 15.004634 2.963453 0.000000 3.181174 0.011745 0.336912
    10 3.874826 0.085936 -0.371108 -2.110752 0.082765 -1.568662
    11 17.848177 0.000000 0.000000 0.000000 0.000000 0.289109
    12 16.525253 0.000000 0.000000 0.003460 0.071027 -1.273845
    13 -3.874826 -0.085936 0.371112 -1.699592 -0.365372 -1.460478
    14 17.848173 0.000000 0.000000 0.000000 0.000000 0.802935
    15 16.525257 0.000000 0.000000 0.057641 -0.082572 -1.185860
  time 15
    0 24.506516 -25.037899 37.676265 1.570796 0.000000 -0.000042
    1 -0.363287 3.122465 -3.192845 1.670843 0.149352 1.604892
    2 7.512659 0.121098 0.093753 -0.079963 -0.018253 0.198622
    3 10.690096 1.440580 -1.937610 -1.634086 1.096418 3.220461
    4 6.028143 0.000001 0.000000 1.375274 0.012023 -0.841197
    5 11.692552 0.000000 0.000002 0.000000 0.000000 -0.319108
    6 10.690089 1.436668 1.937660 1.504644 -1.133803 3.284690
    7 6.028142 0.000001 0.000000 -1.109360 -0.362924 -0.886330
    8 11.692555 0.000000 0.000000 0.000000 0.000000 -0.563946
    9 15.008540 2.959546 0.000000 3.178356 0.006843 0.333453
    10 3.874826 0.062498 -0.378921 -2.113497 0.121187 -1.611376
    11 17.848177 0.000000 0.000000 0.000000 0.000000 0.295211
    12 16.525253 0.000000 0.000000 0.019414 0.060245 -1.283774
    13 -3.874826 -0.062498 0.378925 -1.695964 -0.311433 -1.381307
    14 17.848173 0.000000 0.000000 0.000000 0.000000 0.532580
    15 16.525257 0.000000 0.000000 0.121031 -0.114863 -1.144881
  time 16
    0 26.126638 -26.642507 37.391100 1.570796 0.000000 -0.000042
    1 -0.351568 3.126371 -3.192845 1.673059 0.148908 1.603945
    2 7.516565 0.117191 0.066408 -0.073266 -0.011146 0.196379
    3 10.690096 1.436674 -1.937610 -1.629485 1.093903 3.224505
    4 6.028143 0.000001 0.000000 1.382631 0.001887 -0.845111
    5 11.692552 0.000000 0.000002 0.000000 0.000000 -0.277789
    6 10.690089 1.436668 1.937660 1.499401 -1.136274 3.289195
    7 6.028142 0.000001 0.000000 -1.097032 -0.370397 -0.888980
    8 11.692555 0.000000 0.000000 0.000000 0.000000 -0.639768
    9 15.012447 2.951734 0.000000 3.173414 0.001965 0.329866
    10 3.870920 0.042966 -0.386734 -2.116882 0.158622 -1.654949
    11 17.848177 0.000000 0.000000 0.000000 0.000000 0.306334
    12 16.525253 0.000000 0.000000 0.035384 0.047063 -1.288835
    13 -3.870920 -0.042966 0.386738 -1.693969 -0.300243 -1.315962
    14 17.848173 0.000000 0.000000 0.000000 0.000000 0.390322
    15 16.525257 0.000000 0.000000 0.188117 -0.117959 -1.151921
  time 17
    0 27.793636 -28.293992 37.035621 1.570796 0.000000 -0.000042
    1 -0.339849 3.126371 -3.192845 1.674695 0.148534 1.602795
    2 7.516565 0.113285 0.042970 -0.064125 -0.004662 0.194686
    3 10.694003 1.436674 -1.937610 -1.627302 1.092565 3.225833
    4 6.028143 0.000001 0.000000 1.392748 -0.001062 -0.851542
    5 11.692552 0.000000 0.000002 0.000000 0.000000 -0.244530
    6 10.693996 1.432762 1.937660 1.496732 -1.137597 3.290921
    7 6.028142 0.000001 0.000000 -1.085842 -0.366736 -0.888585
    8 11.692555 0.000000 0.000000 0.000000 0.000000 -0.705755
    9 15.016353 2.943921 0.000000 3.166840 -0.002685 0.326515
    10 3.870920 0.023434 -0.390640 -2.120542 0.192061 -1.697835
    11 17.848177 0.000000 0.000000 0.000000 0.000000 0.325105
    12 16.525253 0.000000 0.000000 0.051249 0.030299 -1.278681
    13 -3.870920 -0.023435 0.390644 -1.692155 -0.279743 -1.280823
    14 17.848173 0.000000 0.000000 0.000000 0.000000 0.290218
    15 16.525257 0.000000 0.000000 0.220910 -0.109917 -1.158220
  time 18
    0 29.484072 -29.968915 36.723111 1.570796 0.000000 -0.000042
    1 -0.320317 3.130278 -3.192845 1.673471 0.148254 1.600374
    2 7.516565 0.109378 0.015625 -0.052944 0.002157 0.193881
    3 10.694003 1.432768 -1.937610 -1.627774 1.092608 3.224384
    4 6.028143 0.000001 0.000000 1.402029 0.011424 -0.858346
    5 11.692552 0.000000 0.000002 0.000000 0.000000 -0.218460
    6 10.693996 1.432762 1.937660 1.497208 -1.137553 3.289483
    7 6.028142 0.000001 0.000000 -1.078713 -0.354168 -0.883957
    8 11.692555 0.000000 0.000000 0.000000 0.000000 -0.753951
    9 15.016353 2.940015 0.000000 3.159081 -0.006915 0.323852
    10 3.874826 0.003902 -0.382827 -2.119444 0.185104 -1.717905
    11 17.848177 0.000000 0.000000 0.000000 0.000000 0.425524
    12 16.525253 0.000000 0.000000 0.064963 0.007352 -1.234448
    13 -3.874826 -0.003903 0.382831 -1.690885 -0.261079 -1.265764
    14 17.848173 0.000000 0.000000 0.000000 0.000000 0.215651
    15 16.525257 0.000000 0.000000 0.149076 -0.099622 -1.112981
  time 19
    0 31.190134 -31.659463 36.547325 1.570796 0.000000 -0.000042
    1 -0.292973 3.130278 -3.192845 1.671513 0.148090 1.595748
    2 7.516565 0.109378 -0.015625 -0.040125 0.011062 0.194474
    3 10.694003 1.432768 -1.937610 -1.630900 1.093990 3.220521
    4 6.028143 0.000001 0.000000 1.410641 0.036212 -0.865057
    5 11.692552 0.000000 0.000002 0.000000 0.000000 -0.199071
    6 10.697902 1.432762 1.937660 1.500640 -1.136188 3.285457
    7 6.028142 0.000001 0.000000 -1.074356 -0.335069 -0.876244
    8 11.692555 0.000000 0.000000 0.000000 0.000000 -0.779174
    9 15.016353 2.936108 0.000000 3.150530 -0.010558 0.322369
    10 3.874826 -0.019536 -0.375014 -2.114503 0.141116 -1.718163
    11 17.848177 0.000000 0.000000 0.000000 0.000000 0.600252
    12 16.525253 0.000000 0.000000 0.069712 -0.018525 -1.161227
    13 -3.874826 0.019535 0.375018 -1.692155 -0.289840 -1.269639
    14 17.848173 0.000000 0.000000 0.000000 0.000000 0.273275
    15 16.525257 0.000000 0.000000 0.009013 -0.055912 -1.082821
  time 20
    0 32.892290 -33.353918 36.516074 1.570796 0.000000 -0.000042
    1 -0.253909 3.134184 -3.192845 1.669130 0.148020 1.587994
    2 7.516565 0.109378 -0.066408 -0.026070 0.023058 0.196781
    3 10.694003 1.432768 -1.937610 -1.636268 1.096491 3.214908
    4 6.028143 0.000001 0.000000 1.417915 0.070997 -0.870836
    5 11.692552 0.000000 0.000002 0.000000 0.000000 -0.185637
    6 10.697902 1.432762 1.937660 1.506455 -1.133717 3.279417
    7 6.028142 0.000001 0.000000 -1.073217 -0.311329 -0.866277
    8 11.692555 0.000000 0.000000 0.000000 0.000000 -0.780225
    9 15.016353 2.940015 -0.003906 3.141634 -0.013411 0.322670
    10 3.874826 -0.054693 -0.363295 -2.110935 0.103547 -1.719020
    11 17.848177 0.000000 0.000000 0.000000 0.000000 0.738521
    12 16.525253 0.000000 0.000000 0.066135 -0.035064 -1.087814
    13 -3.874826 0.054693 0.363299 -1.695148 -0.338534 -1.297644
    14 17.848173 0.000000 0.000000 0.000000 0.000000 0.431657
    15 16.525257 0.000000 0.000000 -0.091223 0.018883 -1.120687
  time 21
    0 34.582726 -35.032748 36.633265 1.570796 0.000000 -0.000042
    1 -0.218752 3.134184 -3.192845 1.666386 0.148090 1.578802
    2 7.512659 0.113285 -0.113285 -0.011785 0.035450 0.200103
    3 10.690096 1.436674 -1.937610 -1.643464 1.099835 3.208450
    4 6.028143 0.000001 0.000000 1.422095 0.113201 -0.875682
    5 11.692552 0.000000 0.000002 0.000000 0.000000 -0.180844
    6 10.693996 1.436668 1.937660 1.514177 -1.130335 3.272611
    7 6.028142 0.000001 0.000000 -1.076188 -0.283474 -0.854253
    8 11.692555 0.000000 0.000000 0.000000 0.000000 -0.758830
    9 15.012447 2.947827 -0.003906 3.132885 -0.015292 0.332229
    10 3.874826 -0.089850 -0.355483 -2.108923 0.073608 -1.709500
    11 17.848177 0.000000 0.000000 0.000000 0.000000 0.820787
    12 16.525253 0.000000 0.000000 0.061297 -0.028860 -1.035189
    13 -3.874826 0.089850 0.355487 -1.696418 -0.339277 -1.341765
    14 17.848173 0.000000 0.000000 0.000000 0.000000 0.519238
    15 16.525257 0.000000 0.000000 -0.130531 0.083203 -1.159516
  time 22
    0 36.245818 -36.695951 36.891085 1.570796 0.000000 -0.000042
    1 -0.187501 3.138090 -3.196751 1.663359 0.148254 1.570389
    2 7.512659 0.121098 -0.152348 0.001610 0.044906 0.203278
    3 10.686190 1.440580 -1.937610 -1.652076 1.103790 3.201328
    4 6.028143 0.000001 0.000000 1.424353 0.159275 -0.879037
    5 11.692552 0.000000 0.000002 0.000000 0.000000 -0.195804
    6 10.693996 1.440574 1.937660 1.523042 -1.126260 3.265325
    7 6.028142 0.000001 0.000000 -1.083268 -0.251165 -0.840330
    8 11.692555 0.000000 0.000000 0.000000 0.000000 -0.716715
    9 15.004634 2.963453 -0.007813 3.124730 -0.016023 0.342690
    10 3.874826 -0.117195 -0.343763 -2.108191 0.038104 -1.677850
    11 17.848177 0.000000 0.000000 0.000000 0.000000 0.882197
    12 16.525253 0.000000 0.000000 0.059086 0.003202 -1.033011
    13 -3.874826 0.117195 0.343767 -1.695783 -0.302647 -1.391434
    14 17.848173 0.000000 0.000000 0.000000 0.000000 0.542402
    15 16.525257 0.000000 0.000000 -0.109735 0.081615 -1.211980
  time 23
    0 37.862034 -38.316185 37.262190 1.570796 0.000000 -0.000042
    1 -0.164063 3.138090 -3.196751 1.660178 0.148487 1.563689
    2 7.512659 0.132817 -0.175787 0.013394 0.050383 0.206029
    3 10.682283 1.444487 -1.937610 -1.661808 1.108152 3.192033
    4 6.028143 0.000001 0.000000 1.425272 0.205256 -0.880995
    5 11.692552 0.000000 0.000002 0.000000 0.000000 -0.224996
    6 10.690089 1.444481 1.937660 1.532671 -1.121708 3.256313
    7 6.028142 0.000001 0.000000 -1.093121 -0.213535 -0.825577
    8 11.692555 0.000000 0.000000 0.000000 0.000000 -0.656734
    9 15.000727 2.975172 -0.011719 3.117514 -0.015436 0.345504
    10 3.874826 -0.132821 -0.332044 -2.108648 -0.005345 -1.623470
    11 17.848177 0.000000 0.000000 0.000000 0.000000 0.921901
    12 16.525253 0.000000 0.000000 0.052630 0.059594 -1.072023
    13 -3.874826 0.132820 0.332048 -1.694150 -0.237519 -1.443746
    14 17.848173 0.000000 0.000000 0.000000 0.000000 0.507779
    15 16.525257 0.000000 0.000000 -0.073139 0.057648 -1.245660
  time 24
    0 39.415747 -39.889543 37.676265 1.570796 0.000000 -0.000042
    1 -0.160156 3.138090 -3.196751 1.656932 0.148791 1.561963
    2 7.512659 0.136723 -0.167974 0.022333 0.047387 0.207256
    3 10.682283 1.444487 -1.937610 -1.672072 1.112674 3.180867
    4 6.028143 0.000001 0.000000 1.424185 0.248243 -0.883791
    5 11.692552 0.000000 0.000002 0.000000 0.000000 -0.274085
    6 10.690089 1.444481 1.937660 1.542490 -1.116874 3.245768
    7 6.028142 0.000001 0.000000 -1.104112 -0.170545 -0.809320
    8 11.692555 0.000000 0.000000 0.000000 0.000000 -0.579636
    9 15.000727 2.975172 -0.011719 3.111731 -0.013327 0.344967
    10 3.878733 -0.128914 -0.320325 -2.110752 -0.069127 -1.542244
    11 17.848177 0.000000 0.000000 0.000000 0.000000 0.948318
    12 16.525253 0.000000 0.000000 0.028438 0.131936 -1.129165
    13 -3.878733 0.128914 0.320329 -1.692427 -0.150447 -1.496145
    14 17.848173 0.000000 0.000000 0.000000 0.000000 0.422408
    15 16.525257 0.000000 0.000000 -0.038632 0.034948 -1.251402
  time 25
    0 40.930397 -41.431649 38.035651 1.570796 0.000000 -0.000042
    1 -0.171875 3.134184 -3.196751 1.653750 0.149141 1.565451
    2 7.512659 0.136723 -0.132817 0.027766 0.035942 0.206410
    3 10.682283 1.444487 -1.941516 -1.682512 1.117167 3.169279
    4 6.028143 0.000001 0.000000 1.420757 0.286714 -0.887892
    5 11.692552 0.000000 0.000002 0.000000 0.000000 -0.340821
    6 10.690089 1.444481 1.933754 1.551927 -1.111975 3.235223
    7 6.028142 0.000001 0.000000 -1.114707 -0.124309 -0.792194
    8 11.692555 0.000000 0.000000 0.000000 0.000000 -0.499761
    9 15.000727 2.975172 -0.011719 3.107728 -0.009815 0.343506
    10 3.878733 -0.101570 -0.308606 -2.114503 -0.133987 -1.457587
    11 17.848177 0.000000 0.000000 0.000000 0.000000 0.919120
    12 16.525253 0.000000 0.000000 -0.017867 0.189101 -1.172341
    13 -3.878733 0.101569 0.308610 -1.691520 -0.062196 -1.546607
    14 17.848173 0.000000 0.000000 0.000000 0.000000 0.327460
    15 16.525257 0.000000 0.000000 -0.005714 0.013475 -1.232877
  time 26
    0 42.425515 -42.962036 38.234876 1.570796 0.000000 -0.000042
    1 -0.191407 3.134184 -3.196751 1.650749 0.149492 1.569562
    2 7.512659 0.132817 -0.089846 0.030180 0.023250 0.204611
    3 10.682283 1.444487 -1.941516 -1.692539 1.121427 3.157751
    4 6.028143 0.000001 0.000000 1.415908 0.319888 -0.890781
    5 11.692552 0.000000 0.000002 0.000000 0.000000 -0.412422
    6 10.693996 1.440574 1.933754 1.560602 -1.107249 3.225061
    7 6.028142 0.000001 0.000000 -1.125402 -0.078450 -0.777441
    8 11.692555 0.000000 0.000000 0.000000 0.000000 -0.429495
    9 15.000727 2.971266 -0.015625 3.105751 -0.005441 0.341358
    10 3.878733 -0.070319 -0.300793 -2.119352 -0.192787 -1.378248
    11 17.848177 0.000000 0.000000 0.000000 0.000000 0.850140
    12 16.525253 0.000000 0.000000 -0.082235 0.221834 -1.212155
    13 -3.878733 0.070318 0.300797 -1.691339 0.029727 -1.596364
    14 17.848173 0.000000 0.000000 0.000000 0.000000 0.222200
    15 16.525257 0.000000 0.000000 0.025687 -0.008642 -1.205422
end
