// Created by Crowbar 0.74
version 1
nodes
  0 "ValveBiped.Bip01" -1
  1 "ValveBiped.Bip01_Spine" 0
  2 "ValveBiped.Bip01_Spine2" 1
  3 "ValveBiped.Bip01_R_Clavicle" 2
  4 "ValveBiped.Bip01_R_UpperArm" 3
  5 "ValveBiped.Bip01_R_Forearm" 4
  6 "ValveBiped.Bip01_L_Clavicle" 2
  7 "ValveBiped.Bip01_L_UpperArm" 6
  8 "ValveBiped.Bip01_L_Forearm" 7
  9 "ValveBiped.Bip01_Head1" 2
  10 "ValveBiped.Bip01_L_Thigh" 0
  11 "ValveBiped.Bip01_L_Calf" 10
  12 "ValveBiped.Bip01_L_Foot" 11
  13 "ValveBiped.Bip01_R_Thigh" 0
  14 "ValveBiped.Bip01_R_Calf" 13
  15 "ValveBiped.Bip01_R_Foot" 14
end
skeleton
  time 0
    0 -0.002349 -0.531261 36.934055 1.570796 0.000000 -0.000042
    1 0.078132 3.184967 -3.149875 1.565296 0.196803 1.556474
    2 7.516565 0.027345 -0.085940 -0.048288 0.030525 0.166518
    3 10.690096 1.432768 -1.941516 -1.692539 1.121427 3.150991
    4 6.028143 0.000001 0.000000 1.266833 0.075098 -0.802797
    5 11.692552 0.000000 0.000002 0.000000 0.000000 -0.360282
    6 10.701809 1.428855 1.933754 1.560602 -1.107249 3.218351
    7 6.028142 0.000001 0.000000 -1.191548 -0.122573 -0.879092
    8 11.692555 0.000000 0.000000 0.000000 0.000000 -0.340686
    9 15.020259 2.928295 -0.015625 3.171536 -0.022663 0.332702
    10 3.890452 -0.070319 0.023435 -1.681953 -0.458779 -1.500302
    11 17.848177 0.000000 0.000000 0.000000 0.000000 1.210488
    12 16.525253 0.000000 0.000000 0.057705 -0.024343 -1.196492
    13 -3.890452 0.070318 -0.023431 -1.468938 -0.212997 -1.549601
    14 17.848173 0.000000 0.000000 0.000000 0.000000 0.597488
    15 16.525257 0.000000 0.000000 -0.085528 -0.059712 -1.369224
  time 1
    0 0.024977 1.413662 37.113748 1.570796 0.000000 -0.000042
    1 0.070320 3.184967 -3.149875 1.562011 0.201359 1.556367
    2 7.516565 0.027345 -0.062502 -0.049984 0.024461 0.165375
    3 10.690096 1.432768 -1.941516 -1.701092 1.125019 3.141394
    4 6.028143 0.000001 0.000000 1.269425 0.053720 -0.815380
    5 11.692552 0.000000 0.000002 0.000000 0.000000 -0.319762
    6 10.701809 1.428855 1.933754 1.567752 -1.103218 3.210106
    7 6.028142 0.000001 0.000000 -1.191102 -0.129970 -0.866119
    8 11.692555 0.000000 0.000000 0.000000 0.000000 -0.387981
    9 15.024166 2.928295 -0.015625 3.173513 -0.018684 0.331391
    10 3.890452 -0.050787 0.035154 -1.675732 -0.323943 -1.485892
    11 17.848177 0.000000 0.000000 0.000000 0.000000 1.248493
    12 16.525253 0.000000 0.000000 -0.017556 0.032313 -1.166768
    13 -3.890452 0.050786 -0.035150 -1.467668 -0.265187 -1.550218
    14 17.848173 0.000000 0.000000 0.000000 0.000000 0.581936
    15 16.525257 0.000000 0.000000 -0.089491 -0.056917 -1.301495
  time 2
    0 0.083553 3.401556 37.211407 1.570796 0.000000 -0.000042
    1 0.070320 3.184967 -3.149875 1.559087 0.205798 1.554401
    2 7.516565 0.023438 -0.050783 -0.048432 0.020889 0.164126
    3 10.690096 1.428861 -1.941516 -1.708347 1.128029 3.133126
    4 6.028143 0.000001 0.000000 1.273271 0.037272 -0.827869
    5 11.692552 0.000000 0.000002 0.000000 0.000000 -0.285341
    6 10.701809 1.428855 1.933754 1.573662 -1.099749 3.203108
    7 6.028142 0.000001 0.000000 -1.188676 -0.133141 -0.853936
    8 11.692555 0.000000 0.000000 0.000000 0.000000 -0.437753
    9 15.024166 2.924389 -0.015625 3.173661 -0.013603 0.329845
    10 3.890452 -0.042974 0.042967 -1.671798 -0.181700 -1.472769
    11 17.848177 0.000000 0.000000 0.000000 0.000000 1.204077
    12 16.525253 0.000000 0.000000 -0.037755 0.105062 -1.095277
    13 -3.890452 0.042974 -0.042963 -1.466217 -0.313925 -1.551362
    14 17.848173 0.000000 0.000000 0.000000 0.000000 0.557463
    15 16.525257 0.000000 0.000000 -0.092936 -0.054504 -1.228209
  time 3
    0 0.165567 5.455858 37.246565 1.570796 0.000000 -0.000042
    1 0.066413 3.184967 -3.149875 1.556678 0.209653 1.553167
    2 7.516565 0.019532 -0.035157 -0.044235 0.016227 0.162920
    3 10.694003 1.428861 -1.941516 -1.713833 1.130326 3.126607
    4 6.028143 0.000001 0.000000 1.276280 0.026076 -0.840731
    5 11.692552 0.000000 0.000002 0.000000 0.000000 -0.256584
    6 10.705715 1.428855 1.933754 1.577952 -1.097127 3.197740
    7 6.028142 0.000001 0.000000 -1.185656 -0.130914 -0.842347
    8 11.692555 0.000000 0.000000 0.000000 0.000000 -0.487074
    9 15.024166 2.920483 -0.015625 3.172129 -0.007670 0.328148
    10 3.890452 -0.031255 0.046873 -1.670242 -0.061228 -1.477315
    11 17.848177 0.000000 0.000000 0.000000 0.000000 1.112928
    12 16.525253 0.000000 0.000000 -0.008547 0.115092 -1.005241
    13 -3.890452 0.031255 -0.046869 -1.464584 -0.356630 -1.552507
    14 17.848173 0.000000 0.000000 0.000000 0.000000 0.516946
    15 16.525257 0.000000 0.000000 -0.095900 -0.052433 -1.145030
  time 4
    0 0.278833 7.639071 37.246565 1.570796 0.000000 -0.000042
    1 0.058601 3.184967 -3.149875 1.554991 0.212434 1.553035
    2 7.516565 0.019532 -0.015625 -0.037883 0.010295 0.161925
    3 10.694003 1.428861 -1.941516 -1.717077 1.131736 3.122503
    4 6.028143 0.000001 0.000000 1.281631 0.017506 -0.853593
    5 11.692552 0.000000 0.000002 0.000000 0.000000 -0.232911
    6 10.705715 1.424949 1.933754 1.580431 -1.095501 3.194288
    7 6.028142 0.000001 0.000000 -1.181398 -0.125064 -0.831786
    8 11.692555 0.000000 0.000000 0.000000 0.000000 -0.531666
    9 15.028072 2.920483 -0.015625 3.169213 -0.001186 0.326451
    10 3.890452 -0.019536 0.050780 -1.670151 0.035815 -1.497300
    11 17.848177 0.000000 0.000000 0.000000 0.000000 0.964308
    12 16.525253 0.000000 0.000000 0.027399 0.086794 -0.894929
    13 -3.890452 0.019535 -0.050776 -1.463315 -0.387621 -1.552771
    14 17.848173 0.000000 0.000000 0.000000 0.000000 0.445899
    15 16.525257 0.000000 0.000000 -0.098560 -0.050604 -1.043029
  time 5
    0 0.419443 9.970725 37.230939 1.570796 0.000000 -0.000042
    1 0.046881 3.188873 -3.149875 1.554179 0.213438 1.554305
    2 7.516565 0.015626 0.000000 -0.029835 0.002960 0.161227
    3 10.694003 1.428861 -1.941516 -1.717608 1.132085 3.121537
    4 6.028143 0.000001 0.000000 1.288571 0.019948 -0.865430
    5 11.692552 0.000000 0.000002 0.000000 0.000000 -0.213885
    6 10.705715 1.424949 1.933754 1.580907 -1.095111 3.193426
    7 6.028142 0.000001 0.000000 -1.175605 -0.118119 -0.822254
    8 11.692555 0.000000 0.000000 0.000000 0.000000 -0.566949
    9 15.028072 2.916576 -0.011719 3.165110 0.005585 0.324883
    10 3.890452 -0.000004 0.054686 -1.670791 0.106330 -1.521573
    11 17.848177 0.000000 0.000000 0.000000 0.000000 0.807346
    12 16.525253 0.000000 0.000000 0.057839 0.059309 -0.845186
    13 -3.890452 0.000004 -0.054682 -1.463042 -0.394308 -1.551274
    14 17.848173 0.000000 0.000000 0.000000 0.000000 0.329670
    15 16.525257 0.000000 0.000000 -0.097828 -0.054384 -0.968631
  time 6
    0 0.579585 12.407851 37.184063 1.570796 0.000000 -0.000042
    1 0.027350 3.188873 -3.149875 1.554360 0.211709 1.557253
    2 7.516565 0.015626 0.027345 -0.020637 -0.005813 0.160952
    3 10.694003 1.428861 -1.937610 -1.715248 1.131344 3.123891
    4 6.028143 0.000001 0.000000 1.295427 0.032572 -0.875868
    5 11.692552 0.000000 0.000002 0.000000 0.000000 -0.199071
    6 10.705715 1.424949 1.937660 1.579096 -1.095999 3.195247
    7 6.028142 0.000001 0.000000 -1.169318 -0.111665 -0.813790
    8 11.692555 0.000000 0.000000 0.000000 0.000000 -0.589320
    9 15.028072 2.916576 -0.011719 3.160118 0.012392 0.323637
    10 3.890452 0.015621 0.050780 -1.671432 0.148388 -1.541301
    11 17.848177 0.000000 0.000000 0.000000 0.000000 0.693873
    12 16.525253 0.000000 0.000000 0.077801 0.054508 -0.953608
    13 -3.890452 -0.015622 -0.050776 -1.464312 -0.364017 -1.547840
    14 17.848173 0.000000 0.000000 0.000000 0.000000 0.173334
    15 16.525257 0.000000 0.000000 -0.088706 -0.068257 -0.981895
  time 7
    0 0.759258 14.891854 37.078591 1.570796 0.000000 -0.000042
    1 0.003911 3.188873 -3.149875 1.555429 0.208485 1.562059
    2 7.516565 0.011719 0.062502 -0.010779 -0.016155 0.161185
    3 10.694003 1.428861 -1.937610 -1.710471 1.129657 3.129082
    4 6.028143 0.000001 0.000000 1.300611 0.052890 -0.884536
    5 11.692552 0.000000 0.000002 0.000000 0.000000 -0.188251
    6 10.705715 1.424949 1.937660 1.575474 -1.097994 3.199369
    7 6.028142 0.000001 0.000000 -1.163277 -0.105060 -0.806473
    8 11.692555 0.000000 0.000000 0.000000 0.000000 -0.597278
    9 15.028072 2.916576 -0.011719 3.154435 0.018948 0.322885
    10 3.890452 0.039060 0.046873 -1.672164 0.189189 -1.558455
    11 17.848177 0.000000 0.000000 0.000000 0.000000 0.539151
    12 16.525253 0.000000 0.000000 0.082743 0.065270 -1.092715
    13 -3.890452 -0.039060 -0.046869 -1.464947 -0.349505 -1.549865
    14 17.848173 0.000000 0.000000 0.000000 0.000000 0.109327
    15 16.525257 0.000000 0.000000 -0.077245 -0.082552 -1.048438
  time 8
    0 0.942838 17.364137 36.894991 1.570796 0.000000 -0.000042
    1 -0.023433 3.188873 -3.149875 1.557271 0.205962 1.569322
    2 7.516565 0.011719 0.101566 -0.000805 -0.028751 0.161968
    3 10.697909 1.428861 -1.937610 -1.703746 1.127185 3.136687
    4 6.028143 0.000001 0.000000 1.302617 0.077540 -0.891527
    5 11.692552 0.000000 0.000002 0.000000 0.000000 -0.180990
    6 10.705715 1.424949 1.937660 1.570135 -1.100877 3.205601
    7 6.028142 0.000001 0.000000 -1.157881 -0.096379 -0.800263
    8 11.692555 0.000000 0.000000 0.000000 0.000000 -0.591197
    9 15.028072 2.916576 -0.007813 3.148306 0.024976 0.323787
    10 3.890452 0.070311 0.039061 -1.673170 0.231291 -1.572865
    11 17.848177 0.000000 0.000000 0.000000 0.000000 0.374851
    12 16.525253 0.000000 0.000000 0.070959 0.077191 -1.242840
    13 -3.890452 -0.070311 -0.039057 -1.463768 -0.376693 -1.556558
    14 17.848173 0.000000 0.000000 0.000000 0.000000 0.110472
    15 16.525257 0.000000 0.000000 -0.073139 -0.109314 -1.086156
  time 9
    0 1.122512 19.781732 36.715298 1.570796 0.000000 -0.000042
    1 -0.058591 3.184967 -3.149875 1.559718 0.205728 1.578382
    2 7.516565 0.015626 0.144536 0.008882 -0.042461 0.163259
    3 10.694003 1.428861 -1.937610 -1.695548 1.124074 3.146163
    4 6.028143 0.000001 0.000000 1.300945 0.103802 -0.896280
    5 11.692552 0.000000 0.000002 0.000000 0.000000 -0.183168
    6 10.701809 1.428855 1.937660 1.563557 -1.104453 3.213557
    7 6.028142 0.000001 0.000000 -1.153425 -0.084603 -0.795675
    8 11.692555 0.000000 0.000000 0.000000 0.000000 -0.572279
    9 15.028072 2.920483 -0.007813 3.141980 0.030153 0.328706
    10 3.890452 0.101562 0.027342 -1.674176 0.268636 -1.587103
    11 17.848177 0.000000 0.000000 0.000000 0.000000 0.202749
    12 16.525253 0.000000 0.000000 0.060199 0.084068 -1.344759
    13 -3.890452 -0.101562 -0.027338 -1.458870 -0.475348 -1.573819
    14 17.848173 0.000000 0.000000 0.000000 0.000000 0.292019
    15 16.525257 0.000000 0.000000 -0.070390 -0.138488 -1.173225
  time 10
    0 1.278748 22.086041 36.660609 1.570796 0.000000 -0.000042
    1 -0.089841 3.184967 -3.149875 1.562694 0.207130 1.586903
    2 7.512659 0.019532 0.183599 0.018338 -0.053763 0.164677
    3 10.694003 1.428861 -1.937610 -1.686405 1.120482 3.156846
    4 6.028143 0.000001 0.000000 1.298186 0.130386 -0.897212
    5 11.692552 0.000000 0.000002 0.000000 0.000000 -0.195658
    6 10.701809 1.428855 1.937660 1.555836 -1.108507 3.222856
    7 6.028142 0.000001 0.000000 -1.149662 -0.070147 -0.793736
    8 11.692555 0.000000 0.000000 0.000000 0.000000 -0.541500
    9 15.024166 2.924389 -0.003906 3.135653 0.034168 0.333324
    10 3.890452 0.128906 0.019529 -1.672438 0.197223 -1.590362
    11 17.848177 0.000000 0.000000 0.000000 0.000000 0.232952
    12 16.525253 0.000000 0.000000 0.060421 0.083762 -1.415289
    13 -3.890452 -0.128907 -0.019525 -1.453428 -0.557742 -1.592930
    14 17.848173 0.000000 0.000000 0.000000 0.000000 0.530615
    15 16.525257 0.000000 0.000000 -0.074496 -0.151155 -1.229283
  time 11
    0 1.399826 24.222377 36.680141 1.570796 0.000000 -0.000042
    1 -0.109373 3.184967 -3.149875 1.566017 0.209934 1.592189
    2 7.512659 0.023438 0.195318 0.027593 -0.058820 0.165840
    3 10.694003 1.432768 -1.937610 -1.676731 1.116527 3.167891
    4 6.028143 0.000001 0.000000 1.295343 0.155497 -0.893670
    5 11.692552 0.000000 0.000002 0.000000 0.000000 -0.218097
    6 10.697902 1.428855 1.937660 1.547351 -1.112864 3.232635
    7 6.028142 0.000001 0.000000 -1.145602 -0.052860 -0.795477
    8 11.692555 0.000000 0.000000 0.000000 0.000000 -0.500437
    9 15.024166 2.928295 -0.003906 3.129673 0.036661 0.333883
    10 3.890452 0.140625 0.007810 -1.670517 0.041874 -1.584787
    11 17.848177 0.000000 0.000000 0.000000 0.000000 0.429849
    12 16.525253 0.000000 0.000000 0.069000 0.078148 -1.456320
    13 -3.890452 -0.140626 -0.007806 -1.451795 -0.578505 -1.605963
    14 17.848173 0.000000 0.000000 0.000000 0.000000 0.730987
    15 16.525257 0.000000 0.000000 -0.065998 -0.147777 -1.236063
  time 12
    0 1.466215 26.190739 36.746549 1.570796 0.000000 -0.000042
    1 -0.117186 3.184967 -3.149875 1.569585 0.214233 1.594993
    2 7.512659 0.023438 0.195318 0.035929 -0.058988 0.166327
    3 10.697909 1.432768 -1.937610 -1.667058 1.112354 3.178755
    4 6.028143 0.000001 0.000000 1.292166 0.177796 -0.886587
    5 11.692552 0.000000 0.000002 0.000000 0.000000 -0.253317
    6 10.697902 1.428855 1.937660 1.538391 -1.117351 3.242701
    7 6.028142 0.000001 0.000000 -1.140453 -0.032667 -0.799946
    8 11.692555 0.000000 0.000000 0.000000 0.000000 -0.449464
    9 15.024166 2.928295 0.000000 3.124088 0.037320 0.333539
    10 3.890452 0.136719 -0.000003 -1.670608 -0.059522 -1.582814
    11 17.848177 0.000000 0.000000 0.000000 0.000000 0.520149
    12 16.525253 0.000000 0.000000 0.075782 0.073672 -1.444981
    13 -3.890452 -0.136719 0.000007 -1.452702 -0.566266 -1.617676
    14 17.848173 0.000000 0.000000 0.000000 0.000000 0.941673
    15 16.525257 0.000000 0.000000 -0.044398 -0.138448 -1.250291
  time 13
    0 1.481821 28.041910 36.883272 1.570796 0.000000 -0.000042
    1 -0.117186 3.184967 -3.149875 1.573231 0.219092 1.595988
    2 7.512659 0.023438 0.179693 0.042741 -0.055465 0.165989
    3 10.697909 1.432768 -1.937610 -1.657620 1.108137 3.189197
    4 6.028143 0.000001 0.000000 1.288404 0.197332 -0.876707
    5 11.692552 0.000000 0.000002 0.000000 0.000000 -0.298848
    6 10.697902 1.428855 1.937660 1.529430 -1.121838 3.252671
    7 6.028142 0.000001 0.000000 -1.134066 -0.010738 -0.806433
    8 11.692555 0.000000 0.000000 0.000000 0.000000 -0.398566
    9 15.024166 2.928295 0.000000 3.119343 0.036289 0.332745
    10 3.890452 0.128906 -0.011722 -1.671249 -0.133628 -1.581442
    11 17.848177 0.000000 0.000000 0.000000 0.000000 0.557767
    12 16.525253 0.000000 0.000000 0.080828 0.070275 -1.408403
    13 -3.890452 -0.128907 0.011726 -1.456512 -0.510753 -1.627980
    14 17.848173 0.000000 0.000000 0.000000 0.000000 1.114952
    15 16.525257 0.000000 0.000000 -0.022352 -0.119447 -1.257405
  time 14
    0 1.462270 29.838392 37.062965 1.570796 0.000000 -0.000042
    1 -0.109373 3.184967 -3.149875 1.576850 0.222854 1.595592
    2 7.512659 0.023438 0.152348 0.047455 -0.049077 0.165311
    3 10.697909 1.432768 -1.937610 -1.648950 1.104008 3.198733
    4 6.028143 0.000001 0.000000 1.284558 0.215024 -0.864498
    5 11.692552 0.000000 0.000002 0.000000 0.000000 -0.346993
    6 10.697902 1.428855 1.937660 1.520659 -1.126108 3.262161
    7 6.028142 0.000001 0.000000 -1.128570 0.010247 -0.814700
    8 11.692555 0.000000 0.000000 0.000000 0.000000 -0.353373
    9 15.024166 2.928295 0.000000 3.115784 0.033761 0.331585
    10 3.890452 0.109374 -0.023441 -1.672255 -0.191485 -1.580155
    11 17.848177 0.000000 0.000000 0.000000 0.000000 0.564256
    12 16.525253 0.000000 0.000000 0.084672 0.067630 -1.356931
    13 -3.890452 -0.109375 0.023445 -1.462861 -0.394265 -1.634409
    14 17.848173 0.000000 0.000000 0.000000 0.000000 1.176259
    15 16.525257 0.000000 0.000000 0.006104 -0.097049 -1.218761
  time 15
    0 1.403655 31.623154 37.184063 1.570796 0.000000 -0.000042
    1 -0.101561 3.184967 -3.149875 1.580264 0.224723 1.594178
    2 7.516565 0.023438 0.125004 0.049495 -0.040664 0.164359
    3 10.697909 1.428861 -1.937610 -1.641341 1.100184 3.207062
    4 6.028143 0.000001 0.000000 1.280628 0.230551 -0.850704
    5 11.692552 0.000000 0.000002 0.000000 0.000000 -0.396301
    6 10.697902 1.428855 1.937660 1.512556 -1.130010 3.270693
    7 6.028142 0.000001 0.000000 -1.126342 0.028817 -0.824390
    8 11.692555 0.000000 0.000000 0.000000 0.000000 -0.314411
    9 15.024166 2.928295 0.000000 3.113807 0.029866 0.330124
    10 3.890452 0.085936 -0.035160 -1.673444 -0.245483 -1.578183
    11 17.848177 0.000000 0.000000 0.000000 0.000000 0.563252
    12 16.525253 0.000000 0.000000 0.087670 0.065535 -1.301871
    13 -3.890452 -0.085936 0.035164 -1.467305 -0.277164 -1.640397
    14 17.848173 0.000000 0.000000 0.000000 0.000000 1.215957
    15 16.525257 0.000000 0.000000 0.028525 -0.052293 -1.181784
  time 16
    0 1.317696 33.458699 37.246565 1.570796 0.000000 -0.000042
    1 -0.089841 3.184967 -3.149875 1.583278 0.224793 1.592932
    2 7.516565 0.019532 0.093753 0.048633 -0.032298 0.163280
    3 10.697909 1.428861 -1.937610 -1.635029 1.096927 3.213761
    4 6.028143 0.000001 0.000000 1.276448 0.242392 -0.836816
    5 11.692552 0.000000 0.000002 0.000000 0.000000 -0.448295
    6 10.697902 1.428855 1.937660 1.505693 -1.133283 3.277883
    7 6.028142 0.000001 0.000000 -1.126144 0.044028 -0.834832
    8 11.692555 0.000000 0.000000 0.000000 0.000000 -0.281380
    9 15.024166 2.924389 0.000000 3.113610 0.024760 0.328470
    10 3.890452 0.066404 -0.042973 -1.674908 -0.296697 -1.575610
    11 17.848177 0.000000 0.000000 0.000000 0.000000 0.553751
    12 16.525253 0.000000 0.000000 0.090075 0.063846 -1.240982
    13 -3.890452 -0.066405 0.042977 -1.470026 -0.158446 -1.639693
    14 17.848173 0.000000 0.000000 0.000000 0.000000 1.188373
    15 16.525257 0.000000 0.000000 0.037718 -0.021369 -1.112647
  time 17
    0 1.208298 35.395810 37.270003 1.570796 0.000000 -0.000042
    1 -0.078122 3.184967 -3.149875 1.585712 0.221709 1.592153
    2 7.516565 0.019532 0.070315 0.044868 -0.024712 0.162243
    3 10.697909 1.428861 -1.937610 -1.630369 1.094397 3.218530
    4 6.028143 0.000001 0.000000 1.273271 0.249948 -0.824141
    5 11.692552 0.000000 0.000002 0.000000 0.000000 -0.499853
    6 10.697902 1.428855 1.937660 1.500449 -1.135798 3.283156
    7 6.028142 0.000001 0.000000 -1.127134 0.051123 -0.846026
    8 11.692555 0.000000 0.000000 0.000000 0.000000 -0.253754
    9 15.024166 2.920483 0.000000 3.115043 0.018744 0.326751
    10 3.890452 0.046872 -0.046879 -1.676555 -0.342525 -1.573036
    11 17.848177 0.000000 0.000000 0.000000 0.000000 0.526869
    12 16.525253 0.000000 0.000000 0.092137 0.062402 -1.168210
    13 -3.890452 -0.046873 0.046883 -1.471206 -0.058437 -1.634057
    14 17.848173 0.000000 0.000000 0.000000 0.000000 1.113806
    15 16.525257 0.000000 0.000000 0.018957 -0.029874 -1.018686
  time 18
    0 1.075462 37.485270 37.270003 1.570796 0.000000 -0.000042
    1 -0.066403 3.184967 -3.149875 1.587361 0.216662 1.591242
    2 7.516565 0.015626 0.042970 0.038717 -0.017378 0.161375
    3 10.697909 1.428861 -1.937610 -1.627715 1.092841 3.221125
    4 6.028143 0.000001 0.000000 1.270093 0.252482 -0.813236
    5 11.692552 0.000000 0.000002 0.000000 0.000000 -0.546619
    6 10.701809 1.428855 1.937660 1.497208 -1.137337 3.286128
    7 6.028142 0.000001 0.000000 -1.132482 0.051199 -0.857733
    8 11.692555 0.000000 0.000000 0.000000 0.000000 -0.231008
    9 15.028072 2.920483 0.000000 3.117910 0.012104 0.325119
    10 3.890452 0.027341 -0.050786 -1.677927 -0.378568 -1.571321
    11 17.848177 0.000000 0.000000 0.000000 0.000000 0.471639
    12 16.525253 0.000000 0.000000 0.094097 0.061039 -1.076764
    13 -3.890452 -0.027341 0.050790 -1.471296 0.024307 -1.620054
    14 17.848173 0.000000 0.000000 0.000000 0.000000 0.978015
    15 16.525257 0.000000 0.000000 -0.015283 -0.037615 -0.902495
  time 19
    0 0.930907 39.691920 37.234846 1.570796 0.000000 -0.000042
    1 -0.050778 3.188873 -3.149875 1.588095 0.210775 1.589612
    2 7.516565 0.015626 0.019532 0.030755 -0.009684 0.160804
    3 10.697909 1.428861 -1.937610 -1.627302 1.092419 3.221185
    4 6.028143 0.000001 0.000000 1.266415 0.250224 -0.803636
    5 11.692552 0.000000 0.000002 0.000000 0.000000 -0.583654
    6 10.701809 1.424949 1.937660 1.496636 -1.137748 3.286319
    7 6.028142 0.000001 0.000000 -1.140948 0.043461 -0.869599
    8 11.692555 0.000000 0.000000 0.000000 0.000000 -0.212691
    9 15.028072 2.916576 0.000000 3.121962 0.005165 0.323723
    10 3.890452 0.011715 -0.050786 -1.678842 -0.399530 -1.570635
    11 17.848177 0.000000 0.000000 0.000000 0.000000 0.392154
    12 16.525253 0.000000 0.000000 0.092523 0.064558 -1.026733
    13 -3.890452 -0.011715 0.050790 -1.470843 0.089611 -1.599975
    14 17.848173 0.000000 0.000000 0.000000 0.000000 0.827572
    15 16.525257 0.000000 0.000000 -0.049057 -0.031643 -0.849624
  time 20
    0 0.774633 41.984511 37.152812 1.570796 0.000000 -0.000042
    1 -0.035152 3.188873 -3.149875 1.587851 0.204700 1.586472
    2 7.516565 0.011719 -0.003906 0.021615 -0.000683 0.160698
    3 10.697909 1.428861 -1.937610 -1.629190 1.093219 3.218771
    4 6.028143 0.000001 0.000000 1.263154 0.243129 -0.795341
    5 11.692552 0.000000 0.000002 0.000000 0.000000 -0.607254
    6 10.701809 1.424949 1.937660 1.498734 -1.136968 3.283827
    7 6.028142 0.000001 0.000000 -1.150603 0.029761 -0.881149
    8 11.692555 0.000000 0.000000 0.000000 0.000000 -0.198502
    9 15.028072 2.916576 0.000000 3.126905 -0.001750 0.322820
    10 3.890452 -0.007817 -0.050786 -1.678842 -0.398408 -1.571321
    11 17.848177 0.000000 0.000000 0.000000 0.000000 0.285710
    12 16.525253 0.000000 0.000000 0.083737 0.075808 -1.061037
    13 -3.890452 0.007816 0.050790 -1.470299 0.134895 -1.581657
    14 17.848173 0.000000 0.000000 0.000000 0.000000 0.713635
    15 16.525257 0.000000 0.000000 -0.073675 -0.031865 -0.959294
  time 21
    0 0.618359 44.343510 36.992651 1.570796 0.000000 -0.000042
    1 -0.003901 3.188873 -3.149875 1.586730 0.198929 1.580492
    2 7.516565 0.011719 -0.042970 0.011957 0.011361 0.161227
    3 10.697909 1.428861 -1.937610 -1.633201 1.095051 3.214305
    4 6.028143 0.000001 0.000000 1.261231 0.231702 -0.787512
    5 11.692552 0.000000 0.000002 0.000000 0.000000 -0.615896
    6 10.701809 1.424949 1.937660 1.503119 -1.135147 3.279034
    7 6.028142 0.000001 0.000000 -1.159415 0.011417 -0.892421
    8 11.692555 0.000000 0.000000 0.000000 0.000000 -0.187992
    9 15.028072 2.916576 -0.003906 3.132490 -0.008389 0.322584
    10 3.890452 -0.035161 -0.042973 -1.678293 -0.386289 -1.571578
    11 17.848177 0.000000 0.000000 0.000000 0.000000 0.188613
    12 16.525253 0.000000 0.000000 0.074343 0.087282 -1.091754
    13 -3.890452 0.035161 0.042977 -1.469573 0.179655 -1.566334
    14 17.848173 0.000000 0.000000 0.000000 0.000000 0.559427
    15 16.525257 0.000000 0.000000 -0.083118 -0.046401 -1.102792
  time 22
    0 0.465992 46.745479 36.746549 1.570796 0.000000 -0.000042
    1 0.023443 3.188873 -3.149875 1.584849 0.193836 1.572498
    2 7.516565 0.011719 -0.085940 0.002156 0.025048 0.162391
    3 10.697909 1.428861 -1.937610 -1.638922 1.097741 3.208148
    4 6.028143 0.000001 0.000000 1.260980 0.216590 -0.780615
    5 11.692552 0.000000 0.000002 0.000000 0.000000 -0.609796
    6 10.701809 1.424949 1.937660 1.509410 -1.132459 3.272515
    7 6.028142 0.000001 0.000000 -1.166545 -0.010323 -0.902468
    8 11.692555 0.000000 0.000000 0.000000 0.000000 -0.181011
    9 15.028072 2.916576 -0.003906 3.138619 -0.014429 0.324389
    10 3.890452 -0.066412 -0.035160 -1.678385 -0.387635 -1.570377
    11 17.848177 0.000000 0.000000 0.000000 0.000000 0.104879
    12 16.525253 0.000000 0.000000 0.071790 0.112427 -1.070326
    13 -3.890452 0.066412 0.035164 -1.468757 0.218776 -1.554181
    14 17.848173 0.000000 0.000000 0.000000 0.000000 0.407265
    15 16.525257 0.000000 0.000000 -0.073514 -0.063271 -1.262369
  time 23
    0 0.321437 49.155260 36.504354 1.570796 0.000000 -0.000042
    1 0.058601 3.184967 -3.149875 1.582337 0.189841 1.563845
    2 7.516565 0.015626 -0.128910 -0.007617 0.038171 0.164084
    3 10.694003 1.428861 -1.937610 -1.646118 1.101071 3.200906
    4 6.028143 0.000001 0.000000 1.262485 0.198529 -0.775489
    5 11.692552 0.000000 0.000002 0.000000 0.000000 -0.590262
    6 10.701809 1.428855 1.937660 1.516941 -1.129078 3.264941
    7 6.028142 0.000001 0.000000 -1.171645 -0.034139 -0.909864
    8 11.692555 0.000000 0.000000 0.000000 0.000000 -0.182812
    9 15.024166 2.920483 -0.007813 3.144994 -0.019559 0.329974
    10 3.890452 -0.097663 -0.027348 -1.682044 -0.462549 -1.559227
    11 17.848177 0.000000 0.000000 0.000000 0.000000 0.194947
    12 16.525253 0.000000 0.000000 0.077667 0.139667 -1.088679
    13 -3.890452 0.097663 0.027352 -1.468394 0.234642 -1.544053
    14 17.848173 0.000000 0.000000 0.000000 0.000000 0.281869
    15 16.525257 0.000000 0.000000 -0.062000 -0.074671 -1.390009
  time 24
    0 0.192507 51.494727 36.426227 1.570796 0.000000 -0.000042
    1 0.085945 3.184967 -3.149875 1.579336 0.187458 1.556307
    2 7.512659 0.023438 -0.160161 -0.017274 0.048046 0.165819
    3 10.694003 1.432768 -1.937610 -1.654494 1.104866 3.192516
    4 6.028143 0.000001 0.000000 1.265077 0.177474 -0.773345
    5 11.692552 0.000000 0.000002 0.000000 0.000000 -0.558383
    6 10.701809 1.428855 1.937660 1.525426 -1.125154 3.256601
    7 6.028142 0.000001 0.000000 -1.176447 -0.057918 -0.912989
    8 11.692555 0.000000 0.000000 0.000000 0.000000 -0.194674
    9 15.024166 2.928295 -0.007813 3.151321 -0.023490 0.334184
    10 3.890452 -0.121101 -0.015628 -1.688997 -0.567626 -1.540014
    11 17.848177 0.000000 0.000000 0.000000 0.000000 0.439119
    12 16.525253 0.000000 0.000000 0.098015 0.147804 -1.125225
    13 -3.890452 0.121101 0.015632 -1.469936 0.157930 -1.542380
    14 17.848173 0.000000 0.000000 0.000000 0.000000 0.320749
    15 16.525257 0.000000 0.000000 -0.060465 -0.076581 -1.464000
  time 25
    0 0.090922 53.607625 36.449665 1.570796 0.000000 -0.000042
    1 0.105477 3.184967 -3.149875 1.576026 0.187388 1.550566
    2 7.512659 0.027345 -0.175787 -0.026443 0.053895 0.167258
    3 10.694003 1.432768 -1.937610 -1.663637 1.108952 3.182919
    4 6.028143 0.000001 0.000000 1.267752 0.153193 -0.774370
    5 11.692552 0.000000 0.000002 0.000000 0.000000 -0.515684
    6 10.701809 1.428855 1.937660 1.534482 -1.120862 3.247302
    7 6.028142 0.000001 0.000000 -1.180854 -0.079356 -0.911644
    8 11.692555 0.000000 0.000000 0.000000 0.000000 -0.215919
    9 15.020259 2.928295 -0.011719 3.157450 -0.025935 0.334807
    10 3.890452 -0.136727 -0.007816 -1.693023 -0.616686 -1.524318
    11 17.848177 0.000000 0.000000 0.000000 0.000000 0.670777
    12 16.525253 0.000000 0.000000 0.134584 0.118367 -1.133297
    13 -3.890452 0.136727 0.007820 -1.471206 0.020242 -1.546607
    14 17.848173 0.000000 0.000000 0.000000 0.000000 0.481341
    15 16.525257 0.000000 0.000000 -0.068516 -0.071293 -1.486638
  time 26
    0 0.024495 55.556455 36.531699 1.570796 0.000000 -0.000042
    1 0.105477 3.184967 -3.149875 1.572509 0.189257 1.549559
    2 7.512659 0.031251 -0.164068 -0.035153 0.051534 0.167851
    3 10.690096 1.432768 -1.937610 -1.673192 1.113154 3.172417
    4 6.028143 0.000001 0.000000 1.268756 0.126977 -0.780056
    5 11.692552 0.000000 0.000002 0.000000 0.000000 -0.462600
    6 10.701809 1.428855 1.937660 1.543538 -1.116354 3.237428
    7 6.028142 0.000001 0.000000 -1.185211 -0.097209 -0.904762
    8 11.692555 0.000000 0.000000 0.000000 0.000000 -0.249400
    9 15.020259 2.932202 -0.011719 3.163035 -0.026594 0.334506
    10 3.890452 -0.125008 -0.000003 -1.694212 -0.630466 -1.511195
    11 17.848177 0.000000 0.000000 0.000000 0.000000 0.924295
    12 16.525253 0.000000 0.000000 0.155006 0.055993 -1.168242
    13 -3.890452 0.125007 0.000007 -1.470933 -0.076183 -1.548104
    14 17.848173 0.000000 0.000000 0.000000 0.000000 0.561801
    15 16.525257 0.000000 0.000000 -0.075246 -0.066769 -1.470484
  time 27
    0 -0.002869 57.474034 36.699673 1.570796 0.000000 -0.000042
    1 0.093758 3.184967 -3.149875 1.568941 0.192528 1.552819
    2 7.516565 0.031251 -0.128910 -0.042827 0.041838 0.167407
    3 10.690096 1.432768 -1.941516 -1.682866 1.117312 3.161795
    4 6.028143 0.000001 0.000000 1.267585 0.100577 -0.790122
    5 11.692552 0.000000 0.000002 0.000000 0.000000 -0.409299
    6 10.701809 1.428855 1.933754 1.552213 -1.111823 3.227746
    7 6.028142 0.000001 0.000000 -1.189122 -0.111363 -0.893252
    8 11.692555 0.000000 0.000000 0.000000 0.000000 -0.292866
    9 15.020259 2.932202 -0.015625 3.167829 -0.025443 0.333797
    10 3.890452 -0.101570 0.011716 -1.690553 -0.587106 -1.504333
    11 17.848177 0.000000 0.000000 0.000000 0.000000 1.129767
    12 16.525253 0.000000 0.000000 0.126436 -0.002616 -1.202033
    13 -3.890452 0.101569 -0.011712 -1.470117 -0.151584 -1.549073
    14 17.848173 0.000000 0.000000 0.000000 0.000000 0.597406
    15 16.525257 0.000000 0.000000 -0.080744 -0.063029 -1.430543
  time 28
    0 -0.002888 59.395519 36.934055 1.570796 0.000000 -0.000042
    1 0.078132 3.184967 -3.149875 1.565296 0.196803 1.556474
    2 7.516565 0.027345 -0.085940 -0.048288 0.030525 0.166518
    3 10.690096 1.432768 -1.941516 -1.692539 1.121427 3.150991
    4 6.028143 0.000001 0.000000 1.266833 0.075098 -0.802797
    5 11.692552 0.000000 0.000002 0.000000 0.000000 -0.360282
    6 10.701809 1.428855 1.933754 1.560602 -1.107249 3.218351
    7 6.028142 0.000001 0.000000 -1.191548 -0.122573 -0.879092
    8 11.692555 0.000000 0.000000 0.000000 0.000000 -0.340686
    9 15.020259 2.928295 -0.015625 3.171536 -0.022663 0.332702
    10 3.890452 -0.070319 0.023435 -1.681953 -0.458779 -1.500302
    11 17.848177 0.000000 0.000000 0.000000 0.000000 1.210488
    12 16.525253 0.000000 0.000000 0.057705 -0.024343 -1.196492
    13 -3.890452 0.070318 -0.023431 -1.468938 -0.212997 -1.549601
    14 17.848173 0.000000 0.000000 0.000000 0.000000 0.597488
    15 16.525257 0.000000 0.000000 -0.085528 -0.059712 -1.369224
end
