// Created by Crowbar 0.74
version 1
nodes
  0 "ValveBiped.Bip01" -1
  1 "ValveBiped.Bip01_Spine" 0
  2 "ValveBiped.Bip01_Spine2" 1
  3 "ValveBiped.Bip01_R_Clavicle" 2
  4 "ValveBiped.Bip01_R_UpperArm" 3
  5 "ValveBiped.Bip01_R_Forearm" 4
  6 "ValveBiped.Bip01_L_Clavicle" 2
  7 "ValveBiped.Bip01_L_UpperArm" 6
  8 "ValveBiped.Bip01_L_Forearm" 7
  9 "ValveBiped.Bip01_Head1" 2
  10 "ValveBiped.Bip01_L_Thigh" 0
  11 "ValveBiped.Bip01_L_Calf" 10
  12 "ValveBiped.Bip01_L_Foot" 11
  13 "ValveBiped.Bip01_R_Thigh" 0
  14 "ValveBiped.Bip01_R_Calf" 13
  15 "ValveBiped.Bip01_R_Foot" 14
end
skeleton
  time 0
    0 -0.002349 -0.531261 37.945805 1.570796 0.000000 -0.000042
    1 0.609399 3.255281 -3.017058 1.420397 0.114750 1.522031
    2 7.516565 0.136723 -0.042970 0.122560 0.041155 0.206452
    3 10.682283 1.444487 -1.941516 -1.692539 1.121427 3.157751
    4 6.028143 0.000001 0.000000 1.266331 0.367113 -0.822743
    5 11.692552 0.000000 0.000002 0.000000 0.000000 -0.412422
    6 10.693996 1.440574 1.933754 1.560602 -1.107249 3.225061
    7 6.028142 0.000001 0.000000 -1.257397 -0.065278 -0.853026
    8 11.692555 0.000000 0.000000 0.000000 0.000000 -0.429495
    9 15.000727 2.971266 -0.015625 3.105652 -0.005393 0.300889
    10 3.827950 -0.066412 0.699237 -1.375563 -0.609055 -1.458359
    11 17.848177 0.000000 0.000000 0.000000 0.000000 0.956275
    12 16.525253 0.000000 0.000000 -0.210405 0.175654 -0.709860
    13 -3.827950 0.066412 -0.699233 -0.821147 0.011150 -1.612304
    14 17.848173 0.000000 0.000000 0.000000 0.000000 0.338428
    15 16.525257 0.000000 0.000000 0.102537 0.058271 -1.254181
  time 1
    0 -1.771843 -0.574238 38.039558 1.570796 0.000000 -0.000042
    1 0.605492 3.259188 -3.017058 1.417241 0.113956 1.522151
    2 7.516565 0.132817 -0.019532 0.122474 0.034588 0.204188
    3 10.682283 1.440580 -1.941516 -1.701682 1.125266 3.147007
    4 6.028143 0.000001 0.000000 1.259559 0.395725 -0.826098
    5 11.692552 0.000000 0.000002 0.000000 0.000000 -0.486056
    6 10.693996 1.440574 1.933754 1.568324 -1.102914 3.215762
    7 6.028142 0.000001 0.000000 -1.270518 -0.025081 -0.848241
    8 11.692555 0.000000 0.000000 0.000000 0.000000 -0.369438
    9 15.004634 2.967359 -0.015625 3.105998 -0.000611 0.298118
    10 3.827950 -0.050787 0.710956 -1.364127 -0.636346 -1.549878
    11 17.848177 0.000000 0.000000 0.000000 0.000000 0.996133
    12 16.525253 0.000000 0.000000 -0.172678 0.225639 -0.690609
    13 -3.827950 0.050786 -0.710952 -0.786136 0.023215 -1.556911
    14 17.848173 0.000000 0.000000 0.000000 0.000000 0.310026
    15 16.525257 0.000000 0.000000 0.058051 0.047997 -1.247734
  time 2
    0 -3.517899 -0.671904 38.078621 1.570796 0.000000 -0.000042
    1 0.601586 3.259188 -3.013152 1.414574 0.113115 1.520497
    2 7.516565 0.125004 -0.007813 0.119398 0.030992 0.201669
    3 10.682283 1.440580 -1.941516 -1.709350 1.128450 3.137532
    4 6.028143 0.000001 0.000000 1.252201 0.413786 -0.827217
    5 11.692552 0.000000 0.000002 0.000000 0.000000 -0.563756
    6 10.693996 1.436668 1.933754 1.574425 -1.099294 3.207806
    7 6.028142 0.000001 0.000000 -1.282796 0.009039 -0.847370
    8 11.692555 0.000000 0.000000 0.000000 0.000000 -0.319216
    9 15.008540 2.959546 -0.015625 3.108815 0.004243 0.294874
    10 3.824044 -0.042974 0.718769 -1.349489 -0.636705 -1.641311
    11 17.848177 0.000000 0.000000 0.000000 0.000000 1.000227
    12 16.525253 0.000000 0.000000 -0.138959 0.275196 -0.689072
    13 -3.824044 0.042974 -0.718765 -0.737882 0.037945 -1.502310
    14 17.848173 0.000000 0.000000 0.000000 0.000000 0.279168
    15 16.525257 0.000000 0.000000 0.009852 0.025076 -1.233840
  time 3
    0 -5.252236 -0.812541 38.031745 1.570796 0.000000 -0.000042
    1 0.597679 3.263094 -3.013152 1.412578 0.112320 1.519718
    2 7.516565 0.121098 0.007813 0.113132 0.026702 0.199320
    3 10.686190 1.436674 -1.941516 -1.714836 1.130748 3.130349
    4 6.028143 0.000001 0.000000 1.244425 0.418439 -0.828708
    5 11.692552 0.000000 0.000002 0.000000 0.000000 -0.639569
    6 10.697902 1.436668 1.933754 1.578715 -1.096650 3.201670
    7 6.028142 0.000001 0.000000 -1.293292 0.028930 -0.848834
    8 11.692555 0.000000 0.000000 0.000000 0.000000 -0.277927
    9 15.012447 2.951734 -0.015625 3.113659 0.008988 0.291351
    10 3.824044 -0.027349 0.722675 -1.333570 -0.614756 -1.728884
    11 17.848177 0.000000 0.000000 0.000000 0.000000 0.976049
    12 16.525253 0.000000 0.000000 -0.112244 0.316391 -0.706336
    13 -3.824044 0.027348 -0.722671 -0.678564 0.049048 -1.453697
    14 17.848173 0.000000 0.000000 0.000000 0.000000 0.263043
    15 16.525257 0.000000 0.000000 -0.041953 -0.007416 -1.220873
  time 4
    0 -6.970947 -0.976615 37.902835 1.570796 0.000000 -0.000042
    1 0.585960 3.263094 -3.013152 1.411406 0.111596 1.520197
    2 7.516565 0.117191 0.027345 0.104136 0.021381 0.197458
    3 10.686190 1.436674 -1.941516 -1.717549 1.131969 3.126185
    4 6.028143 0.000001 0.000000 1.235563 0.412035 -0.829826
    5 11.692552 0.000000 0.000002 0.000000 0.000000 -0.705578
    6 10.697902 1.432762 1.933754 1.580812 -1.095241 3.198123
    7 6.028142 0.000001 0.000000 -1.304779 0.033308 -0.852473
    8 11.692555 0.000000 0.000000 0.000000 0.000000 -0.244596
    9 15.016353 2.943921 -0.015625 3.120183 0.013471 0.287893
    10 3.824044 -0.011723 0.726582 -1.317926 -0.573461 -1.809081
    11 17.848177 0.000000 0.000000 0.000000 0.000000 0.926226
    12 16.525253 0.000000 0.000000 -0.091896 0.337304 -0.738142
    13 -3.824044 0.011723 -0.726578 -0.617884 0.054468 -1.412834
    14 17.848173 0.000000 0.000000 0.000000 0.000000 0.267054
    15 16.525257 0.000000 0.000000 -0.093936 -0.039646 -1.211091
  time 5
    0 -8.681846 -1.152409 37.734861 1.570796 0.000000 -0.000042
    1 0.570335 3.267000 -3.013152 1.411225 0.111035 1.522282
    2 7.516565 0.113285 0.054689 0.092983 0.014765 0.196230
    3 10.690096 1.432768 -1.941516 -1.717018 1.131925 3.125943
    4 6.028143 0.000001 0.000000 1.226366 0.396785 -0.828801
    5 11.692552 0.000000 0.000002 0.000000 0.000000 -0.753869
    6 10.697902 1.432762 1.933754 1.580431 -1.095306 3.197740
    7 6.028142 0.000001 0.000000 -1.315226 0.020815 -0.857812
    8 11.692555 0.000000 0.000000 0.000000 0.000000 -0.218546
    9 15.016353 2.940015 -0.011719 3.127943 0.017545 0.284907
    10 3.824044 0.003902 0.726582 -1.304386 -0.511878 -1.877613
    11 17.848177 0.000000 0.000000 0.000000 0.000000 0.844192
    12 16.525253 0.000000 0.000000 -0.067542 0.314662 -0.767802
    13 -3.824044 -0.003903 -0.726578 -0.564189 0.058795 -1.372500
    14 17.848173 0.000000 0.000000 0.000000 0.000000 0.271965
    15 16.525257 0.000000 0.000000 -0.142028 -0.063653 -1.191862
  time 6
    0 -10.381025 -1.324296 37.566887 1.570796 0.000000 -0.000042
    1 0.546897 3.270907 -3.013152 1.412037 0.110638 1.526189
    2 7.516565 0.109378 0.089846 0.080279 0.006747 0.195807
    3 10.690096 1.432768 -1.937610 -1.713302 1.130675 3.129685
    4 6.028143 0.000001 0.000000 1.218005 0.374162 -0.824980
    5 11.692552 0.000000 0.000002 0.000000 0.000000 -0.779140
    6 10.697902 1.432762 1.937660 1.577571 -1.096823 3.200616
    7 6.028142 0.000001 0.000000 -1.322504 -0.005228 -0.864734
    8 11.692555 0.000000 0.000000 0.000000 0.000000 -0.199103
    9 15.016353 2.936108 -0.011719 3.136394 0.021057 0.282738
    10 3.824044 0.027341 0.722675 -1.293499 -0.428750 -1.928647
    11 17.848177 0.000000 0.000000 0.000000 0.000000 0.721681
    12 16.525253 0.000000 0.000000 -0.010358 0.203566 -0.766649
    13 -3.824044 -0.027341 -0.722671 -0.521196 0.066794 -1.324944
    14 17.848173 0.000000 0.000000 0.000000 0.000000 0.258460
    15 16.525257 0.000000 0.000000 -0.181872 -0.077063 -1.148216
  time 7
    0 -12.076298 -1.468838 37.430164 1.570796 0.000000 -0.000042
    1 0.515646 3.274813 -3.013152 1.413673 0.110451 1.532493
    2 7.512659 0.109378 0.128910 0.066482 -0.003308 0.196273
    3 10.690096 1.432768 -1.937610 -1.706991 1.128392 3.136807
    4 6.028143 0.000001 0.000000 1.211734 0.345735 -0.818269
    5 11.692552 0.000000 0.000002 0.000000 0.000000 -0.780229
    6 10.697902 1.432762 1.937660 1.572709 -1.099489 3.206368
    7 6.028142 0.000001 0.000000 -1.325771 -0.041990 -0.872605
    8 11.692555 0.000000 0.000000 0.000000 0.000000 -0.185740
    9 15.016353 2.940015 -0.007813 3.145291 0.023873 0.282093
    10 3.824044 0.054685 0.714863 -1.278952 -0.358864 -1.948461
    11 17.848177 0.000000 0.000000 0.000000 0.000000 0.627365
    12 16.525253 0.000000 0.000000 0.054262 0.057377 -0.794739
    13 -3.824044 -0.054686 -0.714859 -0.490902 0.071121 -1.298436
    14 17.848173 0.000000 0.000000 0.000000 0.000000 0.270246
    15 16.525257 0.000000 0.000000 -0.207989 -0.084905 -1.102014
  time 8
    0 -13.767665 -1.578224 37.344224 1.570796 0.000000 -0.000042
    1 0.480488 3.278720 -3.017058 1.416030 0.110521 1.541410
    2 7.512659 0.109378 0.175787 0.052255 -0.015508 0.197585
    3 10.690096 1.436674 -1.937610 -1.698733 1.125310 3.146766
    4 6.028143 0.000001 0.000000 1.208641 0.313299 -0.809042
    5 11.692552 0.000000 0.000002 0.000000 0.000000 -0.758952
    6 10.697902 1.432762 1.937660 1.566131 -1.103044 3.214804
    7 6.028142 0.000001 0.000000 -1.324187 -0.086980 -0.880595
    8 11.692555 0.000000 0.000000 0.000000 0.000000 -0.180785
    9 15.016353 2.943921 -0.007813 3.154089 0.025803 0.285981
    10 3.827950 0.089843 0.707050 -1.260472 -0.290458 -1.911750
    11 17.848177 0.000000 0.000000 0.000000 0.000000 0.549734
    12 16.525253 0.000000 0.000000 0.104975 -0.045338 -0.931700
    13 -3.827950 -0.089843 -0.707046 -0.477841 0.041223 -1.369065
    14 17.848173 0.000000 0.000000 0.000000 0.000000 0.443935
    15 16.525257 0.000000 0.000000 -0.219699 -0.086775 -1.080598
  time 9
    0 -15.455125 -1.675890 37.285628 1.570796 0.000000 -0.000042
    1 0.441425 3.282626 -3.017058 1.418954 0.110802 1.550878
    2 7.508752 0.113285 0.222663 0.038602 -0.026750 0.199236
    3 10.690096 1.440580 -1.937610 -1.689177 1.121587 3.158717
    4 6.028143 0.000001 0.000000 1.209226 0.277684 -0.797205
    5 11.692552 0.000000 0.000002 0.000000 0.000000 -0.716979
    6 10.693996 1.436668 1.937660 1.558219 -1.107249 3.225157
    7 6.028142 0.000001 0.000000 -1.319434 -0.136727 -0.887912
    8 11.692555 0.000000 0.000000 0.000000 0.000000 -0.195725
    9 15.008540 2.955640 -0.003906 3.162343 0.026642 0.291996
    10 3.827950 0.121093 0.695331 -1.242449 -0.216262 -1.851281
    11 17.848177 0.000000 0.000000 0.000000 0.000000 0.446921
    12 16.525253 0.000000 0.000000 0.152854 -0.092657 -1.070710
    13 -3.827950 -0.121094 -0.695327 -0.473941 0.017401 -1.482230
    14 17.848173 0.000000 0.000000 0.000000 0.000000 0.657485
    15 16.525257 0.000000 0.000000 -0.211863 -0.111807 -1.093418
  time 10
    0 -17.150399 -1.761837 37.266096 1.570796 0.000000 -0.000042
    1 0.421893 3.282626 -3.020965 1.422264 0.111292 1.557170
    2 7.508752 0.121098 0.242195 0.026875 -0.031819 0.200759
    3 10.686190 1.440580 -1.937610 -1.678855 1.117414 3.170969
    4 6.028143 0.000001 0.000000 1.212654 0.238890 -0.782852
    5 11.692552 0.000000 0.000002 0.000000 0.000000 -0.657143
    6 10.690089 1.440574 1.937660 1.549258 -1.111888 3.235990
    7 6.028142 0.000001 0.000000 -1.312255 -0.186963 -0.894874
    8 11.692555 0.000000 0.000000 0.000000 0.000000 -0.224852
    9 15.008540 2.959546 -0.003906 3.169608 0.026162 0.293822
    10 3.827950 0.136719 0.683612 -1.222596 -0.198353 -1.800161
    11 17.848177 0.000000 0.000000 0.000000 0.000000 0.433789
    12 16.525253 0.000000 0.000000 0.130740 -0.080309 -1.155718
    13 -3.827950 -0.136719 -0.683608 -0.476117 0.028504 -1.585180
    14 17.848173 0.000000 0.000000 0.000000 0.000000 0.781899
    15 16.525257 0.000000 0.000000 -0.187835 -0.175785 -1.098679
  time 11
    0 -18.853484 -1.843878 37.277816 1.570796 0.000000 -0.000042
    1 0.410174 3.282626 -3.020965 1.425794 0.111923 1.560214
    2 7.508752 0.125004 0.246101 0.017677 -0.030944 0.201437
    3 10.690096 1.440580 -1.937610 -1.668415 1.112950 3.182738
    4 6.028143 0.000001 0.000000 1.217252 0.198622 -0.768126
    5 11.692552 0.000000 0.000002 0.000000 0.000000 -0.580168
    6 10.690089 1.440574 1.937660 1.539725 -1.116722 3.246823
    7 6.028142 0.000001 0.000000 -1.303096 -0.234973 -0.901400
    8 11.692555 0.000000 0.000000 0.000000 0.000000 -0.273723
    9 15.008540 2.963453 0.000000 3.175440 0.024101 0.293585
    10 3.831856 0.136719 0.671893 -1.204390 -0.218641 -1.762078
    11 17.848177 0.000000 0.000000 0.000000 0.000000 0.487397
    12 16.525253 0.000000 0.000000 0.085503 -0.062732 -1.205108
    13 -3.831856 -0.136719 -0.671889 -0.491627 0.044764 -1.692356
    14 17.848173 0.000000 0.000000 0.000000 0.000000 0.855647
    15 16.525257 0.000000 0.000000 -0.149365 -0.254319 -1.091010
  time 12
    0 -20.568289 -1.910293 37.406726 1.570796 0.000000 -0.000042
    1 0.410174 3.282626 -3.024871 1.429375 0.112647 1.561017
    2 7.508752 0.125004 0.230476 0.011296 -0.026031 0.200886
    3 10.690096 1.440580 -1.937610 -1.658210 1.108399 3.193965
    4 6.028143 0.000001 0.000000 1.221182 0.159735 -0.755264
    5 11.692552 0.000000 0.000002 0.000000 0.000000 -0.500216
    6 10.690089 1.440574 1.937660 1.530002 -1.121556 3.257464
    7 6.028142 0.000001 0.000000 -1.292302 -0.278907 -0.906977
    8 11.692555 0.000000 0.000000 0.000000 0.000000 -0.340386
    9 15.008540 2.963453 0.000000 3.179493 0.020733 0.292748
    10 3.831856 0.125000 0.660173 -1.193321 -0.220437 -1.714646
    11 17.848177 0.000000 0.000000 0.000000 0.000000 0.497207
    12 16.525253 0.000000 0.000000 0.041142 -0.043019 -1.227625
    13 -3.831856 -0.125000 -0.660169 -0.518294 0.061024 -1.762545
    14 17.848173 0.000000 0.000000 0.000000 0.000000 0.825689
    15 16.525257 0.000000 0.000000 -0.083618 -0.317453 -1.098753
  time 13
    0 -22.310439 -1.968895 37.645014 1.570796 0.000000 -0.000042
    1 0.417987 3.278720 -3.024871 1.432827 0.113418 1.560154
    2 7.508752 0.121098 0.203131 0.008163 -0.018253 0.199807
    3 10.690096 1.440580 -1.937610 -1.648832 1.103935 3.204165
    4 6.028143 0.000001 0.000000 1.225530 0.125272 -0.745757
    5 11.692552 0.000000 0.000002 0.000000 0.000000 -0.429705
    6 10.690089 1.440574 1.937660 1.520469 -1.126173 3.267530
    7 6.028142 0.000001 0.000000 -1.280271 -0.317330 -0.911486
    8 11.692555 0.000000 0.000000 0.000000 0.000000 -0.412153
    9 15.008540 2.959546 0.000000 3.181520 0.016515 0.291437
    10 3.835763 0.109374 0.648454 -1.191033 -0.201764 -1.656321
    11 17.848177 0.000000 0.000000 0.000000 0.000000 0.458971
    12 16.525253 0.000000 0.000000 -0.001067 -0.019400 -1.226536
    13 -3.835763 -0.109375 -0.648450 -0.551672 0.069897 -1.813976
    14 17.848173 0.000000 0.000000 0.000000 0.000000 0.766593
    15 16.525257 0.000000 0.000000 0.016493 -0.352056 -1.174003
  time 14
    0 -23.986180 -2.007966 37.891116 1.570796 0.000000 -0.000042
    1 0.429706 3.278720 -3.024871 1.435983 0.114166 1.558140
    2 7.512659 0.121098 0.171880 0.008652 -0.008785 0.198368
    3 10.690096 1.440580 -1.937610 -1.640692 1.099850 3.212796
    4 6.028143 0.000001 0.000000 1.232218 0.097766 -0.741097
    5 11.692552 0.000000 0.000002 0.000000 0.000000 -0.369650
    6 10.690089 1.436668 1.937660 1.511889 -1.130335 3.276445
    7 6.028142 0.000001 0.000000 -1.267151 -0.347864 -0.914927
    8 11.692555 0.000000 0.000000 0.000000 0.000000 -0.485798
    9 15.008540 2.955640 0.000000 3.181174 0.011793 0.289740
    10 3.839669 0.082030 0.636735 -1.197072 -0.169132 -1.593107
    11 17.848177 0.000000 0.000000 0.000000 0.000000 0.387287
    12 16.525253 0.000000 0.000000 -0.038259 0.007698 -1.207799
    13 -3.839669 -0.082030 -0.636731 -0.590220 0.069941 -1.857128
    14 17.848173 0.000000 0.000000 0.000000 0.000000 0.692354
    15 16.525257 0.000000 0.000000 0.127922 -0.347009 -1.262406
  time 15
    0 -25.575981 -2.035318 38.078621 1.570796 0.000000 -0.000042
    1 0.441425 3.274813 -3.028777 1.438662 0.114914 1.556522
    2 7.512659 0.117191 0.140629 0.012359 -0.000228 0.196823
    3 10.690096 1.436674 -1.937610 -1.634086 1.096433 3.219495
    4 6.028143 0.000001 0.000000 1.238991 0.079659 -0.740445
    5 11.692552 0.000000 0.000002 0.000000 0.000000 -0.319399
    6 10.690089 1.436668 1.937660 1.504644 -1.133782 3.283635
    7 6.028142 0.000001 0.000000 -1.254030 -0.367529 -0.916905
    8 11.692555 0.000000 0.000000 0.000000 0.000000 -0.563421
    9 15.012447 2.951734 0.000000 3.178356 0.006891 0.287807
    10 3.839669 0.062498 0.628922 -1.209788 -0.127479 -1.528864
    11 17.848177 0.000000 0.000000 0.000000 0.000000 0.293975
    12 16.525253 0.000000 0.000000 -0.070554 0.037969 -1.176826
    13 -3.839669 -0.062498 -0.628918 -0.630945 0.080388 -1.869634
    14 17.848173 0.000000 0.000000 0.000000 0.000000 0.542647
    15 16.525257 0.000000 0.000000 0.221981 -0.309933 -1.276893
  time 16
    0 -27.165783 -2.039231 38.160655 1.570796 0.000000 -0.000042
    1 0.453144 3.270907 -3.028777 1.440684 0.115591 1.555456
    2 7.512659 0.113285 0.113285 0.019057 0.006903 0.195426
    3 10.694003 1.436674 -1.937610 -1.629544 1.093917 3.223841
    4 6.028143 0.000001 0.000000 1.244927 0.067127 -0.743334
    5 11.692552 0.000000 0.000002 0.000000 0.000000 -0.278007
    6 10.693996 1.436668 1.937660 1.499401 -1.136274 3.288524
    7 6.028142 0.000001 0.000000 -1.242098 -0.372700 -0.918487
    8 11.692555 0.000000 0.000000 0.000000 0.000000 -0.639317
    9 15.012447 2.947827 0.000000 3.173463 0.002013 0.285767
    10 3.843575 0.042966 0.621110 -1.226988 -0.093321 -1.467880
    11 17.848177 0.000000 0.000000 0.000000 0.000000 0.213718
    12 16.525253 0.000000 0.000000 -0.099911 0.073875 -1.139030
    13 -3.843575 -0.042966 -0.621106 -0.677112 0.095118 -1.883020
    14 17.848173 0.000000 0.000000 0.000000 0.000000 0.402109
    15 16.525257 0.000000 0.000000 0.296529 -0.261578 -1.258257
  time 17
    0 -28.759490 -2.019706 38.129404 1.570796 0.000000 -0.000042
    1 0.468769 3.270907 -3.028777 1.441869 0.116199 1.554221
    2 7.516565 0.109378 0.089846 0.028197 0.013411 0.194410
    3 10.694003 1.436674 -1.937610 -1.627302 1.092565 3.225531
    4 6.028143 0.000001 0.000000 1.253121 0.061322 -0.749206
    5 11.692552 0.000000 0.000002 0.000000 0.000000 -0.244675
    6 10.693996 1.432762 1.937660 1.496732 -1.137597 3.290537
    7 6.028142 0.000001 0.000000 -1.230810 -0.366585 -0.918882
    8 11.692555 0.000000 0.000000 0.000000 0.000000 -0.705380
    9 15.016353 2.943921 0.000000 3.166890 -0.002625 0.283855
    10 3.843575 0.023434 0.621110 -1.247389 -0.093949 -1.418647
    11 17.848177 0.000000 0.000000 0.000000 0.000000 0.204525
    12 16.525253 0.000000 0.000000 -0.125319 0.117451 -1.115456
    13 -3.843575 -0.023435 -0.621106 -0.726726 0.112166 -1.895789
    14 17.848173 0.000000 0.000000 0.000000 0.000000 0.287762
    15 16.525257 0.000000 0.000000 0.352868 -0.207754 -1.233544
  time 18
    0 -30.364917 -1.968930 37.953617 1.570796 0.000000 -0.000042
    1 0.484395 3.267000 -3.028777 1.442063 0.116666 1.552028
    2 7.516565 0.109378 0.058596 0.039349 0.020218 0.194093
    3 10.694003 1.432768 -1.937610 -1.627774 1.092608 3.224324
    4 6.028143 0.000001 0.000000 1.262234 0.070168 -0.757407
    5 11.692552 0.000000 0.000002 0.000000 0.000000 -0.218606
    6 10.693996 1.432762 1.937660 1.497208 -1.137575 3.289387
    7 6.028142 0.000001 0.000000 -1.221205 -0.351601 -0.916944
    8 11.692555 0.000000 0.000000 0.000000 0.000000 -0.753725
    9 15.016353 2.940015 0.000000 3.159130 -0.006867 0.282394
    10 3.843575 0.003902 0.621110 -1.269895 -0.131114 -1.378763
    11 17.848177 0.000000 0.000000 0.000000 0.000000 0.268484
    12 16.525253 0.000000 0.000000 -0.145697 0.169104 -1.112061
    13 -3.843575 -0.003903 -0.621106 -0.774254 0.138523 -1.892267
    14 17.848173 0.000000 0.000000 0.000000 0.000000 0.176281
    15 16.525257 0.000000 0.000000 0.385536 -0.147194 -1.209535
  time 19
    0 -32.001594 -1.812682 37.734861 1.570796 0.000000 -0.000042
    1 0.507833 3.263094 -3.028777 1.441277 0.117040 1.547558
    2 7.516565 0.109378 0.023438 0.052140 0.029039 0.195130
    3 10.694003 1.432768 -1.937610 -1.630900 1.093975 3.220582
    4 6.028143 0.000001 0.000000 1.270344 0.090763 -0.766635
    5 11.692552 0.000000 0.000002 0.000000 0.000000 -0.199144
    6 10.697902 1.432762 1.937660 1.500640 -1.136209 3.285457
    7 6.028142 0.000001 0.000000 -1.214125 -0.329521 -0.912910
    8 11.692555 0.000000 0.000000 0.000000 0.000000 -0.779099
    9 15.016353 2.936108 0.000000 3.150579 -0.010499 0.281664
    10 3.843575 -0.019536 0.625016 -1.294597 -0.169895 -1.334676
    11 17.848177 0.000000 0.000000 0.000000 0.000000 0.324487
    12 16.525253 0.000000 0.000000 -0.162557 0.217420 -1.084547
    13 -3.843575 0.019535 -0.625012 -0.817065 0.146172 -1.886190
    14 17.848173 0.000000 0.000000 0.000000 0.000000 0.132818
    15 16.525257 0.000000 0.000000 0.384733 -0.087619 -1.209794
  time 20
    0 -33.798433 -1.554869 37.555168 1.570796 0.000000 -0.000042
    1 0.542990 3.259188 -3.024871 1.439654 0.117250 1.539960
    2 7.516565 0.109378 -0.019532 0.066137 0.040915 0.197818
    3 10.694003 1.432768 -1.937610 -1.636209 1.096462 3.214969
    4 6.028143 0.000001 0.000000 1.276531 0.120941 -0.775675
    5 11.692552 0.000000 0.000002 0.000000 0.000000 -0.185782
    6 10.697902 1.432762 1.937660 1.506455 -1.133738 3.279513
    7 6.028142 0.000001 0.000000 -1.210411 -0.302006 -0.907649
    8 11.692555 0.000000 0.000000 0.000000 0.000000 -0.780300
    9 15.016353 2.940015 -0.003906 3.141683 -0.013351 0.282179
    10 3.839669 -0.050787 0.632829 -1.319939 -0.205265 -1.293076
    11 17.848177 0.000000 0.000000 0.000000 0.000000 0.361874
    12 16.525253 0.000000 0.000000 -0.180960 0.234814 -1.019686
    13 -3.839669 0.050786 -0.632825 -0.849627 0.115444 -1.871219
    14 17.848173 0.000000 0.000000 0.000000 0.000000 0.182993
    15 16.525257 0.000000 0.000000 0.347352 -0.039807 -1.226912
  time 21
    0 -35.669493 -1.261898 37.449696 1.570796 0.000000 -0.000042
    1 0.582054 3.255281 -3.024871 1.437297 0.117250 1.530911
    2 7.516565 0.113285 -0.066408 0.080423 0.053212 0.201394
    3 10.690096 1.436674 -1.937610 -1.643405 1.099806 3.208511
    4 6.028143 0.000001 0.000000 1.279374 0.158768 -0.784436
    5 11.692552 0.000000 0.000002 0.000000 0.000000 -0.180772
    6 10.693996 1.436668 1.937660 1.514082 -1.130357 3.272706
    7 6.028142 0.000001 0.000000 -1.210907 -0.270377 -0.901004
    8 11.692555 0.000000 0.000000 0.000000 0.000000 -0.759130
    9 15.012447 2.947827 -0.003906 3.132885 -0.015244 0.291652
    10 3.839669 -0.085944 0.640642 -1.344091 -0.239199 -1.259711
    11 17.848177 0.000000 0.000000 0.000000 0.000000 0.389218
    12 16.525253 0.000000 0.000000 -0.207942 0.222200 -0.927568
    13 -3.839669 0.085944 -0.640638 -0.871123 0.046556 -1.868136
    14 17.848173 0.000000 0.000000 0.000000 0.000000 0.322877
    15 16.525257 0.000000 0.000000 0.300206 -0.015538 -1.229024
  time 22
    0 -37.552272 -0.992366 37.426258 1.570796 0.000000 -0.000042
    1 0.613305 3.251375 -3.024871 1.434360 0.117086 1.522582
    2 7.512659 0.121098 -0.105472 0.093846 0.062667 0.204738
    3 10.686190 1.440580 -1.937610 -1.652017 1.103761 3.201388
    4 6.028143 0.000001 0.000000 1.280127 0.201524 -0.792265
    5 11.692552 0.000000 0.000002 0.000000 0.000000 -0.195658
    6 10.693996 1.440574 1.937660 1.522947 -1.126303 3.265421
    7 6.028142 0.000001 0.000000 -1.215858 -0.235011 -0.892896
    8 11.692555 0.000000 0.000000 0.000000 0.000000 -0.717166
    9 15.004634 2.963453 -0.007813 3.124730 -0.015987 0.302156
    10 3.835763 -0.113289 0.652361 -1.366871 -0.261417 -1.229348
    11 17.848177 0.000000 0.000000 0.000000 0.000000 0.390454
    12 16.525253 0.000000 0.000000 -0.247479 0.195591 -0.812164
    13 -3.835763 0.113288 -0.652357 -0.875023 0.019412 -1.828419
    14 17.848173 0.000000 0.000000 0.000000 0.000000 0.355044
    15 16.525257 0.000000 0.000000 0.262022 -0.000037 -1.188564
  time 23
    0 -39.438957 -0.785335 37.504385 1.570796 0.000000 -0.000042
    1 0.636743 3.247469 -3.020965 1.431036 0.116713 1.515955
    2 7.512659 0.132817 -0.128910 0.105688 0.068180 0.207574
    3 10.682283 1.444487 -1.937610 -1.661690 1.108108 3.192154
    4 6.028143 0.000001 0.000000 1.279458 0.245617 -0.798976
    5 11.692552 0.000000 0.000002 0.000000 0.000000 -0.224705
    6 10.690089 1.444481 1.937660 1.532575 -1.121751 3.256409
    7 6.028142 0.000001 0.000000 -1.224175 -0.195493 -0.884115
    8 11.692555 0.000000 0.000000 0.000000 0.000000 -0.657410
    9 15.000727 2.975172 -0.011719 3.117465 -0.015400 0.305035
    10 3.831856 -0.132821 0.664080 -1.383156 -0.312901 -1.229519
    11 17.848177 0.000000 0.000000 0.000000 0.000000 0.455495
    12 16.525253 0.000000 0.000000 -0.276762 0.161271 -0.727124
    13 -3.831856 0.132820 -0.664076 -0.867132 0.009358 -1.776812
    14 17.848173 0.000000 0.000000 0.000000 0.000000 0.362329
    15 16.525257 0.000000 0.000000 0.223320 0.020452 -1.200865
  time 24
    0 -41.313923 -0.640806 37.645014 1.570796 0.000000 -0.000042
    1 0.640650 3.247469 -3.020965 1.427481 0.116175 1.514265
    2 7.512659 0.136723 -0.125004 0.114627 0.065292 0.208907
    3 10.682283 1.444487 -1.937610 -1.671954 1.112630 3.180988
    4 6.028143 0.000001 0.000000 1.276782 0.288972 -0.806712
    5 11.692552 0.000000 0.000002 0.000000 0.000000 -0.273504
    6 10.690089 1.444481 1.937660 1.542394 -1.116917 3.245960
    7 6.028142 0.000001 0.000000 -1.234622 -0.152617 -0.873871
    8 11.692555 0.000000 0.000000 0.000000 0.000000 -0.580462
    9 15.000727 2.975172 -0.011719 3.111682 -0.013315 0.304498
    10 3.831856 -0.128914 0.675799 -1.386907 -0.433239 -1.290589
    11 17.848177 0.000000 0.000000 0.000000 0.000000 0.665061
    12 16.525253 0.000000 0.000000 -0.271790 0.121561 -0.721326
    13 -3.831856 0.128914 -0.675795 -0.858244 0.004550 -1.722915
    14 17.848173 0.000000 0.000000 0.000000 0.000000 0.364539
    15 16.525257 0.000000 0.000000 0.184600 0.042046 -1.230913
  time 25
    0 -43.173264 -0.558780 37.805175 1.570796 0.000000 -0.000042
    1 0.628930 3.251375 -3.020965 1.423887 0.115521 1.517800
    2 7.512659 0.136723 -0.085940 0.120117 0.053931 0.208145
    3 10.682283 1.444487 -1.941516 -1.682394 1.117123 3.169339
    4 6.028143 0.000001 0.000000 1.272184 0.330116 -0.815473
    5 11.692552 0.000000 0.000002 0.000000 0.000000 -0.340095
    6 10.690089 1.444481 1.933754 1.551832 -1.112040 3.235319
    7 6.028142 0.000001 0.000000 -1.245614 -0.108532 -0.862480
    8 11.692555 0.000000 0.000000 0.000000 0.000000 -0.500512
    9 15.000727 2.975172 -0.011719 3.107629 -0.009803 0.303058
    10 3.827950 -0.097663 0.687518 -1.383248 -0.542939 -1.370185
    11 17.848177 0.000000 0.000000 0.000000 0.000000 0.852766
    12 16.525253 0.000000 0.000000 -0.246440 0.133604 -0.727060
    13 -3.827950 0.097663 -0.687514 -0.844276 0.004812 -1.668138
    14 17.848173 0.000000 0.000000 0.000000 0.000000 0.357418
    15 16.525257 0.000000 0.000000 0.144738 0.055557 -1.248994
  time 26
    0 -44.993541 -0.531442 37.945805 1.570796 0.000000 -0.000042
    1 0.609399 3.255281 -3.017058 1.420397 0.114750 1.522031
    2 7.516565 0.136723 -0.042970 0.122560 0.041155 0.206452
    3 10.682283 1.444487 -1.941516 -1.692539 1.121427 3.157751
    4 6.028143 0.000001 0.000000 1.266331 0.367113 -0.822743
    5 11.692552 0.000000 0.000002 0.000000 0.000000 -0.412422
    6 10.693996 1.440574 1.933754 1.560602 -1.107249 3.225061
    7 6.028142 0.000001 0.000000 -1.257397 -0.065278 -0.853026
    8 11.692555 0.000000 0.000000 0.000000 0.000000 -0.429495
    9 15.000727 2.971266 -0.015625 3.105652 -0.005393 0.300889
    10 3.827950 -0.066412 0.699237 -1.375563 -0.609055 -1.458359
    11 17.848177 0.000000 0.000000 0.000000 0.000000 0.956275
    12 16.525253 0.000000 0.000000 -0.210405 0.175654 -0.709860
    13 -3.827950 0.066412 -0.699233 -0.821147 0.011150 -1.612304
    14 17.848173 0.000000 0.000000 0.000000 0.000000 0.338428
    15 16.525257 0.000000 0.000000 0.102537 0.058271 -1.254181
end
