// Created by Crowbar 0.74
version 1
nodes
  0 "ValveBiped.Bip01" -1
  1 "ValveBiped.Bip01_Spine" 0
  2 "ValveBiped.Bip01_Spine2" 1
  3 "ValveBiped.Bip01_R_Clavicle" 2
  4 "ValveBiped.Bip01_R_UpperArm" 3
  5 "ValveBiped.Bip01_R_Forearm" 4
  6 "ValveBiped.Bip01_L_Clavicle" 2
  7 "ValveBiped.Bip01_L_UpperArm" 6
  8 "ValveBiped.Bip01_L_Forearm" 7
  9 "ValveBiped.Bip01_Head1" 2
  10 "ValveBiped.Bip01_L_Thigh" 0
  11 "ValveBiped.Bip01_L_Calf" 10
  12 "ValveBiped.Bip01_L_Foot" 11
  13 "ValveBiped.Bip01_R_Thigh" 0
  14 "ValveBiped.Bip01_R_Calf" 13
  15 "ValveBiped.Bip01_R_Foot" 14
end
skeleton
  time 0
    0 -0.002349 -0.531261 38.449726 1.570796 0.000000 -0.000042
    1 0.078132 3.134184 -3.200658 1.565154 0.159819 1.556702
    2 7.512659 0.132817 -0.089846 0.053318 0.020937 0.204526
    3 10.682283 1.444487 -1.941516 -1.692539 1.121427 3.157751
    4 6.028143 0.000001 0.000000 1.200112 0.351218 -0.897771
    5 11.692552 0.000000 0.000002 0.000000 0.000000 -0.412422
    6 10.693996 1.440574 1.933754 1.560602 -1.107249 3.225061
    7 6.028142 0.000001 0.000000 -1.148375 -0.105060 -0.839104
    8 11.692555 0.000000 0.000000 0.000000 0.000000 -0.354349
    9 15.000727 2.971266 -0.015625 3.105800 -0.005465 0.353559
    10 3.890452 -0.070319 0.023435 -1.674817 -0.298089 -1.479116
    11 17.848177 0.000000 0.000000 0.000000 0.000000 0.858405
    12 16.525253 0.000000 0.000000 -0.050697 0.226757 -0.795412
    13 -3.890452 0.070318 -0.023431 -1.470480 0.117935 -1.533485
    14 17.848173 0.000000 0.000000 0.000000 0.000000 0.141412
    15 16.525257 0.000000 0.000000 -0.022709 0.007081 -1.145400
  time 1
    0 0.021090 -3.197928 38.359880 1.570796 0.000000 -0.000042
    1 0.070320 3.138090 -3.200658 1.562204 0.159819 1.556894
    2 7.516565 0.132817 -0.070315 0.055876 0.014525 0.202474
    3 10.682283 1.444487 -1.941516 -1.700561 1.124801 3.148335
    4 6.028143 0.000001 0.000000 1.168926 0.393375 -0.895721
    5 11.692552 0.000000 0.000002 0.000000 0.000000 -0.475962
    6 10.693996 1.440574 1.933754 1.567371 -1.103456 3.216913
    7 6.028142 0.000001 0.000000 -1.169120 -0.065920 -0.831589
    8 11.692555 0.000000 0.000000 0.000000 0.000000 -0.298046
    9 15.004634 2.967359 -0.015625 3.105949 -0.001330 0.351196
    10 3.890452 -0.054693 0.035154 -1.676372 -0.337588 -1.503990
    11 17.848177 0.000000 0.000000 0.000000 0.000000 0.667996
    12 16.525253 0.000000 0.000000 -0.101039 0.180679 -0.862226
    13 -3.890452 0.054693 -0.035150 -1.467850 0.255842 -1.527320
    14 17.848173 0.000000 0.000000 0.000000 0.000000 0.000055
    15 16.525257 0.000000 0.000000 -0.016586 0.003321 -1.077338
  time 2
    0 0.060153 -5.864595 38.059089 1.570796 0.000000 -0.000042
    1 0.070320 3.138090 -3.200658 1.559615 0.159772 1.555156
    2 7.516565 0.128910 -0.058596 0.056336 0.011230 0.200230
    3 10.682283 1.440580 -1.941516 -1.707462 1.127680 3.139885
    4 6.028143 0.000001 0.000000 1.142673 0.421065 -0.892925
    5 11.692552 0.000000 0.000002 0.000000 0.000000 -0.542988
    6 10.693996 1.440574 1.933754 1.572995 -1.100161 3.209723
    7 6.028142 0.000001 0.000000 -1.193528 -0.023835 -0.827633
    8 11.692555 0.000000 0.000000 0.000000 0.000000 -0.254130
    9 15.008540 2.963453 -0.015625 3.107975 0.002876 0.348447
    10 3.890452 -0.046880 0.042967 -1.677195 -0.358056 -1.526977
    11 17.848177 0.000000 0.000000 0.000000 0.000000 0.457889
    12 16.525253 0.000000 0.000000 -0.128525 0.125833 -0.923436
    13 -3.890452 0.046880 -0.042963 -1.465673 0.325473 -1.528641
    14 17.848173 0.000000 0.000000 0.000000 0.000000 0.000055
    15 16.525257 0.000000 0.000000 -0.010659 -0.001524 -1.070150
  time 3
    0 0.122655 -8.531261 37.602044 1.570796 0.000000 -0.000042
    1 0.070320 3.138090 -3.200658 1.557490 0.159725 1.554042
    2 7.516565 0.121098 -0.042970 0.054180 0.007466 0.198050
    3 10.686190 1.440580 -1.941516 -1.712948 1.129948 3.132944
    4 6.028143 0.000001 0.000000 1.122105 0.433367 -0.891899
    5 11.692552 0.000000 0.000002 0.000000 0.000000 -0.610014
    6 10.697902 1.436668 1.933754 1.577285 -1.097560 3.203875
    7 6.028142 0.000001 0.000000 -1.220561 0.012700 -0.826368
    8 11.692555 0.000000 0.000000 0.000000 0.000000 -0.221249
    9 15.008540 2.955640 -0.015625 3.111633 0.007047 0.345440
    10 3.890452 -0.035161 0.046873 -1.676464 -0.340326 -1.550736
    11 17.848177 0.000000 0.000000 0.000000 0.000000 0.171928
    12 16.525253 0.000000 0.000000 -0.131508 0.074140 -0.920297
    13 -3.890452 0.035161 -0.046869 -1.462861 0.394404 -1.530667
    14 17.848173 0.000000 0.000000 0.000000 0.000000 0.000055
    15 16.525257 0.000000 0.000000 -0.005072 -0.007898 -1.054959
  time 4
    0 0.204689 -11.197928 37.078591 1.570796 0.000000 -0.000042
    1 0.062507 3.138090 -3.200658 1.555944 0.159655 1.553778
    2 7.516565 0.117191 -0.027345 0.049495 0.003068 0.196230
    3 10.686190 1.436674 -1.941516 -1.716487 1.131460 3.127935
    4 6.028143 0.000001 0.000000 1.104380 0.434519 -0.892645
    5 11.692552 0.000000 0.000002 0.000000 0.000000 -0.672174
    6 10.697902 1.436668 1.933754 1.580049 -1.095804 3.199657
    7 6.028142 0.000001 0.000000 -1.256308 0.040593 -0.828029
    8 11.692555 0.000000 0.000000 0.000000 0.000000 -0.197676
    9 15.012447 2.947827 -0.015625 3.116674 0.011050 0.342368
    10 3.890452 -0.023442 0.050780 -1.676464 -0.340775 -1.563430
    11 17.848177 0.000000 0.000000 0.000000 0.000000 0.033891
    12 16.525253 0.000000 0.000000 -0.120793 0.036870 -0.998290
    13 -3.890452 0.023442 -0.050776 -1.459505 0.461325 -1.533749
    14 17.848173 0.000000 0.000000 0.000000 0.000000 0.000055
    15 16.525257 0.000000 0.000000 -0.000305 -0.016202 -1.018872
  time 5
    0 0.314068 -13.864595 36.590295 1.570796 0.000000 -0.000042
    1 0.050788 3.138090 -3.200658 1.555107 0.159608 1.554617
    2 7.516565 0.113285 -0.007813 0.042597 -0.002145 0.194897
    3 10.690096 1.436674 -1.941516 -1.717726 1.132100 3.125641
    4 6.028143 0.000001 0.000000 1.086989 0.428483 -0.893111
    5 11.692552 0.000000 0.000002 0.000000 0.000000 -0.724096
    6 10.697902 1.432762 1.933754 1.581003 -1.095089 3.197548
    7 6.028142 0.000001 0.000000 -1.297154 0.062069 -0.832657
    8 11.692555 0.000000 0.000000 0.000000 0.000000 -0.182062
    9 15.016353 2.943921 -0.015625 3.122803 0.014813 0.339511
    10 3.890452 -0.007817 0.054686 -1.677378 -0.363577 -1.568662
    11 17.848177 0.000000 0.000000 0.000000 0.000000 0.031651
    12 16.525253 0.000000 0.000000 -0.098338 0.017910 -1.092491
    13 -3.890452 0.007816 -0.054682 -1.455605 0.524837 -1.538153
    14 17.848173 0.000000 0.000000 0.000000 0.000000 0.000055
    15 16.525257 0.000000 0.000000 0.002551 -0.026597 -0.955218
  time 6
    0 0.446884 -16.531261 36.219190 1.570796 0.000000 -0.000042
    1 0.035162 3.138090 -3.200658 1.555068 0.159585 1.556786
    2 7.516565 0.109378 0.015625 0.033830 -0.008341 0.194326
    3 10.690096 1.432768 -1.941516 -1.716487 1.131765 3.126426
    4 6.028143 0.000001 0.000000 1.070685 0.415813 -0.892738
    5 11.692552 0.000000 0.000002 0.000000 0.000000 -0.760913
    6 10.701809 1.432762 1.933754 1.580049 -1.095501 3.198027
    7 6.028142 0.000001 0.000000 -1.338347 0.068561 -0.839934
    8 11.692555 0.000000 0.000000 0.000000 0.000000 -0.173278
    9 15.016353 2.940015 -0.011719 3.129722 0.018229 0.337062
    10 3.890452 0.007809 0.050780 -1.677561 -0.369367 -1.574580
    11 17.848177 0.000000 0.000000 0.000000 0.000000 0.000058
    12 16.525253 0.000000 0.000000 -0.058399 0.011319 -1.057450
    13 -3.890452 -0.007809 -0.050776 -1.456512 0.512860 -1.554885
    14 17.848173 0.000000 0.000000 0.000000 0.000000 0.158847
    15 16.525257 0.000000 0.000000 0.004836 -0.044652 -0.976449
  time 7
    0 0.599233 -19.197928 36.012152 1.570796 0.000000 -0.000042
    1 0.015630 3.138090 -3.200658 1.555777 0.159562 1.560405
    2 7.516565 0.109378 0.042970 0.023598 -0.015556 0.194855
    3 10.690096 1.432768 -1.937610 -1.712948 1.130544 3.130108
    4 6.028143 0.000001 0.000000 1.056304 0.397245 -0.890967
    5 11.692552 0.000000 0.000002 0.000000 0.000000 -0.779939
    6 10.697902 1.432762 1.937660 1.577380 -1.096953 3.200903
    7 6.028142 0.000001 0.000000 -1.374292 0.063805 -0.849506
    8 11.692555 0.000000 0.000000 0.000000 0.000000 -0.170276
    9 15.016353 2.936108 -0.011719 3.137136 0.021213 0.335301
    10 3.890452 0.027341 0.046873 -1.680946 -0.441318 -1.569005
    11 17.848177 0.000000 0.000000 0.000000 0.000000 0.161577
    12 16.525253 0.000000 0.000000 -0.020183 0.008145 -1.101651
    13 -3.890452 -0.027341 -0.046869 -1.457147 0.504817 -1.574436
    14 17.848173 0.000000 0.000000 0.000000 0.000000 0.291118
    15 16.525257 0.000000 0.000000 0.000802 -0.072499 -0.926208
  time 8
    0 0.767207 -21.864595 36.094186 1.570796 0.000000 -0.000042
    1 -0.007808 3.138090 -3.200658 1.557155 0.159562 1.565918
    2 7.516565 0.109378 0.078127 0.012158 -0.024341 0.196484
    3 10.690096 1.432768 -1.937610 -1.707462 1.128567 3.136385
    4 6.028143 0.000001 0.000000 1.044432 0.373471 -0.887705
    5 11.692552 0.000000 0.000002 0.000000 0.000000 -0.780883
    6 10.697902 1.432762 1.937660 1.573090 -1.099273 3.205984
    7 6.028142 0.000001 0.000000 -1.397612 0.046934 -0.860542
    8 11.692555 0.000000 0.000000 0.000000 0.000000 -0.172453
    9 15.016353 2.940015 -0.011719 3.144797 0.023658 0.334807
    10 3.890452 0.054685 0.042967 -1.682136 -0.463492 -1.564802
    11 17.848177 0.000000 0.000000 0.000000 0.000000 0.292508
    12 16.525253 0.000000 0.000000 0.012365 0.001025 -1.060589
    13 -3.890452 -0.054686 -0.042963 -1.458326 0.487945 -1.595307
    14 17.848173 0.000000 0.000000 0.000000 0.000000 0.388194
    15 16.525257 0.000000 0.000000 -0.014568 -0.104207 -0.815611
  time 9
    0 0.942994 -24.531261 36.414508 1.570796 0.000000 -0.000042
    1 -0.039059 3.138090 -3.200658 1.559113 0.159608 1.573505
    2 7.512659 0.109378 0.121097 -0.000029 -0.034791 0.198812
    3 10.690096 1.436674 -1.937610 -1.700502 1.125978 3.145076
    4 6.028143 0.000001 0.000000 1.035569 0.345505 -0.883045
    5 11.692552 0.000000 0.000002 0.000000 0.000000 -0.764834
    6 10.697902 1.436668 1.937660 1.567561 -1.102286 3.213366
    7 6.028142 0.000001 0.000000 -1.407068 0.017381 -0.872052
    8 11.692555 0.000000 0.000000 0.000000 0.000000 -0.178984
    9 15.012447 2.947827 -0.007813 3.152458 0.025443 0.340091
    10 3.890452 0.082030 0.035154 -1.682776 -0.474174 -1.560514
    11 17.848177 0.000000 0.000000 0.000000 0.000000 0.432862
    12 16.525253 0.000000 0.000000 0.032683 -0.011669 -1.020007
    13 -3.890452 -0.082030 -0.035150 -1.462135 0.420019 -1.618469
    14 17.848173 0.000000 0.000000 0.000000 0.000000 0.518420
    15 16.525257 0.000000 0.000000 -0.039935 -0.132034 -0.699827
  time 10
    0 1.107061 -27.197928 36.840302 1.570796 0.000000 -0.000042
    1 -0.070310 3.138090 -3.200658 1.561573 0.159655 1.582038
    2 7.512659 0.117191 0.160161 -0.012388 -0.045194 0.201267
    3 10.686190 1.440580 -1.937610 -1.692480 1.122881 3.155759
    4 6.028143 0.000001 0.000000 1.030218 0.314036 -0.876614
    5 11.692552 0.000000 0.000002 0.000000 0.000000 -0.729106
    6 10.693996 1.436668 1.937660 1.560984 -1.105797 3.222665
    7 6.028142 0.000001 0.000000 -1.405929 -0.024439 -0.883087
    8 11.692555 0.000000 0.000000 0.000000 0.000000 -0.196175
    9 15.008540 2.959546 -0.007813 3.159773 0.026450 0.350251
    10 3.890452 0.113281 0.023435 -1.680580 -0.433688 -1.561972
    11 17.848177 0.000000 0.000000 0.000000 0.000000 0.495585
    12 16.525253 0.000000 0.000000 0.038129 -0.017976 -1.050019
    13 -3.890452 -0.113281 -0.023431 -1.466761 0.306809 -1.640045
    14 17.848173 0.000000 0.000000 0.000000 0.000000 0.677129
    15 16.525257 0.000000 0.000000 -0.067784 -0.153849 -0.609016
  time 11
    0 1.243784 -29.864595 37.293441 1.570796 0.000000 -0.000042
    1 -0.093748 3.134184 -3.200658 1.564420 0.159702 1.589073
    2 7.508752 0.125004 0.187506 -0.024000 -0.052097 0.203553
    3 10.686190 1.444487 -1.937610 -1.683692 1.119392 3.166865
    4 6.028143 0.000001 0.000000 1.028713 0.279573 -0.868039
    5 11.692552 0.000000 0.000002 0.000000 0.000000 -0.668326
    6 10.690089 1.440574 1.937660 1.553548 -1.109699 3.232539
    7 6.028142 0.000001 0.000000 -1.391967 -0.076714 -0.892936
    8 11.692555 0.000000 0.000000 0.000000 0.000000 -0.219897
    9 15.004634 2.967359 -0.003906 3.166445 0.026522 0.356438
    10 3.890452 0.132813 0.015623 -1.676647 -0.346340 -1.567718
    11 17.848177 0.000000 0.000000 0.000000 0.000000 0.481990
    12 16.525253 0.000000 0.000000 0.034449 -0.015535 -1.123720
    13 -3.890452 -0.132813 -0.015618 -1.470208 0.170563 -1.657130
    14 17.848173 0.000000 0.000000 0.000000 0.000000 0.836003
    15 16.525257 0.000000 0.000000 -0.088759 -0.174739 -0.566222
  time 12
    0 1.341444 -32.531261 37.723142 1.570796 0.000000 -0.000042
    1 -0.109373 3.134184 -3.200658 1.567524 0.159772 1.593183
    2 7.508752 0.128910 0.199225 -0.034175 -0.053619 0.205225
    3 10.686190 1.444487 -1.937610 -1.674608 1.115640 3.177487
    4 6.028143 0.000001 0.000000 1.031138 0.243682 -0.857880
    5 11.692552 0.000000 0.000002 0.000000 0.000000 -0.587212
    6 10.690089 1.440574 1.937660 1.545445 -1.113817 3.242029
    7 6.028142 0.000001 0.000000 -1.364588 -0.136764 -0.901875
    8 11.692555 0.000000 0.000000 0.000000 0.000000 -0.253229
    9 15.000727 2.971266 0.000000 3.172178 0.025479 0.356695
    10 3.890452 0.140625 0.003903 -1.673261 -0.237134 -1.574237
    11 17.848177 0.000000 0.000000 0.000000 0.000000 0.420889
    12 16.525253 0.000000 0.000000 0.029981 -0.012585 -1.171829
    13 -3.890452 -0.140626 -0.003899 -1.471659 0.018057 -1.669635
    14 17.848173 0.000000 0.000000 0.000000 0.000000 0.988410
    15 16.525257 0.000000 0.000000 -0.092651 -0.202446 -0.599568
  time 13
    0 1.400039 -35.197928 38.086434 1.570796 0.000000 -0.000042
    1 -0.113280 3.134184 -3.200658 1.570757 0.159795 1.595293
    2 7.508752 0.132817 0.195318 -0.042798 -0.051426 0.205606
    3 10.686190 1.444487 -1.937610 -1.665583 1.111729 3.187567
    4 6.028143 0.000001 0.000000 1.036907 0.208942 -0.847721
    5 11.692552 0.000000 0.000002 0.000000 0.000000 -0.498982
    6 10.686183 1.440574 1.937660 1.537056 -1.118044 3.251424
    7 6.028142 0.000001 0.000000 -1.326910 -0.200853 -0.909429
    8 11.692555 0.000000 0.000000 0.000000 0.000000 -0.297896
    9 15.000727 2.971266 0.000000 3.176725 0.023262 0.355815
    10 3.890452 0.136719 -0.003909 -1.670974 -0.110826 -1.580927
    11 17.848177 0.000000 0.000000 0.000000 0.000000 0.319080
    12 16.525253 0.000000 0.000000 0.024564 -0.009248 -1.188292
    13 -3.890452 -0.136719 0.003913 -1.471115 -0.090476 -1.667434
    14 17.848173 0.000000 0.000000 0.000000 0.000000 1.012556
    15 16.525257 0.000000 0.000000 -0.053163 -0.230353 -0.716686
  time 14
    0 1.419571 -37.864595 38.340348 1.570796 0.000000 -0.000042
    1 -0.113280 3.134184 -3.200658 1.574016 0.159819 1.595856
    2 7.512659 0.132817 0.179693 -0.049582 -0.046416 0.204738
    3 10.686190 1.444487 -1.937610 -1.656854 1.107774 3.197043
    4 6.028143 0.000001 0.000000 1.045937 0.178948 -0.838587
    5 11.692552 0.000000 0.000002 0.000000 0.000000 -0.417432
    6 10.686183 1.440574 1.937660 1.528667 -1.122206 3.260532
    7 6.028142 0.000001 0.000000 -1.284975 -0.264413 -0.915599
    8 11.692555 0.000000 0.000000 0.000000 0.000000 -0.352472
    9 15.000727 2.971266 0.000000 3.179889 0.020170 0.354268
    10 3.890452 0.125000 -0.015628 -1.670425 0.030473 -1.587703
    11 17.848177 0.000000 0.000000 0.000000 0.000000 0.179421
    12 16.525253 0.000000 0.000000 0.018138 -0.005465 -1.163885
    13 -3.890452 -0.125000 0.015632 -1.469936 -0.168238 -1.645945
    14 17.848173 0.000000 0.000000 0.000000 0.000000 0.885768
    15 16.525257 0.000000 0.000000 0.026543 -0.224100 -0.863110
  time 15
    0 1.411759 -40.531261 38.441914 1.570796 0.000000 -0.000042
    1 -0.109373 3.134184 -3.200658 1.577172 0.159819 1.595197
    2 7.512659 0.128910 0.156255 -0.054267 -0.039345 0.203320
    3 10.686190 1.444487 -1.937610 -1.648773 1.103921 3.205674
    4 6.028143 0.000001 0.000000 1.058311 0.150106 -0.831877
    5 11.692552 0.000000 0.000002 0.000000 0.000000 -0.349027
    6 10.686183 1.440574 1.937660 1.520469 -1.126195 3.269064
    7 6.028142 0.000001 0.000000 -1.245069 -0.322161 -0.920544
    8 11.692555 0.000000 0.000000 0.000000 0.000000 -0.412379
    9 15.004634 2.967359 0.000000 3.181520 0.016467 0.352141
    10 3.890452 0.109374 -0.023441 -1.672255 0.188381 -1.595766
    11 17.848177 0.000000 0.000000 0.000000 0.000000 0.000058
    12 16.525253 0.000000 0.000000 0.011103 -0.001050 -1.088134
    13 -3.890452 -0.109375 0.023445 -1.468938 -0.211729 -1.616531
    14 17.848173 0.000000 0.000000 0.000000 0.000000 0.669108
    15 16.525257 0.000000 0.000000 0.098360 -0.179303 -0.994863
  time 16
    0 1.388321 -43.197928 38.340348 1.570796 0.000000 -0.000042
    1 -0.101561 3.134184 -3.200658 1.580109 0.159819 1.593663
    2 7.512659 0.128910 0.128910 -0.056537 -0.030944 0.201479
    3 10.690096 1.440580 -1.937610 -1.641636 1.100358 3.213098
    4 6.028143 0.000001 0.000000 1.073779 0.115643 -0.829081
    5 11.692552 0.000000 0.000002 0.000000 0.000000 -0.294636
    6 10.690089 1.440574 1.937660 1.512938 -1.129836 3.276733
    7 6.028142 0.000001 0.000000 -1.210857 -0.368699 -0.924499
    8 11.692555 0.000000 0.000000 0.000000 0.000000 -0.475964
    9 15.004634 2.967359 0.000000 3.181371 0.012392 0.349542
    10 3.890452 0.089843 -0.035160 -1.673902 0.259120 -1.594737
    11 17.848177 0.000000 0.000000 0.000000 0.000000 0.000058
    12 16.525253 0.000000 0.000000 0.004499 0.004178 -1.085764
    13 -3.890452 -0.089843 0.035164 -1.468122 -0.244600 -1.596717
    14 17.848173 0.000000 0.000000 0.000000 0.000000 0.531025
    15 16.525257 0.000000 0.000000 0.139561 -0.126947 -1.160887
  time 17
    0 1.353163 -45.864595 38.055183 1.570796 0.000000 -0.000042
    1 -0.089841 3.134184 -3.200658 1.582711 0.159772 1.592272
    2 7.512659 0.125004 0.101566 -0.056336 -0.022998 0.199405
    3 10.690096 1.440580 -1.937610 -1.635619 1.097247 3.219012
    4 6.028143 0.000001 0.000000 1.092507 0.077724 -0.829267
    5 11.692552 0.000000 0.000002 0.000000 0.000000 -0.252808
    6 10.690089 1.440574 1.937660 1.506360 -1.132958 3.283060
    7 6.028142 0.000001 0.000000 -1.183329 -0.400479 -0.927268
    8 11.692555 0.000000 0.000000 0.000000 0.000000 -0.543002
    9 15.008540 2.959546 0.000000 3.179345 0.008162 0.346599
    10 3.890452 0.066404 -0.042973 -1.676098 0.328917 -1.593021
    11 17.848177 0.000000 0.000000 0.000000 0.000000 0.000058
    12 16.525253 0.000000 0.000000 -0.001631 0.010749 -1.079038
    13 -3.890452 -0.066405 0.042977 -1.467487 -0.269340 -1.580160
    14 17.848173 0.000000 0.000000 0.000000 0.000000 0.314855
    15 16.525257 0.000000 0.000000 0.147344 -0.087217 -1.130654
  time 18
    0 1.298474 -48.531261 37.637202 1.570796 0.000000 -0.000042
    1 -0.082029 3.134184 -3.200658 1.584836 0.159725 1.591398
    2 7.516565 0.121098 0.078127 -0.053778 -0.016251 0.197373
    3 10.690096 1.440580 -1.937610 -1.631077 1.094789 3.223177
    4 6.028143 0.000001 0.000000 1.119095 0.044597 -0.831877
    5 11.692552 0.000000 0.000002 0.000000 0.000000 -0.221583
    6 10.690089 1.436668 1.937660 1.501212 -1.135407 3.287661
    7 6.028142 0.000001 0.000000 -1.162238 -0.415878 -0.929087
    8 11.692555 0.000000 0.000000 0.000000 0.000000 -0.609965
    9 15.008540 2.955640 0.000000 3.175638 0.003895 0.343506
    10 3.890452 0.050779 -0.046879 -1.678842 0.397951 -1.590534
    11 17.848177 0.000000 0.000000 0.000000 0.000000 0.000058
    12 16.525253 0.000000 0.000000 -0.007330 0.019253 -1.065233
    13 -3.890452 -0.050779 0.046883 -1.466852 -0.291020 -1.567479
    14 17.848173 0.000000 0.000000 0.000000 0.000000 0.127416
    15 16.525257 0.000000 0.000000 0.140596 -0.057842 -1.075930
  time 19
    0 1.220347 -51.197928 37.109842 1.570796 0.000000 -0.000042
    1 -0.070310 3.138090 -3.200658 1.586382 0.159655 1.590583
    2 7.516565 0.117191 0.054689 -0.048863 -0.010259 0.195617
    3 10.690096 1.436674 -1.937610 -1.628128 1.093117 3.225471
    4 6.028143 0.000001 0.000000 1.153208 0.019118 -0.836816
    5 11.692552 0.000000 0.000002 0.000000 0.000000 -0.199217
    6 10.693996 1.436668 1.937660 1.497780 -1.137055 3.290346
    7 6.028142 0.000001 0.000000 -1.144859 -0.418898 -0.929997
    8 11.692555 0.000000 0.000000 0.000000 0.000000 -0.672198
    9 15.012447 2.947827 0.000000 3.170547 -0.000240 0.340456
    10 3.890452 0.035153 -0.050786 -1.682319 0.465728 -1.586931
    11 17.848177 0.000000 0.000000 0.000000 0.000000 0.000058
    12 16.525253 0.000000 0.000000 -0.012139 0.030238 -1.037975
    13 -3.890452 -0.035154 0.050790 -1.465854 -0.323235 -1.556382
    14 17.848173 0.000000 0.000000 0.000000 0.000000 0.000055
    15 16.525257 0.000000 0.000000 0.122745 -0.035303 -1.043362
  time 20
    0 1.122688 -53.864595 36.574669 1.570796 0.000000 -0.000042
    1 -0.058591 3.138090 -3.200658 1.587219 0.159608 1.589348
    2 7.516565 0.113285 0.031251 -0.041878 -0.004470 0.194389
    3 10.694003 1.436674 -1.937610 -1.627125 1.092419 3.225712
    4 6.028143 0.000001 0.000000 1.192420 -0.001200 -0.843900
    5 11.692552 0.000000 0.000002 0.000000 0.000000 -0.184257
    6 10.693996 1.432762 1.937660 1.496541 -1.137748 3.290825
    7 6.028142 0.000001 0.000000 -1.129610 -0.413652 -0.928968
    8 11.692555 0.000000 0.000000 0.000000 0.000000 -0.724072
    9 15.016353 2.943921 0.000000 3.164369 -0.004147 0.337728
    10 3.890452 0.015621 -0.050786 -1.686253 0.530184 -1.581871
    11 17.848177 0.000000 0.000000 0.000000 0.000000 0.000058
    12 16.525253 0.000000 0.000000 -0.014394 0.043808 -0.981090
    13 -3.890452 -0.015622 0.050790 -1.464856 -0.350030 -1.552155
    14 17.848173 0.000000 0.000000 0.000000 0.000000 0.000055
    15 16.525257 0.000000 0.000000 0.091558 -0.022777 -1.052884
  time 21
    0 0.997684 -56.531261 36.160594 1.570796 0.000000 -0.000042
    1 -0.042965 3.138090 -3.200658 1.587258 0.159585 1.587107
    2 7.516565 0.109378 0.007813 -0.033112 0.001834 0.193945
    3 10.694003 1.432768 -1.937610 -1.628246 1.092783 3.223841
    4 6.028143 0.000001 0.000000 1.232971 -0.007835 -0.852381
    5 11.692552 0.000000 0.000002 0.000000 0.000000 -0.175616
    6 10.693996 1.432762 1.937660 1.497685 -1.137380 3.288908
    7 6.028142 0.000001 0.000000 -1.116935 -0.400592 -0.925686
    8 11.692555 0.000000 0.000000 0.000000 0.000000 -0.760857
    9 15.016353 2.940015 0.000000 3.157450 -0.007694 0.335644
    10 3.890452 -0.000004 -0.050786 -1.686802 0.539790 -1.566775
    11 17.848177 0.000000 0.000000 0.000000 0.000000 0.114380
    12 16.525253 0.000000 0.000000 -0.015953 0.065514 -0.982499
    13 -3.890452 0.000004 0.050790 -1.464131 -0.369874 -1.547928
    14 17.848173 0.000000 0.000000 0.000000 0.000000 0.000055
    15 16.525257 0.000000 0.000000 0.062193 -0.017268 -1.095233
  time 22
    0 0.849242 -59.197928 35.937931 1.570796 0.000000 -0.000042
    1 -0.019527 3.138090 -3.200658 1.586537 0.159562 1.582829
    2 7.516565 0.109378 -0.019532 -0.022736 0.010043 0.194622
    3 10.694003 1.432768 -1.937610 -1.631195 1.094121 3.220220
    4 6.028143 0.000001 0.000000 1.269508 -0.004471 -0.861422
    5 11.692552 0.000000 0.000002 0.000000 0.000000 -0.172348
    6 10.697902 1.432762 1.937660 1.500926 -1.136058 3.285073
    7 6.028142 0.000001 0.000000 -1.107033 -0.380777 -0.920662
    8 11.692555 0.000000 0.000000 0.000000 0.000000 -0.779925
    9 15.016353 2.936108 0.000000 3.149937 -0.010774 0.334527
    10 3.890452 -0.019536 -0.046879 -1.687168 0.547465 -1.547905
    11 17.848177 0.000000 0.000000 0.000000 0.000000 0.216653
    12 16.525253 0.000000 0.000000 -0.009274 0.096823 -0.918471
    13 -3.890452 0.019535 0.046883 -1.459777 -0.460180 -1.556382
    14 17.848173 0.000000 0.000000 0.000000 0.000000 0.213278
    15 16.525257 0.000000 0.000000 0.019635 -0.013769 -1.171743
  time 23
    0 0.673456 -61.864595 36.023871 1.570796 0.000000 -0.000042
    1 0.003911 3.138090 -3.200658 1.585171 0.159585 1.576177
    2 7.516565 0.109378 -0.062502 -0.011095 0.020494 0.196611
    3 10.694003 1.432768 -1.937610 -1.635855 1.096287 3.215331
    4 6.028143 0.000001 0.000000 1.295260 0.010272 -0.870369
    5 11.692552 0.000000 0.000002 0.000000 0.000000 -0.173655
    6 10.697902 1.432762 1.937660 1.505979 -1.133912 3.279896
    7 6.028142 0.000001 0.000000 -1.100003 -0.355262 -0.914334
    8 11.692555 0.000000 0.000000 0.000000 0.000000 -0.780901
    9 15.016353 2.940015 -0.003906 3.142276 -0.013243 0.334721
    10 3.890452 -0.050787 -0.042973 -1.686344 0.539520 -1.526033
    11 17.848177 0.000000 0.000000 0.000000 0.000000 0.302163
    12 16.525253 0.000000 0.000000 0.010613 0.131895 -0.800729
    13 -3.890452 0.050786 0.042977 -1.457147 -0.505027 -1.562811
    14 17.848173 0.000000 0.000000 0.000000 0.000000 0.374689
    15 16.525257 0.000000 0.000000 -0.018674 -0.003817 -1.104570
  time 24
    0 0.485950 -64.531261 36.352006 1.570796 0.000000 -0.000042
    1 0.035162 3.138090 -3.200658 1.583200 0.159608 1.568327
    2 7.516565 0.109378 -0.105472 0.001150 0.031364 0.199426
    3 10.690096 1.436674 -1.937610 -1.641871 1.099093 3.209778
    4 6.028143 0.000001 0.000000 1.309139 0.036995 -0.878665
    5 11.692552 0.000000 0.000002 0.000000 0.000000 -0.179029
    6 10.693996 1.436668 1.937660 1.512461 -1.131072 3.274049
    7 6.028142 0.000001 0.000000 -1.096339 -0.324879 -0.906542
    8 11.692555 0.000000 0.000000 0.000000 0.000000 -0.764836
    9 15.012447 2.947827 -0.003906 3.134615 -0.015005 0.342024
    10 3.890452 -0.082038 -0.035160 -1.681678 0.468870 -1.499959
    11 17.848177 0.000000 0.000000 0.000000 0.000000 0.445530
    12 16.525253 0.000000 0.000000 0.041884 0.161780 -0.687695
    13 -3.890452 0.082037 0.035164 -1.458598 -0.481249 -1.562459
    14 17.848173 0.000000 0.000000 0.000000 0.000000 0.446227
    15 16.525257 0.000000 0.000000 -0.042185 0.013093 -1.027949
  time 25
    0 0.298445 -67.197928 36.781707 1.570796 0.000000 -0.000042
    1 0.066413 3.138090 -3.200658 1.580753 0.159655 1.560645
    2 7.512659 0.117191 -0.140629 0.013337 0.040484 0.202262
    3 10.686190 1.440580 -1.937610 -1.649068 1.102409 3.203863
    4 6.028143 0.000001 0.000000 1.313988 0.075374 -0.885655
    5 11.692552 0.000000 0.000002 0.000000 0.000000 -0.194569
    6 10.693996 1.436668 1.937660 1.519992 -1.127690 3.267913
    7 6.028142 0.000001 0.000000 -1.096240 -0.290456 -0.897286
    8 11.692555 0.000000 0.000000 0.000000 0.000000 -0.729252
    9 15.008540 2.959546 -0.007813 3.127399 -0.015928 0.351927
    10 3.890452 -0.109382 -0.023441 -1.676006 0.349924 -1.475771
    11 17.848177 0.000000 0.000000 0.000000 0.000000 0.620568
    12 16.525253 0.000000 0.000000 0.075248 0.183751 -0.599292
    13 -3.890452 0.109382 0.023445 -1.461773 -0.420447 -1.558144
    14 17.848173 0.000000 0.000000 0.000000 0.000000 0.468572
    15 16.525257 0.000000 0.000000 -0.048825 0.021497 -1.038323
  time 26
    0 0.146096 -69.864595 37.242658 1.570796 0.000000 -0.000042
    1 0.089851 3.134184 -3.200658 1.577906 0.159702 1.554054
    2 7.512659 0.125004 -0.167974 0.024834 0.046728 0.204823
    3 10.682283 1.444487 -1.937610 -1.657149 1.106073 3.196681
    4 6.028143 0.000001 0.000000 1.308554 0.123660 -0.890129
    5 11.692552 0.000000 0.000002 0.000000 0.000000 -0.217952
    6 10.690089 1.440574 1.937660 1.528095 -1.123897 3.260819
    7 6.028142 0.000001 0.000000 -1.099606 -0.252675 -0.886963
    8 11.692555 0.000000 0.000000 0.000000 0.000000 -0.669721
    9 15.000727 2.971266 -0.007813 3.120776 -0.015904 0.357318
    10 3.890452 -0.128914 -0.015628 -1.671706 0.208624 -1.457587
    11 17.848177 0.000000 0.000000 0.000000 0.000000 0.790120
    12 16.525253 0.000000 0.000000 0.099054 0.203220 -0.555891
    13 -3.890452 0.128914 0.015632 -1.465401 -0.336042 -1.552507
    14 17.848173 0.000000 0.000000 0.000000 0.000000 0.460387
    15 16.525257 0.000000 0.000000 -0.045398 0.019225 -1.114500
  time 27
    0 0.048437 -72.531261 37.680172 1.570796 0.000000 -0.000042
    1 0.105477 3.134184 -3.200658 1.574802 0.159772 1.549763
    2 7.512659 0.132817 -0.179693 0.035066 0.048526 0.206727
    3 10.682283 1.444487 -1.937610 -1.665819 1.109940 3.187748
    4 6.028143 0.000001 0.000000 1.292417 0.179225 -0.893111
    5 11.692552 0.000000 0.000002 0.000000 0.000000 -0.251646
    6 10.690089 1.444481 1.937660 1.536579 -1.119822 3.252191
    7 6.028142 0.000001 0.000000 -1.106290 -0.212818 -0.875770
    8 11.692555 0.000000 0.000000 0.000000 0.000000 -0.591122
    9 15.000727 2.975172 -0.011719 3.115043 -0.014813 0.357662
    10 3.890452 -0.136727 -0.003909 -1.669693 0.042278 -1.445407
    11 17.848177 0.000000 0.000000 0.000000 0.000000 0.957974
    12 16.525253 0.000000 0.000000 0.101265 0.228446 -0.588946
    13 -3.890452 0.136727 0.003913 -1.468575 -0.229520 -1.546607
    14 17.848173 0.000000 0.000000 0.000000 0.000000 0.404482
    15 16.525257 0.000000 0.000000 -0.040721 0.016149 -1.165000
  time 28
    0 0.013280 -75.197928 38.055183 1.570796 0.000000 -0.000042
    1 0.105477 3.134184 -3.200658 1.571556 0.159795 1.549871
    2 7.512659 0.136723 -0.164068 0.043229 0.043037 0.207129
    3 10.682283 1.444487 -1.941516 -1.674785 1.113866 3.177850
    4 6.028143 0.000001 0.000000 1.266498 0.238706 -0.895628
    5 11.692552 0.000000 0.000002 0.000000 0.000000 -0.297178
    6 10.690089 1.444481 1.933754 1.544968 -1.115595 3.242988
    7 6.028142 0.000001 0.000000 -1.116688 -0.173602 -0.863192
    8 11.692555 0.000000 0.000000 0.000000 0.000000 -0.505166
    9 15.000727 2.975172 -0.011719 3.110496 -0.012536 0.356846
    10 3.890452 -0.125008 0.003903 -1.670517 -0.122990 -1.443520
    11 17.848177 0.000000 0.000000 0.000000 0.000000 1.065963
    12 16.525253 0.000000 0.000000 0.070128 0.250946 -0.675715
    13 -3.890452 0.125007 -0.003899 -1.470571 -0.115960 -1.542115
    14 17.848173 0.000000 0.000000 0.000000 0.000000 0.327460
    15 16.525257 0.000000 0.000000 -0.034705 0.012852 -1.185600
  time 29
    0 -0.010158 -77.864595 38.328629 1.570796 0.000000 -0.000042
    1 0.089851 3.134184 -3.200658 1.568310 0.159819 1.553346
    2 7.512659 0.136723 -0.125004 0.049179 0.032011 0.206156
    3 10.682283 1.444487 -1.941516 -1.683869 1.117734 3.167710
    4 6.028143 0.000001 0.000000 1.234141 0.297818 -0.897492
    5 11.692552 0.000000 0.000002 0.000000 0.000000 -0.352294
    6 10.690089 1.444481 1.933754 1.553071 -1.111346 3.233881
    7 6.028142 0.000001 0.000000 -1.130798 -0.138765 -0.850179
    8 11.692555 0.000000 0.000000 0.000000 0.000000 -0.424015
    9 15.000727 2.975172 -0.015625 3.107382 -0.009300 0.355471
    10 3.890452 -0.097663 0.015623 -1.672896 -0.239109 -1.455786
    11 17.848177 0.000000 0.000000 0.000000 0.000000 1.023401
    12 16.525253 0.000000 0.000000 0.012706 0.252126 -0.742883
    13 -3.890452 0.097663 -0.015618 -1.471206 -0.002793 -1.537800
    14 17.848173 0.000000 0.000000 0.000000 0.000000 0.244545
    15 16.525257 0.000000 0.000000 -0.028867 0.010197 -1.178931
  time 30
    0 -0.002345 -80.531261 38.449726 1.570796 0.000000 -0.000042
    1 0.078132 3.134184 -3.200658 1.565154 0.159819 1.556702
    2 7.512659 0.132817 -0.089846 0.053318 0.020937 0.204526
    3 10.682283 1.444487 -1.941516 -1.692539 1.121427 3.157751
    4 6.028143 0.000001 0.000000 1.200112 0.351218 -0.897771
    5 11.692552 0.000000 0.000002 0.000000 0.000000 -0.412422
    6 10.693996 1.440574 1.933754 1.560602 -1.107249 3.225061
    7 6.028142 0.000001 0.000000 -1.148375 -0.105060 -0.839104
    8 11.692555 0.000000 0.000000 0.000000 0.000000 -0.354349
    9 15.000727 2.971266 -0.015625 3.105800 -0.005465 0.353559
    10 3.890452 -0.070319 0.023435 -1.674817 -0.298089 -1.479116
    11 17.848177 0.000000 0.000000 0.000000 0.000000 0.858405
    12 16.525253 0.000000 0.000000 -0.050697 0.226757 -0.795412
    13 -3.890452 0.070318 -0.023431 -1.470480 0.117935 -1.533485
    14 17.848173 0.000000 0.000000 0.000000 0.000000 0.141412
    15 16.525257 0.000000 0.000000 -0.022709 0.007081 -1.145400
end
