// Created by Crowbar 0.74
version 1
nodes
  0 "ValveBiped.Bip01" -1
  1 "ValveBiped.Bip01_Spine" 0
  2 "ValveBiped.Bip01_Spine2" 1
  3 "ValveBiped.Bip01_R_Clavicle" 2
  4 "ValveBiped.Bip01_R_UpperArm" 3
  5 "ValveBiped.Bip01_R_Forearm" 4
  6 "ValveBiped.Bip01_L_Clavicle" 2
  7 "ValveBiped.Bip01_L_UpperArm" 6
  8 "ValveBiped.Bip01_L_Forearm" 7
  9 "ValveBiped.Bip01_Head1" 2
  10 "ValveBiped.Bip01_L_Thigh" 0
  11 "ValveBiped.Bip01_L_Calf" 10
  12 "ValveBiped.Bip01_L_Foot" 11
  13 "ValveBiped.Bip01_R_Thigh" 0
  14 "ValveBiped.Bip01_R_Calf" 13
  15 "ValveBiped.Bip01_R_Foot" 14
end
skeleton
  time 0
    0 -0.002349 -0.531261 38.027838 1.570796 0.000000 -0.000042
    1 0.339859 3.196686 -3.122530 1.516631 0.139679 1.545077
    2 7.512659 0.132817 -0.093753 0.130464 0.048861 0.206177
    3 10.682283 1.444487 -1.941516 -1.692539 1.121427 3.157751
    4 6.028143 0.000001 0.000000 1.363485 0.321316 -0.823116
    5 11.692552 0.000000 0.000002 0.000000 0.000000 -0.412422
    6 10.693996 1.440574 1.933754 1.560602 -1.107249 3.225061
    7 6.028142 0.000001 0.000000 -1.149414 -0.071996 -0.865921
    8 11.692555 0.000000 0.000000 0.000000 0.000000 -0.429495
    9 15.000727 2.971266 -0.015625 3.105702 -0.005405 0.310168
    10 3.874826 -0.070319 0.347664 -1.543533 -0.398632 -1.525090
    11 17.848177 0.000000 0.000000 0.000000 0.000000 0.924836
    12 16.525253 0.000000 0.000000 0.071775 0.081809 -1.062350
    13 -3.874826 0.070318 -0.347660 -1.189940 0.046206 -1.554797
    14 17.848173 0.000000 0.000000 0.000000 0.000000 0.244627
    15 16.525257 0.000000 0.000000 -0.023708 -0.044692 -1.249365
  time 1
    0 -1.541150 -2.046612 37.977056 1.570796 0.000000 -0.000042
    1 0.332046 3.196686 -3.122530 1.513359 0.139282 1.545065
    2 7.516565 0.128910 -0.070315 0.130349 0.042294 0.203828
    3 10.682283 1.440580 -1.941516 -1.701682 1.125280 3.146947
    4 6.028143 0.000001 0.000000 1.357214 0.348730 -0.823582
    5 11.692552 0.000000 0.000002 0.000000 0.000000 -0.486128
    6 10.693996 1.440574 1.933754 1.568324 -1.102914 3.215762
    7 6.028142 0.000001 0.000000 -1.162683 -0.030931 -0.857180
    8 11.692555 0.000000 0.000000 0.000000 0.000000 -0.369438
    9 15.004634 2.967359 -0.015625 3.106048 -0.000623 0.307419
    10 3.874826 -0.050787 0.359383 -1.543350 -0.409180 -1.631190
    11 17.848177 0.000000 0.000000 0.000000 0.000000 0.784018
    12 16.525253 0.000000 0.000000 0.080828 0.065006 -1.129421
    13 -3.874826 0.050786 -0.359379 -1.166811 0.099708 -1.507329
    14 17.848173 0.000000 0.000000 0.000000 0.000000 0.215406
    15 16.525257 0.000000 0.000000 -0.056198 -0.047125 -1.243436
  time 2
    0 -3.111203 -3.593214 37.809082 1.570796 0.000000 -0.000042
    1 0.332046 3.196686 -3.122530 1.510577 0.138861 1.543279
    2 7.516565 0.125004 -0.058596 0.127274 0.038710 0.201246
    3 10.682283 1.440580 -1.941516 -1.709350 1.128450 3.137532
    4 6.028143 0.000001 0.000000 1.349940 0.365593 -0.822650
    5 11.692552 0.000000 0.000002 0.000000 0.000000 -0.563829
    6 10.693996 1.436668 1.933754 1.574425 -1.099294 3.207806
    7 6.028142 0.000001 0.000000 -1.175011 0.004057 -0.853145
    8 11.692555 0.000000 0.000000 0.000000 0.000000 -0.319141
    9 15.008540 2.959546 -0.015625 3.108815 0.004231 0.304154
    10 3.874826 -0.042974 0.367196 -1.544356 -0.332875 -1.710357
    11 17.848177 0.000000 0.000000 0.000000 0.000000 0.504932
    12 16.525253 0.000000 0.000000 0.087388 0.065514 -1.137685
    13 -3.874826 0.042974 -0.367192 -1.107673 0.151549 -1.462239
    14 17.848173 0.000000 0.000000 0.000000 0.000000 0.192979
    15 16.525257 0.000000 0.000000 -0.103254 -0.079154 -1.234137
  time 3
    0 -4.735945 -5.202317 37.523917 1.570796 0.000000 -0.000042
    1 0.328140 3.196686 -3.122530 1.508452 0.138464 1.542405
    2 7.516565 0.121098 -0.039064 0.120979 0.034408 0.198855
    3 10.686190 1.436674 -1.941516 -1.714836 1.130748 3.130349
    4 6.028143 0.000001 0.000000 1.341997 0.369186 -0.823582
    5 11.692552 0.000000 0.000002 0.000000 0.000000 -0.639714
    6 10.697902 1.436668 1.933754 1.578715 -1.096628 3.201670
    7 6.028142 0.000001 0.000000 -1.185458 0.025043 -0.852947
    8 11.692555 0.000000 0.000000 0.000000 0.000000 -0.277852
    9 15.012447 2.951734 -0.015625 3.113708 0.008988 0.300631
    10 3.874826 -0.031255 0.375008 -1.544814 -0.311060 -1.767482
    11 17.848177 0.000000 0.000000 0.000000 0.000000 0.379486
    12 16.525253 0.000000 0.000000 0.091885 0.071963 -1.216062
    13 -3.874826 0.031255 -0.375004 -1.027584 0.201510 -1.416885
    14 17.848173 0.000000 0.000000 0.000000 0.000000 0.178409
    15 16.525257 0.000000 0.000000 -0.159362 -0.125700 -1.220354
  time 4
    0 -6.403657 -6.854391 37.168437 1.570796 0.000000 -0.000042
    1 0.316421 3.200592 -3.122530 1.507189 0.138090 1.542800
    2 7.516565 0.117191 -0.019532 0.111954 0.029087 0.196992
    3 10.686190 1.436674 -1.941516 -1.717549 1.131969 3.126185
    4 6.028143 0.000001 0.000000 1.332382 0.361769 -0.825166
    5 11.692552 0.000000 0.000002 0.000000 0.000000 -0.705796
    6 10.697902 1.432762 1.933754 1.580812 -1.095241 3.198027
    7 6.028142 0.000001 0.000000 -1.196945 0.030704 -0.856586
    8 11.692555 0.000000 0.000000 0.000000 0.000000 -0.244521
    9 15.016353 2.943921 -0.015625 3.120233 0.013471 0.297173
    10 3.874826 -0.011723 0.375008 -1.545271 -0.280538 -1.806680
    11 17.848177 0.000000 0.000000 0.000000 0.000000 0.259524
    12 16.525253 0.000000 0.000000 0.112144 0.072757 -1.242455
    13 -3.874826 0.011723 -0.375004 -0.942415 0.245046 -1.372500
    14 17.848173 0.000000 0.000000 0.000000 0.000000 0.177345
    15 16.525257 0.000000 0.000000 -0.220860 -0.168727 -1.193974
  time 5
    0 -8.094807 -8.529903 36.855928 1.570796 0.000000 -0.000042
    1 0.300795 3.200592 -3.122530 1.506932 0.137787 1.544849
    2 7.516565 0.113285 0.003906 0.100801 0.022459 0.195913
    3 10.690096 1.432768 -1.941516 -1.716959 1.131925 3.125943
    4 6.028143 0.000001 0.000000 1.322015 0.345597 -0.825632
    5 11.692552 0.000000 0.000002 0.000000 0.000000 -0.753942
    6 10.697902 1.432762 1.933754 1.580431 -1.095327 3.197740
    7 6.028142 0.000001 0.000000 -1.207490 0.019457 -0.863627
    8 11.692555 0.000000 0.000000 0.000000 0.000000 -0.218471
    9 15.016353 2.940015 -0.011719 3.127992 0.017545 0.294187
    10 3.874826 0.003902 0.375008 -1.545546 -0.257781 -1.830696
    11 17.848177 0.000000 0.000000 0.000000 0.000000 0.160573
    12 16.525253 0.000000 0.000000 0.163851 0.055871 -1.157800
    13 -3.874826 -0.003903 -0.375004 -0.876021 0.232894 -1.368273
    14 17.848173 0.000000 0.000000 0.000000 0.000000 0.305033
    15 16.525257 0.000000 0.000000 -0.293783 -0.177836 -1.158331
  time 6
    0 -9.797676 -10.221040 36.680141 1.570796 0.000000 -0.000042
    1 0.277357 3.200592 -3.122530 1.507679 0.137600 1.548756
    2 7.516565 0.109378 0.039064 0.088068 0.014393 0.196167
    3 10.690096 1.432768 -1.937610 -1.713243 1.130660 3.129746
    4 6.028143 0.000001 0.000000 1.312316 0.322329 -0.824048
    5 11.692552 0.000000 0.000002 0.000000 0.000000 -0.779140
    6 10.697902 1.432762 1.937660 1.577571 -1.096823 3.200616
    7 6.028142 0.000001 0.000000 -1.214966 -0.005718 -0.873515
    8 11.692555 0.000000 0.000000 0.000000 0.000000 -0.199028
    9 15.016353 2.936108 -0.011719 3.136493 0.021057 0.292017
    10 3.874826 0.027341 0.371102 -1.545546 -0.273581 -1.837729
    11 17.848177 0.000000 0.000000 0.000000 0.000000 0.157406
    12 16.525253 0.000000 0.000000 0.214030 0.019761 -1.037559
    13 -3.874826 -0.027341 -0.371098 -0.834570 0.184419 -1.396366
    14 17.848173 0.000000 0.000000 0.000000 0.000000 0.514900
    15 16.525257 0.000000 0.000000 -0.366528 -0.137925 -1.096123
  time 7
    0 -11.500545 -11.912177 36.648890 1.570796 0.000000 -0.000042
    1 0.246106 3.204499 -3.122530 1.509289 0.137506 1.555108
    2 7.516565 0.109378 0.078127 0.074243 0.004267 0.197881
    3 10.690096 1.436674 -1.937610 -1.706932 1.128378 3.136988
    4 6.028143 0.000001 0.000000 1.304624 0.293764 -0.820226
    5 11.692552 0.000000 0.000002 0.000000 0.000000 -0.780229
    6 10.697902 1.432762 1.937660 1.572709 -1.099489 3.206559
    7 6.028142 0.000001 0.000000 -1.218482 -0.042179 -0.885302
    8 11.692555 0.000000 0.000000 0.000000 0.000000 -0.185665
    9 15.016353 2.940015 -0.007813 3.145340 0.023873 0.291523
    10 3.874826 0.054685 0.363289 -1.544814 -0.337678 -1.814656
    11 17.848177 0.000000 0.000000 0.000000 0.000000 0.317921
    12 16.525253 0.000000 0.000000 0.228352 -0.008801 -1.036310
    13 -3.874826 -0.054686 -0.363285 -0.812621 0.137124 -1.426573
    14 17.848173 0.000000 0.000000 0.000000 0.000000 0.685642
    15 16.525257 0.000000 0.000000 -0.411335 -0.082472 -1.026171
  time 8
    0 -13.191696 -13.595502 36.766081 1.570796 0.000000 -0.000042
    1 0.210949 3.204499 -3.122530 1.511646 0.137530 1.564097
    2 7.512659 0.109378 0.125004 0.059958 -0.007946 0.200442
    3 10.690096 1.436674 -1.937610 -1.698674 1.125295 3.147430
    4 6.028143 0.000001 0.000000 1.300026 0.261420 -0.814168
    5 11.692552 0.000000 0.000002 0.000000 0.000000 -0.758807
    6 10.693996 1.436668 1.937660 1.566131 -1.103066 3.215475
    7 6.028142 0.000001 0.000000 -1.216947 -0.087207 -0.897919
    8 11.692555 0.000000 0.000000 0.000000 0.000000 -0.180861
    9 15.012447 2.947827 -0.007813 3.154138 0.025803 0.298934
    10 3.874826 0.089843 0.355477 -1.544356 -0.359447 -1.766710
    11 17.848177 0.000000 0.000000 0.000000 0.000000 0.446380
    12 16.525253 0.000000 0.000000 0.210364 -0.013032 -1.077340
    13 -3.874826 -0.089843 -0.355473 -0.810897 0.088518 -1.462063
    14 17.848173 0.000000 0.000000 0.000000 0.000000 0.798842
    15 16.525257 0.000000 0.000000 -0.423884 -0.047809 -0.963962
  time 9
    0 -14.855501 -15.255388 37.023902 1.570796 0.000000 -0.000042
    1 0.175792 3.208405 -3.122530 1.514609 0.137693 1.573636
    2 7.512659 0.121098 0.171880 0.046276 -0.019163 0.203045
    3 10.686190 1.440580 -1.937610 -1.689118 1.121573 3.160105
    4 6.028143 0.000001 0.000000 1.299106 0.225759 -0.805873
    5 11.692552 0.000000 0.000002 0.000000 0.000000 -0.716689
    6 10.690089 1.440574 1.937660 1.558124 -1.107271 3.226499
    7 6.028142 0.000001 0.000000 -1.211897 -0.137179 -0.910299
    8 11.692555 0.000000 0.000000 0.000000 0.000000 -0.195800
    9 15.004634 2.963453 -0.003906 3.162441 0.026630 0.310276
    10 3.874826 0.121093 0.343758 -1.544356 -0.332965 -1.716533
    11 17.848177 0.000000 0.000000 0.000000 0.000000 0.489328
    12 16.525253 0.000000 0.000000 0.174819 0.007332 -1.131727
    13 -3.874826 -0.121094 -0.343754 -0.818063 0.024701 -1.523093
    14 17.848173 0.000000 0.000000 0.000000 0.000000 0.897227
    15 16.525257 0.000000 0.000000 -0.420600 -0.058847 -0.936841
  time 10
    0 -16.476337 -16.880117 37.395007 1.570796 0.000000 -0.000042
    1 0.152353 3.208405 -3.126437 1.517984 0.137950 1.580024
    2 7.508752 0.128910 0.191412 0.034549 -0.024173 0.205309
    3 10.686190 1.444487 -1.937610 -1.678796 1.117385 3.172719
    4 6.028143 0.000001 0.000000 1.301447 0.186827 -0.795248
    5 11.692552 0.000000 0.000002 0.000000 0.000000 -0.656707
    6 10.690089 1.440574 1.937660 1.549163 -1.111910 3.237811
    7 6.028142 0.000001 0.000000 -1.204025 -0.187831 -0.922442
    8 11.692555 0.000000 0.000000 0.000000 0.000000 -0.225077
    9 15.000727 2.971266 -0.003906 3.169658 0.026138 0.313391
    10 3.874826 0.136719 0.332038 -1.544722 -0.275197 -1.666528
    11 17.848177 0.000000 0.000000 0.000000 0.000000 0.470094
    12 16.525253 0.000000 0.000000 0.134643 0.034307 -1.172309
    13 -3.874826 -0.136719 -0.332034 -0.825410 -0.057300 -1.613713
    14 17.848173 0.000000 0.000000 0.000000 0.000000 0.976869
    15 16.525257 0.000000 0.000000 -0.406497 -0.117115 -0.929579
  time 11
    0 -18.026857 -18.450157 37.809082 1.570796 0.000000 -0.000042
    1 0.140634 3.208405 -3.126437 1.521616 0.138254 1.583176
    2 7.508752 0.132817 0.195318 0.025351 -0.023250 0.206283
    3 10.686190 1.444487 -1.937610 -1.668356 1.112921 3.184549
    4 6.028143 0.000001 0.000000 1.305042 0.146282 -0.784064
    5 11.692552 0.000000 0.000002 0.000000 0.000000 -0.579514
    6 10.686183 1.440574 1.937660 1.539630 -1.116765 3.248548
    7 6.028142 0.000001 0.000000 -1.193726 -0.236143 -0.934150
    8 11.692555 0.000000 0.000000 0.000000 0.000000 -0.274173
    9 15.000727 2.971266 0.000000 3.175490 0.024065 0.312768
    10 3.874826 0.136719 0.320319 -1.545180 -0.193281 -1.618581
    11 17.848177 0.000000 0.000000 0.000000 0.000000 0.396711
    12 16.525253 0.000000 0.000000 0.096545 0.059818 -1.183808
    13 -3.874826 -0.136719 -0.320315 -0.829763 -0.150229 -1.721859
    14 17.848173 0.000000 0.000000 0.000000 0.000000 1.013702
    15 16.525257 0.000000 0.000000 -0.372044 -0.205421 -0.918316
  time 12
    0 -19.542221 -19.996759 38.168468 1.570796 0.000000 -0.000042
    1 0.140634 3.208405 -3.126437 1.525300 0.138604 1.584111
    2 7.512659 0.132817 0.179693 0.018999 -0.018288 0.205436
    3 10.686190 1.444487 -1.937610 -1.658151 1.108356 3.195715
    4 6.028143 0.000001 0.000000 1.308386 0.106981 -0.774557
    5 11.692552 0.000000 0.000002 0.000000 0.000000 -0.499635
    6 10.686183 1.440574 1.937660 1.529906 -1.121599 3.259189
    7 6.028142 0.000001 0.000000 -1.181547 -0.280228 -0.944750
    8 11.692555 0.000000 0.000000 0.000000 0.000000 -0.340986
    9 15.000727 2.971266 0.000000 3.179543 0.020697 0.311157
    10 3.878733 0.128906 0.308600 -1.545454 -0.121778 -1.573208
    11 17.848177 0.000000 0.000000 0.000000 0.000000 0.335456
    12 16.525253 0.000000 0.000000 0.062291 0.082460 -1.170740
    13 -3.878733 -0.128907 -0.308596 -0.837564 -0.210724 -1.797683
    14 17.848173 0.000000 0.000000 0.000000 0.000000 0.953378
    15 16.525257 0.000000 0.000000 -0.308975 -0.292622 -0.911499
  time 13
    0 -21.038053 -21.523829 38.367693 1.570796 0.000000 -0.000042
    1 0.148447 3.204499 -3.126437 1.528868 0.138955 1.583356
    2 7.512659 0.128910 0.152348 0.015952 -0.010487 0.203786
    3 10.686190 1.444487 -1.937610 -1.648773 1.103906 3.205734
    4 6.028143 0.000001 0.000000 1.312734 0.072472 -0.768033
    5 11.692552 0.000000 0.000002 0.000000 0.000000 -0.429124
    6 10.686183 1.440574 1.937660 1.520469 -1.126216 3.269159
    7 6.028142 0.000001 0.000000 -1.167931 -0.318877 -0.953808
    8 11.692555 0.000000 0.000000 0.000000 0.000000 -0.412754
    9 15.004634 2.967359 0.000000 3.181520 0.016467 0.308751
    10 3.878733 0.109374 0.296881 -1.545637 -0.056919 -1.529035
    11 17.848177 0.000000 0.000000 0.000000 0.000000 0.285787
    12 16.525253 0.000000 0.000000 0.030204 0.106283 -1.160394
    13 -3.878733 -0.109375 -0.296877 -0.851804 -0.248840 -1.849819
    14 17.848173 0.000000 0.000000 0.000000 0.000000 0.847462
    15 16.525257 0.000000 0.000000 -0.216022 -0.363275 -0.934729
  time 14
    0 -22.576854 -23.086056 38.328629 1.570796 0.000000 -0.000042
    1 0.160166 3.204499 -3.126437 1.532140 0.139305 1.581474
    2 7.512659 0.125004 0.121097 0.016470 -0.000995 0.201627
    3 10.690096 1.440580 -1.937610 -1.640574 1.099820 3.214124
    4 6.028143 0.000001 0.000000 1.319674 0.045196 -0.765703
    5 11.692552 0.000000 0.000002 0.000000 0.000000 -0.369142
    6 10.690089 1.440574 1.937660 1.511794 -1.130378 3.277787
    7 6.028142 0.000001 0.000000 -1.153326 -0.349563 -0.960927
    8 11.692555 0.000000 0.000000 0.000000 0.000000 -0.486549
    9 15.004634 2.963453 0.000000 3.181174 0.011745 0.305700
    10 3.882639 0.085936 0.285162 -1.545729 -0.006557 -1.483748
    11 17.848177 0.000000 0.000000 0.000000 0.000000 0.269180
    12 16.525253 0.000000 0.000000 0.009396 0.123961 -1.170580
    13 -3.882639 -0.085936 -0.285158 -0.874933 -0.261472 -1.875622
    14 17.848173 0.000000 0.000000 0.000000 0.000000 0.697183
    15 16.525257 0.000000 0.000000 -0.101844 -0.403990 -0.975337
  time 15
    0 -24.236753 -24.761568 38.074715 1.570796 0.000000 -0.000042
    1 0.171885 3.204499 -3.130343 1.534922 0.139609 1.579976
    2 7.516565 0.121098 0.089846 0.020264 0.007550 0.199257
    3 10.690096 1.440580 -1.937610 -1.634027 1.096403 3.220521
    4 6.028143 0.000001 0.000000 1.326948 0.027550 -0.766541
    5 11.692552 0.000000 0.000002 0.000000 0.000000 -0.318890
    6 10.690089 1.436668 1.937660 1.504549 -1.133803 3.284690
    7 6.028142 0.000001 0.000000 -1.139067 -0.369190 -0.965397
    8 11.692555 0.000000 0.000000 0.000000 0.000000 -0.564247
    9 15.008540 2.959546 0.000000 3.178307 0.006831 0.302264
    10 3.882639 0.062498 0.277349 -1.545820 0.038463 -1.434514
    11 17.848177 0.000000 0.000000 0.000000 0.000000 0.271574
    12 16.525253 0.000000 0.000000 0.003608 0.131305 -1.192584
    13 -3.882639 -0.062498 -0.277345 -0.910216 -0.228864 -1.859418
    14 17.848173 0.000000 0.000000 0.000000 0.000000 0.458422
    15 16.525257 0.000000 0.000000 0.014012 -0.407810 -0.988972
  time 16
    0 -25.920091 -26.460518 37.648921 1.570796 0.000000 -0.000042
    1 0.183604 3.204499 -3.130343 1.537048 0.139889 1.578993
    2 7.516565 0.117191 0.062502 0.026990 0.014693 0.197056
    3 10.690096 1.436674 -1.937610 -1.629485 1.093888 3.224505
    4 6.028143 0.000001 0.000000 1.333386 0.015433 -0.770549
    5 11.692552 0.000000 0.000002 0.000000 0.000000 -0.277644
    6 10.690089 1.436668 1.937660 1.499401 -1.136296 3.289195
    7 6.028142 0.000001 0.000000 -1.126639 -0.374096 -0.967730
    8 11.692555 0.000000 0.000000 0.000000 0.000000 -0.640068
    9 15.012447 2.951734 0.000000 3.173414 0.001953 0.298676
    10 3.882639 0.042966 0.269537 -1.546003 0.076077 -1.383652
    11 17.848177 0.000000 0.000000 0.000000 0.000000 0.292276
    12 16.525253 0.000000 0.000000 0.007126 0.131265 -1.225639
    13 -3.882639 -0.042966 -0.269532 -0.940329 -0.236076 -1.882579
    14 17.848173 0.000000 0.000000 0.000000 0.000000 0.352016
    15 16.525257 0.000000 0.000000 0.117336 -0.384366 -1.057923
  time 17
    0 -27.611241 -28.163374 37.144999 1.570796 0.000000 -0.000042
    1 0.195323 3.200592 -3.130343 1.538323 0.140146 1.577831
    2 7.516565 0.113285 0.035157 0.036159 0.021213 0.195405
    3 10.694003 1.436674 -1.937610 -1.627302 1.092550 3.225833
    4 6.028143 0.000001 0.000000 1.342332 0.010549 -0.776887
    5 11.692552 0.000000 0.000002 0.000000 0.000000 -0.244385
    6 10.693996 1.432762 1.937660 1.496732 -1.137618 3.290921
    7 6.028142 0.000001 0.000000 -1.115450 -0.367906 -0.967374
    8 11.692555 0.000000 0.000000 0.000000 0.000000 -0.706055
    9 15.016353 2.943921 0.000000 3.166791 -0.002685 0.295325
    10 3.882639 0.023434 0.269537 -1.546095 0.131062 -1.330988
    11 17.848177 0.000000 0.000000 0.000000 0.000000 0.277290
    12 16.525253 0.000000 0.000000 0.014235 0.127949 -1.240277
    13 -3.882639 -0.023435 -0.269532 -0.971893 -0.246523 -1.904508
    14 17.848173 0.000000 0.000000 0.000000 0.000000 0.289399
    15 16.525257 0.000000 0.000000 0.185136 -0.343852 -1.113351
  time 18
    0 -29.306297 -29.866230 36.746549 1.570796 0.000000 -0.000042
    1 0.210949 3.200592 -3.130343 1.538580 0.140357 1.575650
    2 7.516565 0.109378 0.007813 0.047340 0.028032 0.194686
    3 10.694003 1.432768 -1.937610 -1.627833 1.092608 3.224384
    4 6.028143 0.000001 0.000000 1.352198 0.020593 -0.784343
    5 11.692552 0.000000 0.000002 0.000000 0.000000 -0.218315
    6 10.693996 1.432762 1.937660 1.497208 -1.137553 3.289483
    7 6.028142 0.000001 0.000000 -1.106340 -0.353262 -0.963538
    8 11.692555 0.000000 0.000000 0.000000 0.000000 -0.754176
    9 15.016353 2.940015 0.000000 3.159031 -0.006915 0.292640
    10 3.882639 0.003902 0.269537 -1.546186 0.186226 -1.278667
    11 17.848177 0.000000 0.000000 0.000000 0.000000 0.250795
    12 16.525253 0.000000 0.000000 0.024935 0.124551 -1.205621
    13 -3.882639 -0.003903 -0.269532 -1.001189 -0.270782 -1.922121
    14 17.848173 0.000000 0.000000 0.000000 0.000000 0.323040
    15 16.525257 0.000000 0.000000 0.195775 -0.301308 -1.171966
  time 19
    0 -31.001354 -31.565181 36.543418 1.570796 0.000000 -0.000042
    1 0.238294 3.200592 -3.130343 1.537846 0.140520 1.571144
    2 7.516565 0.109378 -0.023438 0.060188 0.036889 0.195384
    3 10.694003 1.432768 -1.937610 -1.630959 1.094004 3.220521
    4 6.028143 0.000001 0.000000 1.361311 0.042754 -0.791799
    5 11.692552 0.000000 0.000002 0.000000 0.000000 -0.198926
    6 10.697902 1.432762 1.937660 1.500640 -1.136188 3.285361
    7 6.028142 0.000001 0.000000 -1.100102 -0.331974 -0.956735
    8 11.692555 0.000000 0.000000 0.000000 0.000000 -0.779249
    9 15.016353 2.936108 0.000000 3.150431 -0.010546 0.291180
    10 3.882639 -0.019536 0.273443 -1.546643 0.187663 -1.229862
    11 17.848177 0.000000 0.000000 0.000000 0.000000 0.308497
    12 16.525253 0.000000 0.000000 0.041484 0.123168 -1.111196
    13 -3.882639 0.019535 -0.273439 -1.029307 -0.297883 -1.928550
    14 17.848173 0.000000 0.000000 0.000000 0.000000 0.404073
    15 16.525257 0.000000 0.000000 0.167498 -0.260150 -1.227875
  time 20
    0 -32.688598 -33.260224 36.512167 1.570796 0.000000 -0.000042
    1 0.269544 3.196686 -3.130343 1.536223 0.140637 1.563509
    2 7.516565 0.109378 -0.070315 0.074243 0.048789 0.197818
    3 10.694003 1.432768 -1.937610 -1.636327 1.096505 3.214908
    4 6.028143 0.000001 0.000000 1.368585 0.074683 -0.798324
    5 11.692552 0.000000 0.000002 0.000000 0.000000 -0.185637
    6 10.697902 1.432762 1.937660 1.506551 -1.133695 3.279417
    7 6.028142 0.000001 0.000000 -1.097378 -0.305743 -0.947875
    8 11.692555 0.000000 0.000000 0.000000 0.000000 -0.780150
    9 15.016353 2.940015 -0.003906 3.141535 -0.013399 0.291502
    10 3.882639 -0.054693 0.281256 -1.547101 0.137885 -1.194009
    11 17.848177 0.000000 0.000000 0.000000 0.000000 0.434252
    12 16.525253 0.000000 0.000000 0.059917 0.123921 -0.993133
    13 -3.882639 0.054693 -0.281252 -1.057243 -0.317290 -1.915076
    14 17.848173 0.000000 0.000000 0.000000 0.000000 0.502295
    15 16.525257 0.000000 0.000000 0.114105 -0.223456 -1.245697
  time 21
    0 -34.371935 -34.943549 36.629358 1.570796 0.000000 -0.000042
    1 0.308608 3.192779 -3.126437 1.533866 0.140684 1.554389
    2 7.512659 0.113285 -0.117191 0.088557 0.061061 0.201288
    3 10.690096 1.436674 -1.937610 -1.643523 1.099864 3.208390
    4 6.028143 0.000001 0.000000 1.372431 0.114215 -0.803916
    5 11.692552 0.000000 0.000002 0.000000 0.000000 -0.180917
    6 10.693996 1.436668 1.937660 1.514177 -1.130313 3.272611
    7 6.028142 0.000001 0.000000 -1.098913 -0.275585 -0.937077
    8 11.692555 0.000000 0.000000 0.000000 0.000000 -0.758605
    9 15.012447 2.947827 -0.003906 3.132786 -0.015268 0.301125
    10 3.878733 -0.089850 0.289068 -1.547467 0.010365 -1.181487
    11 17.848177 0.000000 0.000000 0.000000 0.000000 0.672708
    12 16.525253 0.000000 0.000000 0.077860 0.130634 -0.911969
    13 -3.878733 0.089850 -0.289064 -1.087356 -0.311564 -1.875182
    14 17.848173 0.000000 0.000000 0.000000 0.000000 0.556399
    15 16.525257 0.000000 0.000000 0.052821 -0.186200 -1.177745
  time 22
    0 -36.047460 -36.619061 36.910617 1.570796 0.000000 -0.000042
    1 0.339859 3.192779 -3.126437 1.530890 0.140637 1.546000
    2 7.512659 0.121098 -0.156255 0.101980 0.070469 0.204611
    3 10.686190 1.440580 -1.937610 -1.652135 1.103819 3.201268
    4 6.028143 0.000001 0.000000 1.374271 0.158307 -0.808110
    5 11.692552 0.000000 0.000002 0.000000 0.000000 -0.195949
    6 10.693996 1.440574 1.937660 1.523138 -1.126238 3.265325
    7 6.028142 0.000001 0.000000 -1.105003 -0.241541 -0.924459
    8 11.692555 0.000000 0.000000 0.000000 0.000000 -0.716415
    9 15.004634 2.963453 -0.007813 3.124631 -0.015999 0.311543
    10 3.878733 -0.117195 0.300787 -1.547284 -0.109390 -1.196068
    11 17.848177 0.000000 0.000000 0.000000 0.000000 0.843111
    12 16.525253 0.000000 0.000000 0.093696 0.135964 -0.822605
    13 -3.878733 0.117195 -0.300783 -1.119918 -0.270170 -1.817586
    14 17.848173 0.000000 0.000000 0.000000 0.000000 0.558854
    15 16.525257 0.000000 0.000000 0.035541 -0.149667 -1.205015
  time 23
    0 -37.707359 -38.278947 37.301254 1.570796 0.000000 -0.000042
    1 0.363297 3.188873 -3.126437 1.527503 0.140497 1.539312
    2 7.512659 0.132817 -0.179693 0.113764 0.075910 0.207468
    3 10.682283 1.444487 -1.937610 -1.661867 1.108181 3.191973
    4 6.028143 0.000001 0.000000 1.374605 0.203091 -0.810906
    5 11.692552 0.000000 0.000002 0.000000 0.000000 -0.225286
    6 10.690089 1.444481 1.937660 1.532766 -1.121686 3.256313
    7 6.028142 0.000001 0.000000 -1.114460 -0.202891 -0.910893
    8 11.692555 0.000000 0.000000 0.000000 0.000000 -0.656283
    9 15.000727 2.975172 -0.011719 3.117415 -0.015388 0.314336
    10 3.878733 -0.132821 0.312507 -1.546460 -0.210741 -1.238439
    11 17.848177 0.000000 0.000000 0.000000 0.000000 0.952953
    12 16.525253 0.000000 0.000000 0.098074 0.136432 -0.794259
    13 -3.878733 0.132820 -0.312503 -1.149850 -0.201283 -1.749775
    14 17.848173 0.000000 0.000000 0.000000 0.000000 0.508761
    15 16.525257 0.000000 0.000000 0.026686 -0.117055 -1.244029
  time 24
    0 -39.336007 -39.903676 37.676265 1.570796 0.000000 -0.000042
    1 0.367204 3.188873 -3.126437 1.523870 0.140287 1.537587
    2 7.512659 0.136723 -0.175787 0.122675 0.072866 0.208780
    3 10.682283 1.444487 -1.937610 -1.672131 1.112703 3.180807
    4 6.028143 0.000001 0.000000 1.372766 0.246262 -0.814634
    5 11.692552 0.000000 0.000002 0.000000 0.000000 -0.274521
    6 10.690089 1.444481 1.937660 1.542490 -1.116852 3.245768
    7 6.028142 0.000001 0.000000 -1.125798 -0.160165 -0.895744
    8 11.692555 0.000000 0.000000 0.000000 0.000000 -0.579111
    9 15.000727 2.975172 -0.011719 3.111633 -0.013267 0.313777
    10 3.874826 -0.128914 0.324226 -1.545454 -0.290548 -1.314948
    11 17.848177 0.000000 0.000000 0.000000 0.000000 1.007102
    12 16.525253 0.000000 0.000000 0.085385 0.127094 -0.875647
    13 -3.874826 0.128914 -0.324222 -1.172797 -0.115304 -1.679058
    14 17.848173 0.000000 0.000000 0.000000 0.000000 0.418315
    15 16.525257 0.000000 0.000000 0.013797 -0.087639 -1.258887
  time 25
    0 -40.906060 -41.458090 37.930179 1.570796 0.000000 -0.000042
    1 0.355485 3.192779 -3.126437 1.520173 0.140006 1.541062
    2 7.512659 0.136723 -0.136723 0.128078 0.061397 0.207934
    3 10.682283 1.444487 -1.941516 -1.682571 1.117196 3.169158
    4 6.028143 0.000001 0.000000 1.368752 0.286346 -0.819481
    5 11.692552 0.000000 0.000002 0.000000 0.000000 -0.341329
    6 10.690089 1.444481 1.933754 1.552023 -1.111953 3.235127
    7 6.028142 0.000001 0.000000 -1.137433 -0.115477 -0.879567
    8 11.692555 0.000000 0.000000 0.000000 0.000000 -0.499236
    9 15.000727 2.975172 -0.011719 3.107629 -0.009743 0.312316
    10 3.874826 -0.101570 0.335945 -1.544265 -0.357158 -1.415645
    11 17.848177 0.000000 0.000000 0.000000 0.000000 1.002467
    12 16.525253 0.000000 0.000000 0.073304 0.105856 -0.977695
    13 -3.874826 0.101569 -0.335941 -1.186402 -0.019665 -1.609310
    14 17.848173 0.000000 0.000000 0.000000 0.000000 0.302414
    15 16.525257 0.000000 0.000000 -0.002483 -0.063311 -1.256664
  time 26
    0 -42.448768 -42.977348 38.027838 1.570796 0.000000 -0.000042
    1 0.339859 3.196686 -3.122530 1.516631 0.139679 1.545077
    2 7.512659 0.132817 -0.093753 0.130464 0.048861 0.206177
    3 10.682283 1.444487 -1.941516 -1.692539 1.121427 3.157751
    4 6.028143 0.000001 0.000000 1.363485 0.321316 -0.823116
    5 11.692552 0.000000 0.000002 0.000000 0.000000 -0.412422
    6 10.693996 1.440574 1.933754 1.560602 -1.107249 3.225061
    7 6.028142 0.000001 0.000000 -1.149414 -0.071996 -0.865921
    8 11.692555 0.000000 0.000000 0.000000 0.000000 -0.429495
    9 15.000727 2.971266 -0.015625 3.105702 -0.005405 0.310168
    10 3.874826 -0.070319 0.347664 -1.543533 -0.398632 -1.525090
    11 17.848177 0.000000 0.000000 0.000000 0.000000 0.924836
    12 16.525253 0.000000 0.000000 0.071775 0.081809 -1.062350
    13 -3.874826 0.070318 -0.347660 -1.189940 0.046206 -1.554797
    14 17.848173 0.000000 0.000000 0.000000 0.000000 0.244627
    15 16.525257 0.000000 0.000000 -0.023708 -0.044692 -1.249365
end
