// Created by Crowbar 0.74
version 1
nodes
  0 "ValveBiped.Bip01" -1
  1 "ValveBiped.Bip01_Spine" 0
  2 "ValveBiped.Bip01_Spine2" 1
  3 "ValveBiped.Bip01_R_Clavicle" 2
  4 "ValveBiped.Bip01_R_UpperArm" 3
  5 "ValveBiped.Bip01_R_Forearm" 4
  6 "ValveBiped.Bip01_L_Clavicle" 2
  7 "ValveBiped.Bip01_L_UpperArm" 6
  8 "ValveBiped.Bip01_L_Forearm" 7
  9 "ValveBiped.Bip01_Head1" 2
  10 "ValveBiped.Bip01_L_Thigh" 0
  11 "ValveBiped.Bip01_L_Calf" 10
  12 "ValveBiped.Bip01_L_Foot" 11
  13 "ValveBiped.Bip01_R_Thigh" 0
  14 "ValveBiped.Bip01_R_Calf" 13
  15 "ValveBiped.Bip01_R_Foot" 14
end
skeleton
  time 0
    0 -0.002349 -0.531261 37.664546 1.570796 0.000000 -0.000042
    1 -0.718767 3.286532 -2.962369 1.798791 0.102017 1.619489
    2 7.508752 0.121098 -0.199225 -0.061079 0.029614 0.200103
    3 10.686190 1.436674 -1.941516 -1.692539 1.121427 3.154552
    4 6.028143 0.000001 0.000000 1.458800 0.339976 -0.848653
    5 11.692552 0.000000 0.000002 0.000000 0.000000 -0.412422
    6 10.697902 1.436668 1.933754 1.560602 -1.107249 3.221802
    7 6.028142 0.000001 0.000000 -1.083070 -0.133330 -0.786617
    8 11.692555 0.000000 0.000000 0.000000 0.000000 -0.429495
    9 15.012447 2.951734 -0.015625 3.015451 0.018121 0.282480
    10 3.761542 -0.066412 -0.992221 -2.602312 0.042593 -1.307743
    11 17.848177 0.000000 0.000000 0.000000 0.000000 0.780001
    12 16.525253 0.000000 0.000000 -0.003263 0.343469 -1.204243
    13 -3.761542 0.066412 0.992225 -1.908297 -0.237781 -1.477827
    14 17.848173 0.000000 0.000000 0.000000 0.000000 0.458914
    15 16.525257 0.000000 0.000000 -0.046755 -0.060596 -1.188527
  time 1
    0 1.601777 -0.566422 37.895022 1.570796 0.000000 -0.000042
    1 -0.726580 3.286532 -2.962369 1.795699 0.103232 1.619717
    2 7.512659 0.121098 -0.179693 -0.061165 0.022962 0.198791
    3 10.686190 1.436674 -1.941516 -1.701682 1.125266 3.144231
    4 6.028143 0.000001 0.000000 1.453699 0.365086 -0.845950
    5 11.692552 0.000000 0.000002 0.000000 0.000000 -0.486056
    6 10.697902 1.436668 1.933754 1.568229 -1.102914 3.213078
    7 6.028142 0.000001 0.000000 -1.095596 -0.090755 -0.775463
    8 11.692555 0.000000 0.000000 0.000000 0.000000 -0.369513
    9 15.012447 2.951734 -0.015625 3.015797 0.022903 0.281084
    10 3.765448 -0.050787 -0.980502 -2.565351 0.046722 -1.262541
    11 17.848177 0.000000 0.000000 0.000000 0.000000 0.683986
    12 16.525253 0.000000 0.000000 -0.119813 0.339563 -1.290404
    13 -3.765448 0.050786 0.980506 -1.902855 -0.210156 -1.535775
    14 17.848173 0.000000 0.000000 0.000000 0.000000 0.399571
    15 16.525257 0.000000 0.000000 -0.010980 -0.087800 -1.176449
  time 2
    0 3.190277 -0.582050 38.039558 1.570796 0.000000 -0.000042
    1 -0.726580 3.282626 -2.966275 1.793085 0.104377 1.618147
    2 7.512659 0.117191 -0.164068 -0.064240 0.019283 0.197394
    3 10.686190 1.436674 -1.941516 -1.709350 1.128436 3.135540
    4 6.028143 0.000001 0.000000 1.447429 0.380613 -0.842781
    5 11.692552 0.000000 0.000002 0.000000 0.000000 -0.563611
    6 10.697902 1.436668 1.933754 1.574425 -1.099294 3.205696
    7 6.028142 0.000001 0.000000 -1.107132 -0.054823 -0.769372
    8 11.692555 0.000000 0.000000 0.000000 0.000000 -0.319291
    9 15.012447 2.947827 -0.015625 3.018565 0.027768 0.279494
    10 3.769354 -0.039068 -0.972689 -2.524914 0.055520 -1.241527
    11 17.848177 0.000000 0.000000 0.000000 0.000000 0.536525
    12 16.525253 0.000000 0.000000 -0.214665 0.301439 -1.308629
    13 -3.769354 0.039067 0.972693 -1.891336 -0.178728 -1.594779
    14 17.848173 0.000000 0.000000 0.000000 0.000000 0.330243
    15 16.525257 0.000000 0.000000 0.021420 -0.118985 -1.158850
  time 3
    0 4.778778 -0.578147 38.074715 1.570796 0.000000 -0.000042
    1 -0.734392 3.282626 -2.966275 1.791114 0.105451 1.617440
    2 7.512659 0.113285 -0.148442 -0.070564 0.014933 0.196103
    3 10.686190 1.436674 -1.941516 -1.714836 1.130733 3.129021
    4 6.028143 0.000001 0.000000 1.439737 0.383008 -0.842968
    5 11.692552 0.000000 0.000002 0.000000 0.000000 -0.639424
    6 10.697902 1.432762 1.933754 1.578715 -1.096650 3.200328
    7 6.028142 0.000001 0.000000 -1.116490 -0.032403 -0.767908
    8 11.692555 0.000000 0.000000 0.000000 0.000000 -0.277927
    9 15.016353 2.943921 -0.015625 3.023458 0.032514 0.277819
    10 3.769354 -0.027349 -0.964876 -2.479171 0.064946 -1.221371
    11 17.848177 0.000000 0.000000 0.000000 0.000000 0.409611
    12 16.525253 0.000000 0.000000 -0.286141 0.251373 -1.295433
    13 -3.769354 0.027348 0.964880 -1.875463 -0.150710 -1.652550
    14 17.848173 0.000000 0.000000 0.000000 0.000000 0.266563
    15 16.525257 0.000000 0.000000 0.051410 -0.153970 -1.140806
  time 4
    0 6.375091 -0.550805 37.980962 1.570796 0.000000 -0.000042
    1 -0.746112 3.278720 -2.966275 1.789967 0.106409 1.617979
    2 7.512659 0.109378 -0.125004 -0.079560 0.009576 0.195151
    3 10.690096 1.436674 -1.941516 -1.717549 1.131954 3.125521
    4 6.028143 0.000001 0.000000 1.429787 0.374070 -0.845484
    5 11.692552 0.000000 0.000002 0.000000 0.000000 -0.705433
    6 10.701809 1.432762 1.933754 1.580812 -1.095241 3.197452
    7 6.028142 0.000001 0.000000 -1.126689 -0.024553 -0.771033
    8 11.692555 0.000000 0.000000 0.000000 0.000000 -0.244671
    9 15.016353 2.940015 -0.015625 3.029982 0.037008 0.276208
    10 3.769354 -0.011723 -0.964876 -2.431872 0.087747 -1.222314
    11 17.848177 0.000000 0.000000 0.000000 0.000000 0.269102
    12 16.525253 0.000000 0.000000 -0.333545 0.198846 -1.245498
    13 -3.769354 0.011723 0.964880 -1.856506 -0.137028 -1.706183
    14 17.848173 0.000000 0.000000 0.000000 0.000000 0.231776
    15 16.525257 0.000000 0.000000 0.079419 -0.192774 -1.131210
  time 5
    0 7.990936 -0.464868 37.773924 1.570796 0.000000 -0.000042
    1 -0.761737 3.274813 -2.966275 1.789813 0.107157 1.620089
    2 7.516565 0.109378 -0.097659 -0.090655 0.002996 0.194770
    3 10.690096 1.432768 -1.941516 -1.717018 1.131925 3.125762
    4 6.028143 0.000001 0.000000 1.418416 0.355825 -0.848187
    5 11.692552 0.000000 0.000002 0.000000 0.000000 -0.753724
    6 10.701809 1.432762 1.933754 1.580431 -1.095306 3.197548
    7 6.028142 0.000001 0.000000 -1.135700 -0.032743 -0.778588
    8 11.692555 0.000000 0.000000 0.000000 0.000000 -0.218621
    9 15.016353 2.940015 -0.011719 3.037693 0.041083 0.274811
    10 3.769354 0.003902 -0.964876 -2.386311 0.103637 -1.232092
    11 17.848177 0.000000 0.000000 0.000000 0.000000 0.183747
    12 16.525253 0.000000 0.000000 -0.349499 0.143898 -1.217248
    13 -3.769354 -0.003903 0.964880 -1.835191 -0.142842 -1.755588
    14 17.848173 0.000000 0.000000 0.000000 0.000000 0.234068
    15 16.525257 0.000000 0.000000 0.105715 -0.235681 -1.131506
  time 6
    0 9.665376 -0.269553 37.566887 1.570796 0.000000 -0.000042
    1 -0.785175 3.270907 -2.966275 1.790624 0.107694 1.624020
    2 7.516565 0.109378 -0.066408 -0.103302 -0.004938 0.195659
    3 10.690096 1.432768 -1.937610 -1.713302 1.130675 3.129685
    4 6.028143 0.000001 0.000000 1.407296 0.330024 -0.850144
    5 11.692552 0.000000 0.000002 0.000000 0.000000 -0.779067
    6 10.697902 1.432762 1.937660 1.577666 -1.096801 3.200616
    7 6.028142 0.000001 0.000000 -1.141641 -0.054294 -0.789742
    8 11.692555 0.000000 0.000000 0.000000 0.000000 -0.199178
    9 15.016353 2.936108 -0.011719 3.046194 0.044607 0.273845
    10 3.769354 0.023434 -0.968783 -2.341391 0.088600 -1.224201
    11 17.848177 0.000000 0.000000 0.000000 0.000000 0.198269
    12 16.525253 0.000000 0.000000 -0.341188 0.092815 -1.222116
    13 -3.769354 -0.023435 0.968787 -1.811972 -0.148524 -1.806666
    14 17.848173 0.000000 0.000000 0.000000 0.000000 0.226456
    15 16.525257 0.000000 0.000000 0.133777 -0.269821 -1.108423
  time 7
    0 11.519510 0.007796 37.418445 1.570796 0.000000 -0.000042
    1 -0.816426 3.263094 -2.966275 1.792273 0.107975 1.630335
    2 7.516565 0.109378 -0.023438 -0.117012 -0.014837 0.197902
    3 10.690096 1.436674 -1.937610 -1.706991 1.128407 3.136928
    4 6.028143 0.000001 0.000000 1.397848 0.298279 -0.850704
    5 11.692552 0.000000 0.000002 0.000000 0.000000 -0.780302
    6 10.697902 1.432762 1.937660 1.572804 -1.099468 3.206463
    7 6.028142 0.000001 0.000000 -1.143572 -0.086490 -0.803348
    8 11.692555 0.000000 0.000000 0.000000 0.000000 -0.185740
    9 15.016353 2.940015 -0.007813 3.055090 0.047435 0.273952
    10 3.765448 0.054685 -0.976595 -2.306809 0.025850 -1.216053
    11 17.848177 0.000000 0.000000 0.000000 0.000000 0.331130
    12 16.525253 0.000000 0.000000 -0.301057 0.052698 -1.246971
    13 -3.765448 -0.054686 0.976599 -1.788027 -0.151933 -1.856512
    14 17.848173 0.000000 0.000000 0.000000 0.000000 0.204029
    15 16.525257 0.000000 0.000000 0.168891 -0.273621 -1.044844
  time 8
    0 13.393175 0.296864 37.340317 1.570796 0.000000 -0.000042
    1 -0.851583 3.255281 -2.962369 1.794617 0.107975 1.639228
    2 7.516565 0.113285 0.019532 -0.131211 -0.026881 0.200865
    3 10.690096 1.436674 -1.937610 -1.698792 1.125324 3.147309
    4 6.028143 0.000001 0.000000 1.391160 0.262295 -0.849772
    5 11.692552 0.000000 0.000002 0.000000 0.000000 -0.759170
    6 10.693996 1.436668 1.937660 1.566227 -1.103023 3.215283
    7 6.028142 0.000001 0.000000 -1.140502 -0.126913 -0.818259
    8 11.692555 0.000000 0.000000 0.000000 0.000000 -0.180710
    9 15.012447 2.947827 -0.007813 3.063888 0.049377 0.281449
    10 3.765448 0.085936 -0.984408 -2.284395 -0.012796 -1.248904
    11 17.848177 0.000000 0.000000 0.000000 0.000000 0.382344
    12 16.525253 0.000000 0.000000 -0.257186 0.022101 -1.194186
    13 -3.765448 -0.085936 0.984412 -1.766349 -0.190748 -1.888920
    14 17.848173 0.000000 0.000000 0.000000 0.000000 0.245609
    15 16.525257 0.000000 0.000000 0.201131 -0.255365 -0.965630
  time 9
    0 15.278559 0.546869 37.363756 1.570796 0.000000 -0.000042
    1 -0.886741 3.247469 -2.962369 1.797529 0.107647 1.648672
    2 7.516565 0.121098 0.062502 -0.144864 -0.038087 0.203680
    3 10.686190 1.440580 -1.937610 -1.689236 1.121616 3.159924
    4 6.028143 0.000001 0.000000 1.388150 0.223455 -0.846696
    5 11.692552 0.000000 0.000002 0.000000 0.000000 -0.717270
    6 10.690089 1.440574 1.937660 1.558219 -1.107228 3.226403
    7 6.028142 0.000001 0.000000 -1.134165 -0.172847 -0.833329
    8 11.692555 0.000000 0.000000 0.000000 0.000000 -0.195574
    9 15.004634 2.963453 -0.003906 3.072191 0.050227 0.293027
    10 3.761542 0.117187 -0.996127 -2.273599 -0.032905 -1.296679
    11 17.848177 0.000000 0.000000 0.000000 0.000000 0.400342
    12 16.525253 0.000000 0.000000 -0.224579 -0.008862 -1.175416
    13 -3.761542 -0.117187 0.996131 -1.748934 -0.263352 -1.900633
    14 17.848173 0.000000 0.000000 0.000000 0.000000 0.345959
    15 16.525257 0.000000 0.000000 0.227658 -0.225990 -0.865370
  time 10
    0 17.160037 0.726559 37.473134 1.570796 0.000000 -0.000042
    1 -0.910179 3.243562 -2.958463 1.800826 0.107017 1.654952
    2 7.512659 0.128910 0.085940 -0.156620 -0.043180 0.206071
    3 10.686190 1.444487 -1.937610 -1.678914 1.117443 3.172538
    4 6.028143 0.000001 0.000000 1.388986 0.183141 -0.841011
    5 11.692552 0.000000 0.000002 0.000000 0.000000 -0.657578
    6 10.690089 1.440574 1.937660 1.549353 -1.111845 3.237620
    7 6.028142 0.000001 0.000000 -1.125501 -0.221687 -0.848438
    8 11.692555 0.000000 0.000000 0.000000 0.000000 -0.224552
    9 15.000727 2.971266 -0.003906 3.079457 0.049748 0.296399
    10 3.757635 0.132813 -1.007846 -2.277533 -0.042241 -1.349085
    11 17.848177 0.000000 0.000000 0.000000 0.000000 0.409920
    12 16.525253 0.000000 0.000000 -0.188084 -0.035654 -1.205621
    13 -3.757635 -0.132813 1.007850 -1.736780 -0.337004 -1.877207
    14 17.848173 0.000000 0.000000 0.000000 0.000000 0.462188
    15 16.525257 0.000000 0.000000 0.251025 -0.164425 -0.816908
  time 11
    0 19.029796 0.847653 37.625482 1.570796 0.000000 -0.000042
    1 -0.917992 3.243562 -2.954556 1.804343 0.106152 1.657936
    2 7.512659 0.132817 0.085940 -0.165875 -0.042354 0.207193
    3 10.686190 1.444487 -1.937610 -1.668474 1.112979 3.184368
    4 6.028143 0.000001 0.000000 1.391912 0.143057 -0.834207
    5 11.692552 0.000000 0.000002 0.000000 0.000000 -0.580749
    6 10.686183 1.440574 1.937660 1.539725 -1.116679 3.248452
    7 6.028142 0.000001 0.000000 -1.114658 -0.270377 -0.863389
    8 11.692555 0.000000 0.000000 0.000000 0.000000 -0.273348
    9 15.000727 2.971266 0.000000 3.085289 0.047699 0.295927
    10 3.753729 0.132813 -1.019565 -2.284212 -0.047089 -1.402436
    11 17.848177 0.000000 0.000000 0.000000 0.000000 0.413473
    12 16.525253 0.000000 0.000000 -0.150669 -0.057992 -1.235665
    13 -3.753729 -0.132813 1.019569 -1.732789 -0.438631 -1.802527
    14 17.848173 0.000000 0.000000 0.000000 0.000000 0.654293
    15 16.525257 0.000000 0.000000 0.244331 -0.076480 -0.864778
  time 12
    0 20.872211 0.910152 37.781737 1.570796 0.000000 -0.000042
    1 -0.917992 3.247469 -2.954556 1.807885 0.105124 1.658655
    2 7.516565 0.132817 0.074221 -0.172285 -0.037512 0.206558
    3 10.686190 1.444487 -1.937610 -1.658269 1.108428 3.195534
    4 6.028143 0.000001 0.000000 1.395256 0.105783 -0.828242
    5 11.692552 0.000000 0.000002 0.000000 0.000000 -0.500870
    6 10.686183 1.440574 1.937660 1.530002 -1.121513 3.258998
    7 6.028142 0.000001 0.000000 -1.102181 -0.316613 -0.877352
    8 11.692555 0.000000 0.000000 0.000000 0.000000 -0.339860
    9 15.000727 2.971266 0.000000 3.089342 0.044355 0.294402
    10 3.749823 0.125000 -1.031284 -2.294001 -0.044844 -1.458616
    11 17.848177 0.000000 0.000000 0.000000 0.000000 0.401732
    12 16.525253 0.000000 0.000000 -0.112971 -0.074389 -1.252449
    13 -3.749823 -0.125000 1.031288 -1.731701 -0.505289 -1.717631
    14 17.848173 0.000000 0.000000 0.000000 0.000000 0.782308
    15 16.525257 0.000000 0.000000 0.194347 -0.029955 -0.915018
  time 13
    0 22.671655 0.910149 37.902835 1.570796 0.000000 -0.000042
    1 -0.914085 3.251375 -2.950650 1.811298 0.103956 1.657684
    2 7.516565 0.132817 0.046876 -0.175418 -0.029830 0.205119
    3 10.686190 1.444487 -1.937610 -1.648891 1.103979 3.205553
    4 6.028143 0.000001 0.000000 1.399939 0.074545 -0.824514
    5 11.692552 0.000000 0.000002 0.000000 0.000000 -0.430285
    6 10.686183 1.440574 1.937660 1.520564 -1.126130 3.268968
    7 6.028142 0.000001 0.000000 -1.088516 -0.358697 -0.889613
    8 11.692555 0.000000 0.000000 0.000000 0.000000 -0.411553
    9 15.004634 2.967359 0.000000 3.091368 0.040136 0.292017
    10 3.749823 0.105468 -1.043004 -2.311109 -0.037663 -1.514197
    11 17.848177 0.000000 0.000000 0.000000 0.000000 0.382112
    12 16.525253 0.000000 0.000000 -0.074027 -0.081489 -1.259880
    13 -3.749823 -0.105468 1.043008 -1.732608 -0.529592 -1.630622
    14 17.848173 0.000000 0.000000 0.000000 0.000000 0.832647
    15 16.525257 0.000000 0.000000 0.128439 -0.029150 -0.948920
  time 14
    0 24.424223 0.843738 37.977056 1.570796 0.000000 -0.000042
    1 -0.898460 3.255281 -2.946744 1.814390 0.102694 1.655551
    2 7.516565 0.128910 0.015625 -0.175016 -0.020458 0.203130
    3 10.690096 1.440580 -1.937610 -1.640751 1.099893 3.214003
    4 6.028143 0.000001 0.000000 1.407631 0.051554 -0.824048
    5 11.692552 0.000000 0.000002 0.000000 0.000000 -0.370158
    6 10.690089 1.440574 1.937660 1.511984 -1.130313 3.277691
    7 6.028142 0.000001 0.000000 -1.074207 -0.393836 -0.899501
    8 11.692555 0.000000 0.000000 0.000000 0.000000 -0.485122
    9 15.004634 2.963453 0.000000 3.091072 0.035426 0.288967
    10 3.745916 0.082030 -1.050816 -2.339196 -0.027294 -1.567290
    11 17.848177 0.000000 0.000000 0.000000 0.000000 0.361101
    12 16.525253 0.000000 0.000000 -0.032753 -0.076809 -1.261609
    13 -3.745916 -0.082030 1.050820 -1.736780 -0.520588 -1.545902
    14 17.848173 0.000000 0.000000 0.000000 0.000000 0.824789
    15 16.525257 0.000000 0.000000 0.054713 -0.078169 -0.969742
  time 15
    0 26.165072 0.726543 37.984868 1.570796 0.000000 -0.000042
    1 -0.886741 3.259188 -2.946744 1.817005 0.101456 1.653801
    2 7.516565 0.125004 -0.011719 -0.171336 -0.011985 0.200907
    3 10.690096 1.440580 -1.937610 -1.634144 1.096462 3.220401
    4 6.028143 0.000001 0.000000 1.415657 0.038101 -0.825818
    5 11.692552 0.000000 0.000002 0.000000 0.000000 -0.319834
    6 10.690089 1.436668 1.937660 1.504739 -1.133738 3.284594
    7 6.028142 0.000001 0.000000 -1.060543 -0.418105 -0.905988
    8 11.692555 0.000000 0.000000 0.000000 0.000000 -0.562670
    9 15.008540 2.959546 0.000000 3.088304 0.030525 0.285423
    10 3.745916 0.058592 -1.058629 -2.380090 -0.015265 -1.617895
    11 17.848177 0.000000 0.000000 0.000000 0.000000 0.341790
    12 16.525253 0.000000 0.000000 0.012231 -0.059843 -1.259015
    13 -3.745916 -0.058592 1.058633 -1.745034 -0.496110 -1.466995
    14 17.848173 0.000000 0.000000 0.000000 0.000000 0.792785
    15 16.525257 0.000000 0.000000 -0.003554 -0.167923 -0.992232
  time 16
    0 27.894201 0.574192 37.898928 1.570796 0.000000 -0.000042
    1 -0.875022 3.263094 -2.946744 1.818963 0.100264 1.652591
    2 7.516565 0.121098 -0.039064 -0.164697 -0.004914 0.198749
    3 10.690096 1.436674 -1.937610 -1.629544 1.093932 3.224445
    4 6.028143 0.000001 0.000000 1.422680 0.030268 -0.829919
    5 11.692552 0.000000 0.000002 0.000000 0.000000 -0.278442
    6 10.690089 1.436668 1.937660 1.499401 -1.136253 3.289099
    7 6.028142 0.000001 0.000000 -1.049056 -0.427428 -0.909271
    8 11.692555 0.000000 0.000000 0.000000 0.000000 -0.638567
    9 15.012447 2.951734 0.000000 3.083411 0.025647 0.281707
    10 3.742010 0.039060 -1.066442 -2.433702 -0.006512 -1.661553
    11 17.848177 0.000000 0.000000 0.000000 0.000000 0.338237
    12 16.525253 0.000000 0.000000 0.061252 -0.031789 -1.258726
    13 -3.742010 -0.039060 1.066446 -1.756644 -0.462497 -1.397423
    14 17.848173 0.000000 0.000000 0.000000 0.000000 0.746785
    15 16.525257 0.000000 0.000000 -0.015425 -0.274003 -1.027134
  time 17
    0 29.607705 0.406215 37.750486 1.570796 0.000000 -0.000042
    1 -0.863303 3.270907 -2.946744 1.820083 0.099190 1.651249
    2 7.516565 0.117191 -0.066408 -0.155614 0.001534 0.197056
    3 10.694003 1.436674 -1.937610 -1.627302 1.092565 3.225833
    4 6.028143 0.000001 0.000000 1.432212 0.029070 -0.835791
    5 11.692552 0.000000 0.000002 0.000000 0.000000 -0.245038
    6 10.693996 1.432762 1.937660 1.496732 -1.137597 3.290921
    7 6.028142 0.000001 0.000000 -1.039154 -0.425352 -0.909034
    8 11.692555 0.000000 0.000000 0.000000 0.000000 -0.704779
    9 15.016353 2.943921 0.000000 3.076837 0.020997 0.278184
    10 3.742010 0.023434 -1.070348 -2.493443 0.000849 -1.701437
    11 17.848177 0.000000 0.000000 0.000000 0.000000 0.342562
    12 16.525253 0.000000 0.000000 0.112025 0.000394 -1.255171
    13 -3.742010 -0.023435 1.070352 -1.770430 -0.419573 -1.339828
    14 17.848173 0.000000 0.000000 0.000000 0.000000 0.684168
    15 16.525257 0.000000 0.000000 0.032202 -0.368161 -1.074448
  time 18
    0 31.313397 0.230425 37.578606 1.570796 0.000000 -0.000042
    1 -0.843771 3.274813 -2.946744 1.820238 0.098349 1.648983
    2 7.516565 0.113285 -0.093753 -0.144462 0.008329 0.196019
    3 10.694003 1.432768 -1.937610 -1.627774 1.092594 3.224445
    4 6.028143 0.000001 0.000000 1.442663 0.042616 -0.841197
    5 11.692552 0.000000 0.000002 0.000000 0.000000 -0.218896
    6 10.693996 1.432762 1.937660 1.497208 -1.137575 3.289579
    7 6.028142 0.000001 0.000000 -1.031678 -0.414633 -0.904525
    8 11.692555 0.000000 0.000000 0.000000 0.000000 -0.753275
    9 15.016353 2.940015 0.000000 3.069078 0.016754 0.275348
    10 3.742010 0.003902 -1.066442 -2.549341 0.008614 -1.742694
    11 17.848177 0.000000 0.000000 0.000000 0.000000 0.342717
    12 16.525253 0.000000 0.000000 0.159829 0.027187 -1.238804
    13 -3.742010 -0.003903 1.066446 -1.785305 -0.365984 -1.294914
    14 17.848173 0.000000 0.000000 0.000000 0.000000 0.597815
    15 16.525257 0.000000 0.000000 0.093718 -0.407066 -1.075078
  time 19
    0 33.007369 0.066355 37.422351 1.570796 0.000000 -0.000042
    1 -0.820333 3.278720 -2.946744 1.819414 0.097765 1.644513
    2 7.512659 0.109378 -0.128910 -0.131671 0.017138 0.195638
    3 10.694003 1.432768 -1.937610 -1.630841 1.093961 3.220642
    4 6.028143 0.000001 0.000000 1.452194 0.067726 -0.845764
    5 11.692552 0.000000 0.000002 0.000000 0.000000 -0.199362
    6 10.697902 1.432762 1.937660 1.500545 -1.136231 3.285552
    7 6.028142 0.000001 0.000000 -1.027420 -0.396818 -0.896377
    8 11.692555 0.000000 0.000000 0.000000 0.000000 -0.778874
    9 15.016353 2.936108 0.000000 3.060527 0.013099 0.273694
    10 3.742010 -0.019536 -1.062535 -2.595634 0.018938 -1.790297
    11 17.848177 0.000000 0.000000 0.000000 0.000000 0.328195
    12 16.525253 0.000000 0.000000 0.199515 0.045740 -1.206037
    13 -3.742010 0.019535 1.062539 -1.801269 -0.312876 -1.261801
    14 17.848173 0.000000 0.000000 0.000000 0.000000 0.511380
    15 16.525257 0.000000 0.000000 0.082615 -0.369649 -1.024726
  time 20
    0 34.697435 -0.058652 37.305160 1.570796 0.000000 -0.000042
    1 -0.785175 3.286532 -2.946744 1.817765 0.097508 1.636951
    2 7.512659 0.109378 -0.175787 -0.117645 0.029111 0.196082
    3 10.694003 1.432768 -1.937610 -1.636150 1.096433 3.214848
    4 6.028143 0.000001 0.000000 1.459803 0.101959 -0.848560
    5 11.692552 0.000000 0.000002 0.000000 0.000000 -0.185855
    6 10.697902 1.432762 1.937660 1.506360 -1.133782 3.279321
    7 6.028142 0.000001 0.000000 -1.026875 -0.373417 -0.885539
    8 11.692555 0.000000 0.000000 0.000000 0.000000 -0.780450
    9 15.016353 2.940015 -0.003906 3.051680 0.010235 0.273523
    10 3.745916 -0.050787 -1.058629 -2.630673 0.025536 -1.819545
    11 17.848177 0.000000 0.000000 0.000000 0.000000 0.336306
    12 16.525253 0.000000 0.000000 0.225800 0.059716 -1.172662
    13 -3.745916 0.050786 1.058633 -1.818321 -0.259243 -1.251585
    14 17.848173 0.000000 0.000000 0.000000 0.000000 0.427155
    15 16.525257 0.000000 0.000000 0.025758 -0.276999 -0.985526
  time 21
    0 36.387501 -0.160221 37.230939 1.570796 0.000000 -0.000042
    1 -0.750018 3.294345 -2.950650 1.815433 0.097601 1.627939
    2 7.508752 0.109378 -0.222663 -0.103359 0.041539 0.197416
    3 10.690096 1.436674 -1.937610 -1.643287 1.099748 3.207364
    4 6.028143 0.000001 0.000000 1.463900 0.142642 -0.850051
    5 11.692552 0.000000 0.000002 0.000000 0.000000 -0.180627
    6 10.697902 1.432762 1.937660 1.513986 -1.130422 3.271556
    7 6.028142 0.000001 0.000000 -1.030589 -0.344920 -0.872249
    8 11.692555 0.000000 0.000000 0.000000 0.000000 -0.759506
    9 15.016353 2.940015 -0.003906 3.042882 0.008329 0.277561
    10 3.745916 -0.085944 -1.046910 -2.653179 -0.007006 -1.748183
    11 17.848177 0.000000 0.000000 0.000000 0.000000 0.512038
    12 16.525253 0.000000 0.000000 0.239765 0.058699 -1.129934
    13 -3.745916 0.085944 1.046914 -1.837640 -0.222745 -1.267966
    14 17.848173 0.000000 0.000000 0.000000 0.000000 0.378617
    15 16.525257 0.000000 0.000000 -0.068926 -0.142509 -0.998901
  time 22
    0 38.077567 -0.257883 37.187969 1.570796 0.000000 -0.000042
    1 -0.714861 3.298251 -2.950650 1.812535 0.098045 1.619681
    2 7.504846 0.113285 -0.261727 -0.089965 0.051102 0.199151
    3 10.690096 1.436674 -1.937610 -1.651899 1.103703 3.198672
    4 6.028143 0.000001 0.000000 1.465990 0.186412 -0.849958
    5 11.692552 0.000000 0.000002 0.000000 0.000000 -0.195368
    6 10.697902 1.436668 1.937660 1.522852 -1.126368 3.262736
    7 6.028142 0.000001 0.000000 -1.038461 -0.311253 -0.856824
    8 11.692555 0.000000 0.000000 0.000000 0.000000 -0.717917
    9 15.012447 2.947827 -0.007813 3.034678 0.007562 0.283511
    10 3.749823 -0.113289 -1.039097 -2.664889 -0.031065 -1.638395
    11 17.848177 0.000000 0.000000 0.000000 0.000000 0.716660
    12 16.525253 0.000000 0.000000 0.233606 0.077761 -1.114015
    13 -3.749823 0.113288 1.039101 -1.858320 -0.216538 -1.295706
    14 17.848173 0.000000 0.000000 0.000000 0.000000 0.385738
    15 16.525257 0.000000 0.000000 -0.167591 -0.029593 -1.052254
  time 23
    0 39.775446 -0.339920 37.180156 1.570796 0.000000 -0.000042
    1 -0.691422 3.302158 -2.954556 1.809276 0.098769 1.613114
    2 7.504846 0.121098 -0.289071 -0.078152 0.056711 0.200780
    3 10.686190 1.436674 -1.937610 -1.661572 1.108036 3.188593
    4 6.028143 0.000001 0.000000 1.466993 0.230320 -0.848467
    5 11.692552 0.000000 0.000002 0.000000 0.000000 -0.224124
    6 10.697902 1.436668 1.937660 1.532480 -1.121816 3.252862
    7 6.028142 0.000001 0.000000 -1.049205 -0.272566 -0.840370
    8 11.692555 0.000000 0.000000 0.000000 0.000000 -0.658385
    9 15.012447 2.951734 -0.011719 3.027412 0.008114 0.284864
    10 3.749823 -0.128914 -1.027378 -2.667268 -0.017195 -1.541472
    11 17.848177 0.000000 0.000000 0.000000 0.000000 0.824804
    12 16.525253 0.000000 0.000000 0.212190 0.139138 -1.095661
    13 -3.749823 0.128914 1.027382 -1.878638 -0.234240 -1.330757
    14 17.848173 0.000000 0.000000 0.000000 0.000000 0.436486
    15 16.525257 0.000000 0.000000 -0.184211 0.002396 -1.117834
  time 24
    0 41.481137 -0.418050 37.223126 1.570796 0.000000 -0.000042
    1 -0.687516 3.298251 -2.958463 1.805785 0.099727 1.611448
    2 7.504846 0.125004 -0.281259 -0.069155 0.053979 0.201564
    3 10.686190 1.436674 -1.937610 -1.671777 1.112558 3.177427
    4 6.028143 0.000001 0.000000 1.466241 0.271326 -0.847814
    5 11.692552 0.000000 0.000002 0.000000 0.000000 -0.272633
    6 10.697902 1.436668 1.937660 1.542204 -1.117004 3.242317
    7 6.028142 0.000001 0.000000 -1.060889 -0.228708 -0.822412
    8 11.692555 0.000000 0.000000 0.000000 0.000000 -0.581738
    9 15.012447 2.951734 -0.011719 3.021580 0.010175 0.284478
    10 3.753729 -0.125008 -1.015659 -2.657753 0.007806 -1.442749
    11 17.848177 0.000000 0.000000 0.000000 0.000000 0.868447
    12 16.525253 0.000000 0.000000 0.176808 0.223279 -1.070422
    13 -3.753729 0.125007 1.015663 -1.895780 -0.255353 -1.370210
    14 17.848173 0.000000 0.000000 0.000000 0.000000 0.489280
    15 16.525257 0.000000 0.000000 -0.136512 -0.014634 -1.164889
  time 25
    0 43.202454 -0.480555 37.406726 1.570796 0.000000 -0.000042
    1 -0.699235 3.294345 -2.958463 1.802269 0.100825 1.615055
    2 7.508752 0.125004 -0.246101 -0.063579 0.042677 0.201119
    3 10.686190 1.436674 -1.941516 -1.682217 1.117051 3.165959
    4 6.028143 0.000001 0.000000 1.463314 0.307770 -0.848560
    5 11.692552 0.000000 0.000002 0.000000 0.000000 -0.338933
    6 10.697902 1.436668 1.933754 1.551641 -1.112105 3.231868
    7 6.028142 0.000001 0.000000 -1.071880 -0.181340 -0.803546
    8 11.692555 0.000000 0.000000 0.000000 0.000000 -0.501713
    9 15.012447 2.951734 -0.011719 3.017478 0.013650 0.283661
    10 3.757635 -0.097663 -1.003940 -2.635431 0.036533 -1.383308
    11 17.848177 0.000000 0.000000 0.000000 0.000000 0.803484
    12 16.525253 0.000000 0.000000 0.108344 0.297655 -1.081889
    13 -3.757635 0.097663 1.003944 -1.905939 -0.254959 -1.419087
    14 17.848173 0.000000 0.000000 0.000000 0.000000 0.493373
    15 16.525257 0.000000 0.000000 -0.090812 -0.035041 -1.185897
  time 26
    0 44.955022 -0.531341 37.664546 1.570796 0.000000 -0.000042
    1 -0.718767 3.290439 -2.962369 1.798791 0.102017 1.619489
    2 7.508752 0.121098 -0.199225 -0.061079 0.029614 0.200103
    3 10.686190 1.436674 -1.941516 -1.692539 1.121427 3.154552
    4 6.028143 0.000001 0.000000 1.458800 0.339976 -0.848653
    5 11.692552 0.000000 0.000002 0.000000 0.000000 -0.412422
    6 10.697902 1.436668 1.933754 1.560602 -1.107249 3.221802
    7 6.028142 0.000001 0.000000 -1.083070 -0.133330 -0.786617
    8 11.692555 0.000000 0.000000 0.000000 0.000000 -0.429495
    9 15.012447 2.951734 -0.015625 3.015451 0.018121 0.282480
    10 3.761542 -0.066412 -0.992221 -2.602312 0.042593 -1.307743
    11 17.848177 0.000000 0.000000 0.000000 0.000000 0.780001
    12 16.525253 0.000000 0.000000 -0.003263 0.343469 -1.204243
    13 -3.761542 0.066412 0.992225 -1.908297 -0.237781 -1.477827
    14 17.848173 0.000000 0.000000 0.000000 0.000000 0.458914
    15 16.525257 0.000000 0.000000 -0.046755 -0.060596 -1.188527
end
