// Created by Crowbar 0.74
version 1
nodes
  0 "ValveBiped.Bip01" -1
  1 "ValveBiped.Bip01_Spine" 0
  2 "ValveBiped.Bip01_Spine2" 1
  3 "ValveBiped.Bip01_R_Clavicle" 2
  4 "ValveBiped.Bip01_R_UpperArm" 3
  5 "ValveBiped.Bip01_R_Forearm" 4
  6 "ValveBiped.Bip01_L_Clavicle" 2
  7 "ValveBiped.Bip01_L_UpperArm" 6
  8 "ValveBiped.Bip01_L_Forearm" 7
  9 "ValveBiped.Bip01_Head1" 2
  10 "ValveBiped.Bip01_L_Thigh" 0
  11 "ValveBiped.Bip01_L_Calf" 10
  12 "ValveBiped.Bip01_L_Foot" 11
  13 "ValveBiped.Bip01_R_Thigh" 0
  14 "ValveBiped.Bip01_R_Calf" 13
  15 "ValveBiped.Bip01_R_Foot" 14
end
skeleton
  time 0
    0 -0.002349 -0.531261 38.094247 1.570796 0.000000 -0.000042
    1 0.074226 3.235749 -3.099092 1.565888 0.154702 1.556894
    2 7.516565 0.023438 -0.085940 -0.048719 0.030393 0.169459
    3 10.682283 1.440580 -1.941516 -1.692539 1.121427 3.156001
    4 6.028143 0.000001 0.000000 1.280545 0.011839 -0.810813
    5 11.692552 0.000000 0.000002 0.000000 0.000000 -0.306763
    6 10.693996 1.440574 1.933754 1.560602 -1.107249 3.223336
    7 6.028142 0.000001 0.000000 -1.202341 -0.112646 -0.920306
    8 11.692555 0.000000 0.000000 0.000000 0.000000 -0.309457
    9 15.008540 2.959546 -0.015625 3.171536 -0.022651 0.331670
    10 3.890452 -0.070319 0.019529 -1.502364 -0.555731 -1.620468
    11 17.848177 0.000000 0.000000 0.000000 0.000000 1.144907
    12 16.525253 0.000000 0.000000 -0.075541 0.239513 -1.134098
    13 -3.890452 0.070318 -0.019525 -0.980328 -0.013983 -1.605523
    14 17.848173 0.000000 0.000000 0.000000 0.000000 0.270410
    15 16.525257 0.000000 0.000000 0.061907 0.047193 -1.223800
  time 1
    0 1.259725 0.519964 38.273940 1.570796 0.000000 -0.000042
    1 0.070320 3.235749 -3.099092 1.562771 0.154702 1.556966
    2 7.516565 0.019532 -0.062502 -0.050473 0.024317 0.167258
    3 10.686190 1.440580 -1.941516 -1.701092 1.125019 3.145921
    4 6.028143 0.000001 0.000000 1.284056 -0.006452 -0.823488
    5 11.692552 0.000000 0.000002 0.000000 0.000000 -0.278152
    6 10.697902 1.436668 1.933754 1.567752 -1.103196 3.214612
    7 6.028142 0.000001 0.000000 -1.202985 -0.123403 -0.906502
    8 11.692555 0.000000 0.000000 0.000000 0.000000 -0.347593
    9 15.008540 2.955640 -0.015625 3.173463 -0.018672 0.329114
    10 3.890452 -0.050787 0.031248 -1.505566 -0.471212 -1.569863
    11 17.848177 0.000000 0.000000 0.000000 0.000000 1.099101
    12 16.525253 0.000000 0.000000 -0.028375 0.163082 -1.120261
    13 -3.890452 0.050786 -0.031244 -0.980147 -0.035751 -1.636082
    14 17.848173 0.000000 0.000000 0.000000 0.000000 0.246346
    15 16.525257 0.000000 0.000000 0.072993 0.039854 -1.164111
  time 2
    0 2.517893 1.551656 38.320816 1.570796 0.000000 -0.000042
    1 0.066413 3.235749 -3.099092 1.560066 0.154655 1.555180
    2 7.516565 0.015626 -0.050783 -0.048920 0.020733 0.164846
    3 10.686190 1.436674 -1.941516 -1.708347 1.128043 3.137049
    4 6.028143 0.000001 0.000000 1.288571 -0.022578 -0.836444
    5 11.692552 0.000000 0.000002 0.000000 0.000000 -0.253898
    6 10.697902 1.436668 1.933754 1.573662 -1.099749 3.207039
    7 6.028142 0.000001 0.000000 -1.201648 -0.129404 -0.893133
    8 11.692555 0.000000 0.000000 0.000000 0.000000 -0.387906
    9 15.012447 2.951734 -0.015625 3.173612 -0.013567 0.326107
    10 3.890452 -0.042974 0.039061 -1.508493 -0.376459 -1.521659
    11 17.848177 0.000000 0.000000 0.000000 0.000000 1.028190
    12 16.525253 0.000000 0.000000 -0.002121 0.070214 -1.105975
    13 -3.890452 0.042974 -0.039057 -0.979602 -0.064075 -1.671485
    14 17.848173 0.000000 0.000000 0.000000 0.000000 0.240534
    15 16.525257 0.000000 0.000000 0.084293 0.032334 -1.114759
  time 3
    0 3.776060 2.598975 38.203625 1.570796 0.000000 -0.000042
    1 0.062507 3.235749 -3.099092 1.557902 0.154608 1.554125
    2 7.516565 0.007813 -0.035157 -0.044724 0.016047 0.162560
    3 10.686190 1.436674 -1.941516 -1.713892 1.130340 3.129866
    4 6.028143 0.000001 0.000000 1.292083 -0.034834 -0.850144
    5 11.692552 0.000000 0.000002 0.000000 0.000000 -0.233565
    6 10.697902 1.432762 1.933754 1.577952 -1.097105 3.200999
    7 6.028142 0.000001 0.000000 -1.199569 -0.129140 -0.880279
    8 11.692555 0.000000 0.000000 0.000000 0.000000 -0.427693
    9 15.016353 2.943921 -0.015625 3.172079 -0.007622 0.322842
    10 3.890452 -0.031255 0.042967 -1.510598 -0.284174 -1.477143
    11 17.848177 0.000000 0.000000 0.000000 0.000000 0.952953
    12 16.525253 0.000000 0.000000 0.001619 -0.023631 -1.099409
    13 -3.890452 0.031255 -0.042963 -0.977516 -0.108529 -1.717807
    14 17.848173 0.000000 0.000000 0.000000 0.000000 0.274666
    15 16.525257 0.000000 0.000000 0.095646 0.024754 -1.085897
  time 4
    0 5.034228 3.685357 37.957524 1.570796 0.000000 -0.000042
    1 0.054694 3.235749 -3.099092 1.556447 0.154538 1.554137
    2 7.516565 0.003906 -0.015625 -0.038372 0.010079 0.160740
    3 10.690096 1.432768 -1.941516 -1.717077 1.131736 3.125219
    4 6.028143 0.000001 0.000000 1.297768 -0.036815 -0.863472
    5 11.692552 0.000000 0.000002 0.000000 0.000000 -0.216863
    6 10.701809 1.432762 1.933754 1.580526 -1.095501 3.196973
    7 6.028142 0.000001 0.000000 -1.195806 -0.124271 -0.868492
    8 11.692555 0.000000 0.000000 0.000000 0.000000 -0.463727
    9 15.020259 2.936108 -0.015625 3.169163 -0.001127 0.319555
    10 3.890452 -0.019536 0.046873 -1.512153 -0.195929 -1.437602
    11 17.848177 0.000000 0.000000 0.000000 0.000000 0.869219
    12 16.525253 0.000000 0.000000 -0.010461 -0.095709 -1.093131
    13 -3.890452 0.019535 -0.046869 -0.973344 -0.160632 -1.769414
    14 17.848173 0.000000 0.000000 0.000000 0.000000 0.325087
    15 16.525257 0.000000 0.000000 0.106821 0.017275 -1.064296
  time 5
    0 6.296301 4.834241 37.676265 1.570796 0.000000 -0.000042
    1 0.042975 3.235749 -3.099092 1.555841 0.154492 1.555480
    2 7.516565 0.000000 0.000000 -0.030324 0.002721 0.159534
    3 10.690096 1.432768 -1.941516 -1.717608 1.132085 3.123770
    4 6.028143 0.000001 0.000000 1.304540 -0.031977 -0.876148
    5 11.692552 0.000000 0.000002 0.000000 0.000000 -0.203501
    6 10.701809 1.428855 1.933754 1.580907 -1.095111 3.195631
    7 6.028142 0.000001 0.000000 -1.190112 -0.116911 -0.857733
    8 11.692555 0.000000 0.000000 0.000000 0.000000 -0.492104
    9 15.020259 2.928295 -0.011719 3.165061 0.005657 0.316591
    10 3.890452 -0.000004 0.046873 -1.513159 -0.116437 -1.405781
    11 17.848177 0.000000 0.000000 0.000000 0.000000 0.777761
    12 16.525253 0.000000 0.000000 -0.022335 -0.099248 -1.083842
    13 -3.890452 0.000004 -0.050776 -0.968446 -0.204823 -1.815385
    14 17.848173 0.000000 0.000000 0.000000 0.000000 0.351279
    15 16.525257 0.000000 0.000000 0.117461 0.010157 -1.028320
  time 6
    0 7.636503 6.076878 37.469228 1.570796 0.000000 -0.000042
    1 0.023443 3.235749 -3.099092 1.556137 0.154468 1.558404
    2 7.516565 0.000000 0.031251 -0.021126 -0.006088 0.159322
    3 10.694003 1.432768 -1.937610 -1.715189 1.131344 3.125883
    4 6.028143 0.000001 0.000000 1.310811 -0.020136 -0.887426
    5 11.692552 0.000000 0.000002 0.000000 0.000000 -0.193044
    6 10.701809 1.428855 1.937660 1.579096 -1.096021 3.197260
    7 6.028142 0.000001 0.000000 -1.183230 -0.108079 -0.848122
    8 11.692555 0.000000 0.000000 0.000000 0.000000 -0.510046
    9 15.024166 2.928295 -0.011719 3.160020 0.012476 0.314250
    10 3.890452 0.015621 0.046873 -1.513617 -0.033443 -1.392829
    11 17.848177 0.000000 0.000000 0.000000 0.000000 0.646058
    12 16.525253 0.000000 0.000000 -0.020361 -0.071825 -1.092651
    13 -3.890452 -0.015622 -0.046869 -0.965907 -0.227159 -1.846648
    14 17.848173 0.000000 0.000000 0.000000 0.000000 0.318539
    15 16.525257 0.000000 0.000000 0.128350 0.004065 -0.969520
  time 7
    0 9.101708 7.409361 37.391100 1.570796 0.000000 -0.000042
    1 0.000005 3.235749 -3.099092 1.557258 0.154468 1.563126
    2 7.516565 0.000000 0.062502 -0.011267 -0.016455 0.160486
    3 10.694003 1.432768 -1.937610 -1.710412 1.129643 3.131134
    4 6.028143 0.000001 0.000000 1.315159 -0.001615 -0.897119
    5 11.692552 0.000000 0.000002 0.000000 0.000000 -0.185419
    6 10.701809 1.428855 1.937660 1.575378 -1.098037 3.201383
    7 6.028142 0.000001 0.000000 -1.176398 -0.098606 -0.839618
    8 11.692555 0.000000 0.000000 0.000000 0.000000 -0.516427
    9 15.024166 2.928295 -0.011719 3.154336 0.019032 0.312854
    10 3.890452 0.039060 0.039061 -1.513434 -0.017240 -1.413586
    11 17.848177 0.000000 0.000000 0.000000 0.000000 0.600638
    12 16.525253 0.000000 0.000000 -0.006454 -0.051441 -1.168370
    13 -3.890452 -0.039060 -0.039057 -0.968446 -0.216538 -1.854398
    14 17.848173 0.000000 0.000000 0.000000 0.000000 0.220153
    15 16.525257 0.000000 0.000000 0.139365 0.004688 -0.933247
  time 8
    0 10.559100 8.792627 37.414539 1.570796 0.000000 -0.000042
    1 -0.031246 3.235749 -3.099092 1.559074 0.154492 1.570293
    2 7.516565 0.000000 0.101566 -0.001380 -0.029111 0.162666
    3 10.694003 1.432768 -1.937610 -1.703628 1.127142 3.139282
    4 6.028143 0.000001 0.000000 1.316747 0.022943 -0.905041
    5 11.692552 0.000000 0.000002 0.000000 0.000000 -0.180336
    6 10.701809 1.428855 1.937660 1.570040 -1.100942 3.208189
    7 6.028142 0.000001 0.000000 -1.170654 -0.088717 -0.832103
    8 11.692555 0.000000 0.000000 0.000000 0.000000 -0.511322
    9 15.020259 2.932202 -0.007813 3.148207 0.025060 0.314916
    10 3.890452 0.070311 0.035154 -1.513251 0.002375 -1.434086
    11 17.848177 0.000000 0.000000 0.000000 0.000000 0.526483
    12 16.525253 0.000000 0.000000 -0.001646 -0.018790 -1.241975
    13 -3.890452 -0.070311 -0.035150 -0.968083 -0.221827 -1.864702
    14 17.848173 0.000000 0.000000 0.000000 0.000000 0.211313
    15 16.525257 0.000000 0.000000 0.144167 0.007242 -0.952847
  time 9
    0 11.973522 10.179800 37.512198 1.570796 0.000000 -0.000042
    1 -0.066403 3.235749 -3.099092 1.561509 0.154538 1.579257
    2 7.516565 0.000000 0.148442 0.008220 -0.042845 0.165333
    3 10.690096 1.436674 -1.937610 -1.695430 1.124030 3.150025
    4 6.028143 0.000001 0.000000 1.315410 0.052199 -0.910447
    5 11.692552 0.000000 0.000002 0.000000 0.000000 -0.182006
    6 10.697902 1.432762 1.937660 1.563367 -1.104518 3.217488
    7 6.028142 0.000001 0.000000 -1.166495 -0.078450 -0.826249
    8 11.692555 0.000000 0.000000 0.000000 0.000000 -0.495932
    9 15.016353 2.943921 -0.007813 3.141881 0.030225 0.324711
    10 3.890452 0.101562 0.023435 -1.513068 0.043131 -1.452269
    11 17.848177 0.000000 0.000000 0.000000 0.000000 0.399801
    12 16.525253 0.000000 0.000000 -0.009526 0.015428 -1.283133
    13 -3.890452 -0.101562 -0.023431 -0.967448 -0.228165 -1.874741
    14 17.848173 0.000000 0.000000 0.000000 0.000000 0.199936
    15 16.525257 0.000000 0.000000 0.148290 0.006820 -0.943029
  time 10
    0 13.313724 11.516189 37.656733 1.570796 0.000000 -0.000042
    1 -0.093748 3.231843 -3.099092 1.564433 0.154608 1.587610
    2 7.512659 0.007813 0.183599 0.017648 -0.054110 0.167872
    3 10.690096 1.440580 -1.937610 -1.686228 1.120409 3.161976
    4 6.028143 0.000001 0.000000 1.313487 0.083483 -0.911658
    5 11.692552 0.000000 0.000002 0.000000 0.000000 -0.190938
    6 10.693996 1.436668 1.937660 1.555645 -1.108572 3.228033
    7 6.028142 0.000001 0.000000 -1.163376 -0.066825 -0.823362
    8 11.692555 0.000000 0.000000 0.000000 0.000000 -0.470934
    9 15.008540 2.955640 -0.003906 3.135554 0.034228 0.333776
    10 3.890452 0.128906 0.011716 -1.512702 0.096590 -1.470796
    11 17.848177 0.000000 0.000000 0.000000 0.000000 0.235578
    12 16.525253 0.000000 0.000000 -0.022364 0.040309 -1.273588
    13 -3.890452 -0.128907 -0.011712 -0.956746 -0.282103 -1.901690
    14 17.848173 0.000000 0.000000 0.000000 0.000000 0.427319
    15 16.525257 0.000000 0.000000 0.139347 0.008368 -1.088861
  time 11
    0 14.564078 12.739294 37.816895 1.570796 0.000000 -0.000042
    1 -0.113280 3.231843 -3.099092 1.567692 0.154655 1.592680
    2 7.512659 0.015626 0.195318 0.026846 -0.059096 0.169904
    3 10.686190 1.440580 -1.937610 -1.676555 1.116440 3.173564
    4 6.028143 0.000001 0.000000 1.311564 0.114076 -0.908117
    5 11.692552 0.000000 0.000002 0.000000 0.000000 -0.206987
    6 10.690089 1.440574 1.937660 1.547161 -1.112950 3.238291
    7 6.028142 0.000001 0.000000 -1.160158 -0.052822 -0.824469
    8 11.692555 0.000000 0.000000 0.000000 0.000000 -0.437602
    9 15.008540 2.959546 -0.003906 3.129524 0.036697 0.334914
    10 3.890452 0.140625 0.003903 -1.512427 0.123342 -1.494812
    11 17.848177 0.000000 0.000000 0.000000 0.000000 0.115076
    12 16.525253 0.000000 0.000000 -0.025956 0.050765 -1.229195
    13 -3.890452 -0.140626 -0.003899 -0.954932 -0.284420 -1.882491
    14 17.848173 0.000000 0.000000 0.000000 0.000000 0.591922
    15 16.525257 0.000000 0.000000 0.124262 0.006860 -1.178672
  time 12
    0 15.783182 13.907710 37.965337 1.570796 0.000000 -0.000042
    1 -0.121092 3.231843 -3.099092 1.571118 0.154702 1.595257
    2 7.512659 0.019532 0.191412 0.035210 -0.059216 0.170602
    3 10.690096 1.440580 -1.937610 -1.666822 1.112267 3.184428
    4 6.028143 0.000001 0.000000 1.309390 0.142366 -0.900660
    5 11.692552 0.000000 0.000002 0.000000 0.000000 -0.231967
    6 10.690089 1.440574 1.937660 1.538200 -1.117459 3.248357
    7 6.028142 0.000001 0.000000 -1.155999 -0.036178 -0.828780
    8 11.692555 0.000000 0.000000 0.000000 0.000000 -0.396314
    9 15.008540 2.959546 0.000000 3.123939 0.037320 0.334162
    10 3.890452 0.136719 -0.003909 -1.512610 0.055116 -1.532552
    11 17.848177 0.000000 0.000000 0.000000 0.000000 0.185446
    12 16.525253 0.000000 0.000000 -0.007968 0.042933 -1.229996
    13 -3.890452 -0.136719 0.003913 -0.953843 -0.283721 -1.859066
    14 17.848173 0.000000 0.000000 0.000000 0.000000 0.782308
    15 16.525257 0.000000 0.000000 0.108357 0.005131 -1.262295
  time 13
    0 16.974942 15.044875 38.070809 1.570796 0.000000 -0.000042
    1 -0.121092 3.231843 -3.099092 1.574609 0.154725 1.596000
    2 7.512659 0.019532 0.179693 0.042051 -0.055632 0.169777
    3 10.690096 1.440580 -1.937610 -1.657443 1.108036 3.194689
    4 6.028143 0.000001 0.000000 1.306798 0.167522 -0.890222
    5 11.692552 0.000000 0.000002 0.000000 0.000000 -0.264209
    6 10.690089 1.440574 1.937660 1.529239 -1.121925 3.258135
    7 6.028142 0.000001 0.000000 -1.150603 -0.017645 -0.835465
    8 11.692555 0.000000 0.000000 0.000000 0.000000 -0.355250
    9 15.008540 2.959546 0.000000 3.119244 0.036253 0.332594
    10 3.890452 0.128906 -0.015628 -1.512702 0.002151 -1.568919
    11 17.848177 0.000000 0.000000 0.000000 0.000000 0.226077
    12 16.525253 0.000000 0.000000 0.019622 0.024766 -1.214557
    13 -3.890452 -0.128907 0.015632 -0.958741 -0.253386 -1.812391
    14 17.848173 0.000000 0.000000 0.000000 0.000000 0.907377
    15 16.525257 0.000000 0.000000 0.093397 0.005855 -1.294789
  time 14
    0 18.143263 16.166414 38.113779 1.570796 0.000000 -0.000042
    1 -0.113280 3.231843 -3.099092 1.577971 0.154725 1.595316
    2 7.516565 0.019532 0.152348 0.046765 -0.049185 0.168274
    3 10.690096 1.440580 -1.937610 -1.648773 1.103906 3.203923
    4 6.028143 0.000001 0.000000 1.303537 0.189038 -0.877360
    5 11.692552 0.000000 0.000002 0.000000 0.000000 -0.298194
    6 10.690089 1.436668 1.937660 1.520469 -1.126216 3.267338
    7 6.028142 0.000001 0.000000 -1.145949 0.001415 -0.844246
    8 11.692555 0.000000 0.000000 0.000000 0.000000 -0.318841
    9 15.008540 2.959546 0.000000 3.115735 0.033677 0.330317
    10 3.890452 0.109374 -0.027348 -1.512702 -0.045832 -1.604086
    11 17.848177 0.000000 0.000000 0.000000 0.000000 0.257052
    12 16.525253 0.000000 0.000000 0.046589 0.006904 -1.195211
    13 -3.890452 -0.109375 0.027352 -0.966088 -0.203468 -1.751361
    14 17.848173 0.000000 0.000000 0.000000 0.000000 0.971958
    15 16.525257 0.000000 0.000000 0.081115 0.009996 -1.280080
  time 15
    0 19.284239 17.287954 38.094247 1.570796 0.000000 -0.000042
    1 -0.101561 3.231843 -3.099092 1.581088 0.154702 1.593639
    2 7.516565 0.015626 0.121097 0.048805 -0.040736 0.166285
    3 10.690096 1.440580 -1.937610 -1.641105 1.100097 3.211830
    4 6.028143 0.000001 0.000000 1.299524 0.205717 -0.863100
    5 11.692552 0.000000 0.000002 0.000000 0.000000 -0.333051
    6 10.690089 1.436668 1.937660 1.512366 -1.130097 3.275487
    7 6.028142 0.000001 0.000000 -1.144067 0.020098 -0.854530
    8 11.692555 0.000000 0.000000 0.000000 0.000000 -0.287461
    9 15.008540 2.955640 0.000000 3.113807 0.029746 0.327503
    10 3.890452 0.085936 -0.039067 -1.512519 -0.092872 -1.638480
    11 17.848177 0.000000 0.000000 0.000000 0.000000 0.286019
    12 16.525253 0.000000 0.000000 0.072933 -0.010530 -1.175224
    13 -3.890452 -0.085936 0.039071 -0.971349 -0.159321 -1.696143
    14 17.848173 0.000000 0.000000 0.000000 0.000000 1.022787
    15 16.525257 0.000000 0.000000 0.073243 0.015506 -1.227023
  time 16
    0 20.405684 18.429025 38.012213 1.570796 0.000000 -0.000042
    1 -0.093748 3.235749 -3.099092 1.583806 0.154655 1.592212
    2 7.516565 0.011719 0.093753 0.047886 -0.032370 0.164084
    3 10.694003 1.436674 -1.937610 -1.634852 1.096840 3.217986
    4 6.028143 0.000001 0.000000 1.294842 0.216130 -0.848933
    5 11.692552 0.000000 0.000002 0.000000 0.000000 -0.369795
    6 10.693996 1.436668 1.937660 1.505502 -1.133370 3.282101
    7 6.028142 0.000001 0.000000 -1.143671 0.037158 -0.865604
    8 11.692555 0.000000 0.000000 0.000000 0.000000 -0.260886
    9 15.012447 2.947827 0.000000 3.113659 0.024616 0.324303
    10 3.890452 0.066404 -0.046879 -1.512427 -0.137219 -1.672275
    11 17.848177 0.000000 0.000000 0.000000 0.000000 0.307957
    12 16.525253 0.000000 0.000000 0.098950 -0.027741 -1.151490
    13 -3.890452 -0.066405 0.046883 -0.974432 -0.127106 -1.651141
    14 17.848173 0.000000 0.000000 0.000000 0.000000 1.074927
    15 16.525257 0.000000 0.000000 0.069780 0.023226 -1.178005
  time 17
    0 21.523222 19.605253 37.871584 1.570796 0.000000 -0.000042
    1 -0.082029 3.235749 -3.099092 1.585957 0.154585 1.591314
    2 7.516565 0.007813 0.066408 0.044092 -0.024772 0.161925
    3 10.694003 1.436674 -1.937610 -1.630252 1.094339 3.222091
    4 6.028143 0.000001 0.000000 1.290327 0.219032 -0.836537
    5 11.692552 0.000000 0.000002 0.000000 0.000000 -0.406104
    6 10.693996 1.432762 1.937660 1.500259 -1.135841 3.286703
    7 6.028142 0.000001 0.000000 -1.143622 0.048859 -0.877273
    8 11.692555 0.000000 0.000000 0.000000 0.000000 -0.238665
    9 15.016353 2.943921 0.000000 3.115142 0.018552 0.320952
    10 3.890452 0.046872 -0.050786 -1.512244 -0.178962 -1.705983
    11 17.848177 0.000000 0.000000 0.000000 0.000000 0.322324
    12 16.525253 0.000000 0.000000 0.125026 -0.044951 -1.123111
    13 -3.890452 -0.046873 0.050790 -0.977335 -0.089384 -1.605171
    14 17.848173 0.000000 0.000000 0.000000 0.000000 1.076727
    15 16.525257 0.000000 0.000000 0.069280 0.032857 -1.130987
  time 18
    0 22.656385 20.840077 37.695797 1.570796 0.000000 -0.000042
    1 -0.070310 3.235749 -3.099092 1.587400 0.154515 1.590367
    2 7.516565 0.003906 0.042970 0.037912 -0.017414 0.160169
    3 10.694003 1.432768 -1.937610 -1.627656 1.092812 3.223962
    4 6.028143 0.000001 0.000000 1.285227 0.215623 -0.825818
    5 11.692552 0.000000 0.000002 0.000000 0.000000 -0.438927
    6 10.693996 1.432762 1.937660 1.497208 -1.137358 3.288908
    7 6.028142 0.000001 0.000000 -1.147434 0.054973 -0.889415
    8 11.692555 0.000000 0.000000 0.000000 0.000000 -0.220423
    9 15.020259 2.936108 0.000000 3.118008 0.011901 0.317708
    10 3.890452 0.027341 -0.054692 -1.512061 -0.213704 -1.739949
    11 17.848177 0.000000 0.000000 0.000000 0.000000 0.318539
    12 16.525253 0.000000 0.000000 0.151622 -0.062569 -1.083650
    13 -3.890452 -0.027341 0.054696 -0.979421 -0.049257 -1.562987
    14 17.848173 0.000000 0.000000 0.000000 0.000000 1.026307
    15 16.525257 0.000000 0.000000 0.069851 0.041603 -1.081339
  time 19
    0 23.832519 22.149123 37.500479 1.570796 0.000000 -0.000042
    1 -0.054684 3.235749 -3.099092 1.588005 0.154468 1.588761
    2 7.516565 0.000000 0.019532 0.029893 -0.009684 0.159090
    3 10.694003 1.432768 -1.937610 -1.627302 1.092419 3.223479
    4 6.028143 0.000001 0.000000 1.279708 0.206546 -0.816498
    5 11.692552 0.000000 0.000002 0.000000 0.000000 -0.464779
    6 10.697902 1.428855 1.937660 1.496636 -1.137748 3.288620
    7 6.028142 0.000001 0.000000 -1.154217 0.053388 -0.901875
    8 11.692555 0.000000 0.000000 0.000000 0.000000 -0.205784
    9 15.020259 2.932202 0.000000 3.122111 0.004950 0.314937
    10 3.890452 0.011715 -0.054692 -1.511970 -0.246919 -1.774000
    11 17.848177 0.000000 0.000000 0.000000 0.000000 0.304712
    12 16.525253 0.000000 0.000000 0.171168 -0.075589 -1.024651
    13 -3.890452 -0.011715 0.054696 -0.980419 0.001753 -1.522036
    14 17.848173 0.000000 0.000000 0.000000 0.000000 0.885359
    15 16.525257 0.000000 0.000000 0.069780 0.046610 -0.996678
  time 20
    0 25.071155 23.594891 37.305160 1.570796 0.000000 -0.000042
    1 -0.035152 3.235749 -3.099092 1.587709 0.154445 1.585657
    2 7.516565 0.000000 -0.003906 0.020724 -0.000587 0.159026
    3 10.697909 1.432768 -1.937610 -1.629308 1.093263 3.220642
    4 6.028143 0.000001 0.000000 1.274692 0.191987 -0.808296
    5 11.692552 0.000000 0.000002 0.000000 0.000000 -0.481118
    6 10.697902 1.428855 1.937660 1.498829 -1.136925 3.285648
    7 6.028142 0.000001 0.000000 -1.162287 0.045273 -0.914373
    8 11.692555 0.000000 0.000000 0.000000 0.000000 -0.194373
    9 15.024166 2.928295 0.000000 3.127103 -0.001977 0.313068
    10 3.890452 -0.007817 -0.054692 -1.511329 -0.293735 -1.793814
    11 17.848177 0.000000 0.000000 0.000000 0.000000 0.306103
    12 16.525253 0.000000 0.000000 0.116388 -0.023001 -0.947426
    13 -3.890452 0.007816 0.054696 -0.980237 0.026099 -1.505216
    14 17.848173 0.000000 0.000000 0.000000 0.000000 0.782554
    15 16.525257 0.000000 0.000000 0.067120 0.050611 -0.978560
  time 21
    0 26.368386 25.146131 37.137186 1.570796 0.000000 -0.000042
    1 -0.007808 3.235749 -3.099092 1.586588 0.154445 1.579713
    2 7.516565 0.000000 -0.042970 0.011124 0.011577 0.160444
    3 10.694003 1.432768 -1.937610 -1.633378 1.095138 3.216115
    4 6.028143 0.000001 0.000000 1.271515 0.172820 -0.800374
    5 11.692552 0.000000 0.000002 0.000000 0.000000 -0.486855
    6 10.697902 1.428855 1.937660 1.503309 -1.135061 3.280759
    7 6.028142 0.000001 0.000000 -1.169813 0.030931 -0.926991
    8 11.692555 0.000000 0.000000 0.000000 0.000000 -0.186040
    9 15.024166 2.928295 -0.003906 3.132737 -0.008605 0.312488
    10 3.890452 -0.035161 -0.046879 -1.510781 -0.334177 -1.812169
    11 17.848177 0.000000 0.000000 0.000000 0.000000 0.317381
    12 16.525253 0.000000 0.000000 0.025648 0.054529 -0.882790
    13 -3.890452 0.035161 0.046883 -0.980419 0.007610 -1.523005
    14 17.848173 0.000000 0.000000 0.000000 0.000000 0.766920
    15 16.525257 0.000000 0.000000 0.061764 0.053587 -1.060072
  time 22
    0 27.669524 26.748153 37.016089 1.570796 0.000000 -0.000042
    1 0.023443 3.235749 -3.099092 1.584759 0.154468 1.571803
    2 7.516565 0.000000 -0.089846 0.001380 0.025311 0.163110
    3 10.694003 1.432768 -1.937610 -1.639158 1.097843 3.210382
    4 6.028143 0.000001 0.000000 1.270595 0.150429 -0.793291
    5 11.692552 0.000000 0.000002 0.000000 0.000000 -0.482207
    6 10.697902 1.428855 1.937660 1.509601 -1.132351 3.274720
    7 6.028142 0.000001 0.000000 -1.175903 0.011417 -0.938580
    8 11.692555 0.000000 0.000000 0.000000 0.000000 -0.180485
    9 15.020259 2.932202 -0.003906 3.138866 -0.014633 0.316119
    10 3.890452 -0.070319 -0.039067 -1.509591 -0.387860 -1.815342
    11 17.848177 0.000000 0.000000 0.000000 0.000000 0.400265
    12 16.525253 0.000000 0.000000 -0.081151 0.136615 -0.879298
    13 -3.890452 0.070318 0.039071 -0.980237 0.018975 -1.520715
    14 17.848173 0.000000 0.000000 0.000000 0.000000 0.670909
    15 16.525257 0.000000 0.000000 0.053517 0.059015 -1.154515
  time 23
    0 28.962848 28.346270 36.977025 1.570796 0.000000 -0.000042
    1 0.054694 3.235749 -3.099092 1.582325 0.154515 1.563294
    2 7.516565 0.003906 -0.128910 -0.008335 0.038387 0.166221
    3 10.690096 1.436674 -1.937610 -1.646413 1.101216 3.204225
    4 6.028143 0.000001 0.000000 1.272016 0.126654 -0.787792
    5 11.692552 0.000000 0.000002 0.000000 0.000000 -0.468047
    6 10.697902 1.432762 1.937660 1.517323 -1.128926 3.268297
    7 6.028142 0.000001 0.000000 -1.180408 -0.011946 -0.947637
    8 11.692555 0.000000 0.000000 0.000000 0.000000 -0.182362
    9 15.016353 2.943921 -0.007813 3.145242 -0.019727 0.326773
    10 3.890452 -0.101570 -0.031254 -1.507670 -0.447872 -1.802305
    11 17.848177 0.000000 0.000000 0.000000 0.000000 0.528028
    12 16.525253 0.000000 0.000000 -0.177086 0.211947 -0.914660
    13 -3.890452 0.101569 0.031258 -0.979965 0.033836 -1.515431
    14 17.848173 0.000000 0.000000 0.000000 0.000000 0.572932
    15 16.525257 0.000000 0.000000 0.042753 0.065067 -1.287342
  time 24
    0 30.248361 29.877978 37.039527 1.570796 0.000000 -0.000042
    1 0.082039 3.235749 -3.099092 1.579401 0.154562 1.555923
    2 7.512659 0.011719 -0.160161 -0.017936 0.048166 0.169078
    3 10.686190 1.440580 -1.937610 -1.654848 1.105026 3.197103
    4 6.028143 0.000001 0.000000 1.275026 0.102420 -0.784809
    5 11.692552 0.000000 0.000002 0.000000 0.000000 -0.445245
    6 10.693996 1.436668 1.937660 1.525807 -1.124981 3.261203
    7 6.028142 0.000001 0.000000 -1.184963 -0.036744 -0.952265
    8 11.692555 0.000000 0.000000 0.000000 0.000000 -0.192196
    9 15.008540 2.955640 -0.007813 3.151568 -0.023622 0.334721
    10 3.890452 -0.125008 -0.019535 -1.505017 -0.515469 -1.779576
    11 17.848177 0.000000 0.000000 0.000000 0.000000 0.696963
    12 16.525253 0.000000 0.000000 -0.232178 0.270252 -0.976574
    13 -3.890452 0.125007 0.019539 -0.978514 0.072039 -1.495969
    14 17.848173 0.000000 0.000000 0.000000 0.000000 0.405465
    15 16.525257 0.000000 0.000000 0.033720 0.067983 -1.367334
  time 25
    0 31.529966 31.288589 37.219220 1.570796 0.000000 -0.000042
    1 0.101571 3.231843 -3.099092 1.576142 0.154632 1.550434
    2 7.512659 0.019532 -0.175787 -0.027076 0.053787 0.171364
    3 10.686190 1.440580 -1.937610 -1.664050 1.109126 3.187929
    4 6.028143 0.000001 0.000000 1.278454 0.078001 -0.784996
    5 11.692552 0.000000 0.000002 0.000000 0.000000 -0.414745
    6 10.693996 1.440574 1.937660 1.534863 -1.120667 3.252287
    7 6.028142 0.000001 0.000000 -1.189617 -0.060296 -0.951909
    8 11.692555 0.000000 0.000000 0.000000 0.000000 -0.209763
    9 15.004634 2.963453 -0.011719 3.157697 -0.025995 0.335838
    10 3.890452 -0.136727 -0.007816 -1.502547 -0.567851 -1.748698
    11 17.848177 0.000000 0.000000 0.000000 0.000000 0.860568
    12 16.525253 0.000000 0.000000 -0.231198 0.302903 -1.034644
    13 -3.890452 0.136727 0.007820 -0.977063 0.096561 -1.488747
    14 17.848173 0.000000 0.000000 0.000000 0.000000 0.257805
    15 16.525257 0.000000 0.000000 0.032899 0.066455 -1.361295
  time 26
    0 32.803759 32.550757 37.492666 1.570796 0.000000 -0.000042
    1 0.105477 3.231843 -3.099092 1.572702 0.154679 1.549763
    2 7.512659 0.023438 -0.164068 -0.035814 0.051054 0.172126
    3 10.682283 1.440580 -1.937610 -1.673605 1.113343 3.177367
    4 6.028143 0.000001 0.000000 1.280294 0.054181 -0.789842
    5 11.692552 0.000000 0.000002 0.000000 0.000000 -0.377057
    6 10.693996 1.440574 1.937660 1.543920 -1.116159 3.242413
    7 6.028142 0.000001 0.000000 -1.194568 -0.081017 -0.945620
    8 11.692555 0.000000 0.000000 0.000000 0.000000 -0.237239
    9 15.004634 2.963453 -0.011719 3.163232 -0.026570 0.335129
    10 3.890452 -0.125008 -0.000003 -1.500991 -0.593705 -1.710615
    11 17.848177 0.000000 0.000000 0.000000 0.000000 0.997060
    12 16.525253 0.000000 0.000000 -0.193041 0.310776 -1.081184
    13 -3.890452 0.125007 0.000007 -0.979512 0.045463 -1.535863
    14 17.848173 0.000000 0.000000 0.000000 0.000000 0.293001
    15 16.525257 0.000000 0.000000 0.041199 0.060885 -1.335730
  time 27
    0 34.073646 33.715267 37.812988 1.570796 0.000000 -0.000042
    1 0.089851 3.235749 -3.099092 1.569225 0.154702 1.553275
    2 7.516565 0.023438 -0.125004 -0.043488 0.041155 0.171174
    3 10.682283 1.440580 -1.941516 -1.683279 1.117501 3.166563
    4 6.028143 0.000001 0.000000 1.280127 0.031835 -0.799069
    5 11.692552 0.000000 0.000002 0.000000 0.000000 -0.339586
    6 10.693996 1.440574 1.933754 1.552595 -1.111606 3.232635
    7 6.028142 0.000001 0.000000 -1.199173 -0.098417 -0.934150
    8 11.692555 0.000000 0.000000 0.000000 0.000000 -0.272522
    9 15.004634 2.963453 -0.015625 3.168026 -0.025347 0.333690
    10 3.890452 -0.097663 0.011716 -1.500900 -0.590563 -1.666871
    11 17.848177 0.000000 0.000000 0.000000 0.000000 1.096784
    12 16.525253 0.000000 0.000000 -0.135367 0.290067 -1.115937
    13 -3.890452 0.097663 -0.011712 -0.980237 0.009927 -1.573995
    14 17.848173 0.000000 0.000000 0.000000 0.000000 0.294147
    15 16.525257 0.000000 0.000000 0.051107 0.054351 -1.285526
  time 28
    0 35.335720 34.809462 38.094247 1.570796 0.000000 -0.000042
    1 0.074226 3.235749 -3.099092 1.565888 0.154702 1.556894
    2 7.516565 0.023438 -0.085940 -0.048719 0.030393 0.169459
    3 10.682283 1.440580 -1.941516 -1.692539 1.121427 3.156001
    4 6.028143 0.000001 0.000000 1.280545 0.011839 -0.810813
    5 11.692552 0.000000 0.000002 0.000000 0.000000 -0.306763
    6 10.693996 1.440574 1.933754 1.560602 -1.107249 3.223336
    7 6.028142 0.000001 0.000000 -1.202341 -0.112646 -0.920306
    8 11.692555 0.000000 0.000000 0.000000 0.000000 -0.309457
    9 15.008540 2.959546 -0.015625 3.171536 -0.022651 0.331670
    10 3.890452 -0.070319 0.019529 -1.502364 -0.555731 -1.620468
    11 17.848177 0.000000 0.000000 0.000000 0.000000 1.144907
    12 16.525253 0.000000 0.000000 -0.075541 0.239513 -1.134098
    13 -3.890452 0.070318 -0.019525 -0.980328 -0.013983 -1.605523
    14 17.848173 0.000000 0.000000 0.000000 0.000000 0.270410
    15 16.525257 0.000000 0.000000 0.061907 0.047193 -1.223800
end
