// Created by Crowbar 0.74
version 1
nodes
  0 "ValveBiped.Bip01" -1
  1 "ValveBiped.Bip01_Spine" 0
  2 "ValveBiped.Bip01_Spine2" 1
  3 "ValveBiped.Bip01_R_Clavicle" 2
  4 "ValveBiped.Bip01_R_UpperArm" 3
  5 "ValveBiped.Bip01_R_Forearm" 4
  6 "ValveBiped.Bip01_L_Clavicle" 2
  7 "ValveBiped.Bip01_L_UpperArm" 6
  8 "ValveBiped.Bip01_L_Forearm" 7
  9 "ValveBiped.Bip01_Head1" 2
  10 "ValveBiped.Bip01_L_Thigh" 0
  11 "ValveBiped.Bip01_L_Calf" 10
  12 "ValveBiped.Bip01_L_Foot" 11
  13 "ValveBiped.Bip01_R_Thigh" 0
  14 "ValveBiped.Bip01_R_Calf" 13
  15 "ValveBiped.Bip01_R_Foot" 14
end
skeleton
  time 0
    0 0.767206 2.371171 35.406665 1.644615 0.121452 0.257892
    1 0.000005 3.345128 -2.981901 1.570796 0.086293 1.570796
    2 7.512659 -0.101566 0.410169 -0.109999 -0.169642 0.071750
    3 11.033857 1.159322 -1.785262 -0.468902 1.160933 4.337172
    4 6.028143 0.000001 0.000000 0.815426 0.353752 -1.041024
    5 11.692552 0.000000 0.000002 0.000000 0.000000 -1.938333
    6 10.459614 1.573391 2.023600 2.152311 -1.048658 2.550169
    7 6.028142 0.000001 0.000000 -1.666653 -0.622902 -0.440686
    8 11.692555 0.000000 0.000000 0.000000 0.000000 -1.899455
    9 15.137450 2.639224 0.644551 3.006852 -0.127157 0.188846
    10 3.874826 -0.378922 -0.000003 -1.643345 -0.524895 -1.264000
    11 17.848177 0.000000 0.000000 0.000000 0.000000 0.832914
    12 16.525253 0.000000 0.000000 -0.045012 0.030605 -1.348443
    13 -3.874826 0.378921 0.000007 -0.906860 -0.225979 -1.833262
    14 17.848173 0.000000 0.000000 0.000000 0.000000 0.539292
    15 16.525257 0.000000 0.000000 0.185903 -0.112551 -1.183044
  time 1
    0 0.767206 2.371171 35.406665 1.644615 0.121452 0.257892
    1 0.000005 3.345128 -2.981901 1.570796 0.086293 1.570796
    2 7.512659 -0.101566 0.410169 -0.109999 -0.169642 0.071750
    3 11.033857 1.159322 -1.785262 -0.468902 1.160933 4.337172
    4 6.028143 0.000001 0.000000 0.815426 0.353752 -1.041024
    5 11.692552 0.000000 0.000002 0.000000 0.000000 -1.938333
    6 10.459614 1.573391 2.023600 2.152311 -1.048658 2.550169
    7 6.028142 0.000001 0.000000 -1.666653 -0.622902 -0.440686
    8 11.692555 0.000000 0.000000 0.000000 0.000000 -1.899455
    9 15.137450 2.639224 0.644551 3.006852 -0.127157 0.188846
    10 3.874826 -0.378922 -0.000003 -1.643345 -0.524895 -1.264000
    11 17.848177 0.000000 0.000000 0.000000 0.000000 0.832914
    12 16.525253 0.000000 0.000000 -0.045012 0.030605 -1.348443
    13 -3.874826 0.378921 0.000007 -0.906860 -0.225979 -1.833262
    14 17.848173 0.000000 0.000000 0.000000 0.000000 0.539292
    15 16.525257 0.000000 0.000000 0.185903 -0.112551 -1.183044
  time 2
    0 0.767206 2.371171 35.406665 1.644615 0.121452 0.257892
    1 0.000005 3.345128 -2.981901 1.570796 0.086293 1.570796
    2 7.512659 -0.101566 0.410169 -0.109999 -0.169642 0.071750
    3 11.033857 1.159322 -1.785262 -0.468902 1.160933 4.337172
    4 6.028143 0.000001 0.000000 0.815426 0.353752 -1.041024
    5 11.692552 0.000000 0.000002 0.000000 0.000000 -1.938333
    6 10.459614 1.573391 2.023600 2.152311 -1.048658 2.550169
    7 6.028142 0.000001 0.000000 -1.666653 -0.622902 -0.440686
    8 11.692555 0.000000 0.000000 0.000000 0.000000 -1.899455
    9 15.137450 2.639224 0.644551 3.006852 -0.127157 0.188846
    10 3.874826 -0.378922 -0.000003 -1.643345 -0.524895 -1.264000
    11 17.848177 0.000000 0.000000 0.000000 0.000000 0.832914
    12 16.525253 0.000000 0.000000 -0.045012 0.030605 -1.348443
    13 -3.874826 0.378921 0.000007 -0.906860 -0.225979 -1.833262
    14 17.848173 0.000000 0.000000 0.000000 0.000000 0.539292
    15 16.525257 0.000000 0.000000 0.185903 -0.112551 -1.183044
  time 3
    0 0.767206 2.371171 35.406665 1.644615 0.121452 0.257892
    1 0.000005 3.345128 -2.981901 1.570796 0.086293 1.570796
    2 7.512659 -0.101566 0.410169 -0.109999 -0.169642 0.071750
    3 11.033857 1.159322 -1.785262 -0.468902 1.160933 4.337172
    4 6.028143 0.000001 0.000000 0.815426 0.353752 -1.041024
    5 11.692552 0.000000 0.000002 0.000000 0.000000 -1.938333
    6 10.459614 1.573391 2.023600 2.152311 -1.048658 2.550169
    7 6.028142 0.000001 0.000000 -1.666653 -0.622902 -0.440686
    8 11.692555 0.000000 0.000000 0.000000 0.000000 -1.899455
    9 15.137450 2.639224 0.644551 3.006852 -0.127157 0.188846
    10 3.874826 -0.378922 -0.000003 -1.643345 -0.524895 -1.264000
    11 17.848177 0.000000 0.000000 0.000000 0.000000 0.832914
    12 16.525253 0.000000 0.000000 -0.045012 0.030605 -1.348443
    13 -3.874826 0.378921 0.000007 -0.906860 -0.225979 -1.833262
    14 17.848173 0.000000 0.000000 0.000000 0.000000 0.539292
    15 16.525257 0.000000 0.000000 0.185903 -0.112551 -1.183044
  time 4
    0 0.767206 2.371171 35.406665 1.644615 0.121452 0.257892
    1 0.000005 3.345128 -2.981901 1.570796 0.086293 1.570796
    2 7.512659 -0.101566 0.410169 -0.109999 -0.169642 0.071750
    3 11.033857 1.159322 -1.785262 -0.468902 1.160933 4.337172
    4 6.028143 0.000001 0.000000 0.815426 0.353752 -1.041024
    5 11.692552 0.000000 0.000002 0.000000 0.000000 -1.938333
    6 10.459614 1.573391 2.023600 2.152311 -1.048658 2.550169
    7 6.028142 0.000001 0.000000 -1.666653 -0.622902 -0.440686
    8 11.692555 0.000000 0.000000 0.000000 0.000000 -1.899455
    9 15.137450 2.639224 0.644551 3.006852 -0.127157 0.188846
    10 3.874826 -0.378922 -0.000003 -1.643345 -0.524895 -1.264000
    11 17.848177 0.000000 0.000000 0.000000 0.000000 0.832914
    12 16.525253 0.000000 0.000000 -0.045012 0.030605 -1.348443
    13 -3.874826 0.378921 0.000007 -0.906860 -0.225979 -1.833262
    14 17.848173 0.000000 0.000000 0.000000 0.000000 0.539292
    15 16.525257 0.000000 0.000000 0.185903 -0.112551 -1.183044
  time 5
    0 0.767206 2.371171 35.406665 1.644615 0.121452 0.257892
    1 0.000005 3.345128 -2.981901 1.570796 0.086293 1.570796
    2 7.512659 -0.101566 0.410169 -0.109999 -0.169642 0.071750
    3 11.033857 1.159322 -1.785262 -0.468902 1.160933 4.337172
    4 6.028143 0.000001 0.000000 0.815426 0.353752 -1.041024
    5 11.692552 0.000000 0.000002 0.000000 0.000000 -1.938333
    6 10.459614 1.573391 2.023600 2.152311 -1.048658 2.550169
    7 6.028142 0.000001 0.000000 -1.666653 -0.622902 -0.440686
    8 11.692555 0.000000 0.000000 0.000000 0.000000 -1.899455
    9 15.137450 2.639224 0.644551 3.006852 -0.127157 0.188846
    10 3.874826 -0.378922 -0.000003 -1.643345 -0.524895 -1.264000
    11 17.848177 0.000000 0.000000 0.000000 0.000000 0.832914
    12 16.525253 0.000000 0.000000 -0.045012 0.030605 -1.348443
    13 -3.874826 0.378921 0.000007 -0.906860 -0.225979 -1.833262
    14 17.848173 0.000000 0.000000 0.000000 0.000000 0.539292
    15 16.525257 0.000000 0.000000 0.185903 -0.112551 -1.183044
end
