// Created by Crowbar 0.74
version 1
nodes
  0 "ValveBiped.Bip01" -1
  1 "ValveBiped.Bip01_Spine" 0
  2 "ValveBiped.Bip01_Spine2" 1
  3 "ValveBiped.Bip01_R_Clavicle" 2
  4 "ValveBiped.Bip01_R_UpperArm" 3
  5 "ValveBiped.Bip01_R_Forearm" 4
  6 "ValveBiped.Bip01_L_Clavicle" 2
  7 "ValveBiped.Bip01_L_UpperArm" 6
  8 "ValveBiped.Bip01_L_Forearm" 7
  9 "ValveBiped.Bip01_Head1" 2
  10 "ValveBiped.Bip01_L_Thigh" 0
  11 "ValveBiped.Bip01_L_Calf" 10
  12 "ValveBiped.Bip01_L_Foot" 11
  13 "ValveBiped.Bip01_R_Thigh" 0
  14 "ValveBiped.Bip01_R_Calf" 13
  15 "ValveBiped.Bip01_R_Foot" 14
end
skeleton
  time 0
    0 -2.756339 6.812713 23.519583 1.998053 0.121452 0.257892
    1 0.000005 3.345128 -2.981901 1.570796 -0.208230 1.570796
    2 7.434531 0.656270 0.531266 0.231955 -0.215243 0.552064
    3 11.166673 1.065569 -1.675883 0.015658 1.141798 4.697438
    4 6.028143 0.000001 0.000000 1.200865 0.125503 -1.237869
    5 11.692552 0.000000 0.000002 0.000000 0.000000 -1.770151
    6 10.588524 1.249162 2.148604 2.497116 -1.089691 2.067390
    7 6.028142 0.000001 0.000000 -1.255813 -0.935344 -0.800500
    8 11.692555 0.000000 0.000000 0.000000 0.000000 -1.767931
    9 14.617903 2.912670 0.718772 3.035221 -0.117437 0.428312
    10 3.874826 -0.378922 -0.000003 -3.071824 -1.154953 0.221058
    11 17.848177 0.000000 0.000000 0.000000 0.000000 1.837718
    12 16.525253 0.000000 0.000000 -0.055253 0.300503 -1.667014
    13 -3.874826 0.378921 0.000007 -0.083651 -0.897460 -2.988162
    14 17.848173 0.000000 0.000000 0.000000 0.000000 1.608106
    15 16.525257 0.000000 0.000000 0.276839 -0.177172 -1.406979
  time 1
    0 -2.756339 6.812713 23.519583 1.998053 0.121452 0.257892
    1 0.000005 3.345128 -2.981901 1.570796 -0.208230 1.570796
    2 7.434531 0.656270 0.531266 0.231955 -0.215243 0.552064
    3 11.166673 1.065569 -1.675883 0.015658 1.141798 4.697438
    4 6.028143 0.000001 0.000000 1.200865 0.125503 -1.237869
    5 11.692552 0.000000 0.000002 0.000000 0.000000 -1.770151
    6 10.588524 1.249162 2.148604 2.497116 -1.089691 2.067390
    7 6.028142 0.000001 0.000000 -1.255813 -0.935344 -0.800500
    8 11.692555 0.000000 0.000000 0.000000 0.000000 -1.767931
    9 14.617903 2.912670 0.718772 3.035221 -0.117437 0.428312
    10 3.874826 -0.378922 -0.000003 -3.071824 -1.154953 0.221058
    11 17.848177 0.000000 0.000000 0.000000 0.000000 1.837718
    12 16.525253 0.000000 0.000000 -0.055253 0.300503 -1.667014
    13 -3.874826 0.378921 0.000007 -0.083651 -0.897460 -2.988162
    14 17.848173 0.000000 0.000000 0.000000 0.000000 1.608106
    15 16.525257 0.000000 0.000000 0.276839 -0.177172 -1.406979
  time 2
    0 -2.756339 6.812713 23.519583 1.998053 0.121452 0.257892
    1 0.000005 3.345128 -2.981901 1.570796 -0.208230 1.570796
    2 7.434531 0.656270 0.531266 0.231955 -0.215243 0.552064
    3 11.166673 1.065569 -1.675883 0.015658 1.141798 4.697438
    4 6.028143 0.000001 0.000000 1.200865 0.125503 -1.237869
    5 11.692552 0.000000 0.000002 0.000000 0.000000 -1.770151
    6 10.588524 1.249162 2.148604 2.497116 -1.089691 2.067390
    7 6.028142 0.000001 0.000000 -1.255813 -0.935344 -0.800500
    8 11.692555 0.000000 0.000000 0.000000 0.000000 -1.767931
    9 14.617903 2.912670 0.718772 3.035221 -0.117437 0.428312
    10 3.874826 -0.378922 -0.000003 -3.071824 -1.154953 0.221058
    11 17.848177 0.000000 0.000000 0.000000 0.000000 1.837718
    12 16.525253 0.000000 0.000000 -0.055253 0.300503 -1.667014
    13 -3.874826 0.378921 0.000007 -0.083651 -0.897460 -2.988162
    14 17.848173 0.000000 0.000000 0.000000 0.000000 1.608106
    15 16.525257 0.000000 0.000000 0.276839 -0.177172 -1.406979
  time 3
    0 -2.756339 6.812713 23.519583 1.998053 0.121452 0.257892
    1 0.000005 3.345128 -2.981901 1.570796 -0.208230 1.570796
    2 7.434531 0.656270 0.531266 0.231955 -0.215243 0.552064
    3 11.166673 1.065569 -1.675883 0.015658 1.141798 4.697438
    4 6.028143 0.000001 0.000000 1.200865 0.125503 -1.237869
    5 11.692552 0.000000 0.000002 0.000000 0.000000 -1.770151
    6 10.588524 1.249162 2.148604 2.497116 -1.089691 2.067390
    7 6.028142 0.000001 0.000000 -1.255813 -0.935344 -0.800500
    8 11.692555 0.000000 0.000000 0.000000 0.000000 -1.767931
    9 14.617903 2.912670 0.718772 3.035221 -0.117437 0.428312
    10 3.874826 -0.378922 -0.000003 -3.071824 -1.154953 0.221058
    11 17.848177 0.000000 0.000000 0.000000 0.000000 1.837718
    12 16.525253 0.000000 0.000000 -0.055253 0.300503 -1.667014
    13 -3.874826 0.378921 0.000007 -0.083651 -0.897460 -2.988162
    14 17.848173 0.000000 0.000000 0.000000 0.000000 1.608106
    15 16.525257 0.000000 0.000000 0.276839 -0.177172 -1.406979
  time 4
    0 -2.756339 6.812713 23.519583 1.998053 0.121452 0.257892
    1 0.000005 3.345128 -2.981901 1.570796 -0.208230 1.570796
    2 7.434531 0.656270 0.531266 0.231955 -0.215243 0.552064
    3 11.166673 1.065569 -1.675883 0.015658 1.141798 4.697438
    4 6.028143 0.000001 0.000000 1.200865 0.125503 -1.237869
    5 11.692552 0.000000 0.000002 0.000000 0.000000 -1.770151
    6 10.588524 1.249162 2.148604 2.497116 -1.089691 2.067390
    7 6.028142 0.000001 0.000000 -1.255813 -0.935344 -0.800500
    8 11.692555 0.000000 0.000000 0.000000 0.000000 -1.767931
    9 14.617903 2.912670 0.718772 3.035221 -0.117437 0.428312
    10 3.874826 -0.378922 -0.000003 -3.071824 -1.154953 0.221058
    11 17.848177 0.000000 0.000000 0.000000 0.000000 1.837718
    12 16.525253 0.000000 0.000000 -0.055253 0.300503 -1.667014
    13 -3.874826 0.378921 0.000007 -0.083651 -0.897460 -2.988162
    14 17.848173 0.000000 0.000000 0.000000 0.000000 1.608106
    15 16.525257 0.000000 0.000000 0.276839 -0.177172 -1.406979
  time 5
    0 -2.756339 6.812713 23.519583 1.998053 0.121452 0.257892
    1 0.000005 3.345128 -2.981901 1.570796 -0.208230 1.570796
    2 7.434531 0.656270 0.531266 0.231955 -0.215243 0.552064
    3 11.166673 1.065569 -1.675883 0.015658 1.141798 4.697438
    4 6.028143 0.000001 0.000000 1.200865 0.125503 -1.237869
    5 11.692552 0.000000 0.000002 0.000000 0.000000 -1.770151
    6 10.588524 1.249162 2.148604 2.497116 -1.089691 2.067390
    7 6.028142 0.000001 0.000000 -1.255813 -0.935344 -0.800500
    8 11.692555 0.000000 0.000000 0.000000 0.000000 -1.767931
    9 14.617903 2.912670 0.718772 3.035221 -0.117437 0.428312
    10 3.874826 -0.378922 -0.000003 -3.071824 -1.154953 0.221058
    11 17.848177 0.000000 0.000000 0.000000 0.000000 1.837718
    12 16.525253 0.000000 0.000000 -0.055253 0.300503 -1.667014
    13 -3.874826 0.378921 0.000007 -0.083651 -0.897460 -2.988162
    14 17.848173 0.000000 0.000000 0.000000 0.000000 1.608106
    15 16.525257 0.000000 0.000000 0.276839 -0.177172 -1.406979
end
