// Created by Crowbar 0.74
version 1
nodes
  0 "ValveBiped.Bip01" -1
  1 "ValveBiped.Bip01_Spine" 0
  2 "ValveBiped.Bip01_Spine2" 1
  3 "ValveBiped.Bip01_R_Clavicle" 2
  4 "ValveBiped.Bip01_R_UpperArm" 3
  5 "ValveBiped.Bip01_R_Forearm" 4
  6 "ValveBiped.Bip01_L_Clavicle" 2
  7 "ValveBiped.Bip01_L_UpperArm" 6
  8 "ValveBiped.Bip01_L_Forearm" 7
  9 "ValveBiped.Bip01_Head1" 2
  10 "ValveBiped.Bip01_L_Thigh" 0
  11 "ValveBiped.Bip01_L_Calf" 10
  12 "ValveBiped.Bip01_L_Foot" 11
  13 "ValveBiped.Bip01_R_Thigh" 0
  14 "ValveBiped.Bip01_R_Calf" 13
  15 "ValveBiped.Bip01_R_Foot" 14
end
skeleton
  time 0
    0 -1.975065 2.539145 14.995886 1.786765 0.098166 -0.000042
    1 0.000005 3.345128 -2.981901 1.674733 -0.032698 1.633691
    2 7.500940 0.515641 -0.011719 0.251845 -0.036253 0.409024
    3 10.893227 1.155415 -1.937610 -2.531597 1.333701 2.228868
    4 6.028143 0.000001 0.000000 1.883367 0.413002 -0.540711
    5 11.692552 0.000000 0.000002 0.000000 0.000000 -1.997008
    6 10.893221 1.155409 1.937660 0.954499 -1.220054 3.692405
    7 6.028142 0.000001 0.000000 -1.553620 -0.029421 -0.943564
    8 11.692555 0.000000 0.000000 0.000000 0.000000 -2.100419
    9 15.328862 2.088426 0.000000 2.941759 0.011373 -0.150804
    10 3.784980 0.906274 -0.000003 -3.501447 -0.937797 0.361210
    11 17.848177 0.000000 0.000000 0.000000 0.000000 2.368856
    12 16.525253 0.000000 0.000000 0.133308 0.236604 -1.811405
    13 -3.784980 -0.906274 0.000007 -0.350768 -1.192550 -2.421456
    14 17.848173 0.000000 0.000000 0.000000 0.000000 2.636159
    15 16.525257 0.000000 0.000000 0.103519 0.140264 -2.061666
  time 1
    0 -1.975065 2.472737 15.097451 1.785503 0.097603 -0.002327
    1 0.000005 3.345128 -2.981901 1.674746 -0.032698 1.633595
    2 7.500940 0.515641 -0.007813 0.251702 -0.036805 0.409024
    3 10.893227 1.155415 -1.937610 -2.531597 1.333701 2.228868
    4 6.028143 0.000001 0.000000 1.866729 0.400194 -0.549099
    5 11.692552 0.000000 0.000002 0.000000 0.000000 -2.001365
    6 10.893221 1.155409 1.937660 0.954499 -1.220054 3.692405
    7 6.028142 0.000001 0.000000 -1.552333 -0.014060 -0.945778
    8 11.692555 0.000000 0.000000 0.000000 0.000000 -2.092161
    9 15.328862 2.088426 0.000000 2.943588 0.010906 -0.150719
    10 3.784980 0.906274 -0.000003 -3.482966 -0.939682 0.343369
    11 17.848177 0.000000 0.000000 0.000000 0.000000 2.364685
    12 16.525253 0.000000 0.000000 0.129642 0.238374 -1.817266
    13 -3.784980 -0.906274 0.000007 -0.361289 -1.192026 -2.413090
    14 17.848173 0.000000 0.000000 0.000000 0.000000 2.631821
    15 16.525257 0.000000 0.000000 0.104322 0.138656 -2.058961
  time 2
    0 -1.975065 2.238355 15.495901 1.781698 0.095877 -0.009243
    1 0.000005 3.345128 -2.981901 1.674746 -0.032722 1.633308
    2 7.500940 0.515641 -0.003906 0.251328 -0.038483 0.409045
    3 10.893227 1.155415 -1.937610 -2.531597 1.333701 2.228868
    4 6.028143 0.000001 0.000000 1.818570 0.362414 -0.571561
    5 11.692552 0.000000 0.000002 0.000000 0.000000 -2.011677
    6 10.893221 1.155409 1.937660 0.954499 -1.220054 3.692405
    7 6.028142 0.000001 0.000000 -1.548916 0.028704 -0.951988
    8 11.692555 0.000000 0.000000 0.000000 0.000000 -2.066187
    9 15.328862 2.088426 0.000000 2.949123 0.009480 -0.150439
    10 3.784980 0.906274 -0.000003 -3.417096 -0.945742 0.278783
    11 17.848177 0.000000 0.000000 0.000000 0.000000 2.347150
    12 16.525253 0.000000 0.000000 0.117383 0.244314 -1.836677
    13 -3.784980 -0.906274 0.000007 -0.455710 -1.173755 -2.334271
    14 17.848173 0.000000 0.000000 0.000000 0.000000 2.612013
    15 16.525257 0.000000 0.000000 0.113355 0.122973 -2.069335
  time 3
    0 -1.975065 1.793028 16.398272 1.775386 0.092988 -0.020789
    1 0.000005 3.345128 -2.981901 1.674772 -0.032722 1.632828
    2 7.500940 0.515641 0.003906 0.250667 -0.041275 0.409066
    3 10.893227 1.155415 -1.937610 -2.531597 1.333701 2.228868
    4 6.028143 0.000001 0.000000 1.742737 0.302287 -0.600733
    5 11.692552 0.000000 0.000002 0.000000 0.000000 -2.021044
    6 10.893221 1.155409 1.937660 0.954499 -1.220054 3.692405
    7 6.028142 0.000001 0.000000 -1.544757 0.089848 -0.961046
    8 11.692555 0.000000 0.000000 0.000000 0.000000 -2.018292
    9 15.328862 2.088426 0.000000 2.958415 0.007095 -0.149967
    10 3.784980 0.906274 -0.000003 -3.287367 -0.951263 0.146866
    11 17.848177 0.000000 0.000000 0.000000 0.000000 2.303197
    12 16.525253 0.000000 0.000000 0.096694 0.254201 -1.867297
    13 -3.784980 -0.906274 0.000007 -0.696976 -1.085110 -2.133832
    14 17.848173 0.000000 0.000000 0.000000 0.000000 2.552343
    15 16.525257 0.000000 0.000000 0.148183 0.079142 -2.147068
  time 4
    0 -1.975065 1.238324 17.925663 1.766654 0.088926 -0.036906
    1 0.000005 3.345128 -2.981901 1.674798 -0.032722 1.632157
    2 7.500940 0.515641 0.015625 0.249747 -0.045194 0.409108
    3 10.893227 1.155415 -1.937610 -2.531597 1.333701 2.228868
    4 6.028143 0.000001 0.000000 1.644579 0.226496 -0.627576
    5 11.692552 0.000000 0.000002 0.000000 0.000000 -2.019737
    6 10.893221 1.155409 1.937660 0.954499 -1.220054 3.692405
    7 6.028142 0.000001 0.000000 -1.541440 0.156843 -0.972121
    8 11.692555 0.000000 0.000000 0.000000 0.000000 -1.944347
    9 15.328862 2.088426 0.000000 2.971364 0.003751 -0.149387
    10 3.784980 0.906274 -0.000003 -3.111438 -0.940939 -0.043377
    11 17.848177 0.000000 0.000000 0.000000 0.000000 2.219000
    12 16.525253 0.000000 0.000000 0.075649 0.264108 -1.889078
    13 -3.784980 -0.906274 0.000007 -0.912302 -0.922419 -1.973199
    14 17.848173 0.000000 0.000000 0.000000 0.000000 2.428257
    15 16.525257 0.000000 0.000000 0.207343 0.028635 -2.243104
  time 5
    0 -1.975065 0.886751 19.691341 1.755747 0.083724 -0.057419
    1 0.000005 3.345128 -2.981901 1.674824 -0.032722 1.631306
    2 7.500940 0.515641 0.035157 0.248569 -0.050179 0.409172
    3 10.893227 1.155415 -1.937610 -2.531597 1.333701 2.228868
    4 6.028143 0.000001 0.000000 1.531707 0.146697 -0.646216
    5 11.692552 0.000000 0.000002 0.000000 0.000000 -1.998097
    6 10.893221 1.155409 1.937660 0.954499 -1.220054 3.692405
    7 6.028142 0.000001 0.000000 -1.540599 0.216931 -0.984817
    8 11.692555 0.000000 0.000000 0.000000 0.000000 -1.842326
    9 15.328862 2.088426 0.000000 2.987872 -0.000503 -0.148678
    10 3.784980 0.906274 -0.000003 -2.963686 -0.908936 -0.218952
    11 17.848177 0.000000 0.000000 0.000000 0.000000 2.111012
    12 16.525253 0.000000 0.000000 0.065512 0.268808 -1.879341
    13 -3.784980 -0.906274 0.000007 -1.032391 -0.767203 -1.896758
    14 17.848173 0.000000 0.000000 0.000000 0.000000 2.260871
    15 16.525257 0.000000 0.000000 0.265556 0.006438 -2.283193
  time 6
    0 -1.975065 0.835968 21.261702 1.742895 0.077444 -0.082151
    1 0.000005 3.345128 -2.981901 1.674862 -0.032722 1.630276
    2 7.500940 0.515641 0.054689 0.247189 -0.056184 0.409235
    3 10.893227 1.155415 -1.937610 -2.531597 1.333701 2.228868
    4 6.028143 0.000001 0.000000 1.415574 0.076204 -0.658333
    5 11.692552 0.000000 0.000002 0.000000 0.000000 -1.950097
    6 10.893221 1.155409 1.937660 0.954499 -1.220054 3.692405
    7 6.028142 0.000001 0.000000 -1.543866 0.261091 -0.999136
    8 11.692555 0.000000 0.000000 0.000000 0.000000 -1.715006
    9 15.328862 2.088426 0.000000 3.007741 -0.005645 -0.147948
    10 3.784980 0.906274 -0.000003 -2.871284 -0.867731 -0.344866
    11 17.848177 0.000000 0.000000 0.000000 0.000000 2.006885
    12 16.525253 0.000000 0.000000 0.065185 0.268970 -1.846670
    13 -3.784980 -0.906274 0.000007 -1.109034 -0.640399 -1.853341
    14 17.848173 0.000000 0.000000 0.000000 0.000000 2.086855
    15 16.525257 0.000000 0.000000 0.313595 0.012087 -2.285712
  time 7
    0 -1.975065 1.007848 22.582055 1.728464 0.070182 -0.110518
    1 0.000005 3.345128 -2.981901 1.674901 -0.032722 1.629089
    2 7.500940 0.515641 0.082034 0.245551 -0.063087 0.409341
    3 10.893227 1.155415 -1.937610 -2.531597 1.333701 2.228868
    4 6.028143 0.000001 0.000000 1.313570 0.022344 -0.673059
    5 11.692552 0.000000 0.000002 0.000000 0.000000 -1.877189
    6 10.893221 1.155409 1.937660 0.954499 -1.220054 3.692405
    7 6.028142 0.000001 0.000000 -1.552184 0.286606 -1.014680
    8 11.692555 0.000000 0.000000 0.000000 0.000000 -1.571546
    9 15.328862 2.088426 0.000000 3.030625 -0.011589 -0.147196
    10 3.784980 0.906274 -0.000003 -2.816849 -0.824326 -0.434412
    11 17.848177 0.000000 0.000000 0.000000 0.000000 1.913341
    12 16.525253 0.000000 0.000000 0.069771 0.266834 -1.804422
    13 -3.784980 -0.906274 0.000007 -1.167446 -0.536936 -1.824720
    14 17.848173 0.000000 0.000000 0.000000 0.000000 1.928964
    15 16.525257 0.000000 0.000000 0.351565 0.033641 -2.275338
  time 8
    0 -1.975065 1.402392 23.859437 1.712894 0.062080 -0.142108
    1 0.000005 3.345128 -2.981901 1.674952 -0.032722 1.627783
    2 7.497033 0.515641 0.109378 0.243769 -0.070781 0.409447
    3 10.893227 1.155415 -1.937610 -2.531597 1.333701 2.228868
    4 6.028143 0.000001 0.000000 1.245596 -0.016589 -0.700088
    5 11.692552 0.000000 0.000002 0.000000 0.000000 -1.788378
    6 10.893221 1.155409 1.937660 0.954499 -1.220054 3.692405
    7 6.028142 0.000001 0.000000 -1.566047 0.297514 -1.030659
    8 11.692555 0.000000 0.000000 0.000000 0.000000 -1.428311
    9 15.328862 2.088426 0.000000 3.056079 -0.018217 -0.146551
    10 3.784980 0.906274 -0.000003 -2.783822 -0.779935 -0.507404
    11 17.848177 0.000000 0.000000 0.000000 0.000000 1.816631
    12 16.525253 0.000000 0.000000 0.078929 0.262562 -1.749747
    13 -3.784980 -0.906274 0.000007 -1.216697 -0.458694 -1.804024
    14 17.848173 0.000000 0.000000 0.000000 0.000000 1.789898
    15 16.525257 0.000000 0.000000 0.377789 0.064866 -2.251699
  time 9
    0 -1.975065 1.992253 25.160258 1.696657 0.053355 -0.176159
    1 0.000005 3.345128 -2.981901 1.675004 -0.032722 1.626357
    2 7.497033 0.515641 0.140629 0.241814 -0.079074 0.409595
    3 10.893227 1.155415 -1.937610 -2.531597 1.333701 2.228868
    4 6.028143 0.000001 0.000000 1.227118 -0.046168 -0.742588
    5 11.692552 0.000000 0.000002 0.000000 0.000000 -1.699058
    6 10.893221 1.155409 1.937660 0.954499 -1.220054 3.692405
    7 6.028142 0.000001 0.000000 -1.585356 0.304308 -1.045848
    8 11.692555 0.000000 0.000000 0.000000 0.000000 -1.310750
    9 15.328862 2.088426 0.000000 3.083559 -0.025395 -0.146036
    10 3.784980 0.906274 -0.000003 -2.763512 -0.734510 -0.572676
    11 17.848177 0.000000 0.000000 0.000000 0.000000 1.711963
    12 16.525253 0.000000 0.000000 0.091277 0.256764 -1.683701
    13 -3.784980 -0.906274 0.000007 -1.262138 -0.405411 -1.786147
    14 17.848173 0.000000 0.000000 0.000000 0.000000 1.668922
    15 16.525257 0.000000 0.000000 0.391713 0.100253 -2.213759
  time 10
    0 -1.975065 2.714932 26.461079 1.680245 0.044235 -0.211910
    1 0.000005 3.345128 -2.981901 1.675055 -0.032722 1.624870
    2 7.497033 0.515641 0.171880 0.239773 -0.087787 0.409765
    3 10.893227 1.155415 -1.937610 -2.531597 1.333701 2.228868
    4 6.028143 0.000001 0.000000 1.251699 -0.068375 -0.794502
    5 11.692552 0.000000 0.000002 0.000000 0.000000 -1.617509
    6 10.893221 1.155409 1.937660 0.954499 -1.220054 3.692405
    7 6.028142 0.000001 0.000000 -1.609171 0.315140 -1.060245
    8 11.692555 0.000000 0.000000 0.000000 0.000000 -1.228322
    9 15.328862 2.088426 0.000000 3.112374 -0.032934 -0.145714
    10 3.784980 0.906274 -0.000003 -2.750979 -0.688009 -0.634175
    11 17.848177 0.000000 0.000000 0.000000 0.000000 1.599649
    12 16.525253 0.000000 0.000000 0.104975 0.250254 -1.610032
    13 -3.784980 -0.906274 0.000007 -1.305856 -0.375731 -1.769062
    14 17.848173 0.000000 0.000000 0.000000 0.000000 1.566935
    15 16.525257 0.000000 0.000000 0.394087 0.134072 -2.162926
  time 11
    0 -1.975065 3.515737 27.750181 1.664131 0.035007 -0.248364
    1 0.000005 3.345128 -2.981901 1.675107 -0.032722 1.623336
    2 7.493127 0.515641 0.203131 0.237675 -0.096668 0.409955
    3 10.893227 1.155415 -1.937610 -2.531597 1.333701 2.228868
    4 6.028143 0.000001 0.000000 1.299022 -0.081046 -0.847069
    5 11.692552 0.000000 0.000002 0.000000 0.000000 -1.541551
    6 10.893221 1.155409 1.937660 0.954499 -1.220054 3.692405
    7 6.028142 0.000001 0.000000 -1.636006 0.330238 -1.074524
    8 11.692555 0.000000 0.000000 0.000000 0.000000 -1.170743
    9 15.328862 2.088426 0.000000 3.141782 -0.040640 -0.145585
    10 3.784980 0.906274 -0.000003 -2.743019 -0.640610 -0.694301
    11 17.848177 0.000000 0.000000 0.000000 0.000000 1.480383
    12 16.525253 0.000000 0.000000 0.118674 0.243683 -1.531590
    13 -3.784980 -0.906274 0.000007 -1.348577 -0.368738 -1.750040
    14 17.848173 0.000000 0.000000 0.000000 0.000000 1.484020
    15 16.525257 0.000000 0.000000 0.385732 0.161195 -2.098791
  time 12
    0 -1.975065 4.343888 29.000219 1.648771 0.025959 -0.284642
    1 0.000005 3.345128 -2.981901 1.675158 -0.032722 1.621826
    2 7.493127 0.515641 0.234382 0.235606 -0.105512 0.410167
    3 10.893227 1.155415 -1.937610 -2.531597 1.333701 2.228868
    4 6.028143 0.000001 0.000000 1.355793 -0.082244 -0.893391
    5 11.692552 0.000000 0.000002 0.000000 0.000000 -1.472492
    6 10.893221 1.155409 1.937660 0.954499 -1.220054 3.692405
    7 6.028142 0.000001 0.000000 -1.664920 0.350468 -1.088961
    8 11.692555 0.000000 0.000000 0.000000 0.000000 -1.137637
    9 15.328862 2.088426 0.000000 3.171041 -0.048298 -0.145714
    10 3.784980 0.906274 -0.000003 -2.737439 -0.592538 -0.754599
    11 17.848177 0.000000 0.000000 0.000000 0.000000 1.354705
    12 16.525253 0.000000 0.000000 0.131423 0.237519 -1.450618
    13 -3.784980 -0.906274 0.000007 -1.390572 -0.378835 -1.727847
    14 17.848173 0.000000 0.000000 0.000000 0.000000 1.415183
    15 16.525257 0.000000 0.000000 0.369184 0.177984 -2.020799
  time 13
    0 -1.975065 5.140787 30.199475 1.634533 0.017342 -0.319690
    1 0.000005 3.345128 -2.981901 1.675210 -0.032745 1.620364
    2 7.489221 0.515641 0.265633 0.233594 -0.114057 0.410399
    3 10.893227 1.155415 -1.937610 -2.531597 1.333701 2.228868
    4 6.028143 0.000001 0.000000 1.410975 -0.072614 -0.928994
    5 11.692552 0.000000 0.000002 0.000000 0.000000 -1.410767
    6 10.893221 1.155409 1.937660 0.954499 -1.220054 3.692405
    7 6.028142 0.000001 0.000000 -1.695121 0.375152 -1.103872
    8 11.692555 0.000000 0.000000 0.000000 0.000000 -1.126752
    9 15.328862 2.088426 0.000000 3.199362 -0.055704 -0.146036
    10 3.784980 0.906274 -0.000003 -2.732773 -0.544241 -0.816012
    11 17.848177 0.000000 0.000000 0.000000 0.000000 1.223697
    12 16.525253 0.000000 0.000000 0.142420 0.232128 -1.368974
    13 -3.784980 -0.906274 0.000007 -1.431115 -0.383118 -1.705830
    14 17.848173 0.000000 0.000000 0.000000 0.000000 1.342908
    15 16.525257 0.000000 0.000000 0.353939 0.191033 -1.941733
  time 14
    0 -1.975065 5.843933 31.324509 1.621698 0.009408 -0.352628
    1 0.000005 3.345128 -2.981901 1.675261 -0.032745 1.618986
    2 7.489221 0.511734 0.292978 0.231668 -0.122087 0.410611
    3 10.893227 1.155415 -1.937610 -2.531597 1.333701 2.228868
    4 6.028143 0.000001 0.000000 1.458047 -0.054784 -0.952947
    5 11.692552 0.000000 0.000002 0.000000 0.000000 -1.356522
    6 10.893221 1.155409 1.937660 0.954499 -1.220054 3.692405
    7 6.028142 0.000001 0.000000 -1.725571 0.402705 -1.119298
    8 11.692555 0.000000 0.000000 0.000000 0.000000 -1.133658
    9 15.328862 2.088426 0.000000 3.225953 -0.062643 -0.146530
    10 3.784980 0.906274 -0.000003 -2.727832 -0.495989 -0.878969
    11 17.848177 0.000000 0.000000 0.000000 0.000000 1.088827
    12 16.525253 0.000000 0.000000 0.151028 0.227897 -1.288771
    13 -3.784980 -0.906274 0.000007 -1.469664 -0.377698 -1.685575
    14 17.848173 0.000000 0.000000 0.000000 0.000000 1.265558
    15 16.525257 0.000000 0.000000 0.341461 0.201649 -1.865816
  time 15
    0 -1.975065 6.394731 32.363603 1.610476 0.002337 -0.382635
    1 0.000005 3.345128 -2.981901 1.675313 -0.032745 1.617740
    2 7.485314 0.511734 0.320322 0.229943 -0.129386 0.410844
    3 10.893227 1.155415 -1.937610 -2.531597 1.333701 2.228868
    4 6.028143 0.000001 0.000000 1.495002 -0.032023 -0.966648
    5 11.692552 0.000000 0.000002 0.000000 0.000000 -1.309611
    6 10.893221 1.155409 1.937660 0.954499 -1.220054 3.692405
    7 6.028142 0.000001 0.000000 -1.755228 0.430938 -1.134961
    8 11.692555 0.000000 0.000000 0.000000 0.000000 -1.153027
    9 15.328862 2.088426 0.000000 3.250220 -0.068947 -0.147131
    10 3.784980 0.906274 -0.000003 -2.721794 -0.447872 -0.943383
    11 17.848177 0.000000 0.000000 0.000000 0.000000 0.952567
    12 16.525253 0.000000 0.000000 0.156549 0.225171 -1.212411
    13 -3.784980 -0.906274 0.000007 -1.504312 -0.361919 -1.668755
    14 17.848173 0.000000 0.000000 0.000000 0.000000 1.184116
    15 16.525257 0.000000 0.000000 0.332142 0.209530 -1.795160
  time 16
    0 -1.975065 6.718960 33.289413 1.600955 -0.003715 -0.408950
    1 0.000005 3.345128 -2.981901 1.675352 -0.032745 1.616637
    2 7.485314 0.511734 0.343760 0.228420 -0.135797 0.411034
    3 10.893227 1.155415 -1.937610 -2.531597 1.333701 2.228868
    4 6.028143 0.000001 0.000000 1.522259 -0.007466 -0.972893
    5 11.692552 0.000000 0.000002 0.000000 0.000000 -1.269816
    6 10.893221 1.155409 1.937660 0.954499 -1.220054 3.692405
    7 6.028142 0.000001 0.000000 -1.783053 0.457849 -1.150307
    8 11.692555 0.000000 0.000000 0.000000 0.000000 -1.179677
    9 15.328862 2.088426 0.000000 3.271473 -0.074460 -0.147797
    10 3.784980 0.906274 -0.000003 -2.714109 -0.399889 -1.008313
    11 17.848177 0.000000 0.000000 0.000000 0.000000 0.819319
    12 16.525253 0.000000 0.000000 0.158226 0.224357 -1.143450
    13 -3.784980 -0.906274 0.000007 -1.534153 -0.335255 -1.657306
    14 17.848173 0.000000 0.000000 0.000000 0.000000 1.099728
    15 16.525257 0.000000 0.000000 0.326412 0.214336 -1.731988
  time 17
    0 -1.975065 6.758024 34.090218 1.593205 -0.008713 -0.431104
    1 0.000005 3.345128 -2.981901 1.675377 -0.032745 1.615714
    2 7.481408 0.511734 0.363292 0.227155 -0.141178 0.411225
    3 10.893227 1.155415 -1.937610 -2.531597 1.333701 2.228868
    4 6.028143 0.000001 0.000000 1.541489 0.016354 -0.974291
    5 11.692552 0.000000 0.000002 0.000000 0.000000 -1.237284
    6 10.893221 1.155409 1.937660 0.954499 -1.220054 3.692405
    7 6.028142 0.000001 0.000000 -1.807808 0.481703 -1.164507
    8 11.692555 0.000000 0.000000 0.000000 0.000000 -1.208654
    9 15.328862 2.088426 0.000000 3.289365 -0.079086 -0.148442
    10 3.784980 0.906274 -0.000003 -2.704961 -0.352355 -1.071527
    11 17.848177 0.000000 0.000000 0.000000 0.000000 0.695186
    12 16.525253 0.000000 0.000000 0.155570 0.225659 -1.085988
    13 -3.784980 -0.906274 0.000007 -1.558279 -0.298189 -1.652110
    14 17.848173 0.000000 0.000000 0.000000 0.000000 1.014602
    15 16.525257 0.000000 0.000000 0.324538 0.215904 -1.678339
  time 18
    0 -1.975065 6.593956 34.746488 1.587243 -0.012572 -0.448628
    1 0.000005 3.345128 -2.981901 1.675403 -0.032745 1.614995
    2 7.481408 0.511734 0.378918 0.226149 -0.145433 0.411352
    3 10.893227 1.155415 -1.937610 -2.531597 1.333701 2.228868
    4 6.028143 0.000001 0.000000 1.554532 0.037318 -0.973172
    5 11.692552 0.000000 0.000002 0.000000 0.000000 -1.211940
    6 10.893221 1.155409 1.937660 0.954499 -1.220054 3.692405
    7 6.028142 0.000001 0.000000 -1.828404 0.501292 -1.176689
    8 11.692555 0.000000 0.000000 0.000000 0.000000 -1.235980
    9 15.328862 2.088426 0.000000 3.303500 -0.082730 -0.149022
    10 3.784980 0.906274 -0.000003 -2.695812 -0.307874 -1.129680
    11 17.848177 0.000000 0.000000 0.000000 0.000000 0.584108
    12 16.525253 0.000000 0.000000 0.150271 0.228283 -1.039289
    13 -3.784980 -0.906274 0.000007 -1.576782 -0.256664 -1.652110
    14 17.848173 0.000000 0.000000 0.000000 0.000000 0.933897
    15 16.525257 0.000000 0.000000 0.325323 0.215260 -1.634248
  time 19
    0 -1.975065 6.340042 35.234784 1.583035 -0.015316 -0.461228
    1 0.000005 3.345128 -2.981901 1.675429 -0.032745 1.614468
    2 7.477502 0.511734 0.390637 0.225402 -0.148501 0.411458
    3 10.893227 1.155415 -1.937610 -2.531597 1.333701 2.228868
    4 6.028143 0.000001 0.000000 1.562893 0.053582 -0.971215
    5 11.692552 0.000000 0.000002 0.000000 0.000000 -1.194004
    6 10.893221 1.155409 1.937660 0.954499 -1.220054 3.692405
    7 6.028142 0.000001 0.000000 -1.843901 0.515823 -1.186024
    8 11.692555 0.000000 0.000000 0.000000 0.000000 -1.258351
    9 15.328862 2.088426 0.000000 3.313682 -0.085342 -0.149473
    10 3.784980 0.906274 -0.000003 -2.688219 -0.270170 -1.178828
    11 17.848177 0.000000 0.000000 0.000000 0.000000 0.491491
    12 16.525253 0.000000 0.000000 0.144305 0.231213 -1.002902
    13 -3.784980 -0.906274 0.000007 -1.589934 -0.217762 -1.655104
    14 17.848173 0.000000 0.000000 0.000000 0.000000 0.864733
    15 16.525257 0.000000 0.000000 0.327376 0.213531 -1.600310
  time 20
    0 -1.975065 6.101754 35.543388 1.580528 -0.016946 -0.468848
    1 0.000005 3.345128 -2.981901 1.675442 -0.032745 1.614144
    2 7.477502 0.511734 0.394543 0.224971 -0.150335 0.411542
    3 10.893227 1.155415 -1.937610 -2.531597 1.333701 2.228868
    4 6.028143 0.000001 0.000000 1.567575 0.063948 -0.969537
    5 11.692552 0.000000 0.000002 0.000000 0.000000 -1.183402
    6 10.893221 1.155409 1.937660 0.954499 -1.220054 3.692405
    7 6.028142 0.000001 0.000000 -1.853506 0.524844 -1.191957
    8 11.692555 0.000000 0.000000 0.000000 0.000000 -1.273215
    9 15.328862 2.088426 0.000000 3.319860 -0.086924 -0.149752
    10 3.784980 0.906274 -0.000003 -2.682912 -0.243777 -1.213222
    11 17.848177 0.000000 0.000000 0.000000 0.000000 0.427146
    12 16.525253 0.000000 0.000000 0.139467 0.233593 -0.978752
    13 -3.784980 -0.906274 0.000007 -1.597281 -0.188825 -1.658451
    14 17.848173 0.000000 0.000000 0.000000 0.000000 0.815949
    15 16.525257 0.000000 0.000000 0.329465 0.211782 -1.578116
  time 21
    0 -1.975065 5.996282 35.652766 1.579703 -0.017486 -0.471368
    1 0.000005 3.345128 -2.981901 1.675442 -0.032745 1.614048
    2 7.477502 0.511734 0.398450 0.224827 -0.150958 0.411563
    3 10.893227 1.155415 -1.937610 -2.531597 1.333701 2.228868
    4 6.028143 0.000001 0.000000 1.569164 0.067542 -0.968885
    5 11.692552 0.000000 0.000002 0.000000 0.000000 -1.179916
    6 10.893221 1.155409 1.937660 0.954499 -1.220054 3.692405
    7 6.028142 0.000001 0.000000 -1.856774 0.527901 -1.193974
    8 11.692555 0.000000 0.000000 0.000000 0.000000 -1.278620
    9 15.328862 2.088426 0.000000 3.321887 -0.087440 -0.149838
    10 3.784980 0.906274 -0.000003 -2.680991 -0.233947 -1.225917
    11 17.848177 0.000000 0.000000 0.000000 0.000000 0.403586
    12 16.525253 0.000000 0.000000 0.137478 0.234569 -0.970296
    13 -3.784980 -0.906274 0.000007 -1.599730 -0.177592 -1.660212
    14 17.848173 0.000000 0.000000 0.000000 0.000000 0.797614
    15 16.525257 0.000000 0.000000 0.330411 0.210978 -1.570261
end
