// Created by Crowbar 0.74
version 1
nodes
  0 "ValveBiped.Bip01" -1
  1 "ValveBiped.Bip01_Spine" 0
  2 "ValveBiped.Bip01_Spine2" 1
  3 "ValveBiped.Bip01_R_Clavicle" 2
  4 "ValveBiped.Bip01_R_UpperArm" 3
  5 "ValveBiped.Bip01_R_Forearm" 4
  6 "ValveBiped.Bip01_L_Clavicle" 2
  7 "ValveBiped.Bip01_L_UpperArm" 6
  8 "ValveBiped.Bip01_L_Forearm" 7
  9 "ValveBiped.Bip01_Head1" 2
  10 "ValveBiped.Bip01_L_Thigh" 0
  11 "ValveBiped.Bip01_L_Calf" 10
  12 "ValveBiped.Bip01_L_Foot" 11
  13 "ValveBiped.Bip01_R_Thigh" 0
  14 "ValveBiped.Bip01_R_Calf" 13
  15 "ValveBiped.Bip01_R_Foot" 14
end
skeleton
  time 0
    0 0.411726 -0.164063 32.070625 1.600078 -0.049113 -0.530679
    1 0.000005 3.345128 -2.981901 1.571543 -0.089519 1.536065
    2 7.446251 0.800806 0.078127 -0.397716 -0.105908 0.394866
    3 10.596343 1.714026 -1.796981 -2.749958 0.951248 2.093489
    4 6.028143 0.000001 0.000000 1.402698 1.195610 -0.690954
    5 11.692552 0.000000 0.000002 0.000000 0.000000 -1.763397
    6 10.674464 1.292132 2.054851 -1.309856 -1.365916 6.135057
    7 6.028142 0.000001 0.000000 -2.701278 -0.773160 -0.200005
    8 11.692555 0.000000 0.000000 0.000000 0.000000 -1.181854
    9 15.383552 2.400936 0.128910 3.833485 0.068660 -0.200210
    10 3.886546 -0.210948 -0.000003 -1.859895 -0.296114 -1.575695
    11 17.848177 0.000000 0.000000 0.000000 0.000000 1.398271
    12 16.525253 0.000000 0.000000 0.111743 0.250132 -1.146269
    13 -3.886546 0.210948 0.000007 -1.256243 -0.773060 -1.681965
    14 17.848173 0.000000 0.000000 0.000000 0.000000 1.122401
    15 16.525257 0.000000 0.000000 -0.154863 0.005191 -1.352625
  time 1
    0 0.407820 -0.523251 31.988592 1.601060 -0.053164 -0.554298
    1 0.000005 3.345128 -2.981901 1.569972 -0.089776 1.537778
    2 7.442344 0.804712 0.074221 -0.400963 -0.099832 0.398527
    3 10.596343 1.714026 -1.796981 -2.762227 0.953865 2.083410
    4 6.028143 0.000001 0.000000 1.337399 1.189206 -0.743241
    5 11.692552 0.000000 0.000002 0.000000 0.000000 -1.779083
    6 10.674464 1.292132 2.054851 -1.298798 -1.376928 6.124224
    7 6.028142 0.000001 0.000000 -2.659640 -0.727339 -0.267285
    8 11.692555 0.000000 0.000000 0.000000 0.000000 -1.257975
    9 15.383552 2.404842 0.128910 3.843123 0.066562 -0.195720
    10 3.886546 -0.210948 -0.000003 -1.876180 -0.335927 -1.557512
    11 17.848177 0.000000 0.000000 0.000000 0.000000 1.428706
    12 16.525253 0.000000 0.000000 0.104337 0.236075 -1.163918
    13 -3.886546 0.210948 0.000007 -1.267762 -0.773759 -1.680996
    14 17.848173 0.000000 0.000000 0.000000 0.000000 1.138280
    15 16.525257 0.000000 0.000000 -0.150757 0.000245 -1.370965
  time 2
    0 0.400007 -1.508666 31.769835 1.604935 -0.063195 -0.618650
    1 0.000005 3.345128 -2.981901 1.565656 -0.090594 1.542464
    2 7.442344 0.820338 0.062502 -0.409730 -0.083101 0.408643
    3 10.588531 1.717933 -1.796981 -2.796379 0.960583 2.055405
    4 6.028143 0.000001 0.000000 1.193675 1.166952 -0.845671
    5 11.692552 0.000000 0.000002 0.000000 0.000000 -1.819095
    6 10.670558 1.299945 2.054851 -1.260475 -1.406733 6.086453
    7 6.028142 0.000001 0.000000 -2.580373 -0.603049 -0.417745
    8 11.692555 0.000000 0.000000 0.000000 0.000000 -1.435968
    9 15.379645 2.416561 0.128910 3.869664 0.060822 -0.183562
    10 3.886546 -0.210948 -0.000003 -1.924942 -0.437862 -1.496528
    11 17.848177 0.000000 0.000000 0.000000 0.000000 1.498690
    12 16.525253 0.000000 0.000000 0.088813 0.201918 -1.199183
    13 -3.886546 0.210948 0.000007 -1.299235 -0.775989 -1.679587
    14 17.848173 0.000000 0.000000 0.000000 0.000000 1.180188
    15 16.525257 0.000000 0.000000 -0.138261 -0.013407 -1.419280
  time 3
    0 0.396101 -3.010931 31.433887 1.613509 -0.075215 -0.714122
    1 0.000005 3.345128 -2.981901 1.559190 -0.092066 1.549487
    2 7.434531 0.843776 0.046876 -0.422319 -0.057886 0.423923
    3 10.580718 1.725745 -1.796981 -2.848522 0.969467 2.012612
    4 6.028143 0.000001 0.000000 1.062492 1.133272 -0.902525
    5 11.692552 0.000000 0.000002 0.000000 0.000000 -1.870944
    6 10.666651 1.307758 2.054851 -1.166576 -1.450064 5.993464
    7 6.028142 0.000001 0.000000 -2.514722 -0.426258 -0.590275
    8 11.692555 0.000000 0.000000 0.000000 0.000000 -1.639110
    9 15.371832 2.436093 0.125004 3.909698 0.052289 -0.165733
    10 3.886546 -0.210948 -0.000003 -2.009842 -0.568524 -1.376018
    11 17.848177 0.000000 0.000000 0.000000 0.000000 1.568751
    12 16.525253 0.000000 0.000000 0.074966 0.164282 -1.220002
    13 -3.886546 0.210948 0.000007 -1.346581 -0.780141 -1.678618
    14 17.848173 0.000000 0.000000 0.000000 0.000000 1.237811
    15 16.525257 0.000000 0.000000 -0.116232 -0.034318 -1.486008
  time 4
    0 0.407820 -4.916760 31.019812 1.627888 -0.084899 -0.830870
    1 0.000005 3.345128 -2.981901 1.551191 -0.094308 1.558212
    2 7.426719 0.875027 0.023438 -0.437151 -0.026378 0.443011
    3 10.572905 1.733558 -1.796981 -2.914644 0.978453 1.958231
    4 6.028143 0.000001 0.000000 1.003714 1.105582 -0.857228
    5 11.692552 0.000000 0.000002 0.000000 0.000000 -1.923156
    6 10.658839 1.315571 2.054851 -0.892791 -1.499357 5.720918
    7 6.028142 0.000001 0.000000 -2.465211 -0.224745 -0.757743
    8 11.692555 0.000000 0.000000 0.000000 0.000000 -1.813274
    9 15.364020 2.463438 0.125004 3.959667 0.041838 -0.144188
    10 3.886546 -0.210948 -0.000003 -2.130239 -0.685226 -1.186118
    11 17.848177 0.000000 0.000000 0.000000 0.000000 1.600113
    12 16.525253 0.000000 0.000000 0.065141 0.141782 -1.202322
    13 -3.886546 0.210948 0.000007 -1.405447 -0.787528 -1.681788
    14 17.848173 0.000000 0.000000 0.000000 0.000000 1.300427
    15 16.525257 0.000000 0.000000 -0.083618 -0.061220 -1.559443
  time 5
    0 0.442977 -7.108963 30.547141 1.647543 -0.088614 -0.958752
    1 0.000005 3.345128 -2.981901 1.542239 -0.097392 1.567992
    2 7.418906 0.906278 0.000000 -0.452643 0.009180 0.464725
    3 10.561186 1.745277 -1.796981 -2.989908 0.985752 1.896306
    4 6.028143 0.000001 0.000000 1.041589 1.094386 -0.701579
    5 11.692552 0.000000 0.000002 0.000000 0.000000 -1.965419
    6 10.651026 1.327290 2.054851 0.122561 -1.527818 4.707141
    7 6.028142 0.000001 0.000000 -2.396738 -0.017343 -0.890641
    8 11.692555 0.000000 0.000000 0.000000 0.000000 -1.929183
    9 15.348394 2.498595 0.125004 4.016209 0.030345 -0.120882
    10 3.886546 -0.210948 -0.000003 -2.257498 -0.746226 -0.955048
    11 17.848177 0.000000 0.000000 0.000000 0.000000 1.563421
    12 16.525253 0.000000 0.000000 0.052882 0.147336 -1.141977
    13 -3.886546 0.210948 0.000007 -1.470389 -0.799767 -1.689802
    14 17.848173 0.000000 0.000000 0.000000 0.000000 1.358869
    15 16.525257 0.000000 0.000000 -0.040614 -0.092786 -1.628987
  time 6
    0 0.513292 -9.482066 30.051033 1.670320 -0.084575 -1.087514
    1 0.000005 3.345128 -2.981901 1.532939 -0.101411 1.578167
    2 7.411093 0.941435 -0.023438 -0.467187 0.046524 0.487983
    3 10.549467 1.756996 -1.796981 -3.068889 0.990216 1.831604
    4 6.028143 0.000001 0.000000 1.176367 1.090424 -0.457667
    5 11.692552 0.000000 0.000002 0.000000 0.000000 -1.987495
    6 10.639307 1.339009 2.054851 1.017130 -1.491922 3.814826
    7 6.028142 0.000001 0.000000 -2.261079 0.174092 -0.939687
    8 11.692555 0.000000 0.000000 0.000000 0.000000 -1.980982
    9 15.332769 2.541565 0.125004 4.075816 0.018564 -0.097597
    10 3.886546 -0.210948 -0.000003 -2.335811 -0.734062 -0.753999
    11 17.848177 0.000000 0.000000 0.000000 0.000000 1.446318
    12 16.525253 0.000000 0.000000 0.029551 0.181696 -1.053606
    13 -3.886546 0.210948 0.000007 -1.535604 -0.818126 -1.704509
    14 17.848173 0.000000 0.000000 0.000000 0.000000 1.406015
    15 16.525257 0.000000 0.000000 0.010906 -0.127309 -1.686230
  time 7
    0 0.626577 -11.914974 29.558830 1.693290 -0.073549 -1.206723
    1 0.000005 3.345128 -2.981901 1.523870 -0.106458 1.588126
    2 7.399374 0.976592 -0.046876 -0.479230 0.083281 0.511855
    3 10.533841 1.768715 -1.796981 -3.145392 0.991539 1.769497
    4 6.028143 0.000001 0.000000 1.372180 1.076510 -0.177685
    5 11.692552 0.000000 0.000002 0.000000 0.000000 -1.982267
    6 10.627588 1.354634 2.054851 1.249543 -1.438792 3.585324
    7 6.028142 0.000001 0.000000 -2.071799 0.288871 -0.899264
    8 11.692555 0.000000 0.000000 0.000000 0.000000 -1.982183
    9 15.313237 2.592348 0.125004 4.135027 0.007119 -0.075966
    10 3.886546 -0.210948 -0.000003 -2.340659 -0.659956 -0.633232
    11 17.848177 0.000000 0.000000 0.000000 0.000000 1.254209
    12 16.525253 0.000000 0.000000 -0.007716 0.233532 -0.955178
    13 -3.886546 0.210948 0.000007 -1.595285 -0.842035 -1.725205
    14 17.848173 0.000000 0.000000 0.000000 0.000000 1.437692
    15 16.525257 0.000000 0.000000 0.067191 -0.162474 -1.725986
  time 8
    0 0.790644 -14.298307 29.101785 1.713823 -0.058760 -1.306650
    1 0.000005 3.345128 -2.981901 1.515652 -0.112626 1.597210
    2 7.387655 1.011750 -0.070315 -0.487221 0.117053 0.535494
    3 10.518216 1.784341 -1.796981 -3.213283 0.990245 1.715478
    4 6.028143 0.000001 0.000000 1.569582 1.048497 0.074056
    5 11.692552 0.000000 0.000002 0.000000 0.000000 -1.952639
    6 10.619775 1.366353 2.054851 1.326855 -1.390302 3.511795
    7 6.028142 0.000001 0.000000 -1.928466 0.294909 -0.851800
    8 11.692555 0.000000 0.000000 0.000000 0.000000 -1.955533
    9 15.289799 2.647037 0.125004 4.190432 -0.003523 -0.057514
    10 3.886546 -0.210948 -0.000003 -2.301411 -0.545363 -0.588030
    11 17.848177 0.000000 0.000000 0.000000 0.000000 1.005634
    12 16.525253 0.000000 0.000000 -0.053902 0.286730 -0.854860
    13 -3.886546 0.210948 0.000007 -1.644899 -0.868611 -1.752065
    14 17.848173 0.000000 0.000000 0.000000 0.000000 1.453244
    15 16.525257 0.000000 0.000000 0.123316 -0.195388 -1.746920
  time 9
    0 1.013307 -16.514874 28.703335 1.730393 -0.044966 -1.378034
    1 0.000005 3.345128 -2.981901 1.508890 -0.120009 1.604784
    2 7.379842 1.043001 -0.089846 -0.489578 0.145373 0.558223
    3 10.506497 1.796060 -1.796981 -3.266723 0.987599 1.674496
    4 6.028143 0.000001 0.000000 1.726934 1.013803 0.261208
    5 11.692552 0.000000 0.000002 0.000000 0.000000 -1.916039
    6 10.608056 1.374166 2.054851 1.350973 -1.353322 3.492718
    7 6.028142 0.000001 0.000000 -1.867914 0.241502 -0.840449
    8 11.692555 0.000000 0.000000 0.000000 0.000000 -1.923703
    9 15.262454 2.705632 0.125004 4.238572 -0.013075 -0.043659
    10 3.886546 -0.210948 -0.000003 -2.257223 -0.418561 -0.591804
    11 17.848177 0.000000 0.000000 0.000000 0.000000 0.733268
    12 16.525253 0.000000 0.000000 -0.099362 0.327763 -0.754670
    13 -3.886546 0.210948 0.000007 -1.679547 -0.892827 -1.785002
    14 17.848173 0.000000 0.000000 0.000000 0.000000 1.455617
    15 16.525257 0.000000 0.000000 0.173568 -0.222954 -1.751625
  time 10
    0 1.310191 -18.447485 28.398638 1.742334 -0.036829 -1.411734
    1 0.000005 3.345128 -2.981901 1.504252 -0.128747 1.610201
    2 7.372030 1.066439 -0.101566 -0.484807 0.165699 0.579259
    3 10.490871 1.807779 -1.796981 -3.300522 0.985170 1.651139
    4 6.028143 0.000001 0.000000 1.825761 0.977359 0.370814
    5 11.692552 0.000000 0.000002 0.000000 0.000000 -1.900427
    6 10.596337 1.385885 2.054851 1.344586 -1.332859 3.505564
    7 6.028142 0.000001 0.000000 -1.856675 0.180282 -0.851800
    8 11.692555 0.000000 0.000000 0.000000 0.000000 -1.906511
    9 15.231203 2.772041 0.128910 4.275938 -0.021392 -0.035797
    10 3.886546 -0.210948 -0.000003 -2.230692 -0.328925 -0.613590
    11 17.848177 0.000000 0.000000 0.000000 0.000000 0.518836
    12 16.525253 0.000000 0.000000 -0.133126 0.348209 -0.677926
    13 -3.886546 0.210948 0.000007 -1.695874 -0.908388 -1.826305
    14 17.848173 0.000000 0.000000 0.000000 0.000000 1.450952
    15 16.525257 0.000000 0.000000 0.211949 -0.241813 -1.745067
  time 11
    0 1.681296 -20.256301 28.152537 1.751259 -0.033689 -1.417185
    1 0.000005 3.345128 -2.981901 1.502629 -0.141270 1.613162
    2 7.364217 1.089877 -0.109378 -0.468136 0.176821 0.601564
    3 10.479152 1.819498 -1.796981 -3.316919 0.983774 1.644620
    4 6.028143 0.000001 0.000000 1.879772 0.925480 0.420864
    5 11.692552 0.000000 0.000002 0.000000 0.000000 -1.924463
    6 10.584617 1.401511 2.054851 1.310744 -1.328155 3.548703
    7 6.028142 0.000001 0.000000 -1.856279 0.118496 -0.874029
    8 11.692555 0.000000 0.000000 0.000000 0.000000 -1.912217
    9 15.188233 2.857981 0.132817 4.306878 -0.029278 -0.035669
    10 3.886546 -0.210948 -0.000003 -2.225020 -0.315908 -0.616849
    11 17.848177 0.000000 0.000000 0.000000 0.000000 0.457349
    12 16.525253 0.000000 0.000000 -0.153281 0.350894 -0.670687
    13 -3.886546 0.210948 0.000007 -1.708118 -0.911666 -1.871923
    14 17.848173 0.000000 0.000000 0.000000 0.000000 1.439656
    15 16.525257 0.000000 0.000000 0.246955 -0.248549 -1.733322
  time 12
    0 2.126622 -22.124920 27.914249 1.759219 -0.032167 -1.410738
    1 0.000005 3.345128 -2.981901 1.503789 -0.158699 1.614336
    2 7.356404 1.109409 -0.113285 -0.438674 0.180548 0.627298
    3 10.459620 1.835124 -1.796981 -3.325944 0.982946 1.646431
    4 6.028143 0.000001 0.000000 1.913049 0.850150 0.436150
    5 11.692552 0.000000 0.000002 0.000000 0.000000 -1.981032
    6 10.572898 1.417136 2.054851 1.258790 -1.330518 3.612454
    7 6.028142 0.000001 0.000000 -1.846327 0.048028 -0.895823
    8 11.692555 0.000000 0.000000 0.000000 0.000000 -1.934738
    9 15.133544 2.971266 0.140629 4.336483 -0.037440 -0.042091
    10 3.886546 -0.210948 -0.000003 -2.231515 -0.354689 -0.599180
    11 17.848177 0.000000 0.000000 0.000000 0.000000 0.506090
    12 16.525253 0.000000 0.000000 -0.166979 0.345930 -0.717162
    13 -3.886546 0.210948 0.000007 -1.719547 -0.903492 -1.924675
    14 17.848173 0.000000 0.000000 0.000000 0.000000 1.417229
    15 16.525257 0.000000 0.000000 0.284300 -0.248489 -1.716871
  time 13
    0 2.634450 -24.014279 27.683773 1.766408 -0.031460 -1.393683
    1 0.000005 3.345128 -2.981901 1.506764 -0.179025 1.614228
    2 7.352498 1.125034 -0.113285 -0.400906 0.178343 0.654450
    3 10.440089 1.850749 -1.796981 -3.330840 0.982480 1.652829
    4 6.028143 0.000001 0.000000 1.931443 0.760444 0.422263
    5 11.692552 0.000000 0.000002 0.000000 0.000000 -2.059241
    6 10.557273 1.436668 2.054851 1.193966 -1.336067 3.690296
    7 6.028142 0.000001 0.000000 -1.825978 -0.024930 -0.913385
    8 11.692555 0.000000 0.000000 0.000000 0.000000 -1.969646
    9 15.067136 3.096269 0.144536 4.362629 -0.045781 -0.052939
    10 3.886546 -0.210948 -0.000003 -2.246977 -0.424172 -0.570961
    11 17.848177 0.000000 0.000000 0.000000 0.000000 0.611453
    12 16.525253 0.000000 0.000000 -0.175751 0.336450 -0.788461
    13 -3.886546 0.210948 0.000007 -1.722721 -0.883386 -1.985705
    14 17.848173 0.000000 0.000000 0.000000 0.000000 1.383916
    15 16.525257 0.000000 0.000000 0.318075 -0.244930 -1.693641
  time 14
    0 3.185248 -25.908753 27.461110 1.773054 -0.030597 -1.367192
    1 0.000005 3.345128 -2.981901 1.510616 -0.200310 1.613126
    2 7.344685 1.140660 -0.113285 -0.359286 0.171428 0.681073
    3 10.416650 1.866375 -1.796981 -3.333022 0.982262 1.661761
    4 6.028143 0.000001 0.000000 1.940138 0.664841 0.384981
    5 11.692552 0.000000 0.000002 0.000000 0.000000 -2.147980
    6 10.541647 1.452294 2.054851 1.117798 -1.342917 3.779643
    7 6.028142 0.000001 0.000000 -1.798005 -0.096605 -0.927070
    8 11.692555 0.000000 0.000000 0.000000 0.000000 -2.012737
    9 14.989008 3.225180 0.156255 4.382696 -0.054326 -0.066708
    10 3.886546 -0.210948 -0.000003 -2.269848 -0.507973 -0.539997
    11 17.848177 0.000000 0.000000 0.000000 0.000000 0.734659
    12 16.525253 0.000000 0.000000 -0.180262 0.324061 -0.864565
    13 -3.886546 0.210948 0.000007 -1.715919 -0.850952 -2.051666
    14 17.848173 0.000000 0.000000 0.000000 0.000000 1.339716
    15 16.525257 0.000000 0.000000 0.345513 -0.238214 -1.661888
  time 15
    0 3.771204 -27.792716 27.250166 1.779366 -0.028571 -1.332613
    1 0.000005 3.345128 -2.981901 1.514403 -0.220589 1.611232
    2 7.340779 1.156285 -0.109378 -0.318213 0.161097 0.705263
    3 10.401025 1.882000 -1.796981 -3.333258 0.982248 1.671720
    4 6.028143 0.000001 0.000000 1.941559 0.571404 0.328687
    5 11.692552 0.000000 0.000002 0.000000 0.000000 -2.235992
    6 10.526022 1.467919 2.054851 1.031239 -1.349832 3.878672
    7 6.028142 0.000001 0.000000 -1.766516 -0.163487 -0.938184
    8 11.692555 0.000000 0.000000 0.000000 0.000000 -2.060406
    9 14.906975 3.354090 0.164068 4.393322 -0.063159 -0.082110
    10 3.886546 -0.210948 -0.000003 -2.299856 -0.598059 -0.508433
    11 17.848177 0.000000 0.000000 0.000000 0.000000 0.858791
    12 16.525253 0.000000 0.000000 -0.180841 0.309719 -0.937337
    13 -3.886546 0.210948 0.000007 -1.701951 -0.806411 -2.117276
    14 17.848173 0.000000 0.000000 0.000000 0.000000 1.285285
    15 16.525257 0.000000 0.000000 0.365667 -0.227739 -1.620132
  time 16
    0 4.380597 -29.658356 27.050941 1.785713 -0.024497 -1.291294
    1 0.000005 3.345128 -2.981901 1.517159 -0.237855 1.608715
    2 7.336872 1.168004 -0.101566 -0.281939 0.148944 0.725325
    3 10.385399 1.893719 -1.796981 -3.332019 0.982364 1.681075
    4 6.028143 0.000001 0.000000 1.934704 0.487734 0.256641
    5 11.692552 0.000000 0.000002 0.000000 0.000000 -2.312676
    6 10.514303 1.483544 2.054851 0.935147 -1.355923 3.985083
    7 6.028142 0.000001 0.000000 -1.735918 -0.221235 -0.948705
    8 11.692555 0.000000 0.000000 0.000000 0.000000 -2.109578
    9 14.828847 3.471281 0.171880 4.388478 -0.072399 -0.097640
    10 3.886546 -0.210948 -0.000003 -2.337274 -0.690029 -0.475926
    11 17.848177 0.000000 0.000000 0.000000 0.000000 0.977363
    12 16.525253 0.000000 0.000000 -0.177591 0.294054 -1.004280
    13 -3.886546 0.210948 0.000007 -1.683175 -0.750768 -2.177601
    14 17.848173 0.000000 0.000000 0.000000 0.000000 1.221359
    15 16.525257 0.000000 0.000000 0.379056 -0.212780 -1.567334
  time 17
    0 4.997804 -31.497860 26.859529 1.792482 -0.017701 -1.244642
    1 0.000005 3.345128 -2.981901 1.517842 -0.250191 1.605815
    2 7.332966 1.183630 -0.093753 -0.254518 0.137104 0.739674
    3 10.377587 1.901532 -1.796981 -3.329719 0.982582 1.687111
    4 6.028143 0.000001 0.000000 1.914804 0.422033 0.172013
    5 11.692552 0.000000 0.000002 0.000000 0.000000 -2.367793
    6 10.506490 1.487451 2.054851 0.831429 -1.360518 4.094465
    7 6.028142 0.000001 0.000000 -1.709925 -0.263696 -0.961323
    8 11.692555 0.000000 0.000000 0.000000 0.000000 -2.157323
    9 14.766345 3.553315 0.179693 4.354523 -0.081999 -0.110743
    10 3.886546 -0.210948 -0.000003 -2.382469 -0.781012 -0.441531
    11 17.848177 0.000000 0.000000 0.000000 0.000000 1.087746
    12 16.525253 0.000000 0.000000 -0.170630 0.277474 -1.064977
    13 -3.886546 0.210948 0.000007 -1.662949 -0.685858 -2.228679
    14 17.848173 0.000000 0.000000 0.000000 0.000000 1.149166
    15 16.525257 0.000000 0.000000 0.387286 -0.192895 -1.503162
  time 18
    0 5.611104 -33.295601 26.679836 1.800074 -0.007826 -1.194122
    1 0.000005 3.345128 -2.981901 1.516064 -0.258415 1.601932
    2 7.325153 1.199255 -0.082034 -0.235002 0.124484 0.749620
    3 10.385399 1.893719 -1.796981 -3.326593 0.982888 1.685843
    4 6.028143 0.000001 0.000000 1.877766 0.371352 0.073870
    5 11.692552 0.000000 0.000002 0.000000 0.000000 -2.402794
    6 10.514303 1.483544 2.054851 0.722849 -1.363163 4.200492
    7 6.028142 0.000001 0.000000 -1.686259 -0.289324 -0.971448
    8 11.692555 0.000000 0.000000 0.000000 0.000000 -2.206494
    9 14.754626 3.561127 0.183599 4.291160 -0.087128 -0.116221
    10 3.886546 -0.210948 -0.000003 -2.435714 -0.868673 -0.404220
    11 17.848177 0.000000 0.000000 0.000000 0.000000 1.188782
    12 16.525253 0.000000 0.000000 -0.160212 0.260182 -1.119876
    13 -3.886546 0.210948 0.000007 -1.642450 -0.614216 -2.268397
    14 17.848173 0.000000 0.000000 0.000000 0.000000 1.070425
    15 16.525257 0.000000 0.000000 0.392659 -0.168245 -1.428098
  time 19
    0 6.208778 -35.055488 26.515768 1.808911 0.005093 -1.141258
    1 0.000005 3.345128 -2.981901 1.512432 -0.264770 1.597294
    2 7.321247 1.214881 -0.070315 -0.218935 0.110354 0.757239
    3 10.397118 1.882000 -1.796981 -3.322818 0.983236 1.681679
    4 6.028143 0.000001 0.000000 1.835543 0.324863 -0.027162
    5 11.692552 0.000000 0.000002 0.000000 0.000000 -2.425814
    6 10.526022 1.471825 2.054851 0.612839 -1.363640 4.304219
    7 6.028142 0.000001 0.000000 -1.663237 -0.309404 -0.974692
    8 11.692555 0.000000 0.000000 0.000000 0.000000 -2.259119
    9 14.770252 3.525970 0.187506 4.224387 -0.087703 -0.117767
    10 3.886546 -0.210948 -0.000003 -2.496828 -0.951128 -0.363393
    11 17.848177 0.000000 0.000000 0.000000 0.000000 1.279932
    12 16.525253 0.000000 0.000000 -0.146721 0.242239 -1.169907
    13 -3.886546 0.210948 0.000007 -1.622677 -0.538990 -2.295786
    14 17.848173 0.000000 0.000000 0.000000 0.000000 0.987428
    15 16.525257 0.000000 0.000000 0.397657 -0.139734 -1.343733
  time 20
    0 6.775202 -36.761893 26.359514 1.819291 0.020733 -1.087397
    1 0.000005 3.345128 -2.981901 1.507640 -0.269279 1.592380
    2 7.313434 1.234413 -0.054689 -0.205426 0.095889 0.762276
    3 10.416650 1.870281 -1.796981 -3.318571 0.983629 1.676609
    4 6.028143 0.000001 0.000000 1.794073 0.281370 -0.123627
    5 11.692552 0.000000 0.000002 0.000000 0.000000 -2.437723
    6 10.537741 1.456200 2.054851 0.505594 -1.361906 4.403631
    7 6.028142 0.000001 0.000000 -1.640759 -0.329785 -0.971804
    8 11.692555 0.000000 0.000000 0.000000 0.000000 -2.311968
    9 14.801503 3.475187 0.187506 4.157318 -0.085774 -0.118068
    10 3.886546 -0.210948 -0.000003 -2.564894 -1.026850 -0.318963
    11 17.848177 0.000000 0.000000 0.000000 0.000000 1.361116
    12 16.525253 0.000000 0.000000 -0.130826 0.223584 -1.215998
    13 -3.886546 0.210948 0.000007 -1.604084 -0.463677 -2.311638
    14 17.848173 0.000000 0.000000 0.000000 0.000000 0.903530
    15 16.525257 0.000000 0.000000 0.404280 -0.108952 -1.252699
  time 21
    0 7.298655 -38.407005 26.218884 1.831355 0.038315 -1.033888
    1 0.000005 3.345128 -2.981901 1.502423 -0.272013 1.587395
    2 7.309528 1.250038 -0.039064 -0.193785 0.081471 0.764519
    3 10.432276 1.854656 -1.796981 -3.314147 0.984022 1.671237
    4 6.028143 0.000001 0.000000 1.755780 0.240364 -0.212823
    5 11.692552 0.000000 0.000002 0.000000 0.000000 -2.439902
    6 10.553367 1.440574 2.054851 0.405117 -1.358242 4.495374
    7 6.028142 0.000001 0.000000 -1.617588 -0.355187 -0.962786
    8 11.692555 0.000000 0.000000 0.000000 0.000000 -2.361590
    9 14.836660 3.416592 0.183599 4.091434 -0.082082 -0.117918
    10 3.886546 -0.210948 -0.000003 -2.637809 -1.094851 -0.271960
    11 17.848177 0.000000 0.000000 0.000000 0.000000 1.432336
    12 16.525253 0.000000 0.000000 -0.113476 0.203952 -1.259079
    13 -3.886546 0.210948 0.000007 -1.586306 -0.392516 -2.316569
    14 17.848173 0.000000 0.000000 0.000000 0.000000 0.823807
    15 16.525257 0.000000 0.000000 0.413599 -0.078028 -1.159035
  time 22
    0 7.767420 -39.983011 26.093881 1.845032 0.056819 -0.981961
    1 0.000005 3.345128 -2.981901 1.497554 -0.273017 1.582457
    2 7.301715 1.265664 -0.023438 -0.183351 0.067377 0.763799
    3 10.451808 1.842936 -1.796981 -3.309664 0.984414 1.665624
    4 6.028143 0.000001 0.000000 1.722252 0.201156 -0.294282
    5 11.692552 0.000000 0.000002 0.000000 0.000000 -2.433875
    6 10.565086 1.424949 2.054851 0.315221 -1.353127 4.576189
    7 6.028142 0.000001 0.000000 -1.592733 -0.389722 -0.948349
    8 11.692555 0.000000 0.000000 0.000000 0.000000 -2.404381
    9 14.875724 3.350183 0.183599 4.027873 -0.077097 -0.117724
    10 3.886546 -0.210948 -0.000003 -2.712371 -1.154684 -0.224528
    11 17.848177 0.000000 0.000000 0.000000 0.000000 1.493592
    12 16.525253 0.000000 0.000000 -0.095874 0.183019 -1.299917
    13 -3.886546 0.210948 0.000007 -1.568982 -0.330404 -2.313311
    14 17.848173 0.000000 0.000000 0.000000 0.000000 0.755379
    15 16.525257 0.000000 0.000000 0.425273 -0.049357 -1.068223
  time 23
    0 8.169776 -41.474285 25.980596 1.860006 0.074964 -0.932848
    1 0.000005 3.345128 -2.981901 1.493780 -0.272363 1.577711
    2 7.301715 1.273476 -0.011719 -0.173463 0.053835 0.759863
    3 10.467433 1.827311 -1.796981 -3.305535 0.984763 1.660071
    4 6.028143 0.000001 0.000000 1.694076 0.162684 -0.368378
    5 11.692552 0.000000 0.000002 0.000000 0.000000 -2.421457
    6 10.576805 1.409323 2.054851 0.239816 -1.347382 4.642432
    7 6.028142 0.000001 0.000000 -1.565849 -0.435883 -0.929364
    8 11.692555 0.000000 0.000000 0.000000 0.000000 -2.436060
    9 14.914787 3.283775 0.183599 3.968366 -0.071284 -0.117660
    10 3.886546 -0.210948 -0.000003 -2.784371 -1.206302 -0.180012
    11 17.848177 0.000000 0.000000 0.000000 0.000000 1.545191
    12 16.525253 0.000000 0.000000 -0.079415 0.160153 -1.339026
    13 -3.886546 0.210948 0.000007 -1.550932 -0.283240 -2.304328
    14 17.848173 0.000000 0.000000 0.000000 0.000000 0.708069
    15 16.525257 0.000000 0.000000 0.437323 -0.025330 -0.987490
  time 24
    0 8.490098 -42.873014 25.882937 1.875717 0.091347 -0.887544
    1 0.000005 3.345128 -2.981901 1.491861 -0.270120 1.573421
    2 7.301715 1.269570 0.000000 -0.163432 0.041359 0.752477
    3 10.483059 1.815592 -1.796981 -3.302114 0.985039 1.654760
    4 6.028143 0.000001 0.000000 1.671920 0.123752 -0.435950
    5 11.692552 0.000000 0.000002 0.000000 0.000000 -2.403884
    6 10.588524 1.397604 2.054851 0.184239 -1.342202 4.689694
    7 6.028142 0.000001 0.000000 -1.538222 -0.493517 -0.905869
    8 11.692555 0.000000 0.000000 0.000000 0.000000 -2.452501
    9 14.949945 3.225180 0.183599 3.916469 -0.065376 -0.117767
    10 3.886546 -0.210948 -0.000003 -2.849053 -1.250155 -0.141843
    11 17.848177 0.000000 0.000000 0.000000 0.000000 1.587290
    12 16.525253 0.000000 0.000000 -0.065612 0.134540 -1.376565
    13 -3.886546 0.210948 0.000007 -1.530434 -0.257276 -2.292615
    14 17.848173 0.000000 0.000000 0.000000 0.000000 0.693254
    15 16.525257 0.000000 0.000000 0.445731 -0.008159 -0.925133
  time 25
    0 8.716667 -44.151854 25.800903 1.891445 0.104518 -0.847163
    1 0.000005 3.345128 -2.981901 1.492325 -0.266289 1.570544
    2 7.305621 1.257851 0.007813 -0.152309 0.031771 0.741388
    3 10.490871 1.807779 -1.796981 -3.300522 0.985170 1.651139
    4 6.028143 0.000001 0.000000 1.658124 0.085280 -0.495507
    5 11.692552 0.000000 0.000002 0.000000 0.000000 -2.383188
    6 10.596337 1.385885 2.054851 0.160025 -1.339687 4.708867
    7 6.028142 0.000001 0.000000 -1.516338 -0.558059 -0.873317
    8 11.692555 0.000000 0.000000 0.000000 0.000000 -2.450324
    9 14.973383 3.186116 0.179693 3.885925 -0.061529 -0.117896
    10 3.886546 -0.210948 -0.000003 -2.902481 -1.286558 -0.113110
    11 17.848177 0.000000 0.000000 0.000000 0.000000 1.620119
    12 16.525253 0.000000 0.000000 -0.056040 0.104899 -1.412279
    13 -3.886546 0.210948 0.000007 -1.502588 -0.257407 -2.283544
    14 17.848173 0.000000 0.000000 0.000000 0.000000 0.720019
    15 16.525257 0.000000 0.000000 0.443178 -0.000459 -0.888305
  time 26
    0 8.818233 -45.365494 25.750120 1.907682 0.112499 -0.806957
    1 0.000005 3.345128 -2.981901 1.494901 -0.260565 1.570604
    2 7.313434 1.234413 0.007813 -0.137678 0.027960 0.725706
    3 10.498684 1.803873 -1.796981 -3.299519 0.997660 1.648724
    4 6.028143 0.000001 0.000000 1.640901 0.058834 -0.548074
    5 11.692552 0.000000 0.000002 0.000000 0.000000 -2.357989
    6 10.600243 1.381979 2.054851 0.152971 -1.340814 4.713372
    7 6.028142 0.000001 0.000000 -1.500742 -0.621241 -0.836810
    8 11.692555 0.000000 0.000000 0.000000 0.000000 -2.426301
    9 14.985102 3.170490 0.179693 3.873272 -0.058437 -0.125200
    10 3.886546 -0.210948 -0.000003 -2.943467 -1.318965 -0.101873
    11 17.848177 0.000000 0.000000 0.000000 0.000000 1.647927
    12 16.525253 0.000000 0.000000 -0.040486 0.075523 -1.449305
    13 -3.886546 0.210948 0.000007 -1.465038 -0.294168 -2.281695
    14 17.848173 0.000000 0.000000 0.000000 0.000000 0.813985
    15 16.525257 0.000000 0.000000 0.418436 -0.008441 -0.886452
  time 27
    0 8.779169 -46.580342 25.742307 1.924672 0.114465 -0.762357
    1 0.000005 3.345128 -2.981901 1.499177 -0.252808 1.572126
    2 7.325153 1.203162 0.000000 -0.119542 0.027061 0.705580
    3 10.510403 1.792154 -1.796981 -3.296747 1.031554 1.642327
    4 6.028143 0.000001 0.000000 1.605032 0.047177 -0.601479
    5 11.692552 0.000000 0.000002 0.000000 0.000000 -2.323278
    6 10.611962 1.374166 2.054851 0.133142 -1.343871 4.726314
    7 6.028142 0.000001 0.000000 -1.479898 -0.682273 -0.808925
    8 11.692555 0.000000 0.000000 0.000000 0.000000 -2.380959
    9 15.012447 3.119708 0.179693 3.838971 -0.049880 -0.145284
    10 3.886546 -0.210948 -0.000003 -2.956276 -1.350789 -0.128549
    11 17.848177 0.000000 0.000000 0.000000 0.000000 1.673727
    12 16.525253 0.000000 0.000000 -0.011129 0.051314 -1.491713
    13 -3.886546 0.210948 0.000007 -1.421592 -0.362487 -2.289621
    14 17.848173 0.000000 0.000000 0.000000 0.000000 0.968274
    15 16.525257 0.000000 0.000000 0.370220 -0.029854 -0.916278
  time 28
    0 8.615102 -47.784680 25.769652 1.941155 0.110714 -0.715060
    1 0.000005 3.345128 -2.981901 1.504806 -0.243439 1.574763
    2 7.340779 1.164098 -0.003906 -0.099422 0.028499 0.682047
    3 10.526029 1.776528 -1.796981 -3.292382 1.081543 1.633454
    4 6.028143 0.000001 0.000000 1.557040 0.047500 -0.654139
    5 11.692552 0.000000 0.000002 0.000000 0.000000 -2.281451
    6 10.623681 1.358541 2.054851 0.101779 -1.348380 4.747405
    7 6.028142 0.000001 0.000000 -1.454796 -0.739983 -0.790849
    8 11.692555 0.000000 0.000000 0.000000 0.000000 -2.317899
    9 15.051510 3.045487 0.179693 3.788508 -0.036948 -0.175550
    10 3.886546 -0.207042 -0.000003 -2.909800 -1.381311 -0.220067
    11 17.848177 0.000000 0.000000 0.000000 0.000000 1.695896
    12 16.525253 0.000000 0.000000 0.026850 0.031744 -1.539406
    13 -3.886546 0.207041 0.000007 -1.372250 -0.445625 -2.307851
    14 17.848173 0.000000 0.000000 0.000000 0.000000 1.146792
    15 16.525257 0.000000 0.000000 0.303705 -0.059149 -0.965630
  time 29
    0 8.353375 -48.982413 25.832154 1.955953 0.101869 -0.666826
    1 0.000005 3.345128 -2.981901 1.511414 -0.232855 1.578071
    2 7.356404 1.117222 -0.015625 -0.078871 0.031627 0.656165
    3 10.549467 1.756996 -1.796981 -3.286365 1.142264 1.623978
    4 6.028143 0.000001 0.000000 1.502862 0.057037 -0.705214
    5 11.692552 0.000000 0.000002 0.000000 0.000000 -2.235411
    6 10.639307 1.339009 2.054851 0.059453 -1.353864 4.777123
    7 6.028142 0.000001 0.000000 -1.425684 -0.794598 -0.783571
    8 11.692555 0.000000 0.000000 0.000000 0.000000 -2.240501
    9 15.098387 2.951734 0.175787 3.727271 -0.020721 -0.213420
    10 3.886546 -0.203135 -0.000003 -2.764610 -1.406896 -0.411768
    11 17.848177 0.000000 0.000000 0.000000 0.000000 1.713277
    12 16.525253 0.000000 0.000000 0.068495 0.016507 -1.591519
    13 -3.886546 0.203135 0.000007 -1.316831 -0.534707 -2.334535
    14 17.848173 0.000000 0.000000 0.000000 0.000000 1.327847
    15 16.525257 0.000000 0.000000 0.227194 -0.093832 -1.025578
  time 30
    0 8.009614 -50.169636 25.918094 1.968087 0.088914 -0.619353
    1 0.000005 3.345128 -2.981901 1.518589 -0.221524 1.581678
    2 7.372030 1.066439 -0.027345 -0.059412 0.035786 0.628949
    3 10.572905 1.733558 -1.796981 -3.278461 1.208349 1.615649
    4 6.028143 0.000001 0.000000 1.447345 0.073117 -0.754145
    5 11.692552 0.000000 0.000002 0.000000 0.000000 -2.188064
    6 10.658839 1.315571 2.054851 0.006641 -1.359825 4.816140
    7 6.028142 0.000001 0.000000 -1.392958 -0.846118 -0.787645
    8 11.692555 0.000000 0.000000 0.000000 0.000000 -2.152143
    9 15.149169 2.850168 0.171880 3.660646 -0.002457 -0.256295
    10 3.886546 -0.195322 -0.000003 -2.498474 -1.418970 -0.721920
    11 17.848177 0.000000 0.000000 0.000000 0.000000 1.725172
    12 16.525253 0.000000 0.000000 0.109368 0.005257 -1.646482
    13 -3.886546 0.195322 0.000007 -1.255063 -0.626411 -2.366943
    14 17.848173 0.000000 0.000000 0.000000 0.000000 1.498426
    15 16.525257 0.000000 0.000000 0.150415 -0.131913 -1.087712
  time 31
    0 7.599446 -51.338535 26.023566 1.976959 0.073166 -0.574283
    1 0.000005 3.345128 -2.981901 1.525931 -0.209842 1.585190
    2 7.387655 1.019562 -0.042970 -0.042654 0.040232 0.601374
    3 10.596343 1.710120 -1.796981 -3.267903 1.274435 1.610459
    4 6.028143 0.000001 0.000000 1.394170 0.093758 -0.800654
    5 11.692552 0.000000 0.000002 0.000000 0.000000 -2.142243
    6 10.678370 1.292132 2.054851 -0.056372 -1.365829 4.865223
    7 6.028142 0.000001 0.000000 -1.357953 -0.894052 -0.802517
    8 11.692555 0.000000 0.000000 0.000000 0.000000 -2.057028
    9 15.199952 2.740790 0.171880 3.594070 0.016371 -0.301233
    10 3.886546 -0.191416 -0.000003 -2.177172 -1.407614 -1.081734
    11 17.848177 0.000000 0.000000 0.000000 0.000000 1.731197
    12 16.525253 0.000000 0.000000 0.145730 -0.002637 -1.702503
    13 -3.886546 0.191416 0.000007 -1.185223 -0.720127 -2.402610
    14 17.848173 0.000000 0.000000 0.000000 0.000000 1.650423
    15 16.525257 0.000000 0.000000 0.082258 -0.169331 -1.143844
  time 32
    0 7.146307 -52.496923 26.144663 1.982378 0.056268 -0.533199
    1 0.000005 3.345128 -2.981901 1.532990 -0.198230 1.588222
    2 7.403280 0.968780 -0.050783 -0.030065 0.044175 0.574455
    3 10.619781 1.690588 -1.796981 -3.253806 1.335126 1.610398
    4 6.028143 0.000001 0.000000 1.345676 0.117578 -0.844366
    5 11.692552 0.000000 0.000002 0.000000 0.000000 -2.099979
    6 10.693996 1.268694 2.054851 -0.129013 -1.371378 4.924660
    7 6.028142 0.000001 0.000000 -1.324039 -0.936967 -0.825142
    8 11.692555 0.000000 0.000000 0.000000 0.000000 -1.959962
    9 15.250735 2.639224 0.167974 3.532833 0.034180 -0.345053
    10 3.886546 -0.183603 -0.000003 -1.919087 -1.372379 -1.370185
    11 17.848177 0.000000 0.000000 0.000000 0.000000 1.731738
    12 16.525253 0.000000 0.000000 0.174582 -0.008150 -1.757498
    13 -3.886546 0.183603 0.000007 -1.103954 -0.815503 -2.441535
    14 17.848173 0.000000 0.000000 0.000000 0.000000 1.777539
    15 16.525257 0.000000 0.000000 0.028953 -0.199168 -1.187823
  time 33
    0 6.665823 -53.629175 26.273574 1.984482 0.040064 -0.497624
    1 0.000005 3.345128 -2.981901 1.539315 -0.187109 1.590391
    2 7.415000 0.925810 -0.062502 -0.023253 0.046788 0.549122
    3 10.639313 1.671056 -1.796981 -3.235756 1.385072 1.616675
    4 6.028143 0.000001 0.000000 1.303788 0.144070 -0.885468
    5 11.692552 0.000000 0.000002 0.000000 0.000000 -2.062509
    6 10.709621 1.245256 2.054851 -0.210424 -1.376082 4.994737
    7 6.028142 0.000001 0.000000 -1.297996 -0.972786 -0.848992
    8 11.692555 0.000000 0.000000 0.000000 0.000000 -1.867099
    9 15.293705 2.537659 0.164068 3.482271 0.049257 -0.384255
    10 3.886546 -0.179697 -0.000003 -1.756881 -1.321882 -1.553309
    11 17.848177 0.000000 0.000000 0.000000 0.000000 1.727258
    12 16.525253 0.000000 0.000000 0.193668 -0.012646 -1.809739
    13 -3.886546 0.179697 0.000007 -1.008264 -0.910661 -2.484511
    14 17.848173 0.000000 0.000000 0.000000 0.000000 1.874369
    15 16.525257 0.000000 0.000000 -0.007089 -0.213041 -1.217686
  time 34
    0 6.181434 -54.739197 26.402484 1.983833 0.026546 -0.468906
    1 0.000005 3.345128 -2.981901 1.544403 -0.176923 1.591326
    2 7.422812 0.890652 -0.066408 -0.023742 0.047183 0.526309
    3 10.654939 1.655431 -1.796981 -3.217058 1.418921 1.626755
    4 6.028143 0.000001 0.000000 1.270010 0.173143 -0.923961
    5 11.692552 0.000000 0.000002 0.000000 0.000000 -2.030485
    6 10.721340 1.233537 2.054851 -0.298985 -1.379550 5.074977
    7 6.028142 0.000001 0.000000 -1.290074 -0.998753 -0.863508
    8 11.692555 0.000000 0.000000 0.000000 0.000000 -1.786398
    9 15.328862 2.455625 0.160161 3.447723 0.059863 -0.415123
    10 3.890452 -0.171884 -0.000003 -1.661643 -1.264968 -1.658294
    11 17.848177 0.000000 0.000000 0.000000 0.000000 1.718838
    12 16.525253 0.000000 0.000000 0.201178 -0.017813 -1.857688
    13 -3.890452 0.171884 0.000007 -0.873935 -1.020374 -2.553027
    14 17.848173 0.000000 0.000000 0.000000 0.000000 1.930846
    15 16.525257 0.000000 0.000000 -0.017692 -0.219596 -1.275115
  time 35
    0 5.708763 -55.826989 26.531394 1.981080 0.017725 -0.448393
    1 0.000005 3.345128 -2.981901 1.547790 -0.168091 1.590642
    2 7.430625 0.863308 -0.066408 -0.032968 0.044451 0.507072
    3 10.662752 1.647618 -1.796981 -3.207975 1.431368 1.631040
    4 6.028143 0.000001 0.000000 1.246265 0.205026 -0.960124
    5 11.692552 0.000000 0.000002 0.000000 0.000000 -2.004052
    6 10.725247 1.221818 2.054851 -0.392503 -1.381523 5.164132
    7 6.028142 0.000001 0.000000 -1.313344 -1.011246 -0.855360
    8 11.692555 0.000000 0.000000 0.000000 0.000000 -1.727017
    9 15.356207 2.397029 0.160161 3.434674 0.064321 -0.433940
    10 3.890452 -0.164071 -0.000003 -1.604555 -1.207873 -1.713703
    11 17.848177 0.000000 0.000000 0.000000 0.000000 1.707638
    12 16.525253 0.000000 0.000000 0.195686 -0.025686 -1.900256
    13 -3.890452 0.164071 0.000007 -0.654437 -1.139617 -2.692083
    14 17.848173 0.000000 0.000000 0.000000 0.000000 1.934857
    15 16.525257 0.000000 0.000000 -0.000055 -0.231700 -1.353070
  time 36
    0 5.208748 -56.880832 26.683742 1.975925 0.012212 -0.435734
    1 0.000005 3.345128 -2.981901 1.549607 -0.159890 1.588246
    2 7.434531 0.843776 -0.058596 -0.053031 0.038183 0.490184
    3 10.666658 1.643712 -1.796981 -3.159430 1.420099 1.678540
    4 6.028143 0.000001 0.000000 1.233891 0.246723 -0.988830
    5 11.692552 0.000000 0.000002 0.000000 0.000000 -1.986696
    6 10.729153 1.221818 2.054851 -0.488404 -1.381783 5.259134
    7 6.028142 0.000001 0.000000 -1.382808 -1.007283 -0.819011
    8 11.692555 0.000000 0.000000 0.000000 0.000000 -1.694962
    9 15.375739 2.357966 0.156255 3.445943 0.065088 -0.436582
    10 3.890452 -0.156259 -0.000003 -1.580494 -1.146245 -1.732916
    11 17.848177 0.000000 0.000000 0.000000 0.000000 1.691648
    12 16.525253 0.000000 0.000000 0.182388 -0.030711 -1.937924
    13 -3.890452 0.156258 0.000007 -0.341516 -1.230010 -2.911192
    14 17.848173 0.000000 0.000000 0.000000 0.000000 1.881408
    15 16.525257 0.000000 0.000000 0.036237 -0.237792 -1.410276
  time 37
    0 4.650137 -57.900726 26.890780 1.968157 0.007323 -0.428701
    1 0.000005 3.345128 -2.981901 1.550495 -0.151526 1.584518
    2 7.438438 0.832057 -0.050783 -0.082981 0.028883 0.473994
    3 10.662752 1.643712 -1.796981 -3.066352 1.391149 1.773058
    4 6.028143 0.000001 0.000000 1.227703 0.306849 -1.009894
    5 11.692552 0.000000 0.000002 0.000000 0.000000 -1.973770
    6 10.725247 1.221818 2.054851 -0.583543 -1.380309 5.355671
    7 6.028142 0.000001 0.000000 -1.494603 -0.989846 -0.764942
    8 11.692555 0.000000 0.000000 0.000000 0.000000 -1.682275
    9 15.387458 2.334527 0.152348 3.474511 0.065807 -0.425949
    10 3.890452 -0.148446 -0.000003 -1.584062 -1.075865 -1.728541
    11 17.848177 0.000000 0.000000 0.000000 0.000000 1.668011
    12 16.525253 0.000000 0.000000 0.166924 -0.027720 -1.970082
    13 -3.890452 0.148446 0.000007 -0.024604 -1.276824 -3.124136
    14 17.848173 0.000000 0.000000 0.000000 0.000000 1.773855
    15 16.525257 0.000000 0.000000 0.077741 -0.228483 -1.435471
  time 38
    0 4.040743 -58.902297 27.140787 1.958443 0.003056 -0.426357
    1 0.000005 3.345128 -2.981901 1.550598 -0.143069 1.579808
    2 7.442344 0.820338 -0.035157 -0.120404 0.017078 0.458841
    3 10.658845 1.647618 -1.796981 -2.978583 1.349477 1.863472
    4 6.028143 0.000001 0.000000 1.222269 0.385358 -1.027510
    5 11.692552 0.000000 0.000002 0.000000 0.000000 -1.956487
    6 10.725247 1.225724 2.054851 -0.675154 -1.377188 5.450290
    7 6.028142 0.000001 0.000000 -1.635065 -0.963576 -0.702171
    8 11.692555 0.000000 0.000000 0.000000 0.000000 -1.678447
    9 15.395271 2.318902 0.148442 3.514051 0.066562 -0.406681
    10 3.890452 -0.144540 -0.000003 -1.601719 -0.999919 -1.712759
    11 17.848177 0.000000 0.000000 0.000000 0.000000 1.636881
    12 16.525253 0.000000 0.000000 0.149203 -0.018566 -1.995065
    13 -3.890452 0.144539 0.000007 0.172400 -1.303706 -3.216341
    14 17.848173 0.000000 0.000000 0.000000 0.000000 1.624558
    15 16.525257 0.000000 0.000000 0.112980 -0.204155 -1.430284
  time 39
    0 3.400099 -59.885544 27.422046 1.947292 -0.000503 -0.427763
    1 0.000005 3.345128 -2.981901 1.550019 -0.134704 1.574379
    2 7.442344 0.808618 -0.023438 -0.163231 0.003200 0.445022
    3 10.654939 1.655431 -1.796981 -2.909571 1.299008 1.935296
    4 6.028143 0.000001 0.000000 1.213657 0.479441 -1.044566
    5 11.692552 0.000000 0.000002 0.000000 0.000000 -1.928965
    6 10.721340 1.229630 2.054851 -0.760664 -1.372657 5.540308
    7 6.028142 0.000001 0.000000 -1.794242 -0.932928 -0.634812
    8 11.692555 0.000000 0.000000 0.000000 0.000000 -1.674017
    9 15.403083 2.314996 0.144536 3.560560 0.067437 -0.381763
    10 3.890452 -0.136727 -0.000003 -1.626237 -0.920785 -1.692260
    11 17.848177 0.000000 0.000000 0.000000 0.000000 1.599186
    12 16.525253 0.000000 0.000000 0.129523 -0.004386 -2.012009
    13 -3.890452 0.136727 0.000007 0.202694 -1.333560 -3.150380
    14 17.848173 0.000000 0.000000 0.000000 0.000000 1.450624
    15 16.525257 0.000000 0.000000 0.134759 -0.170738 -1.401458
  time 40
    0 2.739922 -60.858280 27.718930 1.935193 -0.003356 -0.432217
    1 0.000005 3.345128 -2.981901 1.548898 -0.126527 1.568495
    2 7.446251 0.804712 -0.003906 -0.209622 -0.012200 0.432832
    3 10.647126 1.663243 -1.796981 -2.857841 1.243071 1.989375
    4 6.028143 0.000001 0.000000 1.198858 0.584212 -1.063393
    5 11.692552 0.000000 0.000002 0.000000 0.000000 -1.888154
    6 10.713528 1.237443 2.054851 -0.838358 -1.367000 5.623423
    7 6.028142 0.000001 0.000000 -1.965004 -0.900922 -0.562470
    8 11.692555 0.000000 0.000000 0.000000 0.000000 -1.661105
    9 15.403083 2.318902 0.140629 3.611221 0.068492 -0.353323
    10 3.890452 -0.128914 -0.000003 -1.653866 -0.840261 -1.670302
    11 17.848177 0.000000 0.000000 0.000000 0.000000 1.556083
    12 16.525253 0.000000 0.000000 0.108359 0.013882 -2.020529
    13 -3.890452 0.128914 0.000007 0.053490 -1.365163 -2.922817
    14 17.848173 0.000000 0.000000 0.000000 0.000000 1.273007
    15 16.525257 0.000000 0.000000 0.140364 -0.136196 -1.359998
  time 41
    0 2.064121 -61.820505 28.023627 1.922498 -0.005417 -0.439016
    1 0.000005 3.345128 -2.981901 1.547352 -0.118677 1.562371
    2 7.446251 0.800806 0.007813 -0.257795 -0.028619 0.422462
    3 10.639313 1.671056 -1.796981 -2.818793 1.184372 2.029693
    4 6.028143 0.000001 0.000000 1.175280 0.694098 -1.086321
    5 11.692552 0.000000 0.000002 0.000000 0.000000 -1.833764
    6 10.709621 1.249162 2.054851 -0.906995 -1.360627 5.698198
    7 6.028142 0.000001 0.000000 -2.140619 -0.867821 -0.483126
    8 11.692555 0.000000 0.000000 0.000000 0.000000 -1.634155
    9 15.403083 2.326715 0.140629 3.663710 0.069762 -0.323057
    10 3.890452 -0.125008 -0.000003 -1.682502 -0.760095 -1.648687
    11 17.848177 0.000000 0.000000 0.000000 0.000000 1.509195
    12 16.525253 0.000000 0.000000 0.086349 0.035467 -2.020849
    13 -3.890452 0.125007 0.000007 -0.246551 -1.380462 -2.567910
    14 17.848173 0.000000 0.000000 0.000000 0.000000 1.119126
    15 16.525257 0.000000 0.000000 0.129421 -0.107283 -1.322873
  time 42
    0 1.392225 -62.780033 28.328324 1.909628 -0.006568 -0.447573
    1 0.000005 3.345128 -2.981901 1.545498 -0.111317 1.556223
    2 7.446251 0.796899 0.027345 -0.305997 -0.045398 0.414018
    3 10.631501 1.678869 -1.796981 -2.788711 1.125411 2.059690
    4 6.028143 0.000001 0.000000 1.140833 0.803707 -1.116239
    5 11.692552 0.000000 0.000002 0.000000 0.000000 -1.767682
    6 10.701809 1.256975 2.054851 -0.966099 -1.353950 5.763770
    7 6.028142 0.000001 0.000000 -2.313015 -0.832115 -0.396900
    8 11.692555 0.000000 0.000000 0.000000 0.000000 -1.590088
    9 15.403083 2.338434 0.136723 3.716051 0.071284 -0.292318
    10 3.890452 -0.117195 -0.000003 -1.711137 -0.682039 -1.628102
    11 17.848177 0.000000 0.000000 0.000000 0.000000 1.460453
    12 16.525253 0.000000 0.000000 0.064161 0.059615 -2.013451
    13 -3.890452 0.117195 0.000007 -0.504598 -1.368922 -2.303271
    14 17.848173 0.000000 0.000000 0.000000 0.000000 1.073290
    15 16.525257 0.000000 0.000000 0.113105 -0.091077 -1.327875
  time 43
    0 0.735955 -63.740768 28.617395 1.896916 -0.006687 -0.457243
    1 0.000005 3.345128 -2.981901 1.543488 -0.104612 1.550326
    2 7.446251 0.796899 0.042970 -0.352359 -0.061805 0.407521
    3 10.619781 1.690588 -1.796981 -2.765058 1.068588 2.081961
    4 6.028143 0.000001 0.000000 1.093511 0.908479 -1.156130
    5 11.692552 0.000000 0.000002 0.000000 0.000000 -1.693830
    6 10.693996 1.268694 2.054851 -1.015289 -1.347426 5.819468
    7 6.028142 0.000001 0.000000 -2.473133 -0.792296 -0.306957
    8 11.692555 0.000000 0.000000 0.000000 0.000000 -1.528530
    9 15.399177 2.350153 0.132817 3.766217 0.072998 -0.262439
    10 3.890452 -0.113289 -0.000003 -1.738858 -0.608158 -1.608718
    11 17.848177 0.000000 0.000000 0.000000 0.000000 1.412561
    12 16.525253 0.000000 0.000000 0.042582 0.085431 -1.999133
    13 -3.890452 0.113288 0.000007 -0.673756 -1.351001 -2.142815
    14 17.848173 0.000000 0.000000 0.000000 0.000000 1.084012
    15 16.525257 0.000000 0.000000 0.063317 -0.077968 -1.320539
  time 44
    0 0.103123 -64.706619 28.879122 1.884747 -0.005561 -0.467382
    1 0.000005 3.345128 -2.981901 1.541466 -0.098748 1.544945
    2 7.446251 0.796899 0.058596 -0.394640 -0.076965 0.402865
    3 10.611969 1.698401 -1.796981 -2.746419 1.016490 2.098137
    4 6.028143 0.000001 0.000000 1.032309 1.004727 -1.208510
    5 11.692552 0.000000 0.000002 0.000000 0.000000 -1.617654
    6 10.686183 1.276507 2.054851 -1.054469 -1.341530 5.864716
    7 6.028142 0.000001 0.000000 -2.612555 -0.749117 -0.218358
    8 11.692555 0.000000 0.000000 0.000000 0.000000 -1.451583
    9 15.395271 2.369685 0.132817 3.812084 0.074820 -0.234836
    10 3.890452 -0.109382 -0.000003 -1.765206 -0.540829 -1.590191
    11 17.848177 0.000000 0.000000 0.000000 0.000000 1.368995
    12 16.525253 0.000000 0.000000 0.022383 0.111877 -1.978922
    13 -3.890452 0.109382 0.000007 -0.798290 -1.332336 -2.028945
    14 17.848173 0.000000 0.000000 0.000000 0.000000 1.114379
    15 16.525257 0.000000 0.000000 -0.010588 -0.052795 -1.300346
  time 45
    0 -0.482832 -65.685397 29.105691 1.873542 -0.002828 -0.477170
    1 0.000005 3.345128 -2.981901 1.539650 -0.094005 1.540427
    2 7.446251 0.800806 0.070315 -0.430195 -0.089813 0.399860
    3 10.604156 1.706213 -1.796981 -2.732086 0.972273 2.109303
    4 6.028143 0.000001 0.000000 0.957478 1.090009 -1.274591
    5 11.692552 0.000000 0.000002 0.000000 0.000000 -1.544891
    6 10.682277 1.284320 2.054851 -1.083449 -1.336696 5.898844
    7 6.028142 0.000001 0.000000 -2.726578 -0.706467 -0.135019
    8 11.692555 0.000000 0.000000 0.000000 0.000000 -1.363975
    9 15.391364 2.385310 0.128910 3.850932 0.076570 -0.211208
    10 3.890452 -0.105476 -0.000003 -1.789176 -0.483331 -1.571492
    11 17.848177 0.000000 0.000000 0.000000 0.000000 1.334235
    12 16.525253 0.000000 0.000000 0.004410 0.137551 -1.954067
    13 -3.890452 0.105476 0.000007 -0.895885 -1.313191 -1.941672
    14 17.848173 0.000000 0.000000 0.000000 0.000000 1.153177
    15 16.525257 0.000000 0.000000 -0.087902 -0.007979 -1.281969
  time 46
    0 -0.998473 -66.684915 29.277571 1.863758 0.002097 -0.485727
    1 0.000005 3.345128 -2.981901 1.538284 -0.090757 1.537227
    2 7.446251 0.800806 0.078127 -0.455431 -0.098969 0.398273
    3 10.600250 1.710120 -1.796981 -2.722412 0.940270 2.116123
    4 6.028143 0.000001 0.000000 0.873200 1.162207 -1.352229
    5 11.692552 0.000000 0.000002 0.000000 0.000000 -1.481787
    6 10.678370 1.288226 2.054851 -1.101657 -1.333466 5.920893
    7 6.028142 0.000001 0.000000 -2.813618 -0.671214 -0.058880
    8 11.692555 0.000000 0.000000 0.000000 0.000000 -1.272914
    9 15.387458 2.397029 0.128910 3.879055 0.077936 -0.193916
    10 3.890452 -0.101570 -0.000003 -1.809669 -0.440106 -1.551336
    11 17.848177 0.000000 0.000000 0.000000 0.000000 1.314615
    12 16.525253 0.000000 0.000000 -0.010506 0.160498 -1.925848
    13 -3.890452 0.101569 0.000007 -0.973072 -1.293434 -1.873949
    14 17.848173 0.000000 0.000000 0.000000 0.000000 1.194266
    15 16.525257 0.000000 0.000000 -0.149704 0.051274 -1.276115
  time 47
    0 -1.416454 -67.732517 29.386950 1.855903 0.010570 -0.491763
    1 0.000005 3.345128 -2.981901 1.537730 -0.089519 1.535969
    2 7.446251 0.800806 0.082034 -0.465376 -0.102576 0.397786
    3 10.596343 1.714026 -1.796981 -2.718578 0.927285 2.118598
    4 6.028143 0.000001 0.000000 0.793855 1.218140 -1.430240
    5 11.692552 0.000000 0.000002 0.000000 0.000000 -1.438362
    6 10.674464 1.292132 2.054851 -1.108139 -1.332274 5.928754
    7 6.028142 0.000001 0.000000 -2.871645 -0.653059 0.006778
    8 11.692555 0.000000 0.000000 0.000000 0.000000 -1.189136
    9 15.383552 2.400936 0.128910 3.890472 0.078523 -0.186849
    10 3.890452 -0.101570 -0.000003 -1.824764 -0.417664 -1.526719
    11 17.848177 0.000000 0.000000 0.000000 0.000000 1.318631
    12 16.525253 0.000000 0.000000 -0.021667 0.177709 -1.895132
    13 -3.890452 0.101569 0.000007 -1.030668 -1.273240 -1.824191
    14 17.848173 0.000000 0.000000 0.000000 0.000000 1.234291
    15 16.525257 0.000000 0.000000 -0.183175 0.110246 -1.285082
  time 48
    0 -1.744589 -68.851643 29.441639 1.849994 0.022411 -0.496217
    1 0.000005 3.345128 -2.981901 1.537730 -0.089519 1.535969
    2 7.446251 0.800806 0.082034 -0.465376 -0.102576 0.397786
    3 10.596343 1.714026 -1.796981 -2.718578 0.927285 2.118598
    4 6.028143 0.000001 0.000000 0.737084 1.256335 -1.488585
    5 11.692552 0.000000 0.000002 0.000000 0.000000 -1.418464
    6 10.674464 1.292132 2.054851 -1.108139 -1.332274 5.928754
    7 6.028142 0.000001 0.000000 -2.902193 -0.646492 0.054479
    8 11.692555 0.000000 0.000000 0.000000 0.000000 -1.127202
    9 15.383552 2.400936 0.128910 3.893289 0.078667 -0.186698
    10 3.890452 -0.101570 -0.000003 -1.838487 -0.422152 -1.492582
    11 17.848177 0.000000 0.000000 0.000000 0.000000 1.356868
    12 16.525253 0.000000 0.000000 -0.023596 0.191543 -1.843851
    13 -3.890452 0.101569 0.000007 -1.078014 -1.252128 -1.783857
    14 17.848173 0.000000 0.000000 0.000000 0.000000 1.270142
    15 16.525257 0.000000 0.000000 -0.181694 0.152589 -1.304533
  time 49
    0 -2.033661 -70.034479 29.465077 1.845716 0.035223 -0.501082
    1 0.000005 3.345128 -2.981901 1.537730 -0.089519 1.535969
    2 7.446251 0.800806 0.082034 -0.465376 -0.102576 0.397786
    3 10.596343 1.714026 -1.796981 -2.718578 0.927285 2.118598
    4 6.028143 0.000001 0.000000 0.707152 1.280708 -1.518317
    5 11.692552 0.000000 0.000002 0.000000 0.000000 -1.415705
    6 10.674464 1.292132 2.054851 -1.108139 -1.332274 5.928754
    7 6.028142 0.000001 0.000000 -2.912590 -0.638566 0.080822
    8 11.692555 0.000000 0.000000 0.000000 0.000000 -1.092444
    9 15.383552 2.400936 0.128910 3.901296 0.079110 -0.186333
    10 3.890452 -0.101570 -0.000003 -1.857150 -0.453123 -1.445322
    11 17.848177 0.000000 0.000000 0.000000 0.000000 1.427238
    12 16.525253 0.000000 0.000000 -0.013727 0.207024 -1.762111
    13 -3.890452 0.101569 0.000007 -1.123002 -1.229573 -1.747486
    14 17.848173 0.000000 0.000000 0.000000 0.000000 1.303783
    15 16.525257 0.000000 0.000000 -0.157487 0.174344 -1.336434
  time 50
    0 -2.287575 -71.265400 29.457264 1.842700 0.048550 -0.506239
    1 0.000005 3.345128 -2.981901 1.537730 -0.089519 1.535969
    2 7.446251 0.800806 0.082034 -0.465376 -0.102576 0.397786
    3 10.596343 1.714026 -1.796981 -2.718578 0.927285 2.118598
    4 6.028143 0.000001 0.000000 0.705898 1.294208 -1.518223
    5 11.692552 0.000000 0.000002 0.000000 0.000000 -1.426380
    6 10.674464 1.292132 2.054851 -1.108139 -1.332274 5.928754
    7 6.028142 0.000001 0.000000 -2.907144 -0.629998 0.088812
    8 11.692555 0.000000 0.000000 0.000000 0.000000 -1.082085
    9 15.383552 2.400936 0.128910 3.913652 0.079805 -0.185753
    10 3.890452 -0.101570 -0.000003 -1.881486 -0.505505 -1.384509
    11 17.848177 0.000000 0.000000 0.000000 0.000000 1.515838
    12 16.525253 0.000000 0.000000 0.004425 0.222689 -1.658429
    13 -3.890452 0.101569 0.000007 -1.165178 -1.205314 -1.716222
    14 17.848173 0.000000 0.000000 0.000000 0.000000 1.337506
    15 16.525257 0.000000 0.000000 -0.128014 0.186649 -1.378820
  time 51
    0 -2.518051 -72.528780 29.433826 1.840701 0.062152 -0.511690
    1 0.000005 3.345128 -2.981901 1.537730 -0.089519 1.535969
    2 7.446251 0.800806 0.082034 -0.465376 -0.102576 0.397786
    3 10.596343 1.714026 -1.796981 -2.718578 0.927285 2.118598
    4 6.028143 0.000001 0.000000 0.728891 1.299092 -1.493431
    5 11.692552 0.000000 0.000002 0.000000 0.000000 -1.446204
    6 10.674464 1.292132 2.054851 -1.108139 -1.332274 5.928754
    7 6.028142 0.000001 0.000000 -2.890360 -0.620789 0.083076
    8 11.692555 0.000000 0.000000 0.000000 0.000000 -1.090943
    9 15.383552 2.400936 0.128910 3.929765 0.080752 -0.185044
    10 3.890452 -0.101570 -0.000003 -1.911951 -0.571172 -1.312032
    11 17.848177 0.000000 0.000000 0.000000 0.000000 1.605365
    12 16.525253 0.000000 0.000000 0.026984 0.236563 -1.541360
    13 -3.890452 0.101569 0.000007 -1.204724 -1.178912 -1.688922
    14 17.848173 0.000000 0.000000 0.000000 0.000000 1.369100
    15 16.525257 0.000000 0.000000 -0.095775 0.193827 -1.425652
  time 52
    0 -2.725088 -73.812900 29.390856 1.839508 0.075862 -0.517375
    1 0.000005 3.345128 -2.981901 1.537730 -0.089519 1.535969
    2 7.446251 0.800806 0.082034 -0.465376 -0.102576 0.397786
    3 10.596343 1.714026 -1.796981 -2.718578 0.927285 2.118598
    4 6.028143 0.000001 0.000000 0.767016 1.297341 -1.453354
    5 11.692552 0.000000 0.000002 0.000000 0.000000 -1.470676
    6 10.674464 1.292132 2.054851 -1.108139 -1.332274 5.928754
    7 6.028142 0.000001 0.000000 -2.866842 -0.610862 0.068995
    8 11.692555 0.000000 0.000000 0.000000 0.000000 -1.112939
    9 15.383552 2.400936 0.128910 3.948744 0.081939 -0.184271
    10 3.890452 -0.101570 -0.000003 -1.948637 -0.641822 -1.230891
    11 17.848177 0.000000 0.000000 0.000000 0.000000 1.682301
    12 16.525253 0.000000 0.000000 0.048682 0.247508 -1.424450
    13 -3.890452 0.101569 0.000007 -1.241912 -1.150020 -1.664968
    14 17.848173 0.000000 0.000000 0.000000 0.000000 1.397339
    15 16.525257 0.000000 0.000000 -0.061875 0.197748 -1.474411
  time 53
    0 -2.908687 -75.106041 29.336167 1.838965 0.089573 -0.523236
    1 0.000005 3.345128 -2.981901 1.537730 -0.089519 1.535969
    2 7.446251 0.800806 0.082034 -0.465376 -0.102576 0.397786
    3 10.596343 1.714026 -1.796981 -2.718578 0.927285 2.118598
    4 6.028143 0.000001 0.000000 0.810410 1.291029 -1.408151
    5 11.692552 0.000000 0.000002 0.000000 0.000000 -1.495584
    6 10.674464 1.292132 2.054851 -1.108139 -1.332274 5.928754
    7 6.028142 0.000001 0.000000 -2.841146 -0.600331 0.052185
    8 11.692555 0.000000 0.000000 0.000000 0.000000 -1.141391
    9 15.383552 2.400936 0.128910 3.969898 0.083329 -0.183476
    10 3.890452 -0.101570 -0.000003 -1.991087 -0.710990 -1.144433
    11 17.848177 0.000000 0.000000 0.000000 0.000000 1.739694
    12 16.525253 0.000000 0.000000 0.062588 0.256520 -1.328200
    13 -3.890452 0.101569 0.000007 -1.276560 -1.118592 -1.644713
    14 17.848173 0.000000 0.000000 0.000000 0.000000 1.421485
    15 16.525257 0.000000 0.000000 -0.026940 0.199457 -1.523577
  time 54
    0 -3.076661 -76.404297 29.269759 1.838965 0.103187 -0.529214
    1 0.000005 3.345128 -2.981901 1.537730 -0.089519 1.535969
    2 7.446251 0.800806 0.082034 -0.465376 -0.102576 0.397786
    3 10.596343 1.714026 -1.796981 -2.718578 0.927285 2.118598
    4 6.028143 0.000001 0.000000 0.850542 1.282643 -1.366303
    5 11.692552 0.000000 0.000002 0.000000 0.000000 -1.516788
    6 10.674464 1.292132 2.054851 -1.108139 -1.332274 5.928754
    7 6.028142 0.000001 0.000000 -2.817530 -0.589575 0.037867
    8 11.692555 0.000000 0.000000 0.000000 0.000000 -1.170368
    9 15.383552 2.400936 0.128910 3.992535 0.084923 -0.182703
    10 3.890452 -0.101570 -0.000003 -2.038295 -0.774279 -1.055659
    11 17.848177 0.000000 0.000000 0.000000 0.000000 1.775613
    12 16.525253 0.000000 0.000000 0.060199 0.266122 -1.279418
    13 -3.890452 0.101569 0.000007 -1.308305 -1.084629 -1.627892
    14 17.848173 0.000000 0.000000 0.000000 0.000000 1.440966
    15 16.525257 0.000000 0.000000 0.008531 0.199638 -1.572188
  time 55
    0 -3.229010 -77.699855 29.195538 1.839368 0.116622 -0.535368
    1 0.000005 3.345128 -2.981901 1.537730 -0.089519 1.535969
    2 7.446251 0.800806 0.082034 -0.465376 -0.102576 0.397786
    3 10.596343 1.714026 -1.796981 -2.718578 0.927285 2.118598
    4 6.028143 0.000001 0.000000 0.883317 1.274903 -1.332190
    5 11.692552 0.000000 0.000002 0.000000 0.000000 -1.532329
    6 10.674464 1.292132 2.054851 -1.108139 -1.332274 5.928754
    7 6.028142 0.000001 0.000000 -2.798567 -0.578855 0.028849
    8 11.692555 0.000000 0.000000 0.000000 0.000000 -1.195742
    9 15.383552 2.400936 0.128910 4.015814 0.086673 -0.181994
    10 3.890452 -0.101570 -0.000003 -2.095840 -0.839273 -0.956335
    11 17.848177 0.000000 0.000000 0.000000 0.000000 1.790444
    12 16.525253 0.000000 0.000000 0.035874 0.276172 -1.283005
    13 -3.890452 0.101569 0.000007 -1.337058 -1.048436 -1.614682
    14 17.848173 0.000000 0.000000 0.000000 0.000000 1.455535
    15 16.525257 0.000000 0.000000 0.044109 0.198773 -1.619354
  time 56
    0 -3.365733 -78.977089 29.113504 1.840105 0.129769 -0.541522
    1 0.000005 3.345128 -2.981901 1.537730 -0.089519 1.535969
    2 7.446251 0.800806 0.082034 -0.465376 -0.102576 0.397786
    3 10.596343 1.714026 -1.796981 -2.718578 0.927285 2.118598
    4 6.028143 0.000001 0.000000 0.907313 1.270710 -1.307212
    5 11.692552 0.000000 0.000002 0.000000 0.000000 -1.541260
    6 10.674464 1.292132 2.054851 -1.108139 -1.332274 5.928754
    7 6.028142 0.000001 0.000000 -2.785843 -0.568325 0.026278
    8 11.692555 0.000000 0.000000 0.000000 0.000000 -1.214960
    9 15.383552 2.400936 0.128910 4.039093 0.088530 -0.181371
    10 3.890452 -0.101570 -0.000003 -2.171500 -0.908846 -0.835911
    11 17.848177 0.000000 0.000000 0.000000 0.000000 1.782720
    12 16.525253 0.000000 0.000000 -0.004198 0.282214 -1.306323
    13 -3.890452 0.101569 0.000007 -1.362998 -1.010408 -1.604731
    14 17.848173 0.000000 0.000000 0.000000 0.000000 1.465030
    15 16.525257 0.000000 0.000000 0.079473 0.197185 -1.664370
  time 57
    0 -3.490736 -80.228187 29.027564 1.841104 0.142545 -0.547675
    1 0.000005 3.345128 -2.981901 1.537730 -0.089519 1.535969
    2 7.446251 0.800806 0.082034 -0.465376 -0.102576 0.397786
    3 10.596343 1.714026 -1.796981 -2.718578 0.927285 2.118598
    4 6.028143 0.000001 0.000000 0.921359 1.273244 -1.292579
    5 11.692552 0.000000 0.000002 0.000000 0.000000 -1.542132
    6 10.674464 1.292132 2.054851 -1.108139 -1.332274 5.928754
    7 6.028142 0.000001 0.000000 -2.781486 -0.558436 0.032607
    8 11.692555 0.000000 0.000000 0.000000 0.000000 -1.224194
    9 15.383552 2.400936 0.128910 4.061581 0.090436 -0.180856
    10 3.890452 -0.101570 -0.000003 -2.263993 -0.972673 -0.697732
    11 17.848177 0.000000 0.000000 0.000000 0.000000 1.748269
    12 16.525253 0.000000 0.000000 -0.054006 0.280037 -1.335502
    13 -3.890452 0.101569 0.000007 -1.385946 -0.971113 -1.597597
    14 17.848173 0.000000 0.000000 0.000000 0.000000 1.469696
    15 16.525257 0.000000 0.000000 0.114212 0.195194 -1.706608
  time 58
    0 -3.600115 -81.433617 28.937717 1.842279 0.154793 -0.553771
    1 0.000005 3.345128 -2.981901 1.537730 -0.089519 1.535969
    2 7.446251 0.800806 0.082034 -0.465376 -0.102576 0.397786
    3 10.596343 1.714026 -1.796981 -2.718578 0.927285 2.118598
    4 6.028143 0.000001 0.000000 0.928466 1.282505 -1.285216
    5 11.692552 0.000000 0.000002 0.000000 0.000000 -1.537267
    6 10.674464 1.292132 2.054851 -1.108139 -1.332274 5.928754
    7 6.028142 0.000001 0.000000 -2.785051 -0.549227 0.047281
    8 11.692555 0.000000 0.000000 0.000000 0.000000 -1.224794
    9 15.383552 2.400936 0.128910 4.082587 0.092305 -0.180426
    10 3.890452 -0.101570 -0.000003 -2.364263 -1.022002 -0.553464
    11 17.848177 0.000000 0.000000 0.000000 0.000000 1.683383
    12 16.525253 0.000000 0.000000 -0.107985 0.266590 -1.364169
    13 -3.890452 0.101569 0.000007 -1.406172 -0.931380 -1.593194
    14 17.848173 0.000000 0.000000 0.000000 0.000000 1.469532
    15 16.525257 0.000000 0.000000 0.147808 0.193023 -1.745363
  time 59
    0 -3.693868 -82.573847 28.843964 1.843559 0.166322 -0.559631
    1 0.000005 3.345128 -2.981901 1.537730 -0.089519 1.535969
    2 7.446251 0.800806 0.082034 -0.465376 -0.102576 0.397786
    3 10.596343 1.714026 -1.796981 -2.718578 0.927285 2.118598
    4 6.028143 0.000001 0.000000 0.932646 1.294945 -1.281022
    5 11.692552 0.000000 0.000002 0.000000 0.000000 -1.530658
    6 10.674464 1.292132 2.054851 -1.108139 -1.332274 5.928754
    7 6.028142 0.000001 0.000000 -2.792873 -0.540395 0.065871
    8 11.692555 0.000000 0.000000 0.000000 0.000000 -1.221791
    9 15.383552 2.400936 0.128910 4.101368 0.094067 -0.180104
    10 3.890452 -0.101570 -0.000003 -2.454561 -1.052210 -0.423433
    11 17.848177 0.000000 0.000000 0.000000 0.000000 1.586440
    12 16.525253 0.000000 0.000000 -0.160390 0.240957 -1.389057
    13 -3.890452 0.101569 0.000007 -1.423315 -0.892302 -1.590992
    14 17.848173 0.000000 0.000000 0.000000 0.000000 1.465276
    15 16.525257 0.000000 0.000000 0.179637 0.190831 -1.780006
  time 60
    0 -3.771995 -83.613719 28.758024 1.844839 0.176785 -0.565082
    1 0.000005 3.345128 -2.981901 1.537730 -0.089519 1.535969
    2 7.446251 0.800806 0.082034 -0.465376 -0.102576 0.397786
    3 10.596343 1.714026 -1.796981 -2.718578 0.927285 2.118598
    4 6.028143 0.000001 0.000000 0.934235 1.308445 -1.279437
    5 11.692552 0.000000 0.000002 0.000000 0.000000 -1.523687
    6 10.674464 1.292132 2.054851 -1.108139 -1.332274 5.928754
    7 6.028142 0.000001 0.000000 -2.802676 -0.531902 0.085568
    8 11.692555 0.000000 0.000000 0.000000 0.000000 -1.217212
    9 15.383552 2.400936 0.128910 4.117234 0.095613 -0.179868
    10 3.890452 -0.101570 -0.000003 -2.514851 -1.063432 -0.330199
    11 17.848177 0.000000 0.000000 0.000000 0.000000 1.459604
    12 16.525253 0.000000 0.000000 -0.205760 0.204969 -1.407858
    13 -3.890452 0.101569 0.000007 -1.437918 -0.855629 -1.590552
    14 17.848173 0.000000 0.000000 0.000000 0.000000 1.457909
    15 16.525257 0.000000 0.000000 0.208628 0.188841 -1.809609
  time 61
    0 -3.830591 -84.467295 28.683803 1.845944 0.185462 -0.569653
    1 0.000005 3.345128 -2.981901 1.537730 -0.089519 1.535969
    2 7.446251 0.800806 0.082034 -0.465376 -0.102576 0.397786
    3 10.596343 1.714026 -1.796981 -2.718578 0.927285 2.118598
    4 6.028143 0.000001 0.000000 0.934402 1.320838 -1.279437
    5 11.692552 0.000000 0.000002 0.000000 0.000000 -1.517587
    6 10.674464 1.292132 2.054851 -1.108139 -1.332274 5.928754
    7 6.028142 0.000001 0.000000 -2.812232 -0.524580 0.103525
    8 11.692555 0.000000 0.000000 0.000000 0.000000 -1.212257
    9 15.383552 2.400936 0.128910 4.129442 0.096835 -0.179717
    10 3.890452 -0.101570 -0.000003 -2.534795 -1.059302 -0.286798
    11 17.848177 0.000000 0.000000 0.000000 0.000000 1.314769
    12 16.525253 0.000000 0.000000 -0.239361 0.164364 -1.418524
    13 -3.890452 0.101569 0.000007 -1.448893 -0.824682 -1.591256
    14 17.848173 0.000000 0.000000 0.000000 0.000000 1.449233
    15 16.525257 0.000000 0.000000 0.232621 0.187273 -1.832692
  time 62
    0 -3.854029 -84.904097 28.644740 1.846487 0.190016 -0.571998
    1 0.000005 3.345128 -2.981901 1.537730 -0.089519 1.535969
    2 7.446251 0.800806 0.082034 -0.465376 -0.102576 0.397786
    3 10.596343 1.714026 -1.796981 -2.718578 0.927285 2.118598
    4 6.028143 0.000001 0.000000 0.936242 1.329685 -1.277573
    5 11.692552 0.000000 0.000002 0.000000 0.000000 -1.511415
    6 10.674464 1.292132 2.054851 -1.108139 -1.332274 5.928754
    7 6.028142 0.000001 0.000000 -2.818916 -0.521636 0.116380
    8 11.692555 0.000000 0.000000 0.000000 0.000000 -1.205201
    9 15.383552 2.400936 0.128910 4.137251 0.097650 -0.179631
    10 3.890452 -0.101570 -0.000003 -2.528025 -1.050415 -0.283539
    11 17.848177 0.000000 0.000000 0.000000 0.000000 1.213192
    12 16.525253 0.000000 0.000000 -0.255034 0.136920 -1.422336
    13 -3.890452 0.101569 0.000007 -1.454244 -0.808597 -1.591785
    14 17.848173 0.000000 0.000000 0.000000 0.000000 1.443913
    15 16.525257 0.000000 0.000000 0.245063 0.186609 -1.844104
end
