// Created by Crowbar 0.74
version 1
nodes
  0 "ValveBiped.Bip01" -1
  1 "ValveBiped.Bip01_Spine" 0
  2 "ValveBiped.Bip01_Spine2" 1
  3 "ValveBiped.Bip01_R_Clavicle" 2
  4 "ValveBiped.Bip01_R_UpperArm" 3
  5 "ValveBiped.Bip01_R_Forearm" 4
  6 "ValveBiped.Bip01_L_Clavicle" 2
  7 "ValveBiped.Bip01_L_UpperArm" 6
  8 "ValveBiped.Bip01_L_Forearm" 7
  9 "ValveBiped.Bip01_Head1" 2
  10 "ValveBiped.Bip01_L_Thigh" 0
  11 "ValveBiped.Bip01_L_Calf" 10
  12 "ValveBiped.Bip01_L_Foot" 11
  13 "ValveBiped.Bip01_R_Thigh" 0
  14 "ValveBiped.Bip01_R_Calf" 13
  15 "ValveBiped.Bip01_R_Foot" 14
end
skeleton
  time 0
    0 -0.533615 0.000005 38.566917 1.570796 0.000000 -1.570796
    1 0.742215 4.083432 -1.688893 1.151144 -0.388691 1.700577
    2 7.422812 0.812525 -0.023438 0.022764 -0.011505 0.594327
    3 10.682283 1.444487 -1.941516 -2.003094 1.195336 2.829172
    4 6.028143 0.000001 0.000000 1.174026 0.028978 -0.755357
    5 11.692552 0.000000 0.000002 0.000000 0.000000 -2.042684
    6 10.693996 1.440574 1.933754 2.042587 -1.094720 2.692337
    7 6.028142 0.000001 0.000000 -1.625163 -0.488157 -0.790612
    8 11.692555 0.000000 0.000000 0.000000 0.000000 -1.825060
    9 15.000727 2.971266 -0.015625 3.458349 -0.075791 -0.312467
    10 3.890452 -0.000004 -0.000003 -1.570796 0.051839 -1.565574
    11 17.848177 0.000000 0.000000 0.000000 0.000000 0.034200
    12 16.525253 0.000000 0.000000 -0.027915 -0.040781 -1.071639
    13 -3.890452 0.000004 0.000007 -1.570796 0.051845 -1.576021
    14 17.848173 0.000000 0.000000 0.000000 0.000000 0.034187
    15 16.525257 0.000000 0.000000 0.038611 0.040779 -1.071632
  time 1
    0 -0.533615 0.000005 38.566917 1.570796 0.000000 -1.570796
    1 0.730496 4.087338 -1.684986 1.149920 -0.389696 1.702171
    2 7.422812 0.808618 -0.003906 0.021615 -0.017737 0.592316
    3 10.682283 1.444487 -1.941516 -2.015363 1.197342 2.815893
    4 6.028143 0.000001 0.000000 1.176869 0.023956 -0.761695
    5 11.692552 0.000000 0.000002 0.000000 0.000000 -2.043338
    6 10.693996 1.440574 1.933754 2.044207 -1.089887 2.688886
    7 6.028142 0.000001 0.000000 -1.626698 -0.488233 -0.781633
    8 11.692555 0.000000 0.000000 0.000000 0.000000 -1.824159
    9 15.004634 2.967359 -0.015625 3.459140 -0.070601 -0.314894
    10 3.890452 -0.000004 -0.000003 -1.570796 0.051839 -1.565574
    11 17.848177 0.000000 0.000000 0.000000 0.000000 0.034200
    12 16.525253 0.000000 0.000000 -0.027915 -0.040781 -1.071639
    13 -3.890452 0.000004 0.000007 -1.570796 0.051845 -1.576021
    14 17.848173 0.000000 0.000000 0.000000 0.000000 0.034187
    15 16.525257 0.000000 0.000000 0.038611 0.040779 -1.071632
  time 2
    0 -0.533615 0.000005 38.566917 1.570796 0.000000 -1.570796
    1 0.722683 4.087338 -1.684986 1.149083 -0.390794 1.701644
    2 7.422812 0.804712 0.003906 0.018942 -0.020781 0.590073
    3 10.682283 1.440580 -1.941516 -2.025980 1.199043 2.804063
    4 6.028143 0.000001 0.000000 1.178374 0.020547 -0.764957
    5 11.692552 0.000000 0.000002 0.000000 0.000000 -2.044718
    6 10.693996 1.440574 1.933754 2.045447 -1.085746 2.685722
    7 6.028142 0.000001 0.000000 -1.629371 -0.486270 -0.775621
    8 11.692555 0.000000 0.000000 0.000000 0.000000 -1.826636
    9 15.008540 2.963453 -0.015625 3.461018 -0.064909 -0.317773
    10 3.890452 -0.000004 -0.000003 -1.570796 0.051839 -1.565574
    11 17.848177 0.000000 0.000000 0.000000 0.000000 0.034200
    12 16.525253 0.000000 0.000000 -0.027915 -0.040781 -1.071639
    13 -3.890452 0.000004 0.000007 -1.570796 0.051845 -1.576021
    14 17.848173 0.000000 0.000000 0.000000 0.000000 0.034187
    15 16.525257 0.000000 0.000000 0.038611 0.040779 -1.071632
  time 3
    0 -0.533615 0.000005 38.566917 1.570796 0.000000 -1.570796
    1 0.714871 4.087338 -1.684986 1.148709 -0.391915 1.701476
    2 7.426719 0.800806 0.015625 0.013682 -0.024029 0.587935
    3 10.686190 1.440580 -1.941516 -2.034356 1.200381 2.794406
    4 6.028143 0.000001 0.000000 1.179461 0.018289 -0.766541
    5 11.692552 0.000000 0.000002 0.000000 0.000000 -2.046751
    6 10.697902 1.436668 1.933754 2.046400 -1.082495 2.682846
    7 6.028142 0.000001 0.000000 -1.631896 -0.484534 -0.771112
    8 11.692555 0.000000 0.000000 0.000000 0.000000 -1.830465
    9 15.008540 2.955640 -0.015625 3.463885 -0.058940 -0.321038
    10 3.890452 -0.000004 -0.000003 -1.570796 0.051839 -1.565574
    11 17.848177 0.000000 0.000000 0.000000 0.000000 0.034200
    12 16.525253 0.000000 0.000000 -0.027915 -0.040781 -1.071639
    13 -3.890452 0.000004 0.000007 -1.570796 0.051845 -1.576021
    14 17.848173 0.000000 0.000000 0.000000 0.000000 0.034187
    15 16.525257 0.000000 0.000000 0.038611 0.040779 -1.071632
  time 4
    0 -0.533615 0.000005 38.566917 1.570796 0.000000 -1.570796
    1 0.703151 4.091244 -1.684986 1.148864 -0.393060 1.701848
    2 7.426719 0.796899 0.035157 0.006065 -0.027684 0.586179
    3 10.686190 1.436674 -1.941516 -2.039841 1.201283 2.787646
    4 6.028143 0.000001 0.000000 1.180213 0.017183 -0.766541
    5 11.692552 0.000000 0.000002 0.000000 0.000000 -2.049220
    6 10.697902 1.436668 1.933754 2.046877 -1.080327 2.680737
    7 6.028142 0.000001 0.000000 -1.634075 -0.483590 -0.768146
    8 11.692555 0.000000 0.000000 0.000000 0.000000 -1.835119
    9 15.012447 2.947827 -0.015625 3.467493 -0.052888 -0.324410
    10 3.890452 -0.000004 -0.000003 -1.570796 0.051839 -1.565574
    11 17.848177 0.000000 0.000000 0.000000 0.000000 0.034200
    12 16.525253 0.000000 0.000000 -0.027915 -0.040781 -1.071639
    13 -3.890452 0.000004 0.000007 -1.570796 0.051845 -1.576021
    14 17.848173 0.000000 0.000000 0.000000 0.000000 0.034187
    15 16.525257 0.000000 0.000000 0.038611 0.040779 -1.071632
  time 5
    0 -0.533615 0.000005 38.566917 1.570796 0.000000 -1.570796
    1 0.687526 4.095151 -1.681080 1.149598 -0.394182 1.702950
    2 7.426719 0.792993 0.054689 -0.003478 -0.031975 0.584930
    3 10.690096 1.436674 -1.941516 -2.041847 1.201690 2.784629
    4 6.028143 0.000001 0.000000 1.180799 0.017322 -0.765143
    5 11.692552 0.000000 0.000002 0.000000 0.000000 -2.052197
    6 10.697902 1.432762 1.933754 2.046972 -1.079482 2.679491
    7 6.028142 0.000001 0.000000 -1.635560 -0.483930 -0.766682
    8 11.692555 0.000000 0.000000 0.000000 0.000000 -1.839999
    9 15.016353 2.943921 -0.015625 3.471694 -0.046920 -0.327632
    10 3.890452 -0.000004 -0.000003 -1.570796 0.051839 -1.565574
    11 17.848177 0.000000 0.000000 0.000000 0.000000 0.034200
    12 16.525253 0.000000 0.000000 -0.027915 -0.040781 -1.071639
    13 -3.890452 0.000004 0.000007 -1.570796 0.051845 -1.576021
    14 17.848173 0.000000 0.000000 0.000000 0.000000 0.034187
    15 16.525257 0.000000 0.000000 0.038611 0.040779 -1.071632
  time 6
    0 -0.533615 0.000005 38.566917 1.570796 0.000000 -1.570796
    1 0.667994 4.099057 -1.684986 1.150938 -0.395210 1.704952
    2 7.426719 0.789087 0.078127 -0.014716 -0.037068 0.584443
    3 10.690096 1.432768 -1.941516 -2.040077 1.201573 2.785836
    4 6.028143 0.000001 0.000000 1.181384 0.018612 -0.762440
    5 11.692552 0.000000 0.000002 0.000000 0.000000 -2.055392
    6 10.701809 1.432762 1.933754 2.046591 -1.080067 2.679395
    7 6.028142 0.000001 0.000000 -1.636006 -0.485968 -0.766761
    8 11.692555 0.000000 0.000000 0.000000 0.000000 -1.844578
    9 15.016353 2.940015 -0.011719 3.476389 -0.041203 -0.330446
    10 3.890452 -0.000004 -0.000003 -1.570796 0.051839 -1.565574
    11 17.848177 0.000000 0.000000 0.000000 0.000000 0.034200
    12 16.525253 0.000000 0.000000 -0.027915 -0.040781 -1.071639
    13 -3.890452 0.000004 0.000007 -1.570796 0.051845 -1.576021
    14 17.848173 0.000000 0.000000 0.000000 0.000000 0.034187
    15 16.525257 0.000000 0.000000 0.038611 0.040779 -1.071632
  time 7
    0 -0.533615 0.000005 38.566917 1.570796 0.000000 -1.570796
    1 0.644556 4.099057 -1.684986 1.152767 -0.396097 1.708020
    2 7.426719 0.789087 0.109378 -0.027277 -0.043025 0.585078
    3 10.690096 1.432768 -1.937610 -2.034887 1.200948 2.791026
    4 6.028143 0.000001 0.000000 1.181886 0.020915 -0.758712
    5 11.692552 0.000000 0.000002 0.000000 0.000000 -2.058733
    6 10.697902 1.432762 1.937660 2.045828 -1.081953 2.680546
    7 6.028142 0.000001 0.000000 -1.635412 -0.489667 -0.768146
    8 11.692555 0.000000 0.000000 0.000000 0.000000 -1.848782
    9 15.016353 2.936108 -0.011719 3.481282 -0.035906 -0.332616
    10 3.890452 -0.000004 -0.000003 -1.570796 0.051839 -1.565574
    11 17.848177 0.000000 0.000000 0.000000 0.000000 0.034200
    12 16.525253 0.000000 0.000000 -0.027915 -0.040781 -1.071639
    13 -3.890452 0.000004 0.000007 -1.570796 0.051845 -1.576021
    14 17.848173 0.000000 0.000000 0.000000 0.000000 0.034187
    15 16.525257 0.000000 0.000000 0.038611 0.040779 -1.071632
  time 8
    0 -0.533615 0.000005 38.566917 1.570796 0.000000 -1.570796
    1 0.617211 4.106870 -1.684986 1.154918 -0.396775 1.712670
    2 7.426719 0.785180 0.144536 -0.040901 -0.050419 0.586835
    3 10.690096 1.432768 -1.937610 -2.026747 1.199887 2.799718
    4 6.028143 0.000001 0.000000 1.182805 0.023956 -0.754611
    5 11.692552 0.000000 0.000002 0.000000 0.000000 -2.062218
    6 10.697902 1.432762 1.937660 2.044589 -1.084944 2.682846
    7 6.028142 0.000001 0.000000 -1.633679 -0.495291 -0.770242
    8 11.692555 0.000000 0.000000 0.000000 0.000000 -1.851935
    9 15.016353 2.940015 -0.011719 3.486274 -0.031220 -0.333475
    10 3.890452 -0.000004 -0.000003 -1.570796 0.051839 -1.565574
    11 17.848177 0.000000 0.000000 0.000000 0.000000 0.034200
    12 16.525253 0.000000 0.000000 -0.027915 -0.040781 -1.071639
    13 -3.890452 0.000004 0.000007 -1.570796 0.051845 -1.576021
    14 17.848173 0.000000 0.000000 0.000000 0.000000 0.034187
    15 16.525257 0.000000 0.000000 0.038611 0.040779 -1.071632
  time 9
    0 -0.533615 0.000005 38.566917 1.570796 0.000000 -1.570796
    1 0.582054 4.110776 -1.684986 1.157249 -0.397219 1.719105
    2 7.422812 0.789087 0.183599 -0.055301 -0.059372 0.589311
    3 10.690096 1.436674 -1.937610 -2.016365 1.198476 2.811608
    4 6.028143 0.000001 0.000000 1.184059 0.027412 -0.750417
    5 11.692552 0.000000 0.000002 0.000000 0.000000 -2.065704
    6 10.697902 1.436668 1.937660 2.043063 -1.088824 2.686489
    7 6.028142 0.000001 0.000000 -1.630758 -0.502840 -0.772655
    8 11.692555 0.000000 0.000000 0.000000 0.000000 -1.853812
    9 15.012447 2.947827 -0.007813 3.491118 -0.027361 -0.328578
    10 3.890452 -0.000004 -0.000003 -1.570796 0.051839 -1.565574
    11 17.848177 0.000000 0.000000 0.000000 0.000000 0.034200
    12 16.525253 0.000000 0.000000 -0.027915 -0.040781 -1.071639
    13 -3.890452 0.000004 0.000007 -1.570796 0.051845 -1.576021
    14 17.848173 0.000000 0.000000 0.000000 0.000000 0.034187
    15 16.525257 0.000000 0.000000 0.038611 0.040779 -1.071632
  time 10
    0 -0.533615 0.000005 38.566917 1.570796 0.000000 -1.570796
    1 0.546897 4.114683 -1.688893 1.159607 -0.397336 1.726272
    2 7.418906 0.792993 0.226569 -0.069385 -0.068336 0.591956
    3 10.686190 1.440580 -1.937610 -2.004274 1.196731 2.825973
    4 6.028143 0.000001 0.000000 1.185481 0.031374 -0.745850
    5 11.692552 0.000000 0.000002 0.000000 0.000000 -2.069044
    6 10.693996 1.436668 1.937660 2.041252 -1.093398 2.691378
    7 6.028142 0.000001 0.000000 -1.627094 -0.511370 -0.776017
    8 11.692555 0.000000 0.000000 0.000000 0.000000 -1.855013
    9 15.008540 2.959546 -0.007813 3.495714 -0.024532 -0.318761
    10 3.890452 -0.000004 -0.000003 -1.570796 0.051839 -1.565574
    11 17.848177 0.000000 0.000000 0.000000 0.000000 0.034200
    12 16.525253 0.000000 0.000000 -0.027915 -0.040781 -1.071639
    13 -3.890452 0.000004 0.000007 -1.570796 0.051845 -1.576021
    14 17.848173 0.000000 0.000000 0.000000 0.000000 0.034187
    15 16.525257 0.000000 0.000000 0.038611 0.040779 -1.071632
  time 11
    0 -0.533615 0.000005 38.566917 1.570796 0.000000 -1.570796
    1 0.519552 4.114683 -1.688893 1.161925 -0.397172 1.731797
    2 7.415000 0.800806 0.253914 -0.081659 -0.074029 0.594348
    3 10.686190 1.444487 -1.937610 -1.991002 1.194710 2.841243
    4 6.028143 0.000001 0.000000 1.186150 0.036166 -0.739885
    5 11.692552 0.000000 0.000002 0.000000 0.000000 -2.072167
    6 10.690089 1.440574 1.937660 2.039250 -1.098470 2.696268
    7 6.028142 0.000001 0.000000 -1.623628 -0.518730 -0.781712
    8 11.692555 0.000000 0.000000 0.000000 0.000000 -1.856815
    9 15.004634 2.967359 -0.003906 3.499767 -0.022986 -0.312875
    10 3.890452 -0.000004 -0.000003 -1.570796 0.051839 -1.565574
    11 17.848177 0.000000 0.000000 0.000000 0.000000 0.034200
    12 16.525253 0.000000 0.000000 -0.027915 -0.040781 -1.071639
    13 -3.890452 0.000004 0.000007 -1.570796 0.051845 -1.576021
    14 17.848173 0.000000 0.000000 0.000000 0.000000 0.034187
    15 16.525257 0.000000 0.000000 0.038611 0.040779 -1.071632
  time 12
    0 -0.533615 0.000005 38.566917 1.570796 0.000000 -1.570796
    1 0.507833 4.118589 -1.692799 1.164154 -0.396798 1.734290
    2 7.415000 0.808618 0.265633 -0.091115 -0.074700 0.596062
    3 10.686190 1.444487 -1.937610 -1.977082 1.192471 2.856151
    4 6.028143 0.000001 0.000000 1.185815 0.041833 -0.731870
    5 11.692552 0.000000 0.000002 0.000000 0.000000 -2.074999
    6 10.690089 1.440574 1.937660 2.036962 -1.103868 2.700390
    7 6.028142 0.000001 0.000000 -1.620855 -0.523674 -0.790493
    8 11.692555 0.000000 0.000000 0.000000 0.000000 -1.860118
    9 15.000727 2.971266 0.000000 3.503079 -0.023046 -0.312854
    10 3.890452 -0.000004 -0.000003 -1.570796 0.051839 -1.565574
    11 17.848177 0.000000 0.000000 0.000000 0.000000 0.034200
    12 16.525253 0.000000 0.000000 -0.027915 -0.040781 -1.071639
    13 -3.890452 0.000004 0.000007 -1.570796 0.051845 -1.576021
    14 17.848173 0.000000 0.000000 0.000000 0.000000 0.034187
    15 16.525257 0.000000 0.000000 0.038611 0.040779 -1.071632
  time 13
    0 -0.533615 0.000005 38.566917 1.570796 0.000000 -1.570796
    1 0.507833 4.114683 -1.692799 1.166202 -0.396191 1.734745
    2 7.415000 0.808618 0.261727 -0.097898 -0.071943 0.596400
    3 10.686190 1.444487 -1.937610 -1.963102 1.190072 2.870697
    4 6.028143 0.000001 0.000000 1.184896 0.047915 -0.723016
    5 11.692552 0.000000 0.000002 0.000000 0.000000 -2.077468
    6 10.686183 1.440574 1.937660 2.034674 -1.109417 2.704128
    7 6.028142 0.000001 0.000000 -1.618281 -0.527033 -0.801291
    8 11.692555 0.000000 0.000000 0.000000 0.000000 -1.863871
    9 15.000727 2.971266 0.000000 3.505451 -0.024832 -0.313906
    10 3.890452 -0.000004 -0.000003 -1.570796 0.051839 -1.565574
    11 17.848177 0.000000 0.000000 0.000000 0.000000 0.034200
    12 16.525253 0.000000 0.000000 -0.027915 -0.040781 -1.071639
    13 -3.890452 0.000004 0.000007 -1.570796 0.051845 -1.576021
    14 17.848173 0.000000 0.000000 0.000000 0.000000 0.034187
    15 16.525257 0.000000 0.000000 0.038611 0.040779 -1.071632
  time 14
    0 -0.533615 0.000005 38.566917 1.570796 0.000000 -1.570796
    1 0.511739 4.114683 -1.696705 1.168031 -0.395443 1.733691
    2 7.415000 0.808618 0.246101 -0.101894 -0.066670 0.595469
    3 10.686190 1.444487 -1.937610 -1.949477 1.187571 2.884639
    4 6.028143 0.000001 0.000000 1.183725 0.053996 -0.713695
    5 11.692552 0.000000 0.000002 0.000000 0.000000 -2.079429
    6 10.686183 1.440574 1.937660 2.032387 -1.114923 2.707580
    7 6.028142 0.000001 0.000000 -1.615805 -0.529147 -0.813236
    8 11.692555 0.000000 0.000000 0.000000 0.000000 -1.867400
    9 15.000727 2.971266 0.000000 3.506884 -0.028020 -0.315582
    10 3.890452 -0.000004 -0.000003 -1.570796 0.051839 -1.565574
    11 17.848177 0.000000 0.000000 0.000000 0.000000 0.034200
    12 16.525253 0.000000 0.000000 -0.027915 -0.040781 -1.071639
    13 -3.890452 0.000004 0.000007 -1.570796 0.051845 -1.576021
    14 17.848173 0.000000 0.000000 0.000000 0.000000 0.034187
    15 16.525257 0.000000 0.000000 0.038611 0.040779 -1.071632
  time 15
    0 -0.533615 0.000005 38.566917 1.570796 0.000000 -1.570796
    1 0.527365 4.110776 -1.696705 1.169577 -0.394555 1.731509
    2 7.415000 0.808618 0.222663 -0.103015 -0.059611 0.593946
    3 10.686190 1.444487 -1.937610 -1.936795 1.185056 2.897495
    4 6.028143 0.000001 0.000000 1.182471 0.059663 -0.704748
    5 11.692552 0.000000 0.000002 0.000000 0.000000 -2.080881
    6 10.686183 1.440574 1.937660 2.030194 -1.120212 2.710551
    7 6.028142 0.000001 0.000000 -1.613231 -0.530355 -0.825498
    8 11.692555 0.000000 0.000000 0.000000 0.000000 -1.870252
    9 15.004634 2.967359 0.000000 3.507230 -0.032310 -0.317751
    10 3.890452 -0.000004 -0.000003 -1.570796 0.051839 -1.565574
    11 17.848177 0.000000 0.000000 0.000000 0.000000 0.034200
    12 16.525253 0.000000 0.000000 -0.027915 -0.040781 -1.071639
    13 -3.890452 0.000004 0.000007 -1.570796 0.051845 -1.576021
    14 17.848173 0.000000 0.000000 0.000000 0.000000 0.034187
    15 16.525257 0.000000 0.000000 0.038611 0.040779 -1.071632
  time 16
    0 -0.533615 0.000005 38.566917 1.570796 0.000000 -1.570796
    1 0.546897 4.110776 -1.696705 1.170787 -0.393598 1.728597
    2 7.418906 0.804712 0.195318 -0.101146 -0.051534 0.591999
    3 10.690096 1.440580 -1.937610 -1.925411 1.182671 2.908721
    4 6.028143 0.000001 0.000000 1.181468 0.064547 -0.696639
    5 11.692552 0.000000 0.000002 0.000000 0.000000 -2.081680
    6 10.690089 1.440574 1.937660 2.028287 -1.125046 2.712948
    7 6.028142 0.000001 0.000000 -1.610557 -0.531034 -0.837284
    8 11.692555 0.000000 0.000000 0.000000 0.000000 -1.871679
    9 15.004634 2.967359 0.000000 3.506489 -0.037440 -0.320329
    10 3.890452 -0.000004 -0.000003 -1.570796 0.051839 -1.565574
    11 17.848177 0.000000 0.000000 0.000000 0.000000 0.034200
    12 16.525253 0.000000 0.000000 -0.027915 -0.040781 -1.071639
    13 -3.890452 0.000004 0.000007 -1.570796 0.051845 -1.576021
    14 17.848173 0.000000 0.000000 0.000000 0.000000 0.034187
    15 16.525257 0.000000 0.000000 0.038611 0.040779 -1.071632
  time 17
    0 -0.533615 0.000005 38.566917 1.570796 0.000000 -1.570796
    1 0.562522 4.106870 -1.700612 1.171599 -0.392546 1.726020
    2 7.422812 0.800806 0.167974 -0.096892 -0.044091 0.589882
    3 10.690096 1.440580 -1.937610 -1.915796 1.180563 2.917895
    4 6.028143 0.000001 0.000000 1.180715 0.068279 -0.690674
    5 11.692552 0.000000 0.000002 0.000000 0.000000 -2.081752
    6 10.690089 1.440574 1.937660 2.026571 -1.129186 2.714770
    7 6.028142 0.000001 0.000000 -1.607587 -0.532053 -0.847094
    8 11.692555 0.000000 0.000000 0.000000 0.000000 -1.871228
    9 15.008540 2.959546 0.000000 3.504611 -0.043168 -0.323164
    10 3.890452 -0.000004 -0.000003 -1.570796 0.051839 -1.565574
    11 17.848177 0.000000 0.000000 0.000000 0.000000 0.034200
    12 16.525253 0.000000 0.000000 -0.027915 -0.040781 -1.071639
    13 -3.890452 0.000004 0.000007 -1.570796 0.051845 -1.576021
    14 17.848173 0.000000 0.000000 0.000000 0.000000 0.034187
    15 16.525257 0.000000 0.000000 0.038611 0.040779 -1.071632
  time 18
    0 -0.533615 0.000005 38.566917 1.570796 0.000000 -1.570796
    1 0.578148 4.102963 -1.700612 1.171960 -0.391495 1.724235
    2 7.422812 0.796899 0.144536 -0.090626 -0.038039 0.587787
    3 10.690096 1.440580 -1.937610 -1.908423 1.178847 2.924655
    4 6.028143 0.000001 0.000000 1.180381 0.070675 -0.687412
    5 11.692552 0.000000 0.000002 0.000000 0.000000 -2.080954
    6 10.690089 1.436668 1.937660 2.025332 -1.132459 2.715824
    7 6.028142 0.000001 0.000000 -1.604764 -0.533450 -0.853936
    8 11.692555 0.000000 0.000000 0.000000 0.000000 -1.868751
    9 15.008540 2.955640 0.000000 3.501794 -0.049269 -0.326086
    10 3.890452 -0.000004 -0.000003 -1.570796 0.051839 -1.565574
    11 17.848177 0.000000 0.000000 0.000000 0.000000 0.034200
    12 16.525253 0.000000 0.000000 -0.027915 -0.040781 -1.071639
    13 -3.890452 0.000004 0.000007 -1.570796 0.051845 -1.576021
    14 17.848173 0.000000 0.000000 0.000000 0.000000 0.034187
    15 16.525257 0.000000 0.000000 0.038611 0.040779 -1.071632
  time 19
    0 -0.533615 0.000005 38.566917 1.570796 0.000000 -1.570796
    1 0.593773 4.102963 -1.700612 1.171805 -0.390420 1.722809
    2 7.422812 0.796899 0.121097 -0.082492 -0.032886 0.585988
    3 10.690096 1.436674 -1.937610 -1.903587 1.177669 2.928639
    4 6.028143 0.000001 0.000000 1.180046 0.071781 -0.686480
    5 11.692552 0.000000 0.000002 0.000000 0.000000 -2.079283
    6 10.693996 1.436668 1.937660 2.024474 -1.134627 2.716112
    7 6.028142 0.000001 0.000000 -1.602437 -0.534469 -0.857971
    8 11.692555 0.000000 0.000000 0.000000 0.000000 -1.865072
    9 15.012447 2.947827 0.000000 3.498087 -0.055525 -0.328900
    10 3.890452 -0.000004 -0.000003 -1.570796 0.051839 -1.565574
    11 17.848177 0.000000 0.000000 0.000000 0.000000 0.034200
    12 16.525253 0.000000 0.000000 -0.027915 -0.040781 -1.071639
    13 -3.890452 0.000004 0.000007 -1.570796 0.051845 -1.576021
    14 17.848173 0.000000 0.000000 0.000000 0.000000 0.034187
    15 16.525257 0.000000 0.000000 0.038611 0.040779 -1.071632
  time 20
    0 -0.533615 0.000005 38.566917 1.570796 0.000000 -1.570796
    1 0.613305 4.099057 -1.700612 1.171071 -0.389369 1.721346
    2 7.426719 0.792993 0.097659 -0.072691 -0.028056 0.584719
    3 10.694003 1.436674 -1.937610 -1.901876 1.177131 2.929484
    4 6.028143 0.000001 0.000000 1.179377 0.071642 -0.687692
    5 11.692552 0.000000 0.000002 0.000000 0.000000 -2.076887
    6 10.693996 1.432762 1.937660 2.024284 -1.135494 2.715536
    7 6.028142 0.000001 0.000000 -1.601051 -0.534280 -0.859434
    8 11.692555 0.000000 0.000000 0.000000 0.000000 -1.860718
    9 15.016353 2.943921 0.000000 3.493836 -0.061721 -0.331327
    10 3.890452 -0.000004 -0.000003 -1.570796 0.051839 -1.565574
    11 17.848177 0.000000 0.000000 0.000000 0.000000 0.034200
    12 16.525253 0.000000 0.000000 -0.027915 -0.040781 -1.071639
    13 -3.890452 0.000004 0.000007 -1.570796 0.051845 -1.576021
    14 17.848173 0.000000 0.000000 0.000000 0.000000 0.034187
    15 16.525257 0.000000 0.000000 0.038611 0.040779 -1.071632
  time 21
    0 -0.533615 0.000005 38.566917 1.570796 0.000000 -1.570796
    1 0.632837 4.095151 -1.700612 1.169744 -0.388387 1.719273
    2 7.426719 0.789087 0.070315 -0.061424 -0.022843 0.584211
    3 10.694003 1.432768 -1.937610 -1.903469 1.177335 2.927190
    4 6.028143 0.000001 0.000000 1.178207 0.070306 -0.690581
    5 11.692552 0.000000 0.000002 0.000000 0.000000 -2.073692
    6 10.693996 1.432762 1.937660 2.024856 -1.134930 2.714194
    7 6.028142 0.000001 0.000000 -1.601150 -0.531940 -0.858683
    8 11.692555 0.000000 0.000000 0.000000 0.000000 -1.856514
    9 15.016353 2.940015 0.000000 3.489091 -0.067629 -0.333067
    10 3.890452 -0.000004 -0.000003 -1.570796 0.051839 -1.565574
    11 17.848177 0.000000 0.000000 0.000000 0.000000 0.034200
    12 16.525253 0.000000 0.000000 -0.027915 -0.040781 -1.071639
    13 -3.890452 0.000004 0.000007 -1.570796 0.051845 -1.576021
    14 17.848173 0.000000 0.000000 0.000000 0.000000 0.034187
    15 16.525257 0.000000 0.000000 0.038611 0.040779 -1.071632
  time 22
    0 -0.533615 0.000005 38.566917 1.570796 0.000000 -1.570796
    1 0.660181 4.091244 -1.700612 1.167928 -0.387500 1.715546
    2 7.426719 0.789087 0.039064 -0.048604 -0.015892 0.584824
    3 10.694003 1.432768 -1.937610 -1.908069 1.178207 2.922120
    4 6.028143 0.000001 0.000000 1.176200 0.068279 -0.694029
    5 11.692552 0.000000 0.000002 0.000000 0.000000 -2.069916
    6 10.697902 1.432762 1.937660 2.025904 -1.133066 2.712469
    7 6.028142 0.000001 0.000000 -1.602933 -0.526618 -0.856705
    8 11.692555 0.000000 0.000000 0.000000 0.000000 -1.853286
    9 15.016353 2.936108 0.000000 3.484149 -0.073046 -0.333819
    10 3.890452 -0.000004 -0.000003 -1.570796 0.051839 -1.565574
    11 17.848177 0.000000 0.000000 0.000000 0.000000 0.034200
    12 16.525253 0.000000 0.000000 -0.027915 -0.040781 -1.071639
    13 -3.890452 0.000004 0.000007 -1.570796 0.051845 -1.576021
    14 17.848173 0.000000 0.000000 0.000000 0.000000 0.034187
    15 16.525257 0.000000 0.000000 0.038611 0.040779 -1.071632
  time 23
    0 -0.533615 0.000005 38.566917 1.570796 0.000000 -1.570796
    1 0.691432 4.087338 -1.700612 1.165789 -0.386799 1.709757
    2 7.426719 0.789087 0.000000 -0.034463 -0.006819 0.586708
    3 10.694003 1.432768 -1.937610 -1.915266 1.179617 2.914938
    4 6.028143 0.000001 0.000000 1.173190 0.065837 -0.697664
    5 11.692552 0.000000 0.000002 0.000000 0.000000 -2.065559
    6 10.697902 1.432762 1.937660 2.027525 -1.130075 2.710456
    7 6.028142 0.000001 0.000000 -1.606448 -0.518239 -0.854055
    8 11.692555 0.000000 0.000000 0.000000 0.000000 -1.851410
    9 15.016353 2.940015 -0.003906 3.479157 -0.077768 -0.333217
    10 3.890452 -0.000004 -0.000003 -1.570796 0.051839 -1.565574
    11 17.848177 0.000000 0.000000 0.000000 0.000000 0.034200
    12 16.525253 0.000000 0.000000 -0.027915 -0.040781 -1.071639
    13 -3.890452 0.000004 0.000007 -1.570796 0.051845 -1.576021
    14 17.848173 0.000000 0.000000 0.000000 0.000000 0.034187
    15 16.525257 0.000000 0.000000 0.038611 0.040779 -1.071632
  time 24
    0 -0.533615 0.000005 38.566917 1.570796 0.000000 -1.570796
    1 0.730496 4.079525 -1.696705 1.163484 -0.386331 1.703022
    2 7.426719 0.789087 -0.039064 -0.020005 0.002601 0.589438
    3 10.690096 1.436674 -1.937610 -1.924644 1.181450 2.906307
    4 6.028143 0.000001 0.000000 1.169846 0.062888 -0.701952
    5 11.692552 0.000000 0.000002 0.000000 0.000000 -2.060839
    6 10.693996 1.436668 1.937660 2.029431 -1.126195 2.708826
    7 6.028142 0.000001 0.000000 -1.610953 -0.508313 -0.850297
    8 11.692555 0.000000 0.000000 0.000000 0.000000 -1.850133
    9 15.012447 2.947827 -0.003906 3.474264 -0.081579 -0.325484
    10 3.890452 -0.000004 -0.000003 -1.570796 0.051839 -1.565574
    11 17.848177 0.000000 0.000000 0.000000 0.000000 0.034200
    12 16.525253 0.000000 0.000000 -0.027915 -0.040781 -1.071639
    13 -3.890452 0.000004 0.000007 -1.570796 0.051845 -1.576021
    14 17.848173 0.000000 0.000000 0.000000 0.000000 0.034187
    15 16.525257 0.000000 0.000000 0.038611 0.040779 -1.071632
  time 25
    0 -0.533615 0.000005 38.566917 1.570796 0.000000 -1.570796
    1 0.761747 4.075619 -1.696705 1.161139 -0.386145 1.696670
    2 7.426719 0.796899 -0.078127 -0.006352 0.010355 0.592189
    3 10.686190 1.440580 -1.937610 -1.935851 1.183572 2.896771
    4 6.028143 0.000001 0.000000 1.166836 0.059203 -0.707451
    5 11.692552 0.000000 0.000002 0.000000 0.000000 -2.056119
    6 10.693996 1.436668 1.937660 2.031624 -1.121599 2.707676
    7 6.028142 0.000001 0.000000 -1.615706 -0.498499 -0.844879
    8 11.692555 0.000000 0.000000 0.000000 0.000000 -1.848482
    9 15.008540 2.959546 -0.007813 3.469766 -0.084276 -0.315195
    10 3.890452 -0.000004 -0.000003 -1.570796 0.051839 -1.565574
    11 17.848177 0.000000 0.000000 0.000000 0.000000 0.034200
    12 16.525253 0.000000 0.000000 -0.027915 -0.040781 -1.071639
    13 -3.890452 0.000004 0.000007 -1.570796 0.051845 -1.576021
    14 17.848173 0.000000 0.000000 0.000000 0.000000 0.034187
    15 16.525257 0.000000 0.000000 0.038611 0.040779 -1.071632
  time 26
    0 -0.533615 0.000005 38.566917 1.570796 0.000000 -1.570796
    1 0.785185 4.071712 -1.696705 1.158834 -0.386215 1.691565
    2 7.422812 0.804712 -0.101566 0.005662 0.015424 0.594707
    3 10.682283 1.444487 -1.937610 -1.948415 1.185913 2.885544
    4 6.028143 0.000001 0.000000 1.164746 0.054780 -0.714161
    5 11.692552 0.000000 0.000002 0.000000 0.000000 -2.051689
    6 10.690089 1.440574 1.937660 2.034007 -1.116484 2.705950
    7 6.028142 0.000001 0.000000 -1.620162 -0.489969 -0.837799
    8 11.692555 0.000000 0.000000 0.000000 0.000000 -1.846230
    9 15.000727 2.971266 -0.007813 3.465763 -0.085654 -0.309438
    10 3.890452 -0.000004 -0.000003 -1.570796 0.051839 -1.565574
    11 17.848177 0.000000 0.000000 0.000000 0.000000 0.034200
    12 16.525253 0.000000 0.000000 -0.027915 -0.040781 -1.071639
    13 -3.890452 0.000004 0.000007 -1.570796 0.051845 -1.576021
    14 17.848173 0.000000 0.000000 0.000000 0.000000 0.034187
    15 16.525257 0.000000 0.000000 0.038611 0.040779 -1.071632
  time 27
    0 -0.533615 0.000005 38.566917 1.570796 0.000000 -1.570796
    1 0.796904 4.071712 -1.692799 1.156618 -0.386542 1.688856
    2 7.418906 0.812525 -0.113285 0.015205 0.016347 0.596549
    3 10.682283 1.444487 -1.937610 -1.961864 1.188327 2.872266
    4 6.028143 0.000001 0.000000 1.164244 0.049481 -0.722643
    5 11.692552 0.000000 0.000002 0.000000 0.000000 -2.047840
    6 10.690089 1.444481 1.937660 2.036390 -1.111043 2.702978
    7 6.028142 0.000001 0.000000 -1.623628 -0.484157 -0.828780
    8 11.692555 0.000000 0.000000 0.000000 0.000000 -1.842776
    9 15.000727 2.975172 -0.011719 3.462451 -0.085510 -0.308815
    10 3.890452 -0.000004 -0.000003 -1.570796 0.051839 -1.565574
    11 17.848177 0.000000 0.000000 0.000000 0.000000 0.034200
    12 16.525253 0.000000 0.000000 -0.027915 -0.040781 -1.071639
    13 -3.890452 0.000004 0.000007 -1.570796 0.051845 -1.576021
    14 17.848173 0.000000 0.000000 0.000000 0.000000 0.034187
    15 16.525257 0.000000 0.000000 0.038611 0.040779 -1.071632
  time 28
    0 -0.533615 0.000005 38.566917 1.570796 0.000000 -1.570796
    1 0.789092 4.071712 -1.692799 1.154557 -0.387079 1.690594
    2 7.418906 0.816431 -0.097659 0.020896 0.010439 0.596908
    3 10.682283 1.444487 -1.941516 -1.975784 1.190755 2.857901
    4 6.028143 0.000001 0.000000 1.166083 0.042893 -0.733361
    5 11.692552 0.000000 0.000002 0.000000 0.000000 -2.044935
    6 10.690089 1.444481 1.933754 2.038678 -1.105494 2.699431
    7 6.028142 0.000001 0.000000 -1.625113 -0.482949 -0.816796
    8 11.692555 0.000000 0.000000 0.000000 0.000000 -1.836996
    9 15.000727 2.975172 -0.011719 3.460079 -0.083628 -0.309374
    10 3.890452 -0.000004 -0.000003 -1.570796 0.051839 -1.565574
    11 17.848177 0.000000 0.000000 0.000000 0.000000 0.034200
    12 16.525253 0.000000 0.000000 -0.027915 -0.040781 -1.071639
    13 -3.890452 0.000004 0.000007 -1.570796 0.051845 -1.576021
    14 17.848173 0.000000 0.000000 0.000000 0.000000 0.034187
    15 16.525257 0.000000 0.000000 0.038611 0.040779 -1.071632
  time 29
    0 -0.533615 0.000005 38.566917 1.570796 0.000000 -1.570796
    1 0.765653 4.079525 -1.688893 1.152715 -0.387803 1.695687
    2 7.422812 0.816431 -0.062502 0.022937 -0.000587 0.595914
    3 10.682283 1.444487 -1.941516 -1.989704 1.193111 2.843355
    4 6.028143 0.000001 0.000000 1.169929 0.035659 -0.745198
    5 11.692552 0.000000 0.000002 0.000000 0.000000 -2.043120
    6 10.690089 1.444481 1.933754 2.040775 -1.099988 2.695884
    7 6.028142 0.000001 0.000000 -1.625163 -0.485402 -0.803111
    8 11.692555 0.000000 0.000000 0.000000 0.000000 -1.830089
    9 15.000727 2.975172 -0.015625 3.458695 -0.080249 -0.310620
    10 3.890452 -0.000004 -0.000003 -1.570796 0.051839 -1.565574
    11 17.848177 0.000000 0.000000 0.000000 0.000000 0.034200
    12 16.525253 0.000000 0.000000 -0.027915 -0.040781 -1.071639
    13 -3.890452 0.000004 0.000007 -1.570796 0.051845 -1.576021
    14 17.848173 0.000000 0.000000 0.000000 0.000000 0.034187
    15 16.525257 0.000000 0.000000 0.038611 0.040779 -1.071632
  time 30
    0 -0.533615 0.000005 38.566917 1.570796 0.000000 -1.570796
    1 0.742215 4.083432 -1.688893 1.151144 -0.388691 1.700577
    2 7.422812 0.812525 -0.023438 0.022764 -0.011505 0.594327
    3 10.682283 1.444487 -1.941516 -2.003094 1.195336 2.829172
    4 6.028143 0.000001 0.000000 1.174026 0.028978 -0.755357
    5 11.692552 0.000000 0.000002 0.000000 0.000000 -2.042684
    6 10.693996 1.440574 1.933754 2.042587 -1.094720 2.692337
    7 6.028142 0.000001 0.000000 -1.625163 -0.488157 -0.790612
    8 11.692555 0.000000 0.000000 0.000000 0.000000 -1.825060
    9 15.000727 2.971266 -0.015625 3.458349 -0.075791 -0.312467
    10 3.890452 -0.000004 -0.000003 -1.570796 0.051839 -1.565574
    11 17.848177 0.000000 0.000000 0.000000 0.000000 0.034200
    12 16.525253 0.000000 0.000000 -0.027915 -0.040781 -1.071639
    13 -3.890452 0.000004 0.000007 -1.570796 0.051845 -1.576021
    14 17.848173 0.000000 0.000000 0.000000 0.000000 0.034187
    15 16.525257 0.000000 0.000000 0.038611 0.040779 -1.071632
end
