// Created by Crowbar 0.74
version 1
nodes
  0 "ValveBiped.Bip01" -1
  1 "ValveBiped.Bip01_Spine" 0
  2 "ValveBiped.Bip01_Spine2" 1
  3 "ValveBiped.Bip01_R_Clavicle" 2
  4 "ValveBiped.Bip01_R_UpperArm" 3
  5 "ValveBiped.Bip01_R_Forearm" 4
  6 "ValveBiped.Bip01_L_Clavicle" 2
  7 "ValveBiped.Bip01_L_UpperArm" 6
  8 "ValveBiped.Bip01_L_Forearm" 7
  9 "ValveBiped.Bip01_Head1" 2
  10 "ValveBiped.Bip01_L_Thigh" 0
  11 "ValveBiped.Bip01_L_Calf" 10
  12 "ValveBiped.Bip01_L_Foot" 11
  13 "ValveBiped.Bip01_R_Thigh" 0
  14 "ValveBiped.Bip01_R_Calf" 13
  15 "ValveBiped.Bip01_R_Foot" 14
end
skeleton
  time 0
    0 -0.533615 0.000005 38.566917 1.570796 0.000000 -1.570796
    1 0.000005 3.345128 -2.981901 1.407387 -0.131410 1.586340
    2 7.461876 0.722678 0.117191 -0.012130 -0.053391 0.549884
    3 10.697909 1.389798 -1.968861 -3.191046 1.043782 1.531030
    4 6.028143 0.000001 0.000000 1.534800 -0.228850 -1.431265
    5 11.692552 0.000000 0.000002 0.000000 0.000000 -1.857437
    6 10.764310 1.389792 1.906409 3.452315 -1.285756 1.196357
    7 6.028142 0.000001 0.000000 -1.499109 -0.618977 -1.342812
    8 11.692555 0.000000 0.000000 0.000000 0.000000 -0.901690
    9 14.696031 3.225180 -0.304697 3.333155 0.040304 -0.267959
    10 3.890452 -0.000004 -0.000003 -1.570796 0.051839 -1.565574
    11 17.848177 0.000000 0.000000 0.000000 0.000000 0.034200
    12 16.525253 0.000000 0.000000 -0.027915 -0.040781 -1.071639
    13 -3.890452 0.000004 0.000007 -1.570796 0.051845 -1.576021
    14 17.848173 0.000000 0.000000 0.000000 0.000000 0.034187
    15 16.525257 0.000000 0.000000 0.038611 0.040779 -1.071632
  time 1
    0 -0.533615 0.000005 38.566917 1.570796 0.000000 -1.570796
    1 0.000005 3.345128 -2.981901 1.406704 -0.131410 1.591374
    2 7.461876 0.722678 0.132817 -0.011181 -0.069882 0.547535
    3 10.717441 1.405423 -1.937610 -3.187625 0.998562 1.548171
    4 6.028143 0.000001 0.000000 1.528362 -0.200976 -1.398924
    5 11.692552 0.000000 0.000002 0.000000 0.000000 -1.859543
    6 10.721340 1.409323 1.937660 3.404651 -1.339579 1.248028
    7 6.028142 0.000001 0.000000 -1.520646 -0.634829 -1.330986
    8 11.692555 0.000000 0.000000 0.000000 0.000000 -0.932619
    9 14.617903 3.334558 -0.171880 3.327472 0.050132 -0.262482
    10 3.890452 -0.000004 -0.000003 -1.570796 0.051839 -1.565574
    11 17.848177 0.000000 0.000000 0.000000 0.000000 0.034200
    12 16.525253 0.000000 0.000000 -0.027915 -0.040781 -1.071639
    13 -3.890452 0.000004 0.000007 -1.570796 0.051845 -1.576021
    14 17.848173 0.000000 0.000000 0.000000 0.000000 0.034187
    15 16.525257 0.000000 0.000000 0.038611 0.040779 -1.071632
  time 2
    0 -0.533615 0.000005 38.566917 1.570796 0.000000 -1.570796
    1 0.000005 3.345128 -2.981901 1.406382 -0.131387 1.593770
    2 7.461876 0.722678 0.132817 -0.009140 -0.076210 0.535218
    3 10.748692 1.405423 -1.910265 -3.213519 0.974134 1.528072
    4 6.028143 0.000001 0.000000 1.506039 -0.201114 -1.389044
    5 11.692552 0.000000 0.000002 0.000000 0.000000 -1.885250
    6 10.686183 1.409323 1.965005 3.368997 -1.366761 1.280431
    7 6.028142 0.000001 0.000000 -1.549708 -0.602785 -1.337591
    8 11.692555 0.000000 0.000000 0.000000 0.000000 -1.021277
    9 14.586652 3.361902 -0.039064 3.324012 0.053847 -0.252150
    10 3.890452 -0.000004 -0.000003 -1.570796 0.051839 -1.565574
    11 17.848177 0.000000 0.000000 0.000000 0.000000 0.034200
    12 16.525253 0.000000 0.000000 -0.027915 -0.040781 -1.071639
    13 -3.890452 0.000004 0.000007 -1.570796 0.051845 -1.576021
    14 17.848173 0.000000 0.000000 0.000000 0.000000 0.034187
    15 16.525257 0.000000 0.000000 0.038611 0.040779 -1.071632
  time 3
    0 -0.533615 0.000005 38.566917 1.570796 0.000000 -1.570796
    1 0.000005 3.345128 -2.981901 1.406369 -0.131387 1.593914
    2 7.461876 0.722678 0.117191 -0.006553 -0.073142 0.518690
    3 10.787755 1.385891 -1.886827 -3.252921 0.968783 1.484073
    4 6.028143 0.000001 0.000000 1.480789 -0.230002 -1.402931
    5 11.692552 0.000000 0.000002 0.000000 0.000000 -1.925334
    6 10.678370 1.389792 1.984536 3.358702 -1.369991 1.278705
    7 6.028142 0.000001 0.000000 -1.558917 -0.538470 -1.345225
    8 11.692555 0.000000 0.000000 0.000000 0.000000 -1.132607
    9 14.617903 3.303307 0.070315 3.323172 0.050994 -0.239734
    10 3.890452 -0.000004 -0.000003 -1.570796 0.051839 -1.565574
    11 17.848177 0.000000 0.000000 0.000000 0.000000 0.034200
    12 16.525253 0.000000 0.000000 -0.027915 -0.040781 -1.071639
    13 -3.890452 0.000004 0.000007 -1.570796 0.051845 -1.576021
    14 17.848173 0.000000 0.000000 0.000000 0.000000 0.034187
    15 16.525257 0.000000 0.000000 0.038611 0.040779 -1.071632
  time 4
    0 -0.533615 0.000005 38.566917 1.570796 0.000000 -1.570796
    1 0.000005 3.345128 -2.981901 1.406627 -0.131410 1.592021
    2 7.461876 0.722678 0.085940 -0.003737 -0.060558 0.509103
    3 10.826819 1.354640 -1.875108 -3.299696 0.981855 1.424078
    4 6.028143 0.000001 0.000000 1.459552 -0.266492 -1.424554
    5 11.692552 0.000000 0.000002 0.000000 0.000000 -1.953074
    6 10.690089 1.358541 2.000162 3.369093 -1.350872 1.250904
    7 6.028142 0.000001 0.000000 -1.553174 -0.475853 -1.353057
    8 11.692555 0.000000 0.000000 0.000000 0.000000 -1.209555
    9 14.699937 3.178303 0.144536 3.324210 0.040855 -0.234750
    10 3.890452 -0.000004 -0.000003 -1.570796 0.051839 -1.565574
    11 17.848177 0.000000 0.000000 0.000000 0.000000 0.034200
    12 16.525253 0.000000 0.000000 -0.027915 -0.040781 -1.071639
    13 -3.890452 0.000004 0.000007 -1.570796 0.051845 -1.576021
    14 17.848173 0.000000 0.000000 0.000000 0.000000 0.034187
    15 16.525257 0.000000 0.000000 0.038611 0.040779 -1.071632
  time 5
    0 -0.533615 0.000005 38.566917 1.570796 0.000000 -1.570796
    1 0.000005 3.345128 -2.981901 1.407206 -0.131410 1.587634
    2 7.461876 0.722678 0.031251 -0.000690 -0.037680 0.509082
    3 10.850257 1.327296 -1.871202 -3.347709 1.016490 1.364205
    4 6.028143 0.000001 0.000000 1.433215 -0.292939 -1.427910
    5 11.692552 0.000000 0.000002 0.000000 0.000000 -1.958448
    6 10.701809 1.339009 2.004068 3.365852 -1.309470 1.244194
    7 6.028142 0.000001 0.000000 -1.545005 -0.430032 -1.355984
    8 11.692555 0.000000 0.000000 0.000000 0.000000 -1.242661
    9 14.785877 3.057206 0.179693 3.327620 0.022783 -0.238037
    10 3.890452 -0.000004 -0.000003 -1.570796 0.051839 -1.565574
    11 17.848177 0.000000 0.000000 0.000000 0.000000 0.034200
    12 16.525253 0.000000 0.000000 -0.027915 -0.040781 -1.071639
    13 -3.890452 0.000004 0.000007 -1.570796 0.051845 -1.576021
    14 17.848173 0.000000 0.000000 0.000000 0.000000 0.034187
    15 16.525257 0.000000 0.000000 0.038611 0.040779 -1.071632
  time 6
    0 -0.533615 0.000005 38.566917 1.570796 0.000000 -1.570796
    1 0.000005 3.345128 -2.981901 1.408121 -0.131433 1.580839
    2 7.461876 0.722678 -0.023438 0.002386 -0.006580 0.518754
    3 10.846351 1.327296 -1.871202 -3.393953 1.073255 1.311816
    4 6.028143 0.000001 0.000000 1.398935 -0.300126 -1.405634
    5 11.692552 0.000000 0.000002 0.000000 0.000000 -1.940875
    6 10.709621 1.335102 2.000162 3.334393 -1.248711 1.277747
    7 6.028142 0.000001 0.000000 -1.537331 -0.403574 -1.340953
    8 11.692555 0.000000 0.000000 0.000000 0.000000 -1.241985
    9 14.824941 3.006423 0.179693 3.333600 -0.001498 -0.248133
    10 3.890452 -0.000004 -0.000003 -1.570796 0.051839 -1.565574
    11 17.848177 0.000000 0.000000 0.000000 0.000000 0.034200
    12 16.525253 0.000000 0.000000 -0.027915 -0.040781 -1.071639
    13 -3.890452 0.000004 0.000007 -1.570796 0.051845 -1.576021
    14 17.848173 0.000000 0.000000 0.000000 0.000000 0.034187
    15 16.525257 0.000000 0.000000 0.038611 0.040779 -1.071632
  time 7
    0 -0.533615 0.000005 38.566917 1.570796 0.000000 -1.570796
    1 0.000005 3.345128 -2.981901 1.409229 -0.131433 1.572558
    2 7.461876 0.722678 -0.085940 0.005116 0.027565 0.535261
    3 10.822913 1.342921 -1.886827 -3.429698 1.146262 1.276085
    4 6.028143 0.000001 0.000000 1.361896 -0.284277 -1.363600
    5 11.692552 0.000000 0.000002 0.000000 0.000000 -1.902823
    6 10.709621 1.350728 1.988443 3.291685 -1.176224 1.333636
    7 6.028142 0.000001 0.000000 -1.532825 -0.398026 -1.308243
    8 11.692555 0.000000 0.000000 0.000000 0.000000 -1.210005
    9 14.813222 3.049393 0.136723 3.341904 -0.027421 -0.263277
    10 3.890452 -0.000004 -0.000003 -1.570796 0.051839 -1.565574
    11 17.848177 0.000000 0.000000 0.000000 0.000000 0.034200
    12 16.525253 0.000000 0.000000 -0.027915 -0.040781 -1.071639
    13 -3.890452 0.000004 0.000007 -1.570796 0.051845 -1.576021
    14 17.848173 0.000000 0.000000 0.000000 0.000000 0.034187
    15 16.525257 0.000000 0.000000 0.038611 0.040779 -1.071632
  time 8
    0 -0.533615 0.000005 38.566917 1.570796 0.000000 -1.570796
    1 0.000005 3.345128 -2.981901 1.410324 -0.131433 1.564444
    2 7.461876 0.718772 -0.128910 0.006668 0.058245 0.547260
    3 10.776036 1.374172 -1.906359 -3.421145 1.224925 1.291717
    4 6.028143 0.000001 0.000000 1.328285 -0.266170 -1.309169
    5 11.692552 0.000000 0.000002 0.000000 0.000000 -1.869927
    6 10.709621 1.374166 1.965005 3.239540 -1.107076 1.406015
    7 6.028142 0.000001 0.000000 -1.530894 -0.397573 -1.268492
    8 11.692555 0.000000 0.000000 0.000000 0.000000 -1.172770
    9 14.742907 3.166584 0.050783 3.351146 -0.049952 -0.272814
    10 3.890452 -0.000004 -0.000003 -1.570796 0.051839 -1.565574
    11 17.848177 0.000000 0.000000 0.000000 0.000000 0.034200
    12 16.525253 0.000000 0.000000 -0.027915 -0.040781 -1.071639
    13 -3.890452 0.000004 0.000007 -1.570796 0.051845 -1.576021
    14 17.848173 0.000000 0.000000 0.000000 0.000000 0.034187
    15 16.525257 0.000000 0.000000 0.038611 0.040779 -1.071632
  time 9
    0 -0.533615 0.000005 38.566917 1.570796 0.000000 -1.570796
    1 0.000005 3.345128 -2.981901 1.411174 -0.131410 1.558068
    2 7.461876 0.718772 -0.160161 0.006611 0.080572 0.549630
    3 10.725253 1.401517 -1.937610 -3.362220 1.291258 1.357385
    4 6.028143 0.000001 0.000000 1.305711 -0.266953 -1.262940
    5 11.692552 0.000000 0.000002 0.000000 0.000000 -1.859616
    6 10.721340 1.401511 1.937660 3.206271 -1.052429 1.456056
    7 6.028142 0.000001 0.000000 -1.528716 -0.392251 -1.248676
    8 11.692555 0.000000 0.000000 0.000000 0.000000 -1.144093
    9 14.653061 3.295494 -0.062502 3.358807 -0.066335 -0.270193
    10 3.890452 -0.000004 -0.000003 -1.570796 0.051839 -1.565574
    11 17.848177 0.000000 0.000000 0.000000 0.000000 0.034200
    12 16.525253 0.000000 0.000000 -0.027915 -0.040781 -1.071639
    13 -3.890452 0.000004 0.000007 -1.570796 0.051845 -1.576021
    14 17.848173 0.000000 0.000000 0.000000 0.000000 0.034187
    15 16.525257 0.000000 0.000000 0.038611 0.040779 -1.071632
  time 10
    0 -0.533615 0.000005 38.566917 1.570796 0.000000 -1.570796
    1 0.000005 3.345128 -2.981901 1.411702 -0.131410 1.554149
    2 7.457970 0.718772 -0.167974 0.005174 0.092749 0.542477
    3 10.686190 1.409329 -1.964955 -3.312908 1.330589 1.407118
    4 6.028143 0.000001 0.000000 1.299357 -0.293906 -1.248960
    5 11.692552 0.000000 0.000002 0.000000 0.000000 -1.872033
    6 10.744779 1.409323 1.910315 3.219045 -1.016533 1.452989
    7 6.028142 0.000001 0.000000 -1.525547 -0.387571 -1.265802
    8 11.692555 0.000000 0.000000 0.000000 0.000000 -1.123674
    9 14.590559 3.361902 -0.199225 3.363601 -0.075239 -0.257799
    10 3.890452 -0.000004 -0.000003 -1.570796 0.051839 -1.565574
    11 17.848177 0.000000 0.000000 0.000000 0.000000 0.034200
    12 16.525253 0.000000 0.000000 -0.027915 -0.040781 -1.071639
    13 -3.890452 0.000004 0.000007 -1.570796 0.051845 -1.576021
    14 17.848173 0.000000 0.000000 0.000000 0.000000 0.034187
    15 16.525257 0.000000 0.000000 0.038611 0.040779 -1.071632
  time 11
    0 -0.533615 0.000005 38.566917 1.570796 0.000000 -1.570796
    1 0.000005 3.345128 -2.981901 1.411895 -0.131410 1.552699
    2 7.461876 0.718772 -0.160161 0.002702 0.095014 0.526774
    3 10.662752 1.397610 -1.992299 -3.284537 1.344577 1.427941
    4 6.028143 0.000001 0.000000 1.306045 -0.349471 -1.262661
    5 11.692552 0.000000 0.000002 0.000000 0.000000 -1.906744
    6 10.783842 1.401511 1.882971 3.253458 -1.000557 1.419532
    7 6.028142 0.000001 0.000000 -1.516536 -0.376625 -1.306226
    8 11.692555 0.000000 0.000000 0.000000 0.000000 -1.121947
    9 14.586652 3.342371 -0.328135 3.365232 -0.076150 -0.239970
    10 3.890452 -0.000004 -0.000003 -1.570796 0.051839 -1.565574
    11 17.848177 0.000000 0.000000 0.000000 0.000000 0.034200
    12 16.525253 0.000000 0.000000 -0.027915 -0.040781 -1.071639
    13 -3.890452 0.000004 0.000007 -1.570796 0.051845 -1.576021
    14 17.848173 0.000000 0.000000 0.000000 0.000000 0.034187
    15 16.525257 0.000000 0.000000 0.038611 0.040779 -1.071632
  time 12
    0 -0.533615 0.000005 38.566917 1.570796 0.000000 -1.570796
    1 0.000005 3.345128 -2.981901 1.411792 -0.131410 1.553478
    2 7.461876 0.718772 -0.136723 -0.000201 0.087344 0.512701
    3 10.662752 1.374172 -2.011831 -3.288371 1.336289 1.407903
    4 6.028143 0.000001 0.000000 1.325025 -0.408814 -1.303763
    5 11.692552 0.000000 0.000002 0.000000 0.000000 -1.941964
    6 10.822906 1.374166 1.863439 3.299693 -1.002422 1.363354
    7 6.028142 0.000001 0.000000 -1.509357 -0.365717 -1.355034
    8 11.692555 0.000000 0.000000 0.000000 0.000000 -1.125175
    9 14.645248 3.236899 -0.421888 3.364837 -0.068108 -0.229552
    10 3.890452 -0.000004 -0.000003 -1.570796 0.051839 -1.565574
    11 17.848177 0.000000 0.000000 0.000000 0.000000 0.034200
    12 16.525253 0.000000 0.000000 -0.027915 -0.040781 -1.071639
    13 -3.890452 0.000004 0.000007 -1.570796 0.051845 -1.576021
    14 17.848173 0.000000 0.000000 0.000000 0.000000 0.034187
    15 16.525257 0.000000 0.000000 0.038611 0.040779 -1.071632
  time 13
    0 -0.533615 0.000005 38.566917 1.570796 0.000000 -1.570796
    1 0.000005 3.345128 -2.981901 1.411367 -0.131410 1.556666
    2 7.461876 0.722678 -0.093753 -0.003277 0.069223 0.507961
    3 10.678377 1.346828 -2.019644 -3.301760 1.305609 1.378992
    4 6.028143 0.000001 0.000000 1.359639 -0.436642 -1.363693
    5 11.692552 0.000000 0.000002 0.000000 0.000000 -1.956342
    6 10.858063 1.339009 1.851720 3.351838 -1.023925 1.297495
    7 6.028142 0.000001 0.000000 -1.507327 -0.374587 -1.392531
    8 11.692555 0.000000 0.000000 0.000000 0.000000 -1.109711
    9 14.735094 3.100176 -0.480483 3.362514 -0.051522 -0.230540
    10 3.890452 -0.000004 -0.000003 -1.570796 0.051839 -1.565574
    11 17.848177 0.000000 0.000000 0.000000 0.000000 0.034200
    12 16.525253 0.000000 0.000000 -0.027915 -0.040781 -1.071639
    13 -3.890452 0.000004 0.000007 -1.570796 0.051845 -1.576021
    14 17.848173 0.000000 0.000000 0.000000 0.000000 0.034187
    15 16.525257 0.000000 0.000000 0.038611 0.040779 -1.071632
  time 14
    0 -0.533615 0.000005 38.566917 1.570796 0.000000 -1.570796
    1 0.000005 3.345128 -2.981901 1.410594 -0.131433 1.562407
    2 7.461876 0.722678 -0.035157 -0.006438 0.041359 0.512532
    3 10.686190 1.331202 -2.019644 -3.295862 1.253104 1.380622
    4 6.028143 0.000001 0.000000 1.405791 -0.420240 -1.420826
    5 11.692552 0.000000 0.000002 0.000000 0.000000 -1.949298
    6 10.869782 1.327290 1.851720 3.404841 -1.067711 1.235470
    7 6.028142 0.000001 0.000000 -1.504060 -0.407877 -1.404713
    8 11.692555 0.000000 0.000000 0.000000 0.000000 -1.077806
    9 14.801503 3.006423 -0.500015 3.357720 -0.028176 -0.238896
    10 3.890452 -0.000004 -0.000003 -1.570796 0.051839 -1.565574
    11 17.848177 0.000000 0.000000 0.000000 0.000000 0.034200
    12 16.525253 0.000000 0.000000 -0.027915 -0.040781 -1.071639
    13 -3.890452 0.000004 0.000007 -1.570796 0.051845 -1.576021
    14 17.848173 0.000000 0.000000 0.000000 0.000000 0.034187
    15 16.525257 0.000000 0.000000 0.038611 0.040779 -1.071632
  time 15
    0 -0.533615 0.000005 38.566917 1.570796 0.000000 -1.570796
    1 0.000005 3.345128 -2.981901 1.409551 -0.131433 1.570221
    2 7.461876 0.722678 0.027345 -0.009370 0.007526 0.526647
    3 10.690096 1.339015 -2.011831 -3.270262 1.183631 1.413516
    4 6.028143 0.000001 0.000000 1.463064 -0.362187 -1.461649
    5 11.692552 0.000000 0.000002 0.000000 0.000000 -1.919017
    6 10.858063 1.331196 1.859533 3.454412 -1.131744 1.182265
    7 6.028142 0.000001 0.000000 -1.498514 -0.471965 -1.394587
    8 11.692555 0.000000 0.000000 0.000000 0.000000 -1.016548
    9 14.821034 2.998610 -0.476577 3.350454 -0.001654 -0.254298
    10 3.890452 -0.000004 -0.000003 -1.570796 0.051839 -1.565574
    11 17.848177 0.000000 0.000000 0.000000 0.000000 0.034200
    12 16.525253 0.000000 0.000000 -0.027915 -0.040781 -1.071639
    13 -3.890452 0.000004 0.000007 -1.570796 0.051845 -1.576021
    14 17.848173 0.000000 0.000000 0.000000 0.000000 0.034187
    15 16.525257 0.000000 0.000000 0.038611 0.040779 -1.071632
  time 16
    0 -0.533615 0.000005 38.566917 1.570796 0.000000 -1.570796
    1 0.000005 3.345128 -2.981901 1.408404 -0.131433 1.578730
    2 7.461876 0.722678 0.078127 -0.011497 -0.025875 0.542414
    3 10.690096 1.362453 -1.996206 -3.234400 1.109243 1.467294
    4 6.028143 0.000001 0.000000 1.512477 -0.285659 -1.466123
    5 11.692552 0.000000 0.000002 0.000000 0.000000 -1.879513
    6 10.819000 1.358541 1.879064 3.484155 -1.207699 1.156381
    7 6.028142 0.000001 0.000000 -1.494653 -0.555568 -1.371884
    8 11.692555 0.000000 0.000000 0.000000 0.000000 -0.939150
    9 14.781971 3.084550 -0.414075 3.341459 0.023166 -0.270967
    10 3.890452 -0.000004 -0.000003 -1.570796 0.051839 -1.565574
    11 17.848177 0.000000 0.000000 0.000000 0.000000 0.034200
    12 16.525253 0.000000 0.000000 -0.027915 -0.040781 -1.071639
    13 -3.890452 0.000004 0.000007 -1.570796 0.051845 -1.576021
    14 17.848173 0.000000 0.000000 0.000000 0.000000 0.034187
    15 16.525257 0.000000 0.000000 0.038611 0.040779 -1.071632
  time 17
    0 -0.533615 0.000005 38.566917 1.570796 0.000000 -1.570796
    1 0.000005 3.345128 -2.981901 1.407413 -0.131410 1.586148
    2 7.461876 0.722678 0.117191 -0.012158 -0.052708 0.549821
    3 10.697909 1.389798 -1.968861 -3.191931 1.045498 1.529581
    4 6.028143 0.000001 0.000000 1.534633 -0.230094 -1.432477
    5 11.692552 0.000000 0.000002 0.000000 0.000000 -1.857728
    6 10.764310 1.389792 1.906409 3.453936 -1.283653 1.194535
    7 6.028142 0.000001 0.000000 -1.498960 -0.616863 -1.343208
    8 11.692555 0.000000 0.000000 0.000000 0.000000 -0.903416
    9 14.699937 3.221273 -0.308603 3.333057 0.041131 -0.274962
    10 3.890452 -0.000004 -0.000003 -1.570796 0.051839 -1.565574
    11 17.848177 0.000000 0.000000 0.000000 0.000000 0.034200
    12 16.525253 0.000000 0.000000 -0.027915 -0.040781 -1.071639
    13 -3.890452 0.000004 0.000007 -1.570796 0.051845 -1.576021
    14 17.848173 0.000000 0.000000 0.000000 0.000000 0.034187
    15 16.525257 0.000000 0.000000 0.038611 0.040779 -1.071632
end
