// Created by Crowbar 0.74
version 1
nodes
  0 "ValveBiped.Bip01" -1
  1 "ValveBiped.Bip01_Spine" 0
  2 "ValveBiped.Bip01_Spine2" 1
  3 "ValveBiped.Bip01_R_Clavicle" 2
  4 "ValveBiped.Bip01_R_UpperArm" 3
  5 "ValveBiped.Bip01_R_Forearm" 4
  6 "ValveBiped.Bip01_L_Clavicle" 2
  7 "ValveBiped.Bip01_L_UpperArm" 6
  8 "ValveBiped.Bip01_L_Forearm" 7
  9 "ValveBiped.Bip01_Head1" 2
  10 "ValveBiped.Bip01_L_Thigh" 0
  11 "ValveBiped.Bip01_L_Calf" 10
  12 "ValveBiped.Bip01_L_Foot" 11
  13 "ValveBiped.Bip01_R_Thigh" 0
  14 "ValveBiped.Bip01_R_Calf" 13
  15 "ValveBiped.Bip01_R_Foot" 14
end
skeleton
  time 0
    0 -0.533615 0.000005 38.566917 1.570796 0.000000 -1.570796
    1 0.824249 4.251405 -1.142001 1.426361 -0.610062 1.478455
    2 7.426719 0.765648 -0.214850 0.225804 0.074245 0.570201
    3 10.436182 1.745277 -1.902453 -2.873472 1.300258 2.097050
    4 6.028143 0.000001 0.000000 1.785043 0.499529 -0.718076
    5 11.692552 0.000000 0.000002 0.000000 0.000000 -1.809364
    6 10.553367 1.553859 1.965005 3.031532 -1.240864 1.865785
    7 6.028142 0.000001 0.000000 -1.865290 0.062748 -1.067721
    8 11.692555 0.000000 0.000000 0.000000 0.000000 -1.869051
    9 14.196015 4.049423 0.039064 3.186314 -0.128019 -0.305250
    10 3.890452 -0.000004 -0.000003 -1.570796 0.051839 -1.565574
    11 17.848177 0.000000 0.000000 0.000000 0.000000 0.034200
    12 16.525253 0.000000 0.000000 -0.027915 -0.040781 -1.071639
    13 -3.890452 0.000004 0.000007 -1.570796 0.051845 -1.576021
    14 17.848173 0.000000 0.000000 0.000000 0.000000 0.034187
    15 16.525257 0.000000 0.000000 0.038611 0.040779 -1.071632
  time 1
    0 -0.533615 0.000005 38.566917 1.570796 0.000000 -1.570796
    1 0.765653 4.247499 -1.200597 1.406331 -0.606908 1.492201
    2 7.426719 0.773461 -0.179693 0.271764 0.044091 0.572867
    3 10.420557 1.764809 -1.894640 -2.799859 1.275729 2.168995
    4 6.028143 0.000001 0.000000 1.777853 0.505657 -0.582652
    5 11.692552 0.000000 0.000002 0.000000 0.000000 -1.917056
    6 10.572898 1.530421 1.972817 2.974049 -1.255647 1.918799
    7 6.028142 0.000001 0.000000 -1.805481 0.075996 -1.088644
    8 11.692555 0.000000 0.000000 0.000000 0.000000 -1.731747
    9 14.196015 4.045517 0.042970 3.132095 -0.118899 -0.305636
    10 3.890452 -0.000004 -0.000003 -1.570796 0.051839 -1.565574
    11 17.848177 0.000000 0.000000 0.000000 0.000000 0.034200
    12 16.525253 0.000000 0.000000 -0.027915 -0.040781 -1.071639
    13 -3.890452 0.000004 0.000007 -1.570796 0.051845 -1.576021
    14 17.848173 0.000000 0.000000 0.000000 0.000000 0.034187
    15 16.525257 0.000000 0.000000 0.038611 0.040779 -1.071632
  time 2
    0 -0.533615 0.000005 38.566917 1.570796 0.000000 -1.570796
    1 0.542990 4.290469 -1.165439 1.422896 -0.625272 1.501921
    2 7.430625 0.761742 -0.167974 0.288866 0.033581 0.564720
    3 10.416650 1.772622 -1.890734 -2.847991 1.273504 2.121314
    4 6.028143 0.000001 0.000000 1.831362 0.485983 -0.520206
    5 11.692552 0.000000 0.000002 0.000000 0.000000 -2.027943
    6 10.576805 1.518702 1.972817 3.025526 -1.264101 1.870578
    7 6.028142 0.000001 0.000000 -1.771517 0.030100 -1.132944
    8 11.692555 0.000000 0.000000 0.000000 0.000000 -1.570270
    9 14.196015 4.045517 0.042970 3.101698 -0.128403 -0.305035
    10 3.890452 -0.000004 -0.000003 -1.570796 0.051839 -1.565574
    11 17.848177 0.000000 0.000000 0.000000 0.000000 0.034200
    12 16.525253 0.000000 0.000000 -0.027915 -0.040781 -1.071639
    13 -3.890452 0.000004 0.000007 -1.570796 0.051845 -1.576021
    14 17.848173 0.000000 0.000000 0.000000 0.000000 0.034187
    15 16.525257 0.000000 0.000000 0.038611 0.040779 -1.071632
  time 3
    0 -0.533615 0.000005 38.566917 1.570796 0.000000 -1.570796
    1 0.257825 4.341252 -1.075593 1.456708 -0.647281 1.524464
    2 7.434531 0.734397 -0.175787 0.271017 0.043001 0.549080
    3 10.420557 1.764809 -1.894640 -2.966786 1.288190 2.004343
    4 6.028143 0.000001 0.000000 1.913132 0.425212 -0.485721
    5 11.692552 0.000000 0.000002 0.000000 0.000000 -2.144421
    6 10.572898 1.530421 1.972817 3.133344 -1.259592 1.770303
    7 6.028142 0.000001 0.000000 -1.760030 -0.034177 -1.177797
    8 11.692555 0.000000 0.000000 0.000000 0.000000 -1.484539
    9 14.196015 4.045517 0.042970 3.098189 -0.144978 -0.303617
    10 3.890452 -0.000004 -0.000003 -1.570796 0.051839 -1.565574
    11 17.848177 0.000000 0.000000 0.000000 0.000000 0.034200
    12 16.525253 0.000000 0.000000 -0.027915 -0.040781 -1.071639
    13 -3.890452 0.000004 0.000007 -1.570796 0.051845 -1.576021
    14 17.848173 0.000000 0.000000 0.000000 0.000000 0.034187
    15 16.525257 0.000000 0.000000 0.038611 0.040779 -1.071632
  time 4
    0 -0.533615 0.000005 38.566917 1.570796 0.000000 -1.570796
    1 0.082039 4.376409 -0.958402 1.506906 -0.668729 1.516326
    2 7.442344 0.703147 -0.195318 0.223131 0.066011 0.532891
    3 10.436182 1.745277 -1.902453 -3.132356 1.309768 1.841623
    4 6.028143 0.000001 0.000000 1.960957 0.366883 -0.518994
    5 11.692552 0.000000 0.000002 0.000000 0.000000 -2.206727
    6 10.553367 1.553859 1.965005 3.243544 -1.240994 1.668398
    7 6.028142 0.000001 0.000000 -1.858111 -0.122309 -1.237641
    8 11.692555 0.000000 0.000000 0.000000 0.000000 -1.471251
    9 14.196015 4.049423 0.039064 3.100660 -0.146344 -0.301942
    10 3.890452 -0.000004 -0.000003 -1.570796 0.051839 -1.565574
    11 17.848177 0.000000 0.000000 0.000000 0.000000 0.034200
    12 16.525253 0.000000 0.000000 -0.027915 -0.040781 -1.071639
    13 -3.890452 0.000004 0.000007 -1.570796 0.051845 -1.576021
    14 17.848173 0.000000 0.000000 0.000000 0.000000 0.034187
    15 16.525257 0.000000 0.000000 0.038611 0.040779 -1.071632
  time 5
    0 -0.533615 0.000005 38.566917 1.570796 0.000000 -1.570796
    1 0.003911 4.395941 -0.868555 1.567305 -0.679289 1.485034
    2 7.442344 0.687521 -0.226569 0.153746 0.098154 0.525018
    3 10.459620 1.710120 -1.914172 -3.308249 1.331709 1.669004
    4 6.028143 0.000001 0.000000 1.938131 0.322007 -0.630185
    5 11.692552 0.000000 0.000002 0.000000 0.000000 -2.179641
    6 10.529928 1.589016 1.957192 3.311228 -1.213248 1.606661
    7 6.028142 0.000001 0.000000 -2.024219 -0.269207 -1.261531
    8 11.692555 0.000000 0.000000 0.000000 0.000000 -1.491220
    9 14.192109 4.049423 0.031251 3.113066 -0.121440 -0.300288
    10 3.890452 -0.000004 -0.000003 -1.570796 0.051839 -1.565574
    11 17.848177 0.000000 0.000000 0.000000 0.000000 0.034200
    12 16.525253 0.000000 0.000000 -0.027915 -0.040781 -1.071639
    13 -3.890452 0.000004 0.000007 -1.570796 0.051845 -1.576021
    14 17.848173 0.000000 0.000000 0.000000 0.000000 0.034187
    15 16.525257 0.000000 0.000000 0.038611 0.040779 -1.071632
  time 6
    0 -0.533615 0.000005 38.566917 1.570796 0.000000 -1.570796
    1 -0.082029 4.399848 -0.837304 1.640933 -0.673682 1.443939
    2 7.438438 0.695334 -0.261727 0.071771 0.136133 0.529081
    3 10.486965 1.671056 -1.925891 -3.436776 1.355671 1.542980
    4 6.028143 0.000001 0.000000 1.844322 0.243820 -0.768871
    5 11.692552 0.000000 0.000002 0.000000 0.000000 -2.119804
    6 10.502584 1.628080 1.949379 3.310561 -1.183724 1.608099
    7 6.028142 0.000001 0.000000 -2.179336 -0.449357 -1.085045
    8 11.692555 0.000000 0.000000 0.000000 0.000000 -1.537539
    9 14.192109 4.053330 0.023438 3.137235 -0.066131 -0.314701
    10 3.890452 -0.000004 -0.000003 -1.570796 0.051839 -1.565574
    11 17.848177 0.000000 0.000000 0.000000 0.000000 0.034200
    12 16.525253 0.000000 0.000000 -0.027915 -0.040781 -1.071639
    13 -3.890452 0.000004 0.000007 -1.570796 0.051845 -1.576021
    14 17.848173 0.000000 0.000000 0.000000 0.000000 0.034187
    15 16.525257 0.000000 0.000000 0.038611 0.040779 -1.071632
  time 7
    0 -0.533615 0.000005 38.566917 1.570796 0.000000 -1.570796
    1 -0.351568 4.376409 -0.899806 1.734244 -0.642958 1.409795
    2 7.430625 0.714866 -0.300790 -0.013998 0.177240 0.539853
    3 10.514310 1.631992 -1.937610 -3.416132 1.389492 1.563260
    4 6.028143 0.000001 0.000000 1.717654 0.108778 -0.876148
    5 11.692552 0.000000 0.000002 0.000000 0.000000 -2.038618
    6 10.471333 1.671050 1.937660 3.218377 -1.156910 1.693323
    7 6.028142 0.000001 0.000000 -2.351089 -0.592481 -0.752047
    8 11.692555 0.000000 0.000000 0.000000 0.000000 -1.605253
    9 14.192109 4.053330 0.011719 3.165110 -0.018265 -0.330124
    10 3.890452 -0.000004 -0.000003 -1.570796 0.051839 -1.565574
    11 17.848177 0.000000 0.000000 0.000000 0.000000 0.034200
    12 16.525253 0.000000 0.000000 -0.027915 -0.040781 -1.071639
    13 -3.890452 0.000004 0.000007 -1.570796 0.051845 -1.576021
    14 17.848173 0.000000 0.000000 0.000000 0.000000 0.034187
    15 16.525257 0.000000 0.000000 0.038611 0.040779 -1.071632
  time 8
    0 -0.533615 0.000005 38.566917 1.570796 0.000000 -1.570796
    1 -0.664078 4.310001 -1.024810 1.819027 -0.594782 1.388942
    2 7.422812 0.742210 -0.339854 -0.094995 0.218359 0.552932
    3 10.545560 1.589022 -1.945423 -3.204671 1.425668 1.771489
    4 6.028143 0.000001 0.000000 1.614564 -0.013133 -0.913429
    5 11.692552 0.000000 0.000002 0.000000 0.000000 -1.941238
    6 10.443988 1.710114 1.925941 3.077767 -1.128102 1.822358
    7 6.028142 0.000001 0.000000 -2.414710 -0.622751 -0.442386
    8 11.692555 0.000000 0.000000 0.000000 0.000000 -1.690608
    9 14.192109 4.049423 0.003906 3.189526 -0.004770 -0.322026
    10 3.890452 -0.000004 -0.000003 -1.570796 0.051839 -1.565574
    11 17.848177 0.000000 0.000000 0.000000 0.000000 0.034200
    12 16.525253 0.000000 0.000000 -0.027915 -0.040781 -1.071639
    13 -3.890452 0.000004 0.000007 -1.570796 0.051845 -1.576021
    14 17.848173 0.000000 0.000000 0.000000 0.000000 0.034187
    15 16.525257 0.000000 0.000000 0.038611 0.040779 -1.071632
  time 9
    0 -0.533615 0.000005 38.566917 1.570796 0.000000 -1.570796
    1 -0.820333 4.251405 -1.145907 1.873643 -0.554994 1.371492
    2 7.411093 0.765648 -0.378918 -0.162972 0.255811 0.561291
    3 10.568999 1.553865 -1.953236 -2.881671 1.446941 2.090170
    4 6.028143 0.000001 0.000000 1.534382 -0.079341 -0.909049
    5 11.692552 0.000000 0.000002 0.000000 0.000000 -1.833982
    6 10.424456 1.741365 1.914222 2.957461 -1.097300 1.932028
    7 6.028142 0.000001 0.000000 -2.388470 -0.594481 -0.226347
    8 11.692555 0.000000 0.000000 0.000000 0.000000 -1.790452
    9 14.196015 4.045517 0.000000 3.225409 -0.006783 -0.289376
    10 3.890452 -0.000004 -0.000003 -1.570796 0.051839 -1.565574
    11 17.848177 0.000000 0.000000 0.000000 0.000000 0.034200
    12 16.525253 0.000000 0.000000 -0.027915 -0.040781 -1.071639
    13 -3.890452 0.000004 0.000007 -1.570796 0.051845 -1.576021
    14 17.848173 0.000000 0.000000 0.000000 0.000000 0.034187
    15 16.525257 0.000000 0.000000 0.038611 0.040779 -1.071632
  time 10
    0 -0.533615 0.000005 38.566917 1.570796 0.000000 -1.570796
    1 -0.750018 4.251405 -1.200597 1.894613 -0.546163 1.353791
    2 7.407187 0.769555 -0.410169 -0.209593 0.285377 0.561778
    3 10.584624 1.530427 -1.957142 -2.699821 1.457584 2.269609
    4 6.028143 0.000001 0.000000 1.478448 -0.087634 -0.904575
    5 11.692552 0.000000 0.000002 0.000000 0.000000 -1.725636
    6 10.408831 1.764803 1.906409 2.906841 -1.075515 1.977373
    7 6.028142 0.000001 0.000000 -2.379063 -0.543943 -0.094398
    8 11.692555 0.000000 0.000000 0.000000 0.000000 -1.901857
    9 14.196015 4.045517 -0.003906 3.270386 -0.002625 -0.270773
    10 3.890452 -0.000004 -0.000003 -1.570796 0.051839 -1.565574
    11 17.848177 0.000000 0.000000 0.000000 0.000000 0.034200
    12 16.525253 0.000000 0.000000 -0.027915 -0.040781 -1.071639
    13 -3.890452 0.000004 0.000007 -1.570796 0.051845 -1.576021
    14 17.848173 0.000000 0.000000 0.000000 0.000000 0.034187
    15 16.525257 0.000000 0.000000 0.038611 0.040779 -1.071632
  time 11
    0 -0.533615 0.000005 38.566917 1.570796 0.000000 -1.570796
    1 -0.531261 4.294376 -1.153720 1.894021 -0.565835 1.326442
    2 7.407187 0.757836 -0.433607 -0.226350 0.302623 0.551874
    3 10.592437 1.522614 -1.961048 -2.823630 1.469652 2.147146
    4 6.028143 0.000001 0.000000 1.444670 -0.057825 -0.932070
    5 11.692552 0.000000 0.000002 0.000000 0.000000 -1.628184
    6 10.404925 1.772616 1.902503 2.935631 -1.072003 1.950626
    7 6.028142 0.000001 0.000000 -2.420949 -0.480307 -0.040092
    8 11.692555 0.000000 0.000000 0.000000 0.000000 -2.021670
    9 14.196015 4.045517 -0.003906 3.293517 0.013351 -0.238338
    10 3.890452 -0.000004 -0.000003 -1.570796 0.051839 -1.565574
    11 17.848177 0.000000 0.000000 0.000000 0.000000 0.034200
    12 16.525253 0.000000 0.000000 -0.027915 -0.040781 -1.071639
    13 -3.890452 0.000004 0.000007 -1.570796 0.051845 -1.576021
    14 17.848173 0.000000 0.000000 0.000000 0.000000 0.034187
    15 16.525257 0.000000 0.000000 0.038611 0.040779 -1.071632
  time 12
    0 -0.533615 0.000005 38.566917 1.570796 0.000000 -1.570796
    1 -0.269534 4.345158 -1.063874 1.874377 -0.592750 1.295438
    2 7.411093 0.726585 -0.445326 -0.207323 0.303737 0.535705
    3 10.584624 1.530427 -1.957142 -3.157720 1.468024 1.816575
    4 6.028143 0.000001 0.000000 1.488815 -0.025527 -1.036737
    5 11.692552 0.000000 0.000002 0.000000 0.000000 -1.550991
    6 10.408831 1.764803 1.906409 3.011418 -1.084099 1.881507
    7 6.028142 0.000001 0.000000 -2.471054 -0.396252 -0.053777
    8 11.692555 0.000000 0.000000 0.000000 0.000000 -2.144411
    9 14.196015 4.045517 -0.003906 3.299744 0.034252 -0.233440
    10 3.890452 -0.000004 -0.000003 -1.570796 0.051839 -1.565574
    11 17.848177 0.000000 0.000000 0.000000 0.000000 0.034200
    12 16.525253 0.000000 0.000000 -0.027915 -0.040781 -1.071639
    13 -3.890452 0.000004 0.000007 -1.570796 0.051845 -1.576021
    14 17.848173 0.000000 0.000000 0.000000 0.000000 0.034187
    15 16.525257 0.000000 0.000000 0.038611 0.040779 -1.071632
  time 13
    0 -0.533615 0.000005 38.566917 1.570796 0.000000 -1.570796
    1 -0.089841 4.372503 -0.962308 1.834356 -0.621604 1.293796
    2 7.418906 0.695334 -0.437513 -0.158316 0.287654 0.522246
    3 10.568999 1.553865 -1.953236 -3.452053 1.444614 1.526201
    4 6.028143 0.000001 0.000000 1.639563 0.023495 -1.199283
    5 11.692552 0.000000 0.000002 0.000000 0.000000 -1.502846
    6 10.424456 1.741365 1.914222 3.112181 -1.104627 1.789764
    7 6.028142 0.000001 0.000000 -2.502047 -0.345487 -0.157802
    8 11.692555 0.000000 0.000000 0.000000 0.000000 -2.203191
    9 14.196015 4.049423 0.000000 3.302611 0.032322 -0.252407
    10 3.890452 -0.000004 -0.000003 -1.570796 0.051839 -1.565574
    11 17.848177 0.000000 0.000000 0.000000 0.000000 0.034200
    12 16.525253 0.000000 0.000000 -0.027915 -0.040781 -1.071639
    13 -3.890452 0.000004 0.000007 -1.570796 0.051845 -1.576021
    14 17.848173 0.000000 0.000000 0.000000 0.000000 0.034187
    15 16.525257 0.000000 0.000000 0.038611 0.040779 -1.071632
  time 14
    0 -0.533615 0.000005 38.566917 1.570796 0.000000 -1.570796
    1 0.003911 4.392035 -0.880274 1.774291 -0.646977 1.325328
    2 7.426719 0.683615 -0.410169 -0.087953 0.256866 0.519431
    3 10.541654 1.589022 -1.945423 -3.570377 1.411113 1.410559
    4 6.028143 0.000001 0.000000 1.779357 0.124305 -1.294816
    5 11.692552 0.000000 0.000002 0.000000 0.000000 -1.491300
    6 10.447895 1.710114 1.925941 3.211895 -1.128493 1.698883
    7 6.028142 0.000001 0.000000 -2.457191 -0.341863 -0.368541
    8 11.692555 0.000000 0.000000 0.000000 0.000000 -2.184724
    9 14.192109 4.049423 0.003906 3.295988 0.001222 -0.275714
    10 3.890452 -0.000004 -0.000003 -1.570796 0.051839 -1.565574
    11 17.848177 0.000000 0.000000 0.000000 0.000000 0.034200
    12 16.525253 0.000000 0.000000 -0.027915 -0.040781 -1.071639
    13 -3.890452 0.000004 0.000007 -1.570796 0.051845 -1.576021
    14 17.848173 0.000000 0.000000 0.000000 0.000000 0.034187
    15 16.525257 0.000000 0.000000 0.038611 0.040779 -1.071632
  time 15
    0 -0.533615 0.000005 38.566917 1.570796 0.000000 -1.570796
    1 0.101571 4.395941 -0.849023 1.695884 -0.661673 1.373062
    2 7.430625 0.695334 -0.367199 -0.005260 0.214872 0.529970
    3 10.514310 1.631992 -1.937610 -3.533688 1.381364 1.447436
    4 6.028143 0.000001 0.000000 1.853017 0.268792 -1.257348
    5 11.692552 0.000000 0.000002 0.000000 0.000000 -1.522380
    6 10.475239 1.671050 1.937660 3.276719 -1.155263 1.639543
    7 6.028142 0.000001 0.000000 -2.286923 -0.308196 -0.664635
    8 11.692555 0.000000 0.000000 0.000000 0.000000 -2.119037
    9 14.192109 4.053330 0.011719 3.280913 -0.044607 -0.318933
    10 3.890452 -0.000004 -0.000003 -1.570796 0.051839 -1.565574
    11 17.848177 0.000000 0.000000 0.000000 0.000000 0.034200
    12 16.525253 0.000000 0.000000 -0.027915 -0.040781 -1.071639
    13 -3.890452 0.000004 0.000007 -1.570796 0.051845 -1.576021
    14 17.848173 0.000000 0.000000 0.000000 0.000000 0.034187
    15 16.525257 0.000000 0.000000 0.038611 0.040779 -1.071632
  time 16
    0 -0.533615 0.000005 38.566917 1.570796 0.000000 -1.570796
    1 0.332046 4.376409 -0.899806 1.596236 -0.656509 1.418472
    2 7.430625 0.718772 -0.316416 0.080279 0.166166 0.545546
    3 10.486965 1.671056 -1.925891 -3.336561 1.360193 1.641723
    4 6.028143 0.000001 0.000000 1.879856 0.401208 -1.107664
    5 11.692552 0.000000 0.000002 0.000000 0.000000 -1.600516
    6 10.502584 1.628080 1.949379 3.254793 -1.187171 1.659579
    7 6.028142 0.000001 0.000000 -2.082543 -0.177678 -0.915441
    8 11.692555 0.000000 0.000000 0.000000 0.000000 -2.036459
    9 14.192109 4.053330 0.023438 3.257585 -0.090831 -0.343313
    10 3.890452 -0.000004 -0.000003 -1.570796 0.051839 -1.565574
    11 17.848177 0.000000 0.000000 0.000000 0.000000 0.034200
    12 16.525253 0.000000 0.000000 -0.027915 -0.040781 -1.071639
    13 -3.890452 0.000004 0.000007 -1.570796 0.051845 -1.576021
    14 17.848173 0.000000 0.000000 0.000000 0.000000 0.034187
    15 16.525257 0.000000 0.000000 0.038611 0.040779 -1.071632
  time 17
    0 -0.533615 0.000005 38.566917 1.570796 0.000000 -1.570796
    1 0.640650 4.313907 -1.016997 1.495905 -0.634244 1.452844
    2 7.426719 0.746117 -0.261727 0.160270 0.116754 0.560170
    3 10.459620 1.714026 -1.914172 -3.071130 1.333759 1.902884
    4 6.028143 0.000001 0.000000 1.844573 0.471194 -0.905787
    5 11.692552 0.000000 0.000002 0.000000 0.000000 -1.703996
    6 10.529928 1.589016 1.957192 3.152028 -1.218537 1.754294
    7 6.028142 0.000001 0.000000 -1.949953 -0.032667 -1.033468
    8 11.692555 0.000000 0.000000 0.000000 0.000000 -1.951028
    9 14.192109 4.049423 0.031251 3.229709 -0.124628 -0.319255
    10 3.890452 -0.000004 -0.000003 -1.570796 0.051839 -1.565574
    11 17.848177 0.000000 0.000000 0.000000 0.000000 0.034200
    12 16.525253 0.000000 0.000000 -0.027915 -0.040781 -1.071639
    13 -3.890452 0.000004 0.000007 -1.570796 0.051845 -1.576021
    14 17.848173 0.000000 0.000000 0.000000 0.000000 0.034187
    15 16.525257 0.000000 0.000000 0.038611 0.040779 -1.071632
  time 18
    0 -0.533615 0.000005 38.566917 1.570796 0.000000 -1.570796
    1 0.824249 4.251405 -1.142001 1.426335 -0.610249 1.478491
    2 7.426719 0.765648 -0.214850 0.226839 0.073585 0.570158
    3 10.436182 1.745277 -1.902453 -2.870877 1.299677 2.099585
    4 6.028143 0.000001 0.000000 1.786297 0.498930 -0.717423
    5 11.692552 0.000000 0.000002 0.000000 0.000000 -1.809364
    6 10.553367 1.553859 1.965005 3.029625 -1.241189 1.867511
    7 6.028142 0.000001 0.000000 -1.864052 0.062333 -1.066257
    8 11.692555 0.000000 0.000000 0.000000 0.000000 -1.869051
    9 14.196015 4.045517 0.039064 3.185375 -0.127696 -0.305271
    10 3.890452 -0.000004 -0.000003 -1.570796 0.051839 -1.565574
    11 17.848177 0.000000 0.000000 0.000000 0.000000 0.034200
    12 16.525253 0.000000 0.000000 -0.027915 -0.040781 -1.071639
    13 -3.890452 0.000004 0.000007 -1.570796 0.051845 -1.576021
    14 17.848173 0.000000 0.000000 0.000000 0.000000 0.034187
    15 16.525257 0.000000 0.000000 0.038611 0.040779 -1.071632
end
