// Created by Crowbar 0.74
version 1
nodes
  0 "ValveBiped.Bip01" -1
  1 "ValveBiped.Bip01_Spine" 0
  2 "ValveBiped.Bip01_Spine2" 1
  3 "ValveBiped.Bip01_R_Clavicle" 2
  4 "ValveBiped.Bip01_R_UpperArm" 3
  5 "ValveBiped.Bip01_R_Forearm" 4
  6 "ValveBiped.Bip01_L_Clavicle" 2
  7 "ValveBiped.Bip01_L_UpperArm" 6
  8 "ValveBiped.Bip01_L_Forearm" 7
  9 "ValveBiped.Bip01_Head1" 2
  10 "ValveBiped.Bip01_L_Thigh" 0
  11 "ValveBiped.Bip01_L_Calf" 10
  12 "ValveBiped.Bip01_L_Foot" 11
  13 "ValveBiped.Bip01_R_Thigh" 0
  14 "ValveBiped.Bip01_R_Calf" 13
  15 "ValveBiped.Bip01_R_Foot" 14
end
skeleton
  time 0
    0 -0.533615 0.000005 38.566917 1.570796 0.000000 -1.570796
    1 0.824249 4.251405 -1.142001 1.426361 -0.610062 1.478455
    2 7.426719 0.765648 -0.214850 0.225804 0.074245 0.570201
    3 10.436182 1.745277 -1.902453 -2.873472 1.300258 2.097050
    4 6.028143 0.000001 0.000000 1.416242 0.547906 -0.617510
    5 11.692552 0.000000 0.000002 0.000000 0.000000 -1.761364
    6 10.553367 1.553859 1.965005 3.031532 -1.240864 1.865785
    7 6.028142 0.000001 0.000000 -2.090316 -0.632187 -1.166643
    8 11.692555 0.000000 0.000000 0.000000 0.000000 -1.360222
    9 14.196015 4.049423 0.039064 3.186314 -0.128019 -0.305250
    10 3.890452 -0.000004 -0.000003 -1.570796 0.051839 -1.565574
    11 17.848177 0.000000 0.000000 0.000000 0.000000 0.034200
    12 16.525253 0.000000 0.000000 -0.027915 -0.040781 -1.071639
    13 -3.890452 0.000004 0.000007 -1.570796 0.051845 -1.576021
    14 17.848173 0.000000 0.000000 0.000000 0.000000 0.034187
    15 16.525257 0.000000 0.000000 0.038611 0.040779 -1.071632
  time 1
    0 -0.533615 0.000005 38.566917 1.570796 0.000000 -1.570796
    1 0.765653 4.247499 -1.200597 1.406331 -0.606885 1.492201
    2 7.426719 0.773461 -0.179693 0.271735 0.044115 0.572867
    3 10.420557 1.764809 -1.894640 -2.799859 1.275743 2.168995
    4 6.028143 0.000001 0.000000 1.422095 0.565783 -0.592531
    5 11.692552 0.000000 0.000002 0.000000 0.000000 -1.768481
    6 10.572898 1.530421 1.972817 2.974049 -1.255626 1.918799
    7 6.028142 0.000001 0.000000 -2.093287 -0.590594 -1.110715
    8 11.692555 0.000000 0.000000 0.000000 0.000000 -1.457438
    9 14.196015 4.045517 0.042970 3.132144 -0.118899 -0.305636
    10 3.890452 -0.000004 -0.000003 -1.570796 0.051839 -1.565574
    11 17.848177 0.000000 0.000000 0.000000 0.000000 0.034200
    12 16.525253 0.000000 0.000000 -0.027915 -0.040781 -1.071639
    13 -3.890452 0.000004 0.000007 -1.570796 0.051845 -1.576021
    14 17.848173 0.000000 0.000000 0.000000 0.000000 0.034187
    15 16.525257 0.000000 0.000000 0.038611 0.040779 -1.071632
  time 2
    0 -0.533615 0.000005 38.566917 1.570796 0.000000 -1.570796
    1 0.546897 4.290469 -1.165439 1.422844 -0.625225 1.501885
    2 7.430625 0.761742 -0.167974 0.288866 0.033581 0.564741
    3 10.416650 1.772622 -1.890734 -2.847814 1.273490 2.121495
    4 6.028143 0.000001 0.000000 1.411728 0.573708 -0.631677
    5 11.692552 0.000000 0.000002 0.000000 0.000000 -1.786272
    6 10.576805 1.518702 1.972817 3.025431 -1.264101 1.870770
    7 6.028142 0.000001 0.000000 -2.099377 -0.530506 -1.080575
    8 11.692555 0.000000 0.000000 0.000000 0.000000 -1.591665
    9 14.196015 4.045517 0.042970 3.101698 -0.128367 -0.305035
    10 3.890452 -0.000004 -0.000003 -1.570796 0.051839 -1.565574
    11 17.848177 0.000000 0.000000 0.000000 0.000000 0.034200
    12 16.525253 0.000000 0.000000 -0.027915 -0.040781 -1.071639
    13 -3.890452 0.000004 0.000007 -1.570796 0.051845 -1.576021
    14 17.848173 0.000000 0.000000 0.000000 0.000000 0.034187
    15 16.525257 0.000000 0.000000 0.038611 0.040779 -1.071632
  time 3
    0 -0.533615 0.000005 38.566917 1.570796 0.000000 -1.570796
    1 0.257825 4.341252 -1.075593 1.456580 -0.647211 1.524404
    2 7.434531 0.734397 -0.175787 0.271132 0.042953 0.549144
    3 10.420557 1.764809 -1.894640 -2.966373 1.288132 2.004766
    4 6.028143 0.000001 0.000000 1.385056 0.574675 -0.703536
    5 11.692552 0.000000 0.000002 0.000000 0.000000 -1.811906
    6 10.572898 1.530421 1.972817 3.133058 -1.259636 1.770591
    7 6.028142 0.000001 0.000000 -2.112843 -0.460114 -1.076304
    8 11.692555 0.000000 0.000000 0.000000 0.000000 -1.731597
    9 14.196015 4.045517 0.042970 3.098189 -0.144942 -0.303617
    10 3.890452 -0.000004 -0.000003 -1.570796 0.051839 -1.565574
    11 17.848177 0.000000 0.000000 0.000000 0.000000 0.034200
    12 16.525253 0.000000 0.000000 -0.027915 -0.040781 -1.071639
    13 -3.890452 0.000004 0.000007 -1.570796 0.051845 -1.576021
    14 17.848173 0.000000 0.000000 0.000000 0.000000 0.034187
    15 16.525257 0.000000 0.000000 0.038611 0.040779 -1.071632
  time 4
    0 -0.533615 0.000005 38.566917 1.570796 0.000000 -1.570796
    1 0.082039 4.376409 -0.958402 1.506687 -0.668658 1.516434
    2 7.442344 0.703147 -0.195318 0.223361 0.065891 0.532954
    3 10.436182 1.745277 -1.902453 -3.131648 1.309680 1.842347
    4 6.028143 0.000001 0.000000 1.346429 0.574629 -0.784436
    5 11.692552 0.000000 0.000002 0.000000 0.000000 -1.832457
    6 10.553367 1.553859 1.965005 3.243163 -1.241081 1.668782
    7 6.028142 0.000001 0.000000 -2.126607 -0.390100 -1.082513
    8 11.692555 0.000000 0.000000 0.000000 0.000000 -1.828213
    9 14.196015 4.049423 0.039064 3.100611 -0.146392 -0.301942
    10 3.890452 -0.000004 -0.000003 -1.570796 0.051839 -1.565574
    11 17.848177 0.000000 0.000000 0.000000 0.000000 0.034200
    12 16.525253 0.000000 0.000000 -0.027915 -0.040781 -1.071639
    13 -3.890452 0.000004 0.000007 -1.570796 0.051845 -1.576021
    14 17.848173 0.000000 0.000000 0.000000 0.000000 0.034187
    15 16.525257 0.000000 0.000000 0.038611 0.040779 -1.071632
  time 5
    0 -0.533615 0.000005 38.566917 1.570796 0.000000 -1.570796
    1 0.003911 4.395941 -0.868555 1.566983 -0.679266 1.485202
    2 7.442344 0.687521 -0.226569 0.154119 0.097974 0.525018
    3 10.459620 1.710120 -1.914172 -3.307423 1.331592 1.669789
    4 6.028143 0.000001 0.000000 1.307550 0.569561 -0.849212
    5 11.692552 0.000000 0.000002 0.000000 0.000000 -1.847561
    6 10.529928 1.589016 1.957192 3.311037 -1.213378 1.606757
    7 6.028142 0.000001 0.000000 -2.127994 -0.324803 -1.092679
    8 11.692555 0.000000 0.000000 0.000000 0.000000 -1.879936
    9 14.192109 4.049423 0.031251 3.112967 -0.121632 -0.300288
    10 3.890452 -0.000004 -0.000003 -1.570796 0.051839 -1.565574
    11 17.848177 0.000000 0.000000 0.000000 0.000000 0.034200
    12 16.525253 0.000000 0.000000 -0.027915 -0.040781 -1.071639
    13 -3.890452 0.000004 0.000007 -1.570796 0.051845 -1.576021
    14 17.848173 0.000000 0.000000 0.000000 0.000000 0.034187
    15 16.525257 0.000000 0.000000 0.038611 0.040779 -1.071632
  time 6
    0 -0.533615 0.000005 38.566917 1.570796 0.000000 -1.570796
    1 -0.082029 4.399848 -0.837304 1.640457 -0.673775 1.444203
    2 7.438438 0.695334 -0.261727 0.072288 0.135893 0.529039
    3 10.486965 1.671056 -1.925891 -3.436245 1.355511 1.543403
    4 6.028143 0.000001 0.000000 1.278036 0.551915 -0.890408
    5 11.692552 0.000000 0.000002 0.000000 0.000000 -1.866732
    6 10.502584 1.628080 1.949379 3.310751 -1.183898 1.607907
    7 6.028142 0.000001 0.000000 -2.112398 -0.274340 -1.084491
    8 11.692555 0.000000 0.000000 0.000000 0.000000 -1.903659
    9 14.192109 4.053330 0.023438 3.137037 -0.066491 -0.314551
    10 3.890452 -0.000004 -0.000003 -1.570796 0.051839 -1.565574
    11 17.848177 0.000000 0.000000 0.000000 0.000000 0.034200
    12 16.525253 0.000000 0.000000 -0.027915 -0.040781 -1.071639
    13 -3.890452 0.000004 0.000007 -1.570796 0.051845 -1.576021
    14 17.848173 0.000000 0.000000 0.000000 0.000000 0.034187
    15 16.525257 0.000000 0.000000 0.038611 0.040779 -1.071632
  time 7
    0 -0.533615 0.000005 38.566917 1.570796 0.000000 -1.570796
    1 -0.347662 4.376409 -0.895900 1.733574 -0.643262 1.409975
    2 7.430625 0.714866 -0.300790 -0.013394 0.176952 0.539747
    3 10.514310 1.631992 -1.937610 -3.416957 1.389230 1.562475
    4 6.028143 0.000001 0.000000 1.277451 0.551177 -0.908956
    5 11.692552 0.000000 0.000002 0.000000 0.000000 -1.809364
    6 10.471333 1.671050 1.937660 3.219331 -1.157106 1.692460
    7 6.028142 0.000001 0.000000 -2.062045 -0.324350 -1.002379
    8 11.692555 0.000000 0.000000 0.000000 0.000000 -1.738353
    9 14.192109 4.053330 0.011719 3.164913 -0.018492 -0.330124
    10 3.890452 -0.000004 -0.000003 -1.570796 0.051839 -1.565574
    11 17.848177 0.000000 0.000000 0.000000 0.000000 0.034200
    12 16.525253 0.000000 0.000000 -0.027915 -0.040781 -1.071639
    13 -3.890452 0.000004 0.000007 -1.570796 0.051845 -1.576021
    14 17.848173 0.000000 0.000000 0.000000 0.000000 0.034187
    15 16.525257 0.000000 0.000000 0.038611 0.040779 -1.071632
  time 8
    0 -0.533615 0.000005 38.566917 1.570796 0.000000 -1.570796
    1 -0.664078 4.310001 -1.024810 1.818460 -0.595156 1.389086
    2 7.422812 0.742210 -0.339854 -0.094392 0.218048 0.552847
    3 10.541654 1.589022 -1.945423 -3.207031 1.425421 1.769135
    4 6.028143 0.000001 0.000000 1.295427 0.529385 -0.900008
    5 11.692552 0.000000 0.000002 0.000000 0.000000 -1.795059
    6 10.447895 1.710114 1.925941 3.078911 -1.128341 1.821304
    7 6.028142 0.000001 0.000000 -2.012436 -0.397044 -0.909311
    8 11.692555 0.000000 0.000000 0.000000 0.000000 -1.585359
    9 14.192109 4.049423 0.003906 3.189378 -0.004746 -0.322284
    10 3.890452 -0.000004 -0.000003 -1.570796 0.051839 -1.565574
    11 17.848177 0.000000 0.000000 0.000000 0.000000 0.034200
    12 16.525253 0.000000 0.000000 -0.027915 -0.040781 -1.071639
    13 -3.890452 0.000004 0.000007 -1.570796 0.051845 -1.576021
    14 17.848173 0.000000 0.000000 0.000000 0.000000 0.034187
    15 16.525257 0.000000 0.000000 0.038611 0.040779 -1.071632
  time 9
    0 -0.533615 0.000005 38.566917 1.570796 0.000000 -1.570796
    1 -0.820333 4.251405 -1.145907 1.873282 -0.555251 1.371660
    2 7.411093 0.765648 -0.378918 -0.162455 0.255499 0.561249
    3 10.568999 1.553865 -1.953236 -2.884384 1.446824 2.087514
    4 6.028143 0.000001 0.000000 1.313905 0.474972 -0.874377
    5 11.692552 0.000000 0.000002 0.000000 0.000000 -1.856348
    6 10.424456 1.741365 1.914222 2.958224 -1.097560 1.931261
    7 6.028142 0.000001 0.000000 -1.980402 -0.424710 -0.868848
    8 11.692555 0.000000 0.000000 0.000000 0.000000 -1.569594
    9 14.196015 4.049423 0.000000 3.225014 -0.006783 -0.289376
    10 3.890452 -0.000004 -0.000003 -1.570796 0.051839 -1.565574
    11 17.848177 0.000000 0.000000 0.000000 0.000000 0.034200
    12 16.525253 0.000000 0.000000 -0.027915 -0.040781 -1.071639
    13 -3.890452 0.000004 0.000007 -1.570796 0.051845 -1.576021
    14 17.848173 0.000000 0.000000 0.000000 0.000000 0.034187
    15 16.525257 0.000000 0.000000 0.038611 0.040779 -1.071632
  time 10
    0 -0.533615 0.000005 38.566917 1.570796 0.000000 -1.570796
    1 -0.750018 4.251405 -1.200597 1.894549 -0.546046 1.353971
    2 7.407187 0.769555 -0.410169 -0.209248 0.285137 0.561799
    3 10.584624 1.530427 -1.957142 -2.699998 1.457453 2.269488
    4 6.028143 0.000001 0.000000 1.328118 0.417057 -0.856482
    5 11.692552 0.000000 0.000002 0.000000 0.000000 -1.923156
    6 10.408831 1.764803 1.906409 2.906841 -1.075645 1.977373
    7 6.028142 0.000001 0.000000 -1.967728 -0.435958 -0.896060
    8 11.692555 0.000000 0.000000 0.000000 0.000000 -1.611634
    9 14.196015 4.045517 -0.003906 3.270040 -0.002721 -0.271096
    10 3.890452 -0.000004 -0.000003 -1.570796 0.051839 -1.565574
    11 17.848177 0.000000 0.000000 0.000000 0.000000 0.034200
    12 16.525253 0.000000 0.000000 -0.027915 -0.040781 -1.071639
    13 -3.890452 0.000004 0.000007 -1.570796 0.051845 -1.576021
    14 17.848173 0.000000 0.000000 0.000000 0.000000 0.034187
    15 16.525257 0.000000 0.000000 0.038611 0.040779 -1.071632
  time 11
    0 -0.533615 0.000005 38.566917 1.570796 0.000000 -1.570796
    1 -0.535168 4.294376 -1.153720 1.894124 -0.565554 1.326814
    2 7.407187 0.757836 -0.433607 -0.226350 0.302515 0.552022
    3 10.592437 1.522614 -1.961048 -2.820799 1.469551 2.149923
    4 6.028143 0.000001 0.000000 1.336730 0.363888 -0.865430
    5 11.692552 0.000000 0.000002 0.000000 0.000000 -1.975513
    6 10.404925 1.772616 1.902503 2.935059 -1.071938 1.951201
    7 6.028142 0.000001 0.000000 -1.962182 -0.449810 -0.979003
    8 11.692555 0.000000 0.000000 0.000000 0.000000 -1.648719
    9 14.196015 4.045517 -0.003906 3.293467 0.013111 -0.238638
    10 3.890452 -0.000004 -0.000003 -1.570796 0.051839 -1.565574
    11 17.848177 0.000000 0.000000 0.000000 0.000000 0.034200
    12 16.525253 0.000000 0.000000 -0.027915 -0.040781 -1.071639
    13 -3.890452 0.000004 0.000007 -1.570796 0.051845 -1.576021
    14 17.848173 0.000000 0.000000 0.000000 0.000000 0.034187
    15 16.525257 0.000000 0.000000 0.038611 0.040779 -1.071632
  time 12
    0 -0.533615 0.000005 38.566917 1.570796 0.000000 -1.570796
    1 -0.273441 4.341252 -1.063874 1.874725 -0.592423 1.295738
    2 7.411093 0.726585 -0.445326 -0.207754 0.303833 0.535896
    3 10.584624 1.530427 -1.957142 -3.153414 1.468184 1.820860
    4 6.028143 0.000001 0.000000 1.342165 0.326753 -0.887705
    5 11.692552 0.000000 0.000002 0.000000 0.000000 -2.005795
    6 10.408831 1.764803 1.906409 3.010369 -1.083904 1.882466
    7 6.028142 0.000001 0.000000 -1.961192 -0.466870 -1.079705
    8 11.692555 0.000000 0.000000 0.000000 0.000000 -1.666285
    9 14.196015 4.045517 -0.003906 3.299645 0.034036 -0.233161
    10 3.890452 -0.000004 -0.000003 -1.570796 0.051839 -1.565574
    11 17.848177 0.000000 0.000000 0.000000 0.000000 0.034200
    12 16.525253 0.000000 0.000000 -0.027915 -0.040781 -1.071639
    13 -3.890452 0.000004 0.000007 -1.570796 0.051845 -1.576021
    14 17.848173 0.000000 0.000000 0.000000 0.000000 0.034187
    15 16.525257 0.000000 0.000000 0.038611 0.040779 -1.071632
  time 13
    0 -0.533615 0.000005 38.566917 1.570796 0.000000 -1.570796
    1 -0.089841 4.372503 -0.962308 1.835012 -0.621230 1.293568
    2 7.418906 0.695334 -0.437513 -0.159121 0.287966 0.522351
    3 10.568999 1.553865 -1.953236 -3.449340 1.445021 1.528857
    4 6.028143 0.000001 0.000000 1.345843 0.314267 -0.903550
    5 11.692552 0.000000 0.000002 0.000000 0.000000 -2.011822
    6 10.424456 1.741365 1.914222 3.110846 -1.104345 1.791010
    7 6.028142 0.000001 0.000000 -1.965153 -0.482685 -1.177204
    8 11.692555 0.000000 0.000000 0.000000 0.000000 -1.658328
    9 14.196015 4.049423 0.000000 3.302660 0.032574 -0.252193
    10 3.890452 -0.000004 -0.000003 -1.570796 0.051839 -1.565574
    11 17.848177 0.000000 0.000000 0.000000 0.000000 0.034200
    12 16.525253 0.000000 0.000000 -0.027915 -0.040781 -1.071639
    13 -3.890452 0.000004 0.000007 -1.570796 0.051845 -1.576021
    14 17.848173 0.000000 0.000000 0.000000 0.000000 0.034187
    15 16.525257 0.000000 0.000000 0.038611 0.040779 -1.071632
  time 14
    0 -0.533615 0.000005 38.566917 1.570796 0.000000 -1.570796
    1 0.003911 4.392035 -0.880274 1.775257 -0.646673 1.324728
    2 7.426719 0.683615 -0.410169 -0.089046 0.257381 0.519367
    3 10.541654 1.589022 -1.945423 -3.569846 1.411579 1.411042
    4 6.028143 0.000001 0.000000 1.352281 0.327490 -0.902245
    5 11.692552 0.000000 0.000002 0.000000 0.000000 -1.995483
    6 10.447895 1.710114 1.925941 3.210656 -1.128146 1.700034
    7 6.028142 0.000001 0.000000 -1.978570 -0.501481 -1.254332
    8 11.692555 0.000000 0.000000 0.000000 0.000000 -1.636857
    9 14.192109 4.049423 0.003906 3.296136 0.001798 -0.275263
    10 3.890452 -0.000004 -0.000003 -1.570796 0.051839 -1.565574
    11 17.848177 0.000000 0.000000 0.000000 0.000000 0.034200
    12 16.525253 0.000000 0.000000 -0.027915 -0.040781 -1.071639
    13 -3.890452 0.000004 0.000007 -1.570796 0.051845 -1.576021
    14 17.848173 0.000000 0.000000 0.000000 0.000000 0.034187
    15 16.525257 0.000000 0.000000 0.038611 0.040779 -1.071632
  time 15
    0 -0.533615 0.000005 38.566917 1.570796 0.000000 -1.570796
    1 0.097664 4.395941 -0.849023 1.697172 -0.661579 1.372319
    2 7.430625 0.695334 -0.367199 -0.006553 0.215567 0.529758
    3 10.514310 1.631992 -1.937610 -3.535340 1.381742 1.445807
    4 6.028143 0.000001 0.000000 1.359555 0.358221 -0.876614
    5 11.692552 0.000000 0.000002 0.000000 0.000000 -1.966726
    6 10.471333 1.671050 1.937660 3.276147 -1.154830 1.640022
    7 6.028142 0.000001 0.000000 -2.001345 -0.515408 -1.303101
    8 11.692555 0.000000 0.000000 0.000000 0.000000 -1.623345
    9 14.192109 4.053330 0.011719 3.281210 -0.043888 -0.318245
    10 3.890452 -0.000004 -0.000003 -1.570796 0.051839 -1.565574
    11 17.848177 0.000000 0.000000 0.000000 0.000000 0.034200
    12 16.525253 0.000000 0.000000 -0.027915 -0.040781 -1.071639
    13 -3.890452 0.000004 0.000007 -1.570796 0.051845 -1.576021
    14 17.848173 0.000000 0.000000 0.000000 0.000000 0.034187
    15 16.525257 0.000000 0.000000 0.038611 0.040779 -1.071632
  time 16
    0 -0.533615 0.000005 38.566917 1.570796 0.000000 -1.570796
    1 0.324234 4.376409 -0.899806 1.597936 -0.656743 1.417825
    2 7.430625 0.718772 -0.316416 0.078928 0.166969 0.545292
    3 10.486965 1.671056 -1.925891 -3.340690 1.360528 1.637619
    4 6.028143 0.000001 0.000000 1.383886 0.444747 -0.804848
    5 11.692552 0.000000 0.000002 0.000000 0.000000 -1.851918
    6 10.502584 1.628080 1.949379 3.255937 -1.186629 1.658620
    7 6.028142 0.000001 0.000000 -2.039667 -0.601728 -1.278183
    8 11.692555 0.000000 0.000000 0.000000 0.000000 -1.434542
    9 14.192109 4.053330 0.023438 3.257980 -0.090160 -0.343507
    10 3.890452 -0.000004 -0.000003 -1.570796 0.051839 -1.565574
    11 17.848177 0.000000 0.000000 0.000000 0.000000 0.034200
    12 16.525253 0.000000 0.000000 -0.027915 -0.040781 -1.071639
    13 -3.890452 0.000004 0.000007 -1.570796 0.051845 -1.576021
    14 17.848173 0.000000 0.000000 0.000000 0.000000 0.034187
    15 16.525257 0.000000 0.000000 0.038611 0.040779 -1.071632
  time 17
    0 -0.533615 0.000005 38.566917 1.570796 0.000000 -1.570796
    1 0.636743 4.317814 -1.016997 1.497425 -0.634688 1.452352
    2 7.426719 0.742210 -0.261727 0.159006 0.117557 0.559958
    3 10.459620 1.710120 -1.914172 -3.075377 1.334297 1.898720
    4 6.028143 0.000001 0.000000 1.403199 0.514825 -0.703070
    5 11.692552 0.000000 0.000002 0.000000 0.000000 -1.772547
    6 10.529928 1.589016 1.957192 3.154125 -1.218060 1.752376
    7 6.028142 0.000001 0.000000 -2.076404 -0.652229 -1.220831
    8 11.692555 0.000000 0.000000 0.000000 0.000000 -1.315930
    9 14.192109 4.049423 0.031251 3.230154 -0.124232 -0.319771
    10 3.890452 -0.000004 -0.000003 -1.570796 0.051839 -1.565574
    11 17.848177 0.000000 0.000000 0.000000 0.000000 0.034200
    12 16.525253 0.000000 0.000000 -0.027915 -0.040781 -1.071639
    13 -3.890452 0.000004 0.000007 -1.570796 0.051845 -1.576021
    14 17.848173 0.000000 0.000000 0.000000 0.000000 0.034187
    15 16.525257 0.000000 0.000000 0.038611 0.040779 -1.071632
  time 18
    0 -0.533615 0.000005 38.566917 1.570796 0.000000 -1.570796
    1 0.824249 4.255312 -1.138095 1.427185 -0.610553 1.478047
    2 7.426719 0.765648 -0.214850 0.225804 0.074257 0.570031
    3 10.436182 1.745277 -1.902453 -2.873472 1.300258 2.097050
    4 6.028143 0.000001 0.000000 1.416410 0.547860 -0.618069
    5 11.692552 0.000000 0.000002 0.000000 0.000000 -1.761364
    6 10.553367 1.553859 1.965005 3.031532 -1.240864 1.865785
    7 6.028142 0.000001 0.000000 -2.090217 -0.632451 -1.166010
    8 11.692555 0.000000 0.000000 0.000000 0.000000 -1.360072
    9 14.196015 4.049423 0.039064 3.186314 -0.128019 -0.305250
    10 3.890452 -0.000004 -0.000003 -1.570796 0.051839 -1.565574
    11 17.848177 0.000000 0.000000 0.000000 0.000000 0.034200
    12 16.525253 0.000000 0.000000 -0.027915 -0.040781 -1.071639
    13 -3.890452 0.000004 0.000007 -1.570796 0.051845 -1.576021
    14 17.848173 0.000000 0.000000 0.000000 0.000000 0.034187
    15 16.525257 0.000000 0.000000 0.038611 0.040779 -1.071632
end
