// Created by Crowbar 0.74
version 1
nodes
  0 "ValveBiped.Bip01" -1
  1 "ValveBiped.Bip01_Spine" 0
  2 "ValveBiped.Bip01_Spine2" 1
  3 "ValveBiped.Bip01_R_Clavicle" 2
  4 "ValveBiped.Bip01_R_UpperArm" 3
  5 "ValveBiped.Bip01_R_Forearm" 4
  6 "ValveBiped.Bip01_L_Clavicle" 2
  7 "ValveBiped.Bip01_L_UpperArm" 6
  8 "ValveBiped.Bip01_L_Forearm" 7
  9 "ValveBiped.Bip01_Head1" 2
  10 "ValveBiped.Bip01_L_Thigh" 0
  11 "ValveBiped.Bip01_L_Calf" 10
  12 "ValveBiped.Bip01_L_Foot" 11
  13 "ValveBiped.Bip01_R_Thigh" 0
  14 "ValveBiped.Bip01_R_Calf" 13
  15 "ValveBiped.Bip01_R_Foot" 14
end
skeleton
  time 0
    0 0.634389 0.648462 31.554985 1.730270 0.114513 -0.589697
    1 0.000005 3.345128 -2.981901 1.570796 0.008422 1.570796
    2 7.489221 0.582049 -0.039064 -0.519844 -0.069642 0.473931
    3 10.596343 1.889813 -1.609475 -2.705484 0.915653 2.158674
    4 6.028143 0.000001 0.000000 4.379021 1.498453 2.467043
    5 11.692552 0.000000 0.000002 0.000000 0.000000 -1.355360
    6 10.682277 1.065563 2.175949 -0.397937 -1.343090 5.216378
    7 6.028142 0.000001 0.000000 -3.201931 -0.707825 0.339697
    8 11.692555 0.000000 0.000000 0.000000 0.000000 -0.840507
    9 15.391364 2.361872 0.375011 4.231307 0.205152 -0.119207
    10 3.886546 -0.226573 -0.000003 -2.148171 -0.780563 -0.947243
    11 17.848177 0.000000 0.000000 0.000000 0.000000 1.304418
    12 16.525253 0.000000 0.000000 -0.055921 0.148028 -1.549655
    13 -3.886546 0.226573 0.000007 -1.551658 -0.245999 -1.884164
    14 17.848173 0.000000 0.000000 0.000000 0.000000 0.696937
    15 16.525257 0.000000 0.000000 0.557017 0.094483 -1.522318
  time 1
    0 0.513292 1.074257 31.133097 1.721783 0.111265 -0.575924
    1 0.000005 3.345128 -2.981901 1.567924 0.036131 1.573816
    2 7.497033 0.539079 -0.058596 -0.499839 -0.051282 0.458990
    3 10.615875 1.858562 -1.625100 -2.722471 0.931997 2.133264
    4 6.028143 0.000001 0.000000 0.847616 1.501632 -1.094243
    5 11.692552 0.000000 0.000002 0.000000 0.000000 -1.433060
    6 10.686183 1.073376 2.168136 -0.525678 -1.342202 5.338894
    7 6.028142 0.000001 0.000000 -2.999185 -0.679971 0.241961
    8 11.692555 0.000000 0.000000 0.000000 0.000000 -0.860626
    9 15.391364 2.350153 0.363292 4.199032 0.153463 -0.078587
    10 3.886546 -0.203135 -0.000003 -2.157228 -0.798742 -0.924942
    11 17.848177 0.000000 0.000000 0.000000 0.000000 1.332381
    12 16.525253 0.000000 0.000000 -0.054689 0.162797 -1.546741
    13 -3.886546 0.203135 0.000007 -1.540683 -0.239311 -1.892178
    14 17.848173 0.000000 0.000000 0.000000 0.000000 0.747849
    15 16.525257 0.000000 0.000000 0.560480 0.092191 -1.565630
  time 2
    0 0.220314 2.054755 30.211194 1.698621 0.102133 -0.539353
    1 0.000005 3.345128 -2.981901 1.561882 0.096830 1.581606
    2 7.512659 0.421888 -0.101566 -0.450286 -0.008353 0.419457
    3 10.651032 1.780434 -1.675883 -2.772549 0.972389 2.063191
    4 6.028143 0.000001 0.000000 1.083728 1.183309 -0.921352
    5 11.692552 0.000000 0.000002 0.000000 0.000000 -1.585702
    6 10.705715 1.096814 2.136885 -0.839597 -1.319832 5.639049
    7 6.028142 0.000001 0.000000 -2.427880 -0.543188 0.125873
    8 11.692555 0.000000 0.000000 0.000000 0.000000 -0.923761
    9 15.387458 2.334527 0.320322 4.116591 0.042461 0.018226
    10 3.890452 -0.136727 -0.000003 -2.166377 -0.838510 -0.885058
    11 17.848177 0.000000 0.000000 0.000000 0.000000 1.385217
    12 16.525253 0.000000 0.000000 -0.051943 0.195469 -1.532103
    13 -3.890452 0.136727 0.000007 -1.513382 -0.208451 -1.911025
    14 17.848173 0.000000 0.000000 0.000000 0.000000 0.846807
    15 16.525257 0.000000 0.000000 0.567657 0.087445 -1.656664
  time 3
    0 -0.154697 3.129007 29.301010 1.663885 0.087895 -0.486782
    1 0.000005 3.345128 -2.981901 1.556279 0.156875 1.592320
    2 7.524378 0.277352 -0.152348 -0.386678 0.041299 0.362762
    3 10.690096 1.678869 -1.738385 -2.856721 1.022961 1.955334
    4 6.028143 0.000001 0.000000 1.172689 0.820801 -0.904295
    5 11.692552 0.000000 0.000002 0.000000 0.000000 -1.717721
    6 10.740872 1.128065 2.093915 -1.156471 -1.250250 5.936711
    7 6.028142 0.000001 0.000000 -1.862517 -0.463586 0.158900
    8 11.692555 0.000000 0.000000 0.000000 0.000000 -1.027658
    9 15.375739 2.330621 0.250008 4.007016 -0.062619 0.131149
    10 3.890452 -0.039068 -0.000003 -2.145792 -0.878548 -0.871935
    11 17.848177 0.000000 0.000000 0.000000 0.000000 1.421445
    12 16.525253 0.000000 0.000000 -0.049049 0.229585 -1.501674
    13 -3.890452 0.039067 0.000007 -1.476013 -0.148218 -1.932689
    14 17.848173 0.000000 0.000000 0.000000 0.000000 0.933078
    15 16.525257 0.000000 0.000000 0.573476 0.083605 -1.746438
  time 4
    0 -0.514083 3.839966 28.925998 1.620821 0.069607 -0.425302
    1 0.000005 3.345128 -2.981901 1.553046 0.182575 1.603885
    2 7.532191 0.132817 -0.195318 -0.323961 0.080285 0.293665
    3 10.713534 1.581210 -1.808700 -2.973333 1.069242 1.818386
    4 6.028143 0.000001 0.000000 1.264157 0.546893 -0.899169
    5 11.692552 0.000000 0.000002 0.000000 0.000000 -1.781334
    6 10.779936 1.155409 2.043132 -1.357806 -1.137965 6.117993
    7 6.028142 0.000001 0.000000 -1.668683 -0.499254 0.102220
    8 11.692555 0.000000 0.000000 0.000000 0.000000 -1.159858
    9 15.344488 2.350153 0.144536 3.897836 -0.105764 0.208458
    10 3.890452 0.066404 -0.000003 -2.066107 -0.893450 -0.928631
    11 17.848177 0.000000 0.000000 0.000000 0.000000 1.411635
    12 16.525253 0.000000 0.000000 -0.047120 0.251943 -1.462502
    13 -3.890452 -0.066405 0.000007 -1.434743 -0.072031 -1.948277
    14 17.848173 0.000000 0.000000 0.000000 0.000000 0.975641
    15 16.525257 0.000000 0.000000 0.571869 0.084671 -1.798346
  time 5
    0 -0.889095 4.027472 29.398669 1.573374 0.049077 -0.361536
    1 0.000005 3.345128 -2.981901 1.551938 0.152763 1.618015
    2 7.532191 -0.019532 -0.226569 -0.253656 0.107346 0.191257
    3 10.721347 1.467925 -1.890734 -3.099443 1.109984 1.671177
    4 6.028143 0.000001 0.000000 1.384387 0.403235 -0.862447
    5 11.692552 0.000000 0.000002 0.000000 0.000000 -1.765213
    6 10.842438 1.178848 1.968911 -1.480209 -1.001706 6.214721
    7 6.028142 0.000001 0.000000 -1.710618 -0.506727 -0.013473
    8 11.692555 0.000000 0.000000 0.000000 0.000000 -1.319233
    9 15.309331 2.357966 -0.023438 3.779117 -0.059444 0.205408
    10 3.886546 0.183595 -0.000003 -1.937659 -0.855567 -1.048712
    11 17.848177 0.000000 0.000000 0.000000 0.000000 1.338252
    12 16.525253 0.000000 0.000000 -0.046170 0.262745 -1.417275
    13 -3.886546 -0.183596 0.000007 -1.392477 0.030077 -1.949686
    14 17.848173 0.000000 0.000000 0.000000 0.000000 0.935288
    15 16.525257 0.000000 0.000000 0.560748 0.092030 -1.792270
  time 6
    0 -1.318795 3.949344 30.390887 1.526487 0.028715 -0.302225
    1 0.000005 3.345128 -2.981901 1.549942 0.089541 1.634902
    2 7.524378 -0.199225 -0.261727 -0.171480 0.134503 0.060153
    3 10.713534 1.342921 -1.988393 -3.219123 1.148574 1.528012
    4 6.028143 0.000001 0.000000 1.493581 0.321915 -0.781733
    5 11.692552 0.000000 0.000002 0.000000 0.000000 -1.681921
    6 10.920565 1.202286 1.879064 4.720289 -0.861394 6.262079
    7 6.028142 0.000001 0.000000 -1.846278 -0.493215 -0.127781
    8 11.692555 0.000000 0.000000 0.000000 0.000000 -1.426960
    9 15.278080 2.330621 -0.261727 3.642655 0.038279 0.141159
    10 3.882639 0.292974 -0.000003 -1.817079 -0.774100 -1.167592
    11 17.848177 0.000000 0.000000 0.000000 0.000000 1.220376
    12 16.525253 0.000000 0.000000 -0.045517 0.270252 -1.363561
    13 -3.882639 -0.292974 0.000007 -1.351026 0.162083 -1.936916
    14 17.848173 0.000000 0.000000 0.000000 0.000000 0.815049
    15 16.525257 0.000000 0.000000 0.546288 0.101560 -1.742955
  time 7
    0 -1.693807 3.781370 31.429981 1.486246 0.011373 -0.253815
    1 0.000005 3.345128 -2.981901 1.545240 0.024169 1.650074
    2 7.508752 -0.355480 -0.289071 -0.099019 0.160138 -0.059227
    3 10.697909 1.229636 -2.074333 -3.326121 1.178004 1.402652
    4 6.028143 0.000001 0.000000 1.554950 0.280633 -0.695800
    5 11.692552 0.000000 0.000002 0.000000 0.000000 -1.561739
    6 10.994786 1.217911 1.789218 4.668907 -0.740525 -0.004262
    7 6.028142 0.000001 0.000000 -1.985304 -0.483477 -0.217646
    8 11.692555 0.000000 0.000000 0.000000 0.000000 -1.429062
    9 15.246829 2.291557 -0.480483 3.520575 0.137140 0.056633
    10 3.874826 0.382820 -0.000003 -1.731081 -0.680783 -1.253364
    11 17.848177 0.000000 0.000000 0.000000 0.000000 1.093771
    12 16.525253 0.000000 0.000000 -0.045087 0.275297 -1.308629
    13 -3.874826 -0.382821 0.000007 -1.311933 0.294001 -1.915076
    14 17.848173 0.000000 0.000000 0.000000 0.000000 0.659777
    15 16.525257 0.000000 0.000000 0.533596 0.109884 -1.671855
  time 8
    0 -1.908657 3.707149 32.051094 1.459524 0.000000 -0.222811
    1 0.000005 3.345128 -2.981901 1.538954 -0.012372 1.658847
    2 7.497033 -0.441420 -0.304697 -0.057859 0.177168 -0.127012
    3 10.682283 1.163228 -2.121209 -3.404807 1.191904 1.315618
    4 6.028143 0.000001 0.000000 1.575434 0.257412 -0.649385
    5 11.692552 0.000000 0.000002 0.000000 0.000000 -1.480407
    6 11.033850 1.225724 1.734529 4.643930 -0.662490 -0.001194
    7 6.028142 0.000001 0.000000 -2.059421 -0.479741 -0.274563
    8 11.692555 0.000000 0.000000 0.000000 0.000000 -1.386947
    9 15.215578 2.279838 -0.613300 3.448810 0.192748 0.001557
    10 3.867014 0.441416 -0.000003 -1.683782 -0.618033 -1.299595
    11 17.848177 0.000000 0.000000 0.000000 0.000000 1.008956
    12 16.525253 0.000000 0.000000 -0.044819 0.278186 -1.269489
    13 -3.867014 -0.441416 0.000007 -1.283634 0.381554 -1.897903
    14 17.848173 0.000000 0.000000 0.000000 0.000000 0.550014
    15 16.525257 0.000000 0.000000 0.526438 0.114569 -1.619576
  time 9
    0 -1.990691 3.750119 32.273757 1.445181 -0.006052 -0.206518
    1 0.000005 3.345128 -2.981901 1.532088 -0.021087 1.661975
    2 7.493127 -0.472671 -0.312510 -0.043028 0.185342 -0.149995
    3 10.678377 1.139790 -2.140741 -3.451817 1.194957 1.267273
    4 6.028143 0.000001 0.000000 1.581454 0.236863 -0.636989
    5 11.692552 0.000000 0.000002 0.000000 0.000000 -1.458912
    6 11.049475 1.229630 1.714997 4.633730 -0.621521 -0.001290
    7 6.028142 0.000001 0.000000 -2.080018 -0.470267 -0.309330
    8 11.692555 0.000000 0.000000 0.000000 0.000000 -1.363450
    9 15.196046 2.291557 -0.660176 3.421379 0.209347 -0.020267
    10 3.863107 0.468760 -0.000003 -1.661460 -0.591326 -1.320781
    11 17.848177 0.000000 0.000000 0.000000 0.000000 0.971724
    12 16.525253 0.000000 0.000000 -0.044686 0.279712 -1.248957
    13 -3.863107 -0.468761 0.000007 -1.269485 0.415342 -1.892355
    14 17.848173 0.000000 0.000000 0.000000 0.000000 0.515391
    15 16.525257 0.000000 0.000000 0.523278 0.116640 -1.602459
  time 10
    0 -2.037567 3.808715 32.430011 1.436764 -0.009588 -0.197023
    1 0.000005 3.345128 -2.981901 1.524347 -0.024381 1.663725
    2 7.489221 -0.492202 -0.316416 -0.034721 0.190771 -0.162672
    3 10.670564 1.128071 -2.152460 -3.478596 1.196571 1.240052
    4 6.028143 0.000001 0.000000 1.584464 0.224607 -0.626178
    5 11.692552 0.000000 0.000002 0.000000 0.000000 -1.449762
    6 11.057288 1.229630 1.703278 4.625723 -0.595097 -0.001578
    7 6.028142 0.000001 0.000000 -2.090118 -0.452829 -0.331400
    8 11.692555 0.000000 0.000000 0.000000 0.000000 -1.344082
    9 15.180420 2.295464 -0.691427 3.404377 0.218635 -0.041125
    10 3.863107 0.488292 -0.000003 -1.648926 -0.573910 -1.332703
    11 17.848177 0.000000 0.000000 0.000000 0.000000 0.944688
    12 16.525253 0.000000 0.000000 -0.044612 0.280587 -1.233359
    13 -3.863107 -0.488293 0.000007 -1.260959 0.431864 -1.888568
    14 17.848173 0.000000 0.000000 0.000000 0.000000 0.497056
    15 16.525257 0.000000 0.000000 0.520386 0.118530 -1.591714
  time 11
    0 -2.061005 3.882936 32.531577 1.433345 -0.011014 -0.193214
    1 0.000005 3.345128 -2.981901 1.516129 -0.023306 1.664324
    2 7.489221 -0.496109 -0.320322 -0.031761 0.193815 -0.166926
    3 10.670564 1.124164 -2.156367 -3.488506 1.197444 1.230456
    4 6.028143 0.000001 0.000000 1.586053 0.218710 -0.616951
    5 11.692552 0.000000 0.000002 0.000000 0.000000 -1.451142
    6 11.061195 1.233537 1.695465 4.619431 -0.580813 -0.001578
    7 6.028142 0.000001 0.000000 -2.092297 -0.429013 -0.342396
    8 11.692555 0.000000 0.000000 0.000000 0.000000 -1.330644
    9 15.176514 2.303276 -0.703146 3.396172 0.221991 -0.060500
    10 3.859201 0.496105 -0.000003 -1.643803 -0.564753 -1.337678
    11 17.848177 0.000000 0.000000 0.000000 0.000000 0.926922
    12 16.525253 0.000000 0.000000 -0.044582 0.280871 -1.222340
    13 -3.859201 -0.496105 0.000007 -1.257512 0.433875 -1.886454
    14 17.848173 0.000000 0.000000 0.000000 0.000000 0.493455
    15 16.525257 0.000000 0.000000 0.517744 0.120259 -1.586897
  time 12
    0 -2.061005 3.961063 32.590173 1.433871 -0.010786 -0.193800
    1 0.000005 3.345128 -2.981901 1.507795 -0.018961 1.664048
    2 7.489221 -0.492202 -0.324229 -0.032939 0.194893 -0.164598
    3 10.666658 1.124164 -2.156367 -3.485026 1.197822 1.234620
    4 6.028143 0.000001 0.000000 1.586889 0.217558 -0.609028
    5 11.692552 0.000000 0.000002 0.000000 0.000000 -1.460655
    6 11.061195 1.237443 1.695465 4.614569 -0.576260 -0.001386
    7 6.028142 0.000001 0.000000 -2.088682 -0.400554 -0.344255
    8 11.692555 0.000000 0.000000 0.000000 0.000000 -1.323662
    9 15.172608 2.307183 -0.707053 3.394986 0.220768 -0.078093
    10 3.859201 0.492199 -0.000003 -1.644260 -0.562419 -1.337420
    11 17.848177 0.000000 0.000000 0.000000 0.000000 0.917189
    12 16.525253 0.000000 0.000000 -0.044612 0.280688 -1.215326
    13 -3.859201 -0.492199 0.000007 -1.258238 0.424608 -1.886278
    14 17.848173 0.000000 0.000000 0.000000 0.000000 0.501313
    15 16.525257 0.000000 0.000000 0.515370 0.121807 -1.586934
  time 13
    0 -2.041474 4.043097 32.613611 1.437290 -0.009360 -0.197609
    1 0.000005 3.345128 -2.981901 1.499718 -0.012372 1.663137
    2 7.489221 -0.480483 -0.324229 -0.037136 0.194522 -0.157550
    3 10.666658 1.131977 -2.156367 -3.471872 1.197822 1.248804
    4 6.028143 0.000001 0.000000 1.587391 0.219862 -0.602411
    5 11.692552 0.000000 0.000002 0.000000 0.000000 -1.475905
    6 11.061195 1.237443 1.699371 4.610947 -0.578992 -0.001003
    7 6.028142 0.000001 0.000000 -2.081305 -0.369567 -0.339074
    8 11.692555 0.000000 0.000000 0.000000 0.000000 -1.322536
    9 15.176514 2.311089 -0.699240 3.399039 0.216322 -0.093623
    10 3.863107 0.488292 -0.000003 -1.648926 -0.565337 -1.333303
    11 17.848177 0.000000 0.000000 0.000000 0.000000 0.913867
    12 16.525253 0.000000 0.000000 -0.044641 0.280200 -1.211610
    13 -3.863107 -0.488293 0.000007 -1.261685 0.407692 -1.886895
    14 17.848173 0.000000 0.000000 0.000000 0.000000 0.516782
    15 16.525257 0.000000 0.000000 0.513281 0.123174 -1.590269
  time 14
    0 -2.014129 4.121225 32.609704 1.442498 -0.007179 -0.203470
    1 0.000005 3.345128 -2.981901 1.492273 -0.004615 1.661831
    2 7.493127 -0.468764 -0.324229 -0.043143 0.193168 -0.147646
    3 10.666658 1.139790 -2.152460 -3.452820 1.197444 1.269084
    4 6.028143 0.000001 0.000000 1.587391 0.224377 -0.596819
    5 11.692552 0.000000 0.000002 0.000000 0.000000 -1.494204
    6 11.053382 1.237443 1.703278 4.608468 -0.586644 -0.000427
    7 6.028142 0.000001 0.000000 -2.071898 -0.338353 -0.329265
    8 11.692555 0.000000 0.000000 0.000000 0.000000 -1.325914
    9 15.180420 2.311089 -0.683615 3.406502 0.209970 -0.106877
    10 3.863107 0.476573 -0.000003 -1.656153 -0.571621 -1.326613
    11 17.848177 0.000000 0.000000 0.000000 0.000000 0.915180
    12 16.525253 0.000000 0.000000 -0.044716 0.279508 -1.210393
    13 -3.863107 -0.476573 0.000007 -1.266764 0.386624 -1.888215
    14 17.848173 0.000000 0.000000 0.000000 0.000000 0.536099
    15 16.525257 0.000000 0.000000 0.511514 0.124320 -1.595308
  time 15
    0 -1.982878 4.191539 32.586266 1.448389 -0.004698 -0.210093
    1 0.000005 3.345128 -2.981901 1.485794 0.003282 1.660393
    2 7.493127 -0.453139 -0.324229 -0.049869 0.191334 -0.136684
    3 10.666658 1.151509 -2.144648 -3.431586 1.196760 1.291536
    4 6.028143 0.000001 0.000000 1.586973 0.229998 -0.592438
    5 11.692552 0.000000 0.000002 0.000000 0.000000 -1.512794
    6 11.049475 1.241350 1.711091 4.606847 -0.596788 0.000052
    7 6.028142 0.000001 0.000000 -2.062045 -0.309366 -0.317280
    8 11.692555 0.000000 0.000000 0.000000 0.000000 -1.332145
    9 15.188233 2.314996 -0.667989 3.415596 0.202947 -0.117638
    10 3.863107 0.464854 -0.000003 -1.664662 -0.579521 -1.318894
    11 17.848177 0.000000 0.000000 0.000000 0.000000 0.919352
    12 16.525253 0.000000 0.000000 -0.044775 0.278776 -1.210842
    13 -3.863107 -0.464854 0.000007 -1.272387 0.364900 -1.889448
    14 17.848173 0.000000 0.000000 0.000000 0.000000 0.555744
    15 16.525257 0.000000 0.000000 0.510086 0.125245 -1.600754
  time 16
    0 -1.951627 4.250135 32.562828 1.453878 -0.002385 -0.216364
    1 0.000005 3.345128 -2.981901 1.480680 0.010221 1.659075
    2 7.497033 -0.437513 -0.324229 -0.056077 0.189476 -0.126568
    3 10.666658 1.159322 -2.140741 -3.411885 1.195932 1.312299
    4 6.028143 0.000001 0.000000 1.586304 0.235434 -0.589083
    5 11.692552 0.000000 0.000002 0.000000 0.000000 -1.529206
    6 11.041663 1.241350 1.714997 4.605989 -0.607020 0.000340
    7 6.028142 0.000001 0.000000 -2.053233 -0.285285 -0.305572
    8 11.692555 0.000000 0.000000 0.000000 0.000000 -1.339202
    9 15.196046 2.314996 -0.652364 3.424394 0.196487 -0.125629
    10 3.867014 0.453135 -0.000003 -1.672804 -0.587241 -1.311431
    11 17.848177 0.000000 0.000000 0.000000 0.000000 0.924527
    12 16.525253 0.000000 0.000000 -0.044834 0.278105 -1.212155
    13 -3.867014 -0.453135 0.000007 -1.277285 0.345667 -1.890153
    14 17.848173 0.000000 0.000000 0.000000 0.000000 0.572851
    15 16.525257 0.000000 0.000000 0.509032 0.125929 -1.605608
  time 17
    0 -1.932095 4.289198 32.539390 1.457946 -0.000659 -0.220994
    1 0.000005 3.345128 -2.981901 1.477318 0.015174 1.658092
    2 7.497033 -0.425794 -0.320322 -0.060676 0.188050 -0.119140
    3 10.666658 1.167135 -2.136835 -3.397433 1.195219 1.327569
    4 6.028143 0.000001 0.000000 1.585551 0.239627 -0.587032
    5 11.692552 0.000000 0.000002 0.000000 0.000000 -1.540897
    6 11.037756 1.241350 1.718903 4.605703 -0.614910 0.000531
    7 6.028142 0.000001 0.000000 -2.046895 -0.268792 -0.296712
    8 11.692555 0.000000 0.000000 0.000000 0.000000 -1.344982
    9 15.199952 2.314996 -0.640645 3.431066 0.191753 -0.130656
    10 3.867014 0.445322 -0.000003 -1.678934 -0.593121 -1.305771
    11 17.848177 0.000000 0.000000 0.000000 0.000000 0.928930
    12 16.525253 0.000000 0.000000 -0.044879 0.277616 -1.213500
    13 -3.867014 -0.445322 0.000007 -1.281186 0.331942 -1.890946
    14 17.848173 0.000000 0.000000 0.000000 0.000000 0.584883
    15 16.525257 0.000000 0.000000 0.508372 0.126351 -1.609091
  time 18
    0 -1.924282 4.300917 32.527671 1.459524 0.000000 -0.222811
    1 0.000005 3.345128 -2.981901 1.476107 0.017066 1.657720
    2 7.497033 -0.421888 -0.320322 -0.062458 0.187487 -0.116262
    3 10.666658 1.171041 -2.132928 -3.391830 1.194914 1.333484
    4 6.028143 0.000001 0.000000 1.585300 0.241286 -0.586380
    5 11.692552 0.000000 0.000002 0.000000 0.000000 -1.545327
    6 11.037756 1.241350 1.722810 4.605608 -0.618075 0.000627
    7 6.028142 0.000001 0.000000 -2.044469 -0.262677 -0.293192
    8 11.692555 0.000000 0.000000 0.000000 0.000000 -1.347385
    9 15.199952 2.314996 -0.636738 3.433735 0.189908 -0.132374
    10 3.867014 0.441416 -0.000003 -1.681312 -0.595410 -1.303540
    11 17.848177 0.000000 0.000000 0.000000 0.000000 0.930784
    12 16.525253 0.000000 0.000000 -0.044894 0.277433 -1.214109
    13 -3.867014 -0.441416 0.000007 -1.282637 0.326697 -1.891034
    14 17.848173 0.000000 0.000000 0.000000 0.000000 0.589466
    15 16.525257 0.000000 0.000000 0.508158 0.126492 -1.610424
end
