// Created by Crowbar 0.74
version 1
nodes
  0 "ValveBiped.Bip01" -1
  1 "ValveBiped.Bip01_Spine" 0
  2 "ValveBiped.Bip01_Spine2" 1
  3 "ValveBiped.Bip01_R_Clavicle" 2
  4 "ValveBiped.Bip01_R_UpperArm" 3
  5 "ValveBiped.Bip01_R_Forearm" 4
  6 "ValveBiped.Bip01_L_Clavicle" 2
  7 "ValveBiped.Bip01_L_UpperArm" 6
  8 "ValveBiped.Bip01_L_Forearm" 7
  9 "ValveBiped.Bip01_Head1" 2
  10 "ValveBiped.Bip01_L_Thigh" 0
  11 "ValveBiped.Bip01_L_Calf" 10
  12 "ValveBiped.Bip01_L_Foot" 11
  13 "ValveBiped.Bip01_R_Thigh" 0
  14 "ValveBiped.Bip01_R_Calf" 13
  15 "ValveBiped.Bip01_R_Foot" 14
end
skeleton
  time 0
    0 -1.975065 5.996282 35.652766 1.579703 -0.017486 -0.471368
    1 0.000005 3.345128 -2.981901 1.675442 -0.032745 1.614048
    2 7.477502 0.511734 0.398450 0.224827 -0.150958 0.411563
    3 10.893227 1.155415 -1.937610 -2.531597 1.333701 2.228868
    4 6.028143 0.000001 0.000000 1.569164 0.067542 -0.968885
    5 11.692552 0.000000 0.000002 0.000000 0.000000 -1.179916
    6 10.893221 1.155409 1.937660 0.954499 -1.220054 3.692405
    7 6.028142 0.000001 0.000000 -1.856774 0.527901 -1.193974
    8 11.692555 0.000000 0.000000 0.000000 0.000000 -1.278620
    9 15.328862 2.088426 0.000000 3.321887 -0.087440 -0.149838
    10 3.784980 0.906274 -0.000003 -2.680991 -0.233947 -1.225917
    11 17.848177 0.000000 0.000000 0.000000 0.000000 0.403586
    12 16.525253 0.000000 0.000000 0.137478 0.234569 -0.970296
    13 -3.784980 -0.906274 0.000007 -1.602179 -0.258849 -1.638988
    14 17.848173 0.000000 0.000000 0.000000 0.000000 0.894199
    15 16.525257 0.000000 0.000000 0.316130 0.222961 -1.588046
  time 1
    0 -1.982878 6.008001 35.637141 1.579703 -0.017486 -0.471368
    1 0.000005 3.345128 -2.981901 1.675442 -0.032745 1.614048
    2 7.477502 0.511734 0.398450 0.224827 -0.150958 0.411563
    3 10.889321 1.151509 -1.937610 -2.524519 1.335169 2.235809
    4 6.028143 0.000001 0.000000 1.566154 0.068832 -0.969165
    5 11.692552 0.000000 0.000002 0.000000 0.000000 -1.177810
    6 10.893221 1.159316 1.937660 0.959265 -1.221550 3.687900
    7 6.028142 0.000001 0.000000 -1.856081 0.522013 -1.195714
    8 11.692555 0.000000 0.000000 0.000000 0.000000 -1.274866
    9 15.328862 2.088426 -0.003906 3.319662 -0.087368 -0.149644
    10 3.784980 0.906274 -0.000003 -2.681448 -0.234935 -1.223944
    11 17.848177 0.000000 0.000000 0.000000 0.000000 0.407139
    12 16.525253 0.000000 0.000000 0.137478 0.234549 -0.971673
    13 -3.784980 -0.906274 0.000007 -1.602179 -0.260073 -1.638724
    14 17.848173 0.000000 0.000000 0.000000 0.000000 0.896491
    15 16.525257 0.000000 0.000000 0.315862 0.223162 -1.589194
  time 2
    0 -1.994597 6.023626 35.613702 1.579703 -0.017486 -0.471368
    1 0.000005 3.345128 -2.981901 1.675442 -0.032745 1.614048
    2 7.477502 0.511734 0.398450 0.224827 -0.150958 0.411563
    3 10.889321 1.143696 -1.945423 -2.513194 1.337452 2.246794
    4 6.028143 0.000001 0.000000 1.561555 0.070629 -0.969537
    5 11.692552 0.000000 0.000002 0.000000 0.000000 -1.174905
    6 10.893221 1.167129 1.929847 0.966892 -1.223848 3.680710
    7 6.028142 0.000001 0.000000 -1.855734 0.514124 -1.198444
    8 11.692555 0.000000 0.000000 0.000000 0.000000 -1.269837
    9 15.328862 2.088426 -0.015625 3.316153 -0.087236 -0.149344
    10 3.784980 0.906274 -0.000003 -2.682180 -0.236416 -1.220856
    11 17.848177 0.000000 0.000000 0.000000 0.000000 0.412546
    12 16.525253 0.000000 0.000000 0.137508 0.234549 -0.973755
    13 -3.784980 -0.906274 0.000007 -1.602179 -0.261865 -1.638196
    14 17.848173 0.000000 0.000000 0.000000 0.000000 0.900010
    15 16.525257 0.000000 0.000000 0.315469 0.223484 -1.590936
  time 3
    0 -2.002410 6.039252 35.586358 1.579703 -0.017486 -0.471368
    1 0.000005 3.345128 -2.981901 1.675442 -0.032745 1.614048
    2 7.477502 0.511734 0.398450 0.224827 -0.150958 0.411563
    3 10.889321 1.135884 -1.949329 -2.500748 1.339880 2.258926
    4 6.028143 0.000001 0.000000 1.556706 0.072334 -0.969910
    5 11.692552 0.000000 0.000002 0.000000 0.000000 -1.172218
    6 10.897127 1.171035 1.925941 0.975185 -1.226341 3.672945
    7 6.028142 0.000001 0.000000 -1.855784 0.506387 -1.201331
    8 11.692555 0.000000 0.000000 0.000000 0.000000 -1.265032
    9 15.328862 2.088426 -0.027345 3.312397 -0.087104 -0.149022
    10 3.784980 0.906274 -0.000003 -2.682912 -0.237987 -1.217683
    11 17.848177 0.000000 0.000000 0.000000 0.000000 0.418263
    12 16.525253 0.000000 0.000000 0.137537 0.234529 -0.975965
    13 -3.784980 -0.906274 0.000007 -1.602179 -0.263832 -1.637227
    14 17.848173 0.000000 0.000000 0.000000 0.000000 0.903694
    15 16.525257 0.000000 0.000000 0.315076 0.223826 -1.592788
  time 4
    0 -2.014129 6.058784 35.562919 1.579703 -0.017486 -0.471368
    1 0.000005 3.345128 -2.981901 1.675442 -0.032745 1.614048
    2 7.477502 0.511734 0.398450 0.224827 -0.150958 0.411563
    3 10.885415 1.128071 -1.957142 -2.487830 1.342309 2.271480
    4 6.028143 0.000001 0.000000 1.551940 0.073900 -0.970190
    5 11.692552 0.000000 0.000002 0.000000 0.000000 -1.169967
    6 10.897127 1.178848 1.918128 0.983765 -1.228833 3.664892
    7 6.028142 0.000001 0.000000 -1.856229 0.499178 -1.204218
    8 11.692555 0.000000 0.000000 0.000000 0.000000 -1.260603
    9 15.328862 2.088426 -0.039064 3.308591 -0.086960 -0.148678
    10 3.784980 0.906274 -0.000003 -2.683644 -0.239513 -1.214509
    11 17.848177 0.000000 0.000000 0.000000 0.000000 0.423902
    12 16.525253 0.000000 0.000000 0.137567 0.234508 -0.978143
    13 -3.784980 -0.906274 0.000007 -1.602179 -0.265756 -1.636787
    14 17.848173 0.000000 0.000000 0.000000 0.000000 0.907459
    15 16.525257 0.000000 0.000000 0.314684 0.224168 -1.594641
  time 5
    0 -2.025848 6.074409 35.535575 1.579703 -0.017486 -0.471368
    1 0.000005 3.345128 -2.981901 1.675442 -0.032745 1.614048
    2 7.477502 0.511734 0.398450 0.224827 -0.150958 0.411563
    3 10.885415 1.120258 -1.961048 -2.474795 1.344679 2.284215
    4 6.028143 0.000001 0.000000 1.547258 0.075236 -0.970376
    5 11.692552 0.000000 0.000002 0.000000 0.000000 -1.168079
    6 10.897127 1.186660 1.914222 0.992345 -1.231283 3.656743
    7 6.028142 0.000001 0.000000 -1.856923 0.492573 -1.207066
    8 11.692555 0.000000 0.000000 0.000000 0.000000 -1.256624
    9 15.328862 2.088426 -0.054689 3.304786 -0.086816 -0.148356
    10 3.784980 0.906274 -0.000003 -2.684468 -0.241039 -1.211507
    11 17.848177 0.000000 0.000000 0.000000 0.000000 0.429309
    12 16.525253 0.000000 0.000000 0.137627 0.234488 -0.980225
    13 -3.784980 -0.906274 0.000007 -1.602360 -0.267635 -1.636258
    14 17.848173 0.000000 0.000000 0.000000 0.000000 0.911060
    15 16.525257 0.000000 0.000000 0.314309 0.224469 -1.596419
  time 6
    0 -2.033661 6.090035 35.512137 1.579703 -0.017486 -0.471368
    1 0.000005 3.345128 -2.981901 1.675442 -0.032745 1.614048
    2 7.477502 0.511734 0.398450 0.224827 -0.150958 0.411563
    3 10.885415 1.116352 -1.964955 -2.461759 1.346962 2.296890
    4 6.028143 0.000001 0.000000 1.542827 0.076434 -0.970563
    5 11.692552 0.000000 0.000002 0.000000 0.000000 -1.166482
    6 10.901033 1.194473 1.906409 1.000924 -1.233646 3.648691
    7 6.028142 0.000001 0.000000 -1.857913 0.486647 -1.209795
    8 11.692555 0.000000 0.000000 0.000000 0.000000 -1.253246
    9 15.328862 2.088426 -0.066408 3.301079 -0.086685 -0.148033
    10 3.784980 0.906274 -0.000003 -2.685199 -0.242520 -1.208505
    11 17.848177 0.000000 0.000000 0.000000 0.000000 0.434561
    12 16.525253 0.000000 0.000000 0.137686 0.234468 -0.982243
    13 -3.784980 -0.906274 0.000007 -1.602360 -0.269471 -1.635818
    14 17.848173 0.000000 0.000000 0.000000 0.000000 0.914498
    15 16.525257 0.000000 0.000000 0.313952 0.224771 -1.598124
  time 7
    0 -2.041474 6.105660 35.488698 1.579703 -0.017486 -0.471368
    1 0.000005 3.345128 -2.981901 1.675442 -0.032745 1.614048
    2 7.477502 0.511734 0.398450 0.224827 -0.150958 0.411563
    3 10.881508 1.108539 -1.972767 -2.448841 1.349143 2.309504
    4 6.028143 0.000001 0.000000 1.538479 0.077402 -0.970656
    5 11.692552 0.000000 0.000002 0.000000 0.000000 -1.165247
    6 10.901033 1.202286 1.902503 1.009313 -1.235922 3.640734
    7 6.028142 0.000001 0.000000 -1.859151 0.481476 -1.212406
    8 11.692555 0.000000 0.000000 0.000000 0.000000 -1.250318
    9 15.328862 2.088426 -0.078127 3.297471 -0.086541 -0.147711
    10 3.784980 0.906274 -0.000003 -2.685840 -0.243912 -1.205760
    11 17.848177 0.000000 0.000000 0.000000 0.000000 0.439505
    12 16.525253 0.000000 0.000000 0.137745 0.234427 -0.984133
    13 -3.784980 -0.906274 0.000007 -1.602360 -0.271263 -1.635025
    14 17.848173 0.000000 0.000000 0.000000 0.000000 0.917854
    15 16.525257 0.000000 0.000000 0.313613 0.225052 -1.599754
  time 8
    0 -2.049286 6.121286 35.465260 1.579703 -0.017486 -0.471368
    1 0.000005 3.345128 -2.981901 1.675442 -0.032745 1.614048
    2 7.477502 0.511734 0.398450 0.224827 -0.150958 0.411563
    3 10.881508 1.100726 -1.976674 -2.436219 1.351193 2.321817
    4 6.028143 0.000001 0.000000 1.534466 0.078277 -0.970749
    5 11.692552 0.000000 0.000002 0.000000 0.000000 -1.164303
    6 10.901033 1.206192 1.898596 1.017512 -1.238111 3.633065
    7 6.028142 0.000001 0.000000 -1.860636 0.477060 -1.214898
    8 11.692555 0.000000 0.000000 0.000000 0.000000 -1.247991
    9 15.328862 2.088426 -0.085940 3.294011 -0.086409 -0.147410
    10 3.784980 0.906274 -0.000003 -2.686572 -0.245213 -1.203101
    11 17.848177 0.000000 0.000000 0.000000 0.000000 0.444140
    12 16.525253 0.000000 0.000000 0.137805 0.234407 -0.985894
    13 -3.784980 -0.906274 0.000007 -1.602360 -0.272924 -1.634849
    14 17.848173 0.000000 0.000000 0.000000 0.000000 0.921046
    15 16.525257 0.000000 0.000000 0.313291 0.225314 -1.601310
  time 9
    0 -2.057099 6.133005 35.445728 1.579703 -0.017486 -0.471368
    1 0.000005 3.345128 -2.981901 1.675442 -0.032745 1.614048
    2 7.477502 0.511734 0.398450 0.224827 -0.150958 0.411563
    3 10.881508 1.096820 -1.980580 -2.423832 1.353141 2.333888
    4 6.028143 0.000001 0.000000 1.530620 0.079014 -0.970842
    5 11.692552 0.000000 0.000002 0.000000 0.000000 -1.163577
    6 10.901033 1.214005 1.890784 1.025424 -1.240170 3.625491
    7 6.028142 0.000001 0.000000 -1.862369 0.473399 -1.217271
    8 11.692555 0.000000 0.000000 0.000000 0.000000 -1.246189
    9 15.328862 2.088426 -0.097659 3.290699 -0.086289 -0.147131
    10 3.784980 0.906274 -0.000003 -2.687212 -0.246425 -1.200700
    11 17.848177 0.000000 0.000000 0.000000 0.000000 0.448543
    12 16.525253 0.000000 0.000000 0.137879 0.234366 -0.987560
    13 -3.784980 -0.906274 0.000007 -1.602360 -0.274498 -1.634321
    14 17.848173 0.000000 0.000000 0.000000 0.000000 0.923993
    15 16.525257 0.000000 0.000000 0.313006 0.225555 -1.602755
  time 10
    0 -2.061005 6.144724 35.426197 1.579703 -0.017486 -0.471368
    1 0.000005 3.345128 -2.981901 1.675442 -0.032745 1.614048
    2 7.477502 0.511734 0.398450 0.224827 -0.150958 0.411563
    3 10.877602 1.089007 -1.984486 -2.411858 1.354973 2.345597
    4 6.028143 0.000001 0.000000 1.527025 0.079613 -0.970842
    5 11.692552 0.000000 0.000002 0.000000 0.000000 -1.163069
    6 10.904940 1.217911 1.886877 1.033146 -1.242121 3.618301
    7 6.028142 0.000001 0.000000 -1.864300 0.470568 -1.219486
    8 11.692555 0.000000 0.000000 0.000000 0.000000 -1.244913
    9 15.328862 2.084520 -0.109378 3.287536 -0.086157 -0.146852
    10 3.784980 0.906274 -0.000003 -2.687761 -0.247592 -1.198384
    11 17.848177 0.000000 0.000000 0.000000 0.000000 0.452559
    12 16.525253 0.000000 0.000000 0.137953 0.234325 -0.989130
    13 -3.784980 -0.906274 0.000007 -1.602632 -0.276028 -1.634057
    14 17.848173 0.000000 0.000000 0.000000 0.000000 0.926776
    15 16.525257 0.000000 0.000000 0.312738 0.225776 -1.604089
  time 11
    0 -2.068818 6.160349 35.406665 1.579703 -0.017486 -0.471368
    1 0.000005 3.345128 -2.981901 1.675442 -0.032745 1.614048
    2 7.477502 0.511734 0.398450 0.224827 -0.150958 0.411563
    3 10.877602 1.081194 -1.988393 -2.400297 1.356674 2.356884
    4 6.028143 0.000001 0.000000 1.523680 0.080074 -0.970749
    5 11.692552 0.000000 0.000002 0.000000 0.000000 -1.162778
    6 10.904940 1.225724 1.882971 1.040486 -1.243942 3.611303
    7 6.028142 0.000001 0.000000 -1.866429 0.468492 -1.221582
    8 11.692555 0.000000 0.000000 0.000000 0.000000 -1.244237
    9 15.328862 2.084520 -0.117191 3.284521 -0.086049 -0.146594
    10 3.784980 0.906274 -0.000003 -2.688402 -0.248670 -1.196240
    11 17.848177 0.000000 0.000000 0.000000 0.000000 0.456344
    12 16.525253 0.000000 0.000000 0.138027 0.234285 -0.990571
    13 -3.784980 -0.906274 0.000007 -1.602632 -0.277426 -1.633616
    14 17.848173 0.000000 0.000000 0.000000 0.000000 0.929395
    15 16.525257 0.000000 0.000000 0.312506 0.225977 -1.605349
  time 12
    0 -2.072724 6.168162 35.391039 1.579703 -0.017486 -0.471368
    1 0.000005 3.345128 -2.981901 1.675442 -0.032745 1.614048
    2 7.477502 0.511734 0.398450 0.224827 -0.150958 0.411563
    3 10.877602 1.077288 -1.992299 -2.389267 1.358259 2.367688
    4 6.028143 0.000001 0.000000 1.520503 0.080443 -0.970656
    5 11.692552 0.000000 0.000002 0.000000 0.000000 -1.162633
    6 10.904940 1.229630 1.879064 1.047445 -1.245676 3.604688
    7 6.028142 0.000001 0.000000 -1.868756 0.467285 -1.223560
    8 11.692555 0.000000 0.000000 0.000000 0.000000 -1.244087
    9 15.328862 2.084520 -0.128910 3.281704 -0.085930 -0.146358
    10 3.784980 0.906274 -0.000003 -2.688859 -0.249702 -1.194353
    11 17.848177 0.000000 0.000000 0.000000 0.000000 0.459820
    12 16.525253 0.000000 0.000000 0.138116 0.234244 -0.991884
    13 -3.784980 -0.906274 0.000007 -1.602632 -0.278694 -1.633352
    14 17.848173 0.000000 0.000000 0.000000 0.000000 0.931851
    15 16.525257 0.000000 0.000000 0.312292 0.226158 -1.606497
  time 13
    0 -2.076631 6.179881 35.375414 1.579703 -0.017486 -0.471368
    1 0.000005 3.345128 -2.981901 1.675442 -0.032745 1.614048
    2 7.477502 0.511734 0.398450 0.224827 -0.150958 0.411563
    3 10.877602 1.073382 -1.996206 -2.378709 1.359713 2.378009
    4 6.028143 0.000001 0.000000 1.517660 0.080719 -0.970563
    5 11.692552 0.000000 0.000002 0.000000 0.000000 -1.162633
    6 10.904940 1.233537 1.875158 1.054118 -1.247258 3.598361
    7 6.028142 0.000001 0.000000 -1.871281 0.466869 -1.225379
    8 11.692555 0.000000 0.000000 0.000000 0.000000 -1.244463
    9 15.328862 2.084520 -0.136723 3.279035 -0.085834 -0.146122
    10 3.784980 0.906274 -0.000003 -2.689408 -0.250600 -1.192551
    11 17.848177 0.000000 0.000000 0.000000 0.000000 0.462988
    12 16.525253 0.000000 0.000000 0.138190 0.234203 -0.993101
    13 -3.784980 -0.906274 0.000007 -1.602632 -0.279874 -1.632824
    14 17.848173 0.000000 0.000000 0.000000 0.000000 0.933979
    15 16.525257 0.000000 0.000000 0.312095 0.226319 -1.607535
  time 14
    0 -2.080537 6.187694 35.363695 1.579703 -0.017486 -0.471368
    1 0.000005 3.345128 -2.981901 1.675442 -0.032745 1.614048
    2 7.477502 0.511734 0.398450 0.224827 -0.150958 0.411563
    3 10.873695 1.065569 -2.000112 -2.368799 1.361051 2.387726
    4 6.028143 0.000001 0.000000 1.514985 0.080903 -0.970469
    5 11.692552 0.000000 0.000002 0.000000 0.000000 -1.162851
    6 10.908846 1.237443 1.871252 1.060410 -1.248732 3.592418
    7 6.028142 0.000001 0.000000 -1.874103 0.467662 -1.227159
    8 11.692555 0.000000 0.000000 0.000000 0.000000 -1.245964
    9 15.328862 2.084520 -0.144536 3.276564 -0.085726 -0.145907
    10 3.784980 0.906274 -0.000003 -2.689774 -0.251408 -1.190922
    11 17.848177 0.000000 0.000000 0.000000 0.000000 0.465846
    12 16.525253 0.000000 0.000000 0.138265 0.234183 -0.994190
    13 -3.784980 -0.906274 0.000007 -1.602632 -0.280967 -1.632647
    14 17.848173 0.000000 0.000000 0.000000 0.000000 0.936025
    15 16.525257 0.000000 0.000000 0.311935 0.226460 -1.608498
  time 15
    0 -2.084444 6.199413 35.348069 1.579703 -0.017486 -0.471368
    1 0.000005 3.345128 -2.981901 1.675442 -0.032745 1.614048
    2 7.477502 0.511734 0.398450 0.224827 -0.150958 0.411563
    3 10.873695 1.061663 -2.004018 -2.359479 1.362272 2.396840
    4 6.028143 0.000001 0.000000 1.512644 0.080995 -0.970283
    5 11.692552 0.000000 0.000002 0.000000 0.000000 -1.163141
    6 10.908846 1.245256 1.867345 1.066225 -1.250098 3.586857
    7 6.028142 0.000001 0.000000 -1.877618 0.469662 -1.228464
    8 11.692555 0.000000 0.000000 0.000000 0.000000 -1.248291
    9 15.328862 2.084520 -0.152348 3.274241 -0.085642 -0.145714
    10 3.784980 0.906274 -0.000003 -2.690231 -0.252171 -1.189549
    11 17.848177 0.000000 0.000000 0.000000 0.000000 0.468395
    12 16.525253 0.000000 0.000000 0.138339 0.234142 -0.995151
    13 -3.784980 -0.906274 0.000007 -1.602632 -0.281929 -1.632383
    14 17.848173 0.000000 0.000000 0.000000 0.000000 0.937744
    15 16.525257 0.000000 0.000000 0.311792 0.226580 -1.609313
  time 16
    0 -2.084444 6.203319 35.340256 1.579703 -0.017486 -0.471368
    1 0.000005 3.345128 -2.981901 1.675442 -0.032745 1.614048
    2 7.477502 0.511734 0.398450 0.224827 -0.150958 0.411563
    3 10.873695 1.057756 -2.007925 -2.350868 1.363378 2.405229
    4 6.028143 0.000001 0.000000 1.510470 0.080995 -0.970097
    5 11.692552 0.000000 0.000002 0.000000 0.000000 -1.163650
    6 10.908846 1.249162 1.863439 1.071563 -1.251334 3.581777
    7 6.028142 0.000001 0.000000 -1.881876 0.472644 -1.229137
    8 11.692555 0.000000 0.000000 0.000000 0.000000 -1.250694
    9 15.328862 2.084520 -0.156255 3.266580 -0.084120 -0.145348
    10 3.784980 0.906274 -0.000003 -2.690597 -0.252799 -1.188349
    11 17.848177 0.000000 0.000000 0.000000 0.000000 0.470635
    12 16.525253 0.000000 0.000000 0.138428 0.234101 -0.996016
    13 -3.784980 -0.906274 0.000007 -1.602632 -0.282759 -1.632383
    14 17.848173 0.000000 0.000000 0.000000 0.000000 0.939299
    15 16.525257 0.000000 0.000000 0.311667 0.226681 -1.610054
  time 17
    0 -2.088350 6.211132 35.328537 1.579703 -0.017486 -0.471368
    1 0.000005 3.345128 -2.981901 1.675442 -0.032745 1.614048
    2 7.477502 0.511734 0.398450 0.224827 -0.150958 0.411563
    3 10.873695 1.053850 -2.011831 -2.342964 1.364366 2.412955
    4 6.028143 0.000001 0.000000 1.508881 0.079798 -0.969631
    5 11.692552 0.000000 0.000002 0.000000 0.000000 -1.166845
    6 10.908846 1.249162 1.859533 1.076520 -1.252439 3.577079
    7 6.028142 0.000001 0.000000 -1.886728 0.476456 -1.229255
    8 11.692555 0.000000 0.000000 0.000000 0.000000 -1.252946
    9 15.328862 2.084520 -0.164068 3.251357 -0.080584 -0.144790
    10 3.784980 0.906274 -0.000003 -2.690872 -0.253383 -1.187233
    11 17.848177 0.000000 0.000000 0.000000 0.000000 0.472566
    12 16.525253 0.000000 0.000000 0.138487 0.234061 -0.996753
    13 -3.784980 -0.906274 0.000007 -1.602632 -0.283502 -1.632119
    14 17.848173 0.000000 0.000000 0.000000 0.000000 0.940691
    15 16.525257 0.000000 0.000000 0.311578 0.226741 -1.610647
  time 18
    0 -2.088350 6.215038 35.320725 1.579703 -0.017486 -0.471368
    1 0.000005 3.345128 -2.981901 1.675442 -0.032745 1.614048
    2 7.477502 0.511734 0.398450 0.224827 -0.150958 0.411563
    3 10.873695 1.049943 -2.011831 -2.335827 1.365239 2.419956
    4 6.028143 0.000001 0.000000 1.507962 0.077171 -0.968885
    5 11.692552 0.000000 0.000002 0.000000 0.000000 -1.173162
    6 10.908846 1.253069 1.855626 1.080906 -1.253415 3.572957
    7 6.028142 0.000001 0.000000 -1.892026 0.480872 -1.228860
    8 11.692555 0.000000 0.000000 0.000000 0.000000 -1.255048
    9 15.328862 2.084520 -0.167974 3.232328 -0.076006 -0.144210
    10 3.784980 0.906274 -0.000003 -2.691146 -0.253876 -1.186376
    11 17.848177 0.000000 0.000000 0.000000 0.000000 0.474111
    12 16.525253 0.000000 0.000000 0.138562 0.234020 -0.997361
    13 -3.784980 -0.906274 0.000007 -1.602632 -0.284114 -1.632119
    14 17.848173 0.000000 0.000000 0.000000 0.000000 0.941755
    15 16.525257 0.000000 0.000000 0.311506 0.226801 -1.611165
  time 19
    0 -2.088350 6.218945 35.316818 1.579703 -0.017486 -0.471368
    1 0.000005 3.345128 -2.981901 1.675442 -0.032745 1.614048
    2 7.477502 0.511734 0.398450 0.224827 -0.150958 0.411563
    3 10.873695 1.049943 -2.015737 -2.329574 1.365995 2.426113
    4 6.028143 0.000001 0.000000 1.507878 0.073485 -0.967673
    5 11.692552 0.000000 0.000002 0.000000 0.000000 -1.181586
    6 10.912753 1.256975 1.855626 1.084814 -1.254282 3.569218
    7 6.028142 0.000001 0.000000 -1.897571 0.485590 -1.228029
    8 11.692555 0.000000 0.000000 0.000000 0.000000 -1.256924
    9 15.328862 2.084520 -0.175787 3.212756 -0.071236 -0.143716
    10 3.784980 0.906274 -0.000003 -2.691329 -0.254235 -1.185775
    11 17.848177 0.000000 0.000000 0.000000 0.000000 0.475347
    12 16.525253 0.000000 0.000000 0.138621 0.234000 -0.997874
    13 -3.784980 -0.906274 0.000007 -1.602632 -0.284639 -1.632119
    14 17.848173 0.000000 0.000000 0.000000 0.000000 0.942655
    15 16.525257 0.000000 0.000000 0.311453 0.226842 -1.611536
  time 20
    0 -2.084444 6.222851 35.309005 1.579703 -0.017486 -0.471368
    1 0.000005 3.345128 -2.981901 1.675442 -0.032745 1.614048
    2 7.477502 0.511734 0.398450 0.224827 -0.150958 0.411563
    3 10.869789 1.046037 -2.015737 -2.324148 1.366635 2.431424
    4 6.028143 0.000001 0.000000 1.508463 0.069201 -0.966089
    5 11.692552 0.000000 0.000002 0.000000 0.000000 -1.191172
    6 10.912753 1.256975 1.851720 1.088151 -1.255019 3.566055
    7 6.028142 0.000001 0.000000 -1.903265 0.490459 -1.226843
    8 11.692555 0.000000 0.000000 0.000000 0.000000 -1.258426
    9 15.328862 2.084520 -0.179693 3.196841 -0.067365 -0.143372
    10 3.784980 0.906274 -0.000003 -2.691512 -0.254550 -1.185261
    11 17.848177 0.000000 0.000000 0.000000 0.000000 0.476351
    12 16.525253 0.000000 0.000000 0.138740 0.233939 -0.998290
    13 -3.784980 -0.906274 0.000007 -1.602632 -0.285032 -1.632119
    14 17.848173 0.000000 0.000000 0.000000 0.000000 0.943310
    15 16.525257 0.000000 0.000000 0.311488 0.226822 -1.611795
  time 21
    0 -2.076631 6.226758 35.309005 1.579703 -0.017486 -0.471368
    1 0.000005 3.345128 -2.981901 1.675442 -0.032745 1.614048
    2 7.477502 0.511734 0.398450 0.224827 -0.150958 0.411563
    3 10.869789 1.042131 -2.015737 -2.319606 1.367158 2.435830
    4 6.028143 0.000001 0.000000 1.509634 0.064824 -0.964411
    5 11.692552 0.000000 0.000002 0.000000 0.000000 -1.200830
    6 10.912753 1.260881 1.851720 1.091010 -1.255604 3.563370
    7 6.028142 0.000001 0.000000 -1.908810 0.495215 -1.225419
    8 11.692555 0.000000 0.000000 0.000000 0.000000 -1.259627
    9 15.328862 2.084520 -0.183599 3.191998 -0.066335 -0.143265
    10 3.784980 0.906274 -0.000003 -2.691695 -0.254864 -1.185089
    11 17.848177 0.000000 0.000000 0.000000 0.000000 0.477123
    12 16.525253 0.000000 0.000000 0.138947 0.233837 -0.998674
    13 -3.784980 -0.906274 0.000007 -1.602632 -0.285338 -1.632119
    14 17.848173 0.000000 0.000000 0.000000 0.000000 0.943719
    15 16.525257 0.000000 0.000000 0.311649 0.226681 -1.611832
  time 22
    0 -2.068818 6.226758 35.309005 1.579703 -0.017486 -0.471368
    1 0.000005 3.345128 -2.981901 1.675442 -0.032745 1.614048
    2 7.477502 0.511734 0.398450 0.224827 -0.150958 0.411563
    3 10.869789 1.042131 -2.019644 -2.316008 1.367565 2.439331
    4 6.028143 0.000001 0.000000 1.511223 0.060677 -0.962734
    5 11.692552 0.000000 0.000002 0.000000 0.000000 -1.209907
    6 10.912753 1.260881 1.851720 1.093203 -1.256081 3.561261
    7 6.028142 0.000001 0.000000 -1.914058 0.499669 -1.223758
    8 11.692555 0.000000 0.000000 0.000000 0.000000 -1.260528
    9 15.328862 2.084520 -0.183599 3.191009 -0.066251 -0.143200
    10 3.784980 0.906274 -0.000003 -2.691878 -0.255133 -1.185175
    11 17.848177 0.000000 0.000000 0.000000 0.000000 0.477587
    12 16.525253 0.000000 0.000000 0.139229 0.233695 -0.999027
    13 -3.784980 -0.906274 0.000007 -1.602632 -0.285600 -1.632647
    14 17.848173 0.000000 0.000000 0.000000 0.000000 0.943883
    15 16.525257 0.000000 0.000000 0.311899 0.226480 -1.611684
  time 23
    0 -2.053193 6.222851 35.309005 1.579703 -0.017486 -0.471368
    1 0.000005 3.345128 -2.981901 1.675442 -0.032745 1.614048
    2 7.477502 0.511734 0.398450 0.224827 -0.150958 0.411563
    3 10.869789 1.042131 -2.019644 -2.313412 1.367870 2.441926
    4 6.028143 0.000001 0.000000 1.513062 0.056945 -0.960963
    5 11.692552 0.000000 0.000002 0.000000 0.000000 -1.217822
    6 10.912753 1.264788 1.847813 1.094824 -1.256428 3.559728
    7 6.028142 0.000001 0.000000 -1.918860 0.503707 -1.221978
    8 11.692555 0.000000 0.000000 0.000000 0.000000 -1.261279
    9 15.328862 2.084520 -0.187506 3.190119 -0.066155 -0.143157
    10 3.784980 0.906274 -0.000003 -2.691878 -0.255223 -1.185604
    11 17.848177 0.000000 0.000000 0.000000 0.000000 0.477587
    12 16.525253 0.000000 0.000000 0.139511 0.233573 -0.999283
    13 -3.784980 -0.906274 0.000007 -1.602632 -0.285557 -1.632824
    14 17.848173 0.000000 0.000000 0.000000 0.000000 0.943473
    15 16.525257 0.000000 0.000000 0.312292 0.226158 -1.611314
  time 24
    0 -2.037567 6.211132 35.316818 1.579703 -0.017486 -0.471368
    1 0.000005 3.345128 -2.981901 1.675442 -0.032745 1.614048
    2 7.477502 0.511734 0.398450 0.224827 -0.150958 0.411563
    3 10.869789 1.042131 -2.019644 -2.311820 1.368045 2.443435
    4 6.028143 0.000001 0.000000 1.515319 0.054549 -0.959285
    5 11.692552 0.000000 0.000002 0.000000 0.000000 -1.223995
    6 10.912753 1.264788 1.847813 1.095777 -1.256644 3.558865
    7 6.028142 0.000001 0.000000 -1.923069 0.507180 -1.220158
    8 11.692555 0.000000 0.000000 0.000000 0.000000 -1.261879
    9 15.328862 2.084520 -0.187506 3.189378 -0.066035 -0.143136
    10 3.784980 0.906274 -0.000003 -2.691787 -0.254998 -1.186547
    11 17.848177 0.000000 0.000000 0.000000 0.000000 0.476892
    12 16.525253 0.000000 0.000000 0.139734 0.233450 -0.999475
    13 -3.784980 -0.906274 0.000007 -1.602632 -0.284988 -1.633792
    14 17.848173 0.000000 0.000000 0.000000 0.000000 0.942409
    15 16.525257 0.000000 0.000000 0.312809 0.225716 -1.610647
  time 25
    0 -2.018035 6.191600 35.328537 1.579703 -0.017486 -0.471368
    1 0.000005 3.345128 -2.981901 1.675442 -0.032745 1.614048
    2 7.477502 0.511734 0.398450 0.224827 -0.150958 0.411563
    3 10.869789 1.038224 -2.019644 -2.311289 1.368103 2.443978
    4 6.028143 0.000001 0.000000 1.517995 0.053996 -0.957701
    5 11.692552 0.000000 0.000002 0.000000 0.000000 -1.228206
    6 10.912753 1.264788 1.847813 1.096063 -1.256709 3.558481
    7 6.028142 0.000001 0.000000 -1.926485 0.510010 -1.218378
    8 11.692555 0.000000 0.000000 0.000000 0.000000 -1.262405
    9 15.328862 2.084520 -0.187506 3.188933 -0.065951 -0.143114
    10 3.784980 0.906274 -0.000003 -2.691512 -0.254415 -1.188005
    11 17.848177 0.000000 0.000000 0.000000 0.000000 0.475501
    12 16.525253 0.000000 0.000000 0.139882 0.233389 -0.999571
    13 -3.784980 -0.906274 0.000007 -1.602632 -0.283896 -1.634585
    14 17.848173 0.000000 0.000000 0.000000 0.000000 0.940445
    15 16.525257 0.000000 0.000000 0.313470 0.225173 -1.609721
  time 26
    0 -1.994597 6.164256 35.344163 1.579703 -0.017486 -0.471368
    1 0.000005 3.345128 -2.981901 1.675442 -0.032745 1.614048
    2 7.477502 0.511734 0.398450 0.224827 -0.150958 0.411563
    3 10.869789 1.042131 -2.019644 -2.314828 1.367711 2.440538
    4 6.028143 0.000001 0.000000 1.521674 0.055148 -0.956209
    5 11.692552 0.000000 0.000002 0.000000 0.000000 -1.230312
    6 10.912753 1.264788 1.847813 1.093966 -1.256254 3.560590
    7 6.028142 0.000001 0.000000 -1.928218 0.512086 -1.216203
    8 11.692555 0.000000 0.000000 0.000000 0.000000 -1.262780
    9 15.328862 2.084520 -0.187506 3.189675 -0.065963 -0.143157
    10 3.784980 0.906274 -0.000003 -2.691055 -0.253562 -1.189978
    11 17.848177 0.000000 0.000000 0.000000 0.000000 0.473338
    12 16.525253 0.000000 0.000000 0.139942 0.233349 -0.999539
    13 -3.784980 -0.906274 0.000007 -1.602360 -0.282278 -1.635818
    14 17.848173 0.000000 0.000000 0.000000 0.000000 0.937826
    15 16.525257 0.000000 0.000000 0.314202 0.224550 -1.608535
  time 27
    0 -1.975065 6.133005 35.367601 1.579703 -0.017486 -0.471368
    1 0.000005 3.345128 -2.981901 1.675442 -0.032745 1.614048
    2 7.477502 0.511734 0.398450 0.224827 -0.150958 0.411563
    3 10.869789 1.046037 -2.015737 -2.325268 1.366504 2.430338
    4 6.028143 0.000001 0.000000 1.526941 0.057636 -0.954998
    5 11.692552 0.000000 0.000002 0.000000 0.000000 -1.230458
    6 10.912753 1.256975 1.851720 1.087483 -1.254867 3.566726
    7 6.028142 0.000001 0.000000 -1.927475 0.513294 -1.213157
    8 11.692555 0.000000 0.000000 0.000000 0.000000 -1.263155
    9 15.328862 2.084520 -0.179693 3.192442 -0.066155 -0.143329
    10 3.784980 0.906274 -0.000003 -2.690414 -0.252395 -1.192466
    11 17.848177 0.000000 0.000000 0.000000 0.000000 0.470480
    12 16.525253 0.000000 0.000000 0.139897 0.233369 -0.999315
    13 -3.784980 -0.906274 0.000007 -1.602360 -0.280224 -1.636787
    14 17.848173 0.000000 0.000000 0.000000 0.000000 0.934470
    15 16.525257 0.000000 0.000000 0.315041 0.223866 -1.607127
  time 28
    0 -1.955533 6.093941 35.391039 1.579703 -0.017486 -0.471368
    1 0.000005 3.345128 -2.981901 1.675442 -0.032745 1.614048
    2 7.477502 0.511734 0.398450 0.224827 -0.150958 0.411563
    3 10.873695 1.053850 -2.011831 -2.342315 1.364439 2.413619
    4 6.028143 0.000001 0.000000 1.533546 0.061230 -0.954066
    5 11.692552 0.000000 0.000002 0.000000 0.000000 -1.228715
    6 10.908846 1.249162 1.859533 1.076902 -1.252526 3.576696
    7 6.028142 0.000001 0.000000 -1.924158 0.513634 -1.209400
    8 11.692555 0.000000 0.000000 0.000000 0.000000 -1.263531
    9 15.328862 2.084520 -0.164068 3.197385 -0.066562 -0.143608
    10 3.784980 0.906274 -0.000003 -2.689591 -0.250914 -1.195296
    11 17.848177 0.000000 0.000000 0.000000 0.000000 0.467004
    12 16.525253 0.000000 0.000000 0.139764 0.233450 -0.998931
    13 -3.784980 -0.906274 0.000007 -1.602179 -0.277689 -1.638196
    14 17.848173 0.000000 0.000000 0.000000 0.000000 0.930459
    15 16.525257 0.000000 0.000000 0.315898 0.223142 -1.605497
  time 29
    0 -1.936002 6.054877 35.418384 1.579703 -0.017486 -0.471368
    1 0.000005 3.345128 -2.981901 1.675442 -0.032745 1.614048
    2 7.477502 0.511734 0.398450 0.224827 -0.150958 0.411563
    3 10.873695 1.065569 -2.004018 -2.365378 1.361502 2.391046
    4 6.028143 0.000001 0.000000 1.541489 0.065469 -0.953507
    5 11.692552 0.000000 0.000002 0.000000 0.000000 -1.225520
    6 10.908846 1.241350 1.867345 1.062507 -1.249231 3.590405
    7 6.028142 0.000001 0.000000 -1.918266 0.513030 -1.204930
    8 11.692555 0.000000 0.000000 0.000000 0.000000 -1.263756
    9 15.328862 2.084520 -0.148442 3.204502 -0.067198 -0.144017
    10 3.784980 0.906274 -0.000003 -2.688676 -0.249208 -1.198384
    11 17.848177 0.000000 0.000000 0.000000 0.000000 0.462833
    12 16.525253 0.000000 0.000000 0.139541 0.233552 -0.998322
    13 -3.784980 -0.906274 0.000007 -1.602179 -0.274848 -1.639164
    14 17.848173 0.000000 0.000000 0.000000 0.000000 0.925957
    15 16.525257 0.000000 0.000000 0.316772 0.222418 -1.603718
  time 30
    0 -1.916470 6.011907 35.449635 1.579703 -0.017486 -0.471368
    1 0.000005 3.345128 -2.981901 1.675442 -0.032745 1.614048
    2 7.477502 0.511734 0.398450 0.224827 -0.150958 0.411563
    3 10.877602 1.081194 -1.992299 -2.393632 1.357634 2.363403
    4 6.028143 0.000001 0.000000 1.550435 0.069569 -0.953134
    5 11.692552 0.000000 0.000002 0.000000 0.000000 -1.221380
    6 10.904940 1.229630 1.879064 1.044680 -1.244982 3.607277
    7 6.028142 0.000001 0.000000 -1.909998 0.511671 -1.199947
    8 11.692555 0.000000 0.000000 0.000000 0.000000 -1.263981
    9 15.328862 2.084520 -0.125004 3.222196 -0.070242 -0.144704
    10 3.784980 0.906274 -0.000003 -2.687761 -0.247323 -1.201815
    11 17.848177 0.000000 0.000000 0.000000 0.000000 0.458044
    12 16.525253 0.000000 0.000000 0.139259 0.233695 -0.997457
    13 -3.784980 -0.906274 0.000007 -1.601907 -0.271788 -1.640662
    14 17.848173 0.000000 0.000000 0.000000 0.000000 0.921128
    15 16.525257 0.000000 0.000000 0.317647 0.221694 -1.601792
  time 31
    0 -1.900844 5.968937 35.480886 1.579703 -0.017486 -0.471368
    1 0.000005 3.345128 -2.981901 1.675442 -0.032745 1.614048
    2 7.477502 0.511734 0.398450 0.224827 -0.150958 0.411563
    3 10.881508 1.096820 -1.980580 -2.426073 1.352807 2.331716
    4 6.028143 0.000001 0.000000 1.560134 0.072748 -0.953134
    5 11.692552 0.000000 0.000002 0.000000 0.000000 -1.217096
    6 10.901033 1.214005 1.894690 1.023994 -1.239802 3.626833
    7 6.028142 0.000001 0.000000 -1.899452 0.509708 -1.194607
    8 11.692555 0.000000 0.000000 0.000000 0.000000 -1.264507
    9 15.328862 2.088426 -0.097659 3.261637 -0.078643 -0.146143
    10 3.784980 0.906274 -0.000003 -2.686663 -0.245303 -1.205417
    11 17.848177 0.000000 0.000000 0.000000 0.000000 0.452868
    12 16.525253 0.000000 0.000000 0.138933 0.233837 -0.996336
    13 -3.784980 -0.906274 0.000007 -1.601907 -0.268553 -1.641630
    14 17.848173 0.000000 0.000000 0.000000 0.000000 0.916053
    15 16.525257 0.000000 0.000000 0.318450 0.221011 -1.599791
  time 32
    0 -1.889125 5.925967 35.512137 1.579703 -0.017486 -0.471368
    1 0.000005 3.345128 -2.981901 1.675442 -0.032745 1.614048
    2 7.477502 0.511734 0.398450 0.224827 -0.150958 0.411563
    3 10.885415 1.116352 -1.964955 -2.461405 1.347020 2.297252
    4 6.028143 0.000001 0.000000 1.570502 0.074499 -0.953600
    5 11.692552 0.000000 0.000002 0.000000 0.000000 -1.213102
    6 10.901033 1.194473 1.906409 1.001115 -1.233711 3.648499
    7 6.028142 0.000001 0.000000 -1.886877 0.507255 -1.189030
    8 11.692555 0.000000 0.000000 0.000000 0.000000 -1.265107
    9 15.328862 2.088426 -0.066408 3.319267 -0.091371 -0.148828
    10 3.784980 0.906274 -0.000003 -2.685565 -0.243194 -1.209020
    11 17.848177 0.000000 0.000000 0.000000 0.000000 0.447384
    12 16.525253 0.000000 0.000000 0.138576 0.234020 -0.994991
    13 -3.784980 -0.906274 0.000007 -1.601635 -0.265362 -1.642863
    14 17.848173 0.000000 0.000000 0.000000 0.000000 0.910979
    15 16.525257 0.000000 0.000000 0.319182 0.220408 -1.597753
  time 33
    0 -1.877406 5.890810 35.543388 1.579703 -0.017486 -0.471368
    1 0.000005 3.345128 -2.981901 1.675442 -0.032745 1.614048
    2 7.477502 0.511734 0.398450 0.224827 -0.150958 0.411563
    3 10.889321 1.135884 -1.949329 -2.498447 1.340331 2.261159
    4 6.028143 0.000001 0.000000 1.581120 0.074637 -0.954439
    5 11.692552 0.000000 0.000002 0.000000 0.000000 -1.209471
    6 10.897127 1.174941 1.925941 0.976711 -1.226796 3.671507
    7 6.028142 0.000001 0.000000 -1.872568 0.504387 -1.183334
    8 11.692555 0.000000 0.000000 0.000000 0.000000 -1.265933
    9 15.328862 2.088426 -0.031251 3.389945 -0.106998 -0.153210
    10 3.784980 0.906274 -0.000003 -2.684559 -0.241129 -1.212536
    11 17.848177 0.000000 0.000000 0.000000 0.000000 0.441668
    12 16.525253 0.000000 0.000000 0.138220 0.234203 -0.993390
    13 -3.784980 -0.906274 0.000007 -1.601635 -0.262303 -1.643568
    14 17.848173 0.000000 0.000000 0.000000 0.000000 0.906067
    15 16.525257 0.000000 0.000000 0.319807 0.219885 -1.595752
  time 34
    0 -1.869593 5.859559 35.570732 1.579703 -0.017486 -0.471368
    1 0.000005 3.345128 -2.981901 1.675442 -0.032745 1.614048
    2 7.477502 0.511734 0.398450 0.224827 -0.150958 0.411563
    3 10.893227 1.155415 -1.937610 -2.535785 1.332828 2.224825
    4 6.028143 0.000001 0.000000 1.591905 0.073117 -0.955743
    5 11.692552 0.000000 0.000002 0.000000 0.000000 -1.206566
    6 10.893221 1.151503 1.937660 0.951639 -1.219166 3.695090
    7 6.028142 0.000001 0.000000 -1.856873 0.501254 -1.177718
    8 11.692555 0.000000 0.000000 0.000000 0.000000 -1.266909
    9 15.328862 2.088426 0.003906 3.465614 -0.123297 -0.159246
    10 3.784980 0.906274 -0.000003 -2.683553 -0.239154 -1.215967
    11 17.848177 0.000000 0.000000 0.000000 0.000000 0.435952
    12 16.525253 0.000000 0.000000 0.137879 0.234366 -0.991596
    13 -3.784980 -0.906274 0.000007 -1.601635 -0.259505 -1.644360
    14 17.848173 0.000000 0.000000 0.000000 0.000000 0.901402
    15 16.525257 0.000000 0.000000 0.320307 0.219463 -1.593826
  time 35
    0 -1.861781 5.832214 35.598077 1.579703 -0.017486 -0.471368
    1 0.000005 3.345128 -2.981901 1.675442 -0.032745 1.614048
    2 7.477502 0.511734 0.398450 0.224827 -0.150958 0.411563
    3 10.897134 1.178854 -1.918078 -2.572414 1.324671 2.189275
    4 6.028143 0.000001 0.000000 1.602691 0.070537 -0.957421
    5 11.692552 0.000000 0.000002 0.000000 0.000000 -1.203952
    6 10.885408 1.128065 1.957192 0.926472 -1.210994 3.718672
    7 6.028142 0.000001 0.000000 -1.840336 0.497932 -1.172180
    8 11.692555 0.000000 0.000000 0.000000 0.000000 -1.267810
    9 15.328862 2.088426 0.039064 3.529719 -0.136193 -0.165562
    10 3.784980 0.906274 -0.000003 -2.682638 -0.237358 -1.219055
    11 17.848177 0.000000 0.000000 0.000000 0.000000 0.430467
    12 16.525253 0.000000 0.000000 0.137567 0.234529 -0.989642
    13 -3.784980 -0.906274 0.000007 -1.601635 -0.257057 -1.645065
    14 17.848173 0.000000 0.000000 0.000000 0.000000 0.897227
    15 16.525257 0.000000 0.000000 0.320646 0.219181 -1.592084
  time 36
    0 -1.861781 5.812682 35.621515 1.579703 -0.017486 -0.471368
    1 0.000005 3.345128 -2.981901 1.675442 -0.032745 1.614048
    2 7.477502 0.511734 0.398450 0.224827 -0.150958 0.411563
    3 10.901040 1.202292 -1.902453 -2.607156 1.316093 2.155656
    4 6.028143 0.000001 0.000000 1.613477 0.067911 -0.959192
    5 11.692552 0.000000 0.000002 0.000000 0.000000 -1.201265
    6 10.881502 1.104627 1.972817 0.902068 -1.202496 3.741393
    7 6.028142 0.000001 0.000000 -1.823453 0.494536 -1.166801
    8 11.692555 0.000000 0.000000 0.000000 0.000000 -1.268635
    9 15.328862 2.088426 0.082034 3.552701 -0.138961 -0.168311
    10 3.784980 0.906274 -0.000003 -2.681814 -0.235743 -1.221800
    11 17.848177 0.000000 0.000000 0.000000 0.000000 0.425215
    12 16.525253 0.000000 0.000000 0.137285 0.234651 -0.987624
    13 -3.784980 -0.906274 0.000007 -1.601181 -0.255003 -1.645329
    14 17.848173 0.000000 0.000000 0.000000 0.000000 0.893708
    15 16.525257 0.000000 0.000000 0.320842 0.219000 -1.590565
  time 37
    0 -1.865687 5.804870 35.641047 1.579703 -0.017486 -0.471368
    1 0.000005 3.345128 -2.981901 1.675442 -0.032745 1.614048
    2 7.477502 0.511734 0.398450 0.224827 -0.150958 0.411563
    3 10.904946 1.225730 -1.882921 -2.639244 1.307368 2.124633
    4 6.028143 0.000001 0.000000 1.623928 0.065376 -0.961056
    5 11.692552 0.000000 0.000002 0.000000 0.000000 -1.198361
    6 10.877595 1.081188 1.988443 0.879094 -1.193912 3.762866
    7 6.028142 0.000001 0.000000 -1.806818 0.491252 -1.161541
    8 11.692555 0.000000 0.000000 0.000000 0.000000 -1.269236
    9 15.328862 2.084520 0.117191 3.567430 -0.139776 -0.170266
    10 3.784980 0.906274 -0.000003 -2.681083 -0.234351 -1.224115
    11 17.848177 0.000000 0.000000 0.000000 0.000000 0.420503
    12 16.525253 0.000000 0.000000 0.137018 0.234793 -0.985542
    13 -3.784980 -0.906274 0.000007 -1.601181 -0.253386 -1.645329
    14 17.848173 0.000000 0.000000 0.000000 0.000000 0.890843
    15 16.525257 0.000000 0.000000 0.320860 0.219000 -1.589306
  time 38
    0 -1.873500 5.800963 35.656672 1.579703 -0.017486 -0.471368
    1 0.000005 3.345128 -2.981901 1.675442 -0.032745 1.614048
    2 7.477502 0.511734 0.398450 0.224827 -0.150958 0.411563
    3 10.908853 1.245262 -1.863389 -2.668029 1.298775 2.096869
    4 6.028143 0.000001 0.000000 1.633877 0.063027 -0.962920
    5 11.692552 0.000000 0.000002 0.000000 0.000000 -1.195456
    6 10.873689 1.061657 2.007975 0.857931 -1.185545 3.782519
    7 6.028142 0.000001 0.000000 -1.791172 0.488119 -1.156438
    8 11.692555 0.000000 0.000000 0.000000 0.000000 -1.269611
    9 15.328862 2.084520 0.156255 3.581220 -0.140459 -0.172135
    10 3.784980 0.906274 -0.000003 -2.680625 -0.233274 -1.225831
    11 17.848177 0.000000 0.000000 0.000000 0.000000 0.416331
    12 16.525253 0.000000 0.000000 0.136781 0.234895 -0.983460
    13 -3.784980 -0.906274 0.000007 -1.601181 -0.252337 -1.645329
    14 17.848173 0.000000 0.000000 0.000000 0.000000 0.888797
    15 16.525257 0.000000 0.000000 0.320664 0.219161 -1.588342
  time 39
    0 -1.885219 5.808776 35.660579 1.579703 -0.017486 -0.471368
    1 0.000005 3.345128 -2.981901 1.675442 -0.032745 1.614048
    2 7.477502 0.511734 0.398450 0.224827 -0.150958 0.411563
    3 10.912759 1.264794 -1.847764 -2.693097 1.290662 2.072727
    4 6.028143 0.000001 0.000000 1.642824 0.060953 -0.964784
    5 11.692552 0.000000 0.000002 0.000000 0.000000 -1.192479
    6 10.869782 1.038218 2.019694 0.839151 -1.177677 3.799870
    7 6.028142 0.000001 0.000000 -1.777012 0.485402 -1.151534
    8 11.692555 0.000000 0.000000 0.000000 0.000000 -1.269611
    9 15.328862 2.084520 0.191412 3.592538 -0.140735 -0.173703
    10 3.784980 0.906274 -0.000003 -2.680442 -0.232960 -1.226174
    11 17.848177 0.000000 0.000000 0.000000 0.000000 0.414787
    12 16.525253 0.000000 0.000000 0.136617 0.234976 -0.982307
    13 -3.784980 -0.906274 0.000007 -1.601635 -0.252293 -1.644536
    14 17.848173 0.000000 0.000000 0.000000 0.000000 0.888633
    15 16.525257 0.000000 0.000000 0.320289 0.219483 -1.588231
  time 40
    0 -1.900844 5.828308 35.648860 1.579703 -0.017486 -0.471368
    1 0.000005 3.345128 -2.981901 1.675442 -0.032745 1.614048
    2 7.477502 0.511734 0.398450 0.224827 -0.150958 0.411563
    3 10.916666 1.284326 -1.832138 -2.714214 1.283333 2.052447
    4 6.028143 0.000001 0.000000 1.650599 0.059341 -0.966462
    5 11.692552 0.000000 0.000002 0.000000 0.000000 -1.189501
    6 10.865876 1.018687 2.035319 0.823135 -1.170588 3.814730
    7 6.028142 0.000001 0.000000 -1.764932 0.483250 -1.146866
    8 11.692555 0.000000 0.000000 0.000000 0.000000 -1.269386
    9 15.328862 2.080613 0.218757 3.600891 -0.140579 -0.174906
    10 3.784980 0.906274 -0.000003 -2.680717 -0.233543 -1.224716
    11 17.848177 0.000000 0.000000 0.000000 0.000000 0.416331
    12 16.525253 0.000000 0.000000 0.136513 0.235037 -0.982403
    13 -3.784980 -0.906274 0.000007 -1.601635 -0.253342 -1.643832
    14 17.848173 0.000000 0.000000 0.000000 0.000000 0.890434
    15 16.525257 0.000000 0.000000 0.319753 0.219925 -1.589120
  time 41
    0 -1.920376 5.851746 35.625421 1.579703 -0.017486 -0.471368
    1 0.000005 3.345128 -2.981901 1.675442 -0.032745 1.614048
    2 7.477502 0.511734 0.398450 0.224827 -0.150958 0.411563
    3 10.916666 1.296045 -1.820419 -2.731142 1.277066 2.036211
    4 6.028143 0.000001 0.000000 1.656953 0.058143 -0.968139
    5 11.692552 0.000000 0.000002 0.000000 0.000000 -1.186669
    6 10.861970 1.003061 2.043132 0.809980 -1.164562 3.826713
    7 6.028142 0.000001 0.000000 -1.755376 0.481929 -1.142476
    8 11.692555 0.000000 0.000000 0.000000 0.000000 -1.269086
    9 15.324956 2.080613 0.246101 3.606871 -0.140196 -0.175786
    10 3.784980 0.906274 -0.000003 -2.681357 -0.234979 -1.221628
    11 17.848177 0.000000 0.000000 0.000000 0.000000 0.421043
    12 16.525253 0.000000 0.000000 0.136484 0.235058 -0.983813
    13 -3.784980 -0.906274 0.000007 -1.601635 -0.255440 -1.643127
    14 17.848173 0.000000 0.000000 0.000000 0.000000 0.894199
    15 16.525257 0.000000 0.000000 0.319075 0.220488 -1.590973
  time 42
    0 -1.939908 5.882997 35.586358 1.579703 -0.017486 -0.471368
    1 0.000005 3.345128 -2.981901 1.675442 -0.032745 1.614048
    2 7.477502 0.511734 0.398450 0.224827 -0.150958 0.411563
    3 10.920572 1.307764 -1.808700 -2.743824 1.272137 2.024080
    4 6.028143 0.000001 0.000000 1.661552 0.057498 -0.969537
    5 11.692552 0.000000 0.000002 0.000000 0.000000 -1.183982
    6 10.861970 0.991342 2.054851 0.800066 -1.159815 3.835820
    7 6.028142 0.000001 0.000000 -1.748692 0.481703 -1.138600
    8 11.692555 0.000000 0.000000 0.000000 0.000000 -1.268936
    9 15.324956 2.076707 0.265633 3.610578 -0.139680 -0.176366
    10 3.784980 0.906274 -0.000003 -2.682455 -0.237179 -1.217168
    11 17.848177 0.000000 0.000000 0.000000 0.000000 0.428613
    12 16.525253 0.000000 0.000000 0.136499 0.235037 -0.986407
    13 -3.784980 -0.906274 0.000007 -1.601907 -0.258412 -1.641894
    14 17.848173 0.000000 0.000000 0.000000 0.000000 0.899765
    15 16.525257 0.000000 0.000000 0.318325 0.221131 -1.593640
  time 43
    0 -1.963346 5.914248 35.543388 1.579703 -0.017486 -0.471368
    1 0.000005 3.345128 -2.981901 1.675442 -0.032745 1.614048
    2 7.477502 0.511734 0.398450 0.224827 -0.150958 0.411563
    3 10.920572 1.315577 -1.800887 -2.752318 1.268749 2.015992
    4 6.028143 0.000001 0.000000 1.664311 0.057452 -0.970749
    5 11.692552 0.000000 0.000002 0.000000 0.000000 -1.181513
    6 10.858063 0.983529 2.058757 0.793393 -1.156564 3.841955
    7 6.028142 0.000001 0.000000 -1.744830 0.482948 -1.135633
    8 11.692555 0.000000 0.000000 0.000000 0.000000 -1.269311
    9 15.324956 2.076707 0.281259 3.601879 -0.136732 -0.175443
    10 3.784980 0.906274 -0.000003 -2.683827 -0.239917 -1.211593
    11 17.848177 0.000000 0.000000 0.000000 0.000000 0.438192
    12 16.525253 0.000000 0.000000 0.136573 0.234997 -0.989930
    13 -3.784980 -0.906274 0.000007 -1.601907 -0.261997 -1.640662
    14 17.848173 0.000000 0.000000 0.000000 0.000000 0.906477
    15 16.525257 0.000000 0.000000 0.317522 0.221795 -1.596938
  time 44
    0 -1.982878 5.949405 35.492605 1.579703 -0.017486 -0.471368
    1 0.000005 3.345128 -2.981901 1.675442 -0.032745 1.614048
    2 7.477502 0.511734 0.398450 0.224827 -0.150958 0.411563
    3 10.924478 1.319483 -1.796981 -2.756447 1.267048 2.012069
    4 6.028143 0.000001 0.000000 1.665064 0.057959 -0.971681
    5 11.692552 0.000000 0.000002 0.000000 0.000000 -1.179262
    6 10.858063 0.979623 2.062664 0.790151 -1.154938 3.845023
    7 6.028142 0.000001 0.000000 -1.743791 0.485439 -1.133774
    8 11.692555 0.000000 0.000000 0.000000 0.000000 -1.269987
    9 15.324956 2.076707 0.285165 3.575536 -0.130141 -0.172521
    10 3.784980 0.906274 -0.000003 -2.685291 -0.242879 -1.205589
    11 17.848177 0.000000 0.000000 0.000000 0.000000 0.448774
    12 16.525253 0.000000 0.000000 0.136662 0.234956 -0.993966
    13 -3.784980 -0.906274 0.000007 -1.602179 -0.265799 -1.639429
    14 17.848173 0.000000 0.000000 0.000000 0.000000 0.913843
    15 16.525257 0.000000 0.000000 0.316737 0.222438 -1.600569
  time 45
    0 -2.002410 5.976750 35.441822 1.579703 -0.017486 -0.471368
    1 0.000005 3.345128 -2.981901 1.675442 -0.032745 1.614048
    2 7.477502 0.511734 0.398450 0.224827 -0.150958 0.411563
    3 10.920572 1.315577 -1.800887 -2.754677 1.267775 2.013759
    4 6.028143 0.000001 0.000000 1.662890 0.059387 -0.972334
    5 11.692552 0.000000 0.000002 0.000000 0.000000 -1.177302
    6 10.858063 0.979623 2.058757 0.791486 -1.155632 3.843681
    7 6.028142 0.000001 0.000000 -1.746464 0.489025 -1.133656
    8 11.692555 0.000000 0.000000 0.000000 0.000000 -1.270512
    9 15.324956 2.076707 0.285165 3.538418 -0.121572 -0.168612
    10 3.784980 0.906274 -0.000003 -2.686755 -0.245662 -1.199842
    11 17.848177 0.000000 0.000000 0.000000 0.000000 0.458971
    12 16.525253 0.000000 0.000000 0.136736 0.234936 -0.997906
    13 -3.784980 -0.906274 0.000007 -1.602179 -0.269384 -1.638460
    14 17.848173 0.000000 0.000000 0.000000 0.000000 0.920801
    15 16.525257 0.000000 0.000000 0.316058 0.223021 -1.604052
  time 46
    0 -2.014129 6.000188 35.402758 1.579703 -0.017486 -0.471368
    1 0.000005 3.345128 -2.981901 1.675442 -0.032745 1.614048
    2 7.477502 0.511734 0.398450 0.224827 -0.150958 0.411563
    3 10.920572 1.307764 -1.808700 -2.744827 1.271745 2.023114
    4 6.028143 0.000001 0.000000 1.657037 0.062059 -0.972427
    5 11.692552 0.000000 0.000002 0.000000 0.000000 -1.175704
    6 10.861970 0.991342 2.054851 0.799303 -1.159447 3.836587
    7 6.028142 0.000001 0.000000 -1.753990 0.493894 -1.136068
    8 11.692555 0.000000 0.000000 0.000000 0.000000 -1.270812
    9 15.324956 2.076707 0.269539 3.496159 -0.112499 -0.164466
    10 3.784980 0.906274 -0.000003 -2.687853 -0.247862 -1.195125
    11 17.848177 0.000000 0.000000 0.000000 0.000000 0.467313
    12 16.525253 0.000000 0.000000 0.136736 0.234915 -1.001205
    13 -3.784980 -0.906274 0.000007 -1.602179 -0.272181 -1.637491
    14 17.848173 0.000000 0.000000 0.000000 0.000000 0.926367
    15 16.525257 0.000000 0.000000 0.315523 0.223464 -1.606942
  time 47
    0 -2.025848 6.008001 35.379320 1.579703 -0.017486 -0.471368
    1 0.000005 3.345128 -2.981901 1.675442 -0.032745 1.614048
    2 7.477502 0.511734 0.398450 0.224827 -0.150958 0.411563
    3 10.916666 1.292138 -1.824325 -2.725775 1.279102 2.041402
    4 6.028143 0.000001 0.000000 1.647171 0.066068 -0.972054
    5 11.692552 0.000000 0.000002 0.000000 0.000000 -1.174470
    6 10.865876 1.010874 2.043132 0.814174 -1.166513 3.822878
    7 6.028142 0.000001 0.000000 -1.766516 0.499669 -1.141289
    8 11.692555 0.000000 0.000000 0.000000 0.000000 -1.270737
    9 15.328862 2.080613 0.238289 3.454790 -0.104422 -0.160707
    10 3.784980 0.906274 -0.000003 -2.688493 -0.249074 -1.192380
    11 17.848177 0.000000 0.000000 0.000000 0.000000 0.472334
    12 16.525253 0.000000 0.000000 0.136632 0.234976 -1.003287
    13 -3.784980 -0.906274 0.000007 -1.602179 -0.273667 -1.637227
    14 17.848173 0.000000 0.000000 0.000000 0.000000 0.929559
    15 16.525257 0.000000 0.000000 0.315201 0.223725 -1.608720
  time 48
    0 -2.029754 6.000188 35.379320 1.579703 -0.017486 -0.471368
    1 0.000005 3.345128 -2.981901 1.675442 -0.032745 1.614048
    2 7.477502 0.511734 0.398450 0.224827 -0.150958 0.411563
    3 10.912759 1.268700 -1.843857 -2.695987 1.289673 2.069951
    4 6.028143 0.000001 0.000000 1.633459 0.071412 -0.971029
    5 11.692552 0.000000 0.000002 0.000000 0.000000 -1.173598
    6 10.869782 1.038218 2.023600 0.836958 -1.176745 3.801884
    7 6.028142 0.000001 0.000000 -1.783894 0.505670 -1.149556
    8 11.692555 0.000000 0.000000 0.000000 0.000000 -1.270062
    9 15.328862 2.080613 0.195318 3.420588 -0.098933 -0.157764
    10 3.784980 0.906274 -0.000003 -2.688402 -0.248984 -1.192037
    11 17.848177 0.000000 0.000000 0.000000 0.000000 0.472952
    12 16.525253 0.000000 0.000000 0.136395 0.235098 -1.003799
    13 -3.784980 -0.906274 0.000007 -1.602179 -0.273361 -1.637227
    14 17.848173 0.000000 0.000000 0.000000 0.000000 0.929559
    15 16.525257 0.000000 0.000000 0.315166 0.223745 -1.609054
  time 49
    0 -2.029754 5.980656 35.394946 1.579703 -0.017486 -0.471368
    1 0.000005 3.345128 -2.981901 1.675442 -0.032745 1.614048
    2 7.477502 0.511734 0.398450 0.224827 -0.150958 0.411563
    3 10.908853 1.237449 -1.871202 -2.654580 1.302890 2.109846
    4 6.028143 0.000001 0.000000 1.616069 0.077862 -0.969724
    5 11.692552 0.000000 0.000002 0.000000 0.000000 -1.173235
    6 10.877595 1.069469 2.000162 0.867845 -1.189555 3.773316
    7 6.028142 0.000001 0.000000 -1.805283 0.511218 -1.160591
    8 11.692555 0.000000 0.000000 0.000000 0.000000 -1.268861
    9 15.328862 2.084520 0.136723 3.398545 -0.097279 -0.155745
    10 3.784980 0.906274 -0.000003 -2.687761 -0.247772 -1.193838
    11 17.848177 0.000000 0.000000 0.000000 0.000000 0.469940
    12 16.525253 0.000000 0.000000 0.136024 0.235261 -1.002934
    13 -3.784980 -0.906274 0.000007 -1.602179 -0.271569 -1.637491
    14 17.848173 0.000000 0.000000 0.000000 0.000000 0.926776
    15 16.525257 0.000000 0.000000 0.315398 0.223564 -1.608090
  time 50
    0 -2.029754 5.961124 35.410571 1.579703 -0.017486 -0.471368
    1 0.000005 3.345128 -2.981901 1.675442 -0.032745 1.614048
    2 7.477502 0.511734 0.398450 0.224827 -0.150958 0.411563
    3 10.901040 1.198385 -1.902453 -2.602025 1.317416 2.160545
    4 6.028143 0.000001 0.000000 1.596337 0.084820 -0.968233
    5 11.692552 0.000000 0.000002 0.000000 0.000000 -1.173380
    6 10.881502 1.108533 1.968911 0.905690 -1.203797 3.738037
    7 6.028142 0.000001 0.000000 -1.829246 0.515974 -1.173644
    8 11.692555 0.000000 0.000000 0.000000 0.000000 -1.267284
    9 15.328862 2.088426 0.074221 3.377243 -0.096320 -0.153726
    10 3.784980 0.906274 -0.000003 -2.687212 -0.246695 -1.195639
    11 17.848177 0.000000 0.000000 0.000000 0.000000 0.466850
    12 16.525253 0.000000 0.000000 0.135771 0.235403 -1.001910
    13 -3.784980 -0.906274 0.000007 -1.602179 -0.270039 -1.638020
    14 17.848173 0.000000 0.000000 0.000000 0.000000 0.924320
    15 16.525257 0.000000 0.000000 0.315558 0.223424 -1.607127
  time 51
    0 -2.029754 5.957218 35.426197 1.579703 -0.017486 -0.471368
    1 0.000005 3.345128 -2.981901 1.675442 -0.032745 1.614048
    2 7.477502 0.511734 0.398450 0.224827 -0.150958 0.411563
    3 10.893227 1.163228 -1.933704 -2.542686 1.331360 2.218125
    4 6.028143 0.000001 0.000000 1.576438 0.090993 -0.966741
    5 11.692552 0.000000 0.000002 0.000000 0.000000 -1.174978
    6 10.889314 1.147597 1.941566 0.946968 -1.217692 3.699499
    7 6.028142 0.000001 0.000000 -1.852912 0.519409 -1.187171
    8 11.692555 0.000000 0.000000 0.000000 0.000000 -1.266233
    9 15.328862 2.088426 0.007813 3.355891 -0.095361 -0.151728
    10 3.784980 0.906274 -0.000003 -2.686755 -0.245932 -1.197097
    11 17.848177 0.000000 0.000000 0.000000 0.000000 0.464069
    12 16.525253 0.000000 0.000000 0.135697 0.235424 -1.000724
    13 -3.784980 -0.906274 0.000007 -1.602179 -0.269121 -1.638196
    14 17.848173 0.000000 0.000000 0.000000 0.000000 0.922601
    15 16.525257 0.000000 0.000000 0.315648 0.223343 -1.606238
  time 52
    0 -2.025848 5.961124 35.434009 1.579703 -0.017486 -0.471368
    1 0.000005 3.345128 -2.981901 1.675442 -0.032745 1.614048
    2 7.477502 0.511734 0.398450 0.224827 -0.150958 0.411563
    3 10.885415 1.128071 -1.957142 -2.485589 1.342730 2.273713
    4 6.028143 0.000001 0.000000 1.558880 0.095232 -0.965716
    5 11.692552 0.000000 0.000002 0.000000 0.000000 -1.178028
    6 10.897127 1.182754 1.918128 0.985290 -1.229267 3.663454
    7 6.028142 0.000001 0.000000 -1.872815 0.521069 -1.199195
    8 11.692555 0.000000 0.000000 0.000000 0.000000 -1.266158
    9 15.328862 2.088426 -0.042970 3.337455 -0.094510 -0.150010
    10 3.784980 0.906274 -0.000003 -2.686572 -0.245528 -1.198212
    11 17.848177 0.000000 0.000000 0.000000 0.000000 0.461597
    12 16.525253 0.000000 0.000000 0.135831 0.235363 -0.999411
    13 -3.784980 -0.906274 0.000007 -1.602179 -0.268815 -1.638196
    14 17.848173 0.000000 0.000000 0.000000 0.000000 0.921455
    15 16.525257 0.000000 0.000000 0.315648 0.223343 -1.605460
  time 53
    0 -2.021942 5.976750 35.441822 1.579703 -0.017486 -0.471368
    1 0.000005 3.345128 -2.981901 1.675442 -0.032745 1.614048
    2 7.477502 0.511734 0.398450 0.224827 -0.150958 0.411563
    3 10.881508 1.104633 -1.972767 -2.442589 1.350175 2.315600
    4 6.028143 0.000001 0.000000 1.546171 0.096522 -0.965250
    5 11.692552 0.000000 0.000002 0.000000 0.000000 -1.182385
    6 10.901033 1.202286 1.898596 1.013412 -1.237027 3.636899
    7 6.028142 0.000001 0.000000 -1.885787 0.520692 -1.207699
    8 11.692555 0.000000 0.000000 0.000000 0.000000 -1.267059
    9 15.328862 2.088426 -0.082034 3.324605 -0.093899 -0.148828
    10 3.784980 0.906274 -0.000003 -2.686572 -0.245438 -1.199070
    11 17.848177 0.000000 0.000000 0.000000 0.000000 0.459434
    12 16.525253 0.000000 0.000000 0.136157 0.235200 -0.997938
    13 -3.784980 -0.906274 0.000007 -1.602179 -0.269121 -1.638020
    14 17.848173 0.000000 0.000000 0.000000 0.000000 0.921128
    15 16.525257 0.000000 0.000000 0.315558 0.223424 -1.604756
  time 54
    0 -2.018035 6.004094 35.441822 1.579703 -0.017486 -0.471368
    1 0.000005 3.345128 -2.981901 1.675442 -0.032745 1.614048
    2 7.477502 0.511734 0.398450 0.224827 -0.150958 0.411563
    3 10.881508 1.092914 -1.980580 -2.423419 1.353214 2.334311
    4 6.028143 0.000001 0.000000 1.539817 0.094080 -0.965623
    5 11.692552 0.000000 0.000002 0.000000 0.000000 -1.187831
    6 10.901033 1.214005 1.890784 1.025710 -1.240235 3.625300
    7 6.028142 0.000001 0.000000 -1.890095 0.518314 -1.211298
    8 11.692555 0.000000 0.000000 0.000000 0.000000 -1.268786
    9 15.328862 2.088426 -0.097659 3.319069 -0.093612 -0.148334
    10 3.784980 0.906274 -0.000003 -2.686755 -0.245707 -1.199670
    11 17.848177 0.000000 0.000000 0.000000 0.000000 0.457426
    12 16.525253 0.000000 0.000000 0.136691 0.234936 -0.996272
    13 -3.784980 -0.906274 0.000007 -1.602179 -0.270083 -1.637491
    14 17.848173 0.000000 0.000000 0.000000 0.000000 0.921374
    15 16.525257 0.000000 0.000000 0.315380 0.223584 -1.604089
  time 55
    0 -2.010223 6.039252 35.441822 1.579703 -0.017486 -0.471368
    1 0.000005 3.345128 -2.981901 1.675442 -0.032745 1.614048
    2 7.477502 0.511734 0.398450 0.224827 -0.150958 0.411563
    3 10.881508 1.092914 -1.984486 -2.419467 1.353825 2.338174
    4 6.028143 0.000001 0.000000 1.537225 0.089150 -0.966275
    5 11.692552 0.000000 0.000002 0.000000 0.000000 -1.194222
    6 10.904940 1.214005 1.890784 1.028284 -1.240885 3.622903
    7 6.028142 0.000001 0.000000 -1.889105 0.514577 -1.212169
    8 11.692555 0.000000 0.000000 0.000000 0.000000 -1.271638
    9 15.328862 2.088426 -0.101566 3.318031 -0.093576 -0.148248
    10 3.784980 0.906274 -0.000003 -2.687029 -0.246246 -1.200099
    11 17.848177 0.000000 0.000000 0.000000 0.000000 0.455572
    12 16.525253 0.000000 0.000000 0.137434 0.234590 -0.994318
    13 -3.784980 -0.906274 0.000007 -1.602179 -0.271613 -1.637227
    14 17.848173 0.000000 0.000000 0.000000 0.000000 0.922192
    15 16.525257 0.000000 0.000000 0.315130 0.223785 -1.603459
  time 56
    0 -2.002410 6.082222 35.441822 1.579703 -0.017486 -0.471368
    1 0.000005 3.345128 -2.981901 1.675442 -0.032745 1.614048
    2 7.477502 0.511734 0.398450 0.224827 -0.150958 0.411563
    3 10.881508 1.092914 -1.984486 -2.418405 1.353985 2.339200
    4 6.028143 0.000001 0.000000 1.535386 0.083069 -0.967021
    5 11.692552 0.000000 0.000002 0.000000 0.000000 -1.201338
    6 10.904940 1.214005 1.890784 1.028951 -1.241059 3.622232
    7 6.028142 0.000001 0.000000 -1.886877 0.510463 -1.212762
    8 11.692555 0.000000 0.000000 0.000000 0.000000 -1.276293
    9 15.328862 2.088426 -0.101566 3.318229 -0.093684 -0.148227
    10 3.784980 0.906274 -0.000003 -2.687487 -0.246964 -1.200614
    11 17.848177 0.000000 0.000000 0.000000 0.000000 0.453332
    12 16.525253 0.000000 0.000000 0.138354 0.234142 -0.992012
    13 -3.784980 -0.906274 0.000007 -1.602360 -0.273580 -1.636787
    14 17.848173 0.000000 0.000000 0.000000 0.000000 0.923338
    15 16.525257 0.000000 0.000000 0.314809 0.224067 -1.602718
  time 57
    0 -1.994597 6.133005 35.445728 1.579703 -0.017486 -0.471368
    1 0.000005 3.345128 -2.981901 1.675442 -0.032745 1.614048
    2 7.477502 0.511734 0.398450 0.224827 -0.150958 0.411563
    3 10.881508 1.092914 -1.980580 -2.420411 1.353679 2.337268
    4 6.028143 0.000001 0.000000 1.534382 0.075973 -0.967767
    5 11.692552 0.000000 0.000002 0.000000 0.000000 -1.208818
    6 10.904940 1.214005 1.890784 1.027617 -1.240734 3.623382
    7 6.028142 0.000001 0.000000 -1.883510 0.506500 -1.213197
    8 11.692555 0.000000 0.000000 0.000000 0.000000 -1.282824
    9 15.328862 2.088426 -0.101566 3.319811 -0.093983 -0.148334
    10 3.784980 0.906274 -0.000003 -2.687944 -0.247682 -1.201300
    11 17.848177 0.000000 0.000000 0.000000 0.000000 0.450474
    12 16.525253 0.000000 0.000000 0.139378 0.233634 -0.989226
    13 -3.784980 -0.906274 0.000007 -1.602360 -0.275634 -1.636258
    14 17.848173 0.000000 0.000000 0.000000 0.000000 0.924402
    15 16.525257 0.000000 0.000000 0.314452 0.224348 -1.601755
  time 58
    0 -1.982878 6.183787 35.449635 1.579703 -0.017486 -0.471368
    1 0.000005 3.345128 -2.981901 1.675442 -0.032745 1.614048
    2 7.477502 0.511734 0.398450 0.224827 -0.150958 0.411563
    3 10.881508 1.096820 -1.980580 -2.425542 1.352879 2.332259
    4 6.028143 0.000001 0.000000 1.534215 0.068095 -0.968512
    5 11.692552 0.000000 0.000002 0.000000 0.000000 -1.216297
    6 10.901033 1.214005 1.894690 1.024375 -1.239888 3.626546
    7 6.028142 0.000001 0.000000 -1.879301 0.503179 -1.213434
    8 11.692555 0.000000 0.000000 0.000000 0.000000 -1.291007
    9 15.328862 2.088426 -0.097659 3.322875 -0.094463 -0.148549
    10 3.784980 0.906274 -0.000003 -2.688219 -0.248176 -1.202587
    11 17.848177 0.000000 0.000000 0.000000 0.000000 0.446534
    12 16.525253 0.000000 0.000000 0.140432 0.233105 -0.985927
    13 -3.784980 -0.906274 0.000007 -1.602360 -0.277470 -1.635818
    14 17.848173 0.000000 0.000000 0.000000 0.000000 0.924893
    15 16.525257 0.000000 0.000000 0.314130 0.224630 -1.600495
  time 59
    0 -1.975065 6.226758 35.461354 1.579703 -0.017486 -0.471368
    1 0.000005 3.345128 -2.981901 1.675442 -0.032745 1.614048
    2 7.477502 0.511734 0.398450 0.224827 -0.150958 0.411563
    3 10.881508 1.100726 -1.976674 -2.433800 1.351585 2.324171
    4 6.028143 0.000001 0.000000 1.534884 0.059848 -0.969444
    5 11.692552 0.000000 0.000002 0.000000 0.000000 -1.223196
    6 10.901033 1.210099 1.894690 1.019037 -1.238501 3.631531
    7 6.028142 0.000001 0.000000 -1.874301 0.500876 -1.213474
    8 11.692555 0.000000 0.000000 0.000000 0.000000 -1.300015
    9 15.328862 2.088426 -0.089846 3.327175 -0.095074 -0.148850
    10 3.784980 0.906274 -0.000003 -2.688310 -0.248176 -1.204559
    11 17.848177 0.000000 0.000000 0.000000 0.000000 0.441282
    12 16.525253 0.000000 0.000000 0.141381 0.232637 -0.982211
    13 -3.784980 -0.906274 0.000007 -1.602360 -0.278694 -1.635289
    14 17.848173 0.000000 0.000000 0.000000 0.000000 0.924402
    15 16.525257 0.000000 0.000000 0.313880 0.224831 -1.598828
  time 60
    0 -1.963346 6.258008 35.480886 1.579703 -0.017486 -0.471368
    1 0.000005 3.345128 -2.981901 1.675442 -0.032745 1.614048
    2 7.477502 0.511734 0.398450 0.224827 -0.150958 0.411563
    3 10.881508 1.104633 -1.972767 -2.445184 1.349739 2.313065
    4 6.028143 0.000001 0.000000 1.536473 0.051877 -0.970376
    5 11.692552 0.000000 0.000002 0.000000 0.000000 -1.228860
    6 10.901033 1.202286 1.902503 1.011697 -1.236572 3.638529
    7 6.028142 0.000001 0.000000 -1.868855 0.499857 -1.213157
    8 11.692555 0.000000 0.000000 0.000000 0.000000 -1.308948
    9 15.328862 2.088426 -0.078127 3.333897 -0.096104 -0.149322
    10 3.784980 0.906274 -0.000003 -2.688036 -0.247592 -1.207390
    11 17.848177 0.000000 0.000000 0.000000 0.000000 0.434870
    12 16.525253 0.000000 0.000000 0.142109 0.232291 -0.978367
    13 -3.784980 -0.906274 0.000007 -1.602360 -0.278913 -1.635025
    14 17.848173 0.000000 0.000000 0.000000 0.000000 0.922601
    15 16.525257 0.000000 0.000000 0.313809 0.224891 -1.596790
  time 61
    0 -1.951627 6.265821 35.504324 1.579703 -0.017486 -0.471368
    1 0.000005 3.345128 -2.981901 1.675442 -0.032745 1.614048
    2 7.477502 0.511734 0.398450 0.224827 -0.150958 0.411563
    3 10.885415 1.112445 -1.968861 -2.459577 1.347340 2.299002
    4 6.028143 0.000001 0.000000 1.539064 0.044920 -0.971402
    5 11.692552 0.000000 0.000002 0.000000 0.000000 -1.232709
    6 10.901033 1.194473 1.906409 1.002354 -1.234036 3.647349
    7 6.028142 0.000001 0.000000 -1.863012 0.499971 -1.212169
    8 11.692555 0.000000 0.000000 0.000000 0.000000 -1.315705
    9 15.328862 2.088426 -0.066408 3.345957 -0.098310 -0.150117
    10 3.784980 0.906274 -0.000003 -2.687487 -0.246560 -1.210392
    11 17.848177 0.000000 0.000000 0.000000 0.000000 0.428845
    12 16.525253 0.000000 0.000000 0.142465 0.232108 -0.975261
    13 -3.784980 -0.906274 0.000007 -1.602360 -0.278170 -1.635289
    14 17.848173 0.000000 0.000000 0.000000 0.000000 0.919982
    15 16.525257 0.000000 0.000000 0.313934 0.224771 -1.594863
  time 62
    0 -1.943814 6.254102 35.523856 1.579703 -0.017486 -0.471368
    1 0.000005 3.345128 -2.981901 1.675442 -0.032745 1.614048
    2 7.477502 0.511734 0.398450 0.224827 -0.150958 0.411563
    3 10.885415 1.124164 -1.961048 -2.476741 1.344330 2.282284
    4 6.028143 0.000001 0.000000 1.542660 0.039529 -0.972706
    5 11.692552 0.000000 0.000002 0.000000 0.000000 -1.234234
    6 10.897127 1.186660 1.914222 0.991105 -1.230914 3.657990
    7 6.028142 0.000001 0.000000 -1.857269 0.501329 -1.210112
    8 11.692555 0.000000 0.000000 0.000000 0.000000 -1.319233
    9 15.328862 2.088426 -0.050783 3.362712 -0.101497 -0.151277
    10 3.784980 0.906274 -0.000003 -2.686846 -0.245348 -1.212965
    11 17.848177 0.000000 0.000000 0.000000 0.000000 0.424133
    12 16.525253 0.000000 0.000000 0.142509 0.232108 -0.973371
    13 -3.784980 -0.906274 0.000007 -1.602360 -0.276727 -1.635994
    14 17.848173 0.000000 0.000000 0.000000 0.000000 0.917036
    15 16.525257 0.000000 0.000000 0.314255 0.224509 -1.593344
  time 63
    0 -1.932095 6.242383 35.543388 1.579703 -0.017486 -0.471368
    1 0.000005 3.345128 -2.981901 1.675442 -0.032745 1.614048
    2 7.477502 0.511734 0.398450 0.224827 -0.150958 0.411563
    3 10.889321 1.135884 -1.953236 -2.496442 1.340695 2.263090
    4 6.028143 0.000001 0.000000 1.547007 0.035843 -0.974104
    5 11.692552 0.000000 0.000002 0.000000 0.000000 -1.233072
    6 10.897127 1.174941 1.922035 0.978045 -1.227186 3.670260
    7 6.028142 0.000001 0.000000 -1.851872 0.504009 -1.206671
    8 11.692555 0.000000 0.000000 0.000000 0.000000 -1.318633
    9 15.328862 2.088426 -0.031251 3.382580 -0.105273 -0.152716
    10 3.784980 0.906274 -0.000003 -2.686297 -0.244181 -1.215367
    11 17.848177 0.000000 0.000000 0.000000 0.000000 0.419962
    12 16.525253 0.000000 0.000000 0.142480 0.232108 -0.971737
    13 -3.784980 -0.906274 0.000007 -1.602360 -0.275285 -1.636522
    14 17.848173 0.000000 0.000000 0.000000 0.000000 0.914253
    15 16.525257 0.000000 0.000000 0.314559 0.224268 -1.591936
  time 64
    0 -1.928189 6.226758 35.562919 1.579703 -0.017486 -0.471368
    1 0.000005 3.345128 -2.981901 1.675442 -0.032745 1.614048
    2 7.477502 0.511734 0.398450 0.224827 -0.150958 0.411563
    3 10.889321 1.147603 -1.941516 -2.518207 1.336449 2.241905
    4 6.028143 0.000001 0.000000 1.552191 0.033401 -0.975689
    5 11.692552 0.000000 0.000002 0.000000 0.000000 -1.230458
    6 10.893221 1.163222 1.933754 0.963555 -1.222851 3.683873
    7 6.028142 0.000001 0.000000 -1.846674 0.506689 -1.201489
    8 11.692555 0.000000 0.000000 0.000000 0.000000 -1.315104
    9 15.328862 2.088426 -0.011719 3.403586 -0.109108 -0.154349
    10 3.784980 0.906274 -0.000003 -2.685748 -0.243104 -1.217597
    11 17.848177 0.000000 0.000000 0.000000 0.000000 0.416023
    12 16.525253 0.000000 0.000000 0.142435 0.232128 -0.970264
    13 -3.784980 -0.906274 0.000007 -1.602360 -0.273930 -1.636787
    14 17.848173 0.000000 0.000000 0.000000 0.000000 0.911715
    15 16.525257 0.000000 0.000000 0.314826 0.224027 -1.590713
  time 65
    0 -1.920376 6.215038 35.578545 1.579703 -0.017486 -0.471368
    1 0.000005 3.345128 -2.981901 1.675442 -0.032745 1.614048
    2 7.477502 0.511734 0.398450 0.224827 -0.150958 0.411563
    3 10.893227 1.159322 -1.933704 -2.541506 1.331607 2.219272
    4 6.028143 0.000001 0.000000 1.558378 0.031328 -0.977273
    5 11.692552 0.000000 0.000002 0.000000 0.000000 -1.227553
    6 10.889314 1.147597 1.941566 0.947731 -1.217930 3.698732
    7 6.028142 0.000001 0.000000 -1.840980 0.508312 -1.194923
    8 11.692555 0.000000 0.000000 0.000000 0.000000 -1.310750
    9 15.328862 2.088426 0.007813 3.423554 -0.112487 -0.156046
    10 3.784980 0.906274 -0.000003 -2.685199 -0.242071 -1.219570
    11 17.848177 0.000000 0.000000 0.000000 0.000000 0.412546
    12 16.525253 0.000000 0.000000 0.142346 0.232189 -0.968983
    13 -3.784980 -0.906274 0.000007 -1.602179 -0.272575 -1.637051
    14 17.848173 0.000000 0.000000 0.000000 0.000000 0.909341
    15 16.525257 0.000000 0.000000 0.315076 0.223826 -1.589602
  time 66
    0 -1.916470 6.203319 35.594170 1.579703 -0.017486 -0.471368
    1 0.000005 3.345128 -2.981901 1.675442 -0.032745 1.614048
    2 7.477502 0.511734 0.398450 0.224827 -0.150958 0.411563
    3 10.897134 1.174947 -1.921985 -2.565808 1.326213 2.195673
    4 6.028143 0.000001 0.000000 1.565318 0.029485 -0.978858
    5 11.692552 0.000000 0.000002 0.000000 0.000000 -1.224430
    6 10.889314 1.131971 1.953285 0.931048 -1.212533 3.714359
    7 6.028142 0.000001 0.000000 -1.834346 0.509595 -1.188041
    8 11.692555 0.000000 0.000000 0.000000 0.000000 -1.306546
    9 15.328862 2.088426 0.035157 3.440853 -0.115040 -0.157657
    10 3.784980 0.906274 -0.000003 -2.684651 -0.241084 -1.221371
    11 17.848177 0.000000 0.000000 0.000000 0.000000 0.409379
    12 16.525253 0.000000 0.000000 0.142213 0.232250 -0.967862
    13 -3.784980 -0.906274 0.000007 -1.602179 -0.271307 -1.637491
    14 17.848173 0.000000 0.000000 0.000000 0.000000 0.907131
    15 16.525257 0.000000 0.000000 0.315308 0.223645 -1.588639
  time 67
    0 -1.912563 6.187694 35.605890 1.579703 -0.017486 -0.471368
    1 0.000005 3.345128 -2.981901 1.675442 -0.032745 1.614048
    2 7.477502 0.511734 0.398450 0.224827 -0.150958 0.411563
    3 10.897134 1.190573 -1.910265 -2.590287 1.320367 2.171953
    4 6.028143 0.000001 0.000000 1.572843 0.027872 -0.980442
    5 11.692552 0.000000 0.000002 0.000000 0.000000 -1.221163
    6 10.885408 1.116346 1.965005 0.913984 -1.206723 3.730272
    7 6.028142 0.000001 0.000000 -1.827018 0.510577 -1.181001
    8 11.692555 0.000000 0.000000 0.000000 0.000000 -1.302567
    9 15.328862 2.088426 0.062502 3.454494 -0.116550 -0.159031
    10 3.784980 0.906274 -0.000003 -2.684193 -0.240141 -1.222915
    11 17.848177 0.000000 0.000000 0.000000 0.000000 0.406676
    12 16.525253 0.000000 0.000000 0.142049 0.232332 -0.966933
    13 -3.784980 -0.906274 0.000007 -1.602179 -0.270039 -1.638020
    14 17.848173 0.000000 0.000000 0.000000 0.000000 0.905085
    15 16.525257 0.000000 0.000000 0.315505 0.223464 -1.587786
  time 68
    0 -1.912563 6.175975 35.617609 1.579703 -0.017486 -0.471368
    1 0.000005 3.345128 -2.981901 1.675442 -0.032745 1.614048
    2 7.477502 0.511734 0.398450 0.224827 -0.150958 0.411563
    3 10.901040 1.206198 -1.898546 -2.614175 1.314260 2.148836
    4 6.028143 0.000001 0.000000 1.580785 0.026490 -0.981933
    5 11.692552 0.000000 0.000002 0.000000 0.000000 -1.217895
    6 10.881502 1.100720 1.976724 0.897111 -1.200675 3.746090
    7 6.028142 0.000001 0.000000 -1.819245 0.511294 -1.173921
    8 11.692555 0.000000 0.000000 0.000000 0.000000 -1.298814
    9 15.328862 2.088426 0.089846 3.463983 -0.116994 -0.160106
    10 3.784980 0.906274 -0.000003 -2.683736 -0.239289 -1.224287
    11 17.848177 0.000000 0.000000 0.000000 0.000000 0.404281
    12 16.525253 0.000000 0.000000 0.141856 0.232413 -0.966164
    13 -3.784980 -0.906274 0.000007 -1.602179 -0.268859 -1.638196
    14 17.848173 0.000000 0.000000 0.000000 0.000000 0.903203
    15 16.525257 0.000000 0.000000 0.315683 0.223323 -1.587082
  time 69
    0 -1.912563 6.160349 35.629328 1.579703 -0.017486 -0.471368
    1 0.000005 3.345128 -2.981901 1.675442 -0.032745 1.614048
    2 7.477502 0.511734 0.398450 0.224827 -0.150958 0.411563
    3 10.904946 1.221824 -1.882921 -2.636649 1.308110 2.127108
    4 6.028143 0.000001 0.000000 1.588812 0.025338 -0.983238
    5 11.692552 0.000000 0.000002 0.000000 0.000000 -1.214482
    6 10.877595 1.085095 1.988443 0.880905 -1.194649 3.761141
    7 6.028142 0.000001 0.000000 -1.811422 0.511784 -1.167118
    8 11.692555 0.000000 0.000000 0.000000 0.000000 -1.295361
    9 15.328862 2.084520 0.117191 3.471101 -0.116862 -0.160986
    10 3.784980 0.906274 -0.000003 -2.683370 -0.238481 -1.225488
    11 17.848177 0.000000 0.000000 0.000000 0.000000 0.402273
    12 16.525253 0.000000 0.000000 0.141634 0.232535 -0.965619
    13 -3.784980 -0.906274 0.000007 -1.602179 -0.267723 -1.638460
    14 17.848173 0.000000 0.000000 0.000000 0.000000 0.901484
    15 16.525257 0.000000 0.000000 0.315844 0.223182 -1.586527
  time 70
    0 -1.912563 6.144724 35.637141 1.579703 -0.017486 -0.471368
    1 0.000005 3.345128 -2.981901 1.675442 -0.032745 1.614048
    2 7.477502 0.511734 0.398450 0.224827 -0.150958 0.411563
    3 10.908853 1.237449 -1.871202 -2.656762 1.302221 2.107673
    4 6.028143 0.000001 0.000000 1.596504 0.024601 -0.984357
    5 11.692552 0.000000 0.000002 0.000000 0.000000 -1.211141
    6 10.877595 1.069469 2.000162 0.866224 -1.188905 3.774850
    7 6.028142 0.000001 0.000000 -1.803946 0.512200 -1.160789
    8 11.692555 0.000000 0.000000 0.000000 0.000000 -1.292133
    9 15.328862 2.084520 0.140629 3.476241 -0.116370 -0.161674
    10 3.784980 0.906274 -0.000003 -2.683004 -0.237718 -1.226517
    11 17.848177 0.000000 0.000000 0.000000 0.000000 0.400651
    12 16.525253 0.000000 0.000000 0.141367 0.232657 -0.965235
    13 -3.784980 -0.906274 0.000007 -1.602179 -0.266630 -1.638460
    14 17.848173 0.000000 0.000000 0.000000 0.000000 0.900010
    15 16.525257 0.000000 0.000000 0.315969 0.223082 -1.586082
  time 71
    0 -1.916470 6.129098 35.644953 1.579703 -0.017486 -0.471368
    1 0.000005 3.345128 -2.981901 1.675442 -0.032745 1.614048
    2 7.477502 0.511734 0.398450 0.224827 -0.150958 0.411563
    3 10.908853 1.249168 -1.859483 -2.673750 1.296972 2.091317
    4 6.028143 0.000001 0.000000 1.603444 0.024371 -0.985196
    5 11.692552 0.000000 0.000002 0.000000 0.000000 -1.207656
    6 10.873689 1.053844 2.007975 0.853641 -1.183811 3.786449
    7 6.028142 0.000001 0.000000 -1.797361 0.512539 -1.155331
    8 11.692555 0.000000 0.000000 0.000000 0.000000 -1.289205
    9 15.328862 2.084520 0.164068 3.478959 -0.115484 -0.162125
    10 3.784980 0.906274 -0.000003 -2.682638 -0.237044 -1.227289
    11 17.848177 0.000000 0.000000 0.000000 0.000000 0.399338
    12 16.525253 0.000000 0.000000 0.141070 0.232799 -0.965011
    13 -3.784980 -0.906274 0.000007 -1.602179 -0.265537 -1.638724
    14 17.848173 0.000000 0.000000 0.000000 0.000000 0.898619
    15 16.525257 0.000000 0.000000 0.316094 0.222981 -1.585749
  time 72
    0 -1.916470 6.113473 35.648860 1.579703 -0.017486 -0.471368
    1 0.000005 3.345128 -2.981901 1.675442 -0.032745 1.614048
    2 7.477502 0.511734 0.398450 0.224827 -0.150958 0.411563
    3 10.912759 1.260887 -1.851670 -2.686727 1.292770 2.078823
    4 6.028143 0.000001 0.000000 1.609296 0.024786 -0.985568
    5 11.692552 0.000000 0.000002 0.000000 0.000000 -1.204243
    6 10.869782 1.046031 2.015787 0.844012 -1.179736 3.795461
    7 6.028142 0.000001 0.000000 -1.792163 0.512992 -1.151019
    8 11.692555 0.000000 0.000000 0.000000 0.000000 -1.286577
    9 15.328862 2.084520 0.179693 3.478663 -0.114201 -0.162254
    10 3.784980 0.906274 -0.000003 -2.682363 -0.236461 -1.227804
    11 17.848177 0.000000 0.000000 0.000000 0.000000 0.398488
    12 16.525253 0.000000 0.000000 0.140743 0.232962 -0.964979
    13 -3.784980 -0.906274 0.000007 -1.602179 -0.264576 -1.638988
    14 17.848173 0.000000 0.000000 0.000000 0.000000 0.897473
    15 16.525257 0.000000 0.000000 0.316165 0.222921 -1.585563
  time 73
    0 -1.920376 6.097847 35.656672 1.579703 -0.017486 -0.471368
    1 0.000005 3.345128 -2.981901 1.675442 -0.032745 1.614048
    2 7.477502 0.511734 0.398450 0.224827 -0.150958 0.411563
    3 10.912759 1.268700 -1.847764 -2.694985 1.290022 2.070916
    4 6.028143 0.000001 0.000000 1.613560 0.026030 -0.985568
    5 11.692552 0.000000 0.000002 0.000000 0.000000 -1.200830
    6 10.869782 1.038218 2.023600 0.837721 -1.177070 3.801213
    7 6.028142 0.000001 0.000000 -1.788895 0.513634 -1.148251
    8 11.692555 0.000000 0.000000 0.000000 0.000000 -1.284250
    9 15.328862 2.080613 0.191412 3.474857 -0.112475 -0.162017
    10 3.784980 0.906274 -0.000003 -2.681997 -0.235877 -1.228233
    11 17.848177 0.000000 0.000000 0.000000 0.000000 0.397947
    12 16.525253 0.000000 0.000000 0.140387 0.233125 -0.965139
    13 -3.784980 -0.906274 0.000007 -1.602179 -0.263614 -1.638988
    14 17.848173 0.000000 0.000000 0.000000 0.000000 0.896409
    15 16.525257 0.000000 0.000000 0.316237 0.222861 -1.585489
  time 74
    0 -1.928189 6.082222 35.656672 1.579703 -0.017486 -0.471368
    1 0.000005 3.345128 -2.981901 1.675442 -0.032745 1.614048
    2 7.477502 0.511734 0.398450 0.224827 -0.150958 0.411563
    3 10.912759 1.268700 -1.843857 -2.696341 1.289557 2.069588
    4 6.028143 0.000001 0.000000 1.615232 0.028471 -0.984823
    5 11.692552 0.000000 0.000002 0.000000 0.000000 -1.197417
    6 10.869782 1.034312 2.023600 0.836767 -1.176614 3.802171
    7 6.028142 0.000001 0.000000 -1.788796 0.514691 -1.147697
    8 11.692555 0.000000 0.000000 0.000000 0.000000 -1.282298
    9 15.328862 2.080613 0.195318 3.466405 -0.110270 -0.161330
    10 3.784980 0.906274 -0.000003 -2.681814 -0.235383 -1.228404
    11 17.848177 0.000000 0.000000 0.000000 0.000000 0.397870
    12 16.525253 0.000000 0.000000 0.140001 0.233328 -0.965491
    13 -3.784980 -0.906274 0.000007 -1.602179 -0.262696 -1.638988
    14 17.848173 0.000000 0.000000 0.000000 0.000000 0.895590
    15 16.525257 0.000000 0.000000 0.316290 0.222820 -1.585563
  time 75
    0 -1.932095 6.066596 35.660579 1.579703 -0.017486 -0.471368
    1 0.000005 3.345128 -2.981901 1.675442 -0.032745 1.614048
    2 7.477502 0.511734 0.398450 0.224827 -0.150958 0.411563
    3 10.912759 1.260887 -1.851670 -2.689322 1.291912 2.076348
    4 6.028143 0.000001 0.000000 1.613811 0.032388 -0.983331
    5 11.692552 0.000000 0.000002 0.000000 0.000000 -1.194076
    6 10.869782 1.042125 2.019694 0.842011 -1.178891 3.797282
    7 6.028142 0.000001 0.000000 -1.792559 0.516200 -1.149912
    8 11.692555 0.000000 0.000000 0.000000 0.000000 -1.280722
    9 15.328862 2.084520 0.183599 3.452566 -0.107538 -0.160106
    10 3.784980 0.906274 -0.000003 -2.681540 -0.234979 -1.228404
    11 17.848177 0.000000 0.000000 0.000000 0.000000 0.398102
    12 16.525253 0.000000 0.000000 0.139600 0.233532 -0.965972
    13 -3.784980 -0.906274 0.000007 -1.602179 -0.261865 -1.639164
    14 17.848173 0.000000 0.000000 0.000000 0.000000 0.894936
    15 16.525257 0.000000 0.000000 0.316308 0.222800 -1.585749
  time 76
    0 -1.939908 6.050971 35.660579 1.579703 -0.017486 -0.471368
    1 0.000005 3.345128 -2.981901 1.675442 -0.032745 1.614048
    2 7.477502 0.511734 0.398450 0.224827 -0.150958 0.411563
    3 10.908853 1.249168 -1.859483 -2.674104 1.296870 2.091015
    4 6.028143 0.000001 0.000000 1.609380 0.037640 -0.981188
    5 11.692552 0.000000 0.000002 0.000000 0.000000 -1.190808
    6 10.873689 1.053844 2.007975 0.853450 -1.183703 3.786641
    7 6.028142 0.000001 0.000000 -1.799936 0.518201 -1.154737
    8 11.692555 0.000000 0.000000 0.000000 0.000000 -1.279521
    9 15.328862 2.084520 0.164068 3.433587 -0.104266 -0.158452
    10 3.784980 0.906274 -0.000003 -2.681357 -0.234620 -1.228147
    11 17.848177 0.000000 0.000000 0.000000 0.000000 0.398720
    12 16.525253 0.000000 0.000000 0.139155 0.233735 -0.966676
    13 -3.784980 -0.906274 0.000007 -1.602179 -0.261079 -1.639164
    14 17.848173 0.000000 0.000000 0.000000 0.000000 0.894445
    15 16.525257 0.000000 0.000000 0.316308 0.222800 -1.586045
  time 77
    0 -1.951627 6.035345 35.660579 1.579703 -0.017486 -0.471368
    1 0.000005 3.345128 -2.981901 1.675442 -0.032745 1.614048
    2 7.477502 0.511734 0.398450 0.224827 -0.150958 0.411563
    3 10.904946 1.233543 -1.875108 -2.650156 1.304184 2.114071
    4 6.028143 0.000001 0.000000 1.602189 0.044136 -0.978485
    5 11.692552 0.000000 0.000002 0.000000 0.000000 -1.187613
    6 10.877595 1.073376 1.996256 0.871086 -1.190834 3.770344
    7 6.028142 0.000001 0.000000 -1.810779 0.520541 -1.162055
    8 11.692555 0.000000 0.000000 0.000000 0.000000 -1.278695
    9 15.328862 2.084520 0.132817 3.409517 -0.100419 -0.156432
    10 3.784980 0.906274 -0.000003 -2.681174 -0.234351 -1.227804
    11 17.848177 0.000000 0.000000 0.000000 0.000000 0.399647
    12 16.525253 0.000000 0.000000 0.138695 0.233959 -0.967509
    13 -3.784980 -0.906274 0.000007 -1.602179 -0.260336 -1.639164
    14 17.848173 0.000000 0.000000 0.000000 0.000000 0.894117
    15 16.525257 0.000000 0.000000 0.316272 0.222820 -1.586453
  time 78
    0 -1.959440 6.019720 35.656672 1.579703 -0.017486 -0.471368
    1 0.000005 3.345128 -2.981901 1.675442 -0.032745 1.614048
    2 7.477502 0.511734 0.398450 0.224827 -0.150958 0.411563
    3 10.901040 1.210105 -1.894640 -2.616889 1.313533 2.146180
    4 6.028143 0.000001 0.000000 1.592407 0.051785 -0.975223
    5 11.692552 0.000000 0.000002 0.000000 0.000000 -1.184563
    6 10.881502 1.100720 1.976724 0.895109 -1.199960 3.747911
    7 6.028142 0.000001 0.000000 -1.824840 0.523145 -1.171706
    8 11.692555 0.000000 0.000000 0.000000 0.000000 -1.278245
    9 15.328862 2.088426 0.089846 3.380851 -0.096033 -0.154134
    10 3.784980 0.906274 -0.000003 -2.681083 -0.234127 -1.227203
    11 17.848177 0.000000 0.000000 0.000000 0.000000 0.400882
    12 16.525253 0.000000 0.000000 0.138235 0.234183 -0.968470
    13 -3.784980 -0.906274 0.000007 -1.602179 -0.259680 -1.638988
    14 17.848173 0.000000 0.000000 0.000000 0.000000 0.894035
    15 16.525257 0.000000 0.000000 0.316237 0.222861 -1.586971
  time 79
    0 -1.967252 6.008001 35.652766 1.579703 -0.017486 -0.471368
    1 0.000005 3.345128 -2.981901 1.675442 -0.032745 1.614048
    2 7.477502 0.511734 0.398450 0.224827 -0.150958 0.411563
    3 10.897134 1.182760 -1.918078 -2.574007 1.324293 2.187706
    4 6.028143 0.000001 0.000000 1.580367 0.060262 -0.971774
    5 11.692552 0.000000 0.000002 0.000000 0.000000 -1.181804
    6 10.885408 1.128065 1.957192 0.925424 -1.210625 3.719727
    7 6.028142 0.000001 0.000000 -1.841525 0.525825 -1.183334
    8 11.692555 0.000000 0.000000 0.000000 0.000000 -1.278320
    9 15.328862 2.088426 0.042970 3.348724 -0.091239 -0.151728
    10 3.784980 0.906274 -0.000003 -2.680991 -0.233992 -1.226517
    11 17.848177 0.000000 0.000000 0.000000 0.000000 0.402427
    12 16.525253 0.000000 0.000000 0.137775 0.234407 -0.969495
    13 -3.784980 -0.906274 0.000007 -1.602179 -0.259155 -1.638988
    14 17.848173 0.000000 0.000000 0.000000 0.000000 0.894035
    15 16.525257 0.000000 0.000000 0.316183 0.222901 -1.587564
  time 80
    0 -1.975065 5.996282 35.652766 1.579703 -0.017486 -0.471368
    1 0.000005 3.345128 -2.981901 1.675442 -0.032745 1.614048
    2 7.477502 0.511734 0.398450 0.224827 -0.150958 0.411563
    3 10.893227 1.155415 -1.937610 -2.531597 1.333701 2.228868
    4 6.028143 0.000001 0.000000 1.569164 0.067542 -0.968885
    5 11.692552 0.000000 0.000002 0.000000 0.000000 -1.179916
    6 10.893221 1.155409 1.937660 0.954499 -1.220054 3.692405
    7 6.028142 0.000001 0.000000 -1.856774 0.527901 -1.193974
    8 11.692555 0.000000 0.000000 0.000000 0.000000 -1.278620
    9 15.328862 2.088426 0.000000 3.321887 -0.087440 -0.149838
    10 3.784980 0.906274 -0.000003 -2.680991 -0.233947 -1.225917
    11 17.848177 0.000000 0.000000 0.000000 0.000000 0.403586
    12 16.525253 0.000000 0.000000 0.137478 0.234569 -0.970296
    13 -3.784980 -0.906274 0.000007 -1.602179 -0.258849 -1.638988
    14 17.848173 0.000000 0.000000 0.000000 0.000000 0.894199
    15 16.525257 0.000000 0.000000 0.316130 0.222961 -1.588046
end
