// Created by Crowbar 0.74
version 1
nodes
  0 "ValveBiped.Bip01" -1
  1 "ValveBiped.Bip01_Spine" 0
  2 "ValveBiped.Bip01_Spine2" 1
  3 "ValveBiped.Bip01_R_Clavicle" 2
  4 "ValveBiped.Bip01_R_UpperArm" 3
  5 "ValveBiped.Bip01_R_Forearm" 4
  6 "ValveBiped.Bip01_L_Clavicle" 2
  7 "ValveBiped.Bip01_L_UpperArm" 6
  8 "ValveBiped.Bip01_L_Forearm" 7
  9 "ValveBiped.Bip01_Head1" 2
  10 "ValveBiped.Bip01_L_Thigh" 0
  11 "ValveBiped.Bip01_L_Calf" 10
  12 "ValveBiped.Bip01_L_Foot" 11
  13 "ValveBiped.Bip01_R_Thigh" 0
  14 "ValveBiped.Bip01_R_Calf" 13
  15 "ValveBiped.Bip01_R_Foot" 14
end
skeleton
  time 0
    0 2.790705 20.426410 37.254377 1.570796 0.000000 -0.000042
    1 0.000005 4.333439 -1.142001 1.570796 -0.260331 1.570796
    2 7.512659 0.203131 0.000000 0.000000 0.000000 0.323949
    3 10.701815 1.424955 -1.937610 -3.064288 1.355133 1.776257
    4 6.028143 0.000001 0.000000 3.338420 0.798593 0.767859
    5 11.692552 0.000000 0.000002 0.000000 0.000000 -2.239841
    6 10.701809 1.424949 1.937660 3.172905 -1.394637 1.600526
    7 6.028142 0.000001 0.000000 -3.077758 -0.895977 0.710151
    8 11.692555 0.000000 0.000000 0.000000 0.000000 -2.257167
    9 14.516338 3.471281 0.000000 2.906716 0.138997 0.891819
    10 3.890452 -0.000004 -0.000003 -1.651488 0.187707 -1.389227
    11 17.848177 0.000000 0.000000 0.000000 0.000000 0.072127
    12 16.525253 0.000000 0.000000 -0.377758 -0.201841 -1.153412
    13 -3.890452 0.000004 0.000007 -1.352296 0.182102 -1.799181
    14 17.848173 0.000000 0.000000 0.000000 0.000000 0.000055
    15 16.525257 0.000000 0.000000 0.377878 0.081233 -1.055441
  time 1
    0 2.790705 20.426410 37.254377 1.570796 0.000000 -0.000042
    1 0.000005 4.333439 -1.142001 1.570796 -0.260331 1.570796
    2 7.512659 0.203131 0.000000 0.000000 0.000000 0.323949
    3 10.701815 1.424955 -1.937610 -3.064288 1.355133 1.776257
    4 6.028143 0.000001 0.000000 3.338420 0.798593 0.767859
    5 11.692552 0.000000 0.000002 0.000000 0.000000 -2.239841
    6 10.701809 1.424949 1.937660 3.172905 -1.394637 1.600526
    7 6.028142 0.000001 0.000000 -3.077758 -0.895977 0.710151
    8 11.692555 0.000000 0.000000 0.000000 0.000000 -2.257167
    9 14.516338 3.471281 0.000000 2.906716 0.138997 0.891841
    10 3.890452 -0.000004 -0.000003 -1.651488 0.187752 -1.389227
    11 17.848177 0.000000 0.000000 0.000000 0.000000 0.072050
    12 16.525253 0.000000 0.000000 -0.377758 -0.201861 -1.153348
    13 -3.890452 0.000004 0.000007 -1.352296 0.182102 -1.799181
    14 17.848173 0.000000 0.000000 0.000000 0.000000 0.000055
    15 16.525257 0.000000 0.000000 0.377878 0.081233 -1.055404
  time 2
    0 2.790705 20.426410 37.254377 1.570796 0.000000 -0.000042
    1 0.000005 4.333439 -1.142001 1.570796 -0.260308 1.570808
    2 7.512659 0.203131 0.000000 0.000000 0.000000 0.323949
    3 10.701815 1.424955 -1.937610 -3.064288 1.355133 1.776257
    4 6.028143 0.000001 0.000000 3.338336 0.798593 0.767859
    5 11.692552 0.000000 0.000002 0.000000 0.000000 -2.239841
    6 10.701809 1.424949 1.937660 3.172905 -1.394637 1.600526
    7 6.028142 0.000001 0.000000 -3.077758 -0.895977 0.710151
    8 11.692555 0.000000 0.000000 0.000000 0.000000 -2.257167
    9 14.516338 3.471281 0.000000 2.906716 0.138997 0.891819
    10 3.890452 -0.000004 -0.000003 -1.651488 0.187842 -1.389227
    11 17.848177 0.000000 0.000000 0.000000 0.000000 0.071818
    12 16.525253 0.000000 0.000000 -0.377758 -0.201861 -1.153187
    13 -3.890452 0.000004 0.000007 -1.352296 0.182059 -1.799181
    14 17.848173 0.000000 0.000000 0.000000 0.000000 0.000055
    15 16.525257 0.000000 0.000000 0.377878 0.081233 -1.055367
  time 3
    0 2.794612 20.426410 37.254377 1.570796 0.000000 -0.000042
    1 0.000005 4.333439 -1.142001 1.570796 -0.260284 1.570844
    2 7.512659 0.203131 0.000000 0.000000 0.000000 0.323949
    3 10.701815 1.424955 -1.937610 -3.064288 1.355133 1.776257
    4 6.028143 0.000001 0.000000 3.338336 0.798593 0.767859
    5 11.692552 0.000000 0.000002 0.000000 0.000000 -2.239841
    6 10.701809 1.424949 1.937660 3.172905 -1.394637 1.600526
    7 6.028142 0.000001 0.000000 -3.077758 -0.896015 0.710111
    8 11.692555 0.000000 0.000000 0.000000 0.000000 -2.257167
    9 14.516338 3.471281 0.000000 2.906716 0.138997 0.891819
    10 3.890452 -0.000004 -0.000003 -1.651488 0.188022 -1.389227
    11 17.848177 0.000000 0.000000 0.000000 0.000000 0.071355
    12 16.525253 0.000000 0.000000 -0.377743 -0.201861 -1.152931
    13 -3.890452 0.000004 0.000007 -1.352296 0.182059 -1.799181
    14 17.848173 0.000000 0.000000 0.000000 0.000000 0.000055
    15 16.525257 0.000000 0.000000 0.377860 0.081233 -1.055330
  time 4
    0 2.794612 20.430316 37.254377 1.570796 0.000000 -0.000042
    1 0.000005 4.333439 -1.142001 1.570796 -0.260261 1.570880
    2 7.512659 0.203131 0.000000 0.000000 0.000000 0.323949
    3 10.701815 1.424955 -1.937610 -3.064288 1.355133 1.776257
    4 6.028143 0.000001 0.000000 3.338252 0.798593 0.767859
    5 11.692552 0.000000 0.000002 0.000000 0.000000 -2.239841
    6 10.701809 1.424949 1.937660 3.172905 -1.394637 1.600526
    7 6.028142 0.000001 0.000000 -3.077758 -0.896015 0.710072
    8 11.692555 0.000000 0.000000 0.000000 0.000000 -2.257167
    9 14.516338 3.471281 0.000000 2.906716 0.138997 0.891841
    10 3.890452 -0.000004 -0.000003 -1.651488 0.188291 -1.389313
    11 17.848177 0.000000 0.000000 0.000000 0.000000 0.070737
    12 16.525253 0.000000 0.000000 -0.377743 -0.201861 -1.152611
    13 -3.890452 0.000004 0.000007 -1.352296 0.182015 -1.799181
    14 17.848173 0.000000 0.000000 0.000000 0.000000 0.000055
    15 16.525257 0.000000 0.000000 0.377842 0.081233 -1.055256
  time 5
    0 2.794612 20.430316 37.254377 1.570796 0.000000 -0.000042
    1 0.000005 4.333439 -1.142001 1.570796 -0.260238 1.570916
    2 7.512659 0.203131 0.000000 0.000000 0.000000 0.323949
    3 10.701815 1.424955 -1.937610 -3.064288 1.355133 1.776257
    4 6.028143 0.000001 0.000000 3.338169 0.798593 0.767766
    5 11.692552 0.000000 0.000002 0.000000 0.000000 -2.239841
    6 10.701809 1.424949 1.937660 3.172905 -1.394637 1.600526
    7 6.028142 0.000001 0.000000 -3.077758 -0.896053 0.710032
    8 11.692555 0.000000 0.000000 0.000000 0.000000 -2.257167
    9 14.516338 3.471281 0.000000 2.906716 0.138997 0.891819
    10 3.890452 -0.000004 -0.000003 -1.651488 0.188560 -1.389313
    11 17.848177 0.000000 0.000000 0.000000 0.000000 0.070042
    12 16.525253 0.000000 0.000000 -0.377728 -0.201882 -1.152195
    13 -3.890452 0.000004 0.000007 -1.352296 0.181971 -1.799181
    14 17.848173 0.000000 0.000000 0.000000 0.000000 0.000055
    15 16.525257 0.000000 0.000000 0.377824 0.081233 -1.055181
  time 6
    0 2.794612 20.430316 37.254377 1.570796 0.000000 -0.000042
    1 0.000005 4.333439 -1.142001 1.570796 -0.260191 1.570964
    2 7.512659 0.203131 0.000000 0.000000 0.000000 0.323949
    3 10.701815 1.424955 -1.937610 -3.064288 1.355133 1.776257
    4 6.028143 0.000001 0.000000 3.338085 0.798593 0.767766
    5 11.692552 0.000000 0.000002 0.000000 0.000000 -2.239841
    6 10.701809 1.424949 1.937660 3.172905 -1.394637 1.600526
    7 6.028142 0.000001 0.000000 -3.077758 -0.896091 0.709993
    8 11.692555 0.000000 0.000000 0.000000 0.000000 -2.257167
    9 14.516338 3.471281 0.000000 2.906716 0.138997 0.891841
    10 3.890452 -0.000004 -0.000003 -1.651579 0.188875 -1.389398
    11 17.848177 0.000000 0.000000 0.000000 0.000000 0.069192
    12 16.525253 0.000000 0.000000 -0.377713 -0.201902 -1.151682
    13 -3.890452 0.000004 0.000007 -1.352296 0.181884 -1.799181
    14 17.848173 0.000000 0.000000 0.000000 0.000000 0.000055
    15 16.525257 0.000000 0.000000 0.377806 0.081253 -1.055070
  time 7
    0 2.794612 20.434222 37.258284 1.570796 0.000000 -0.000042
    1 0.000005 4.333439 -1.142001 1.570796 -0.260144 1.571024
    2 7.512659 0.203131 0.000000 0.000000 0.000000 0.323949
    3 10.701815 1.424955 -1.937610 -3.064288 1.355133 1.776257
    4 6.028143 0.000001 0.000000 3.338002 0.798639 0.767766
    5 11.692552 0.000000 0.000002 0.000000 0.000000 -2.239841
    6 10.701809 1.424949 1.937660 3.172905 -1.394637 1.600526
    7 6.028142 0.000001 0.000000 -3.077758 -0.896166 0.709914
    8 11.692555 0.000000 0.000000 0.000000 0.000000 -2.257167
    9 14.516338 3.471281 0.000000 2.906716 0.138997 0.891819
    10 3.890452 -0.000004 -0.000003 -1.651579 0.189278 -1.389398
    11 17.848177 0.000000 0.000000 0.000000 0.000000 0.068265
    12 16.525253 0.000000 0.000000 -0.377683 -0.201902 -1.151138
    13 -3.890452 0.000004 0.000007 -1.352296 0.181840 -1.799181
    14 17.848173 0.000000 0.000000 0.000000 0.000000 0.000055
    15 16.525257 0.000000 0.000000 0.377789 0.081253 -1.054959
  time 8
    0 2.794612 20.438129 37.258284 1.570796 0.000000 -0.000042
    1 0.000005 4.333439 -1.142001 1.570796 -0.260121 1.571072
    2 7.512659 0.203131 0.000000 0.000000 0.000000 0.323949
    3 10.701815 1.424955 -1.937610 -3.064288 1.355133 1.776257
    4 6.028143 0.000001 0.000000 3.337918 0.798639 0.767673
    5 11.692552 0.000000 0.000002 0.000000 0.000000 -2.239841
    6 10.701809 1.424949 1.937660 3.172905 -1.394637 1.600526
    7 6.028142 0.000001 0.000000 -3.077758 -0.896204 0.709874
    8 11.692555 0.000000 0.000000 0.000000 0.000000 -2.257167
    9 14.516338 3.471281 0.000000 2.906716 0.138997 0.891841
    10 3.890452 -0.000004 -0.000003 -1.651579 0.189682 -1.389484
    11 17.848177 0.000000 0.000000 0.000000 0.000000 0.067261
    12 16.525253 0.000000 0.000000 -0.377669 -0.201923 -1.150561
    13 -3.890452 0.000004 0.000007 -1.352296 0.181753 -1.799181
    14 17.848173 0.000000 0.000000 0.000000 0.000000 0.000055
    15 16.525257 0.000000 0.000000 0.377753 0.081253 -1.054848
  time 9
    0 2.794612 20.438129 37.258284 1.570796 0.000000 -0.000042
    1 0.000005 4.333439 -1.142001 1.570796 -0.260074 1.571132
    2 7.512659 0.203131 0.000000 0.000000 0.000000 0.323949
    3 10.701815 1.424955 -1.937610 -3.064288 1.355133 1.776257
    4 6.028143 0.000001 0.000000 3.337834 0.798639 0.767673
    5 11.692552 0.000000 0.000002 0.000000 0.000000 -2.239841
    6 10.701809 1.424949 1.937660 3.172905 -1.394637 1.600526
    7 6.028142 0.000001 0.000000 -3.077758 -0.896241 0.709795
    8 11.692555 0.000000 0.000000 0.000000 0.000000 -2.257167
    9 14.516338 3.471281 0.000000 2.906716 0.138997 0.891819
    10 3.890452 -0.000004 -0.000003 -1.651579 0.190131 -1.389570
    11 17.848177 0.000000 0.000000 0.000000 0.000000 0.066179
    12 16.525253 0.000000 0.000000 -0.377654 -0.201943 -1.149920
    13 -3.890452 0.000004 0.000007 -1.352296 0.181665 -1.799181
    14 17.848173 0.000000 0.000000 0.000000 0.000000 0.000055
    15 16.525257 0.000000 0.000000 0.377735 0.081253 -1.054700
  time 10
    0 2.794612 20.442035 37.258284 1.570796 0.000000 -0.000042
    1 0.000005 4.333439 -1.142001 1.570796 -0.260004 1.571203
    2 7.512659 0.203131 0.000000 0.000000 0.000000 0.323949
    3 10.701815 1.424955 -1.937610 -3.064288 1.355133 1.776257
    4 6.028143 0.000001 0.000000 3.337751 0.798639 0.767673
    5 11.692552 0.000000 0.000002 0.000000 0.000000 -2.239841
    6 10.701809 1.424949 1.937660 3.172905 -1.394637 1.600526
    7 6.028142 0.000001 0.000000 -3.077709 -0.896317 0.709755
    8 11.692555 0.000000 0.000000 0.000000 0.000000 -2.257167
    9 14.516338 3.471281 0.000000 2.906716 0.138997 0.891819
    10 3.890452 -0.000004 -0.000003 -1.651579 0.190580 -1.389656
    11 17.848177 0.000000 0.000000 0.000000 0.000000 0.065098
    12 16.525253 0.000000 0.000000 -0.377639 -0.201943 -1.149248
    13 -3.890452 0.000004 0.000007 -1.352296 0.181622 -1.799181
    14 17.848173 0.000000 0.000000 0.000000 0.000000 0.000055
    15 16.525257 0.000000 0.000000 0.377699 0.081253 -1.054589
  time 11
    0 2.794612 20.445941 37.262190 1.570796 0.000000 -0.000042
    1 0.000005 4.333439 -1.142001 1.570796 -0.259957 1.571263
    2 7.512659 0.203131 0.000000 0.000000 0.000000 0.323949
    3 10.701815 1.424955 -1.937610 -3.064288 1.355133 1.776257
    4 6.028143 0.000001 0.000000 3.337667 0.798639 0.767580
    5 11.692552 0.000000 0.000002 0.000000 0.000000 -2.239841
    6 10.701809 1.424949 1.937660 3.172905 -1.394637 1.600526
    7 6.028142 0.000001 0.000000 -3.077709 -0.896355 0.709676
    8 11.692555 0.000000 0.000000 0.000000 0.000000 -2.257167
    9 14.516338 3.471281 0.000000 2.906716 0.138997 0.891841
    10 3.890452 -0.000004 -0.000003 -1.651579 0.191074 -1.389656
    11 17.848177 0.000000 0.000000 0.000000 0.000000 0.063939
    12 16.525253 0.000000 0.000000 -0.377609 -0.201963 -1.148575
    13 -3.890452 0.000004 0.000007 -1.352296 0.181534 -1.799181
    14 17.848173 0.000000 0.000000 0.000000 0.000000 0.000055
    15 16.525257 0.000000 0.000000 0.377681 0.081273 -1.054478
  time 12
    0 2.794612 20.445941 37.262190 1.570796 0.000000 -0.000042
    1 0.000005 4.333439 -1.142001 1.570796 -0.259910 1.571323
    2 7.512659 0.203131 0.000000 0.000000 0.000000 0.323949
    3 10.701815 1.424955 -1.937610 -3.064288 1.355133 1.776257
    4 6.028143 0.000001 0.000000 3.337583 0.798639 0.767580
    5 11.692552 0.000000 0.000002 0.000000 0.000000 -2.239841
    6 10.701809 1.424949 1.937660 3.172905 -1.394637 1.600526
    7 6.028142 0.000001 0.000000 -3.077709 -0.896430 0.709637
    8 11.692555 0.000000 0.000000 0.000000 0.000000 -2.257167
    9 14.516338 3.471281 0.000000 2.906716 0.138997 0.891819
    10 3.890452 -0.000004 -0.000003 -1.651579 0.191523 -1.389741
    11 17.848177 0.000000 0.000000 0.000000 0.000000 0.062781
    12 16.525253 0.000000 0.000000 -0.377594 -0.201984 -1.147902
    13 -3.890452 0.000004 0.000007 -1.352296 0.181447 -1.799181
    14 17.848173 0.000000 0.000000 0.000000 0.000000 0.000055
    15 16.525257 0.000000 0.000000 0.377646 0.081273 -1.054329
  time 13
    0 2.794612 20.449848 37.262190 1.570796 0.000000 -0.000042
    1 0.000005 4.333439 -1.142001 1.570796 -0.259864 1.571383
    2 7.512659 0.203131 0.000000 0.000000 0.000000 0.323949
    3 10.701815 1.424955 -1.937610 -3.064288 1.355133 1.776257
    4 6.028143 0.000001 0.000000 3.337416 0.798685 0.767486
    5 11.692552 0.000000 0.000002 0.000000 0.000000 -2.239841
    6 10.701809 1.424949 1.937660 3.172905 -1.394637 1.600526
    7 6.028142 0.000001 0.000000 -3.077709 -0.896468 0.709558
    8 11.692555 0.000000 0.000000 0.000000 0.000000 -2.257167
    9 14.516338 3.471281 0.000000 2.906716 0.138997 0.891841
    10 3.890452 -0.000004 -0.000003 -1.651579 0.192016 -1.389827
    11 17.848177 0.000000 0.000000 0.000000 0.000000 0.061622
    12 16.525253 0.000000 0.000000 -0.377580 -0.202004 -1.147230
    13 -3.890452 0.000004 0.000007 -1.352296 0.181359 -1.799181
    14 17.848173 0.000000 0.000000 0.000000 0.000000 0.000055
    15 16.525257 0.000000 0.000000 0.377628 0.081273 -1.054218
  time 14
    0 2.794612 20.449848 37.262190 1.570796 0.000000 -0.000042
    1 0.000005 4.333439 -1.142001 1.570796 -0.259840 1.571443
    2 7.512659 0.203131 0.000000 0.000000 0.000000 0.323949
    3 10.701815 1.424955 -1.937610 -3.064288 1.355133 1.776257
    4 6.028143 0.000001 0.000000 3.337333 0.798685 0.767486
    5 11.692552 0.000000 0.000002 0.000000 0.000000 -2.239841
    6 10.701809 1.424949 1.937660 3.172905 -1.394637 1.600526
    7 6.028142 0.000001 0.000000 -3.077709 -0.896506 0.709518
    8 11.692555 0.000000 0.000000 0.000000 0.000000 -2.257167
    9 14.516338 3.471281 0.000000 2.906716 0.138997 0.891841
    10 3.890452 -0.000004 -0.000003 -1.651579 0.192465 -1.389913
    11 17.848177 0.000000 0.000000 0.000000 0.000000 0.060463
    12 16.525253 0.000000 0.000000 -0.377550 -0.202004 -1.146589
    13 -3.890452 0.000004 0.000007 -1.352296 0.181316 -1.799181
    14 17.848173 0.000000 0.000000 0.000000 0.000000 0.000055
    15 16.525257 0.000000 0.000000 0.377592 0.081273 -1.054107
  time 15
    0 2.798518 20.453754 37.266096 1.570796 0.000000 -0.000042
    1 0.000005 4.333439 -1.142001 1.570796 -0.259794 1.571491
    2 7.512659 0.203131 0.000000 0.000000 0.000000 0.323949
    3 10.701815 1.424955 -1.937610 -3.064288 1.355133 1.776257
    4 6.028143 0.000001 0.000000 3.337249 0.798685 0.767486
    5 11.692552 0.000000 0.000002 0.000000 0.000000 -2.239841
    6 10.701809 1.424949 1.937660 3.172905 -1.394637 1.600526
    7 6.028142 0.000001 0.000000 -3.077709 -0.896581 0.709439
    8 11.692555 0.000000 0.000000 0.000000 0.000000 -2.257167
    9 14.516338 3.471281 0.000000 2.906716 0.138997 0.891819
    10 3.890452 -0.000004 -0.000003 -1.651579 0.192914 -1.389913
    11 17.848177 0.000000 0.000000 0.000000 0.000000 0.059382
    12 16.525253 0.000000 0.000000 -0.377535 -0.202024 -1.145981
    13 -3.890452 0.000004 0.000007 -1.352296 0.181228 -1.799181
    14 17.848173 0.000000 0.000000 0.000000 0.000000 0.000055
    15 16.525257 0.000000 0.000000 0.377574 0.081273 -1.053996
  time 16
    0 2.798518 20.453754 37.266096 1.570796 0.000000 -0.000042
    1 0.000005 4.333439 -1.142001 1.570796 -0.259747 1.571539
    2 7.512659 0.203131 0.000000 0.000000 0.000000 0.323949
    3 10.701815 1.424955 -1.937610 -3.064288 1.355133 1.776257
    4 6.028143 0.000001 0.000000 3.337165 0.798685 0.767486
    5 11.692552 0.000000 0.000002 0.000000 0.000000 -2.239841
    6 10.701809 1.424949 1.937660 3.172905 -1.394637 1.600526
    7 6.028142 0.000001 0.000000 -3.077709 -0.896619 0.709399
    8 11.692555 0.000000 0.000000 0.000000 0.000000 -2.257167
    9 14.516338 3.471281 0.000000 2.906716 0.138997 0.891819
    10 3.890452 -0.000004 -0.000003 -1.651579 0.193318 -1.389999
    11 17.848177 0.000000 0.000000 0.000000 0.000000 0.058455
    12 16.525253 0.000000 0.000000 -0.377520 -0.202024 -1.145404
    13 -3.890452 0.000004 0.000007 -1.352296 0.181184 -1.799181
    14 17.848173 0.000000 0.000000 0.000000 0.000000 0.000055
    15 16.525257 0.000000 0.000000 0.377556 0.081293 -1.053885
  time 17
    0 2.798518 20.457661 37.266096 1.570796 0.000000 -0.000042
    1 0.000005 4.333439 -1.142001 1.570796 -0.259724 1.571587
    2 7.512659 0.203131 0.000000 0.000000 0.000000 0.323949
    3 10.701815 1.424955 -1.937610 -3.064288 1.355133 1.776257
    4 6.028143 0.000001 0.000000 3.337165 0.798685 0.767393
    5 11.692552 0.000000 0.000002 0.000000 0.000000 -2.239841
    6 10.701809 1.424949 1.937660 3.172905 -1.394637 1.600526
    7 6.028142 0.000001 0.000000 -3.077709 -0.896657 0.709360
    8 11.692555 0.000000 0.000000 0.000000 0.000000 -2.257167
    9 14.516338 3.471281 0.000000 2.906716 0.138997 0.891819
    10 3.890452 -0.000004 -0.000003 -1.651579 0.193722 -1.389999
    11 17.848177 0.000000 0.000000 0.000000 0.000000 0.057528
    12 16.525253 0.000000 0.000000 -0.377505 -0.202045 -1.144892
    13 -3.890452 0.000004 0.000007 -1.352296 0.181141 -1.799181
    14 17.848173 0.000000 0.000000 0.000000 0.000000 0.000055
    15 16.525257 0.000000 0.000000 0.377539 0.081293 -1.053811
  time 18
    0 2.798518 20.457661 37.266096 1.570796 0.000000 -0.000042
    1 0.000005 4.333439 -1.142001 1.570796 -0.259700 1.571623
    2 7.512659 0.203131 0.000000 0.000000 0.000000 0.323949
    3 10.701815 1.424955 -1.937610 -3.064288 1.355133 1.776257
    4 6.028143 0.000001 0.000000 3.337082 0.798685 0.767393
    5 11.692552 0.000000 0.000002 0.000000 0.000000 -2.239841
    6 10.701809 1.424949 1.937660 3.172905 -1.394637 1.600526
    7 6.028142 0.000001 0.000000 -3.077709 -0.896657 0.709320
    8 11.692555 0.000000 0.000000 0.000000 0.000000 -2.257167
    9 14.516338 3.471281 0.000000 2.906716 0.138997 0.891819
    10 3.890452 -0.000004 -0.000003 -1.651579 0.193991 -1.390084
    11 17.848177 0.000000 0.000000 0.000000 0.000000 0.056833
    12 16.525253 0.000000 0.000000 -0.377505 -0.202045 -1.144475
    13 -3.890452 0.000004 0.000007 -1.352386 0.181097 -1.799181
    14 17.848173 0.000000 0.000000 0.000000 0.000000 0.000055
    15 16.525257 0.000000 0.000000 0.377521 0.081293 -1.053737
  time 19
    0 2.798518 20.461567 37.266096 1.570796 0.000000 -0.000042
    1 0.000005 4.333439 -1.142001 1.570796 -0.259677 1.571647
    2 7.512659 0.203131 0.000000 0.000000 0.000000 0.323949
    3 10.701815 1.424955 -1.937610 -3.064288 1.355133 1.776257
    4 6.028143 0.000001 0.000000 3.336998 0.798685 0.767393
    5 11.692552 0.000000 0.000002 0.000000 0.000000 -2.239841
    6 10.701809 1.424949 1.937660 3.172905 -1.394637 1.600526
    7 6.028142 0.000001 0.000000 -3.077659 -0.896694 0.709281
    8 11.692555 0.000000 0.000000 0.000000 0.000000 -2.257167
    9 14.516338 3.471281 0.000000 2.906716 0.138997 0.891819
    10 3.890452 -0.000004 -0.000003 -1.651579 0.194261 -1.390084
    11 17.848177 0.000000 0.000000 0.000000 0.000000 0.056292
    12 16.525253 0.000000 0.000000 -0.377490 -0.202065 -1.144155
    13 -3.890452 0.000004 0.000007 -1.352386 0.181053 -1.799181
    14 17.848173 0.000000 0.000000 0.000000 0.000000 0.000055
    15 16.525257 0.000000 0.000000 0.377503 0.081293 -1.053662
  time 20
    0 2.798518 20.461567 37.266096 1.570796 0.000000 -0.000042
    1 0.000005 4.333439 -1.142001 1.570796 -0.259653 1.571659
    2 7.512659 0.203131 0.000000 0.000000 0.000000 0.323949
    3 10.701815 1.424955 -1.937610 -3.064288 1.355133 1.776257
    4 6.028143 0.000001 0.000000 3.336998 0.798731 0.767393
    5 11.692552 0.000000 0.000002 0.000000 0.000000 -2.239841
    6 10.701809 1.424949 1.937660 3.172905 -1.394637 1.600526
    7 6.028142 0.000001 0.000000 -3.077659 -0.896694 0.709281
    8 11.692555 0.000000 0.000000 0.000000 0.000000 -2.257167
    9 14.516338 3.471281 0.000000 2.906716 0.138997 0.891841
    10 3.890452 -0.000004 -0.000003 -1.651671 0.194395 -1.390084
    11 17.848177 0.000000 0.000000 0.000000 0.000000 0.055906
    12 16.525253 0.000000 0.000000 -0.377490 -0.202065 -1.143963
    13 -3.890452 0.000004 0.000007 -1.352386 0.181053 -1.799181
    14 17.848173 0.000000 0.000000 0.000000 0.000000 0.000055
    15 16.525257 0.000000 0.000000 0.377503 0.081293 -1.053625
  time 21
    0 2.798518 20.461567 37.266096 1.570796 0.000000 -0.000042
    1 0.000005 4.333439 -1.142001 1.570796 -0.259653 1.571671
    2 7.512659 0.203131 0.000000 0.000000 0.000000 0.323949
    3 10.701815 1.424955 -1.937610 -3.064288 1.355133 1.776257
    4 6.028143 0.000001 0.000000 3.336998 0.798731 0.767393
    5 11.692552 0.000000 0.000002 0.000000 0.000000 -2.239841
    6 10.701809 1.424949 1.937660 3.172905 -1.394637 1.600526
    7 6.028142 0.000001 0.000000 -3.077659 -0.896694 0.709281
    8 11.692555 0.000000 0.000000 0.000000 0.000000 -2.257167
    9 14.516338 3.471281 0.000000 2.906716 0.138997 0.891819
    10 3.890452 -0.000004 -0.000003 -1.651671 0.194440 -1.390084
    11 17.848177 0.000000 0.000000 0.000000 0.000000 0.055829
    12 16.525253 0.000000 0.000000 -0.377476 -0.202065 -1.143899
    13 -3.890452 0.000004 0.000007 -1.352386 0.181010 -1.799181
    14 17.848173 0.000000 0.000000 0.000000 0.000000 0.000055
    15 16.525257 0.000000 0.000000 0.377503 0.081293 -1.053625
  time 22
    0 2.798518 20.461567 37.266096 1.570796 0.000000 -0.000042
    1 0.000005 4.333439 -1.142001 1.570796 -0.259653 1.571647
    2 7.512659 0.203131 0.000000 0.000000 0.000000 0.323949
    3 10.701815 1.424955 -1.937610 -3.064288 1.355133 1.776257
    4 6.028143 0.000001 0.000000 3.336998 0.798731 0.767393
    5 11.692552 0.000000 0.000002 0.000000 0.000000 -2.239841
    6 10.701809 1.424949 1.937660 3.172905 -1.394637 1.600526
    7 6.028142 0.000001 0.000000 -3.077659 -0.896694 0.709281
    8 11.692555 0.000000 0.000000 0.000000 0.000000 -2.257167
    9 14.516338 3.471281 0.000000 2.906716 0.138997 0.891841
    10 3.890452 -0.000004 -0.000003 -1.651671 0.194306 -1.390084
    11 17.848177 0.000000 0.000000 0.000000 0.000000 0.056138
    12 16.525253 0.000000 0.000000 -0.377490 -0.202065 -1.144091
    13 -3.890452 0.000004 0.000007 -1.352386 0.181053 -1.799181
    14 17.848173 0.000000 0.000000 0.000000 0.000000 0.000055
    15 16.525257 0.000000 0.000000 0.377503 0.081293 -1.053662
  time 23
    0 2.798518 20.457661 37.266096 1.570796 0.000000 -0.000042
    1 0.000005 4.333439 -1.142001 1.570796 -0.259700 1.571599
    2 7.512659 0.203131 0.000000 0.000000 0.000000 0.323949
    3 10.701815 1.424955 -1.937610 -3.064288 1.355133 1.776257
    4 6.028143 0.000001 0.000000 3.337082 0.798731 0.767393
    5 11.692552 0.000000 0.000002 0.000000 0.000000 -2.239841
    6 10.701809 1.424949 1.937660 3.172905 -1.394637 1.600526
    7 6.028142 0.000001 0.000000 -3.077659 -0.896657 0.709320
    8 11.692555 0.000000 0.000000 0.000000 0.000000 -2.257167
    9 14.516338 3.471281 0.000000 2.906716 0.138997 0.891819
    10 3.890452 -0.000004 -0.000003 -1.651579 0.193857 -1.389999
    11 17.848177 0.000000 0.000000 0.000000 0.000000 0.057142
    12 16.525253 0.000000 0.000000 -0.377520 -0.202045 -1.144635
    13 -3.890452 0.000004 0.000007 -1.352296 0.181097 -1.799181
    14 17.848173 0.000000 0.000000 0.000000 0.000000 0.000055
    15 16.525257 0.000000 0.000000 0.377521 0.081293 -1.053774
  time 24
    0 2.794612 20.453754 37.266096 1.570796 0.000000 -0.000042
    1 0.000005 4.333439 -1.142001 1.570796 -0.259747 1.571503
    2 7.512659 0.203131 0.000000 0.000000 0.000000 0.323949
    3 10.701815 1.424955 -1.937610 -3.064288 1.355133 1.776257
    4 6.028143 0.000001 0.000000 3.337249 0.798731 0.767393
    5 11.692552 0.000000 0.000002 0.000000 0.000000 -2.239841
    6 10.701809 1.424949 1.937660 3.172905 -1.394637 1.600526
    7 6.028142 0.000001 0.000000 -3.077659 -0.896619 0.709399
    8 11.692555 0.000000 0.000000 0.000000 0.000000 -2.257167
    9 14.516338 3.471281 0.000000 2.906716 0.138997 0.891819
    10 3.890452 -0.000004 -0.000003 -1.651579 0.193228 -1.389913
    11 17.848177 0.000000 0.000000 0.000000 0.000000 0.058687
    12 16.525253 0.000000 0.000000 -0.377565 -0.202004 -1.145532
    13 -3.890452 0.000004 0.000007 -1.352296 0.181184 -1.799181
    14 17.848173 0.000000 0.000000 0.000000 0.000000 0.000055
    15 16.525257 0.000000 0.000000 0.377539 0.081313 -1.053959
  time 25
    0 2.794612 20.449848 37.262190 1.570796 0.000000 -0.000042
    1 0.000005 4.333439 -1.142001 1.570796 -0.259794 1.571395
    2 7.512659 0.203131 0.000000 0.000000 0.000000 0.323949
    3 10.701815 1.424955 -1.937610 -3.064288 1.355133 1.776257
    4 6.028143 0.000001 0.000000 3.337333 0.798731 0.767486
    5 11.692552 0.000000 0.000002 0.000000 0.000000 -2.239841
    6 10.701809 1.424949 1.937660 3.172905 -1.394637 1.600526
    7 6.028142 0.000001 0.000000 -3.077610 -0.896506 0.709479
    8 11.692555 0.000000 0.000000 0.000000 0.000000 -2.257167
    9 14.516338 3.471281 0.000000 2.906716 0.138997 0.891819
    10 3.890452 -0.000004 -0.000003 -1.651579 0.192420 -1.389827
    11 17.848177 0.000000 0.000000 0.000000 0.000000 0.060541
    12 16.525253 0.000000 0.000000 -0.377609 -0.201963 -1.146621
    13 -3.890452 0.000004 0.000007 -1.352296 0.181316 -1.799093
    14 17.848173 0.000000 0.000000 0.000000 0.000000 0.000055
    15 16.525257 0.000000 0.000000 0.377574 0.081313 -1.054181
  time 26
    0 2.790705 20.445941 37.262190 1.570796 0.000000 -0.000042
    1 0.000005 4.333439 -1.142001 1.570796 -0.259864 1.571263
    2 7.512659 0.203131 0.000000 0.000000 0.000000 0.323949
    3 10.701815 1.424955 -1.937610 -3.064288 1.355133 1.776257
    4 6.028143 0.000001 0.000000 3.337583 0.798731 0.767486
    5 11.692552 0.000000 0.000002 0.000000 0.000000 -2.239841
    6 10.701809 1.424949 1.937660 3.172905 -1.394637 1.600526
    7 6.028142 0.000001 0.000000 -3.077610 -0.896430 0.709558
    8 11.692555 0.000000 0.000000 0.000000 0.000000 -2.257167
    9 14.516338 3.471281 0.000000 2.906716 0.138997 0.891841
    10 3.890452 -0.000004 -0.000003 -1.651579 0.191523 -1.389656
    11 17.848177 0.000000 0.000000 0.000000 0.000000 0.062781
    12 16.525253 0.000000 0.000000 -0.377683 -0.201923 -1.147902
    13 -3.890452 0.000004 0.000007 -1.352296 0.181447 -1.799093
    14 17.848173 0.000000 0.000000 0.000000 0.000000 0.000055
    15 16.525257 0.000000 0.000000 0.377610 0.081333 -1.054478
  time 27
    0 2.790705 20.442035 37.258284 1.570796 0.000000 -0.000042
    1 0.000005 4.333439 -1.142001 1.570796 -0.259934 1.571108
    2 7.512659 0.203131 0.000000 0.000000 0.000000 0.323949
    3 10.701815 1.424955 -1.937610 -3.064288 1.355133 1.776257
    4 6.028143 0.000001 0.000000 3.337751 0.798731 0.767580
    5 11.692552 0.000000 0.000002 0.000000 0.000000 -2.239841
    6 10.701809 1.424949 1.937660 3.172905 -1.394637 1.600526
    7 6.028142 0.000001 0.000000 -3.077560 -0.896317 0.709676
    8 11.692555 0.000000 0.000000 0.000000 0.000000 -2.257167
    9 14.516338 3.471281 0.000000 2.906716 0.138997 0.891819
    10 3.890452 -0.000004 -0.000003 -1.651579 0.190490 -1.389484
    11 17.848177 0.000000 0.000000 0.000000 0.000000 0.065253
    12 16.525253 0.000000 0.000000 -0.377758 -0.201861 -1.149312
    13 -3.890452 0.000004 0.000007 -1.352296 0.181622 -1.799004
    14 17.848173 0.000000 0.000000 0.000000 0.000000 0.000055
    15 16.525257 0.000000 0.000000 0.377646 0.081353 -1.054811
  time 28
    0 2.786799 20.438129 37.258284 1.570796 0.000000 -0.000042
    1 0.000005 4.333439 -1.142001 1.570796 -0.260027 1.570940
    2 7.512659 0.203131 0.000000 0.000000 0.000000 0.323949
    3 10.701815 1.424955 -1.937610 -3.064288 1.355133 1.776257
    4 6.028143 0.000001 0.000000 3.338002 0.798731 0.767580
    5 11.692552 0.000000 0.000002 0.000000 0.000000 -2.239841
    6 10.701809 1.424949 1.937660 3.172905 -1.394637 1.600526
    7 6.028142 0.000001 0.000000 -3.077560 -0.896204 0.709795
    8 11.692555 0.000000 0.000000 0.000000 0.000000 -2.257167
    9 14.516338 3.471281 0.000000 2.906716 0.138997 0.891841
    10 3.890452 -0.000004 -0.000003 -1.651579 0.189458 -1.389313
    11 17.848177 0.000000 0.000000 0.000000 0.000000 0.067802
    12 16.525253 0.000000 0.000000 -0.377832 -0.201800 -1.150785
    13 -3.890452 0.000004 0.000007 -1.352296 0.181796 -1.799004
    14 17.848173 0.000000 0.000000 0.000000 0.000000 0.000055
    15 16.525257 0.000000 0.000000 0.377699 0.081373 -1.055144
  time 29
    0 2.786799 20.430316 37.254377 1.570796 0.000000 -0.000042
    1 0.000005 4.333439 -1.142001 1.570796 -0.260121 1.570772
    2 7.512659 0.203131 0.000000 0.000000 0.000000 0.323949
    3 10.701815 1.424955 -1.937610 -3.064288 1.355133 1.776257
    4 6.028143 0.000001 0.000000 3.338169 0.798731 0.767673
    5 11.692552 0.000000 0.000002 0.000000 0.000000 -2.239841
    6 10.701809 1.424949 1.937660 3.172905 -1.394637 1.600526
    7 6.028142 0.000001 0.000000 -3.077511 -0.896091 0.709914
    8 11.692555 0.000000 0.000000 0.000000 0.000000 -2.257167
    9 14.516338 3.471281 0.000000 2.906716 0.138997 0.891841
    10 3.890452 -0.000004 -0.000003 -1.651488 0.188426 -1.389055
    11 17.848177 0.000000 0.000000 0.000000 0.000000 0.070351
    12 16.525253 0.000000 0.000000 -0.377921 -0.201739 -1.152259
    13 -3.890452 0.000004 0.000007 -1.352296 0.181971 -1.798916
    14 17.848173 0.000000 0.000000 0.000000 0.000000 0.000055
    15 16.525257 0.000000 0.000000 0.377753 0.081393 -1.055515
  time 30
    0 2.782892 20.422503 37.250471 1.570796 0.000000 -0.000042
    1 0.000005 4.333439 -1.142001 1.570796 -0.260214 1.570592
    2 7.512659 0.203131 0.000000 0.000000 0.000000 0.323949
    3 10.701815 1.424955 -1.937610 -3.064288 1.355133 1.776257
    4 6.028143 0.000001 0.000000 3.338420 0.798731 0.767766
    5 11.692552 0.000000 0.000002 0.000000 0.000000 -2.239841
    6 10.701809 1.424949 1.937660 3.172905 -1.394637 1.600526
    7 6.028142 0.000001 0.000000 -3.077461 -0.895977 0.710072
    8 11.692555 0.000000 0.000000 0.000000 0.000000 -2.257167
    9 14.516338 3.471281 0.000000 2.906716 0.138997 0.891841
    10 3.890452 -0.000004 -0.000003 -1.651488 0.187393 -1.388884
    11 17.848177 0.000000 0.000000 0.000000 0.000000 0.072900
    12 16.525253 0.000000 0.000000 -0.378010 -0.201658 -1.153764
    13 -3.890452 0.000004 0.000007 -1.352296 0.182146 -1.798828
    14 17.848173 0.000000 0.000000 0.000000 0.000000 0.000055
    15 16.525257 0.000000 0.000000 0.377806 0.081393 -1.055885
  time 31
    0 2.778986 20.418597 37.246565 1.570796 0.000000 -0.000042
    1 0.000005 4.333439 -1.142001 1.570796 -0.260308 1.570413
    2 7.512659 0.203131 0.000000 0.000000 0.000000 0.323949
    3 10.701815 1.424955 -1.937610 -3.064288 1.355133 1.776257
    4 6.028143 0.000001 0.000000 3.338670 0.798731 0.767766
    5 11.692552 0.000000 0.000002 0.000000 0.000000 -2.239841
    6 10.701809 1.424949 1.937660 3.172905 -1.394637 1.600526
    7 6.028142 0.000001 0.000000 -3.077411 -0.895826 0.710190
    8 11.692555 0.000000 0.000000 0.000000 0.000000 -2.257167
    9 14.516338 3.471281 0.000000 2.906716 0.138997 0.891841
    10 3.890452 -0.000004 -0.000003 -1.651488 0.186406 -1.388712
    11 17.848177 0.000000 0.000000 0.000000 0.000000 0.075372
    12 16.525253 0.000000 0.000000 -0.378084 -0.201597 -1.155205
    13 -3.890452 0.000004 0.000007 -1.352296 0.182321 -1.798828
    14 17.848173 0.000000 0.000000 0.000000 0.000000 0.000055
    15 16.525257 0.000000 0.000000 0.377842 0.081414 -1.056256
  time 32
    0 2.778986 20.410784 37.246565 1.570796 0.000000 -0.000042
    1 0.000005 4.333439 -1.138095 1.570796 -0.260378 1.570245
    2 7.512659 0.203131 0.000000 0.000000 0.000000 0.323949
    3 10.701815 1.424955 -1.937610 -3.064288 1.355133 1.776257
    4 6.028143 0.000001 0.000000 3.338921 0.798731 0.767859
    5 11.692552 0.000000 0.000002 0.000000 0.000000 -2.239841
    6 10.701809 1.424949 1.937660 3.172905 -1.394637 1.600526
    7 6.028142 0.000001 0.000000 -3.077411 -0.895713 0.710309
    8 11.692555 0.000000 0.000000 0.000000 0.000000 -2.257167
    9 14.516338 3.471281 0.000000 2.906716 0.138997 0.891841
    10 3.890452 -0.000004 -0.000003 -1.651488 0.185463 -1.388541
    11 17.848177 0.000000 0.000000 0.000000 0.000000 0.077689
    12 16.525253 0.000000 0.000000 -0.378173 -0.201536 -1.156551
    13 -3.890452 0.000004 0.000007 -1.352296 0.182496 -1.798740
    14 17.848173 0.000000 0.000000 0.000000 0.000000 0.000055
    15 16.525257 0.000000 0.000000 0.377896 0.081434 -1.056626
  time 33
    0 2.775080 20.406878 37.242658 1.570796 0.000000 -0.000042
    1 0.000005 4.333439 -1.138095 1.570796 -0.260471 1.570077
    2 7.512659 0.203131 0.000000 0.000000 0.000000 0.323949
    3 10.701815 1.424955 -1.937610 -3.064288 1.355133 1.776257
    4 6.028143 0.000001 0.000000 3.339172 0.798731 0.767859
    5 11.692552 0.000000 0.000002 0.000000 0.000000 -2.239841
    6 10.701809 1.424949 1.937660 3.172905 -1.394637 1.600526
    7 6.028142 0.000001 0.000000 -3.077362 -0.895600 0.710428
    8 11.692555 0.000000 0.000000 0.000000 0.000000 -2.257167
    9 14.516338 3.471281 0.000000 2.906716 0.138997 0.891819
    10 3.890452 -0.000004 -0.000003 -1.651488 0.184610 -1.388369
    11 17.848177 0.000000 0.000000 0.000000 0.000000 0.079775
    12 16.525253 0.000000 0.000000 -0.378247 -0.201475 -1.157832
    13 -3.890452 0.000004 0.000007 -1.352296 0.182671 -1.798652
    14 17.848173 0.000000 0.000000 0.000000 0.000000 0.000055
    15 16.525257 0.000000 0.000000 0.377949 0.081454 -1.056997
  time 34
    0 2.775080 20.402971 37.242658 1.570796 0.000000 -0.000042
    1 0.000005 4.333439 -1.138095 1.570796 -0.260541 1.569921
    2 7.512659 0.203131 0.000000 0.000000 0.000000 0.323949
    3 10.701815 1.424955 -1.937610 -3.064288 1.355133 1.776257
    4 6.028143 0.000001 0.000000 3.339339 0.798777 0.767952
    5 11.692552 0.000000 0.000002 0.000000 0.000000 -2.239841
    6 10.701809 1.424949 1.937660 3.172905 -1.394637 1.600526
    7 6.028142 0.000001 0.000000 -3.077362 -0.895487 0.710546
    8 11.692555 0.000000 0.000000 0.000000 0.000000 -2.257167
    9 14.516338 3.471281 0.000000 2.906716 0.138997 0.891841
    10 3.890452 -0.000004 -0.000003 -1.651488 0.183892 -1.388197
    11 17.848177 0.000000 0.000000 0.000000 0.000000 0.081706
    12 16.525253 0.000000 0.000000 -0.378322 -0.201414 -1.158953
    13 -3.890452 0.000004 0.000007 -1.352296 0.182845 -1.798652
    14 17.848173 0.000000 0.000000 0.000000 0.000000 0.000055
    15 16.525257 0.000000 0.000000 0.377985 0.081474 -1.057293
  time 35
    0 2.771173 20.399065 37.238752 1.570796 0.000000 -0.000042
    1 0.003911 4.333439 -1.138095 1.570796 -0.260611 1.569789
    2 7.512659 0.203131 0.000000 0.000000 0.000000 0.323949
    3 10.701815 1.424955 -1.937610 -3.064288 1.355133 1.776257
    4 6.028143 0.000001 0.000000 3.339507 0.798777 0.767952
    5 11.692552 0.000000 0.000002 0.000000 0.000000 -2.239841
    6 10.701809 1.424949 1.937660 3.172905 -1.394637 1.600526
    7 6.028142 0.000001 0.000000 -3.077312 -0.895411 0.710626
    8 11.692555 0.000000 0.000000 0.000000 0.000000 -2.257167
    9 14.516338 3.471281 0.000000 2.906716 0.138997 0.891841
    10 3.890452 -0.003910 -0.000003 -1.651396 0.183219 -1.388026
    11 17.848177 0.000000 0.000000 0.000000 0.000000 0.083328
    12 16.525253 0.000000 0.000000 -0.378396 -0.201373 -1.159946
    13 -3.890452 0.003910 0.000007 -1.352296 0.182977 -1.798564
    14 17.848173 0.000000 0.000000 0.000000 0.000000 0.000055
    15 16.525257 0.000000 0.000000 0.378021 0.081474 -1.057590
  time 36
    0 2.771173 20.395159 37.238752 1.570796 0.000000 -0.000042
    1 0.003911 4.333439 -1.138095 1.570796 -0.260681 1.569669
    2 7.512659 0.203131 0.000000 0.000000 0.000000 0.323949
    3 10.701815 1.424955 -1.937610 -3.064288 1.355133 1.776257
    4 6.028143 0.000001 0.000000 3.339674 0.798777 0.768046
    5 11.692552 0.000000 0.000002 0.000000 0.000000 -2.239841
    6 10.701809 1.424949 1.937660 3.172905 -1.394637 1.600526
    7 6.028142 0.000001 0.000000 -3.077263 -0.895336 0.710744
    8 11.692555 0.000000 0.000000 0.000000 0.000000 -2.257167
    9 14.516338 3.471281 0.000000 2.906716 0.138997 0.891841
    10 3.890452 -0.003910 -0.000003 -1.651396 0.182680 -1.387940
    11 17.848177 0.000000 0.000000 0.000000 0.000000 0.084718
    12 16.525253 0.000000 0.000000 -0.378440 -0.201333 -1.160747
    13 -3.890452 0.003910 0.000007 -1.352205 0.183108 -1.798564
    14 17.848173 0.000000 0.000000 0.000000 0.000000 0.000055
    15 16.525257 0.000000 0.000000 0.378056 0.081494 -1.057812
  time 37
    0 2.767267 20.391252 37.234846 1.570796 0.000000 -0.000042
    1 0.003911 4.333439 -1.138095 1.570796 -0.260728 1.569586
    2 7.512659 0.203131 0.000000 0.000000 0.000000 0.323949
    3 10.701815 1.424955 -1.937610 -3.064288 1.355133 1.776257
    4 6.028143 0.000001 0.000000 3.339757 0.798777 0.768046
    5 11.692552 0.000000 0.000002 0.000000 0.000000 -2.239841
    6 10.701809 1.424949 1.937660 3.172905 -1.394637 1.600526
    7 6.028142 0.000001 0.000000 -3.077263 -0.895260 0.710784
    8 11.692555 0.000000 0.000000 0.000000 0.000000 -2.257167
    9 14.516338 3.471281 0.000000 2.906716 0.138997 0.891841
    10 3.890452 -0.003910 -0.000003 -1.651396 0.182276 -1.387854
    11 17.848177 0.000000 0.000000 0.000000 0.000000 0.085722
    12 16.525253 0.000000 0.000000 -0.378485 -0.201292 -1.161355
    13 -3.890452 0.003910 0.000007 -1.352205 0.183195 -1.798564
    14 17.848173 0.000000 0.000000 0.000000 0.000000 0.000055
    15 16.525257 0.000000 0.000000 0.378074 0.081494 -1.057997
  time 38
    0 2.767267 20.387346 37.234846 1.570796 0.000000 -0.000042
    1 0.003911 4.333439 -1.138095 1.570796 -0.260752 1.569526
    2 7.512659 0.203131 0.000000 0.000000 0.000000 0.323949
    3 10.701815 1.424955 -1.937610 -3.064288 1.355133 1.776257
    4 6.028143 0.000001 0.000000 3.339841 0.798777 0.768046
    5 11.692552 0.000000 0.000002 0.000000 0.000000 -2.239841
    6 10.701809 1.424949 1.937660 3.172905 -1.394637 1.600526
    7 6.028142 0.000001 0.000000 -3.077263 -0.895222 0.710823
    8 11.692555 0.000000 0.000000 0.000000 0.000000 -2.257167
    9 14.516338 3.471281 0.000000 2.906716 0.138997 0.891841
    10 3.890452 -0.003910 -0.000003 -1.651396 0.182052 -1.387854
    11 17.848177 0.000000 0.000000 0.000000 0.000000 0.086418
    12 16.525253 0.000000 0.000000 -0.378515 -0.201272 -1.161739
    13 -3.890452 0.003910 0.000007 -1.352205 0.183239 -1.798476
    14 17.848173 0.000000 0.000000 0.000000 0.000000 0.000055
    15 16.525257 0.000000 0.000000 0.378092 0.081514 -1.058108
  time 39
    0 2.767267 20.387346 37.234846 1.570796 0.000000 -0.000042
    1 0.003911 4.333439 -1.138095 1.570796 -0.260752 1.569514
    2 7.512659 0.203131 0.000000 0.000000 0.000000 0.323949
    3 10.701815 1.424955 -1.937610 -3.064288 1.355133 1.776257
    4 6.028143 0.000001 0.000000 3.339841 0.798777 0.768046
    5 11.692552 0.000000 0.000002 0.000000 0.000000 -2.239841
    6 10.701809 1.424949 1.937660 3.172905 -1.394637 1.600526
    7 6.028142 0.000001 0.000000 -3.077263 -0.895222 0.710823
    8 11.692555 0.000000 0.000000 0.000000 0.000000 -2.257167
    9 14.516338 3.471281 0.000000 2.906716 0.138997 0.891819
    10 3.890452 -0.003910 -0.000003 -1.651396 0.181962 -1.387769
    11 17.848177 0.000000 0.000000 0.000000 0.000000 0.086572
    12 16.525253 0.000000 0.000000 -0.378529 -0.201272 -1.161868
    13 -3.890452 0.003910 0.000007 -1.352205 0.183239 -1.798476
    14 17.848173 0.000000 0.000000 0.000000 0.000000 0.000055
    15 16.525257 0.000000 0.000000 0.378110 0.081514 -1.058146
  time 40
    0 2.767267 20.387346 37.234846 1.570796 0.000000 -0.000042
    1 0.003911 4.333439 -1.138095 1.570796 -0.260752 1.569526
    2 7.512659 0.203131 0.000000 0.000000 0.000000 0.323949
    3 10.701815 1.424955 -1.937610 -3.064288 1.355133 1.776257
    4 6.028143 0.000001 0.000000 3.339841 0.798777 0.768046
    5 11.692552 0.000000 0.000002 0.000000 0.000000 -2.239841
    6 10.701809 1.424949 1.937660 3.172905 -1.394637 1.600526
    7 6.028142 0.000001 0.000000 -3.077263 -0.895222 0.710823
    8 11.692555 0.000000 0.000000 0.000000 0.000000 -2.257167
    9 14.516338 3.471281 0.000000 2.906716 0.138997 0.891819
    10 3.890452 -0.003910 -0.000003 -1.651396 0.182007 -1.387769
    11 17.848177 0.000000 0.000000 0.000000 0.000000 0.086495
    12 16.525253 0.000000 0.000000 -0.378515 -0.201272 -1.161804
    13 -3.890452 0.003910 0.000007 -1.352205 0.183239 -1.798476
    14 17.848173 0.000000 0.000000 0.000000 0.000000 0.000055
    15 16.525257 0.000000 0.000000 0.378110 0.081514 -1.058146
  time 41
    0 2.767267 20.387346 37.234846 1.570796 0.000000 -0.000042
    1 0.003911 4.333439 -1.138095 1.570796 -0.260752 1.569550
    2 7.512659 0.203131 0.000000 0.000000 0.000000 0.323949
    3 10.701815 1.424955 -1.937610 -3.064288 1.355133 1.776257
    4 6.028143 0.000001 0.000000 3.339841 0.798777 0.768046
    5 11.692552 0.000000 0.000002 0.000000 0.000000 -2.239841
    6 10.701809 1.424949 1.937660 3.172905 -1.394637 1.600526
    7 6.028142 0.000001 0.000000 -3.077263 -0.895222 0.710823
    8 11.692555 0.000000 0.000000 0.000000 0.000000 -2.257167
    9 14.516338 3.471281 0.000000 2.906716 0.138997 0.891841
    10 3.890452 -0.003910 -0.000003 -1.651396 0.182097 -1.387854
    11 17.848177 0.000000 0.000000 0.000000 0.000000 0.086263
    12 16.525253 0.000000 0.000000 -0.378515 -0.201272 -1.161643
    13 -3.890452 0.003910 0.000007 -1.352205 0.183239 -1.798564
    14 17.848173 0.000000 0.000000 0.000000 0.000000 0.000055
    15 16.525257 0.000000 0.000000 0.378092 0.081514 -1.058108
  time 42
    0 2.767267 20.391252 37.234846 1.570796 0.000000 -0.000042
    1 0.003911 4.333439 -1.138095 1.570796 -0.260728 1.569586
    2 7.512659 0.203131 0.000000 0.000000 0.000000 0.323949
    3 10.701815 1.424955 -1.937610 -3.064288 1.355133 1.776257
    4 6.028143 0.000001 0.000000 3.339841 0.798777 0.768046
    5 11.692552 0.000000 0.000002 0.000000 0.000000 -2.239841
    6 10.701809 1.424949 1.937660 3.172905 -1.394637 1.600526
    7 6.028142 0.000001 0.000000 -3.077263 -0.895260 0.710823
    8 11.692555 0.000000 0.000000 0.000000 0.000000 -2.257167
    9 14.516338 3.471281 0.000000 2.906716 0.138997 0.891841
    10 3.890452 -0.003910 -0.000003 -1.651396 0.182276 -1.387854
    11 17.848177 0.000000 0.000000 0.000000 0.000000 0.085800
    12 16.525253 0.000000 0.000000 -0.378485 -0.201292 -1.161387
    13 -3.890452 0.003910 0.000007 -1.352205 0.183195 -1.798564
    14 17.848173 0.000000 0.000000 0.000000 0.000000 0.000055
    15 16.525257 0.000000 0.000000 0.378092 0.081494 -1.058034
  time 43
    0 2.771173 20.391252 37.234846 1.570796 0.000000 -0.000042
    1 0.003911 4.333439 -1.138095 1.570796 -0.260728 1.569634
    2 7.512659 0.203131 0.000000 0.000000 0.000000 0.323949
    3 10.701815 1.424955 -1.937610 -3.064288 1.355133 1.776257
    4 6.028143 0.000001 0.000000 3.339757 0.798731 0.768046
    5 11.692552 0.000000 0.000002 0.000000 0.000000 -2.239841
    6 10.701809 1.424949 1.937660 3.172905 -1.394637 1.600526
    7 6.028142 0.000001 0.000000 -3.077312 -0.895298 0.710784
    8 11.692555 0.000000 0.000000 0.000000 0.000000 -2.257167
    9 14.516338 3.471281 0.000000 2.906716 0.138997 0.891819
    10 3.890452 -0.003910 -0.000003 -1.651396 0.182501 -1.387940
    11 17.848177 0.000000 0.000000 0.000000 0.000000 0.085259
    12 16.525253 0.000000 0.000000 -0.378455 -0.201312 -1.161067
    13 -3.890452 0.003910 0.000007 -1.352205 0.183151 -1.798564
    14 17.848173 0.000000 0.000000 0.000000 0.000000 0.000055
    15 16.525257 0.000000 0.000000 0.378074 0.081494 -1.057923
  time 44
    0 2.771173 20.395159 37.238752 1.570796 0.000000 -0.000042
    1 0.003911 4.333439 -1.138095 1.570796 -0.260705 1.569693
    2 7.512659 0.203131 0.000000 0.000000 0.000000 0.323949
    3 10.701815 1.424955 -1.937610 -3.064288 1.355133 1.776257
    4 6.028143 0.000001 0.000000 3.339674 0.798731 0.768046
    5 11.692552 0.000000 0.000002 0.000000 0.000000 -2.239841
    6 10.701809 1.424949 1.937660 3.172905 -1.394637 1.600526
    7 6.028142 0.000001 0.000000 -3.077312 -0.895336 0.710744
    8 11.692555 0.000000 0.000000 0.000000 0.000000 -2.257167
    9 14.516338 3.471281 0.000000 2.906716 0.138997 0.891841
    10 3.890452 -0.003910 -0.000003 -1.651396 0.182770 -1.387940
    11 17.848177 0.000000 0.000000 0.000000 0.000000 0.084564
    12 16.525253 0.000000 0.000000 -0.378425 -0.201333 -1.160650
    13 -3.890452 0.003910 0.000007 -1.352205 0.183108 -1.798564
    14 17.848173 0.000000 0.000000 0.000000 0.000000 0.000055
    15 16.525257 0.000000 0.000000 0.378056 0.081474 -1.057775
  time 45
    0 2.771173 20.395159 37.238752 1.570796 0.000000 -0.000042
    1 0.003911 4.333439 -1.138095 1.570796 -0.260681 1.569765
    2 7.512659 0.203131 0.000000 0.000000 0.000000 0.323949
    3 10.701815 1.424955 -1.937610 -3.064288 1.355133 1.776257
    4 6.028143 0.000001 0.000000 3.339590 0.798731 0.768046
    5 11.692552 0.000000 0.000002 0.000000 0.000000 -2.239841
    6 10.701809 1.424949 1.937660 3.172905 -1.394637 1.600526
    7 6.028142 0.000001 0.000000 -3.077362 -0.895373 0.710705
    8 11.692555 0.000000 0.000000 0.000000 0.000000 -2.257167
    9 14.516338 3.471281 0.000000 2.906716 0.138997 0.891841
    10 3.890452 -0.003910 -0.000003 -1.651396 0.183129 -1.388026
    11 17.848177 0.000000 0.000000 0.000000 0.000000 0.083714
    12 16.525253 0.000000 0.000000 -0.378396 -0.201373 -1.160170
    13 -3.890452 0.003910 0.000007 -1.352296 0.183020 -1.798564
    14 17.848173 0.000000 0.000000 0.000000 0.000000 0.000055
    15 16.525257 0.000000 0.000000 0.378038 0.081474 -1.057664
  time 46
    0 2.771173 20.399065 37.238752 1.570796 0.000000 -0.000042
    1 0.003911 4.333439 -1.138095 1.570796 -0.260658 1.569849
    2 7.512659 0.203131 0.000000 0.000000 0.000000 0.323949
    3 10.701815 1.424955 -1.937610 -3.064288 1.355133 1.776257
    4 6.028143 0.000001 0.000000 3.339507 0.798731 0.768046
    5 11.692552 0.000000 0.000002 0.000000 0.000000 -2.239841
    6 10.701809 1.424949 1.937660 3.172905 -1.394637 1.600526
    7 6.028142 0.000001 0.000000 -3.077411 -0.895411 0.710665
    8 11.692555 0.000000 0.000000 0.000000 0.000000 -2.257167
    9 14.516338 3.471281 0.000000 2.906716 0.138997 0.891819
    10 3.890452 -0.000004 -0.000003 -1.651396 0.183488 -1.388112
    11 17.848177 0.000000 0.000000 0.000000 0.000000 0.082787
    12 16.525253 0.000000 0.000000 -0.378351 -0.201394 -1.159658
    13 -3.890452 0.000004 0.000007 -1.352296 0.182977 -1.798652
    14 17.848173 0.000000 0.000000 0.000000 0.000000 0.000055
    15 16.525257 0.000000 0.000000 0.378038 0.081454 -1.057479
  time 47
    0 2.775080 20.399065 37.238752 1.570796 0.000000 -0.000042
    1 0.000005 4.333439 -1.138095 1.570796 -0.260611 1.569933
    2 7.512659 0.203131 0.000000 0.000000 0.000000 0.323949
    3 10.701815 1.424955 -1.937610 -3.064288 1.355133 1.776257
    4 6.028143 0.000001 0.000000 3.339423 0.798731 0.768046
    5 11.692552 0.000000 0.000002 0.000000 0.000000 -2.239841
    6 10.701809 1.424949 1.937660 3.172905 -1.394637 1.600526
    7 6.028142 0.000001 0.000000 -3.077411 -0.895449 0.710626
    8 11.692555 0.000000 0.000000 0.000000 0.000000 -2.257167
    9 14.516338 3.471281 0.000000 2.906716 0.138997 0.891819
    10 3.890452 -0.000004 -0.000003 -1.651488 0.183847 -1.388197
    11 17.848177 0.000000 0.000000 0.000000 0.000000 0.081860
    12 16.525253 0.000000 0.000000 -0.378307 -0.201434 -1.159049
    13 -3.890452 0.000004 0.000007 -1.352296 0.182889 -1.798652
    14 17.848173 0.000000 0.000000 0.000000 0.000000 0.000055
    15 16.525257 0.000000 0.000000 0.378021 0.081454 -1.057330
  time 48
    0 2.775080 20.402971 37.242658 1.570796 0.000000 -0.000042
    1 0.000005 4.333439 -1.138095 1.570796 -0.260588 1.570017
    2 7.512659 0.203131 0.000000 0.000000 0.000000 0.323949
    3 10.701815 1.424955 -1.937610 -3.064288 1.355133 1.776257
    4 6.028143 0.000001 0.000000 3.339339 0.798685 0.767952
    5 11.692552 0.000000 0.000002 0.000000 0.000000 -2.239841
    6 10.701809 1.424949 1.937660 3.172905 -1.394637 1.600526
    7 6.028142 0.000001 0.000000 -3.077461 -0.895524 0.710586
    8 11.692555 0.000000 0.000000 0.000000 0.000000 -2.257167
    9 14.516338 3.471281 0.000000 2.906716 0.138997 0.891841
    10 3.890452 -0.000004 -0.000003 -1.651488 0.184296 -1.388283
    11 17.848177 0.000000 0.000000 0.000000 0.000000 0.080779
    12 16.525253 0.000000 0.000000 -0.378262 -0.201475 -1.158440
    13 -3.890452 0.000004 0.000007 -1.352296 0.182802 -1.798740
    14 17.848173 0.000000 0.000000 0.000000 0.000000 0.000055
    15 16.525257 0.000000 0.000000 0.377985 0.081434 -1.057145
  time 49
    0 2.775080 20.406878 37.242658 1.570796 0.000000 -0.000042
    1 0.000005 4.333439 -1.138095 1.570796 -0.260565 1.570113
    2 7.512659 0.203131 0.000000 0.000000 0.000000 0.323949
    3 10.701815 1.424955 -1.937610 -3.064288 1.355133 1.776257
    4 6.028143 0.000001 0.000000 3.339172 0.798685 0.767952
    5 11.692552 0.000000 0.000002 0.000000 0.000000 -2.239841
    6 10.701809 1.424949 1.937660 3.172905 -1.394637 1.600526
    7 6.028142 0.000001 0.000000 -3.077511 -0.895562 0.710507
    8 11.692555 0.000000 0.000000 0.000000 0.000000 -2.257167
    9 14.516338 3.471281 0.000000 2.906716 0.138997 0.891819
    10 3.890452 -0.000004 -0.000003 -1.651488 0.184745 -1.388369
    11 17.848177 0.000000 0.000000 0.000000 0.000000 0.079697
    12 16.525253 0.000000 0.000000 -0.378218 -0.201495 -1.157800
    13 -3.890452 0.000004 0.000007 -1.352296 0.182714 -1.798740
    14 17.848173 0.000000 0.000000 0.000000 0.000000 0.000055
    15 16.525257 0.000000 0.000000 0.377967 0.081414 -1.056960
  time 50
    0 2.778986 20.406878 37.242658 1.570796 0.000000 -0.000042
    1 0.000005 4.333439 -1.138095 1.570796 -0.260518 1.570209
    2 7.512659 0.203131 0.000000 0.000000 0.000000 0.323949
    3 10.701815 1.424955 -1.937610 -3.064288 1.355133 1.776257
    4 6.028143 0.000001 0.000000 3.339088 0.798685 0.767952
    5 11.692552 0.000000 0.000002 0.000000 0.000000 -2.239841
    6 10.701809 1.424949 1.937660 3.172905 -1.394637 1.600526
    7 6.028142 0.000001 0.000000 -3.077560 -0.895600 0.710467
    8 11.692555 0.000000 0.000000 0.000000 0.000000 -2.257167
    9 14.516338 3.471281 0.000000 2.906716 0.138997 0.891819
    10 3.890452 -0.000004 -0.000003 -1.651488 0.185194 -1.388541
    11 17.848177 0.000000 0.000000 0.000000 0.000000 0.078539
    12 16.525253 0.000000 0.000000 -0.378173 -0.201536 -1.157159
    13 -3.890452 0.000004 0.000007 -1.352296 0.182627 -1.798740
    14 17.848173 0.000000 0.000000 0.000000 0.000000 0.000055
    15 16.525257 0.000000 0.000000 0.377949 0.081414 -1.056775
  time 51
    0 2.778986 20.410784 37.246565 1.570796 0.000000 -0.000042
    1 0.000005 4.333439 -1.138095 1.570796 -0.260495 1.570293
    2 7.512659 0.203131 0.000000 0.000000 0.000000 0.323949
    3 10.701815 1.424955 -1.937610 -3.064288 1.355133 1.776257
    4 6.028143 0.000001 0.000000 3.339005 0.798639 0.767952
    5 11.692552 0.000000 0.000002 0.000000 0.000000 -2.239841
    6 10.701809 1.424949 1.937660 3.172905 -1.394637 1.600526
    7 6.028142 0.000001 0.000000 -3.077560 -0.895675 0.710428
    8 11.692555 0.000000 0.000000 0.000000 0.000000 -2.257167
    9 14.516338 3.471281 0.000000 2.906716 0.138997 0.891819
    10 3.890452 -0.000004 -0.000003 -1.651488 0.185643 -1.388626
    11 17.848177 0.000000 0.000000 0.000000 0.000000 0.077457
    12 16.525253 0.000000 0.000000 -0.378129 -0.201577 -1.156519
    13 -3.890452 0.000004 0.000007 -1.352296 0.182583 -1.798828
    14 17.848173 0.000000 0.000000 0.000000 0.000000 0.000055
    15 16.525257 0.000000 0.000000 0.377931 0.081393 -1.056589
  time 52
    0 2.782892 20.414690 37.246565 1.570796 0.000000 -0.000042
    1 0.000005 4.333439 -1.138095 1.570796 -0.260471 1.570389
    2 7.512659 0.203131 0.000000 0.000000 0.000000 0.323949
    3 10.701815 1.424955 -1.937610 -3.064288 1.355133 1.776257
    4 6.028143 0.000001 0.000000 3.338838 0.798639 0.767952
    5 11.692552 0.000000 0.000002 0.000000 0.000000 -2.239841
    6 10.701809 1.424949 1.937660 3.172905 -1.394637 1.600526
    7 6.028142 0.000001 0.000000 -3.077610 -0.895713 0.710388
    8 11.692555 0.000000 0.000000 0.000000 0.000000 -2.257167
    9 14.516338 3.471281 0.000000 2.906716 0.138997 0.891819
    10 3.890452 -0.000004 -0.000003 -1.651488 0.186092 -1.388712
    11 17.848177 0.000000 0.000000 0.000000 0.000000 0.076299
    12 16.525253 0.000000 0.000000 -0.378084 -0.201597 -1.155878
    13 -3.890452 0.000004 0.000007 -1.352296 0.182496 -1.798828
    14 17.848173 0.000000 0.000000 0.000000 0.000000 0.000055
    15 16.525257 0.000000 0.000000 0.377913 0.081373 -1.056441
  time 53
    0 2.782892 20.414690 37.246565 1.570796 0.000000 -0.000042
    1 0.000005 4.333439 -1.138095 1.570796 -0.260448 1.570472
    2 7.512659 0.203131 0.000000 0.000000 0.000000 0.323949
    3 10.701815 1.424955 -1.937610 -3.064288 1.355133 1.776257
    4 6.028143 0.000001 0.000000 3.338754 0.798639 0.767952
    5 11.692552 0.000000 0.000002 0.000000 0.000000 -2.239841
    6 10.701809 1.424949 1.937660 3.172905 -1.394637 1.600526
    7 6.028142 0.000001 0.000000 -3.077659 -0.895751 0.710349
    8 11.692555 0.000000 0.000000 0.000000 0.000000 -2.257167
    9 14.516338 3.471281 0.000000 2.906716 0.138997 0.891819
    10 3.890452 -0.000004 -0.000003 -1.651488 0.186540 -1.388798
    11 17.848177 0.000000 0.000000 0.000000 0.000000 0.075217
    12 16.525253 0.000000 0.000000 -0.378040 -0.201638 -1.155237
    13 -3.890452 0.000004 0.000007 -1.352296 0.182408 -1.798916
    14 17.848173 0.000000 0.000000 0.000000 0.000000 0.000055
    15 16.525257 0.000000 0.000000 0.377896 0.081373 -1.056256
  time 54
    0 2.782892 20.418597 37.250471 1.570796 0.000000 -0.000042
    1 0.000005 4.333439 -1.138095 1.570796 -0.260424 1.570544
    2 7.512659 0.203131 0.000000 0.000000 0.000000 0.323949
    3 10.701815 1.424955 -1.937610 -3.064288 1.355133 1.776257
    4 6.028143 0.000001 0.000000 3.338670 0.798639 0.767952
    5 11.692552 0.000000 0.000002 0.000000 0.000000 -2.239841
    6 10.701809 1.424949 1.937660 3.172905 -1.394637 1.600526
    7 6.028142 0.000001 0.000000 -3.077659 -0.895826 0.710309
    8 11.692555 0.000000 0.000000 0.000000 0.000000 -2.257167
    9 14.516338 3.471281 0.000000 2.906716 0.138997 0.891841
    10 3.890452 -0.000004 -0.000003 -1.651488 0.186944 -1.388884
    11 17.848177 0.000000 0.000000 0.000000 0.000000 0.074213
    12 16.525253 0.000000 0.000000 -0.377995 -0.201678 -1.154661
    13 -3.890452 0.000004 0.000007 -1.352296 0.182321 -1.798916
    14 17.848173 0.000000 0.000000 0.000000 0.000000 0.000055
    15 16.525257 0.000000 0.000000 0.377878 0.081353 -1.056108
  time 55
    0 2.782892 20.418597 37.250471 1.570796 0.000000 -0.000042
    1 0.000005 4.333439 -1.138095 1.570796 -0.260378 1.570616
    2 7.512659 0.203131 0.000000 0.000000 0.000000 0.323949
    3 10.701815 1.424955 -1.937610 -3.064288 1.355133 1.776257
    4 6.028143 0.000001 0.000000 3.338587 0.798593 0.767859
    5 11.692552 0.000000 0.000002 0.000000 0.000000 -2.239841
    6 10.701809 1.424949 1.937660 3.172905 -1.394637 1.600526
    7 6.028142 0.000001 0.000000 -3.077709 -0.895864 0.710270
    8 11.692555 0.000000 0.000000 0.000000 0.000000 -2.257167
    9 14.516338 3.471281 0.000000 2.906716 0.138997 0.891819
    10 3.890452 -0.000004 -0.000003 -1.651488 0.187304 -1.388969
    11 17.848177 0.000000 0.000000 0.000000 0.000000 0.073286
    12 16.525253 0.000000 0.000000 -0.377965 -0.201699 -1.154116
    13 -3.890452 0.000004 0.000007 -1.352296 0.182277 -1.798916
    14 17.848173 0.000000 0.000000 0.000000 0.000000 0.000055
    15 16.525257 0.000000 0.000000 0.377860 0.081353 -1.055960
  time 56
    0 2.786799 20.422503 37.250471 1.570796 0.000000 -0.000042
    1 0.000005 4.333439 -1.138095 1.570796 -0.260378 1.570676
    2 7.512659 0.203131 0.000000 0.000000 0.000000 0.323949
    3 10.701815 1.424955 -1.937610 -3.064288 1.355133 1.776257
    4 6.028143 0.000001 0.000000 3.338503 0.798593 0.767859
    5 11.692552 0.000000 0.000002 0.000000 0.000000 -2.239841
    6 10.701809 1.424949 1.937660 3.172905 -1.394637 1.600526
    7 6.028142 0.000001 0.000000 -3.077709 -0.895902 0.710230
    8 11.692555 0.000000 0.000000 0.000000 0.000000 -2.257167
    9 14.516338 3.471281 0.000000 2.906716 0.138997 0.891841
    10 3.890452 -0.000004 -0.000003 -1.651488 0.187663 -1.388969
    11 17.848177 0.000000 0.000000 0.000000 0.000000 0.072514
    12 16.525253 0.000000 0.000000 -0.377936 -0.201719 -1.153636
    13 -3.890452 0.000004 0.000007 -1.352296 0.182234 -1.798916
    14 17.848173 0.000000 0.000000 0.000000 0.000000 0.000055
    15 16.525257 0.000000 0.000000 0.377842 0.081333 -1.055848
  time 57
    0 2.786799 20.422503 37.250471 1.570796 0.000000 -0.000042
    1 0.000005 4.333439 -1.142001 1.570796 -0.260354 1.570736
    2 7.512659 0.203131 0.000000 0.000000 0.000000 0.323949
    3 10.701815 1.424955 -1.937610 -3.064288 1.355133 1.776257
    4 6.028143 0.000001 0.000000 3.338503 0.798593 0.767859
    5 11.692552 0.000000 0.000002 0.000000 0.000000 -2.239841
    6 10.701809 1.424949 1.937660 3.172905 -1.394637 1.600526
    7 6.028142 0.000001 0.000000 -3.077758 -0.895902 0.710190
    8 11.692555 0.000000 0.000000 0.000000 0.000000 -2.257167
    9 14.516338 3.471281 0.000000 2.906716 0.138997 0.891819
    10 3.890452 -0.000004 -0.000003 -1.651488 0.187932 -1.389055
    11 17.848177 0.000000 0.000000 0.000000 0.000000 0.071818
    12 16.525253 0.000000 0.000000 -0.377906 -0.201739 -1.153252
    13 -3.890452 0.000004 0.000007 -1.352296 0.182190 -1.799004
    14 17.848173 0.000000 0.000000 0.000000 0.000000 0.000055
    15 16.525257 0.000000 0.000000 0.377842 0.081333 -1.055737
  time 58
    0 2.786799 20.422503 37.250471 1.570796 0.000000 -0.000042
    1 0.000005 4.333439 -1.142001 1.570796 -0.260331 1.570772
    2 7.512659 0.203131 0.000000 0.000000 0.000000 0.323949
    3 10.701815 1.424955 -1.937610 -3.064288 1.355133 1.776257
    4 6.028143 0.000001 0.000000 3.338420 0.798593 0.767859
    5 11.692552 0.000000 0.000002 0.000000 0.000000 -2.239841
    6 10.701809 1.424949 1.937660 3.172905 -1.394637 1.600526
    7 6.028142 0.000001 0.000000 -3.077758 -0.895940 0.710190
    8 11.692555 0.000000 0.000000 0.000000 0.000000 -2.257167
    9 14.516338 3.471281 0.000000 2.906716 0.138997 0.891819
    10 3.890452 -0.000004 -0.000003 -1.651488 0.188156 -1.389141
    11 17.848177 0.000000 0.000000 0.000000 0.000000 0.071278
    12 16.525253 0.000000 0.000000 -0.377891 -0.201760 -1.152963
    13 -3.890452 0.000004 0.000007 -1.352296 0.182146 -1.799004
    14 17.848173 0.000000 0.000000 0.000000 0.000000 0.000055
    15 16.525257 0.000000 0.000000 0.377824 0.081313 -1.055663
  time 59
    0 2.786799 20.426410 37.254377 1.570796 0.000000 -0.000042
    1 0.000005 4.333439 -1.142001 1.570796 -0.260331 1.570796
    2 7.512659 0.203131 0.000000 0.000000 0.000000 0.323949
    3 10.701815 1.424955 -1.937610 -3.064288 1.355133 1.776257
    4 6.028143 0.000001 0.000000 3.338420 0.798593 0.767859
    5 11.692552 0.000000 0.000002 0.000000 0.000000 -2.239841
    6 10.701809 1.424949 1.937660 3.172905 -1.394637 1.600526
    7 6.028142 0.000001 0.000000 -3.077758 -0.895940 0.710151
    8 11.692555 0.000000 0.000000 0.000000 0.000000 -2.257167
    9 14.516338 3.471281 0.000000 2.906716 0.138997 0.891841
    10 3.890452 -0.000004 -0.000003 -1.651488 0.188291 -1.389141
    11 17.848177 0.000000 0.000000 0.000000 0.000000 0.070969
    12 16.525253 0.000000 0.000000 -0.377876 -0.201760 -1.152771
    13 -3.890452 0.000004 0.000007 -1.352296 0.182102 -1.799004
    14 17.848173 0.000000 0.000000 0.000000 0.000000 0.000055
    15 16.525257 0.000000 0.000000 0.377824 0.081313 -1.055626
  time 60
    0 2.790705 20.426410 37.254377 1.570796 0.000000 -0.000042
    1 0.000005 4.333439 -1.142001 1.570796 -0.260331 1.570796
    2 7.512659 0.203131 0.000000 0.000000 0.000000 0.323949
    3 10.701815 1.424955 -1.937610 -3.064288 1.355133 1.776257
    4 6.028143 0.000001 0.000000 3.338420 0.798593 0.767859
    5 11.692552 0.000000 0.000002 0.000000 0.000000 -2.239841
    6 10.701809 1.424949 1.937660 3.172905 -1.394637 1.600526
    7 6.028142 0.000001 0.000000 -3.077758 -0.895977 0.710151
    8 11.692555 0.000000 0.000000 0.000000 0.000000 -2.257167
    9 14.516338 3.471281 0.000000 2.906716 0.138997 0.891819
    10 3.890452 -0.000004 -0.000003 -1.651488 0.187707 -1.389227
    11 17.848177 0.000000 0.000000 0.000000 0.000000 0.072127
    12 16.525253 0.000000 0.000000 -0.377758 -0.201841 -1.153412
    13 -3.890452 0.000004 0.000007 -1.352296 0.182102 -1.799181
    14 17.848173 0.000000 0.000000 0.000000 0.000000 0.000055
    15 16.525257 0.000000 0.000000 0.377878 0.081233 -1.055441
end
