// Created by Crowbar 0.74
version 1
nodes
  0 "ValveBiped.Bip01" -1
  1 "ValveBiped.Bip01_Spine" 0
  2 "ValveBiped.Bip01_Spine2" 1
  3 "ValveBiped.Bip01_R_Clavicle" 2
  4 "ValveBiped.Bip01_R_UpperArm" 3
  5 "ValveBiped.Bip01_R_Forearm" 4
  6 "ValveBiped.Bip01_L_Clavicle" 2
  7 "ValveBiped.Bip01_L_UpperArm" 6
  8 "ValveBiped.Bip01_L_Forearm" 7
  9 "ValveBiped.Bip01_Head1" 2
  10 "ValveBiped.Bip01_L_Thigh" 0
  11 "ValveBiped.Bip01_L_Calf" 10
  12 "ValveBiped.Bip01_L_Foot" 11
  13 "ValveBiped.Bip01_R_Thigh" 0
  14 "ValveBiped.Bip01_R_Calf" 13
  15 "ValveBiped.Bip01_R_Foot" 14
end
skeleton
  time 0
    0 -1.975065 5.996282 35.652766 1.579703 -0.017486 -0.471368
    1 0.000005 3.345128 -2.981901 1.675442 -0.032745 1.614048
    2 7.477502 0.511734 0.398450 0.224827 -0.150958 0.411563
    3 10.893227 1.155415 -1.937610 -2.531597 1.333701 2.228868
    4 6.028143 0.000001 0.000000 1.569164 0.067542 -0.968885
    5 11.692552 0.000000 0.000002 0.000000 0.000000 -1.179916
    6 10.893221 1.155409 1.937660 0.954499 -1.220054 3.692405
    7 6.028142 0.000001 0.000000 -1.856774 0.527901 -1.193974
    8 11.692555 0.000000 0.000000 0.000000 0.000000 -1.278620
    9 15.328862 2.088426 0.000000 3.321887 -0.087440 -0.149838
    10 3.784980 0.906274 -0.000003 -2.680991 -0.233947 -1.225917
    11 17.848177 0.000000 0.000000 0.000000 0.000000 0.403586
    12 16.525253 0.000000 0.000000 0.137478 0.234569 -0.970296
    13 -3.784980 -0.906274 0.000007 -1.602179 -0.258849 -1.638988
    14 17.848173 0.000000 0.000000 0.000000 0.000000 0.894199
    15 16.525257 0.000000 0.000000 0.316130 0.222961 -1.588046
  time 1
    0 -1.975065 5.918154 35.555107 1.587261 -0.016623 -0.467441
    1 0.000005 3.345128 -2.981901 1.676279 -0.028703 1.614216
    2 7.477502 0.511734 0.394543 0.223447 -0.149652 0.409320
    3 10.893227 1.155415 -1.937610 -2.531597 1.333701 2.228868
    4 6.028143 0.000001 0.000000 1.571923 0.060124 -0.966741
    5 11.692552 0.000000 0.000002 0.000000 0.000000 -1.206276
    6 10.893221 1.155409 1.937660 0.954499 -1.220054 3.692405
    7 6.028142 0.000001 0.000000 -1.857121 0.536318 -1.193895
    8 11.692555 0.000000 0.000000 0.000000 0.000000 -1.303919
    9 15.328862 2.088426 0.000000 3.318970 -0.086697 -0.149709
    10 3.784980 0.906274 -0.000003 -2.682455 -0.247772 -1.212107
    11 17.848177 0.000000 0.000000 0.000000 0.000000 0.434793
    12 16.525253 0.000000 0.000000 0.136499 0.235037 -0.987880
    13 -3.784980 -0.906274 0.000007 -1.597281 -0.268466 -1.640662
    14 17.848173 0.000000 0.000000 0.000000 0.000000 0.905331
    15 16.525257 0.000000 0.000000 0.317129 0.222117 -1.596716
  time 2
    0 -1.975065 5.668147 35.238691 1.608214 -0.014118 -0.456071
    1 0.000005 3.345128 -2.981901 1.678546 -0.017862 1.614696
    2 7.481408 0.511734 0.382824 0.219682 -0.145948 0.403289
    3 10.893227 1.155415 -1.937610 -2.531597 1.333701 2.228868
    4 6.028143 0.000001 0.000000 1.580200 0.040819 -0.960310
    5 11.692552 0.000000 0.000002 0.000000 0.000000 -1.280564
    6 10.893221 1.155409 1.937660 0.954499 -1.220054 3.692405
    7 6.028142 0.000001 0.000000 -1.858111 0.559002 -1.193262
    8 11.692555 0.000000 0.000000 0.000000 0.000000 -1.375987
    9 15.328862 2.088426 0.000000 3.307800 -0.083832 -0.149193
    10 3.784980 0.906274 -0.000003 -2.687853 -0.286329 -1.172052
    11 17.848177 0.000000 0.000000 0.000000 0.000000 0.524320
    12 16.525253 0.000000 0.000000 0.133337 0.236583 -1.038808
    13 -3.784980 -0.906274 0.000007 -1.583585 -0.296178 -1.645593
    14 17.848173 0.000000 0.000000 0.000000 0.000000 0.941427
    15 16.525257 0.000000 0.000000 0.320307 0.219422 -1.624578
  time 3
    0 -1.975065 5.222821 34.652735 1.640004 -0.010067 -0.438137
    1 0.000005 3.345128 -2.981901 1.681857 -0.002162 1.615475
    2 7.481408 0.511734 0.367199 0.214163 -0.140148 0.394358
    3 10.893227 1.155415 -1.937610 -2.531597 1.333701 2.228868
    4 6.028143 0.000001 0.000000 1.593996 0.016815 -0.949685
    5 11.692552 0.000000 0.000002 0.000000 0.000000 -1.391596
    6 10.893221 1.155409 1.937660 0.954499 -1.220054 3.692405
    7 6.028142 0.000001 0.000000 -1.859794 0.589876 -1.190731
    8 11.692555 0.000000 0.000000 0.000000 0.000000 -1.484989
    9 15.328862 2.088426 0.000000 3.281704 -0.077109 -0.148162
    10 3.784980 0.906274 -0.000003 -2.698923 -0.343243 -1.110725
    11 17.848177 0.000000 0.000000 0.000000 0.000000 0.658649
    12 16.525253 0.000000 0.000000 0.127475 0.239432 -1.116609
    13 -3.784980 -0.906274 0.000007 -1.561182 -0.338271 -1.654840
    14 17.848173 0.000000 0.000000 0.000000 0.000000 1.002652
    15 16.525257 0.000000 0.000000 0.326109 0.214496 -1.672929
  time 4
    0 -1.975065 4.566551 33.726926 1.680034 -0.004614 -0.414342
    1 0.000005 3.345128 -2.981901 1.685811 0.016436 1.616505
    2 7.485314 0.511734 0.347667 0.207438 -0.132574 0.383522
    3 10.893227 1.155415 -1.937610 -2.531597 1.333701 2.228868
    4 6.028143 0.000001 0.000000 1.613895 -0.002720 -0.934680
    5 11.692552 0.000000 0.000002 0.000000 0.000000 -1.525139
    6 10.893221 1.155409 1.937660 0.954499 -1.220054 3.692405
    7 6.028142 0.000001 0.000000 -1.862022 0.620977 -1.184363
    8 11.692555 0.000000 0.000000 0.000000 0.000000 -1.618840
    9 15.328862 2.088426 0.000000 3.228226 -0.063219 -0.146573
    10 3.784980 0.906274 -0.000003 -2.718043 -0.412143 -1.031471
    11 17.848177 0.000000 0.000000 0.000000 0.000000 0.826194
    12 16.525253 0.000000 0.000000 0.118273 0.243887 -1.216062
    13 -3.784980 -0.906274 0.000007 -1.530434 -0.389457 -1.669988
    14 17.848173 0.000000 0.000000 0.000000 0.000000 1.088841
    15 16.525257 0.000000 0.000000 0.335284 0.206575 -1.743214
  time 5
    0 -1.975065 3.691524 32.390948 1.725694 0.002121 -0.385683
    1 0.000005 3.345128 -2.981901 1.690010 0.035991 1.617764
    2 7.485314 0.511734 0.320322 0.200079 -0.123573 0.371777
    3 10.893227 1.155415 -1.937610 -2.531597 1.333701 2.228868
    4 6.028143 0.000001 0.000000 1.640650 -0.008157 -0.914734
    5 11.692552 0.000000 0.000002 0.000000 0.000000 -1.666671
    6 10.893221 1.155409 1.937660 0.954499 -1.220054 3.692405
    7 6.028142 0.000001 0.000000 -1.864349 0.643245 -1.172022
    8 11.692555 0.000000 0.000000 0.000000 0.000000 -1.764553
    9 15.328862 2.088426 0.000000 3.153051 -0.043588 -0.145606
    10 3.784980 0.906274 -0.000003 -2.747868 -0.487281 -0.934806
    11 17.848177 0.000000 0.000000 0.000000 0.000000 1.020079
    12 16.525253 0.000000 0.000000 0.104975 0.250254 -1.334349
    13 -3.784980 -0.906274 0.000007 -1.490888 -0.443832 -1.693413
    14 17.848173 0.000000 0.000000 0.000000 0.000000 1.199586
    15 16.525257 0.000000 0.000000 0.348798 0.194632 -1.837509
  time 6
    0 -1.975065 2.640711 30.578392 1.774386 0.009995 -0.353038
    1 0.000005 3.345128 -2.981901 1.694042 0.054542 1.619202
    2 7.489221 0.511734 0.292978 0.192779 -0.113530 0.360074
    3 10.893227 1.155415 -1.937610 -2.531597 1.333701 2.228868
    4 6.028143 0.000001 0.000000 1.675097 0.008752 -0.888824
    5 11.692552 0.000000 0.000002 0.000000 0.000000 -1.802466
    6 10.893221 1.155409 1.937660 0.954499 -1.220054 3.692405
    7 6.028142 0.000001 0.000000 -1.865636 0.647473 -1.151731
    8 11.692555 0.000000 0.000000 0.000000 0.000000 -1.909589
    9 15.328862 2.088426 0.000000 3.093296 -0.027948 -0.145907
    10 3.784980 0.906274 -0.000003 -2.790501 -0.563182 -0.820215
    11 17.848177 0.000000 0.000000 0.000000 0.000000 1.234666
    12 16.525253 0.000000 0.000000 0.087077 0.258738 -1.468587
    13 -3.784980 -0.906274 0.000007 -1.442090 -0.494231 -1.726878
    14 17.848173 0.000000 0.000000 0.000000 0.000000 1.332267
    15 16.525257 0.000000 0.000000 0.367578 0.178386 -1.957664
  time 7
    0 -1.975065 1.558646 28.297073 1.823465 0.018804 -0.317404
    1 0.000005 3.345128 -2.981901 1.697520 0.070149 1.620772
    2 7.489221 0.515641 0.261727 0.186139 -0.102828 0.349344
    3 10.893227 1.155415 -1.937610 -2.531597 1.333701 2.228868
    4 6.028143 0.000001 0.000000 1.716901 0.052983 -0.855084
    5 11.692552 0.000000 0.000002 0.000000 0.000000 -1.919815
    6 10.893221 1.155409 1.937660 0.954499 -1.220054 3.692405
    7 6.028142 0.000001 0.000000 -1.864151 0.625166 -1.122620
    8 11.692555 0.000000 0.000000 0.000000 0.000000 -2.041489
    9 15.328862 2.088426 0.000000 3.052421 -0.017270 -0.146637
    10 3.784980 0.906274 -0.000003 -2.847955 -0.635179 -0.687611
    11 17.848177 0.000000 0.000000 0.000000 0.000000 1.460376
    12 16.525253 0.000000 0.000000 0.065393 0.268869 -1.611473
    13 -3.784980 -0.906274 0.000007 -1.385220 -0.580690 -1.760520
    14 17.848173 0.000000 0.000000 0.000000 0.000000 1.517906
    15 16.525257 0.000000 0.000000 0.373861 0.140104 -2.067890
  time 8
    0 -1.975065 0.695339 25.718869 1.870281 0.028320 -0.279719
    1 0.000005 3.345128 -2.981901 1.699980 0.080919 1.622438
    2 7.493127 0.515641 0.226569 0.180908 -0.091862 0.340541
    3 10.893227 1.155415 -1.937610 -2.531597 1.333701 2.228868
    4 6.028143 0.000001 0.000000 1.764141 0.122508 -0.811931
    5 11.692552 0.000000 0.000002 0.000000 0.000000 -2.009062
    6 10.893221 1.155409 1.937660 0.954499 -1.220054 3.692405
    7 6.028142 0.000001 0.000000 -1.857863 0.571080 -1.086469
    8 11.692555 0.000000 0.000000 0.000000 0.000000 -2.148690
    9 15.328862 2.088426 0.000000 3.023310 -0.009696 -0.147432
    10 3.784980 0.906274 -0.000003 -2.923615 -0.700577 -0.537681
    11 17.848177 0.000000 0.000000 0.000000 0.000000 1.680911
    12 16.525253 0.000000 0.000000 0.043814 0.278776 -1.746832
    13 -3.784980 -0.906274 0.000007 -1.316378 -0.735251 -1.792752
    14 17.848173 0.000000 0.000000 0.000000 0.000000 1.763542
    15 16.525257 0.000000 0.000000 0.342960 0.083042 -2.142696
  time 9
    0 -1.975065 0.648462 23.003942 1.912205 0.038291 -0.240979
    1 0.000005 3.345128 -2.981901 1.700985 0.084915 1.624115
    2 7.497033 0.515641 0.191412 0.177775 -0.081052 0.334594
    3 10.893227 1.155415 -1.937610 -2.531597 1.333701 2.228868
    4 6.028143 0.000001 0.000000 1.812049 0.206408 -0.759644
    5 11.692552 0.000000 0.000002 0.000000 0.000000 -2.065123
    6 10.893221 1.155409 1.937660 0.954499 -1.220054 3.692405
    7 6.028142 0.000001 0.000000 -1.844644 0.486496 -1.049526
    8 11.692555 0.000000 0.000000 0.000000 0.000000 -2.221508
    9 15.328862 2.088426 0.000000 3.001761 -0.004099 -0.148141
    10 3.784980 0.906274 -0.000003 -3.049135 -0.763237 -0.344351
    11 17.848177 0.000000 0.000000 0.000000 0.000000 1.885070
    12 16.525253 0.000000 0.000000 0.037610 0.281583 -1.839239
    13 -3.784980 -0.906274 0.000007 -1.218239 -0.931860 -1.840131
    14 17.848173 0.000000 0.000000 0.000000 0.000000 2.023011
    15 16.525257 0.000000 0.000000 0.289049 0.048238 -2.172707
  time 10
    0 -1.975065 1.277388 20.230420 1.946573 0.048418 -0.202181
    1 0.000005 3.345128 -2.981901 1.699774 0.078700 1.626117
    2 7.497033 0.515641 0.156255 0.177602 -0.070805 0.332329
    3 10.893227 1.155415 -1.937610 -2.531597 1.333701 2.228868
    4 6.028143 0.000001 0.000000 1.850509 0.285977 -0.701859
    5 11.692552 0.000000 0.000002 0.000000 0.000000 -2.086400
    6 10.893221 1.155409 1.937660 0.954499 -1.220054 3.692405
    7 6.028142 0.000001 0.000000 -1.820285 0.380172 -1.025082
    8 11.692555 0.000000 0.000000 0.000000 0.000000 -2.249284
    9 15.328862 2.088426 0.000000 2.985401 0.000132 -0.148785
    10 3.784980 0.906274 -0.000003 -3.239702 -0.806417 -0.094754
    11 17.848177 0.000000 0.000000 0.000000 0.000000 2.071771
    12 16.525253 0.000000 0.000000 0.050106 0.275887 -1.879981
    13 -3.784980 -0.906274 0.000007 -1.045361 -1.136426 -1.950742
    14 17.848173 0.000000 0.000000 0.000000 0.000000 2.262753
    15 16.525257 0.000000 0.000000 0.229193 0.049304 -2.162963
  time 11
    0 -1.975065 1.664118 17.597528 1.970805 0.058449 -0.164086
    1 0.000005 3.345128 -2.981901 1.694197 0.053000 1.628801
    2 7.497033 0.515641 0.121097 0.182287 -0.065688 0.370571
    3 10.893227 1.155415 -1.937610 -2.531597 1.333701 2.228868
    4 6.028143 0.000001 0.000000 1.911126 0.377157 -0.615832
    5 11.692552 0.000000 0.000002 0.000000 0.000000 -2.082333
    6 10.893221 1.155409 1.937660 0.954499 -1.220054 3.692405
    7 6.028142 0.000001 0.000000 -1.793994 0.225763 -1.035762
    8 11.692555 0.000000 0.000000 0.000000 0.000000 -2.238699
    9 15.328862 2.088426 0.000000 2.972798 0.003380 -0.149322
    10 3.784980 0.906274 -0.000003 -3.424049 -0.813374 0.147466
    11 17.848177 0.000000 0.000000 0.000000 0.000000 2.237462
    12 16.525253 0.000000 0.000000 0.059575 0.271554 -1.907143
    13 -3.784980 -0.906274 0.000007 -0.744050 -1.279665 -2.187288
    14 17.848173 0.000000 0.000000 0.000000 0.000000 2.458787
    15 16.525257 0.000000 0.000000 0.179709 0.069028 -2.155404
  time 12
    0 -1.975065 1.511770 15.706845 1.961109 0.068084 -0.127690
    1 0.000005 3.345128 -2.981901 1.686713 0.019543 1.631019
    2 7.500940 0.515641 0.089846 0.193698 -0.064561 0.436874
    3 10.893227 1.155415 -1.937610 -2.531597 1.333701 2.228868
    4 6.028143 0.000001 0.000000 1.974585 0.448065 -0.526078
    5 11.692552 0.000000 0.000002 0.000000 0.000000 -2.064470
    6 10.893221 1.155409 1.937660 0.954499 -1.220054 3.692405
    7 6.028142 0.000001 0.000000 -1.759188 0.071656 -1.052137
    8 11.692555 0.000000 0.000000 0.000000 0.000000 -2.205593
    9 15.328862 2.088426 0.000000 2.963110 0.005884 -0.149752
    10 3.784980 0.906274 -0.000003 -3.496415 -0.817728 0.283586
    11 17.848177 0.000000 0.000000 0.000000 0.000000 2.354952
    12 16.525253 0.000000 0.000000 0.053475 0.274361 -1.940390
    13 -3.784980 -0.906274 0.000007 -0.527545 -1.309651 -2.351620
    14 17.848173 0.000000 0.000000 0.000000 0.000000 2.587130
    15 16.525257 0.000000 0.000000 0.149058 0.085837 -2.173745
  time 13
    0 -1.975065 1.636774 15.132609 1.914801 0.077085 -0.093697
    1 0.000005 3.345128 -2.981901 1.681676 -0.002583 1.632229
    2 7.500940 0.515641 0.058596 0.211203 -0.060402 0.466185
    3 10.893227 1.155415 -1.937610 -2.531597 1.333701 2.228868
    4 6.028143 0.000001 0.000000 1.972077 0.459813 -0.496719
    5 11.692552 0.000000 0.000002 0.000000 0.000000 -2.040433
    6 10.893221 1.155409 1.937660 0.954499 -1.220054 3.692405
    7 6.028142 0.000001 0.000000 -1.705667 -0.000736 -1.039678
    8 11.692555 0.000000 0.000000 0.000000 0.000000 -2.163404
    9 15.328862 2.088426 0.000000 2.955697 0.007790 -0.150096
    10 3.784980 0.906274 -0.000003 -3.498519 -0.844256 0.323385
    11 17.848177 0.000000 0.000000 0.000000 0.000000 2.385850
    12 16.525253 0.000000 0.000000 0.066195 0.268502 -1.924087
    13 -3.784980 -0.906274 0.000007 -0.416708 -1.298067 -2.419959
    14 17.848173 0.000000 0.000000 0.000000 0.000000 2.629120
    15 16.525257 0.000000 0.000000 0.126422 0.106989 -2.134248
  time 14
    0 -1.975065 1.914126 15.449024 1.851782 0.085210 -0.062869
    1 0.000005 3.345128 -2.981901 1.678572 -0.016110 1.632912
    2 7.500940 0.515641 0.031251 0.230058 -0.053152 0.459476
    3 10.893227 1.155415 -1.937610 -2.531597 1.333701 2.228868
    4 6.028143 0.000001 0.000000 1.923751 0.437974 -0.514893
    5 11.692552 0.000000 0.000002 0.000000 0.000000 -2.017341
    6 10.893221 1.155409 1.937660 0.954499 -1.220054 3.692405
    7 6.028142 0.000001 0.000000 -1.644423 -0.012022 -1.006769
    8 11.692555 0.000000 0.000000 0.000000 0.000000 -2.124667
    9 15.328862 2.088426 0.000000 2.950210 0.009204 -0.150375
    10 3.784980 0.906274 -0.000003 -3.447744 -0.886493 0.287961
    11 17.848177 0.000000 0.000000 0.000000 0.000000 2.360204
    12 16.525253 0.000000 0.000000 0.089065 0.257802 -1.884626
    13 -3.784980 -0.906274 0.000007 -0.408363 -1.257897 -2.405604
    14 17.848173 0.000000 0.000000 0.000000 0.000000 2.611604
    15 16.525257 0.000000 0.000000 0.115301 0.118349 -2.071077
  time 15
    0 -1.975065 2.211010 16.042793 1.795480 0.092293 -0.035910
    1 0.000005 3.345128 -2.981901 1.676653 -0.024451 1.633308
    2 7.500940 0.515641 0.003906 0.245321 -0.043660 0.427182
    3 10.893227 1.155415 -1.937610 -2.531597 1.333701 2.228868
    4 6.028143 0.000001 0.000000 1.867482 0.406967 -0.549751
    5 11.692552 0.000000 0.000002 0.000000 0.000000 -2.001220
    6 10.893221 1.155409 1.937660 0.954499 -1.220054 3.692405
    7 6.028142 0.000001 0.000000 -1.586990 0.004812 -0.965515
    8 11.692555 0.000000 0.000000 0.000000 0.000000 -2.100494
    9 15.328862 2.088426 0.000000 2.946256 0.010211 -0.150568
    10 3.784980 0.906274 -0.000003 -3.379312 -0.926486 0.225175
    11 17.848177 0.000000 0.000000 0.000000 0.000000 2.317565
    12 16.525253 0.000000 0.000000 0.110348 0.247691 -1.844012
    13 -3.784980 -0.906274 0.000007 -0.465505 -1.202778 -2.340171
    14 17.848173 0.000000 0.000000 0.000000 0.000000 2.574607
    15 16.525257 0.000000 0.000000 0.115247 0.118449 -2.026838
  time 16
    0 -1.975065 2.437579 15.921695 1.790185 0.098166 -0.013287
    1 0.000005 3.345128 -2.981901 1.675506 -0.029404 1.633535
    2 7.500940 0.515641 -0.011719 0.251845 -0.036253 0.409024
    3 10.893227 1.155415 -1.937610 -2.531597 1.333701 2.228868
    4 6.028143 0.000001 0.000000 1.874254 0.418808 -0.536703
    5 11.692552 0.000000 0.000002 0.000000 0.000000 -1.997008
    6 10.893221 1.155409 1.937660 0.954499 -1.220054 3.692405
    7 6.028142 0.000001 0.000000 -1.562433 -0.023458 -0.950248
    8 11.692555 0.000000 0.000000 0.000000 0.000000 -2.100419
    9 15.328862 2.088426 0.000000 2.943686 0.010882 -0.150697
    10 3.784980 0.906274 -0.000003 -3.420115 -0.942330 0.268662
    11 17.848177 0.000000 0.000000 0.000000 0.000000 2.319187
    12 16.525253 0.000000 0.000000 0.124774 0.240733 -1.820053
    13 -3.784980 -0.906274 0.000007 -0.405461 -1.192375 -2.382619
    14 17.848173 0.000000 0.000000 0.000000 0.000000 2.580337
    15 16.525257 0.000000 0.000000 0.111391 0.125647 -2.019280
  time 17
    0 -1.975065 2.531332 15.206830 1.795234 0.099916 0.001717
    1 0.000005 3.345128 -2.981901 1.674914 -0.031951 1.633655
    2 7.500940 0.515641 -0.015625 0.252219 -0.034552 0.409003
    3 10.893227 1.155415 -1.937610 -2.531597 1.333701 2.228868
    4 6.028143 0.000001 0.000000 1.894153 0.424705 -0.527662
    5 11.692552 0.000000 0.000002 0.000000 0.000000 -1.997516
    6 10.893221 1.155409 1.937660 0.954499 -1.220054 3.692405
    7 6.028142 0.000001 0.000000 -1.555947 -0.043613 -0.946372
    8 11.692555 0.000000 0.000000 0.000000 0.000000 -2.103497
    9 15.328862 2.088426 0.000000 2.942204 0.011254 -0.150783
    10 3.784980 0.906274 -0.000003 -3.500166 -0.940131 0.356578
    11 17.848177 0.000000 0.000000 0.000000 0.000000 2.357578
    12 16.525253 0.000000 0.000000 0.132625 0.236929 -1.811661
    13 -3.784980 -0.906274 0.000007 -0.339793 -1.194342 -2.431672
    14 17.848173 0.000000 0.000000 0.000000 0.000000 2.623063
    15 16.525257 0.000000 0.000000 0.105322 0.136887 -2.051032
  time 18
    0 -1.975065 2.539145 14.995886 1.786765 0.098166 -0.000042
    1 0.000005 3.345128 -2.981901 1.674733 -0.032698 1.633691
    2 7.500940 0.515641 -0.011719 0.251845 -0.036253 0.409024
    3 10.893227 1.155415 -1.937610 -2.531597 1.333701 2.228868
    4 6.028143 0.000001 0.000000 1.883367 0.413002 -0.540711
    5 11.692552 0.000000 0.000002 0.000000 0.000000 -1.997008
    6 10.893221 1.155409 1.937660 0.954499 -1.220054 3.692405
    7 6.028142 0.000001 0.000000 -1.553620 -0.029421 -0.943564
    8 11.692555 0.000000 0.000000 0.000000 0.000000 -2.100419
    9 15.328862 2.088426 0.000000 2.941759 0.011373 -0.150804
    10 3.784980 0.906274 -0.000003 -3.501447 -0.937797 0.361210
    11 17.848177 0.000000 0.000000 0.000000 0.000000 2.368856
    12 16.525253 0.000000 0.000000 0.133308 0.236604 -1.811405
    13 -3.784980 -0.906274 0.000007 -0.350768 -1.192550 -2.421456
    14 17.848173 0.000000 0.000000 0.000000 0.000000 2.636159
    15 16.525257 0.000000 0.000000 0.103519 0.140264 -2.061666
end
