// Created by Crowbar 0.74
version 1
nodes
  0 "ValveBiped.Bip01" -1
  1 "ValveBiped.Bip01_Spine" 0
  2 "ValveBiped.Bip01_Spine2" 1
  3 "ValveBiped.Bip01_R_Clavicle" 2
  4 "ValveBiped.Bip01_R_UpperArm" 3
  5 "ValveBiped.Bip01_R_Forearm" 4
  6 "ValveBiped.Bip01_L_Clavicle" 2
  7 "ValveBiped.Bip01_L_UpperArm" 6
  8 "ValveBiped.Bip01_L_Forearm" 7
  9 "ValveBiped.Bip01_Head1" 2
  10 "ValveBiped.Bip01_L_Thigh" 0
  11 "ValveBiped.Bip01_L_Calf" 10
  12 "ValveBiped.Bip01_L_Foot" 11
  13 "ValveBiped.Bip01_R_Thigh" 0
  14 "ValveBiped.Bip01_R_Calf" 13
  15 "ValveBiped.Bip01_R_Foot" 14
end
skeleton
  time 0
    0 0.067966 -0.078122 38.191906 1.570796 0.000000 0.055812
    1 0.000005 3.345128 -2.981901 1.532269 0.086246 1.567476
    2 7.536097 -0.101566 0.000000 -0.017188 0.002864 0.137376
    3 10.744785 1.374172 -1.937610 -1.832805 1.140490 2.995815
    4 6.028143 0.000001 0.000000 1.335309 0.090671 -0.959938
    5 11.692552 0.000000 0.000002 0.000000 0.000000 -0.227901
    6 10.744779 1.374166 1.937660 1.760984 -1.140501 2.995847
    7 6.028142 0.000001 0.000000 -1.131046 0.018060 -0.945897
    8 11.692555 0.000000 0.000000 0.000000 0.000000 -0.227855
    9 15.164795 2.650943 0.000000 3.195210 -0.015304 0.191102
    10 3.890452 -0.000004 -0.000003 -1.633282 -0.115360 -1.548677
    11 17.848177 0.000000 0.000000 0.000000 0.000000 0.295597
    12 16.525253 0.000000 0.000000 -0.044107 -0.047616 -1.163821
    13 -3.890452 0.000004 0.000007 -1.234746 0.059451 -1.556382
    14 17.848173 0.000000 0.000000 0.000000 0.000000 0.145341
    15 16.525257 0.000000 0.000000 -0.053592 -0.099622 -1.190083
  time 1
    0 0.071872 -0.082029 37.516104 1.570796 0.000012 0.040105
    1 0.000005 3.345128 -2.981901 1.532269 0.086246 1.567476
    2 7.536097 -0.101566 0.000000 -0.016240 -0.001582 0.250746
    3 10.744785 1.374172 -1.937610 -3.601226 1.176215 1.159296
    4 6.028143 0.000001 0.000000 1.529115 0.098043 -1.485602
    5 11.692552 0.000000 0.000002 0.000000 0.000000 -0.933307
    6 10.744779 1.374166 1.937660 2.942399 -1.240885 1.784300
    7 6.028142 0.000001 0.000000 -1.384788 0.064296 -1.208767
    8 11.692555 0.000000 0.000000 0.000000 0.000000 -0.858899
    9 13.024105 4.131457 0.000000 3.199510 -0.045757 0.514363
    10 3.890452 -0.000004 -0.000003 -1.633831 -0.208228 -1.543016
    11 17.848177 0.000000 0.000000 0.000000 0.000000 0.494967
    12 16.525253 0.000000 0.000000 -0.052849 -0.061145 -1.269489
    13 -3.890452 0.000004 0.000007 -1.234202 -0.065124 -1.601736
    14 17.848173 0.000000 0.000000 0.000000 0.000000 0.423226
    15 16.525257 0.000000 0.000000 -0.061107 -0.114019 -1.334656
  time 2
    0 0.075779 -0.082029 37.426258 1.570796 0.000024 0.030200
    1 0.000005 3.345128 -2.981901 1.531560 0.086246 1.567416
    2 7.536097 -0.121097 0.070315 -0.018855 -0.023789 0.272523
    3 10.764317 1.346828 -1.937610 -3.455651 1.237982 1.303426
    4 6.028143 0.000001 0.000000 1.499183 0.081226 -1.407871
    5 11.692552 0.000000 0.000002 0.000000 0.000000 -1.008756
    6 10.764310 1.342915 1.937660 2.722856 -1.260394 1.997408
    7 6.028142 0.000001 0.000000 -1.341169 0.106078 -1.108302
    8 11.692555 0.000000 0.000000 0.000000 0.000000 -0.921959
    9 12.723314 4.135364 0.000000 3.217007 -0.021033 0.471402
    10 3.890452 -0.000004 -0.000003 -1.633922 -0.217070 -1.542845
    11 17.848177 0.000000 0.000000 0.000000 0.000000 0.516287
    12 16.525253 0.000000 0.000000 -0.058028 -0.069649 -1.281436
    13 -3.890452 0.000004 0.000007 -1.234021 -0.077145 -1.607108
    14 17.848173 0.000000 0.000000 0.000000 0.000000 0.449091
    15 16.525257 0.000000 0.000000 -0.065677 -0.122805 -1.346919
  time 3
    0 0.079685 -0.082029 37.410632 1.570796 0.000036 0.020940
    1 0.000005 3.345128 -2.981901 1.530684 0.086246 1.567344
    2 7.532191 -0.152348 0.164068 -0.023224 -0.050108 0.280374
    3 10.791662 1.311670 -1.937610 -2.843803 1.324759 1.922380
    4 6.028143 0.000001 0.000000 1.431376 0.065376 -1.235073
    5 11.692552 0.000000 0.000002 0.000000 0.000000 -0.976442
    6 10.791655 1.303851 1.937660 2.237821 -1.248862 2.477119
    7 6.028142 0.000001 0.000000 -1.246554 0.133744 -0.943405
    8 11.692555 0.000000 0.000000 0.000000 0.000000 -0.880295
    9 12.746752 4.068955 0.007813 3.234256 0.015772 0.376178
    10 3.890452 -0.000004 -0.000003 -1.633922 -0.217205 -1.543273
    11 17.848177 0.000000 0.000000 0.000000 0.000000 0.518990
    12 16.525253 0.000000 0.000000 -0.062807 -0.077583 -1.283518
    13 -3.890452 0.000004 0.000007 -1.234021 -0.079680 -1.609046
    14 17.848173 0.000000 0.000000 0.000000 0.000000 0.453430
    15 16.525257 0.000000 0.000000 -0.069962 -0.131008 -1.347771
  time 4
    0 0.083591 -0.082029 37.437977 1.570796 0.000048 0.012501
    1 0.000005 3.345128 -2.981901 1.529950 0.086223 1.567285
    2 7.524378 -0.175787 0.238289 -0.026127 -0.072866 0.286194
    3 10.815100 1.280419 -1.937610 -2.098295 1.262715 2.666330
    4 6.028143 0.000001 0.000000 1.364572 0.055240 -1.047548
    5 11.692552 0.000000 0.000002 0.000000 0.000000 -0.918783
    6 10.819000 1.268694 1.937660 1.853072 -1.164779 2.849940
    7 6.028142 0.000001 0.000000 -1.163723 0.142199 -0.771310
    8 11.692555 0.000000 0.000000 0.000000 0.000000 -0.818661
    9 12.910820 3.983015 0.007813 3.242312 0.054422 0.264694
    10 3.890452 -0.000004 -0.000003 -1.633922 -0.213300 -1.543960
    11 17.848177 0.000000 0.000000 0.000000 0.000000 0.512888
    12 16.525253 0.000000 0.000000 -0.067156 -0.084845 -1.280923
    13 -3.890452 0.000004 0.000007 -1.234111 -0.077800 -1.609310
    14 17.848173 0.000000 0.000000 0.000000 0.000000 0.447700
    15 16.525257 0.000000 0.000000 -0.073871 -0.138448 -1.343325
  time 5
    0 0.087498 -0.082029 37.461415 1.570796 0.000060 0.004999
    1 0.000005 3.345128 -2.981901 1.529641 0.086223 1.567261
    2 7.524378 -0.179693 0.273446 -0.024776 -0.084407 0.301770
    3 10.830725 1.256981 -1.937610 -1.865247 1.165106 2.893753
    4 6.028143 0.000001 0.000000 1.337064 0.050495 -0.931604
    5 11.692552 0.000000 0.000002 0.000000 0.000000 -0.921761
    6 10.834625 1.241350 1.937660 1.713415 -1.088152 2.978975
    7 6.028142 0.000001 0.000000 -1.152484 0.138273 -0.657713
    8 11.692555 0.000000 0.000000 0.000000 0.000000 -0.826994
    9 13.031917 3.916607 0.011719 3.240236 0.080213 0.172027
    10 3.890452 -0.000004 -0.000003 -1.633831 -0.209709 -1.544474
    11 17.848177 0.000000 0.000000 0.000000 0.000000 0.507249
    12 16.525253 0.000000 0.000000 -0.071015 -0.091274 -1.278521
    13 -3.890452 0.000004 0.000007 -1.234293 -0.076096 -1.609486
    14 17.848173 0.000000 0.000000 0.000000 0.000000 0.442543
    15 16.525257 0.000000 0.000000 -0.077388 -0.145042 -1.339250
  time 6
    0 0.091404 -0.082029 37.469228 1.570796 0.000060 -0.002679
    1 0.000005 3.345128 -2.981901 1.529834 0.086246 1.567273
    2 7.524378 -0.164067 0.257820 -0.022333 -0.083245 0.333176
    3 10.838538 1.245262 -1.937610 -1.884181 1.133379 2.876249
    4 6.028143 0.000001 0.000000 1.354372 0.051370 -0.911379
    5 11.692552 0.000000 0.000002 0.000000 0.000000 -1.016018
    6 10.838531 1.237443 1.937660 1.729430 -1.061078 2.963828
    7 6.028142 0.000001 0.000000 -1.242098 0.129102 -0.619386
    8 11.692555 0.000000 0.000000 0.000000 0.000000 -0.935021
    9 13.094419 3.885356 0.003906 3.219676 0.086025 0.098886
    10 3.890452 -0.000004 -0.000003 -1.633831 -0.207554 -1.544989
    11 17.848177 0.000000 0.000000 0.000000 0.000000 0.504932
    12 16.525253 0.000000 0.000000 -0.075007 -0.097804 -1.277880
    13 -3.890452 0.000004 0.000007 -1.234383 -0.076139 -1.610279
    14 17.848173 0.000000 0.000000 0.000000 0.000000 0.441070
    15 16.525257 0.000000 0.000000 -0.081047 -0.151738 -1.337101
  time 7
    0 0.095310 -0.082029 37.480947 1.570796 0.000072 -0.010708
    1 0.000005 3.345128 -2.981901 1.530324 0.086270 1.567308
    2 7.528284 -0.132816 0.210944 -0.020091 -0.075131 0.373512
    3 10.842445 1.237449 -1.937610 -1.991002 1.130442 2.776360
    4 6.028143 0.000001 0.000000 1.392497 0.058281 -0.936078
    5 11.692552 0.000000 0.000002 0.000000 0.000000 -1.152176
    6 10.834625 1.245256 1.937660 1.809793 -1.055204 2.892025
    7 6.028142 0.000001 0.000000 -1.393354 0.113778 -0.617211
    8 11.692555 0.000000 0.000000 0.000000 0.000000 -1.086814
    9 13.176453 3.865824 -0.003906 3.183348 0.079602 0.026389
    10 3.890452 -0.000004 -0.000003 -1.633831 -0.205176 -1.545418
    11 17.848177 0.000000 0.000000 0.000000 0.000000 0.502305
    12 16.525253 0.000000 0.000000 -0.079237 -0.104660 -1.277080
    13 -3.890452 0.000004 0.000007 -1.234474 -0.076183 -1.610983
    14 17.848173 0.000000 0.000000 0.000000 0.000000 0.439433
    15 16.525257 0.000000 0.000000 -0.084957 -0.158775 -1.334693
  time 8
    0 0.099217 -0.082029 37.492666 1.570796 0.000084 -0.017741
    1 0.000005 3.345128 -2.981901 1.530994 0.086270 1.567368
    2 7.536097 -0.097659 0.148442 -0.012647 -0.063494 0.415055
    3 10.842445 1.233543 -1.937610 -2.145483 1.134950 2.629091
    4 6.028143 0.000001 0.000000 1.444586 0.067265 -0.981561
    5 11.692552 0.000000 0.000002 0.000000 0.000000 -1.298210
    6 10.830719 1.256975 1.937660 1.919231 -1.057805 2.792996
    7 6.028142 0.000001 0.000000 -1.560254 0.092679 -0.632834
    8 11.692555 0.000000 0.000000 0.000000 0.000000 -1.246940
    9 13.266299 3.846292 -0.011719 3.151865 0.068528 -0.039814
    10 3.890452 -0.000004 -0.000003 -1.633922 -0.202841 -1.545847
    11 17.848177 0.000000 0.000000 0.000000 0.000000 0.499370
    12 16.525253 0.000000 0.000000 -0.082917 -0.110600 -1.276087
    13 -3.890452 0.000004 0.000007 -1.234565 -0.075965 -1.611512
    14 17.848173 0.000000 0.000000 0.000000 0.000000 0.437387
    15 16.525257 0.000000 0.000000 -0.088349 -0.164867 -1.332210
  time 9
    0 0.103123 -0.082029 37.504385 1.570796 0.000084 -0.022254
    1 0.000005 3.345128 -2.981901 1.531676 0.086270 1.567428
    2 7.536097 -0.062502 0.082034 0.004541 -0.051642 0.449953
    3 10.838538 1.233543 -1.941516 -2.298843 1.132027 2.479950
    4 6.028143 0.000001 0.000000 1.504199 0.072610 -1.024714
    5 11.692552 0.000000 0.000002 0.000000 0.000000 -1.423039
    6 10.826812 1.264788 1.933754 2.021233 -1.060753 2.698185
    7 6.028142 0.000001 0.000000 -1.697300 0.067882 -0.651029
    8 11.692555 0.000000 0.000000 0.000000 0.000000 -1.384845
    9 13.360052 3.822854 -0.015625 3.145192 0.060462 -0.094203
    10 3.890452 -0.000004 -0.000003 -1.633922 -0.200687 -1.546104
    11 17.848177 0.000000 0.000000 0.000000 0.000000 0.496280
    12 16.525253 0.000000 0.000000 -0.085233 -0.114404 -1.274806
    13 -3.890452 0.000004 0.000007 -1.234656 -0.075265 -1.611688
    14 17.848173 0.000000 0.000000 0.000000 0.000000 0.434767
    15 16.525257 0.000000 0.000000 -0.090526 -0.168748 -1.329839
  time 10
    0 0.107030 -0.082029 37.516104 1.570796 0.000084 -0.022723
    1 0.000005 3.345128 -2.981901 1.532269 0.086246 1.567476
    2 7.536097 -0.039064 0.015625 0.035526 -0.042354 0.470248
    3 10.838538 1.241356 -1.937610 -2.393455 1.119857 2.385795
    4 6.028143 0.000001 0.000000 1.565151 0.067173 -1.044379
    5 11.692552 0.000000 0.000002 0.000000 0.000000 -1.496165
    6 10.830719 1.253069 1.937660 2.075571 -1.063289 2.644980
    7 6.028142 0.000001 0.000000 -1.759584 0.041989 -0.663409
    8 11.692555 0.000000 0.000000 0.000000 0.000000 -1.472227
    9 13.438180 3.791603 -0.003906 3.182706 0.063099 -0.130828
    10 3.890452 -0.000004 -0.000003 -1.633922 -0.199071 -1.546361
    11 17.848177 0.000000 0.000000 0.000000 0.000000 0.493113
    12 16.525253 0.000000 0.000000 -0.085426 -0.114832 -1.273236
    13 -3.890452 0.000004 0.000007 -1.234746 -0.073866 -1.611247
    14 17.848173 0.000000 0.000000 0.000000 0.000000 0.431330
    15 16.525257 0.000000 0.000000 -0.090705 -0.169150 -1.327838
  time 11
    0 0.110936 -0.082029 37.531730 1.570796 0.000084 -0.018093
    1 0.000005 3.345128 -2.981901 1.532732 0.086153 1.567524
    2 7.536097 -0.031251 -0.046876 0.089074 -0.034084 0.472449
    3 10.834632 1.256981 -1.933704 -2.430733 1.105753 2.346080
    4 6.028143 0.000001 0.000000 1.636971 0.044459 -1.039533
    5 11.692552 0.000000 0.000002 0.000000 0.000000 -1.506477
    6 10.842438 1.221818 1.941566 2.074808 -1.073998 2.640090
    7 6.028142 0.000001 0.000000 -1.724877 0.010889 -0.680377
    8 11.692555 0.000000 0.000000 0.000000 0.000000 -1.501505
    9 13.512401 3.752539 0.019532 3.279628 0.082166 -0.141181
    10 3.890452 -0.000004 -0.000003 -1.633922 -0.198084 -1.546275
    11 17.848177 0.000000 0.000000 0.000000 0.000000 0.489869
    12 16.525253 0.000000 0.000000 -0.082888 -0.110946 -1.271346
    13 -3.890452 0.000004 0.000007 -1.234746 -0.071637 -1.610191
    14 17.848173 0.000000 0.000000 0.000000 0.000000 0.426992
    15 16.525257 0.000000 0.000000 -0.088384 -0.165149 -1.326356
  time 12
    0 0.114842 -0.082029 37.547355 1.570796 0.000072 -0.009360
    1 0.000005 3.345128 -2.981901 1.533170 0.086059 1.567572
    2 7.536097 -0.027345 -0.128910 0.162081 -0.023789 0.461466
    3 10.826819 1.284326 -1.921985 -2.449077 1.093612 2.323205
    4 6.028143 0.000001 0.000000 1.722838 0.007139 -1.026578
    5 11.692552 0.000000 0.000002 0.000000 0.000000 -1.473581
    6 10.861970 1.174941 1.953285 2.044684 -1.094959 2.660030
    7 6.028142 0.000001 0.000000 -1.622489 -0.024968 -0.711822
    8 11.692555 0.000000 0.000000 0.000000 0.000000 -1.492421
    9 13.578809 3.709569 0.058596 3.423060 0.112631 -0.124877
    10 3.890452 -0.000004 -0.000003 -1.633922 -0.197590 -1.546190
    11 17.848177 0.000000 0.000000 0.000000 0.000000 0.486547
    12 16.525253 0.000000 0.000000 -0.078183 -0.103582 -1.269136
    13 -3.890452 0.000004 0.000007 -1.234837 -0.068709 -1.608429
    14 17.848173 0.000000 0.000000 0.000000 0.000000 0.421917
    15 16.525257 0.000000 0.000000 -0.084064 -0.157569 -1.325171
  time 13
    0 0.118749 -0.082029 37.562981 1.570796 0.000060 0.001834
    1 0.000005 3.345128 -2.981901 1.533608 0.085919 1.567608
    2 7.532191 -0.031251 -0.207038 0.240176 -0.011721 0.442038
    3 10.822913 1.315577 -1.906359 -2.451142 1.083564 2.315781
    4 6.028143 0.000001 0.000000 1.807617 -0.037276 -1.011199
    5 11.692552 0.000000 0.000002 0.000000 0.000000 -1.413018
    6 10.881502 1.124159 1.961098 1.993492 -1.118348 2.699048
    7 6.028142 0.000001 0.000000 -1.484998 -0.057012 -0.749912
    8 11.692555 0.000000 0.000000 0.000000 0.000000 -1.458414
    9 13.641311 3.662693 0.105472 3.590561 0.146296 -0.089886
    10 3.890452 -0.000004 -0.000003 -1.633922 -0.197365 -1.545932
    11 17.848177 0.000000 0.000000 0.000000 0.000000 0.483226
    12 16.525253 0.000000 0.000000 -0.072143 -0.094142 -1.266670
    13 -3.890452 0.000004 0.000007 -1.234837 -0.065299 -1.606316
    14 17.848173 0.000000 0.000000 0.000000 0.000000 0.416269
    15 16.525257 0.000000 0.000000 -0.078530 -0.147837 -1.324133
  time 14
    0 0.122655 -0.082029 37.574700 1.570796 0.000048 0.013849
    1 0.000005 3.345128 -2.981901 1.534021 0.085779 1.567656
    2 7.528284 -0.039064 -0.273446 0.309302 0.000707 0.419457
    3 10.819006 1.339015 -1.894640 -2.439109 1.075378 2.322843
    4 6.028143 0.000001 0.000000 1.877431 -0.079710 -0.995727
    5 11.692552 0.000000 0.000002 0.000000 0.000000 -1.341417
    6 10.901033 1.073376 1.972817 1.932481 -1.136383 2.748514
    7 6.028142 0.000001 0.000000 -1.346120 -0.079469 -0.783809
    8 11.692555 0.000000 0.000000 0.000000 0.000000 -1.413972
    9 13.703813 3.615816 0.140629 3.759001 0.175383 -0.048858
    10 3.890452 -0.000004 -0.000003 -1.633922 -0.197231 -1.545675
    11 17.848177 0.000000 0.000000 0.000000 0.000000 0.479750
    12 16.525253 0.000000 0.000000 -0.065672 -0.083970 -1.264075
    13 -3.890452 0.000004 0.000007 -1.234837 -0.061759 -1.604114
    14 17.848173 0.000000 0.000000 0.000000 0.000000 0.410376
    15 16.525257 0.000000 0.000000 -0.072639 -0.137362 -1.323022
  time 15
    0 0.126561 -0.082029 37.590325 1.570796 0.000036 0.025101
    1 0.000005 3.345128 -2.981901 1.534446 0.085639 1.567692
    2 7.524378 -0.046876 -0.320322 0.355722 0.010714 0.399268
    3 10.819006 1.350734 -1.886827 -2.414748 1.068588 2.343787
    4 6.028143 0.000001 0.000000 1.919821 -0.110395 -0.980535
    5 11.692552 0.000000 0.000002 0.000000 0.000000 -1.277078
    6 10.916659 1.042125 1.976724 1.878525 -1.142322 2.793859
    7 6.028142 0.000001 0.000000 -1.240663 -0.090453 -0.801172
    8 11.692555 0.000000 0.000000 0.000000 0.000000 -1.375161
    9 13.762408 3.568940 0.164068 3.904212 0.193731 -0.018377
    10 3.890452 -0.000004 -0.000003 -1.633922 -0.196961 -1.545504
    11 17.848177 0.000000 0.000000 0.000000 0.000000 0.476196
    12 16.525253 0.000000 0.000000 -0.059601 -0.074490 -1.261385
    13 -3.890452 0.000004 0.000007 -1.234837 -0.058262 -1.601912
    14 17.848173 0.000000 0.000000 0.000000 0.000000 0.404401
    15 16.525257 0.000000 0.000000 -0.067141 -0.127570 -1.321688
  time 16
    0 0.130468 -0.082029 37.605951 1.570796 0.000024 0.035709
    1 0.000005 3.345128 -2.981901 1.534871 0.085499 1.567740
    2 7.524378 -0.054689 -0.328135 0.370410 0.015652 0.381131
    3 10.822913 1.346828 -1.886827 -2.362193 1.060896 2.395512
    4 6.028143 0.000001 0.000000 1.922580 -0.123756 -0.956489
    5 11.692552 0.000000 0.000002 0.000000 0.000000 -1.219347
    6 10.920565 1.026499 1.976724 1.833053 -1.127647 2.834793
    7 6.028142 0.000001 0.000000 -1.177586 -0.089396 -0.787527
    8 11.692555 0.000000 0.000000 0.000000 0.000000 -1.340778
    9 13.817098 3.529876 0.160161 4.027033 0.201521 -0.010644
    10 3.890452 -0.000004 -0.000003 -1.633922 -0.196557 -1.545332
    11 17.848177 0.000000 0.000000 0.000000 0.000000 0.472489
    12 16.525253 0.000000 0.000000 -0.053873 -0.065559 -1.258694
    13 -3.890452 0.000004 0.000007 -1.234837 -0.054809 -1.599799
    14 17.848173 0.000000 0.000000 0.000000 0.000000 0.398425
    15 16.525257 0.000000 0.000000 -0.061982 -0.118321 -1.320206
  time 17
    0 0.134374 -0.082029 37.621576 1.570796 0.000000 0.046786
    1 0.000005 3.345128 -2.981901 1.535296 0.085358 1.567788
    2 7.524378 -0.070315 -0.312510 0.360896 0.016191 0.361344
    3 10.830725 1.327296 -1.890734 -2.282445 1.051183 2.475665
    4 6.028143 0.000001 0.000000 1.892481 -0.124862 -0.922470
    5 11.692552 0.000000 0.000002 0.000000 0.000000 -1.155952
    6 10.924472 1.030406 1.972817 1.792062 -1.097105 2.873714
    7 6.028142 0.000001 0.000000 -1.135848 -0.078828 -0.749200
    8 11.692555 0.000000 0.000000 0.000000 0.000000 -1.300240
    9 13.863974 3.494719 0.144536 4.139030 0.204409 -0.017840
    10 3.890452 -0.000004 -0.000003 -1.633922 -0.196198 -1.545160
    11 17.848177 0.000000 0.000000 0.000000 0.000000 0.468858
    12 16.525253 0.000000 0.000000 -0.047892 -0.056201 -1.255876
    13 -3.890452 0.000004 0.000007 -1.234746 -0.051224 -1.597597
    14 17.848173 0.000000 0.000000 0.000000 0.000000 0.392287
    15 16.525257 0.000000 0.000000 -0.056626 -0.108650 -1.318613
  time 18
    0 0.138281 -0.082029 37.637202 1.570796 0.000000 0.058273
    1 0.000005 3.345128 -2.981901 1.535695 0.085242 1.567824
    2 7.524378 -0.089846 -0.281259 0.338764 0.013878 0.340265
    3 10.838538 1.303857 -1.898546 -2.199808 1.042663 2.556965
    4 6.028143 0.000001 0.000000 1.845409 -0.120393 -0.890874
    5 11.692552 0.000000 0.000002 0.000000 0.000000 -1.088200
    6 10.920565 1.042125 1.968911 1.761747 -1.065262 2.902666
    7 6.028142 0.000001 0.000000 -1.105152 -0.062560 -0.705573
    8 11.692555 0.000000 0.000000 0.000000 0.000000 -1.255573
    9 13.910850 3.459562 0.125004 4.231554 0.203750 -0.027055
    10 3.890452 -0.000004 -0.000003 -1.633922 -0.195884 -1.544989
    11 17.848177 0.000000 0.000000 0.000000 0.000000 0.465228
    12 16.525253 0.000000 0.000000 -0.041688 -0.046518 -1.252961
    13 -3.890452 0.000004 0.000007 -1.234746 -0.047596 -1.595307
    14 17.848173 0.000000 0.000000 0.000000 0.000000 0.385984
    15 16.525257 0.000000 0.000000 -0.051093 -0.098637 -1.317019
  time 19
    0 0.142187 -0.082029 37.652827 1.570796 -0.000012 0.069995
    1 0.000005 3.345128 -2.981901 1.536030 0.085125 1.567860
    2 7.528284 -0.105472 -0.246101 0.315338 0.010690 0.318298
    3 10.846351 1.280419 -1.906359 -2.134630 1.042415 2.617200
    4 6.028143 0.000001 0.000000 1.797166 -0.116707 -0.874098
    5 11.692552 0.000000 0.000002 0.000000 0.000000 -1.017253
    6 10.920565 1.053844 1.961098 1.742490 -1.046880 2.918771
    7 6.028142 0.000001 0.000000 -1.075198 -0.043915 -0.676026
    8 11.692555 0.000000 0.000000 0.000000 0.000000 -1.208879
    9 13.961633 3.420498 0.101566 4.296844 0.196907 -0.024649
    10 3.890452 -0.000004 -0.000003 -1.633922 -0.195660 -1.544817
    11 17.848177 0.000000 0.000000 0.000000 0.000000 0.461597
    12 16.525253 0.000000 0.000000 -0.035321 -0.036651 -1.249982
    13 -3.890452 0.000004 0.000007 -1.234656 -0.043968 -1.593018
    14 17.848173 0.000000 0.000000 0.000000 0.000000 0.379681
    15 16.525257 0.000000 0.000000 -0.045451 -0.088363 -1.315389
  time 20
    0 0.146093 -0.078122 37.668453 1.570796 -0.000024 0.083182
    1 0.000005 3.345128 -2.981901 1.536893 0.084844 1.567944
    2 7.528284 -0.128910 -0.207038 0.290821 0.006831 0.294236
    3 10.858070 1.253075 -1.914172 -2.082251 1.054600 2.660657
    4 6.028143 0.000001 0.000000 1.746583 -0.114680 -0.873538
    5 11.692552 0.000000 0.000002 0.000000 0.000000 -0.939625
    6 10.920565 1.065563 1.957192 1.732862 -1.043715 2.923181
    7 6.028142 0.000001 0.000000 -1.042867 -0.021458 -0.662341
    8 11.692555 0.000000 0.000000 0.000000 0.000000 -1.157606
    9 14.020229 3.377528 0.078127 4.339696 0.182058 -0.007551
    10 3.890452 -0.000004 -0.000003 -1.633922 -0.195525 -1.544646
    11 17.848177 0.000000 0.000000 0.000000 0.000000 0.457967
    12 16.525253 0.000000 0.000000 -0.028242 -0.025523 -1.246875
    13 -3.890452 0.000004 0.000007 -1.234656 -0.040122 -1.590376
    14 17.848173 0.000000 0.000000 0.000000 0.000000 0.373133
    15 16.525257 0.000000 0.000000 -0.039221 -0.076822 -1.313685
  time 21
    0 0.150000 -0.078122 37.680172 1.570796 -0.000048 0.098010
    1 0.000005 3.345128 -2.981901 1.538452 0.084401 1.568099
    2 7.532191 -0.148442 -0.164068 0.260554 0.001127 0.267719
    3 10.869789 1.217917 -1.921985 -2.026570 1.074171 2.704958
    4 6.028143 0.000001 0.000000 1.686718 -0.111408 -0.881088
    5 11.692552 0.000000 0.000002 0.000000 0.000000 -0.854299
    6 10.920565 1.081188 1.949379 1.729526 -1.046447 2.920689
    7 6.028142 0.000001 0.000000 -1.011576 0.006133 -0.653521
    8 11.692555 0.000000 0.000000 0.000000 0.000000 -1.100327
    9 14.074918 3.334558 0.050783 4.370685 0.161313 0.015305
    10 3.890452 -0.000004 -0.000003 -1.633922 -0.195480 -1.544303
    11 17.848177 0.000000 0.000000 0.000000 0.000000 0.454259
    12 16.525253 0.000000 0.000000 -0.020346 -0.012992 -1.243576
    13 -3.890452 0.000004 0.000007 -1.234565 -0.036101 -1.587470
    14 17.848173 0.000000 0.000000 0.000000 0.000000 0.366176
    15 16.525257 0.000000 0.000000 -0.032331 -0.063793 -1.311943
  time 22
    0 0.153906 -0.078122 37.695797 1.570796 -0.000060 0.112896
    1 0.000005 3.345128 -2.981901 1.539984 0.083957 1.568243
    2 7.532191 -0.171880 -0.117191 0.228391 -0.005992 0.240609
    3 10.881508 1.186666 -1.929797 -1.969532 1.096869 2.749863
    4 6.028143 0.000001 0.000000 1.624179 -0.107584 -0.893670
    5 11.692552 0.000000 0.000002 0.000000 0.000000 -0.766287
    6 10.916659 1.096814 1.941566 1.729144 -1.053166 2.914937
    7 6.028142 0.000001 0.000000 -0.981325 0.035611 -0.648972
    8 11.692555 0.000000 0.000000 0.000000 0.000000 -1.041321
    9 14.133513 3.283775 0.027345 4.390801 0.136013 0.040394
    10 3.890452 -0.000004 -0.000003 -1.634014 -0.195570 -1.544045
    11 17.848177 0.000000 0.000000 0.000000 0.000000 0.450706
    12 16.525253 0.000000 0.000000 -0.012331 -0.000338 -1.240213
    13 -3.890452 0.000004 0.000007 -1.234474 -0.032123 -1.584563
    14 17.848173 0.000000 0.000000 0.000000 0.000000 0.359301
    15 16.525257 0.000000 0.000000 -0.025386 -0.050644 -1.310128
  time 23
    0 0.153906 -0.078122 37.707516 1.570796 -0.000084 0.126493
    1 0.000005 3.345128 -2.981901 1.540783 0.083723 1.568327
    2 7.532191 -0.191412 -0.070315 0.198096 -0.013830 0.214917
    3 10.893227 1.155415 -1.937610 -1.915089 1.118650 2.793139
    4 6.028143 0.000001 0.000000 1.565067 -0.103622 -0.908303
    5 11.692552 0.000000 0.000002 0.000000 0.000000 -0.680525
    6 10.916659 1.112439 1.937660 1.728382 -1.062054 2.909664
    7 6.028142 0.000001 0.000000 -0.952461 0.063390 -0.647825
    8 11.692555 0.000000 0.000000 0.000000 0.000000 -0.985168
    9 14.192109 3.236899 0.003906 4.401131 0.107885 0.064431
    10 3.890452 -0.000004 -0.000003 -1.634014 -0.195660 -1.543874
    11 17.848177 0.000000 0.000000 0.000000 0.000000 0.447461
    12 16.525253 0.000000 0.000000 -0.004985 0.011095 -1.237010
    13 -3.890452 0.000004 0.000007 -1.234383 -0.028408 -1.581833
    14 17.848173 0.000000 0.000000 0.000000 0.000000 0.352916
    15 16.525257 0.000000 0.000000 -0.019067 -0.038721 -1.308387
  time 24
    0 0.157812 -0.078122 37.719235 1.570778 -0.000096 0.137218
    1 0.000005 3.345128 -2.981901 1.540152 0.083863 1.568267
    2 7.532191 -0.210944 -0.031251 0.173262 -0.021357 0.192675
    3 10.901040 1.131977 -1.937610 -1.869435 1.135779 2.829835
    4 6.028143 0.000001 0.000000 1.516072 -0.099982 -0.921911
    5 11.692552 0.000000 0.000002 0.000000 0.000000 -0.602607
    6 10.916659 1.120252 1.937660 1.723996 -1.071288 2.908514
    7 6.028142 0.000001 0.000000 -0.925477 0.085999 -0.648537
    8 11.692555 0.000000 0.000000 0.000000 0.000000 -0.936598
    9 14.242892 3.190022 -0.007813 4.402910 0.079134 0.084322
    10 3.890452 -0.000004 -0.000003 -1.634014 -0.195884 -1.543874
    11 17.848177 0.000000 0.000000 0.000000 0.000000 0.444758
    12 16.525253 0.000000 0.000000 0.000922 0.020026 -1.234127
    13 -3.890452 0.000004 0.000007 -1.234293 -0.025217 -1.579808
    14 17.848173 0.000000 0.000000 0.000000 0.000000 0.347432
    15 16.525257 0.000000 0.000000 -0.013962 -0.029392 -1.306793
  time 25
    0 0.161719 -0.078122 37.730954 1.570778 -0.000096 0.143607
    1 0.000005 3.345128 -2.981901 1.537357 0.084611 1.567992
    2 7.532191 -0.222663 0.000000 0.157396 -0.027373 0.175851
    3 10.904946 1.124164 -1.941516 -1.840886 1.144764 2.852711
    4 6.028143 0.000001 0.000000 1.483631 -0.097218 -0.931045
    5 11.692552 0.000000 0.000002 0.000000 0.000000 -0.538631
    6 10.916659 1.120252 1.933754 1.712176 -1.078983 2.915416
    7 6.028142 0.000001 0.000000 -0.901118 0.099850 -0.649486
    8 11.692555 0.000000 0.000000 0.000000 0.000000 -0.900789
    9 14.293675 3.147052 -0.007813 4.397227 0.052217 0.097060
    10 3.890452 -0.000004 -0.000003 -1.633922 -0.196154 -1.544131
    11 17.848177 0.000000 0.000000 0.000000 0.000000 0.442749
    12 16.525253 0.000000 0.000000 0.004647 0.025112 -1.231885
    13 -3.890452 0.000004 0.000007 -1.234202 -0.022725 -1.578663
    14 17.848173 0.000000 0.000000 0.000000 0.000000 0.343339
    15 16.525257 0.000000 0.000000 -0.010695 -0.024023 -1.305534
  time 26
    0 0.161719 -0.078122 37.738767 1.570778 -0.000096 0.143607
    1 0.000005 3.345128 -2.981901 1.531509 0.086223 1.567416
    2 7.532191 -0.230476 0.011719 0.154522 -0.030872 0.166941
    3 10.901040 1.139790 -1.937610 -1.845192 1.143325 2.847520
    4 6.028143 0.000001 0.000000 1.476859 -0.096757 -0.934680
    5 11.692552 0.000000 0.000002 0.000000 0.000000 -0.496803
    6 10.920565 1.100720 1.937660 1.687295 -1.086353 2.935931
    7 6.028142 0.000001 0.000000 -0.879284 0.100303 -0.651543
    8 11.692555 0.000000 0.000000 0.000000 0.000000 -0.883898
    9 14.336645 3.115801 0.000000 4.400835 0.027421 0.094976
    10 3.890452 -0.000004 -0.000003 -1.633739 -0.196468 -1.544817
    11 17.848177 0.000000 0.000000 0.000000 0.000000 0.441745
    12 16.525253 0.000000 0.000000 0.005137 0.024644 -1.230572
    13 -3.890452 0.000004 0.000007 -1.234111 -0.021283 -1.578927
    14 17.848173 0.000000 0.000000 0.000000 0.000000 0.341293
    15 16.525257 0.000000 0.000000 -0.010106 -0.024425 -1.304793
  time 27
    0 0.165625 -0.078122 37.746580 1.570778 -0.000096 0.137922
    1 0.000005 3.345128 -2.981901 1.522891 0.088559 1.566553
    2 7.532191 -0.230476 0.011719 0.162627 -0.032179 0.165079
    3 10.893227 1.174947 -1.925891 -1.879993 1.133917 2.816014
    4 6.028143 0.000001 0.000000 1.492578 -0.098692 -0.934959
    5 11.692552 0.000000 0.000002 0.000000 0.000000 -0.475744
    6 10.932284 1.065563 1.945473 1.650879 -1.094677 2.968334
    7 6.028142 0.000001 0.000000 -0.860420 0.089131 -0.656092
    8 11.692555 0.000000 0.000000 0.000000 0.000000 -0.883898
    9 14.371802 3.088457 0.027345 4.411115 0.003188 0.080262
    10 3.890452 -0.000004 -0.000003 -1.633556 -0.196872 -1.545847
    11 17.848177 0.000000 0.000000 0.000000 0.000000 0.441668
    12 16.525253 0.000000 0.000000 0.002718 0.019151 -1.230124
    13 -3.890452 0.000004 0.000007 -1.234202 -0.020802 -1.580424
    14 17.848173 0.000000 0.000000 0.000000 0.000000 0.341211
    15 16.525257 0.000000 0.000000 -0.011944 -0.030055 -1.304570
  time 28
    0 0.165625 -0.078122 37.754393 1.570778 -0.000084 0.128896
    1 0.000005 3.345128 -2.981901 1.512548 0.091386 1.565475
    2 7.532191 -0.222663 0.007813 0.176022 -0.032107 0.167258
    3 10.881508 1.214011 -1.914172 -1.926650 1.120133 2.774851
    4 6.028143 0.000001 0.000000 1.518580 -0.101410 -0.933561
    5 11.692552 0.000000 0.000002 0.000000 0.000000 -0.467030
    6 10.940097 1.026499 1.957192 1.610173 -1.102329 3.005625
    7 6.028142 0.000001 0.000000 -0.845567 0.072449 -0.662025
    8 11.692555 0.000000 0.000000 0.000000 0.000000 -0.893207
    9 14.406959 3.065018 0.062502 4.400093 -0.021572 0.065827
    10 3.890452 -0.000004 -0.000003 -1.633282 -0.197455 -1.547133
    11 17.848177 0.000000 0.000000 0.000000 0.000000 0.442363
    12 16.525253 0.000000 0.000000 -0.001349 0.010749 -1.230284
    13 -3.890452 0.000004 0.000007 -1.234202 -0.020933 -1.582714
    14 17.848173 0.000000 0.000000 0.000000 0.000000 0.342357
    15 16.525257 0.000000 0.000000 -0.015158 -0.038681 -1.304756
  time 29
    0 0.169531 -0.078122 37.758299 1.570796 -0.000072 0.118991
    1 0.000005 3.345128 -2.981901 1.501509 0.094400 1.564312
    2 7.532191 -0.218757 0.000000 0.189071 -0.031519 0.170496
    3 10.869789 1.253075 -1.898546 -1.968706 1.106349 2.738456
    4 6.028143 0.000001 0.000000 1.542660 -0.103115 -0.932070
    5 11.692552 0.000000 0.000002 0.000000 0.000000 -0.461656
    6 10.951816 0.991342 1.965005 1.573758 -1.108203 3.039658
    7 6.028142 0.000001 0.000000 -0.836011 0.056143 -0.667839
    8 11.692555 0.000000 0.000000 0.000000 0.000000 -0.904542
    9 14.442117 3.041580 0.089846 4.339152 -0.048238 0.065677
    10 3.890452 -0.000004 -0.000003 -1.633099 -0.198263 -1.548420
    11 17.848177 0.000000 0.000000 0.000000 0.000000 0.443676
    12 16.525253 0.000000 0.000000 -0.005816 0.001534 -1.230764
    13 -3.890452 0.000004 0.000007 -1.234202 -0.021414 -1.585180
    14 17.848173 0.000000 0.000000 0.000000 0.000000 0.344158
    15 16.525257 0.000000 0.000000 -0.018764 -0.048110 -1.305200
  time 30
    0 0.169531 -0.078122 37.762205 1.570796 -0.000060 0.110669
    1 0.000005 3.345128 -2.981901 1.490817 0.097251 1.563138
    2 7.532191 -0.214850 0.000000 0.196142 -0.031208 0.171851
    3 10.861976 1.280419 -1.890734 -1.992890 1.097785 2.718116
    4 6.028143 0.000001 0.000000 1.552442 -0.101963 -0.932163
    5 11.692552 0.000000 0.000002 0.000000 0.000000 -0.450764
    6 10.955723 0.971810 1.972817 1.550211 -1.111650 3.061994
    7 6.028142 0.000001 0.000000 -0.832843 0.046141 -0.671399
    8 11.692555 0.000000 0.000000 0.000000 0.000000 -0.910848
    9 14.485087 3.010329 0.105472 4.198983 -0.074928 0.095169
    10 3.890452 -0.000004 -0.000003 -1.632824 -0.199430 -1.549706
    11 17.848177 0.000000 0.000000 0.000000 0.000000 0.445298
    12 16.525253 0.000000 0.000000 -0.009497 -0.006360 -1.231277
    13 -3.890452 0.000004 0.000007 -1.234202 -0.021851 -1.587381
    14 17.848173 0.000000 0.000000 0.000000 0.000000 0.346122
    15 16.525257 0.000000 0.000000 -0.021709 -0.056173 -1.305904
  time 31
    0 0.169531 -0.078122 37.742674 1.570796 -0.000048 0.103402
    1 0.000005 3.345128 -2.981901 1.479173 0.100335 1.561844
    2 7.532191 -0.214850 0.000000 0.201603 -0.031783 0.171343
    3 10.858070 1.296045 -1.882921 -2.007813 1.092041 2.705200
    4 6.028143 0.000001 0.000000 1.554867 -0.100258 -0.933654
    5 11.692552 0.000000 0.000002 0.000000 0.000000 -0.433553
    6 10.959629 0.956185 1.972817 1.531145 -1.114620 3.079442
    7 6.028142 0.000001 0.000000 -0.829377 0.040027 -0.673455
    8 11.692555 0.000000 0.000000 0.000000 0.000000 -0.913326
    9 14.535869 2.967359 0.113285 3.974198 -0.092629 0.162468
    10 3.890452 -0.000004 -0.000003 -1.632550 -0.203919 -1.550907
    11 17.848177 0.000000 0.000000 0.000000 0.000000 0.453486
    12 16.525253 0.000000 0.000000 -0.012524 -0.013460 -1.234896
    13 -3.890452 0.000004 0.000007 -1.234202 -0.025479 -1.590816
    14 17.848173 0.000000 0.000000 0.000000 0.000000 0.355699
    15 16.525257 0.000000 0.000000 -0.024101 -0.063371 -1.310906
  time 32
    0 0.169531 -0.078122 37.687984 1.570796 -0.000048 0.095607
    1 0.000005 3.345128 -2.981901 1.465880 0.103792 1.560309
    2 7.532191 -0.214850 0.000000 0.209220 -0.032742 0.170920
    3 10.854164 1.311670 -1.879014 -2.022972 1.085818 2.691620
    4 6.028143 0.000001 0.000000 1.558044 -0.099383 -0.935332
    5 11.692552 0.000000 0.000002 0.000000 0.000000 -0.416343
    6 10.963535 0.936653 1.976724 1.510936 -1.117698 3.097464
    7 6.028142 0.000001 0.000000 -0.824673 0.033837 -0.675235
    8 11.692555 0.000000 0.000000 0.000000 0.000000 -0.916704
    9 14.590559 2.920483 0.117191 3.694601 -0.087499 0.255329
    10 3.890452 -0.000004 -0.000003 -1.632275 -0.212582 -1.551936
    11 17.848177 0.000000 0.000000 0.000000 0.000000 0.470017
    12 16.525253 0.000000 0.000000 -0.015745 -0.021170 -1.242775
    13 -3.890452 0.000004 0.000007 -1.233930 -0.033434 -1.595924
    14 17.848173 0.000000 0.000000 0.000000 0.000000 0.375425
    15 16.525257 0.000000 0.000000 -0.026672 -0.071192 -1.321317
  time 33
    0 0.165625 -0.078122 37.625482 1.570796 -0.000036 0.087988
    1 0.000005 3.345128 -2.981901 1.452883 0.107157 1.558775
    2 7.532191 -0.214850 0.000000 0.212410 -0.033101 0.170623
    3 10.850257 1.319483 -1.875108 -2.028339 1.083550 2.687274
    4 6.028143 0.000001 0.000000 1.551773 -0.096020 -0.937755
    5 11.692552 0.000000 0.000002 0.000000 0.000000 -0.399931
    6 10.967442 0.932746 1.980630 1.503691 -1.118781 3.104367
    7 6.028142 0.000001 0.000000 -0.829080 0.031270 -0.675156
    8 11.692555 0.000000 0.000000 0.000000 0.000000 -0.919557
    9 14.645248 2.877513 0.117191 3.385200 -0.050815 0.354010
    10 3.890452 -0.000004 -0.000003 -1.631909 -0.222322 -1.552966
    11 17.848177 0.000000 0.000000 0.000000 0.000000 0.488942
    12 16.525253 0.000000 0.000000 -0.018936 -0.028758 -1.251936
    13 -3.890452 0.000004 0.000007 -1.233658 -0.042439 -1.601296
    14 17.848173 0.000000 0.000000 0.000000 0.000000 0.397607
    15 16.525257 0.000000 0.000000 -0.029225 -0.078893 -1.333099
  time 34
    0 0.165625 -0.078122 37.566887 1.570796 -0.000024 0.081131
    1 0.000005 3.345128 -2.981901 1.442166 0.109890 1.557469
    2 7.532191 -0.214850 0.000000 0.204621 -0.031927 0.170475
    3 10.850257 1.307764 -1.882921 -2.013770 1.089715 2.702242
    4 6.028143 0.000001 0.000000 1.525687 -0.086989 -0.941297
    5 11.692552 0.000000 0.000002 0.000000 0.000000 -0.385190
    6 10.959629 0.952278 1.976724 1.523328 -1.115768 3.088741
    7 6.028142 0.000001 0.000000 -0.852944 0.035988 -0.671636
    8 11.692555 0.000000 0.000000 0.000000 0.000000 -0.920307
    9 14.696031 2.838449 0.101566 3.069868 0.012859 0.437226
    10 3.890452 -0.000004 -0.000003 -1.631635 -0.230491 -1.553823
    11 17.848177 0.000000 0.000000 0.000000 0.000000 0.504932
    12 16.525253 0.000000 0.000000 -0.021860 -0.035492 -1.259751
    13 -3.890452 0.000004 0.000007 -1.233295 -0.050001 -1.605787
    14 17.848173 0.000000 0.000000 0.000000 0.000000 0.416023
    15 16.525257 0.000000 0.000000 -0.031634 -0.085709 -1.342881
  time 35
    0 0.161719 -0.078122 37.535636 1.570796 -0.000024 0.075797
    1 0.000005 3.345128 -2.981901 1.435661 0.111549 1.556678
    2 7.532191 -0.210944 0.000000 0.179241 -0.028248 0.170454
    3 10.861976 1.264794 -1.898546 -1.966759 1.108050 2.749079
    4 6.028143 0.000001 0.000000 1.469418 -0.068974 -0.946982
    5 11.692552 0.000000 0.000002 0.000000 0.000000 -0.372700
    6 10.940097 1.014780 1.965005 1.582528 -1.105580 3.040712
    7 6.028142 0.000001 0.000000 -0.906564 0.051501 -0.663884
    8 11.692555 0.000000 0.000000 0.000000 0.000000 -0.917379
    9 14.735094 2.815011 0.066408 2.767536 0.086553 0.490455
    10 3.890452 -0.000004 -0.000003 -1.631452 -0.234620 -1.554424
    11 17.848177 0.000000 0.000000 0.000000 0.000000 0.513351
    12 16.525253 0.000000 0.000000 -0.024294 -0.040537 -1.263915
    13 -3.890452 0.000004 0.000007 -1.233114 -0.053978 -1.608429
    14 17.848173 0.000000 0.000000 0.000000 0.000000 0.425682
    15 16.525257 0.000000 0.000000 -0.033705 -0.090856 -1.347809
  time 36
    0 0.157812 -0.078122 37.547355 1.570796 -0.000012 0.072339
    1 0.000005 3.345128 -2.981901 1.436382 0.111946 1.556690
    2 7.532191 -0.207037 0.000000 0.123911 -0.020074 0.170623
    3 10.881508 1.174947 -1.937610 -1.857048 1.142569 2.856935
    4 6.028143 0.000001 0.000000 1.354539 -0.033221 -0.960776
    5 11.692552 0.000000 0.000002 0.000000 0.000000 -0.363550
    6 10.897127 1.143690 1.937660 1.697590 -1.080674 2.947147
    7 6.028142 0.000001 0.000000 -1.008804 0.087282 -0.651820
    8 11.692555 0.000000 0.000000 0.000000 0.000000 -0.908371
    9 14.766345 2.815011 0.003906 2.497922 0.144378 0.511098
    10 3.890452 -0.000004 -0.000003 -1.631452 -0.233229 -1.554338
    11 17.848177 0.000000 0.000000 0.000000 0.000000 0.511420
    12 16.525253 0.000000 0.000000 -0.026268 -0.043304 -1.263307
    13 -3.890452 0.000004 0.000007 -1.233204 -0.053629 -1.608429
    14 17.848173 0.000000 0.000000 0.000000 0.000000 0.424045
    15 16.525257 0.000000 0.000000 -0.035490 -0.093772 -1.346364
  time 37
    0 0.153906 -0.078122 37.582512 1.570796 -0.000012 0.070347
    1 0.000005 3.345128 -2.981901 1.443016 0.111386 1.557385
    2 7.532191 -0.199225 0.000000 0.042999 -0.008126 0.170306
    3 10.916666 1.042131 -1.972767 -1.668651 1.181929 3.041867
    4 6.028143 0.000001 0.000000 1.187320 0.016907 -0.987246
    5 11.692552 0.000000 0.000002 0.000000 0.000000 -0.355998
    6 10.834625 1.319477 1.890784 1.845160 -1.036909 2.830479
    7 6.028142 0.000001 0.000000 -1.153573 0.139821 -0.642011
    8 11.692555 0.000000 0.000000 0.000000 0.000000 -0.893882
    9 14.789783 2.826730 -0.078127 2.273730 0.171068 0.505985
    10 3.890452 -0.000004 -0.000003 -1.631635 -0.227977 -1.553823
    11 17.848177 0.000000 0.000000 0.000000 0.000000 0.502537
    12 16.525253 0.000000 0.000000 -0.027930 -0.044341 -1.259527
    13 -3.890452 0.000004 0.000007 -1.233386 -0.050612 -1.606580
    14 17.848173 0.000000 0.000000 0.000000 0.000000 0.414959
    15 16.525257 0.000000 0.000000 -0.037133 -0.094958 -1.340621
  time 38
    0 0.150000 -0.078122 37.625482 1.570796 -0.000012 0.069116
    1 0.000005 3.345128 -2.981901 1.451079 0.110171 1.558284
    2 7.532191 -0.195318 0.000000 -0.044925 0.004374 0.168782
    3 10.955729 0.889782 -2.007925 -1.423982 1.206982 3.283111
    4 6.028143 0.000001 0.000000 1.009901 0.067081 -1.021731
    5 11.692552 0.000000 0.000002 0.000000 0.000000 -0.347066
    6 10.764310 1.506983 1.812656 1.983769 -0.980095 2.726561
    7 6.028142 0.000001 0.000000 -1.313839 0.193115 -0.640073
    8 11.692555 0.000000 0.000000 0.000000 0.000000 -0.877442
    9 14.809315 2.838449 -0.167974 2.103955 0.165891 0.485407
    10 3.890452 -0.000004 -0.000003 -1.631818 -0.221334 -1.553137
    11 17.848177 0.000000 0.000000 0.000000 0.000000 0.490950
    12 16.525253 0.000000 0.000000 -0.029251 -0.044504 -1.254466
    13 -3.890452 0.000004 0.000007 -1.233658 -0.046241 -1.604026
    14 17.848173 0.000000 0.000000 0.000000 0.000000 0.402682
    15 16.525257 0.000000 0.000000 -0.038472 -0.095259 -1.333211
  time 39
    0 0.142187 -0.078122 37.660640 1.570796 -0.000012 0.068237
    1 0.000005 3.345128 -2.981901 1.456090 0.108582 1.558919
    2 7.532191 -0.187506 0.000000 -0.121381 0.014322 0.166179
    3 10.994793 0.753059 -2.023550 -1.184327 1.209701 3.520794
    4 6.028143 0.000001 0.000000 0.866010 0.106843 -1.051742
    5 11.692552 0.000000 0.000002 0.000000 0.000000 -0.336318
    6 10.705715 1.674957 1.726716 2.091300 -0.922522 2.652361
    7 6.028142 0.000001 0.000000 -1.461233 0.233199 -0.643553
    8 11.692555 0.000000 0.000000 0.000000 0.000000 -0.862803
    9 14.828847 2.850168 -0.242195 1.962946 0.135318 0.450694
    10 3.890452 -0.000004 -0.000003 -1.632001 -0.215903 -1.552708
    11 17.848177 0.000000 0.000000 0.000000 0.000000 0.481217
    12 16.525253 0.000000 0.000000 -0.030215 -0.044707 -1.250142
    13 -3.890452 0.000004 0.000007 -1.233839 -0.042089 -1.601912
    14 17.848173 0.000000 0.000000 0.000000 0.000000 0.391959
    15 16.525257 0.000000 0.000000 -0.039418 -0.095561 -1.327023
  time 40
    0 0.138281 -0.078122 37.664546 1.570796 -0.000012 0.067123
    1 0.000005 3.345128 -2.981901 1.453578 0.106947 1.558859
    2 7.536097 -0.179693 0.000000 -0.167744 0.018804 0.163491
    3 11.022138 0.663213 -2.027457 -1.019996 1.199639 3.686049
    4 6.028143 0.000001 0.000000 0.801547 0.130294 -1.059385
    5 11.692552 0.000000 0.000002 0.000000 0.000000 -0.324845
    6 10.654932 1.792148 1.660308 2.158030 -0.879646 2.611810
    7 6.028142 0.000001 0.000000 -1.564661 0.249919 -0.643632
    8 11.692555 0.000000 0.000000 0.000000 0.000000 -0.853870
    9 14.852285 2.850168 -0.281259 1.820602 0.090172 0.402105
    10 3.890452 -0.000004 -0.000003 -1.631909 -0.214512 -1.552966
    11 17.848177 0.000000 0.000000 0.000000 0.000000 0.478359
    12 16.525253 0.000000 0.000000 -0.030779 -0.045765 -1.248637
    13 -3.890452 0.000004 0.000007 -1.233839 -0.039947 -1.601472
    14 17.848173 0.000000 0.000000 0.000000 0.000000 0.387948
    15 16.525257 0.000000 0.000000 -0.039846 -0.096687 -1.325171
  time 41
    0 0.134374 -0.078122 37.621576 1.570796 -0.000012 0.065717
    1 0.000005 3.345128 -2.981901 1.437400 0.105101 1.557589
    2 7.536097 -0.171880 0.000000 -0.176050 0.015975 0.161523
    3 11.037763 0.616336 -2.027457 -0.928451 1.189592 3.781412
    4 6.028143 0.000001 0.000000 0.848285 0.134164 -1.027417
    5 11.692552 0.000000 0.000002 0.000000 0.000000 -0.313226
    6 10.619775 1.862462 1.613431 2.193398 -0.852832 2.595609
    7 6.028142 0.000001 0.000000 -1.619073 0.242068 -0.626150
    8 11.692555 0.000000 0.000000 0.000000 0.000000 -0.862428
    9 14.875724 2.846262 -0.292978 1.688835 0.036709 0.350208
    10 3.890452 -0.000004 -0.000003 -1.631452 -0.220481 -1.554338
    11 17.848177 0.000000 0.000000 0.000000 0.000000 0.488092
    12 16.525253 0.000000 0.000000 -0.030468 -0.048227 -1.252481
    13 -3.890452 0.000004 0.000007 -1.233567 -0.041564 -1.604026
    14 17.848173 0.000000 0.000000 0.000000 0.000000 0.396461
    15 16.525257 0.000000 0.000000 -0.039186 -0.099120 -1.331395
  time 42
    0 0.126561 -0.078122 37.539542 1.570796 0.000000 0.064544
    1 0.000005 3.345128 -2.981901 1.410568 0.102811 1.555444
    2 7.536097 -0.164067 0.000000 -0.158690 0.007982 0.160021
    3 11.045576 0.592898 -2.027457 -0.873596 1.182089 3.842130
    4 6.028143 0.000001 0.000000 0.975789 0.117900 -0.966928
    5 11.692552 0.000000 0.000002 0.000000 0.000000 -0.300663
    6 10.592430 1.913245 1.586087 2.213131 -0.834775 2.591774
    7 6.028142 0.000001 0.000000 -1.644423 0.218479 -0.592530
    8 11.692555 0.000000 0.000000 0.000000 0.000000 -0.885549
    9 14.903068 2.846262 -0.289071 1.586278 -0.022927 0.302650
    10 3.890452 -0.000004 -0.000003 -1.630629 -0.231703 -1.556654
    11 17.848177 0.000000 0.000000 0.000000 0.000000 0.506554
    12 16.525253 0.000000 0.000000 -0.029310 -0.051583 -1.259912
    13 -3.890452 0.000004 0.000007 -1.232932 -0.045455 -1.608694
    14 17.848173 0.000000 0.000000 0.000000 0.000000 0.413486
    15 16.525257 0.000000 0.000000 -0.037615 -0.102297 -1.343400
  time 43
    0 0.122655 -0.078122 37.453602 1.570796 0.000000 0.063372
    1 0.000005 3.345128 -2.981901 1.382256 0.100241 1.553251
    2 7.536097 -0.152348 0.000000 -0.127389 -0.002001 0.158412
    3 11.041669 0.596805 -2.027457 -0.854603 1.179167 3.868868
    4 6.028143 0.000001 0.000000 1.135650 0.082101 -0.902618
    5 11.692552 0.000000 0.000002 0.000000 0.000000 -0.286140
    6 10.568992 1.940590 1.574368 2.219422 -0.827817 2.597047
    7 6.028142 0.000001 0.000000 -1.646254 0.184019 -0.557881
    8 11.692555 0.000000 0.000000 0.000000 0.000000 -0.905143
    9 14.926506 2.842355 -0.269539 1.523805 -0.082106 0.262374
    10 3.890452 -0.000004 -0.000003 -1.629714 -0.243014 -1.559313
    11 17.848177 0.000000 0.000000 0.000000 0.000000 0.525015
    12 16.525253 0.000000 0.000000 -0.027960 -0.055103 -1.267343
    13 -3.890452 0.000004 0.000007 -1.232297 -0.048995 -1.613361
    14 17.848173 0.000000 0.000000 0.000000 0.000000 0.430347
    15 16.525257 0.000000 0.000000 -0.035919 -0.105514 -1.355589
  time 44
    0 0.114842 -0.078122 37.398913 1.570796 0.000000 0.062317
    1 0.000005 3.345128 -2.981901 1.361685 0.097694 1.551800
    2 7.536097 -0.144536 0.000000 -0.093903 -0.010846 0.156296
    3 11.033857 0.628056 -2.027457 -0.872711 1.181566 3.860297
    4 6.028143 0.000001 0.000000 1.281966 0.038239 -0.854618
    5 11.692552 0.000000 0.000002 0.000000 0.000000 -0.270963
    6 10.557273 1.944496 1.586087 2.213321 -0.833973 2.609509
    7 6.028142 0.000001 0.000000 -1.629668 0.143369 -0.537907
    8 11.692555 0.000000 0.000000 0.000000 0.000000 -0.903717
    9 14.953851 2.838449 -0.238289 1.511794 -0.132586 0.229402
    10 3.890452 -0.000004 -0.000003 -1.628982 -0.249926 -1.561286
    11 17.848177 0.000000 0.000000 0.000000 0.000000 0.535984
    12 16.525253 0.000000 0.000000 -0.027158 -0.057910 -1.271603
    13 -3.890452 0.000004 0.000007 -1.231753 -0.050219 -1.616179
    14 17.848173 0.000000 0.000000 0.000000 0.000000 0.439760
    15 16.525257 0.000000 0.000000 -0.034901 -0.108067 -1.362999
  time 45
    0 0.110936 -0.078122 37.410632 1.570796 0.000000 0.061204
    1 0.000005 3.345128 -2.981901 1.358039 0.095475 1.551836
    2 7.536097 -0.136723 0.000000 -0.070018 -0.015508 0.153672
    3 11.010418 0.686651 -2.031363 -0.931873 1.188516 3.812495
    4 6.028143 0.000001 0.000000 1.373434 0.008015 -0.835046
    5 11.692552 0.000000 0.000002 0.000000 0.000000 -0.257892
    6 10.557273 1.921058 1.613431 2.195018 -0.855086 2.628107
    7 6.028142 0.000001 0.000000 -1.598031 0.103474 -0.547954
    8 11.692555 0.000000 0.000000 0.000000 0.000000 -0.864154
    9 14.981196 2.830636 -0.203131 1.560577 -0.164812 0.203152
    10 3.890452 -0.000004 -0.000003 -1.628890 -0.248221 -1.561714
    11 17.848177 0.000000 0.000000 0.000000 0.000000 0.532508
    12 16.525253 0.000000 0.000000 -0.027603 -0.059029 -1.269777
    13 -3.890452 0.000004 0.000007 -1.231844 -0.047465 -1.615651
    14 17.848173 0.000000 0.000000 0.000000 0.000000 0.434931
    15 16.525257 0.000000 0.000000 -0.035223 -0.109233 -1.360925
  time 46
    0 0.107030 -0.078122 37.500479 1.570796 0.000000 0.060090
    1 0.000005 3.345128 -2.981901 1.375622 0.093629 1.553634
    2 7.536097 -0.128910 0.000000 -0.056537 -0.015244 0.150645
    3 10.975261 0.784310 -2.035269 -1.052142 1.198665 3.705967
    4 6.028143 0.000001 0.000000 1.402949 0.001979 -0.843154
    5 11.692552 0.000000 0.000002 0.000000 0.000000 -0.248306
    6 10.572898 1.858556 1.668121 2.157268 -0.896185 2.658401
    7 6.028142 0.000001 0.000000 -1.541985 0.066523 -0.596485
    8 11.692555 0.000000 0.000000 0.000000 0.000000 -0.776472
    9 15.012447 2.811104 -0.156255 1.732428 -0.170301 0.180447
    10 3.890452 -0.000004 -0.000003 -1.629531 -0.235608 -1.559999
    11 17.848177 0.000000 0.000000 0.000000 0.000000 0.510416
    12 16.525253 0.000000 0.000000 -0.029637 -0.058032 -1.260040
    13 -3.890452 0.000004 0.000007 -1.232388 -0.039510 -1.610631
    14 17.848173 0.000000 0.000000 0.000000 0.000000 0.411522
    15 16.525257 0.000000 0.000000 -0.037258 -0.108630 -1.346512
  time 47
    0 0.095310 -0.078122 37.645014 1.570796 0.000000 0.059035
    1 0.000005 3.345128 -2.981901 1.408314 0.091924 1.556666
    2 7.536097 -0.121097 0.000000 -0.045586 -0.012056 0.147323
    3 10.920572 0.917127 -2.027457 -1.236764 1.204772 3.537693
    4 6.028143 0.000001 0.000000 1.399771 0.012069 -0.867760
    5 11.692552 0.000000 0.000002 0.000000 0.000000 -0.241262
    6 10.608056 1.760897 1.738435 2.094065 -0.954863 2.707771
    7 6.028142 0.000001 0.000000 -1.456232 0.034441 -0.674563
    8 11.692555 0.000000 0.000000 0.000000 0.000000 -0.652455
    9 15.051510 2.779853 -0.105472 2.041828 -0.147027 0.162640
    10 3.890452 -0.000004 -0.000003 -1.630629 -0.214063 -1.556997
    11 17.848177 0.000000 0.000000 0.000000 0.000000 0.472720
    12 16.525253 0.000000 0.000000 -0.032828 -0.055591 -1.243544
    13 -3.890452 0.000004 0.000007 -1.233386 -0.026091 -1.601912
    14 17.848173 0.000000 0.000000 0.000000 0.000000 0.371415
    15 16.525257 0.000000 0.000000 -0.040578 -0.106740 -1.321651
  time 48
    0 0.087498 -0.078122 37.828614 1.570796 0.000000 0.057980
    1 0.000005 3.345128 -2.981901 1.449637 0.090171 1.560345
    2 7.536097 -0.113285 0.000000 -0.036101 -0.007155 0.143916
    3 10.861976 1.073382 -2.011831 -1.454654 1.197429 3.337733
    4 6.028143 0.000001 0.000000 1.378367 0.034277 -0.900660
    5 11.692552 0.000000 0.000002 0.000000 0.000000 -0.236034
    6 10.651026 1.635893 1.816563 2.005313 -1.021454 2.780054
    7 6.028142 0.000001 0.000000 -1.350774 0.014625 -0.768462
    8 11.692555 0.000000 0.000000 0.000000 0.000000 -0.508094
    9 15.090574 2.740790 -0.058596 2.427393 -0.102720 0.159332
    10 3.890452 -0.000004 -0.000003 -1.631818 -0.185381 -1.553652
    11 17.848177 0.000000 0.000000 0.000000 0.000000 0.422202
    12 16.525253 0.000000 0.000000 -0.036627 -0.052601 -1.221251
    13 -3.890452 0.000004 0.000007 -1.234293 -0.006596 -1.589847
    14 17.848173 0.000000 0.000000 0.000000 0.000000 0.315510
    15 16.525257 0.000000 0.000000 -0.044737 -0.104227 -1.287675
  time 49
    0 0.075779 -0.078122 38.020026 1.570796 0.000000 0.056867
    1 0.000005 3.345128 -2.981901 1.493110 0.088279 1.564133
    2 7.536097 -0.109378 0.000000 -0.027018 -0.001762 0.140572
    3 10.799474 1.233543 -1.976674 -1.663873 1.174063 3.146887
    4 6.028143 0.000001 0.000000 1.352198 0.062842 -0.934027
    5 11.692552 0.000000 0.000002 0.000000 0.000000 -0.231749
    6 10.701809 1.499170 1.886877 1.891776 -1.086267 2.877741
    7 6.028142 0.000001 0.000000 -1.237791 0.010058 -0.863508
    8 11.692555 0.000000 0.000000 0.000000 0.000000 -0.360129
    9 15.129638 2.697820 -0.023438 2.830800 -0.053823 0.172693
    10 3.890452 -0.000004 -0.000003 -1.632733 -0.151582 -1.550650
    11 17.848177 0.000000 0.000000 0.000000 0.000000 0.361796
    12 16.525253 0.000000 0.000000 -0.040545 -0.049753 -1.194154
    13 -3.890452 0.000004 0.000007 -1.234928 0.020461 -1.575052
    14 17.848173 0.000000 0.000000 0.000000 0.000000 0.242662
    15 16.525257 0.000000 0.000000 -0.049272 -0.101653 -1.244919
  time 50
    0 0.067966 -0.078122 38.191906 1.570796 0.000000 0.055812
    1 0.000005 3.345128 -2.981901 1.532269 0.086246 1.567476
    2 7.536097 -0.101566 0.000000 -0.017188 0.002864 0.137376
    3 10.744785 1.374172 -1.937610 -1.832805 1.140490 2.995815
    4 6.028143 0.000001 0.000000 1.335309 0.090671 -0.959938
    5 11.692552 0.000000 0.000002 0.000000 0.000000 -0.227901
    6 10.744779 1.374166 1.937660 1.760984 -1.140501 2.995847
    7 6.028142 0.000001 0.000000 -1.131046 0.018060 -0.945897
    8 11.692555 0.000000 0.000000 0.000000 0.000000 -0.227855
    9 15.164795 2.650943 0.000000 3.195210 -0.015304 0.191102
    10 3.890452 -0.000004 -0.000003 -1.633282 -0.115360 -1.548677
    11 17.848177 0.000000 0.000000 0.000000 0.000000 0.295597
    12 16.525253 0.000000 0.000000 -0.044107 -0.047616 -1.163821
    13 -3.890452 0.000004 0.000007 -1.234746 0.059451 -1.556382
    14 17.848173 0.000000 0.000000 0.000000 0.000000 0.145341
    15 16.525257 0.000000 0.000000 -0.053592 -0.099622 -1.190083
end
