// Created by Crowbar 0.74
version 1
nodes
  0 "ValveBiped.Bip01" -1
  1 "ValveBiped.Bip01_Spine" 0
  2 "ValveBiped.Bip01_Spine2" 1
  3 "ValveBiped.Bip01_R_Clavicle" 2
  4 "ValveBiped.Bip01_R_UpperArm" 3
  5 "ValveBiped.Bip01_R_Forearm" 4
  6 "ValveBiped.Bip01_L_Clavicle" 2
  7 "ValveBiped.Bip01_L_UpperArm" 6
  8 "ValveBiped.Bip01_L_Forearm" 7
  9 "ValveBiped.Bip01_Head1" 2
  10 "ValveBiped.Bip01_L_Thigh" 0
  11 "ValveBiped.Bip01_L_Calf" 10
  12 "ValveBiped.Bip01_L_Foot" 11
  13 "ValveBiped.Bip01_R_Thigh" 0
  14 "ValveBiped.Bip01_R_Calf" 13
  15 "ValveBiped.Bip01_R_Foot" 14
end
skeleton
  time 0
    0 0.595326 3.839966 32.371416 1.730270 0.114513 -0.589697
    1 0.000005 3.345128 -2.981901 1.570796 0.008422 1.570796
    2 7.489221 0.582049 -0.039064 -0.519844 -0.069642 0.473931
    3 10.596343 1.889813 -1.609475 -2.710792 1.066378 2.172254
    4 6.028143 0.000001 0.000000 1.050535 0.887469 -0.850424
    5 11.692552 0.000000 0.000002 0.000000 0.000000 -1.600516
    6 10.682277 1.065563 2.175949 0.920657 -1.219903 3.858348
    7 6.028142 0.000001 0.000000 -1.991889 -0.293740 -0.355884
    8 11.692555 0.000000 0.000000 0.000000 0.000000 -1.784747
    9 15.391364 2.361872 0.375011 4.231307 0.205152 -0.119207
    10 3.886546 -0.226573 -0.000003 -2.203612 -0.790483 -0.883171
    11 17.848177 0.000000 0.000000 0.000000 0.000000 1.157035
    12 16.525253 0.000000 0.000000 -0.053160 0.181106 -1.367981
    13 -3.886546 0.226573 0.000007 -1.556556 -0.365984 -1.824632
    14 17.848173 0.000000 0.000000 0.000000 0.000000 0.773468
    15 16.525257 0.000000 0.000000 0.506533 0.127557 -1.485452
  time 1
    0 0.505479 3.945438 32.461262 1.727202 0.112260 -0.583543
    1 0.000005 3.345128 -2.981901 1.570796 0.008398 1.570796
    2 7.493127 0.570330 -0.039064 -0.505042 -0.069103 0.466672
    3 10.604156 1.878094 -1.617288 -2.705130 1.071205 2.175453
    4 6.028143 0.000001 0.000000 1.062826 0.853974 -0.841383
    5 11.692552 0.000000 0.000002 0.000000 0.000000 -1.605237
    6 10.682277 1.073376 2.172042 0.933813 -1.223111 3.844160
    7 6.028142 0.000001 0.000000 -1.974956 -0.285512 -0.385114
    8 11.692555 0.000000 0.000000 0.000000 0.000000 -1.779492
    9 15.395271 2.350153 0.363292 4.210202 0.197470 -0.118132
    10 3.886546 -0.226573 -0.000003 -2.196567 -0.786578 -0.889004
    11 17.848177 0.000000 0.000000 0.000000 0.000000 1.141045
    12 16.525253 0.000000 0.000000 -0.052760 0.185826 -1.354785
    13 -3.886546 0.226573 0.000007 -1.551477 -0.359777 -1.823135
    14 17.848173 0.000000 0.000000 0.000000 0.000000 0.769539
    15 16.525257 0.000000 0.000000 0.502481 0.130191 -1.483081
  time 2
    0 0.267191 4.246228 32.711270 1.718627 0.105968 -0.566547
    1 0.000005 3.345128 -2.981901 1.570796 0.008375 1.570796
    2 7.497033 0.535173 -0.035157 -0.464255 -0.067449 0.446863
    3 10.611969 1.846843 -1.644632 -2.689322 1.084320 2.184567
    4 6.028143 0.000001 0.000000 1.091755 0.763301 -0.821811
    5 11.692552 0.000000 0.000002 0.000000 0.000000 -1.615258
    6 10.682277 1.096814 2.156417 0.971086 -1.231565 3.804376
    7 6.028142 0.000001 0.000000 -1.930892 -0.260110 -0.460462
    8 11.692555 0.000000 0.000000 0.000000 0.000000 -1.761099
    9 15.403083 2.326715 0.335948 4.151831 0.176929 -0.114867
    10 3.886546 -0.226573 -0.000003 -2.175983 -0.774952 -0.906759
    11 17.848177 0.000000 0.000000 0.000000 0.000000 1.096011
    12 16.525253 0.000000 0.000000 -0.051721 0.198175 -1.318943
    13 -3.886546 0.226573 0.000007 -1.537055 -0.342555 -1.818467
    14 17.848173 0.000000 0.000000 0.000000 0.000000 0.758162
    15 16.525257 0.000000 0.000000 0.491324 0.137409 -1.476264
  time 3
    0 -0.088289 4.691554 33.078469 1.705389 0.096224 -0.541111
    1 0.000005 3.345128 -2.981901 1.570796 0.008305 1.570796
    2 7.504846 0.480483 -0.031251 -0.402717 -0.064453 0.417510
    3 10.631501 1.796060 -1.679790 -2.664312 1.103615 2.199596
    4 6.028143 0.000001 0.000000 1.126118 0.631576 -0.803170
    5 11.692552 0.000000 0.000002 0.000000 0.000000 -1.622011
    6 10.690089 1.131971 2.136885 1.029618 -1.243227 3.741776
    7 6.028142 0.000001 0.000000 -1.871974 -0.216819 -0.558910
    8 11.692555 0.000000 0.000000 0.000000 0.000000 -1.722513
    9 15.422615 2.287651 0.296884 4.063608 0.147602 -0.109261
    10 3.886546 -0.226573 -0.000003 -2.142498 -0.754754 -0.936951
    11 17.848177 0.000000 0.000000 0.000000 0.000000 1.025332
    12 16.525253 0.000000 0.000000 -0.050266 0.215223 -1.265485
    13 -3.886546 0.226573 0.000007 -1.515105 -0.316154 -1.811686
    14 17.848173 0.000000 0.000000 0.000000 0.000000 0.739254
    15 16.525257 0.000000 0.000000 0.474704 0.148106 -1.465260
  time 4
    0 -0.533615 5.250165 33.539420 1.688276 0.083616 -0.509404
    1 0.000005 3.345128 -2.981901 1.570796 0.008211 1.570796
    2 7.512659 0.414075 -0.027345 -0.325686 -0.059887 0.381702
    3 10.651032 1.733558 -1.726666 -2.630927 1.126894 2.220600
    4 6.028143 0.000001 0.000000 1.159813 0.476170 -0.792638
    5 11.692552 0.000000 0.000002 0.000000 0.000000 -1.617291
    6 10.693996 1.174941 2.109540 1.106835 -1.256016 3.659523
    7 6.028142 0.000001 0.000000 -1.809590 -0.160241 -0.657634
    8 11.692555 0.000000 0.000000 0.000000 0.000000 -1.656151
    9 15.442147 2.236868 0.250008 3.952846 0.113626 -0.101356
    10 3.886546 -0.226573 -0.000003 -2.097761 -0.724277 -0.979236
    11 17.848177 0.000000 0.000000 0.000000 0.000000 0.931479
    12 16.525253 0.000000 0.000000 -0.048634 0.234366 -1.198926
    13 -3.886546 0.226573 0.000007 -1.487713 -0.282322 -1.803848
    14 17.848173 0.000000 0.000000 0.000000 0.000000 0.712653
    15 16.525257 0.000000 0.000000 0.454264 0.161155 -1.450106
  time 5
    0 -1.033630 5.879091 34.051155 1.668164 0.068851 -0.473712
    1 0.000005 3.345128 -2.981901 1.570796 0.008141 1.570796
    2 7.520472 0.343761 -0.023438 -0.238509 -0.053679 0.342445
    3 10.670564 1.663243 -1.773543 -2.590228 1.152049 2.247519
    4 6.028143 0.000001 0.000000 1.192002 0.314036 -0.792825
    5 11.692552 0.000000 0.000002 0.000000 0.000000 -1.595578
    6 10.701809 1.221818 2.074383 1.198923 -1.267894 3.561741
    7 6.028142 0.000001 0.000000 -1.749583 -0.100983 -0.740973
    8 11.692555 0.000000 0.000000 0.000000 0.000000 -1.557583
    9 15.461679 2.178273 0.195318 3.827109 0.078715 -0.091604
    10 3.886546 -0.226573 -0.000003 -2.045065 -0.681456 -1.031043
    11 17.848177 0.000000 0.000000 0.000000 0.000000 0.816847
    12 16.525253 0.000000 0.000000 -0.046971 0.253611 -1.123432
    13 -3.886546 0.226573 0.000007 -1.456240 -0.242851 -1.795306
    14 17.848173 0.000000 0.000000 0.000000 0.000000 0.678275
    15 16.525257 0.000000 0.000000 0.431593 0.175511 -1.430950
  time 6
    0 -1.553177 6.543173 34.586327 1.646141 0.052852 -0.436203
    1 0.000005 3.345128 -2.981901 1.570796 0.008048 1.570796
    2 7.528284 0.265633 -0.019532 -0.146646 -0.046045 0.302701
    3 10.690096 1.589022 -1.820419 -2.543807 1.177000 2.279568
    4 6.028143 0.000001 0.000000 1.224359 0.159966 -0.803729
    5 11.692552 0.000000 0.000002 0.000000 0.000000 -1.555203
    6 10.709621 1.264788 2.039226 1.299305 -1.277302 3.455138
    7 6.028142 0.000001 0.000000 -1.692646 -0.050973 -0.802675
    8 11.692555 0.000000 0.000000 0.000000 0.000000 -1.427335
    9 15.485117 2.111864 0.140629 3.694205 0.045877 -0.080885
    10 3.886546 -0.226573 -0.000003 -1.988983 -0.624721 -1.088424
    11 17.848177 0.000000 0.000000 0.000000 0.000000 0.684372
    12 16.525253 0.000000 0.000000 -0.045398 0.271574 -1.043004
    13 -3.886546 0.226573 0.000007 -1.422771 -0.199665 -1.786499
    14 17.848173 0.000000 0.000000 0.000000 0.000000 0.636695
    15 16.525257 0.000000 0.000000 0.408225 0.190108 -1.408238
  time 7
    0 -2.068818 7.195537 35.105874 1.623574 0.036685 -0.399045
    1 0.000005 3.345128 -2.981901 1.570796 0.007954 1.570796
    2 7.532191 0.191412 -0.015625 -0.055646 -0.037548 0.265074
    3 10.709628 1.518708 -1.863389 -2.494613 1.199872 2.314816
    4 6.028143 0.000001 0.000000 1.258555 0.025200 -0.823768
    5 11.692552 0.000000 0.000002 0.000000 0.000000 -1.498707
    6 10.721340 1.307758 2.004068 1.399496 -1.283415 3.348824
    7 6.028142 0.000001 0.000000 -1.637441 -0.018740 -0.844404
    8 11.692555 0.000000 0.000000 0.000000 0.000000 -1.270512
    9 15.504649 2.049362 0.089846 3.562142 0.017306 -0.070317
    10 3.886546 -0.226573 -0.000003 -1.934365 -0.553712 -1.146492
    11 17.848177 0.000000 0.000000 0.000000 0.000000 0.538301
    12 16.525253 0.000000 0.000000 -0.044018 0.287381 -0.962032
    13 -3.886546 0.226573 0.000007 -1.389121 -0.155037 -1.777516
    14 17.848173 0.000000 0.000000 0.000000 0.000000 0.589548
    15 16.525257 0.000000 0.000000 0.385643 0.204061 -1.382859
  time 8
    0 -2.541489 7.804931 35.578545 1.602165 0.021584 -0.364349
    1 0.000005 3.345128 -2.981901 1.570796 0.007884 1.570796
    2 7.536097 0.125004 -0.011719 0.028887 -0.029063 0.232017
    3 10.725253 1.452299 -1.898546 -2.447308 1.219036 2.349641
    4 6.028143 0.000001 0.000000 1.294424 -0.083303 -0.849306
    5 11.692552 0.000000 0.000002 0.000000 0.000000 -1.432843
    6 10.733060 1.339009 1.972817 1.489010 -1.286363 3.253437
    7 6.028142 0.000001 0.000000 -1.584515 -0.006889 -0.872091
    8 11.692555 0.000000 0.000000 0.000000 0.000000 -1.097399
    9 15.524181 1.986861 0.046876 3.439419 -0.005501 -0.061016
    10 3.886546 -0.226573 -0.000003 -1.885420 -0.471975 -1.200185
    11 17.848177 0.000000 0.000000 0.000000 0.000000 0.392231
    12 16.525253 0.000000 0.000000 -0.042875 0.300198 -0.890925
    13 -3.886546 0.226573 0.000007 -1.357556 -0.111938 -1.768710
    14 17.848173 0.000000 0.000000 0.000000 0.000000 0.539783
    15 16.525257 0.000000 0.000000 0.365185 0.216547 -1.356330
  time 9
    0 -2.936032 8.328384 35.965276 1.583841 0.008893 -0.334166
    1 0.000005 3.345128 -2.981901 1.570796 0.007814 1.570796
    2 7.536097 0.070315 -0.007813 0.101347 -0.021704 0.205648
    3 10.736973 1.401517 -1.925891 -2.408437 1.233140 2.378492
    4 6.028143 0.000001 0.000000 1.329456 -0.163287 -0.874657
    5 11.692552 0.000000 0.000002 0.000000 0.000000 -1.369012
    6 10.740872 1.366353 1.949379 1.557838 -1.286948 3.179717
    7 6.028142 0.000001 0.000000 -1.537083 -0.011191 -0.892184
    8 11.692555 0.000000 0.000000 0.000000 0.000000 -0.925787
    9 15.539806 1.936078 0.015625 3.334391 -0.021512 -0.053841
    10 3.886546 -0.226573 -0.000003 -1.845715 -0.390732 -1.244100
    11 17.848177 0.000000 0.000000 0.000000 0.000000 0.267480
    12 16.525253 0.000000 0.000000 -0.042029 0.309678 -0.840862
    13 -3.886546 0.226573 0.000007 -1.329802 -0.074085 -1.760431
    14 17.848173 0.000000 0.000000 0.000000 0.000000 0.492718
    15 16.525257 0.000000 0.000000 0.348137 0.226822 -1.331358
  time 10
    0 -3.225103 8.726834 36.238721 1.570796 0.000000 -0.310606
    1 0.000005 3.345128 -2.981901 1.570796 0.007768 1.570796
    2 7.536097 0.035157 -0.007813 0.156045 -0.016754 0.187829
    3 10.744785 1.374172 -1.937610 -2.385551 1.241065 2.394727
    4 6.028143 0.000001 0.000000 1.358134 -0.216180 -0.893018
    5 11.692552 0.000000 0.000002 0.000000 0.000000 -1.322391
    6 10.744779 1.374166 1.937660 1.596637 -1.286515 3.137057
    7 6.028142 0.000001 0.000000 -1.500198 -0.018249 -0.908480
    8 11.692555 0.000000 0.000000 0.000000 0.000000 -0.787507
    9 15.551525 1.900920 0.000000 3.255558 -0.029758 -0.049330
    10 3.886546 -0.226573 -0.000003 -1.817811 -0.335523 -1.272148
    11 17.848177 0.000000 0.000000 0.000000 0.000000 0.209006
    12 16.525253 0.000000 0.000000 -0.041495 0.315557 -0.832727
    13 -3.886546 0.226573 0.000007 -1.307308 -0.046460 -1.753034
    14 17.848173 0.000000 0.000000 0.000000 0.000000 0.456212
    15 16.525257 0.000000 0.000000 0.335713 0.234241 -1.311943
  time 11
    0 -3.436047 9.035437 36.410602 1.562380 -0.005333 -0.291382
    1 0.000005 3.345128 -2.981901 1.570332 0.007861 1.570796
    2 7.536097 0.011719 -0.007813 0.195021 -0.014334 0.177141
    3 10.748692 1.366359 -1.937610 -2.380773 1.243318 2.396055
    4 6.028143 0.000001 0.000000 1.378367 -0.250827 -0.901406
    5 11.692552 0.000000 0.000002 0.000000 0.000000 -1.298863
    6 10.744779 1.374166 1.937660 1.606074 -1.285886 3.124882
    7 6.028142 0.000001 0.000000 -1.475789 -0.016966 -0.923075
    8 11.692555 0.000000 0.000000 0.000000 0.000000 -0.692618
    9 15.555432 1.881389 0.000000 3.198818 -0.030920 -0.046967
    10 3.886546 -0.226573 -0.000003 -1.797684 -0.315280 -1.286214
    11 17.848177 0.000000 0.000000 0.000000 0.000000 0.225768
    12 16.525253 0.000000 0.000000 -0.041183 0.319117 -0.866967
    13 -3.886546 0.226573 0.000007 -1.288714 -0.029325 -1.746957
    14 17.848173 0.000000 0.000000 0.000000 0.000000 0.432967
    15 16.525257 0.000000 0.000000 0.326662 0.239609 -1.299420
  time 12
    0 -3.607928 9.320602 36.527793 1.556418 -0.008473 -0.273214
    1 0.000005 3.345128 -2.981901 1.569121 0.008141 1.570796
    2 7.536097 0.000000 -0.007813 0.225143 -0.013603 0.170433
    3 10.752598 1.366359 -1.937610 -2.389385 1.241675 2.386096
    4 6.028143 0.000001 0.000000 1.392330 -0.276582 -0.902152
    5 11.692552 0.000000 0.000002 0.000000 0.000000 -1.292255
    6 10.748685 1.366353 1.937660 1.594921 -1.285236 3.133797
    7 6.028142 0.000001 0.000000 -1.461629 -0.008927 -0.936642
    8 11.692555 0.000000 0.000000 0.000000 0.000000 -0.620925
    9 15.559338 1.869669 0.007813 3.153298 -0.027169 -0.045979
    10 3.886546 -0.226573 -0.000003 -1.779844 -0.305854 -1.295221
    11 17.848177 0.000000 0.000000 0.000000 0.000000 0.258520
    12 16.525253 0.000000 0.000000 -0.040901 0.322210 -0.908158
    13 -3.886546 0.226573 0.000007 -1.270936 -0.018922 -1.741145
    14 17.848173 0.000000 0.000000 0.000000 0.000000 0.419052
    15 16.525257 0.000000 0.000000 0.318950 0.244173 -1.291528
  time 13
    0 -3.748557 9.578422 36.594201 1.552736 -0.009767 -0.256335
    1 0.000005 3.345128 -2.981901 1.567498 0.008539 1.570796
    2 7.536097 -0.003906 -0.007813 0.248109 -0.014358 0.167026
    3 10.756504 1.378078 -1.925891 -2.408319 1.236819 2.367446
    4 6.028143 0.000001 0.000000 1.400440 -0.296164 -0.895628
    5 11.692552 0.000000 0.000002 0.000000 0.000000 -1.300388
    6 10.744779 1.350728 1.949379 1.567275 -1.284434 3.159489
    7 6.028142 0.000001 0.000000 -1.457520 0.007718 -0.948429
    8 11.692555 0.000000 0.000000 0.000000 0.000000 -0.573781
    9 15.563245 1.865763 0.027345 3.117366 -0.019523 -0.045979
    10 3.886546 -0.226573 -0.000003 -1.764108 -0.301634 -1.301053
    11 17.848177 0.000000 0.000000 0.000000 0.000000 0.288877
    12 16.525253 0.000000 0.000000 -0.040634 0.325098 -0.943519
    13 -3.886546 0.226573 0.000007 -1.253612 -0.014508 -1.735949
    14 17.848173 0.000000 0.000000 0.000000 0.000000 0.413650
    15 16.525257 0.000000 0.000000 0.312524 0.247933 -1.287934
  time 14
    0 -3.857935 9.801085 36.621546 1.551158 -0.009612 -0.240862
    1 0.000005 3.345128 -2.981901 1.565772 0.008982 1.570784
    2 7.536097 -0.003906 -0.007813 0.265613 -0.016323 0.166243
    3 10.756504 1.401517 -1.906359 -2.434213 1.229360 2.343123
    4 6.028143 0.000001 0.000000 1.404286 -0.311322 -0.883232
    5 11.692552 0.000000 0.000002 0.000000 0.000000 -1.319705
    6 10.744779 1.327290 1.968911 1.527332 -1.283198 3.197931
    7 6.028142 0.000001 0.000000 -1.463114 0.033120 -0.958317
    8 11.692555 0.000000 0.000000 0.000000 0.000000 -0.549458
    9 15.559338 1.865763 0.054689 3.089292 -0.008952 -0.046559
    10 3.886546 -0.226573 -0.000003 -1.750568 -0.301141 -1.304312
    11 17.848177 0.000000 0.000000 0.000000 0.000000 0.307493
    12 16.525253 0.000000 0.000000 -0.040382 0.327987 -0.964883
    13 -3.886546 0.226573 0.000007 -1.237739 -0.015207 -1.732074
    14 17.848173 0.000000 0.000000 0.000000 0.000000 0.415287
    15 16.525257 0.000000 0.000000 0.307347 0.250969 -1.288009
  time 15
    0 -3.939969 9.988591 36.617639 1.551456 -0.008365 -0.227148
    1 0.000005 3.345128 -2.981901 1.564252 0.009356 1.570784
    2 7.536097 0.000000 -0.007813 0.279381 -0.019235 0.167491
    3 10.756504 1.428861 -1.886827 -2.463823 1.219952 2.316083
    4 6.028143 0.000001 0.000000 1.405457 -0.323301 -0.866175
    5 11.692552 0.000000 0.000002 0.000000 0.000000 -1.346283
    6 10.744779 1.299945 1.988443 1.479477 -1.281291 3.244618
    7 6.028142 0.000001 0.000000 -1.477571 0.065504 -0.966821
    8 11.692555 0.000000 0.000000 0.000000 0.000000 -0.542626
    9 15.559338 1.869669 0.085940 3.067447 0.003595 -0.047333
    10 3.886546 -0.226573 -0.000003 -1.739590 -0.303744 -1.305256
    11 17.848177 0.000000 0.000000 0.000000 0.000000 0.306412
    12 16.525253 0.000000 0.000000 -0.040100 0.331079 -0.964755
    13 -3.886546 0.226573 0.000007 -1.223590 -0.019753 -1.728640
    14 17.848173 0.000000 0.000000 0.000000 0.000000 0.422244
    15 16.525257 0.000000 0.000000 0.303402 0.253261 -1.290787
  time 16
    0 -3.986845 10.137033 36.594201 1.553367 -0.006448 -0.215426
    1 0.000005 3.345128 -2.981901 1.563261 0.009613 1.570784
    2 7.536097 0.000000 -0.011719 0.291051 -0.022783 0.170179
    3 10.756504 1.456206 -1.863389 -2.494201 1.209352 2.288742
    4 6.028143 0.000001 0.000000 1.405875 -0.333483 -0.846416
    5 11.692552 0.000000 0.000002 0.000000 0.000000 -1.376637
    6 10.744779 1.272601 2.007975 1.427999 -1.278581 3.295043
    7 6.028142 0.000001 0.000000 -1.499901 0.102115 -0.974613
    8 11.692555 0.000000 0.000000 0.000000 0.000000 -0.546080
    9 15.555432 1.873576 0.117191 3.050148 0.017210 -0.048020
    10 3.886546 -0.226573 -0.000003 -1.730715 -0.310163 -1.304655
    11 17.848177 0.000000 0.000000 0.000000 0.000000 0.298378
    12 16.525253 0.000000 0.000000 -0.039862 0.333724 -0.954857
    13 -3.886546 0.226573 0.000007 -1.211073 -0.026965 -1.726702
    14 17.848173 0.000000 0.000000 0.000000 0.000000 0.432557
    15 16.525257 0.000000 0.000000 0.300670 0.254850 -1.295308
  time 17
    0 -4.010284 10.242505 36.555137 1.556558 -0.004231 -0.205873
    1 0.000005 3.345128 -2.981901 1.563106 0.009660 1.570784
    2 7.536097 0.011719 -0.011719 0.302404 -0.026666 0.173734
    3 10.756504 1.487457 -1.839951 -2.523044 1.198345 2.263090
    4 6.028143 0.000001 0.000000 1.407045 -0.343758 -0.825818
    5 11.692552 0.000000 0.000002 0.000000 0.000000 -1.407572
    6 10.740872 1.245256 2.027506 1.377189 -1.275178 3.344893
    7 6.028142 0.000001 0.000000 -1.528369 0.139481 -0.981970
    8 11.692555 0.000000 0.000000 0.000000 0.000000 -0.552160
    9 15.555432 1.881389 0.152348 3.035666 0.030896 -0.048514
    10 3.886546 -0.226573 -0.000003 -1.723579 -0.321788 -1.303197
    11 17.848177 0.000000 0.000000 0.000000 0.000000 0.302086
    12 16.525253 0.000000 0.000000 -0.039729 0.335209 -0.952359
    13 -3.886546 0.226573 0.000007 -1.201096 -0.035576 -1.725733
    14 17.848173 0.000000 0.000000 0.000000 0.000000 0.444098
    15 16.525257 0.000000 0.000000 0.299117 0.255754 -1.300643
  time 18
    0 -4.006377 10.305007 36.508261 1.560766 -0.002145 -0.198782
    1 0.000005 3.345128 -2.981901 1.564098 0.009426 1.570784
    2 7.536097 0.019532 -0.015625 0.315080 -0.030573 0.177522
    3 10.756504 1.514801 -1.816513 -2.548467 1.187847 2.240698
    4 6.028143 0.000001 0.000000 1.410139 -0.356290 -0.806246
    5 11.692552 0.000000 0.000002 0.000000 0.000000 -1.436691
    6 10.736966 1.217911 2.047038 1.331049 -1.271363 3.390333
    7 6.028142 0.000001 0.000000 -1.560007 0.174583 -0.988377
    8 11.692555 0.000000 0.000000 0.000000 0.000000 -0.554112
    9 15.551525 1.885295 0.183599 3.022371 0.043672 -0.048793
    10 3.886546 -0.226573 -0.000003 -1.718182 -0.336331 -1.301568
    11 17.848177 0.000000 0.000000 0.000000 0.000000 0.314213
    12 16.525253 0.000000 0.000000 -0.039699 0.335514 -0.955722
    13 -3.886546 0.226573 0.000007 -1.193024 -0.044362 -1.725998
    14 17.848173 0.000000 0.000000 0.000000 0.000000 0.455230
    15 16.525257 0.000000 0.000000 0.298742 0.255955 -1.305793
  time 19
    0 -3.975126 10.316726 36.465291 1.565623 -0.000599 -0.194327
    1 0.000005 3.345128 -2.981901 1.566558 0.008819 1.570784
    2 7.536097 0.027345 -0.015625 0.330773 -0.034204 0.180972
    3 10.756504 1.538240 -1.796981 -2.568993 1.178832 2.222591
    4 6.028143 0.000001 0.000000 1.415657 -0.373660 -0.789656
    5 11.692552 0.000000 0.000002 0.000000 0.000000 -1.461672
    6 10.733060 1.198380 2.062664 1.292918 -1.267656 3.427625
    7 6.028142 0.000001 0.000000 -1.590258 0.204551 -0.992214
    8 11.692555 0.000000 0.000000 0.000000 0.000000 -0.545854
    9 15.551525 1.889201 0.207038 3.008631 0.054530 -0.049008
    10 3.886546 -0.226573 -0.000003 -1.714614 -0.351547 -1.300367
    11 17.848177 0.000000 0.000000 0.000000 0.000000 0.330821
    12 16.525253 0.000000 0.000000 -0.039773 0.334578 -0.963089
    13 -3.886546 0.226573 0.000007 -1.187944 -0.052273 -1.726966
    14 17.848173 0.000000 0.000000 0.000000 0.000000 0.464070
    15 16.525257 0.000000 0.000000 0.299546 0.255513 -1.310017
  time 20
    0 -3.920437 10.277662 36.434040 1.570796 0.000000 -0.192804
    1 0.000005 3.345128 -2.981901 1.570796 0.007768 1.570796
    2 7.536097 0.035157 -0.019532 0.351238 -0.037248 0.183533
    3 10.756504 1.553865 -1.785262 -2.583444 1.172289 2.209675
    4 6.028143 0.000001 0.000000 1.423851 -0.398263 -0.778099
    5 11.692552 0.000000 0.000002 0.000000 0.000000 -1.480334
    6 10.733060 1.178848 2.074383 1.266130 -1.264643 3.453509
    7 6.028142 0.000001 0.000000 -1.612736 0.226820 -0.991027
    8 11.692555 0.000000 0.000000 0.000000 0.000000 -0.521757
    9 15.551525 1.889201 0.226569 2.992716 0.062440 -0.049352
    10 3.886546 -0.226573 -0.000003 -1.712875 -0.365058 -1.300367
    11 17.848177 0.000000 0.000000 0.000000 0.000000 0.348588
    12 16.525253 0.000000 0.000000 -0.039981 0.332341 -0.972890
    13 -3.886546 0.226573 0.000007 -1.185767 -0.058218 -1.729168
    14 17.848173 0.000000 0.000000 0.000000 0.000000 0.469063
    15 16.525257 0.000000 0.000000 0.301474 0.254387 -1.312462
  time 21
    0 -3.732931 10.031561 36.359819 1.581054 0.000000 -0.201243
    1 0.000005 3.345128 -2.981901 1.582041 0.004497 1.570820
    2 7.536097 0.046876 -0.019532 0.393059 -0.042078 0.187892
    3 10.756504 1.569491 -1.769636 -2.597070 1.165964 2.197423
    4 6.028143 0.000001 0.000000 1.448850 -0.444613 -0.772879
    5 11.692552 0.000000 0.000002 0.000000 0.000000 -1.499869
    6 10.733060 1.163222 2.082196 1.240868 -1.261478 3.477858
    7 6.028142 0.000001 0.000000 -1.607240 0.281699 -0.976907
    8 11.692555 0.000000 0.000000 0.000000 0.000000 -0.550959
    9 15.547619 1.889201 0.246101 2.969684 0.068396 -0.051908
    10 3.886546 -0.226573 -0.000003 -1.717816 -0.392303 -1.299938
    11 17.848177 0.000000 0.000000 0.000000 0.000000 0.402196
    12 16.525253 0.000000 0.000000 -0.040738 0.324020 -1.007899
    13 -3.886546 0.226573 0.000007 -1.193749 -0.067572 -1.737446
    14 17.848173 0.000000 0.000000 0.000000 0.000000 0.476102
    15 16.525257 0.000000 0.000000 0.309150 0.249924 -1.316575
  time 22
    0 -3.365733 9.515920 36.215283 1.598430 0.000000 -0.222928
    1 0.000005 3.345128 -2.981901 1.601414 -0.001274 1.570880
    2 7.536097 0.062502 -0.023438 0.454770 -0.049508 0.195447
    3 10.756504 1.585116 -1.754011 -2.610931 1.159247 2.185291
    4 6.028143 0.000001 0.000000 1.491825 -0.513171 -0.774464
    5 11.692552 0.000000 0.000002 0.000000 0.000000 -1.522525
    6 10.729153 1.147597 2.093915 1.214938 -1.257967 3.503263
    7 6.028142 0.000001 0.000000 -1.565799 0.363829 -0.944592
    8 11.692555 0.000000 0.000000 0.000000 0.000000 -0.618448
    9 15.547619 1.893108 0.265633 2.944675 0.073022 -0.056526
    10 3.886546 -0.226573 -0.000003 -1.731264 -0.432117 -1.298823
    11 17.848177 0.000000 0.000000 0.000000 0.000000 0.490410
    12 16.525253 0.000000 0.000000 -0.042252 0.307237 -1.069397
    13 -3.886546 0.226573 0.000007 -1.214066 -0.082477 -1.752065
    14 17.848173 0.000000 0.000000 0.000000 0.000000 0.486497
    15 16.525257 0.000000 0.000000 0.324341 0.240976 -1.323096
  time 23
    0 -2.924313 8.871369 36.059028 1.618542 0.000000 -0.252173
    1 0.000005 3.345128 -2.981901 1.623016 -0.007349 1.570952
    2 7.536097 0.085940 -0.027345 0.511164 -0.056687 0.203891
    3 10.756504 1.596835 -1.746198 -2.618068 1.155713 2.179256
    4 6.028143 0.000001 0.000000 1.531205 -0.583756 -0.781547
    5 11.692552 0.000000 0.000002 0.000000 0.000000 -1.540825
    6 10.729153 1.135878 2.101727 1.201592 -1.256059 3.516396
    7 6.028142 0.000001 0.000000 -1.499950 0.431730 -0.905118
    8 11.692555 0.000000 0.000000 0.000000 0.000000 -0.655082
    9 15.547619 1.893108 0.277352 2.931182 0.074676 -0.059856
    10 3.886546 -0.226573 -0.000003 -1.748921 -0.467307 -1.298566
    11 17.848177 0.000000 0.000000 0.000000 0.000000 0.575379
    12 16.525253 0.000000 0.000000 -0.044166 0.285713 -1.133809
    13 -3.886546 0.226573 0.000007 -1.241368 -0.097558 -1.769678
    14 17.848173 0.000000 0.000000 0.000000 0.000000 0.492063
    15 16.525257 0.000000 0.000000 0.342871 0.229978 -1.327727
  time 24
    0 -2.514144 8.230725 35.930118 1.636970 0.000000 -0.283236
    1 0.000005 3.345128 -2.981901 1.640946 -0.011624 1.571012
    2 7.536097 0.101566 -0.027345 0.536946 -0.060546 0.211468
    3 10.756504 1.589022 -1.754011 -2.611639 1.158927 2.184990
    4 6.028143 0.000001 0.000000 1.541071 -0.635266 -0.786860
    5 11.692552 0.000000 0.000002 0.000000 0.000000 -1.551427
    6 10.729153 1.143690 2.093915 1.213699 -1.257793 3.504701
    7 6.028142 0.000001 0.000000 -1.437171 0.483061 -0.886607
    8 11.692555 0.000000 0.000000 0.000000 0.000000 -0.669571
    9 15.547619 1.893108 0.269539 2.942698 0.071680 -0.058417
    10 3.886546 -0.226573 -0.000003 -1.767310 -0.490243 -1.299423
    11 17.848177 0.000000 0.000000 0.000000 0.000000 0.639338
    12 16.525253 0.000000 0.000000 -0.046066 0.264007 -1.187844
    13 -3.886546 0.226573 0.000007 -1.269939 -0.107961 -1.784826
    14 17.848173 0.000000 0.000000 0.000000 0.000000 0.487480
    15 16.525257 0.000000 0.000000 0.360437 0.219422 -1.327505
  time 25
    0 -2.236792 7.730710 35.883242 1.649332 0.000000 -0.310606
    1 0.000005 3.345128 -2.981901 1.649332 -0.011881 1.571036
    2 7.536097 0.105472 -0.027345 0.506852 -0.057838 0.216462
    3 10.756504 1.553865 -1.785262 -2.583444 1.172289 2.209675
    4 6.028143 0.000001 0.000000 1.493581 -0.646877 -0.777912
    5 11.692552 0.000000 0.000002 0.000000 0.000000 -1.552298
    6 10.733060 1.178848 2.074383 1.266130 -1.264643 3.453509
    7 6.028142 0.000001 0.000000 -1.418505 0.530807 -0.922719
    8 11.692555 0.000000 0.000000 0.000000 0.000000 -0.704479
    9 15.551525 1.889201 0.226569 2.992716 0.062440 -0.049352
    10 3.886546 -0.226573 -0.000003 -1.784418 -0.496842 -1.300110
    11 17.848177 0.000000 0.000000 0.000000 0.000000 0.672631
    12 16.525253 0.000000 0.000000 -0.047461 0.247955 -1.222148
    13 -3.886546 0.226573 0.000007 -1.295335 -0.109403 -1.794073
    14 17.848173 0.000000 0.000000 0.000000 0.000000 0.470209
    15 16.525257 0.000000 0.000000 0.372772 0.211923 -1.320687
  time 26
    0 -2.092256 7.371324 35.949650 1.654329 -0.000156 -0.335338
    1 0.000005 3.345128 -2.981901 1.645764 -0.006975 1.571024
    2 7.536097 0.101566 -0.019532 0.392915 -0.045002 0.219002
    3 10.756504 1.479644 -1.843857 -2.516438 1.200207 2.268704
    4 6.028143 0.000001 0.000000 1.379036 -0.602093 -0.754052
    5 11.692552 0.000000 0.000002 0.000000 0.000000 -1.530005
    6 10.740872 1.249162 2.023600 1.386817 -1.276392 3.335211
    7 6.028142 0.000001 0.000000 -1.455341 0.266677 -1.098097
    8 11.692555 0.000000 0.000000 0.000000 0.000000 -0.498410
    9 15.555432 1.877482 0.140629 3.107184 0.043888 -0.032103
    10 3.886546 -0.226573 -0.000003 -1.801526 -0.485620 -1.300453
    11 17.848177 0.000000 0.000000 0.000000 0.000000 0.676493
    12 16.525253 0.000000 0.000000 -0.048307 0.238130 -1.237715
    13 -3.886546 0.226573 0.000007 -1.319280 -0.097339 -1.796010
    14 17.848173 0.000000 0.000000 0.000000 0.000000 0.433458
    15 16.525257 0.000000 0.000000 0.379841 0.207620 -1.303570
  time 27
    0 -2.014129 7.054908 36.090279 1.654925 -0.000479 -0.361360
    1 0.000005 3.345128 -2.981901 1.634197 0.001670 1.570988
    2 7.536097 0.085940 -0.011719 0.212065 -0.023801 0.218219
    3 10.756504 1.374172 -1.929797 -2.400769 1.237677 2.372818
    4 6.028143 0.000001 0.000000 1.234559 -0.513447 -0.720872
    5 11.692552 0.000000 0.000002 0.000000 0.000000 -1.473654
    6 10.752591 1.350728 1.945473 1.575569 -1.285561 3.149711
    7 6.028142 0.000001 0.000000 -1.560007 -0.149220 -1.192194
    8 11.692555 0.000000 0.000000 0.000000 0.000000 -0.209913
    9 15.563245 1.854044 0.015625 3.276910 0.018936 -0.015498
    10 3.886546 -0.226573 -0.000003 -1.820373 -0.461876 -1.301310
    11 17.848177 0.000000 0.000000 0.000000 0.000000 0.662743
    12 16.525253 0.000000 0.000000 -0.048901 0.231172 -1.243352
    13 -3.886546 0.226573 0.000007 -1.345674 -0.072468 -1.794337
    14 17.848173 0.000000 0.000000 0.000000 0.000000 0.375262
    15 16.525257 0.000000 0.000000 0.384447 0.204805 -1.275263
  time 28
    0 -2.002410 6.793181 36.269972 1.653032 -0.000707 -0.386738
    1 0.000005 3.345128 -2.981901 1.618185 0.012277 1.570940
    2 7.536097 0.066408 0.000000 0.006352 0.000312 0.211595
    3 10.752598 1.245262 -2.015737 -2.239505 1.273519 2.521234
    4 6.028143 0.000001 0.000000 1.093176 -0.395545 -0.674923
    5 11.692552 0.000000 0.000002 0.000000 0.000000 -1.394137
    6 10.768217 1.456200 1.855626 1.793491 -1.284000 2.935548
    7 6.028142 0.000001 0.000000 -1.751168 -0.087849 -1.124321
    8 11.692555 0.000000 0.000000 0.000000 0.000000 -0.982766
    9 15.574964 1.814980 -0.121097 3.462946 -0.004578 -0.008023
    10 3.886546 -0.226573 -0.000003 -1.840774 -0.431803 -1.301568
    11 17.848177 0.000000 0.000000 0.000000 0.000000 0.638488
    12 16.525253 0.000000 0.000000 -0.049198 0.227836 -1.242103
    13 -3.886546 0.226573 0.000007 -1.371252 -0.038068 -1.789669
    14 17.848173 0.000000 0.000000 0.000000 0.000000 0.300695
    15 16.525257 0.000000 0.000000 0.386768 0.203378 -1.238583
  time 29
    0 -2.057099 6.593956 36.434040 1.650542 -0.000623 -0.409712
    1 0.000005 3.345128 -2.981901 1.601324 0.023071 1.570880
    2 7.536097 0.050783 0.007813 -0.182374 0.021177 0.199341
    3 10.748692 1.116352 -2.089958 -2.053821 1.298717 2.695000
    4 6.028143 0.000001 0.000000 0.974785 -0.261056 -0.624966
    5 11.692552 0.000000 0.000002 0.000000 0.000000 -1.311499
    6 10.783842 1.549953 1.757967 1.989202 -1.271449 2.743817
    7 6.028142 0.000001 0.000000 -2.061055 -0.395421 -0.791324
    8 11.692555 0.000000 0.000000 0.000000 0.000000 -0.983442
    9 15.578870 1.775917 -0.257820 3.626196 -0.021057 -0.009269
    10 3.886546 -0.226573 -0.000003 -1.862365 -0.401595 -1.299766
    11 17.848177 0.000000 0.000000 0.000000 0.000000 0.611298
    12 16.525253 0.000000 0.000000 -0.049109 0.228853 -1.237234
    13 -3.886546 0.226573 0.000007 -1.394472 0.001359 -1.783593
    14 17.848173 0.000000 0.000000 0.000000 0.000000 0.216961
    15 16.525257 0.000000 0.000000 0.386928 0.203277 -1.197419
  time 30
    0 -2.182103 6.472859 36.543418 1.649332 0.000000 -0.428408
    1 0.000005 3.345128 -2.981901 1.587155 0.032299 1.570844
    2 7.536097 0.035157 0.015625 -0.312205 0.033209 0.184633
    3 10.744785 1.018692 -2.144648 -1.893028 1.310378 2.847399
    4 6.028143 0.000001 0.000000 0.892430 -0.144305 -0.584982
    5 11.692552 0.000000 0.000002 0.000000 0.000000 -1.252243
    6 10.795561 1.620267 1.683746 2.124856 -1.255907 2.611618
    7 6.028142 0.000001 0.000000 -2.383123 -0.609730 -0.287694
    8 11.692555 0.000000 0.000000 0.000000 0.000000 -0.501112
    9 15.582776 1.744666 -0.363292 3.727765 -0.029362 -0.010407
    10 3.886546 -0.226573 -0.000003 -1.885054 -0.377850 -1.294191
    11 17.848177 0.000000 0.000000 0.000000 0.000000 0.589978
    12 16.525253 0.000000 0.000000 -0.048604 0.234793 -1.232718
    13 -3.886546 0.226573 0.000007 -1.412522 0.034842 -1.776019
    14 17.848173 0.000000 0.000000 0.000000 0.000000 0.144932
    15 16.525257 0.000000 0.000000 0.385072 0.204403 -1.162814
  time 31
    0 -2.432110 6.449421 36.590295 1.649402 0.001570 -0.443236
    1 0.000005 3.345128 -2.981901 1.574815 0.040453 1.570808
    2 7.536097 0.019532 0.023438 -0.371243 0.034827 0.167787
    3 10.736973 0.956191 -2.179805 -1.782019 1.313054 2.953988
    4 6.028143 0.000001 0.000000 0.848034 -0.078926 -0.556835
    5 11.692552 0.000000 0.000002 0.000000 0.000000 -1.237356
    6 10.803374 1.667144 1.629057 2.207506 -1.244202 2.532529
    7 6.028142 0.000001 0.000000 -2.470162 -0.646681 -0.072051
    8 11.692555 0.000000 0.000000 0.000000 0.000000 -0.301199
    9 15.582776 1.729040 -0.441420 3.750698 -0.032382 -0.000913
    10 3.886546 -0.226573 -0.000003 -1.912500 -0.360075 -1.281240
    11 17.848177 0.000000 0.000000 0.000000 0.000000 0.574607
    12 16.525253 0.000000 0.000000 -0.047372 0.248993 -1.227978
    13 -3.886546 0.226573 0.000007 -1.427215 0.041923 -1.768446
    14 17.848173 0.000000 0.000000 0.000000 0.000000 0.127252
    15 16.525257 0.000000 0.000000 0.379716 0.207701 -1.157442
  time 32
    0 -2.803216 6.527548 36.602014 1.649437 0.003907 -0.455368
    1 0.000005 3.345128 -2.981901 1.561947 0.048677 1.570772
    2 7.536097 0.000000 0.035157 -0.387483 0.029674 0.148423
    3 10.725253 0.917127 -2.207150 -1.702980 1.311789 3.031063
    4 6.028143 0.000001 0.000000 0.829389 -0.054784 -0.535398
    5 11.692552 0.000000 0.000002 0.000000 0.000000 -1.257326
    6 10.807281 1.698395 1.586087 2.264322 -1.235878 2.479420
    7 6.028142 0.000001 0.000000 -2.372626 -0.597199 -0.124380
    8 11.692555 0.000000 0.000000 0.000000 0.000000 -0.531291
    9 15.578870 1.721227 -0.503922 3.721092 -0.032814 0.018570
    10 3.886546 -0.226573 -0.000003 -1.944521 -0.343378 -1.262284
    11 17.848177 0.000000 0.000000 0.000000 0.000000 0.559312
    12 16.525253 0.000000 0.000000 -0.045458 0.270964 -1.220130
    13 -3.886546 0.226573 0.000007 -1.438916 0.025837 -1.758934
    14 17.848173 0.000000 0.000000 0.000000 0.000000 0.158928
    15 16.525257 0.000000 0.000000 0.370719 0.213190 -1.178598
  time 33
    0 -3.213384 6.656458 36.590295 1.649472 0.006424 -0.464335
    1 0.000005 3.345128 -2.981901 1.549826 0.056271 1.570736
    2 7.536097 -0.011719 0.042970 -0.378314 0.021261 0.129356
    3 10.717441 0.889782 -2.226681 -1.649893 1.308997 3.083754
    4 6.028143 0.000001 0.000000 0.826463 -0.056719 -0.517783
    5 11.692552 0.000000 0.000002 0.000000 0.000000 -1.299735
    6 10.811187 1.721833 1.554836 2.303217 -1.230502 2.444141
    7 6.028142 0.000001 0.000000 -2.241769 -0.560474 -0.225596
    8 11.692555 0.000000 0.000000 0.000000 0.000000 -0.809728
    9 15.574964 1.725134 -0.554704 3.664600 -0.031424 0.041833
    10 3.886546 -0.226573 -0.000003 -1.975535 -0.328521 -1.242042
    11 17.848177 0.000000 0.000000 0.000000 0.000000 0.544558
    12 16.525253 0.000000 0.000000 -0.043291 0.295519 -1.210361
    13 -3.886546 0.226573 0.000007 -1.447442 0.003938 -1.747662
    14 17.848173 0.000000 0.000000 0.000000 0.000000 0.203619
    15 16.525257 0.000000 0.000000 0.360223 0.219543 -1.206793
  time 34
    0 -3.588396 6.797087 36.566856 1.649472 0.008509 -0.469492
    1 0.000005 3.345128 -2.981901 1.539791 0.062509 1.570700
    2 7.536097 -0.027345 0.050783 -0.361270 0.012955 0.113251
    3 10.709628 0.870250 -2.238400 -1.614503 1.306132 3.119425
    4 6.028143 0.000001 0.000000 0.831646 -0.068375 -0.502777
    5 11.692552 0.000000 0.000002 0.000000 0.000000 -1.350712
    6 10.815093 1.737458 1.535304 2.330004 -1.227034 2.420271
    7 6.028142 0.000001 0.000000 -2.115765 -0.550850 -0.317873
    8 11.692555 0.000000 0.000000 0.000000 0.000000 -1.018800
    9 15.571057 1.729040 -0.589862 3.606822 -0.029147 0.062541
    10 3.886546 -0.226573 -0.000003 -2.000419 -0.316985 -1.224544
    11 17.848177 0.000000 0.000000 0.000000 0.000000 0.531658
    12 16.525253 0.000000 0.000000 -0.041317 0.317592 -1.200496
    13 -3.886546 0.226573 0.000007 -1.452793 -0.014639 -1.736918
    14 17.848173 0.000000 0.000000 0.000000 0.000000 0.242580
    15 16.525257 0.000000 0.000000 0.350440 0.225454 -1.231543
  time 35
    0 -3.842310 6.902559 36.547325 1.649490 0.009612 -0.470430
    1 0.000005 3.345128 -2.981901 1.533145 0.066667 1.570688
    2 7.536097 -0.035157 0.054689 -0.353969 0.007862 0.102796
    3 10.701815 0.854625 -2.250120 -1.588254 1.304068 3.145559
    4 6.028143 0.000001 0.000000 0.838251 -0.074089 -0.487864
    5 11.692552 0.000000 0.000002 0.000000 0.000000 -1.399003
    6 10.815093 1.749178 1.519678 2.349356 -1.224021 2.402919
    7 6.028142 0.000001 0.000000 -2.009762 -0.543074 -0.379853
    8 11.692555 0.000000 0.000000 0.000000 0.000000 -1.136886
    9 15.567151 1.729040 -0.617206 3.573410 -0.027529 0.075278
    10 3.886546 -0.226573 -0.000003 -2.014600 -0.310656 -1.213651
    11 17.848177 0.000000 0.000000 0.000000 0.000000 0.523084
    12 16.525253 0.000000 0.000000 -0.039981 0.332402 -1.193065
    13 -3.886546 0.226573 0.000007 -1.453519 -0.026703 -1.729344
    14 17.848173 0.000000 0.000000 0.000000 0.000000 0.268937
    15 16.525257 0.000000 0.000000 0.343603 0.229536 -1.248401
  time 36
    0 -4.018096 7.004125 36.543418 1.648981 0.008976 -0.465448
    1 0.000005 3.345128 -2.981901 1.529615 0.069121 1.570676
    2 7.536097 -0.042970 0.058596 -0.355435 0.006460 0.095601
    3 10.701815 0.839000 -2.257932 -1.559942 1.302686 3.172538
    4 6.028143 0.000001 0.000000 0.845191 -0.078972 -0.467826
    5 11.692552 0.000000 0.000002 0.000000 0.000000 -1.438434
    6 10.819000 1.760897 1.504053 2.367945 -1.219859 2.385184
    7 6.028142 0.000001 0.000000 -1.905493 -0.524957 -0.416163
    8 11.692555 0.000000 0.000000 0.000000 0.000000 -1.204675
    9 15.567151 1.725134 -0.636738 3.560066 -0.027469 0.082260
    10 3.886546 -0.226573 -0.000003 -2.017344 -0.306347 -1.210392
    11 17.848177 0.000000 0.000000 0.000000 0.000000 0.513042
    12 16.525253 0.000000 0.000000 -0.039135 0.341556 -1.185602
    13 -3.886546 0.226573 0.000007 -1.448621 -0.031642 -1.724765
    14 17.848173 0.000000 0.000000 0.000000 0.000000 0.282688
    15 16.525257 0.000000 0.000000 0.338569 0.232552 -1.257664
  time 37
    0 -4.182164 7.140848 36.566856 1.647719 0.006819 -0.455016
    1 0.000005 3.345128 -2.981901 1.527786 0.070779 1.570664
    2 7.536097 -0.054689 0.062502 -0.353940 0.006795 0.088363
    3 10.697909 0.819468 -2.265745 -1.528916 1.301465 3.201268
    4 6.028143 0.000001 0.000000 0.855977 -0.094868 -0.442102
    5 11.692552 0.000000 0.000002 0.000000 0.000000 -1.471838
    6 10.822906 1.772616 1.488428 2.386916 -1.214722 2.366203
    7 6.028142 0.000001 0.000000 -1.774141 -0.510539 -0.448557
    8 11.692555 0.000000 0.000000 0.000000 0.000000 -1.265482
    9 15.571057 1.709508 -0.656270 3.547166 -0.028284 0.088339
    10 3.886546 -0.226573 -0.000003 -2.012678 -0.301006 -1.212279
    11 17.848177 0.000000 0.000000 0.000000 0.000000 0.497053
    12 16.525253 0.000000 0.000000 -0.038423 0.349368 -1.175352
    13 -3.886546 0.226573 0.000007 -1.438190 -0.032516 -1.720802
    14 17.848173 0.000000 0.000000 0.000000 0.000000 0.290218
    15 16.525257 0.000000 0.000000 0.333178 0.235749 -1.263407
  time 38
    0 -4.322793 7.285384 36.590295 1.646211 0.004027 -0.441712
    1 0.000005 3.345128 -2.981901 1.527348 0.071621 1.570664
    2 7.536097 -0.066408 0.062502 -0.350951 0.008114 0.082543
    3 10.697909 0.799936 -2.273558 -1.502491 1.300520 3.225290
    4 6.028143 0.000001 0.000000 0.870692 -0.115325 -0.416191
    5 11.692552 0.000000 0.000002 0.000000 0.000000 -1.504443
    6 10.826812 1.780429 1.472802 2.402073 -1.210018 2.350481
    7 6.028142 0.000001 0.000000 -1.625064 -0.506992 -0.473554
    8 11.692555 0.000000 0.000000 0.000000 0.000000 -1.313002
    9 15.571057 1.693883 -0.671896 3.537034 -0.029446 0.092656
    10 3.886546 -0.226573 -0.000003 -2.003530 -0.297011 -1.216653
    11 17.848177 0.000000 0.000000 0.000000 0.000000 0.480831
    12 16.525253 0.000000 0.000000 -0.037874 0.355390 -1.164846
    13 -3.886546 0.226573 0.000007 -1.424948 -0.032385 -1.717631
    14 17.848173 0.000000 0.000000 0.000000 0.000000 0.296439
    15 16.525257 0.000000 0.000000 0.328304 0.238644 -1.268075
  time 39
    0 -4.412640 7.406481 36.594201 1.645019 0.001510 -0.428174
    1 0.000005 3.345128 -2.981901 1.527992 0.071621 1.570664
    2 7.536097 -0.070315 0.062502 -0.347962 0.009672 0.079623
    3 10.701815 0.788217 -2.277464 -1.487803 1.300156 3.238266
    4 6.028143 0.000001 0.000000 0.888501 -0.138960 -0.391772
    5 11.692552 0.000000 0.000002 0.000000 0.000000 -1.536976
    6 10.826812 1.784335 1.464989 2.409890 -1.207222 2.342045
    7 6.028142 0.000001 0.000000 -1.468412 -0.519749 -0.495467
    8 11.692555 0.000000 0.000000 0.000000 0.000000 -1.342730
    9 15.574964 1.686070 -0.679708 3.532190 -0.030477 0.094375
    10 3.886546 -0.226573 -0.000003 -1.992643 -0.297101 -1.220770
    11 17.848177 0.000000 0.000000 0.000000 0.000000 0.470558
    12 16.525253 0.000000 0.000000 -0.037517 0.359113 -1.157095
    13 -3.886546 0.226573 0.000007 -1.411524 -0.034134 -1.716486
    14 17.848173 0.000000 0.000000 0.000000 0.000000 0.305770
    15 16.525257 0.000000 0.000000 0.324788 0.240735 -1.273855
  time 40
    0 -4.439984 7.484608 36.566856 1.644791 0.000180 -0.416921
    1 0.000005 3.345128 -2.981901 1.529383 0.070803 1.570676
    2 7.536097 -0.070315 0.062502 -0.346496 0.010666 0.081041
    3 10.701815 0.792123 -2.273558 -1.492050 1.300680 3.233860
    4 6.028143 0.000001 0.000000 0.908316 -0.164255 -0.370895
    5 11.692552 0.000000 0.000002 0.000000 0.000000 -1.569727
    6 10.826812 1.780429 1.468896 2.406744 -1.207764 2.344729
    7 6.028142 0.000001 0.000000 -1.313938 -0.548396 -0.522837
    8 11.692555 0.000000 0.000000 0.000000 0.000000 -1.352039
    9 15.574964 1.682164 -0.675802 3.535007 -0.030932 0.092592
    10 3.886546 -0.226573 -0.000003 -1.982854 -0.304417 -1.222143
    11 17.848177 0.000000 0.000000 0.000000 0.000000 0.473029
    12 16.525253 0.000000 0.000000 -0.037428 0.360089 -1.155237
    13 -3.886546 0.226573 0.000007 -1.400368 -0.040341 -1.717191
    14 17.848173 0.000000 0.000000 0.000000 0.000000 0.322386
    15 16.525257 0.000000 0.000000 0.323431 0.241519 -1.282821
  time 41
    0 -4.381389 7.488515 36.477010 1.646211 0.001019 -0.410591
    1 0.000005 3.345128 -2.981901 1.531212 0.069167 1.570676
    2 7.536097 -0.058595 0.058596 -0.348019 0.010331 0.088278
    3 10.701815 0.811655 -2.265745 -1.522840 1.302192 3.205372
    4 6.028143 0.000001 0.000000 0.929135 -0.189780 -0.355423
    5 11.692552 0.000000 0.000002 0.000000 0.000000 -1.603131
    6 10.822906 1.772616 1.484521 2.388441 -1.213031 2.363039
    7 6.028142 0.000001 0.000000 -1.170902 -0.585460 -0.562905
    8 11.692555 0.000000 0.000000 0.000000 0.000000 -1.340778
    9 15.574964 1.697789 -0.656270 3.547907 -0.030249 0.086491
    10 3.886546 -0.226573 -0.000003 -1.976998 -0.321698 -1.218197
    11 17.848177 0.000000 0.000000 0.000000 0.000000 0.494040
    12 16.525253 0.000000 0.000000 -0.037651 0.357811 -1.161996
    13 -3.886546 0.226573 0.000007 -1.393746 -0.053017 -1.720097
    14 17.848173 0.000000 0.000000 0.000000 0.000000 0.348905
    15 16.525257 0.000000 0.000000 0.325055 0.240554 -1.296308
  time 42
    0 -4.221228 7.394762 36.312942 1.649928 0.004962 -0.411705
    1 0.000005 3.345128 -2.981901 1.533145 0.066667 1.570688
    2 7.536097 -0.035157 0.054689 -0.353969 0.007862 0.102796
    3 10.701815 0.854625 -2.250120 -1.588254 1.304068 3.145559
    4 6.028143 0.000001 0.000000 0.950121 -0.213876 -0.347035
    5 11.692552 0.000000 0.000002 0.000000 0.000000 -1.637842
    6 10.815093 1.749178 1.519678 2.349356 -1.224021 2.402919
    7 6.028142 0.000001 0.000000 -1.049749 -0.619543 -0.617488
    8 11.692555 0.000000 0.000000 0.000000 0.000000 -1.311125
    9 15.567151 1.729040 -0.617206 3.573410 -0.027529 0.075278
    10 3.886546 -0.226573 -0.000003 -1.977913 -0.350560 -1.206704
    11 17.848177 0.000000 0.000000 0.000000 0.000000 0.536834
    12 16.525253 0.000000 0.000000 -0.038200 0.351789 -1.178651
    13 -3.886546 0.226573 0.000007 -1.394744 -0.073473 -1.725733
    14 17.848173 0.000000 0.000000 0.000000 0.000000 0.386639
    15 16.525257 0.000000 0.000000 0.330536 0.237317 -1.314759
  time 43
    0 -3.947782 7.203350 36.070747 1.655872 0.011913 -0.419558
    1 0.000005 3.345128 -2.981901 1.535386 0.063210 1.570688
    2 7.536097 0.000000 0.050783 -0.364259 0.003344 0.124933
    3 10.701815 0.924940 -2.222775 -1.690180 1.304591 3.052550
    4 6.028143 0.000001 0.000000 0.969434 -0.235485 -0.345357
    5 11.692552 0.000000 0.000002 0.000000 0.000000 -1.675748
    6 10.803374 1.717927 1.566555 2.284723 -1.240148 2.469258
    7 6.028142 0.000001 0.000000 -0.952758 -0.647096 -0.676620
    8 11.692555 0.000000 0.000000 0.000000 0.000000 -1.268110
    9 15.559338 1.779823 -0.558611 3.612308 -0.022004 0.058846
    10 3.886546 -0.226573 -0.000003 -1.985141 -0.389655 -1.188263
    11 17.848177 0.000000 0.000000 0.000000 0.000000 0.597008
    12 16.525253 0.000000 0.000000 -0.039105 0.341902 -1.202610
    13 -3.886546 0.226573 0.000007 -1.402000 -0.100530 -1.733043
    14 17.848173 0.000000 0.000000 0.000000 0.000000 0.432967
    15 16.525257 0.000000 0.000000 0.339908 0.231748 -1.336953
  time 44
    0 -3.596208 6.949436 35.766051 1.663254 0.020817 -0.431104
    1 0.000005 3.345128 -2.981901 1.538246 0.058794 1.570700
    2 7.536097 0.042970 0.042970 -0.377308 -0.002409 0.153185
    3 10.697909 1.014786 -2.187618 -1.819239 1.301436 2.934855
    4 6.028143 0.000001 0.000000 0.984819 -0.252256 -0.349272
    5 11.692552 0.000000 0.000002 0.000000 0.000000 -1.719101
    6 10.791655 1.678863 1.629057 2.193302 -1.258660 2.562823
    7 6.028142 0.000001 0.000000 -0.875818 -0.671516 -0.728039
    8 11.692555 0.000000 0.000000 0.000000 0.000000 -1.218864
    9 15.547619 1.842325 -0.484390 3.662128 -0.013267 0.038439
    10 3.886546 -0.226573 -0.000003 -1.996028 -0.434630 -1.165619
    11 17.848177 0.000000 0.000000 0.000000 0.000000 0.665138
    12 16.525253 0.000000 0.000000 -0.040293 0.328923 -1.228939
    13 -3.886546 0.226573 0.000007 -1.412522 -0.130865 -1.741850
    14 17.848173 0.000000 0.000000 0.000000 0.000000 0.482405
    15 16.525257 0.000000 0.000000 0.352332 0.224308 -1.360184
  time 45
    0 -3.174321 6.640833 35.410571 1.671600 0.031160 -0.445580
    1 0.000005 3.345128 -2.981901 1.541582 0.053631 1.570712
    2 7.536097 0.101566 0.035157 -0.392427 -0.009168 0.186178
    3 10.694003 1.112445 -2.140741 -1.963692 1.292508 2.803641
    4 6.028143 0.000001 0.000000 0.995270 -0.259535 -0.358872
    5 11.692552 0.000000 0.000002 0.000000 0.000000 -1.768553
    6 10.772123 1.624174 1.699371 2.073664 -1.276825 2.684955
    7 6.028142 0.000001 0.000000 -0.824178 -0.691747 -0.765891
    8 11.692555 0.000000 0.000000 0.000000 0.000000 -1.172845
    9 15.535900 1.912639 -0.394543 3.720549 -0.000719 0.015541
    10 3.886546 -0.226573 -0.000003 -2.010391 -0.482433 -1.139630
    11 17.848177 0.000000 0.000000 0.000000 0.000000 0.735817
    12 16.525253 0.000000 0.000000 -0.041688 0.313564 -1.255043
    13 -3.886546 0.226573 0.000007 -1.425945 -0.162599 -1.751096
    14 17.848173 0.000000 0.000000 0.000000 0.000000 0.531516
    15 16.525257 0.000000 0.000000 0.367185 0.215321 -1.382747
  time 46
    0 -2.705556 6.297072 35.023841 1.680420 0.042413 -0.462342
    1 0.000005 3.345128 -2.981901 1.545266 0.047930 1.570724
    2 7.536097 0.160161 0.023438 -0.408954 -0.016635 0.222515
    3 10.690096 1.221824 -2.086052 -2.109856 1.276747 2.672125
    4 6.028143 0.000001 0.000000 1.001624 -0.251058 -0.375182
    5 11.692552 0.000000 0.000002 0.000000 0.000000 -1.823815
    6 10.756498 1.565578 1.773592 1.926476 -1.291652 2.834793
    7 6.028142 0.000001 0.000000 -0.803334 -0.707108 -0.784521
    8 11.692555 0.000000 0.000000 0.000000 0.000000 -1.141315
    9 15.520275 1.986861 -0.296884 3.785048 0.015963 -0.008324
    10 3.886546 -0.226573 -0.000003 -2.027957 -0.530775 -1.110982
    11 17.848177 0.000000 0.000000 0.000000 0.000000 0.805570
    12 16.525253 0.000000 0.000000 -0.043202 0.296577 -1.279354
    13 -3.886546 0.226573 0.000007 -1.441546 -0.194289 -1.761136
    14 17.848173 0.000000 0.000000 0.000000 0.000000 0.577844
    15 16.525257 0.000000 0.000000 0.383912 0.205127 -1.403644
  time 47
    0 -2.209447 5.929873 34.617578 1.689293 0.054110 -0.480628
    1 0.000005 3.345128 -2.981901 1.549143 0.041925 1.570736
    2 7.532191 0.226569 0.015625 -0.426257 -0.024544 0.260820
    3 10.678377 1.335108 -2.023550 -2.245875 1.254369 2.551473
    4 6.028143 0.000001 0.000000 1.006390 -0.218714 -0.401279
    5 11.692552 0.000000 0.000002 0.000000 0.000000 -1.881982
    6 10.744779 1.499170 1.847813 1.757838 -1.300539 3.006296
    7 6.028142 0.000001 0.000000 -0.818386 -0.716129 -0.779418
    8 11.692555 0.000000 0.000000 0.000000 0.000000 -1.135535
    9 15.500743 2.057175 -0.195318 3.853057 0.036733 -0.031738
    10 3.886546 -0.226573 -0.000003 -2.048541 -0.577905 -1.080190
    11 17.848177 0.000000 0.000000 0.000000 0.000000 0.871923
    12 16.525253 0.000000 0.000000 -0.044775 0.278674 -1.300910
    13 -3.886546 0.226573 0.000007 -1.458145 -0.225061 -1.770911
    14 17.848173 0.000000 0.000000 0.000000 0.000000 0.620079
    15 16.525257 0.000000 0.000000 0.401870 0.194069 -1.422281
  time 48
    0 -1.701619 5.554862 34.207409 1.697814 0.065759 -0.499675
    1 0.000005 3.345128 -2.981901 1.553085 0.035827 1.570748
    2 7.528284 0.289071 0.003906 -0.443647 -0.032634 0.299717
    3 10.670564 1.440580 -1.957142 -2.364552 1.226757 2.448444
    4 6.028143 0.000001 0.000000 1.021607 -0.137855 -0.450583
    5 11.692552 0.000000 0.000002 0.000000 0.000000 -1.941964
    6 10.729153 1.424949 1.918128 1.580145 -1.301753 3.186811
    7 6.028142 0.000001 0.000000 -0.899138 -0.698276 -0.716450
    8 11.692555 0.000000 0.000000 0.000000 0.000000 -1.199570
    9 15.481211 2.123583 -0.089846 3.922153 0.061026 -0.053433
    10 3.886546 -0.226573 -0.000003 -2.071505 -0.622431 -1.047940
    11 17.848177 0.000000 0.000000 0.000000 0.000000 0.933410
    12 16.525253 0.000000 0.000000 -0.046363 0.260589 -1.319263
    13 -3.886546 0.226573 0.000007 -1.475559 -0.254129 -1.780687
    14 17.848173 0.000000 0.000000 0.000000 0.000000 0.657403
    15 16.525257 0.000000 0.000000 0.420400 0.182528 -1.438361
  time 49
    0 -1.201604 5.183757 33.805053 1.705722 0.076917 -0.518723
    1 0.000005 3.345128 -2.981901 1.556949 0.029846 1.570760
    2 7.520472 0.355480 -0.003906 -0.460576 -0.040616 0.337832
    3 10.654939 1.546052 -1.890734 -2.463293 1.195946 2.364972
    4 6.028143 0.000001 0.000000 1.048863 0.026122 -0.536796
    5 11.692552 0.000000 0.000002 0.000000 0.000000 -1.977982
    6 10.713528 1.354634 1.980630 1.409124 -1.295164 3.360519
    7 6.028142 0.000001 0.000000 -1.047373 -0.638717 -0.602339
    8 11.692555 0.000000 0.000000 0.000000 0.000000 -1.335674
    9 15.461679 2.186085 0.007813 3.989816 0.087823 -0.072443
    10 3.886546 -0.226573 -0.000003 -2.096115 -0.663367 -1.015003
    11 17.848177 0.000000 0.000000 0.000000 0.000000 0.988795
    12 16.525253 0.000000 0.000000 -0.047892 0.242951 -1.334253
    13 -3.886546 0.226573 0.000007 -1.493065 -0.280880 -1.790462
    14 17.848173 0.000000 0.000000 0.000000 0.000000 0.689325
    15 16.525257 0.000000 0.000000 0.438823 0.170946 -1.451847
  time 50
    0 -0.728933 4.832184 33.426136 1.712771 0.087212 -0.537067
    1 0.000005 3.345128 -2.981901 1.560607 0.024192 1.570772
    2 7.512659 0.414075 -0.011719 -0.476414 -0.048202 0.373809
    3 10.643220 1.639805 -1.820419 -2.542804 1.164219 2.299908
    4 6.028143 0.000001 0.000000 1.067425 0.259070 -0.642954
    5 11.692552 0.000000 0.000002 0.000000 0.000000 -1.946176
    6 10.705715 1.280413 2.035319 1.258409 -1.282353 3.513808
    7 6.028142 0.000001 0.000000 -1.229176 -0.548547 -0.491511
    8 11.692555 0.000000 0.000000 0.000000 0.000000 -1.491220
    9 15.442147 2.236868 0.105472 4.053624 0.115687 -0.088167
    10 3.886546 -0.226573 -0.000003 -2.121456 -0.699724 -0.982496
    11 17.848177 0.000000 0.000000 0.000000 0.000000 1.037382
    12 16.525253 0.000000 0.000000 -0.049316 0.226432 -1.345976
    13 -3.886546 0.226573 0.000007 -1.509663 -0.304833 -1.799181
    14 17.848173 0.000000 0.000000 0.000000 0.000000 0.715845
    15 16.525257 0.000000 0.000000 0.456442 0.159788 -1.462814
  time 51
    0 -0.303139 4.511861 33.086281 1.718785 0.096296 -0.553888
    1 0.000005 3.345128 -2.981901 1.563905 0.019099 1.570784
    2 7.508752 0.468764 -0.019532 -0.490584 -0.055093 0.406251
    3 10.631501 1.725745 -1.754011 -2.604797 1.133816 2.250959
    4 6.028143 0.000001 0.000000 1.067341 0.492157 -0.736530
    5 11.692552 0.000000 0.000002 0.000000 0.000000 -1.852717
    6 10.693996 1.214005 2.086102 1.134957 -1.265944 3.639488
    7 6.028142 0.000001 0.000000 -1.426229 -0.448678 -0.415609
    8 11.692555 0.000000 0.000000 0.000000 0.000000 -1.627248
    9 15.426522 2.283745 0.191412 4.111155 0.142844 -0.100347
    10 3.886546 -0.226573 -0.000003 -2.146158 -0.730785 -0.951875
    11 17.848177 0.000000 0.000000 0.000000 0.000000 1.078554
    12 16.525253 0.000000 0.000000 -0.050578 0.211642 -1.354753
    13 -3.886546 0.226573 0.000007 -1.524810 -0.325464 -1.807547
    14 17.848173 0.000000 0.000000 0.000000 0.000000 0.737044
    15 16.525257 0.000000 0.000000 0.472508 0.149513 -1.471336
  time 52
    0 0.060153 4.238416 32.793304 1.723642 0.103834 -0.568305
    1 0.000005 3.345128 -2.981901 1.566713 0.014753 1.570784
    2 7.500940 0.515641 -0.027345 -0.502541 -0.060990 0.433848
    3 10.615875 1.792154 -1.695415 -2.651454 1.106916 2.215409
    4 6.028143 0.000001 0.000000 1.058060 0.675254 -0.800747
    5 11.692552 0.000000 0.000002 0.000000 0.000000 -1.745824
    6 10.690089 1.151503 2.125166 1.040677 -1.248884 3.735641
    7 6.028142 0.000001 0.000000 -1.626450 -0.365642 -0.379299
    8 11.692555 0.000000 0.000000 0.000000 0.000000 -1.721462
    9 15.410896 2.314996 0.265633 4.160085 0.167353 -0.109154
    10 3.886546 -0.226573 -0.000003 -2.168572 -0.755921 -0.924685
    11 17.848177 0.000000 0.000000 0.000000 0.000000 1.111692
    12 16.525253 0.000000 0.000000 -0.051632 0.199131 -1.360934
    13 -3.886546 0.226573 0.000007 -1.537781 -0.342380 -1.814328
    14 17.848173 0.000000 0.000000 0.000000 0.000000 0.753087
    15 16.525257 0.000000 0.000000 0.486307 0.140646 -1.477672
  time 53
    0 0.345318 4.027472 32.570641 1.727237 0.109575 -0.579675
    1 0.000005 3.345128 -2.981901 1.568890 0.011366 1.570796
    2 7.493127 0.550798 -0.035157 -0.511796 -0.065592 0.455223
    3 10.608062 1.846843 -1.648539 -2.684190 1.085484 2.191267
    4 6.028143 0.000001 0.000000 1.050619 0.798363 -0.835884
    5 11.692552 0.000000 0.000002 0.000000 0.000000 -1.662169
    6 10.686183 1.104627 2.152510 0.974232 -1.233992 3.803513
    7 6.028142 0.000001 0.000000 -1.808897 -0.316688 -0.366444
    8 11.692555 0.000000 0.000000 0.000000 0.000000 -1.769432
    9 15.399177 2.342340 0.324229 4.198044 0.187199 -0.114932
    10 3.886546 -0.226573 -0.000003 -2.186870 -0.774638 -0.902899
    11 17.848177 0.000000 0.000000 0.000000 0.000000 1.136256
    12 16.525253 0.000000 0.000000 -0.052448 0.189508 -1.364970
    13 -3.886546 0.226573 0.000007 -1.547576 -0.355100 -1.819700
    14 17.848173 0.000000 0.000000 0.000000 0.000000 0.764383
    15 16.525257 0.000000 0.000000 0.497054 0.133690 -1.482006
  time 54
    0 0.528917 3.886842 32.426105 1.729481 0.113218 -0.587060
    1 0.000005 3.345128 -2.981901 1.570307 0.009193 1.570796
    2 7.489221 0.574236 -0.039064 -0.517717 -0.068576 0.469042
    3 10.600250 1.878094 -1.617288 -2.704009 1.071409 2.177022
    4 6.028143 0.000001 0.000000 1.049281 0.866552 -0.848840
    5 11.692552 0.000000 0.000002 0.000000 0.000000 -1.614459
    6 10.682277 1.073376 2.172042 0.934289 -1.223696 3.844352
    7 6.028142 0.000001 0.000000 -1.941388 -0.297741 -0.359523
    8 11.692555 0.000000 0.000000 0.000000 0.000000 -1.783696
    9 15.391364 2.354059 0.359386 4.222608 0.200394 -0.118154
    10 3.886546 -0.226573 -0.000003 -2.199220 -0.786353 -0.888404
    11 17.848177 0.000000 0.000000 0.000000 0.000000 1.151705
    12 16.525253 0.000000 0.000000 -0.052967 0.183304 -1.367244
    13 -3.886546 0.226573 0.000007 -1.554107 -0.363143 -1.823663
    14 17.848173 0.000000 0.000000 0.000000 0.000000 0.771176
    15 16.525257 0.000000 0.000000 0.504052 0.129166 -1.484563
  time 55
    0 0.595326 3.839966 32.371416 1.730270 0.114513 -0.589697
    1 0.000005 3.345128 -2.981901 1.570796 0.008422 1.570796
    2 7.489221 0.582049 -0.039064 -0.519844 -0.069642 0.473931
    3 10.596343 1.889813 -1.609475 -2.710792 1.066378 2.172254
    4 6.028143 0.000001 0.000000 1.050535 0.887469 -0.850424
    5 11.692552 0.000000 0.000002 0.000000 0.000000 -1.600516
    6 10.682277 1.065563 2.175949 0.920657 -1.219903 3.858348
    7 6.028142 0.000001 0.000000 -1.991889 -0.293740 -0.355884
    8 11.692555 0.000000 0.000000 0.000000 0.000000 -1.784747
    9 15.391364 2.361872 0.375011 4.231307 0.205152 -0.119207
    10 3.886546 -0.226573 -0.000003 -2.203612 -0.790483 -0.883171
    11 17.848177 0.000000 0.000000 0.000000 0.000000 1.157035
    12 16.525253 0.000000 0.000000 -0.053160 0.181106 -1.367981
    13 -3.886546 0.226573 0.000007 -1.556556 -0.365984 -1.824632
    14 17.848173 0.000000 0.000000 0.000000 0.000000 0.773468
    15 16.525257 0.000000 0.000000 0.506533 0.127557 -1.485452
end
