// Created by Crowbar 0.74
version 1
nodes
  0 "ValveBiped.Bip01" -1
  1 "ValveBiped.Bip01_Pelvis" 0
  2 "ValveBiped.Bip01_L_Thigh" 1
  3 "ValveBiped.Bip01_R_Thigh" 1
  4 "ValveBiped.Bip01_Spine" 0
  5 "ValveBiped.Bip01_Spine1" 4
  6 "ValveBiped.Bip01_Spine2" 5
  7 "ValveBiped.Bip01_Spine4" 6
  8 "ValveBiped.Bip01_L_Clavicle" 7
  9 "ValveBiped.Bip01_L_UpperArm" 8
  10 "ValveBiped.Bip01_L_Forearm" 9
  11 "ValveBiped.Bip01_L_Hand" 10
  12 "ValveBiped.Bip01_L_Finger0" 11
  13 "ValveBiped.Bip01_R_Clavicle" 7
  14 "ValveBiped.Bip01_R_UpperArm" 13
  15 "ValveBiped.Bip01_R_Forearm" 14
  16 "ValveBiped.Bip01_R_Hand" 15
  17 "ValveBiped.Bip01_R_Finger0" 16
end
skeleton
  time 0
    0 0.000318 1.515676 38.353996 1.570797 0.000000 0.000000
    1 0.000000 -0.000001 0.000000 0.000000 -0.000001 0.000000
    2 3.890453 -0.000001 -0.000004 -1.570796 -0.109921 -1.580062
    3 -3.890452 -0.000001 0.000007 -1.570796 -0.109186 -1.576205
    4 0.000005 3.345117 -2.981992 1.570795 0.086295 1.570796
    5 4.126705 0.000000 0.000000 0.000000 0.000000 0.088567
    6 3.613468 0.000000 0.000000 0.000000 0.000000 0.129808
    7 9.183786 0.000000 0.000000 0.000000 0.000000 0.351707
    8 1.673226 1.247213 2.595464 1.597166 -1.286516 2.942410
    9 6.028144 0.000002 0.000000 -1.777334 -0.225373 -0.572499
    10 11.692552 0.000000 -0.000002 0.000000 0.000000 0.000000
    11 12.075578 0.000000 -0.000001 -3.107755 -0.135126 0.031394
    12 1.782818 1.657451 0.069279 -1.209873 -0.841536 1.257279
    13 1.673228 1.247218 -2.595471 -1.669005 1.286516 2.942401
    14 6.028143 -0.000001 -0.000001 1.843508 0.278313 -0.543683
    15 11.692555 0.000000 0.000000 0.000000 0.000000 0.000000
    16 12.075577 0.000000 -0.000002 -1.525386 0.046224 0.048553
    17 1.819736 -0.264272 -1.112211 -1.523151 0.682093 -1.302874
  time 1
    0 0.000318 1.515676 38.353996 1.570797 0.000000 0.000000
    1 0.000000 -0.000001 0.000000 0.000000 -0.000001 0.000000
    2 3.890453 -0.000001 -0.000004 -1.570796 -0.109921 -1.580062
    3 -3.890452 -0.000001 0.000007 -1.570796 -0.109186 -1.576205
    4 0.000005 3.345117 -2.981992 1.570795 0.086295 1.570796
    5 4.126705 0.000000 0.000000 0.000000 0.000000 0.088567
    6 3.613468 0.000000 0.000000 0.000000 0.000000 0.129808
    7 9.183786 0.000000 0.000000 0.000000 0.000000 0.351707
    8 1.673226 1.247213 2.595464 1.597166 -1.286516 2.942410
    9 6.028144 0.000002 0.000000 -1.777334 -0.225373 -0.572499
    10 11.692552 0.000000 -0.000002 0.000000 0.000000 0.000000
    11 12.075578 0.000000 -0.000001 -3.107755 -0.135126 0.031394
    12 1.782818 1.657451 0.069279 -1.209873 -0.841536 1.257279
    13 1.673228 1.247218 -2.595471 -1.669005 1.286516 2.942401
    14 6.028143 -0.000001 -0.000001 1.843508 0.278313 -0.543683
    15 11.692555 0.000000 0.000000 0.000000 0.000000 0.000000
    16 12.075577 0.000000 -0.000002 -1.525386 0.046224 0.048553
    17 1.819736 -0.264272 -1.112211 -1.523151 0.682093 -1.302874
end
