// Created by Crowbar 0.74
version 1
nodes
  0 "ValveBiped.Bip01_Pelvis" -1
  1 "ValveBiped.Bip01_L_Thigh" 0
  2 "ValveBiped.Bip01_L_Calf" 1
  3 "ValveBiped.Bip01_L_Foot" 2
  4 "ValveBiped.Bip01_R_Thigh" 0
  5 "ValveBiped.Bip01_R_Calf" 4
  6 "ValveBiped.Bip01_R_Foot" 5
  7 "ValveBiped.Bip01_Spine" 0
  8 "ValveBiped.Bip01_Spine1" 7
  9 "ValveBiped.Bip01_Spine2" 8
  10 "ValveBiped.Bip01_Spine4" 9
  11 "ValveBiped.Bip01_Neck1" 10
  12 "ValveBiped.Bip01_Head1" 11
  13 "ValveBiped.Bip01_L_Clavicle" 10
  14 "ValveBiped.Bip01_L_UpperArm" 13
  15 "ValveBiped.Bip01_L_Forearm" 14
  16 "ValveBiped.Bip01_R_Clavicle" 10
  17 "ValveBiped.Bip01_R_UpperArm" 16
  18 "ValveBiped.Bip01_R_Forearm" 17
end
skeleton
  time 0
    0 0.000000 -0.238770 41.375000 1.570674 0.000061 -0.000061
    1 3.890447 0.000000 0.000000 -1.570796 -0.056999 -1.578088
    2 16.060532 0.000000 0.000000 0.000000 0.000000 0.094879
    3 24.697289 0.000000 0.000000 -1.570797 -1.563505 3.103713
    4 -3.890447 0.000000 0.000000 -1.570796 -0.060463 -1.566061
    5 16.389179 0.000000 0.000000 0.000000 0.000000 0.101397
    6 24.698681 0.000000 0.000000 1.570796 -1.566061 -0.040934
    7 0.000000 3.517308 -0.740539 1.570796 0.037715 1.570796
    8 3.984850 0.000000 0.000000 0.000000 0.000000 -0.151026
    9 3.761386 -0.000001 0.000000 0.000000 0.000000 0.122880
    10 7.356753 0.000000 0.000000 0.000000 0.000000 0.124715
    11 3.322168 0.000000 0.000000 3.141590 0.000000 0.045353
    12 4.036569 0.000001 0.000000 -0.027045 -0.006533 -0.049401
    13 2.313689 2.687532 1.160912 0.123481 -0.954123 -1.844587
    14 6.210386 0.000001 0.000003 -1.015808 -0.256220 -0.955540
    15 10.950331 -0.000002 0.000001 0.000000 -0.000001 -0.125730
    16 2.313689 2.687532 -1.170726 -0.210837 0.952037 -1.844587
    17 6.192179 -0.000001 -0.000002 1.066113 0.323901 -0.943653
    18 10.916072 0.000001 -0.000007 0.000000 0.000001 -0.174889
end
