// Created by Crowbar 0.74
version 1
nodes
  0 "ValveBiped.Bip01_Pelvis" -1
  1 "ValveBiped.Bip01_Spine" 0
  2 "ValveBiped.Bip01_Spine1" 1
  3 "ValveBiped.Bip01_Spine2" 2
  4 "ValveBiped.Bip01_Spine4" 3
  5 "ValveBiped.Bip01_Neck1" 4
  6 "ValveBiped.Bip01_Head1" 5
  7 "ValveBiped.forward" 6
  8 "ValveBiped.Bip01_L_Clavicle" 4
  9 "ValveBiped.Bip01_L_UpperArm" 8
  10 "ValveBiped.Bip01_L_Forearm" 9
  11 "ValveBiped.Bip01_L_Hand" 10
  12 "ValveBiped.Anim_Attachment_LH" 11
  13 "ValveBiped.Bip01_R_Clavicle" 4
  14 "ValveBiped.Bip01_R_UpperArm" 13
  15 "ValveBiped.Bip01_R_Forearm" 14
  16 "ValveBiped.Bip01_R_Hand" 15
  17 "ValveBiped.Anim_Attachment_RH" 16
  18 "ValveBiped.Bip01_L_Thigh" 0
  19 "ValveBiped.Bip01_L_Calf" 18
  20 "ValveBiped.Bip01_L_Foot" 19
  21 "ValveBiped.Bip01_L_Toe0" 20
  22 "ValveBiped.Bip01_R_Thigh" 0
  23 "ValveBiped.Bip01_R_Calf" 22
  24 "ValveBiped.Bip01_R_Foot" 23
  25 "ValveBiped.Bip01_R_Toe0" 24
  26 "ValveBiped.Bip01_L_Finger4" 11
  27 "ValveBiped.Bip01_L_Finger41" 26
  28 "ValveBiped.Bip01_L_Finger42" 27
  29 "ValveBiped.Bip01_L_Finger3" 11
  30 "ValveBiped.Bip01_L_Finger31" 29
  31 "ValveBiped.Bip01_L_Finger32" 30
  32 "ValveBiped.Bip01_L_Finger2" 11
  33 "ValveBiped.Bip01_L_Finger21" 32
  34 "ValveBiped.Bip01_L_Finger22" 33
  35 "ValveBiped.Bip01_L_Finger1" 11
  36 "ValveBiped.Bip01_L_Finger11" 35
  37 "ValveBiped.Bip01_L_Finger12" 36
  38 "ValveBiped.Bip01_L_Finger0" 11
  39 "ValveBiped.Bip01_L_Finger01" 38
  40 "ValveBiped.Bip01_L_Finger02" 39
  41 "ValveBiped.Bip01_R_Finger4" 16
  42 "ValveBiped.Bip01_R_Finger41" 41
  43 "ValveBiped.Bip01_R_Finger42" 42
  44 "ValveBiped.Bip01_R_Finger3" 16
  45 "ValveBiped.Bip01_R_Finger31" 44
  46 "ValveBiped.Bip01_R_Finger32" 45
  47 "ValveBiped.Bip01_R_Finger2" 16
  48 "ValveBiped.Bip01_R_Finger21" 47
  49 "ValveBiped.Bip01_R_Finger22" 48
  50 "ValveBiped.Bip01_R_Finger1" 16
  51 "ValveBiped.Bip01_R_Finger11" 50
  52 "ValveBiped.Bip01_R_Finger12" 51
  53 "ValveBiped.Bip01_R_Finger0" 16
  54 "ValveBiped.Bip01_R_Finger01" 53
  55 "ValveBiped.Bip01_R_Finger02" 54
  56 "ValveBiped.Jacket1_bone" 3
  57 "ValveBiped.physgun_attachment" 16
  58 "ValveBiped.Bip01_L_Ankle" 19
  59 "ValveBiped.Bip01_L_Shin" 19
  60 "ValveBiped.Bip01_L_Knee" 18
  61 "ValveBiped.Bip01_L_Quadricep" 18
  62 "ValveBiped.Bip01_R_Ankle" 23
  63 "ValveBiped.Bip01_R_Shin" 23
  64 "ValveBiped.Bip01_R_Quadricep" 22
  65 "ValveBiped.Bip01_R_Knee" 22
  66 "ValveBiped.hlp_beltLeft" 0
  67 "ValveBiped.hlp_beltRight" 0
  68 "ValveBiped.Bip01_L_Ulna" 10
  69 "ValveBiped.Bip01_L_Wrist" 10
  70 "ValveBiped.Bip01_L_Shoulder" 9
  71 "ValveBiped.Bip01_L_Elbow" 9
  72 "ValveBiped.Bip01_L_Bicep" 9
  73 "ValveBiped.Bip01_L_Trapezius" 8
  74 "ValveBiped.Bip01_L_shoulderBlade" 8
  75 "ValveBiped.hlp_L_chest" 8
  76 "ValveBiped.Bip01_R_Wrist" 15
  77 "ValveBiped.Bip01_R_Ulna" 15
  78 "ValveBiped.Bip01_R_Bicep" 14
  79 "ValveBiped.Bip01_R_Shoulder" 14
  80 "ValveBiped.Bip01_R_Elbow" 14
  81 "ValveBiped.Bip01_R_Trapezius" 13
  82 "ValveBiped.Bip01_R_shoulderBlade" 13
  83 "ValveBiped.hlp_r_chest" 13
  84 "ValveBiped.Bip01_L_Latt" 3
  85 "ValveBiped.Bip01_R_Pectoral" 3
  86 "ValveBiped.Bip01_R_Latt" 3
  87 "ValveBiped.hlp_jacket_left_front" 56
  88 "ValveBiped.hlp_jacket_left_side" 3
  89 "ValveBiped.hlp_jacket_rear" 3
  90 "ValveBiped.hlp_jacket_right_side" 3
  91 "ValveBiped.hlp_jacket_right_front" 3
  92 "ValveBiped.Bip01_L_Pectoral" 3
end
skeleton
  time 0
    0 -0.003280 -0.785175 37.913784 1.570796 0.000000 0.000000
    1 0.000005 4.212784 -1.689857 1.570796 -0.027977 1.570796
    2 3.837408 0.000000 0.000000 0.000000 0.000000 -0.112614
    3 3.617872 0.000000 0.000000 0.000000 0.000000 -0.012635
    4 7.539783 0.000000 0.000000 0.000000 0.000000 0.155813
    5 3.178296 0.000000 0.000000 3.141590 0.000000 0.224127
    6 2.970273 -0.000001 0.000000 0.000000 0.000000 0.109880
    7 0.000001 0.000000 0.000000 -1.570796 0.000000 -1.326450
    8 2.023707 0.907460 0.852579 1.638357 -1.334137 2.900115
    9 4.983666 -0.000002 0.000000 -1.519083 0.217476 -0.750734
    10 11.123052 0.000000 0.000003 0.000000 0.000000 -0.103137
    11 11.208296 0.000000 -0.000001 1.505416 -0.038605 0.036303
    12 2.676089 -1.712444 0.000000 1.570797 0.000000 1.570797
    13 2.023711 0.907462 -0.852528 -1.710117 1.334139 2.900105
    14 4.983665 -0.000003 0.000000 1.572276 -0.168258 -0.760929
    15 11.123046 0.000000 -0.000001 0.000000 0.000000 -0.103137
    16 11.208295 0.000000 0.000003 -1.496970 0.038597 0.036303
    17 2.676088 -1.712442 0.000000 -1.570796 0.000000 -1.570796
    18 3.984014 -0.000004 -0.000003 -1.570796 0.051767 -1.611082
    19 15.940010 0.000000 0.000000 0.000000 0.000000 0.051654
    20 17.709562 0.000000 0.000000 0.009627 -0.065921 -1.084070
    21 7.239186 0.000000 0.000000 -0.007275 -0.002973 -0.591346
    22 -3.984013 0.000007 0.000007 -1.570796 0.051767 -1.530513
    23 15.940014 0.000000 0.000000 0.000000 0.000000 0.051654
    24 17.709558 0.000000 0.000000 0.000901 0.065911 -1.086449
    25 7.227468 0.000000 0.000000 -0.081312 -0.002973 -0.588959
    26 3.642998 0.077725 -1.395715 -0.235783 0.220369 -0.034112
    27 0.859614 0.000000 0.000000 -0.000010 0.097590 -0.319280
    28 0.664374 0.000001 0.000000 0.000003 0.087709 -0.302961
    29 3.905046 0.033173 -0.533660 -0.076341 0.127073 -0.093475
    30 1.186484 -0.000001 0.000000 0.000009 0.027094 -0.198013
    31 0.897496 0.000000 0.000000 0.000012 0.039462 -0.296807
    32 3.678656 -0.031051 0.528429 0.089863 -0.028725 -0.112460
    33 1.623926 0.000004 0.000000 0.000004 -0.004618 -0.241685
    34 1.020124 0.000000 0.000000 -0.000011 -0.005804 -0.314980
    35 3.709704 -0.079760 1.329727 0.310177 -0.267121 -0.068332
    36 1.328210 0.000000 0.000000 0.000003 -0.069269 -0.291437
    37 0.897404 0.000002 0.000000 0.000000 -0.069720 -0.307467
    38 0.817544 -0.508928 1.154931 -1.343011 -0.576934 -0.553889
    39 1.221118 0.000000 -0.000001 0.000000 0.002024 -0.043589
    40 1.240629 0.000000 -0.000001 0.000000 0.013129 -0.286815
    41 3.643021 0.090313 1.393916 0.234968 -0.220644 -0.032206
    42 0.859616 -0.000002 0.000000 0.000010 -0.100035 -0.318537
    43 0.664374 0.000000 0.000000 -0.000003 -0.089938 -0.302326
    44 3.905057 0.039334 0.531304 0.076173 -0.127864 -0.092396
    45 1.186483 0.000000 0.000000 -0.000009 -0.028724 -0.197785
    46 0.897496 0.000000 0.000000 0.000000 -0.041847 -0.296496
    47 3.678657 -0.035556 -0.529785 -0.089863 0.027766 -0.112688
    48 1.623923 -0.000002 0.000000 -0.000004 0.002616 -0.241721
    49 1.020122 0.000000 0.000000 0.000011 0.003287 -0.315016
    50 3.709685 -0.090361 -1.329624 -0.310584 0.266534 -0.070622
    51 1.328210 -0.000002 0.000000 -0.000003 0.066872 -0.291976
    52 0.897405 -0.000001 0.000000 0.000000 0.067299 -0.307983
    53 0.817520 -0.519490 -1.152393 1.340170 0.572464 -0.558527
    54 1.221121 0.000000 -0.000001 0.000000 -0.002264 -0.043577
    55 1.240629 -0.000002 -0.000001 0.000000 -0.014735 -0.286743
    56 0.280611 2.817061 5.211885 1.570796 0.640460 1.668069
    57 2.330670 -1.877761 0.104131 -1.861300 0.207908 -1.328386
    58 16.646986 0.000000 0.000000 0.000000 0.000000 0.000000
    59 8.323492 0.000000 0.000000 0.000000 0.000000 0.000000
    60 15.940014 0.000000 0.000000 0.000000 0.000000 0.025253
    61 6.376005 0.000000 0.000000 0.000000 0.000000 0.000000
    62 16.646984 0.000000 0.000000 0.000000 0.000000 0.000000
    63 8.323492 0.000000 0.000000 0.000000 0.000000 0.000000
    64 6.376007 0.000000 0.000000 0.000000 0.000000 0.000000
    65 15.940012 0.000000 0.000000 0.000000 0.000000 0.025250
    66 6.534880 0.794723 0.000000 0.000000 0.000000 0.000000
    67 -5.721386 3.298298 0.000000 0.000000 0.000000 0.000000
    68 5.604147 0.000000 -0.000001 -0.030876 0.000000 0.000000
    69 11.208295 0.000000 -0.000002 -0.057543 0.000000 0.000000
    70 1.500001 0.000000 0.000001 -0.157232 0.000000 0.000000
    71 11.123052 0.000000 0.000003 0.000000 0.000000 -0.100052
    72 5.559999 -0.700000 -0.499997 0.000000 0.000000 0.000000
    73 4.271700 0.000000 0.000000 0.000000 0.000000 0.000000
    74 3.183903 -3.086925 -2.559980 0.085714 -0.202095 0.172018
    75 2.399465 -0.000001 0.000000 0.000000 0.000000 0.000000
    76 11.208295 0.000000 0.000003 0.065171 0.000000 0.000000
    77 5.604146 0.000000 -0.000001 0.034930 0.000000 0.000000
    78 5.560002 -0.700000 0.499998 0.000000 0.000000 0.000000
    79 1.500000 0.000000 -0.000004 0.000000 0.000000 0.000000
    80 11.123051 0.000000 -0.000002 0.000000 0.000000 -0.100051
    81 4.271700 -0.000002 0.000000 0.000000 0.000000 0.000000
    82 3.180300 -3.319270 2.070572 -0.041737 0.139408 0.192905
    83 2.628597 0.000002 0.000000 0.000000 0.000000 0.000000
    84 2.112062 1.512060 5.000000 0.000000 0.000000 0.000000
    85 2.000002 5.221148 -2.578000 0.000000 0.000000 0.000000
    86 2.320252 1.720250 -5.000000 0.000000 0.000000 0.000000
    87 5.170308 -0.314383 -0.864648 2.450468 -1.516528 -2.937034
    88 -0.647899 1.256868 4.996949 1.540978 0.009664 0.099950
    89 -0.834435 -3.057552 -0.079756 3.081601 0.009664 0.099950
    90 -0.946060 2.450652 -5.057758 -1.590360 0.009664 0.099950
    91 -1.069200 6.500978 -2.081715 -0.412983 0.009664 0.099950
    92 2.000005 4.698852 2.578000 0.000000 0.000000 0.000000
  time 1
    0 -0.003280 -0.785175 37.913784 1.570796 0.000000 0.000000
    1 0.000005 4.212784 -1.689857 1.570796 -0.027977 1.570796
    2 3.837408 0.000000 0.000000 0.000000 0.000000 -0.112614
    3 3.617872 0.000000 0.000000 0.000000 0.000000 -0.012635
    4 7.539783 0.000000 0.000000 0.000000 0.000000 0.155813
    5 3.178296 0.000000 0.000000 3.141590 0.000000 0.224127
    6 2.970273 -0.000001 0.000000 0.000000 0.000000 0.109880
    7 0.000001 0.000000 0.000000 -1.570796 0.000000 -1.326450
    8 2.023707 0.907460 0.852579 1.638357 -1.334137 2.900115
    9 4.983666 -0.000002 0.000000 -1.519083 0.217476 -0.750734
    10 11.123052 0.000000 0.000003 0.000000 0.000000 -0.103137
    11 11.208296 0.000000 -0.000001 1.505416 -0.038605 0.036303
    12 2.676089 -1.712444 0.000000 1.570797 0.000000 1.570797
    13 2.023711 0.907462 -0.852528 -1.710117 1.334139 2.900105
    14 4.983665 -0.000003 0.000000 1.572276 -0.168258 -0.760929
    15 11.123046 0.000000 -0.000001 0.000000 0.000000 -0.103137
    16 11.208295 0.000000 0.000003 -1.496970 0.038597 0.036303
    17 2.676088 -1.712442 0.000000 -1.570796 0.000000 -1.570796
    18 3.984014 -0.000004 -0.000003 -1.570796 0.051767 -1.611082
    19 15.940010 0.000000 0.000000 0.000000 0.000000 0.051654
    20 17.709562 0.000000 0.000000 0.009627 -0.065921 -1.084070
    21 7.239186 0.000000 0.000000 -0.007275 -0.002973 -0.591346
    22 -3.984013 0.000007 0.000007 -1.570796 0.051767 -1.530513
    23 15.940014 0.000000 0.000000 0.000000 0.000000 0.051654
    24 17.709558 0.000000 0.000000 0.000901 0.065911 -1.086449
    25 7.227468 0.000000 0.000000 -0.081312 -0.002973 -0.588959
    26 3.642998 0.077725 -1.395715 -0.235783 0.220369 -0.034112
    27 0.859614 0.000000 0.000000 -0.000010 0.097590 -0.319280
    28 0.664374 0.000001 0.000000 0.000003 0.087709 -0.302961
    29 3.905046 0.033173 -0.533660 -0.076341 0.127073 -0.093475
    30 1.186484 -0.000001 0.000000 0.000009 0.027094 -0.198013
    31 0.897496 0.000000 0.000000 0.000012 0.039462 -0.296807
    32 3.678656 -0.031051 0.528429 0.089863 -0.028725 -0.112460
    33 1.623926 0.000004 0.000000 0.000004 -0.004618 -0.241685
    34 1.020124 0.000000 0.000000 -0.000011 -0.005804 -0.314980
    35 3.709704 -0.079760 1.329727 0.310177 -0.267121 -0.068332
    36 1.328210 0.000000 0.000000 0.000003 -0.069269 -0.291437
    37 0.897404 0.000002 0.000000 0.000000 -0.069720 -0.307467
    38 0.817544 -0.508928 1.154931 -1.343011 -0.576934 -0.553889
    39 1.221118 0.000000 -0.000001 0.000000 0.002024 -0.043589
    40 1.240629 0.000000 -0.000001 0.000000 0.013129 -0.286815
    41 3.643021 0.090313 1.393916 0.234968 -0.220644 -0.032206
    42 0.859616 -0.000002 0.000000 0.000010 -0.100035 -0.318537
    43 0.664374 0.000000 0.000000 -0.000003 -0.089938 -0.302326
    44 3.905057 0.039334 0.531304 0.076173 -0.127864 -0.092396
    45 1.186483 0.000000 0.000000 -0.000009 -0.028724 -0.197785
    46 0.897496 0.000000 0.000000 0.000000 -0.041847 -0.296496
    47 3.678657 -0.035556 -0.529785 -0.089863 0.027766 -0.112688
    48 1.623923 -0.000002 0.000000 -0.000004 0.002616 -0.241721
    49 1.020122 0.000000 0.000000 0.000011 0.003287 -0.315016
    50 3.709685 -0.090361 -1.329624 -0.310584 0.266534 -0.070622
    51 1.328210 -0.000002 0.000000 -0.000003 0.066872 -0.291976
    52 0.897405 -0.000001 0.000000 0.000000 0.067299 -0.307983
    53 0.817520 -0.519490 -1.152393 1.340170 0.572464 -0.558527
    54 1.221121 0.000000 -0.000001 0.000000 -0.002264 -0.043577
    55 1.240629 -0.000002 -0.000001 0.000000 -0.014735 -0.286743
    56 0.280611 2.817061 5.211885 1.570796 0.640460 1.668069
    57 2.330670 -1.877761 0.104131 -1.861300 0.207908 -1.328386
    58 16.646986 0.000000 0.000000 0.000000 0.000000 0.000000
    59 8.323492 0.000000 0.000000 0.000000 0.000000 0.000000
    60 15.940014 0.000000 0.000000 0.000000 0.000000 0.025253
    61 6.376005 0.000000 0.000000 0.000000 0.000000 0.000000
    62 16.646984 0.000000 0.000000 0.000000 0.000000 0.000000
    63 8.323492 0.000000 0.000000 0.000000 0.000000 0.000000
    64 6.376007 0.000000 0.000000 0.000000 0.000000 0.000000
    65 15.940012 0.000000 0.000000 0.000000 0.000000 0.025250
    66 6.534880 0.794723 0.000000 0.000000 0.000000 0.000000
    67 -5.721386 3.298298 0.000000 0.000000 0.000000 0.000000
    68 5.604147 0.000000 -0.000001 -0.030876 0.000000 0.000000
    69 11.208295 0.000000 -0.000002 -0.057543 0.000000 0.000000
    70 1.500001 0.000000 0.000001 -0.157232 0.000000 0.000000
    71 11.123052 0.000000 0.000003 0.000000 0.000000 -0.100052
    72 5.559999 -0.700000 -0.499997 0.000000 0.000000 0.000000
    73 4.271700 0.000000 0.000000 0.000000 0.000000 0.000000
    74 3.183903 -3.086925 -2.559980 0.085714 -0.202095 0.172018
    75 2.399465 -0.000001 0.000000 0.000000 0.000000 0.000000
    76 11.208295 0.000000 0.000003 0.065171 0.000000 0.000000
    77 5.604146 0.000000 -0.000001 0.034930 0.000000 0.000000
    78 5.560002 -0.700000 0.499998 0.000000 0.000000 0.000000
    79 1.500000 0.000000 -0.000004 0.000000 0.000000 0.000000
    80 11.123051 0.000000 -0.000002 0.000000 0.000000 -0.100051
    81 4.271700 -0.000002 0.000000 0.000000 0.000000 0.000000
    82 3.180300 -3.319270 2.070572 -0.041737 0.139408 0.192905
    83 2.628597 0.000002 0.000000 0.000000 0.000000 0.000000
    84 2.112062 1.512060 5.000000 0.000000 0.000000 0.000000
    85 2.000002 5.221148 -2.578000 0.000000 0.000000 0.000000
    86 2.320252 1.720250 -5.000000 0.000000 0.000000 0.000000
    87 5.170308 -0.314383 -0.864648 2.450468 -1.516528 -2.937034
    88 -0.647899 1.256868 4.996949 1.540978 0.009664 0.099950
    89 -0.834435 -3.057552 -0.079756 3.081601 0.009664 0.099950
    90 -0.946060 2.450652 -5.057758 -1.590360 0.009664 0.099950
    91 -1.069200 6.500978 -2.081715 -0.412983 0.009664 0.099950
    92 2.000005 4.698852 2.578000 0.000000 0.000000 0.000000
end
