// Created by Crowbar 0.74
version 1
nodes
  0 "Charple2.Pelvis" -1
  1 "Charple2.Lumbar" 0
  2 "Charple2.Spine" 1
  3 "Charple2.Humerus_R" 2
  4 "Charple2.Radius_R" 3
  5 "Charple2.Carpus_R" 4
  6 "Charple2.Humerus_L" 2
  7 "Charple2.Radius_L" 6
  8 "Charple2.Head" 2
  9 "Charple2.Femur_R" 0
  10 "Charple2.Tibia_R" 9
  11 "Charple2.Femur_L" 0
  12 "Charple2.Tibia_L" 11
end
skeleton
  time 0
    0 0.000000 1.997070 41.906250 1.570387 -1.295091 -4.711847
    1 5.695656 0.000000 0.000000 0.000000 0.000000 0.336928
    2 4.946400 0.000000 0.000000 0.000000 0.000000 0.130568
    3 6.479578 0.277505 -4.762589 1.034224 1.492893 -2.292725
    4 12.049999 0.000000 -0.000002 0.000000 0.018049 -0.110093
    5 10.621000 0.000000 0.000000 0.000000 -0.076051 0.075148
    6 6.479581 0.277504 4.762589 -1.034224 -1.492893 -2.292725
    7 12.050000 0.000000 -0.000001 0.000000 -0.018049 -0.110093
    8 10.804881 -0.033414 0.000000 0.000000 0.000000 -0.016627
    9 -3.534505 -0.652041 -2.454911 0.000000 0.126435 -2.942430
    10 18.591515 0.000000 0.000000 0.000000 0.000000 0.181435
    11 -3.534506 -0.652041 2.454911 0.000000 -0.126435 -2.942429
    12 18.591516 0.000000 0.000000 0.000000 0.000000 0.181435
end
