// Created by Crowbar 0.74
version 1
nodes
  0 "ValveBiped.Bip01_Pelvis" -1
  1 "ValveBiped.Bip01_L_Thigh" 0
  2 "ValveBiped.Bip01_L_Calf" 1
  3 "ValveBiped.Bip01_L_Foot" 2
  4 "ValveBiped.Bip01_R_Thigh" 0
  5 "ValveBiped.Bip01_R_Calf" 4
  6 "ValveBiped.Bip01_R_Foot" 5
  7 "ValveBiped.Bip01" -1
  8 "ValveBiped.Bip01_Spine" 7
  9 "ValveBiped.Bip01_Spine1" 8
  10 "ValveBiped.Bip01_Spine2" 9
  11 "ValveBiped.Bip01_Spine4" 10
  12 "ValveBiped.Bip01_Neck1" 11
  13 "ValveBiped.Bip01_Head1" 12
  14 "ValveBiped.Bip01_L_Clavicle" 11
  15 "ValveBiped.Bip01_L_UpperArm" 14
  16 "ValveBiped.Bip01_L_Forearm" 15
  17 "ValveBiped.Bip01_R_Clavicle" 11
  18 "ValveBiped.Bip01_R_UpperArm" 17
  19 "ValveBiped.Bip01_R_Forearm" 18
  20 "ValveBiped.jaw" 13
end
skeleton
  time 0
    0 0.000000 -1.071289 36.843750 1.570674 0.000061 -0.000061
    1 4.139348 0.000000 0.000000 -1.570796 0.087470 -1.441173
    2 16.496002 0.000000 0.000000 0.000000 0.000000 0.000000
    3 16.496000 0.000000 0.000000 -0.131428 0.028019 -1.071752
    4 -4.139348 0.000000 0.000000 -1.570796 0.039542 -1.691888
    5 16.500000 0.000000 0.000000 0.000000 0.000000 0.096043
    6 16.500000 0.000000 0.000000 0.135158 -0.023311 -1.120340
    7 0.000000 -1.071289 36.843750 1.570674 0.000061 -0.000061
    8 0.000000 3.345132 -2.981898 1.570796 -0.167320 1.570796
    9 4.001675 0.000000 0.000000 0.000000 0.000000 -0.329319
    10 3.501195 0.000000 0.000000 0.000000 0.000000 0.097307
    11 10.380003 0.000000 0.000000 0.000000 0.000000 0.186413
    12 2.497002 0.000000 0.000000 3.141590 0.000000 0.406109
    13 5.037438 -0.000002 0.000000 0.000000 -0.000001 0.405032
    14 1.966377 0.994008 1.937661 1.589740 -1.286515 2.950147
    15 4.145986 0.000000 0.000000 -1.534847 0.091944 -0.418392
    16 12.835728 0.000000 0.000000 0.000000 0.000000 -0.333853
    17 1.966379 0.994008 -1.937661 -1.661569 1.286515 2.950147
    18 4.145986 0.000003 0.000000 1.600799 -0.075845 -0.445917
    19 12.835728 0.000000 0.000000 0.000000 0.000000 -0.292849
    20 2.332031 -1.661133 -0.000003 -3.137865 0.014323 -2.632408
  time 1
    0 0.000000 -1.071289 36.843750 1.570674 0.000061 -0.000061
    1 4.139348 0.000000 0.000000 -1.570796 0.087470 -1.441173
    2 16.496002 0.000000 0.000000 0.000000 0.000000 0.000000
    3 16.496000 0.000000 0.000000 -0.131428 0.028019 -1.071752
    4 -4.139348 0.000000 0.000000 -1.570796 0.039542 -1.691888
    5 16.500000 0.000000 0.000000 0.000000 0.000000 0.096043
    6 16.500000 0.000000 0.000000 0.135158 -0.023311 -1.120340
    7 0.000000 -1.071289 36.843750 1.570674 0.000061 -0.000061
    8 0.000000 3.345132 -2.981898 1.570796 -0.167320 1.570796
    9 4.001675 0.000000 0.000000 0.000000 0.000000 -0.329319
    10 3.501195 0.000000 0.000000 0.000000 0.000000 0.097307
    11 10.380003 0.000000 0.000000 0.000000 0.000000 0.186413
    12 2.497002 0.000000 0.000000 3.141590 0.000000 0.406109
    13 5.037438 -0.000002 0.000000 0.000000 -0.000001 0.405032
    14 1.966377 0.994008 1.937661 1.589740 -1.286515 2.950147
    15 4.145986 0.000000 0.000000 -1.534847 0.091944 -0.418392
    16 12.835728 0.000000 0.000000 0.000000 0.000000 -0.333853
    17 1.966379 0.994008 -1.937661 -1.661569 1.286515 2.950147
    18 4.145986 0.000003 0.000000 1.600799 -0.075845 -0.445917
    19 12.835728 0.000000 0.000000 0.000000 0.000000 -0.292849
    20 2.332031 -1.661133 -0.000003 -3.137865 0.014323 -2.632408
end
