// Created by Crowbar 0.74
version 1
nodes
  0 "ValveBiped.Bip01" -1
  1 "ValveBiped.Bip01_Spine" 0
  2 "ValveBiped.Bip01_Spine1" 1
  3 "ValveBiped.Bip01_Spine2" 2
  4 "ValveBiped.Bip01_Spine4" 3
  5 "ValveBiped.Bip01_Neck1" 4
  6 "ValveBiped.Bip01_Head1" 5
end
skeleton
  time 0
    0 0.000000 -1.071289 -17.125000 1.570674 0.000061 -0.000061
    1 0.000000 3.345132 -2.981898 1.570796 -0.167321 1.570796
    2 4.001674 0.000000 0.000000 0.000000 0.000000 -0.329319
    3 3.501194 0.000000 0.000000 0.000000 0.000000 0.097307
    4 10.379999 0.000000 0.000000 0.000000 0.000000 0.186413
    5 2.496999 0.000000 0.000000 3.141590 0.000000 0.406109
    6 5.037443 0.000001 0.000000 0.000000 -0.000001 0.405033
  time 1
    0 0.000000 -1.071289 -17.125000 1.570674 0.000061 -0.000061
    1 0.000000 3.345132 -2.981898 1.570796 -0.167321 1.570796
    2 4.001674 0.000000 0.000000 0.000000 0.000000 -0.329319
    3 3.501194 0.000000 0.000000 0.000000 0.000000 0.097307
    4 10.379999 0.000000 0.000000 0.000000 0.000000 0.186413
    5 2.496999 0.000000 0.000000 3.141590 0.000000 0.406109
    6 5.037443 0.000001 0.000000 0.000000 -0.000001 0.405033
  time 2
    0 0.000000 -1.071289 -17.125000 1.570674 0.000061 -0.000061
    1 0.000000 3.345132 -2.981898 1.570796 -0.167321 1.570796
    2 4.001674 0.000000 0.000000 0.000000 0.000000 -0.329319
    3 3.501194 0.000000 0.000000 0.000000 0.000000 0.097307
    4 10.379999 0.000000 0.000000 0.000000 0.000000 0.186413
    5 2.496999 0.000000 0.000000 3.141590 0.000000 0.406109
    6 5.037443 0.000001 0.000000 0.000000 -0.000001 0.405033
  time 3
    0 0.000000 -1.071289 -17.125000 1.570674 0.000061 -0.000061
    1 0.000000 3.345132 -2.981898 1.570796 -0.167321 1.570796
    2 4.001674 0.000000 0.000000 0.000000 0.000000 -0.329319
    3 3.501194 0.000000 0.000000 0.000000 0.000000 0.097307
    4 10.379999 0.000000 0.000000 0.000000 0.000000 0.186413
    5 2.496999 0.000000 0.000000 3.141590 0.000000 0.406109
    6 5.037443 0.000001 0.000000 0.000000 -0.000001 0.405033
  time 4
    0 0.000000 -1.071289 -17.125000 1.570674 0.000061 -0.000061
    1 0.000000 3.345132 -2.981898 1.570796 -0.167321 1.570796
    2 4.001674 0.000000 0.000000 0.000000 0.000000 -0.329319
    3 3.501194 0.000000 0.000000 0.000000 0.000000 0.097307
    4 10.379999 0.000000 0.000000 0.000000 0.000000 0.186413
    5 2.496999 0.000000 0.000000 3.141590 0.000000 0.406109
    6 5.037443 0.000001 0.000000 0.000000 -0.000001 0.405033
  time 5
    0 0.000000 -1.071289 -17.125000 1.570674 0.000061 -0.000061
    1 0.000000 3.345132 -2.981898 1.570796 -0.167321 1.570796
    2 4.001674 0.000000 0.000000 0.000000 0.000000 -0.329319
    3 3.501194 0.000000 0.000000 0.000000 0.000000 0.097307
    4 10.379999 0.000000 0.000000 0.000000 0.000000 0.186413
    5 2.496999 0.000000 0.000000 3.141590 0.000000 0.406109
    6 5.037443 0.000001 0.000000 0.000000 -0.000001 0.405033
  time 6
    0 0.000000 -1.071289 -17.125000 1.570674 0.000061 -0.000061
    1 0.000000 3.345132 -2.981898 1.570796 -0.167321 1.570796
    2 4.001674 0.000000 0.000000 0.000000 0.000000 -0.329319
    3 3.501194 0.000000 0.000000 0.000000 0.000000 0.097307
    4 10.379999 0.000000 0.000000 0.000000 0.000000 0.186413
    5 2.496999 0.000000 0.000000 3.141590 0.000000 0.406109
    6 5.037443 0.000001 0.000000 0.000000 -0.000001 0.405033
  time 7
    0 0.000000 -1.071289 -17.125000 1.570674 0.000061 -0.000061
    1 0.000000 3.345132 -2.981898 1.570796 -0.167321 1.570796
    2 4.001674 0.000000 0.000000 0.000000 0.000000 -0.329319
    3 3.501194 0.000000 0.000000 0.000000 0.000000 0.097307
    4 10.379999 0.000000 0.000000 0.000000 0.000000 0.186413
    5 2.496999 0.000000 0.000000 3.141590 0.000000 0.406109
    6 5.037443 0.000001 0.000000 0.000000 -0.000001 0.405033
  time 8
    0 0.000000 -1.071289 -17.125000 1.570674 0.000061 -0.000061
    1 0.000000 3.345132 -2.981898 1.570796 -0.167321 1.570796
    2 4.001674 0.000000 0.000000 0.000000 0.000000 -0.329319
    3 3.501194 0.000000 0.000000 0.000000 0.000000 0.097307
    4 10.379999 0.000000 0.000000 0.000000 0.000000 0.186413
    5 2.496999 0.000000 0.000000 3.141590 0.000000 0.406109
    6 5.037443 0.000001 0.000000 0.000000 -0.000001 0.405033
  time 9
    0 0.000000 -1.071289 -17.125000 1.570674 0.000061 -0.000061
    1 0.000000 3.345132 -2.981898 1.570796 -0.167321 1.570796
    2 4.001674 0.000000 0.000000 0.000000 0.000000 -0.329319
    3 3.501194 0.000000 0.000000 0.000000 0.000000 0.097307
    4 10.379999 0.000000 0.000000 0.000000 0.000000 0.186413
    5 2.496999 0.000000 0.000000 3.141590 0.000000 0.406109
    6 5.037443 0.000001 0.000000 0.000000 -0.000001 0.405033
  time 10
    0 0.000000 -1.071289 -17.125000 1.570674 0.000061 -0.000061
    1 0.000000 3.345132 -2.981898 1.570796 -0.167321 1.570796
    2 4.001674 0.000000 0.000000 0.000000 0.000000 -0.329319
    3 3.501194 0.000000 0.000000 0.000000 0.000000 0.097307
    4 10.379999 0.000000 0.000000 0.000000 0.000000 0.186413
    5 2.496999 0.000000 0.000000 3.141590 0.000000 0.406109
    6 5.037443 0.000001 0.000000 0.000000 -0.000001 0.405033
  time 11
    0 0.000000 -1.071289 -17.125000 1.570674 0.000061 -0.000061
    1 0.000000 3.345132 -2.981898 1.570796 -0.167321 1.570796
    2 4.001674 0.000000 0.000000 0.000000 0.000000 -0.329319
    3 3.501194 0.000000 0.000000 0.000000 0.000000 0.097307
    4 10.379999 0.000000 0.000000 0.000000 0.000000 0.186413
    5 2.496999 0.000000 0.000000 3.141590 0.000000 0.406109
    6 5.037443 0.000001 0.000000 0.000000 -0.000001 0.405033
  time 12
    0 0.000000 -1.071289 -17.125000 1.570674 0.000061 -0.000061
    1 0.000000 3.345132 -2.981898 1.570796 -0.167321 1.570796
    2 4.001674 0.000000 0.000000 0.000000 0.000000 -0.329319
    3 3.501194 0.000000 0.000000 0.000000 0.000000 0.097307
    4 10.379999 0.000000 0.000000 0.000000 0.000000 0.186413
    5 2.496999 0.000000 0.000000 3.141590 0.000000 0.406109
    6 5.037443 0.000001 0.000000 0.000000 -0.000001 0.405033
  time 13
    0 0.000000 -1.071289 -17.125000 1.570674 0.000061 -0.000061
    1 0.000000 3.345132 -2.981898 1.570796 -0.167321 1.570796
    2 4.001674 0.000000 0.000000 0.000000 0.000000 -0.329319
    3 3.501194 0.000000 0.000000 0.000000 0.000000 0.097307
    4 10.379999 0.000000 0.000000 0.000000 0.000000 0.186413
    5 2.496999 0.000000 0.000000 3.141590 0.000000 0.406109
    6 5.037443 0.000001 0.000000 0.000000 -0.000001 0.405033
  time 14
    0 0.000000 -1.071289 -17.125000 1.570674 0.000061 -0.000061
    1 0.000000 3.345132 -2.981898 1.570796 -0.167321 1.570796
    2 4.001674 0.000000 0.000000 0.000000 0.000000 -0.329319
    3 3.501194 0.000000 0.000000 0.000000 0.000000 0.097307
    4 10.379999 0.000000 0.000000 0.000000 0.000000 0.186413
    5 2.496999 0.000000 0.000000 3.141590 0.000000 0.406109
    6 5.037443 0.000001 0.000000 0.000000 -0.000001 0.405033
  time 15
    0 0.000000 -1.071289 -17.125000 1.570674 0.000061 -0.000061
    1 0.000000 3.345132 -2.981898 1.570796 -0.167321 1.570796
    2 4.001674 0.000000 0.000000 0.000000 0.000000 -0.329319
    3 3.501194 0.000000 0.000000 0.000000 0.000000 0.097307
    4 10.379999 0.000000 0.000000 0.000000 0.000000 0.186413
    5 2.496999 0.000000 0.000000 3.141590 0.000000 0.406109
    6 5.037443 0.000001 0.000000 0.000000 -0.000001 0.405033
  time 16
    0 0.000000 -1.071289 -17.125000 1.570674 0.000061 -0.000061
    1 0.000000 3.345132 -2.981898 1.570796 -0.167321 1.570796
    2 4.001674 0.000000 0.000000 0.000000 0.000000 -0.329319
    3 3.501194 0.000000 0.000000 0.000000 0.000000 0.097307
    4 10.379999 0.000000 0.000000 0.000000 0.000000 0.186413
    5 2.496999 0.000000 0.000000 3.141590 0.000000 0.406109
    6 5.037443 0.000001 0.000000 0.000000 -0.000001 0.405033
  time 17
    0 0.000000 -1.071289 -17.125000 1.570674 0.000061 -0.000061
    1 0.000000 3.345132 -2.981898 1.570796 -0.167321 1.570796
    2 4.001674 0.000000 0.000000 0.000000 0.000000 -0.329319
    3 3.501194 0.000000 0.000000 0.000000 0.000000 0.097307
    4 10.379999 0.000000 0.000000 0.000000 0.000000 0.186413
    5 2.496999 0.000000 0.000000 3.141590 0.000000 0.406109
    6 5.037443 0.000001 0.000000 0.000000 -0.000001 0.405033
  time 18
    0 0.000000 -1.071289 -17.125000 1.570674 0.000061 -0.000061
    1 0.000000 3.345132 -2.981898 1.570796 -0.167321 1.570796
    2 4.001674 0.000000 0.000000 0.000000 0.000000 -0.329319
    3 3.501194 0.000000 0.000000 0.000000 0.000000 0.097307
    4 10.379999 0.000000 0.000000 0.000000 0.000000 0.186413
    5 2.496999 0.000000 0.000000 3.141590 0.000000 0.406109
    6 5.037443 0.000001 0.000000 0.000000 -0.000001 0.405033
  time 19
    0 0.000000 -1.071289 -17.125000 1.570674 0.000061 -0.000061
    1 0.000000 3.345132 -2.981898 1.570796 -0.167321 1.570796
    2 4.001674 0.000000 0.000000 0.000000 0.000000 -0.329319
    3 3.501194 0.000000 0.000000 0.000000 0.000000 0.097307
    4 10.379999 0.000000 0.000000 0.000000 0.000000 0.186413
    5 2.496999 0.000000 0.000000 3.141590 0.000000 0.406109
    6 5.037443 0.000001 0.000000 0.000000 -0.000001 0.405033
  time 20
    0 0.000000 -1.071289 -17.125000 1.570674 0.000061 -0.000061
    1 0.000000 3.345132 -2.981898 1.570796 -0.167321 1.570796
    2 4.001674 0.000000 0.000000 0.000000 0.000000 -0.329319
    3 3.501194 0.000000 0.000000 0.000000 0.000000 0.097307
    4 10.379999 0.000000 0.000000 0.000000 0.000000 0.186413
    5 2.496999 0.000000 0.000000 3.141590 0.000000 0.406109
    6 5.037443 0.000001 0.000000 0.000000 -0.000001 0.405033
  time 21
    0 0.000000 -1.071289 -17.125000 1.570674 0.000061 -0.000061
    1 0.000000 3.345132 -2.981898 1.570796 -0.167321 1.570796
    2 4.001674 0.000000 0.000000 0.000000 0.000000 -0.329319
    3 3.501194 0.000000 0.000000 0.000000 0.000000 0.097307
    4 10.379999 0.000000 0.000000 0.000000 0.000000 0.186413
    5 2.496999 0.000000 0.000000 3.141590 0.000000 0.406109
    6 5.037443 0.000001 0.000000 0.000000 -0.000001 0.405033
  time 22
    0 0.000000 -1.071289 -17.125000 1.570674 0.000061 -0.000061
    1 0.000000 3.345132 -2.981898 1.570796 -0.167321 1.570796
    2 4.001674 0.000000 0.000000 0.000000 0.000000 -0.329319
    3 3.501194 0.000000 0.000000 0.000000 0.000000 0.097307
    4 10.379999 0.000000 0.000000 0.000000 0.000000 0.186413
    5 2.496999 0.000000 0.000000 3.141590 0.000000 0.406109
    6 5.037443 0.000001 0.000000 0.000000 -0.000001 0.405033
  time 23
    0 0.000000 -1.071289 -17.125000 1.570674 0.000061 -0.000061
    1 0.000000 3.345132 -2.981898 1.570796 -0.167321 1.570796
    2 4.001674 0.000000 0.000000 0.000000 0.000000 -0.329319
    3 3.501194 0.000000 0.000000 0.000000 0.000000 0.097307
    4 10.379999 0.000000 0.000000 0.000000 0.000000 0.186413
    5 2.496999 0.000000 0.000000 3.141590 0.000000 0.406109
    6 5.037443 0.000001 0.000000 0.000000 -0.000001 0.405033
  time 24
    0 0.000000 -1.071289 -17.125000 1.570674 0.000061 -0.000061
    1 0.000000 3.345132 -2.981898 1.570796 -0.167321 1.570796
    2 4.001674 0.000000 0.000000 0.000000 0.000000 -0.329319
    3 3.501194 0.000000 0.000000 0.000000 0.000000 0.097307
    4 10.379999 0.000000 0.000000 0.000000 0.000000 0.186413
    5 2.496999 0.000000 0.000000 3.141590 0.000000 0.406109
    6 5.037443 0.000001 0.000000 0.000000 -0.000001 0.405033
  time 25
    0 0.000000 -1.071289 -17.125000 1.570674 0.000061 -0.000061
    1 0.000000 3.345132 -2.981898 1.570796 -0.167321 1.570796
    2 4.001674 0.000000 0.000000 0.000000 0.000000 -0.329319
    3 3.501194 0.000000 0.000000 0.000000 0.000000 0.097307
    4 10.379999 0.000000 0.000000 0.000000 0.000000 0.186413
    5 2.496999 0.000000 0.000000 3.141590 0.000000 0.406109
    6 5.037443 0.000001 0.000000 0.000000 -0.000001 0.405033
  time 26
    0 0.000000 -1.071289 -17.125000 1.570674 0.000061 -0.000061
    1 0.000000 3.345132 -2.981898 1.570796 -0.167321 1.570796
    2 4.001674 0.000000 0.000000 0.000000 0.000000 -0.329319
    3 3.501194 0.000000 0.000000 0.000000 0.000000 0.097307
    4 10.379999 0.000000 0.000000 0.000000 0.000000 0.186413
    5 2.496999 0.000000 0.000000 3.141590 0.000000 0.406109
    6 5.037443 0.000001 0.000000 0.000000 -0.000001 0.405033
  time 27
    0 0.000000 -1.071289 -17.125000 1.570674 0.000061 -0.000061
    1 0.000000 3.345132 -2.981898 1.570796 -0.167321 1.570796
    2 4.001674 0.000000 0.000000 0.000000 0.000000 -0.329319
    3 3.501194 0.000000 0.000000 0.000000 0.000000 0.097307
    4 10.379999 0.000000 0.000000 0.000000 0.000000 0.186413
    5 2.496999 0.000000 0.000000 3.141590 0.000000 0.406109
    6 5.037443 0.000001 0.000000 0.000000 -0.000001 0.405033
  time 28
    0 0.000000 -1.071289 -17.125000 1.570674 0.000061 -0.000061
    1 0.000000 3.345132 -2.981898 1.570796 -0.167321 1.570796
    2 4.001674 0.000000 0.000000 0.000000 0.000000 -0.329319
    3 3.501194 0.000000 0.000000 0.000000 0.000000 0.097307
    4 10.379999 0.000000 0.000000 0.000000 0.000000 0.186413
    5 2.496999 0.000000 0.000000 3.141590 0.000000 0.406109
    6 5.037443 0.000001 0.000000 0.000000 -0.000001 0.405033
  time 29
    0 0.000000 -1.071289 -17.125000 1.570674 0.000061 -0.000061
    1 0.000000 3.345132 -2.981898 1.570796 -0.167321 1.570796
    2 4.001674 0.000000 0.000000 0.000000 0.000000 -0.329319
    3 3.501194 0.000000 0.000000 0.000000 0.000000 0.097307
    4 10.379999 0.000000 0.000000 0.000000 0.000000 0.186413
    5 2.496999 0.000000 0.000000 3.141590 0.000000 0.406109
    6 5.037443 0.000001 0.000000 0.000000 -0.000001 0.405033
  time 30
    0 0.000000 -1.071289 -17.125000 1.570674 0.000061 -0.000061
    1 0.000000 3.345132 -2.981898 1.570796 -0.167321 1.570796
    2 4.001674 0.000000 0.000000 0.000000 0.000000 -0.329319
    3 3.501194 0.000000 0.000000 0.000000 0.000000 0.097307
    4 10.379999 0.000000 0.000000 0.000000 0.000000 0.186413
    5 2.496999 0.000000 0.000000 3.141590 0.000000 0.406109
    6 5.037443 0.000001 0.000000 0.000000 -0.000001 0.405033
  time 31
    0 0.000000 -1.071289 -17.125000 1.570674 0.000061 -0.000061
    1 0.000000 3.345132 -2.981898 1.570796 -0.167321 1.570796
    2 4.001674 0.000000 0.000000 0.000000 0.000000 -0.329319
    3 3.501194 0.000000 0.000000 0.000000 0.000000 0.097307
    4 10.379999 0.000000 0.000000 0.000000 0.000000 0.186413
    5 2.496999 0.000000 0.000000 3.141590 0.000000 0.406109
    6 5.037443 0.000001 0.000000 0.000000 -0.000001 0.405033
  time 32
    0 0.000000 -1.071289 -17.125000 1.570674 0.000061 -0.000061
    1 0.000000 3.345132 -2.981898 1.570796 -0.167321 1.570796
    2 4.001674 0.000000 0.000000 0.000000 0.000000 -0.329319
    3 3.501194 0.000000 0.000000 0.000000 0.000000 0.097307
    4 10.379999 0.000000 0.000000 0.000000 0.000000 0.186413
    5 2.496999 0.000000 0.000000 3.141590 0.000000 0.406109
    6 5.037443 0.000001 0.000000 0.000000 -0.000001 0.405033
  time 33
    0 0.000000 -1.071289 -17.125000 1.570674 0.000061 -0.000061
    1 0.000000 3.345132 -2.981898 1.570796 -0.167321 1.570796
    2 4.001674 0.000000 0.000000 0.000000 0.000000 -0.329319
    3 3.501194 0.000000 0.000000 0.000000 0.000000 0.097307
    4 10.379999 0.000000 0.000000 0.000000 0.000000 0.186413
    5 2.496999 0.000000 0.000000 3.141590 0.000000 0.406109
    6 5.037443 0.000001 0.000000 0.000000 -0.000001 0.405033
  time 34
    0 0.000000 -1.071289 -17.125000 1.570674 0.000061 -0.000061
    1 0.000000 3.345132 -2.981898 1.570796 -0.167321 1.570796
    2 4.001674 0.000000 0.000000 0.000000 0.000000 -0.329319
    3 3.501194 0.000000 0.000000 0.000000 0.000000 0.097307
    4 10.379999 0.000000 0.000000 0.000000 0.000000 0.186413
    5 2.496999 0.000000 0.000000 3.141590 0.000000 0.406109
    6 5.037443 0.000001 0.000000 0.000000 -0.000001 0.405033
  time 35
    0 0.000000 -1.071289 -17.125000 1.570674 0.000061 -0.000061
    1 0.000000 3.345132 -2.981898 1.570796 -0.167321 1.570796
    2 4.001674 0.000000 0.000000 0.000000 0.000000 -0.329319
    3 3.501194 0.000000 0.000000 0.000000 0.000000 0.097307
    4 10.379999 0.000000 0.000000 0.000000 0.000000 0.186413
    5 2.496999 0.000000 0.000000 3.141590 0.000000 0.406109
    6 5.037443 0.000001 0.000000 0.000000 -0.000001 0.405033
  time 36
    0 0.000000 -1.071289 -17.125000 1.570674 0.000061 -0.000061
    1 0.000000 3.345132 -2.981898 1.570796 -0.167321 1.570796
    2 4.001674 0.000000 0.000000 0.000000 0.000000 -0.329319
    3 3.501194 0.000000 0.000000 0.000000 0.000000 0.097307
    4 10.379999 0.000000 0.000000 0.000000 0.000000 0.186413
    5 2.496999 0.000000 0.000000 3.141590 0.000000 0.406109
    6 5.037443 0.000001 0.000000 0.000000 -0.000001 0.405033
  time 37
    0 0.000000 -1.071289 -17.125000 1.570674 0.000061 -0.000061
    1 0.000000 3.345132 -2.981898 1.570796 -0.167321 1.570796
    2 4.001674 0.000000 0.000000 0.000000 0.000000 -0.329319
    3 3.501194 0.000000 0.000000 0.000000 0.000000 0.097307
    4 10.379999 0.000000 0.000000 0.000000 0.000000 0.186413
    5 2.496999 0.000000 0.000000 3.141590 0.000000 0.406109
    6 5.037443 0.000001 0.000000 0.000000 -0.000001 0.405033
  time 38
    0 0.000000 -1.071289 -17.125000 1.570674 0.000061 -0.000061
    1 0.000000 3.345132 -2.981898 1.570796 -0.167321 1.570796
    2 4.001674 0.000000 0.000000 0.000000 0.000000 -0.329319
    3 3.501194 0.000000 0.000000 0.000000 0.000000 0.097307
    4 10.379999 0.000000 0.000000 0.000000 0.000000 0.186413
    5 2.496999 0.000000 0.000000 3.141590 0.000000 0.406109
    6 5.037443 0.000001 0.000000 0.000000 -0.000001 0.405033
  time 39
    0 0.000000 -1.071289 -17.125000 1.570674 0.000061 -0.000061
    1 0.000000 3.345132 -2.981898 1.570796 -0.167321 1.570796
    2 4.001674 0.000000 0.000000 0.000000 0.000000 -0.329319
    3 3.501194 0.000000 0.000000 0.000000 0.000000 0.097307
    4 10.379999 0.000000 0.000000 0.000000 0.000000 0.186413
    5 2.496999 0.000000 0.000000 3.141590 0.000000 0.406109
    6 5.037443 0.000001 0.000000 0.000000 -0.000001 0.405033
  time 40
    0 0.000000 -1.071289 -17.125000 1.570674 0.000061 -0.000061
    1 0.000000 3.345132 -2.981898 1.570796 -0.167321 1.570796
    2 4.001674 0.000000 0.000000 0.000000 0.000000 -0.329319
    3 3.501194 0.000000 0.000000 0.000000 0.000000 0.097307
    4 10.379999 0.000000 0.000000 0.000000 0.000000 0.186413
    5 2.496999 0.000000 0.000000 3.141590 0.000000 0.406109
    6 5.037443 0.000001 0.000000 0.000000 -0.000001 0.405033
  time 41
    0 0.000000 -1.071289 -17.125000 1.570674 0.000061 -0.000061
    1 0.000000 3.345132 -2.981898 1.570796 -0.167321 1.570796
    2 4.001674 0.000000 0.000000 0.000000 0.000000 -0.329319
    3 3.501194 0.000000 0.000000 0.000000 0.000000 0.097307
    4 10.379999 0.000000 0.000000 0.000000 0.000000 0.186413
    5 2.496999 0.000000 0.000000 3.141590 0.000000 0.406109
    6 5.037443 0.000001 0.000000 0.000000 -0.000001 0.405033
  time 42
    0 0.000000 -1.071289 -17.125000 1.570674 0.000061 -0.000061
    1 0.000000 3.345132 -2.981898 1.570796 -0.167321 1.570796
    2 4.001674 0.000000 0.000000 0.000000 0.000000 -0.329319
    3 3.501194 0.000000 0.000000 0.000000 0.000000 0.097307
    4 10.379999 0.000000 0.000000 0.000000 0.000000 0.186413
    5 2.496999 0.000000 0.000000 3.141590 0.000000 0.406109
    6 5.037443 0.000001 0.000000 0.000000 -0.000001 0.405033
  time 43
    0 0.000000 -1.071289 -17.125000 1.570674 0.000061 -0.000061
    1 0.000000 3.345132 -2.981898 1.570796 -0.167321 1.570796
    2 4.001674 0.000000 0.000000 0.000000 0.000000 -0.329319
    3 3.501194 0.000000 0.000000 0.000000 0.000000 0.097307
    4 10.379999 0.000000 0.000000 0.000000 0.000000 0.186413
    5 2.496999 0.000000 0.000000 3.141590 0.000000 0.406109
    6 5.037443 0.000001 0.000000 0.000000 -0.000001 0.405033
  time 44
    0 0.000000 -1.071289 -17.125000 1.570674 0.000061 -0.000061
    1 0.000000 3.345132 -2.981898 1.570796 -0.167321 1.570796
    2 4.001674 0.000000 0.000000 0.000000 0.000000 -0.329319
    3 3.501194 0.000000 0.000000 0.000000 0.000000 0.097307
    4 10.379999 0.000000 0.000000 0.000000 0.000000 0.186413
    5 2.496999 0.000000 0.000000 3.141590 0.000000 0.406109
    6 5.037443 0.000001 0.000000 0.000000 -0.000001 0.405033
  time 45
    0 0.000000 -1.071289 -17.125000 1.570674 0.000061 -0.000061
    1 0.000000 3.345132 -2.981898 1.570796 -0.167321 1.570796
    2 4.001674 0.000000 0.000000 0.000000 0.000000 -0.329319
    3 3.501194 0.000000 0.000000 0.000000 0.000000 0.097307
    4 10.379999 0.000000 0.000000 0.000000 0.000000 0.186413
    5 2.496999 0.000000 0.000000 3.141590 0.000000 0.406109
    6 5.037443 0.000001 0.000000 0.000000 -0.000001 0.405033
  time 46
    0 0.000000 -1.071289 -17.125000 1.570674 0.000061 -0.000061
    1 0.000000 3.345132 -2.981898 1.570796 -0.167321 1.570796
    2 4.001674 0.000000 0.000000 0.000000 0.000000 -0.329319
    3 3.501194 0.000000 0.000000 0.000000 0.000000 0.097307
    4 10.379999 0.000000 0.000000 0.000000 0.000000 0.186413
    5 2.496999 0.000000 0.000000 3.141590 0.000000 0.406109
    6 5.037443 0.000001 0.000000 0.000000 -0.000001 0.405033
  time 47
    0 0.000000 -1.071289 -17.125000 1.570674 0.000061 -0.000061
    1 0.000000 3.345132 -2.981898 1.570796 -0.167321 1.570796
    2 4.001674 0.000000 0.000000 0.000000 0.000000 -0.329319
    3 3.501194 0.000000 0.000000 0.000000 0.000000 0.097307
    4 10.379999 0.000000 0.000000 0.000000 0.000000 0.186413
    5 2.496999 0.000000 0.000000 3.141590 0.000000 0.406109
    6 5.037443 0.000001 0.000000 0.000000 -0.000001 0.405033
  time 48
    0 0.000000 -1.071289 -17.125000 1.570674 0.000061 -0.000061
    1 0.000000 3.345132 -2.981898 1.570796 -0.167321 1.570796
    2 4.001674 0.000000 0.000000 0.000000 0.000000 -0.329319
    3 3.501194 0.000000 0.000000 0.000000 0.000000 0.097307
    4 10.379999 0.000000 0.000000 0.000000 0.000000 0.186413
    5 2.496999 0.000000 0.000000 3.141590 0.000000 0.406109
    6 5.037443 0.000001 0.000000 0.000000 -0.000001 0.405033
  time 49
    0 0.000000 -1.071289 -17.125000 1.570674 0.000061 -0.000061
    1 0.000000 3.345132 -2.981898 1.570796 -0.167321 1.570796
    2 4.001674 0.000000 0.000000 0.000000 0.000000 -0.329319
    3 3.501194 0.000000 0.000000 0.000000 0.000000 0.097307
    4 10.379999 0.000000 0.000000 0.000000 0.000000 0.186413
    5 2.496999 0.000000 0.000000 3.141590 0.000000 0.406109
    6 5.037443 0.000001 0.000000 0.000000 -0.000001 0.405033
  time 50
    0 0.000000 -1.071289 -17.125000 1.570674 0.000061 -0.000061
    1 0.000000 3.345132 -2.981898 1.570796 -0.167321 1.570796
    2 4.001674 0.000000 0.000000 0.000000 0.000000 -0.329319
    3 3.501194 0.000000 0.000000 0.000000 0.000000 0.097307
    4 10.379999 0.000000 0.000000 0.000000 0.000000 0.186413
    5 2.496999 0.000000 0.000000 3.141590 0.000000 0.406109
    6 5.037443 0.000001 0.000000 0.000000 -0.000001 0.405033
  time 51
    0 0.000000 -1.071289 -17.125000 1.570674 0.000061 -0.000061
    1 0.000000 3.345132 -2.981898 1.570796 -0.167321 1.570796
    2 4.001674 0.000000 0.000000 0.000000 0.000000 -0.329319
    3 3.501194 0.000000 0.000000 0.000000 0.000000 0.097307
    4 10.379999 0.000000 0.000000 0.000000 0.000000 0.186413
    5 2.496999 0.000000 0.000000 3.141590 0.000000 0.406109
    6 5.037443 0.000001 0.000000 0.000000 -0.000001 0.405033
  time 52
    0 0.000000 -1.071289 -17.125000 1.570674 0.000061 -0.000061
    1 0.000000 3.345132 -2.981898 1.570796 -0.167321 1.570796
    2 4.001674 0.000000 0.000000 0.000000 0.000000 -0.329319
    3 3.501194 0.000000 0.000000 0.000000 0.000000 0.097307
    4 10.379999 0.000000 0.000000 0.000000 0.000000 0.186413
    5 2.496999 0.000000 0.000000 3.141590 0.000000 0.406109
    6 5.037443 0.000001 0.000000 0.000000 -0.000001 0.405033
  time 53
    0 0.000000 -1.071289 -17.125000 1.570674 0.000061 -0.000061
    1 0.000000 3.345132 -2.981898 1.570796 -0.167321 1.570796
    2 4.001674 0.000000 0.000000 0.000000 0.000000 -0.329319
    3 3.501194 0.000000 0.000000 0.000000 0.000000 0.097307
    4 10.379999 0.000000 0.000000 0.000000 0.000000 0.186413
    5 2.496999 0.000000 0.000000 3.141590 0.000000 0.406109
    6 5.037443 0.000001 0.000000 0.000000 -0.000001 0.405033
  time 54
    0 0.000000 -1.071289 -17.125000 1.570674 0.000061 -0.000061
    1 0.000000 3.345132 -2.981898 1.570796 -0.167321 1.570796
    2 4.001674 0.000000 0.000000 0.000000 0.000000 -0.329319
    3 3.501194 0.000000 0.000000 0.000000 0.000000 0.097307
    4 10.379999 0.000000 0.000000 0.000000 0.000000 0.186413
    5 2.496999 0.000000 0.000000 3.141590 0.000000 0.406109
    6 5.037443 0.000001 0.000000 0.000000 -0.000001 0.405033
  time 55
    0 0.000000 -1.071289 -17.125000 1.570674 0.000061 -0.000061
    1 0.000000 3.345132 -2.981898 1.570796 -0.167321 1.570796
    2 4.001674 0.000000 0.000000 0.000000 0.000000 -0.329319
    3 3.501194 0.000000 0.000000 0.000000 0.000000 0.097307
    4 10.379999 0.000000 0.000000 0.000000 0.000000 0.186413
    5 2.496999 0.000000 0.000000 3.141590 0.000000 0.406109
    6 5.037443 0.000001 0.000000 0.000000 -0.000001 0.405033
  time 56
    0 0.000000 -1.071289 -17.125000 1.570674 0.000061 -0.000061
    1 0.000000 3.345132 -2.981898 1.570796 -0.167321 1.570796
    2 4.001674 0.000000 0.000000 0.000000 0.000000 -0.329319
    3 3.501194 0.000000 0.000000 0.000000 0.000000 0.097307
    4 10.379999 0.000000 0.000000 0.000000 0.000000 0.186413
    5 2.496999 0.000000 0.000000 3.141590 0.000000 0.406109
    6 5.037443 0.000001 0.000000 0.000000 -0.000001 0.405033
  time 57
    0 0.000000 -1.071289 -17.125000 1.570674 0.000061 -0.000061
    1 0.000000 3.345132 -2.981898 1.570796 -0.167321 1.570796
    2 4.001674 0.000000 0.000000 0.000000 0.000000 -0.329319
    3 3.501194 0.000000 0.000000 0.000000 0.000000 0.097307
    4 10.379999 0.000000 0.000000 0.000000 0.000000 0.186413
    5 2.496999 0.000000 0.000000 3.141590 0.000000 0.406109
    6 5.037443 0.000001 0.000000 0.000000 -0.000001 0.405033
  time 58
    0 0.000000 -1.071289 -17.125000 1.570674 0.000061 -0.000061
    1 0.000000 3.345132 -2.981898 1.570796 -0.167321 1.570796
    2 4.001674 0.000000 0.000000 0.000000 0.000000 -0.329319
    3 3.501194 0.000000 0.000000 0.000000 0.000000 0.097307
    4 10.379999 0.000000 0.000000 0.000000 0.000000 0.186413
    5 2.496999 0.000000 0.000000 3.141590 0.000000 0.406109
    6 5.037443 0.000001 0.000000 0.000000 -0.000001 0.405033
  time 59
    0 0.000000 -1.071289 -17.125000 1.570674 0.000061 -0.000061
    1 0.000000 3.345132 -2.981898 1.570796 -0.167321 1.570796
    2 4.001674 0.000000 0.000000 0.000000 0.000000 -0.329319
    3 3.501194 0.000000 0.000000 0.000000 0.000000 0.097307
    4 10.379999 0.000000 0.000000 0.000000 0.000000 0.186413
    5 2.496999 0.000000 0.000000 3.141590 0.000000 0.406109
    6 5.037443 0.000001 0.000000 0.000000 -0.000001 0.405033
  time 60
    0 0.000000 -1.071289 -17.125000 1.570674 0.000061 -0.000061
    1 0.000000 3.345132 -2.981898 1.570796 -0.167321 1.570796
    2 4.001674 0.000000 0.000000 0.000000 0.000000 -0.329319
    3 3.501194 0.000000 0.000000 0.000000 0.000000 0.097307
    4 10.379999 0.000000 0.000000 0.000000 0.000000 0.186413
    5 2.496999 0.000000 0.000000 3.141590 0.000000 0.406109
    6 5.037443 0.000001 0.000000 0.000000 -0.000001 0.405033
  time 61
    0 0.000000 -1.071289 -17.125000 1.570674 0.000061 -0.000061
    1 0.000000 3.345132 -2.981898 1.570796 -0.167321 1.570796
    2 4.001674 0.000000 0.000000 0.000000 0.000000 -0.329319
    3 3.501194 0.000000 0.000000 0.000000 0.000000 0.097307
    4 10.379999 0.000000 0.000000 0.000000 0.000000 0.186413
    5 2.496999 0.000000 0.000000 3.141590 0.000000 0.406109
    6 5.037443 0.000001 0.000000 0.000000 -0.000001 0.405033
  time 62
    0 0.000000 -1.071289 -17.125000 1.570674 0.000061 -0.000061
    1 0.000000 3.345132 -2.981898 1.570796 -0.167321 1.570796
    2 4.001674 0.000000 0.000000 0.000000 0.000000 -0.329319
    3 3.501194 0.000000 0.000000 0.000000 0.000000 0.097307
    4 10.379999 0.000000 0.000000 0.000000 0.000000 0.186413
    5 2.496999 0.000000 0.000000 3.141590 0.000000 0.406109
    6 5.037443 0.000001 0.000000 0.000000 -0.000001 0.405033
  time 63
    0 0.000000 -1.071289 -17.125000 1.570674 0.000061 -0.000061
    1 0.000000 3.345132 -2.981898 1.570796 -0.167321 1.570796
    2 4.001674 0.000000 0.000000 0.000000 0.000000 -0.329319
    3 3.501194 0.000000 0.000000 0.000000 0.000000 0.097307
    4 10.379999 0.000000 0.000000 0.000000 0.000000 0.186413
    5 2.496999 0.000000 0.000000 3.141590 0.000000 0.406109
    6 5.037443 0.000001 0.000000 0.000000 -0.000001 0.405033
  time 64
    0 0.000000 -1.071289 -17.125000 1.570674 0.000061 -0.000061
    1 0.000000 3.345132 -2.981898 1.570796 -0.167321 1.570796
    2 4.001674 0.000000 0.000000 0.000000 0.000000 -0.329319
    3 3.501194 0.000000 0.000000 0.000000 0.000000 0.097307
    4 10.379999 0.000000 0.000000 0.000000 0.000000 0.186413
    5 2.496999 0.000000 0.000000 3.141590 0.000000 0.406109
    6 5.037443 0.000001 0.000000 0.000000 -0.000001 0.405033
  time 65
    0 0.000000 -1.071289 -17.125000 1.570674 0.000061 -0.000061
    1 0.000000 3.345132 -2.981898 1.570796 -0.167321 1.570796
    2 4.001674 0.000000 0.000000 0.000000 0.000000 -0.329319
    3 3.501194 0.000000 0.000000 0.000000 0.000000 0.097307
    4 10.379999 0.000000 0.000000 0.000000 0.000000 0.186413
    5 2.496999 0.000000 0.000000 3.141590 0.000000 0.406109
    6 5.037443 0.000001 0.000000 0.000000 -0.000001 0.405033
  time 66
    0 0.000000 -1.071289 -17.125000 1.570674 0.000061 -0.000061
    1 0.000000 3.345132 -2.981898 1.570796 -0.167321 1.570796
    2 4.001674 0.000000 0.000000 0.000000 0.000000 -0.329319
    3 3.501194 0.000000 0.000000 0.000000 0.000000 0.097307
    4 10.379999 0.000000 0.000000 0.000000 0.000000 0.186413
    5 2.496999 0.000000 0.000000 3.141590 0.000000 0.406109
    6 5.037443 0.000001 0.000000 0.000000 -0.000001 0.405033
  time 67
    0 0.000000 -1.071289 -17.125000 1.570674 0.000061 -0.000061
    1 0.000000 3.345132 -2.981898 1.570796 -0.167321 1.570796
    2 4.001674 0.000000 0.000000 0.000000 0.000000 -0.329319
    3 3.501194 0.000000 0.000000 0.000000 0.000000 0.097307
    4 10.379999 0.000000 0.000000 0.000000 0.000000 0.186413
    5 2.496999 0.000000 0.000000 3.141590 0.000000 0.406109
    6 5.037443 0.000001 0.000000 0.000000 -0.000001 0.405033
  time 68
    0 0.000000 -1.071289 -17.125000 1.570674 0.000061 -0.000061
    1 0.000000 3.345132 -2.981898 1.570796 -0.167321 1.570796
    2 4.001674 0.000000 0.000000 0.000000 0.000000 -0.329319
    3 3.501194 0.000000 0.000000 0.000000 0.000000 0.097307
    4 10.379999 0.000000 0.000000 0.000000 0.000000 0.186413
    5 2.496999 0.000000 0.000000 3.141590 0.000000 0.406109
    6 5.037443 0.000001 0.000000 0.000000 -0.000001 0.405033
  time 69
    0 0.000000 -1.071289 -17.125000 1.570674 0.000061 -0.000061
    1 0.000000 3.345132 -2.981898 1.570796 -0.167321 1.570796
    2 4.001674 0.000000 0.000000 0.000000 0.000000 -0.329319
    3 3.501194 0.000000 0.000000 0.000000 0.000000 0.097307
    4 10.379999 0.000000 0.000000 0.000000 0.000000 0.186413
    5 2.496999 0.000000 0.000000 3.141590 0.000000 0.406109
    6 5.037443 0.000001 0.000000 0.000000 -0.000001 0.405033
  time 70
    0 0.000000 -1.071289 -17.125000 1.570674 0.000061 -0.000061
    1 0.000000 3.345132 -2.981898 1.570796 -0.167321 1.570796
    2 4.001674 0.000000 0.000000 0.000000 0.000000 -0.329319
    3 3.501194 0.000000 0.000000 0.000000 0.000000 0.097307
    4 10.379999 0.000000 0.000000 0.000000 0.000000 0.186413
    5 2.496999 0.000000 0.000000 3.141590 0.000000 0.406109
    6 5.037443 0.000001 0.000000 0.000000 -0.000001 0.405033
  time 71
    0 0.000000 -1.071289 -17.125000 1.570674 0.000061 -0.000061
    1 0.000000 3.345132 -2.981898 1.570796 -0.167321 1.570796
    2 4.001674 0.000000 0.000000 0.000000 0.000000 -0.329319
    3 3.501194 0.000000 0.000000 0.000000 0.000000 0.097307
    4 10.379999 0.000000 0.000000 0.000000 0.000000 0.186413
    5 2.496999 0.000000 0.000000 3.141590 0.000000 0.406109
    6 5.037443 0.000001 0.000000 0.000000 -0.000001 0.405033
  time 72
    0 0.000000 -1.071289 -17.125000 1.570674 0.000061 -0.000061
    1 0.000000 3.345132 -2.981898 1.570796 -0.167321 1.570796
    2 4.001674 0.000000 0.000000 0.000000 0.000000 -0.329319
    3 3.501194 0.000000 0.000000 0.000000 0.000000 0.097307
    4 10.379999 0.000000 0.000000 0.000000 0.000000 0.186413
    5 2.496999 0.000000 0.000000 3.141590 0.000000 0.406109
    6 5.037443 0.000001 0.000000 0.000000 -0.000001 0.405033
  time 73
    0 0.000000 -1.071289 -17.125000 1.570674 0.000061 -0.000061
    1 0.000000 3.345132 -2.981898 1.570796 -0.167321 1.570796
    2 4.001674 0.000000 0.000000 0.000000 0.000000 -0.329319
    3 3.501194 0.000000 0.000000 0.000000 0.000000 0.097307
    4 10.379999 0.000000 0.000000 0.000000 0.000000 0.186413
    5 2.496999 0.000000 0.000000 3.141590 0.000000 0.406109
    6 5.037443 0.000001 0.000000 0.000000 -0.000001 0.405033
  time 74
    0 0.000000 -1.071289 -17.125000 1.570674 0.000061 -0.000061
    1 0.000000 3.345132 -2.981898 1.570796 -0.167321 1.570796
    2 4.001674 0.000000 0.000000 0.000000 0.000000 -0.329319
    3 3.501194 0.000000 0.000000 0.000000 0.000000 0.097307
    4 10.379999 0.000000 0.000000 0.000000 0.000000 0.186413
    5 2.496999 0.000000 0.000000 3.141590 0.000000 0.406109
    6 5.037443 0.000001 0.000000 0.000000 -0.000001 0.405033
  time 75
    0 0.000000 -1.071289 -17.125000 1.570674 0.000061 -0.000061
    1 0.000000 3.345132 -2.981898 1.570796 -0.167321 1.570796
    2 4.001674 0.000000 0.000000 0.000000 0.000000 -0.329319
    3 3.501194 0.000000 0.000000 0.000000 0.000000 0.097307
    4 10.379999 0.000000 0.000000 0.000000 0.000000 0.186413
    5 2.496999 0.000000 0.000000 3.141590 0.000000 0.406109
    6 5.037443 0.000001 0.000000 0.000000 -0.000001 0.405033
  time 76
    0 0.000000 -1.071289 -17.125000 1.570674 0.000061 -0.000061
    1 0.000000 3.345132 -2.981898 1.570796 -0.167321 1.570796
    2 4.001674 0.000000 0.000000 0.000000 0.000000 -0.329319
    3 3.501194 0.000000 0.000000 0.000000 0.000000 0.097307
    4 10.379999 0.000000 0.000000 0.000000 0.000000 0.186413
    5 2.496999 0.000000 0.000000 3.141590 0.000000 0.406109
    6 5.037443 0.000001 0.000000 0.000000 -0.000001 0.405033
  time 77
    0 0.000000 -1.071289 -17.125000 1.570674 0.000061 -0.000061
    1 0.000000 3.345132 -2.981898 1.570796 -0.167321 1.570796
    2 4.001674 0.000000 0.000000 0.000000 0.000000 -0.329319
    3 3.501194 0.000000 0.000000 0.000000 0.000000 0.097307
    4 10.379999 0.000000 0.000000 0.000000 0.000000 0.186413
    5 2.496999 0.000000 0.000000 3.141590 0.000000 0.406109
    6 5.037443 0.000001 0.000000 0.000000 -0.000001 0.405033
  time 78
    0 0.000000 -1.071289 -17.125000 1.570674 0.000061 -0.000061
    1 0.000000 3.345132 -2.981898 1.570796 -0.167321 1.570796
    2 4.001674 0.000000 0.000000 0.000000 0.000000 -0.329319
    3 3.501194 0.000000 0.000000 0.000000 0.000000 0.097307
    4 10.379999 0.000000 0.000000 0.000000 0.000000 0.186413
    5 2.496999 0.000000 0.000000 3.141590 0.000000 0.406109
    6 5.037443 0.000001 0.000000 0.000000 -0.000001 0.405033
  time 79
    0 0.000000 -1.071289 -17.125000 1.570674 0.000061 -0.000061
    1 0.000000 3.345132 -2.981898 1.570796 -0.167321 1.570796
    2 4.001674 0.000000 0.000000 0.000000 0.000000 -0.329319
    3 3.501194 0.000000 0.000000 0.000000 0.000000 0.097307
    4 10.379999 0.000000 0.000000 0.000000 0.000000 0.186413
    5 2.496999 0.000000 0.000000 3.141590 0.000000 0.406109
    6 5.037443 0.000001 0.000000 0.000000 -0.000001 0.405033
  time 80
    0 0.000000 -1.071289 -17.125000 1.570674 0.000061 -0.000061
    1 0.000000 3.345132 -2.981898 1.570796 -0.167321 1.570796
    2 4.001674 0.000000 0.000000 0.000000 0.000000 -0.329319
    3 3.501194 0.000000 0.000000 0.000000 0.000000 0.097307
    4 10.379999 0.000000 0.000000 0.000000 0.000000 0.186413
    5 2.496999 0.000000 0.000000 3.141590 0.000000 0.406109
    6 5.037443 0.000001 0.000000 0.000000 -0.000001 0.405033
  time 81
    0 0.000000 -1.071289 -17.125000 1.570674 0.000061 -0.000061
    1 0.000000 3.345132 -2.981898 1.570796 -0.167321 1.570796
    2 4.001674 0.000000 0.000000 0.000000 0.000000 -0.329319
    3 3.501194 0.000000 0.000000 0.000000 0.000000 0.097307
    4 10.379999 0.000000 0.000000 0.000000 0.000000 0.186413
    5 2.496999 0.000000 0.000000 3.141590 0.000000 0.406109
    6 5.037443 0.000001 0.000000 0.000000 -0.000001 0.405033
  time 82
    0 0.000000 -1.071289 -17.125000 1.570674 0.000061 -0.000061
    1 0.000000 3.345132 -2.981898 1.570796 -0.167321 1.570796
    2 4.001674 0.000000 0.000000 0.000000 0.000000 -0.329319
    3 3.501194 0.000000 0.000000 0.000000 0.000000 0.097307
    4 10.379999 0.000000 0.000000 0.000000 0.000000 0.186413
    5 2.496999 0.000000 0.000000 3.141590 0.000000 0.406109
    6 5.037443 0.000001 0.000000 0.000000 -0.000001 0.405033
  time 83
    0 0.000000 -1.071289 -17.125000 1.570674 0.000061 -0.000061
    1 0.000000 3.345132 -2.981898 1.570796 -0.167321 1.570796
    2 4.001674 0.000000 0.000000 0.000000 0.000000 -0.329319
    3 3.501194 0.000000 0.000000 0.000000 0.000000 0.097307
    4 10.379999 0.000000 0.000000 0.000000 0.000000 0.186413
    5 2.496999 0.000000 0.000000 3.141590 0.000000 0.406109
    6 5.037443 0.000001 0.000000 0.000000 -0.000001 0.405033
  time 84
    0 0.000000 -1.071289 -17.125000 1.570674 0.000061 -0.000061
    1 0.000000 3.345132 -2.981898 1.570796 -0.167321 1.570796
    2 4.001674 0.000000 0.000000 0.000000 0.000000 -0.329319
    3 3.501194 0.000000 0.000000 0.000000 0.000000 0.097307
    4 10.379999 0.000000 0.000000 0.000000 0.000000 0.186413
    5 2.496999 0.000000 0.000000 3.141590 0.000000 0.406109
    6 5.037443 0.000001 0.000000 0.000000 -0.000001 0.405033
  time 85
    0 0.000000 -1.071289 -17.125000 1.570674 0.000061 -0.000061
    1 0.000000 3.345132 -2.981898 1.570796 -0.167321 1.570796
    2 4.001674 0.000000 0.000000 0.000000 0.000000 -0.329319
    3 3.501194 0.000000 0.000000 0.000000 0.000000 0.097307
    4 10.379999 0.000000 0.000000 0.000000 0.000000 0.186413
    5 2.496999 0.000000 0.000000 3.141590 0.000000 0.406109
    6 5.037443 0.000001 0.000000 0.000000 -0.000001 0.405033
  time 86
    0 0.000000 -1.071289 -17.125000 1.570674 0.000061 -0.000061
    1 0.000000 3.345132 -2.981898 1.570796 -0.167321 1.570796
    2 4.001674 0.000000 0.000000 0.000000 0.000000 -0.329319
    3 3.501194 0.000000 0.000000 0.000000 0.000000 0.097307
    4 10.379999 0.000000 0.000000 0.000000 0.000000 0.186413
    5 2.496999 0.000000 0.000000 3.141590 0.000000 0.406109
    6 5.037443 0.000001 0.000000 0.000000 -0.000001 0.405033
  time 87
    0 0.000000 -1.071289 -17.125000 1.570674 0.000061 -0.000061
    1 0.000000 3.345132 -2.981898 1.570796 -0.167321 1.570796
    2 4.001674 0.000000 0.000000 0.000000 0.000000 -0.329319
    3 3.501194 0.000000 0.000000 0.000000 0.000000 0.097307
    4 10.379999 0.000000 0.000000 0.000000 0.000000 0.186413
    5 2.496999 0.000000 0.000000 3.141590 0.000000 0.406109
    6 5.037443 0.000001 0.000000 0.000000 -0.000001 0.405033
  time 88
    0 0.000000 -1.071289 -17.125000 1.570674 0.000061 -0.000061
    1 0.000000 3.345132 -2.981898 1.570796 -0.167321 1.570796
    2 4.001674 0.000000 0.000000 0.000000 0.000000 -0.329319
    3 3.501194 0.000000 0.000000 0.000000 0.000000 0.097307
    4 10.379999 0.000000 0.000000 0.000000 0.000000 0.186413
    5 2.496999 0.000000 0.000000 3.141590 0.000000 0.406109
    6 5.037443 0.000001 0.000000 0.000000 -0.000001 0.405033
  time 89
    0 0.000000 -1.071289 -17.125000 1.570674 0.000061 -0.000061
    1 0.000000 3.345132 -2.981898 1.570796 -0.167321 1.570796
    2 4.001674 0.000000 0.000000 0.000000 0.000000 -0.329319
    3 3.501194 0.000000 0.000000 0.000000 0.000000 0.097307
    4 10.379999 0.000000 0.000000 0.000000 0.000000 0.186413
    5 2.496999 0.000000 0.000000 3.141590 0.000000 0.406109
    6 5.037443 0.000001 0.000000 0.000000 -0.000001 0.405033
  time 90
    0 0.000000 -1.071289 -17.125000 1.570674 0.000061 -0.000061
    1 0.000000 3.345132 -2.981898 1.570796 -0.167321 1.570796
    2 4.001674 0.000000 0.000000 0.000000 0.000000 -0.329319
    3 3.501194 0.000000 0.000000 0.000000 0.000000 0.097307
    4 10.379999 0.000000 0.000000 0.000000 0.000000 0.186413
    5 2.496999 0.000000 0.000000 3.141590 0.000000 0.406109
    6 5.037443 0.000001 0.000000 0.000000 -0.000001 0.405033
  time 91
    0 0.000000 -1.071289 -17.125000 1.570674 0.000061 -0.000061
    1 0.000000 3.345132 -2.981898 1.570796 -0.167321 1.570796
    2 4.001674 0.000000 0.000000 0.000000 0.000000 -0.329319
    3 3.501194 0.000000 0.000000 0.000000 0.000000 0.097307
    4 10.379999 0.000000 0.000000 0.000000 0.000000 0.186413
    5 2.496999 0.000000 0.000000 3.141590 0.000000 0.406109
    6 5.037443 0.000001 0.000000 0.000000 -0.000001 0.405033
  time 92
    0 0.000000 -1.071289 -17.125000 1.570674 0.000061 -0.000061
    1 0.000000 3.345132 -2.981898 1.570796 -0.167321 1.570796
    2 4.001674 0.000000 0.000000 0.000000 0.000000 -0.329319
    3 3.501194 0.000000 0.000000 0.000000 0.000000 0.097307
    4 10.379999 0.000000 0.000000 0.000000 0.000000 0.186413
    5 2.496999 0.000000 0.000000 3.141590 0.000000 0.406109
    6 5.037443 0.000001 0.000000 0.000000 -0.000001 0.405033
  time 93
    0 0.000000 -1.071289 -17.125000 1.570674 0.000061 -0.000061
    1 0.000000 3.345132 -2.981898 1.570796 -0.167321 1.570796
    2 4.001674 0.000000 0.000000 0.000000 0.000000 -0.329319
    3 3.501194 0.000000 0.000000 0.000000 0.000000 0.097307
    4 10.379999 0.000000 0.000000 0.000000 0.000000 0.186413
    5 2.496999 0.000000 0.000000 3.141590 0.000000 0.406109
    6 5.037443 0.000001 0.000000 0.000000 -0.000001 0.405033
  time 94
    0 0.000000 -1.071289 -17.125000 1.570674 0.000061 -0.000061
    1 0.000000 3.345132 -2.981898 1.570796 -0.167321 1.570796
    2 4.001674 0.000000 0.000000 0.000000 0.000000 -0.329319
    3 3.501194 0.000000 0.000000 0.000000 0.000000 0.097307
    4 10.379999 0.000000 0.000000 0.000000 0.000000 0.186413
    5 2.496999 0.000000 0.000000 3.141590 0.000000 0.406109
    6 5.037443 0.000001 0.000000 0.000000 -0.000001 0.405033
  time 95
    0 0.000000 -1.071289 -17.125000 1.570674 0.000061 -0.000061
    1 0.000000 3.345132 -2.981898 1.570796 -0.167321 1.570796
    2 4.001674 0.000000 0.000000 0.000000 0.000000 -0.329319
    3 3.501194 0.000000 0.000000 0.000000 0.000000 0.097307
    4 10.379999 0.000000 0.000000 0.000000 0.000000 0.186413
    5 2.496999 0.000000 0.000000 3.141590 0.000000 0.406109
    6 5.037443 0.000001 0.000000 0.000000 -0.000001 0.405033
  time 96
    0 0.000000 -1.071289 -17.125000 1.570674 0.000061 -0.000061
    1 0.000000 3.345132 -2.981898 1.570796 -0.167321 1.570796
    2 4.001674 0.000000 0.000000 0.000000 0.000000 -0.329319
    3 3.501194 0.000000 0.000000 0.000000 0.000000 0.097307
    4 10.379999 0.000000 0.000000 0.000000 0.000000 0.186413
    5 2.496999 0.000000 0.000000 3.141590 0.000000 0.406109
    6 5.037443 0.000001 0.000000 0.000000 -0.000001 0.405033
  time 97
    0 0.000000 -1.071289 -17.125000 1.570674 0.000061 -0.000061
    1 0.000000 3.345132 -2.981898 1.570796 -0.167321 1.570796
    2 4.001674 0.000000 0.000000 0.000000 0.000000 -0.329319
    3 3.501194 0.000000 0.000000 0.000000 0.000000 0.097307
    4 10.379999 0.000000 0.000000 0.000000 0.000000 0.186413
    5 2.496999 0.000000 0.000000 3.141590 0.000000 0.406109
    6 5.037443 0.000001 0.000000 0.000000 -0.000001 0.405033
  time 98
    0 0.000000 -1.071289 -17.125000 1.570674 0.000061 -0.000061
    1 0.000000 3.345132 -2.981898 1.570796 -0.167321 1.570796
    2 4.001674 0.000000 0.000000 0.000000 0.000000 -0.329319
    3 3.501194 0.000000 0.000000 0.000000 0.000000 0.097307
    4 10.379999 0.000000 0.000000 0.000000 0.000000 0.186413
    5 2.496999 0.000000 0.000000 3.141590 0.000000 0.406109
    6 5.037443 0.000001 0.000000 0.000000 -0.000001 0.405033
  time 99
    0 0.000000 -1.071289 -17.125000 1.570674 0.000061 -0.000061
    1 0.000000 3.345132 -2.981898 1.570796 -0.167321 1.570796
    2 4.001674 0.000000 0.000000 0.000000 0.000000 -0.329319
    3 3.501194 0.000000 0.000000 0.000000 0.000000 0.097307
    4 10.379999 0.000000 0.000000 0.000000 0.000000 0.186413
    5 2.496999 0.000000 0.000000 3.141590 0.000000 0.406109
    6 5.037443 0.000001 0.000000 0.000000 -0.000001 0.405033
end
