// Created by Crowbar 0.74
version 1
nodes
  0 "ValveBiped.Bip01_Pelvis" -1
  1 "ValveBiped.Bip01_R_Thigh" 0
  2 "ValveBiped.Bip01_R_Calf" 1
end
skeleton
  time 0
    0 13.000000 -1.071289 16.859375 1.570674 0.000061 -0.000061
    1 -4.139348 0.000000 0.000000 -1.570796 0.039542 -1.691888
    2 16.500000 0.000000 0.000000 0.000000 0.000000 0.096043
  time 1
    0 13.000000 -1.071289 16.859375 1.570674 0.000061 -0.000061
    1 -4.139348 0.000000 0.000000 -1.570796 0.039542 -1.691888
    2 16.500000 0.000000 0.000000 0.000000 0.000000 0.096043
  time 2
    0 13.000000 -1.071289 16.859375 1.570674 0.000061 -0.000061
    1 -4.139348 0.000000 0.000000 -1.570796 0.039542 -1.691888
    2 16.500000 0.000000 0.000000 0.000000 0.000000 0.096043
  time 3
    0 13.000000 -1.071289 16.859375 1.570674 0.000061 -0.000061
    1 -4.139348 0.000000 0.000000 -1.570796 0.039542 -1.691888
    2 16.500000 0.000000 0.000000 0.000000 0.000000 0.096043
  time 4
    0 13.000000 -1.071289 16.859375 1.570674 0.000061 -0.000061
    1 -4.139348 0.000000 0.000000 -1.570796 0.039542 -1.691888
    2 16.500000 0.000000 0.000000 0.000000 0.000000 0.096043
  time 5
    0 13.000000 -1.071289 16.859375 1.570674 0.000061 -0.000061
    1 -4.139348 0.000000 0.000000 -1.570796 0.039542 -1.691888
    2 16.500000 0.000000 0.000000 0.000000 0.000000 0.096043
  time 6
    0 13.000000 -1.071289 16.859375 1.570674 0.000061 -0.000061
    1 -4.139348 0.000000 0.000000 -1.570796 0.039542 -1.691888
    2 16.500000 0.000000 0.000000 0.000000 0.000000 0.096043
  time 7
    0 13.000000 -1.071289 16.859375 1.570674 0.000061 -0.000061
    1 -4.139348 0.000000 0.000000 -1.570796 0.039542 -1.691888
    2 16.500000 0.000000 0.000000 0.000000 0.000000 0.096043
  time 8
    0 13.000000 -1.071289 16.859375 1.570674 0.000061 -0.000061
    1 -4.139348 0.000000 0.000000 -1.570796 0.039542 -1.691888
    2 16.500000 0.000000 0.000000 0.000000 0.000000 0.096043
  time 9
    0 13.000000 -1.071289 16.859375 1.570674 0.000061 -0.000061
    1 -4.139348 0.000000 0.000000 -1.570796 0.039542 -1.691888
    2 16.500000 0.000000 0.000000 0.000000 0.000000 0.096043
  time 10
    0 13.000000 -1.071289 16.859375 1.570674 0.000061 -0.000061
    1 -4.139348 0.000000 0.000000 -1.570796 0.039542 -1.691888
    2 16.500000 0.000000 0.000000 0.000000 0.000000 0.096043
  time 11
    0 13.000000 -1.071289 16.859375 1.570674 0.000061 -0.000061
    1 -4.139348 0.000000 0.000000 -1.570796 0.039542 -1.691888
    2 16.500000 0.000000 0.000000 0.000000 0.000000 0.096043
  time 12
    0 13.000000 -1.071289 16.859375 1.570674 0.000061 -0.000061
    1 -4.139348 0.000000 0.000000 -1.570796 0.039542 -1.691888
    2 16.500000 0.000000 0.000000 0.000000 0.000000 0.096043
  time 13
    0 13.000000 -1.071289 16.859375 1.570674 0.000061 -0.000061
    1 -4.139348 0.000000 0.000000 -1.570796 0.039542 -1.691888
    2 16.500000 0.000000 0.000000 0.000000 0.000000 0.096043
  time 14
    0 13.000000 -1.071289 16.859375 1.570674 0.000061 -0.000061
    1 -4.139348 0.000000 0.000000 -1.570796 0.039542 -1.691888
    2 16.500000 0.000000 0.000000 0.000000 0.000000 0.096043
  time 15
    0 13.000000 -1.071289 16.859375 1.570674 0.000061 -0.000061
    1 -4.139348 0.000000 0.000000 -1.570796 0.039542 -1.691888
    2 16.500000 0.000000 0.000000 0.000000 0.000000 0.096043
  time 16
    0 13.000000 -1.071289 16.859375 1.570674 0.000061 -0.000061
    1 -4.139348 0.000000 0.000000 -1.570796 0.039542 -1.691888
    2 16.500000 0.000000 0.000000 0.000000 0.000000 0.096043
  time 17
    0 13.000000 -1.071289 16.859375 1.570674 0.000061 -0.000061
    1 -4.139348 0.000000 0.000000 -1.570796 0.039542 -1.691888
    2 16.500000 0.000000 0.000000 0.000000 0.000000 0.096043
  time 18
    0 13.000000 -1.071289 16.859375 1.570674 0.000061 -0.000061
    1 -4.139348 0.000000 0.000000 -1.570796 0.039542 -1.691888
    2 16.500000 0.000000 0.000000 0.000000 0.000000 0.096043
  time 19
    0 13.000000 -1.071289 16.859375 1.570674 0.000061 -0.000061
    1 -4.139348 0.000000 0.000000 -1.570796 0.039542 -1.691888
    2 16.500000 0.000000 0.000000 0.000000 0.000000 0.096043
  time 20
    0 13.000000 -1.071289 16.859375 1.570674 0.000061 -0.000061
    1 -4.139348 0.000000 0.000000 -1.570796 0.039542 -1.691888
    2 16.500000 0.000000 0.000000 0.000000 0.000000 0.096043
  time 21
    0 13.000000 -1.071289 16.859375 1.570674 0.000061 -0.000061
    1 -4.139348 0.000000 0.000000 -1.570796 0.039542 -1.691888
    2 16.500000 0.000000 0.000000 0.000000 0.000000 0.096043
  time 22
    0 13.000000 -1.071289 16.859375 1.570674 0.000061 -0.000061
    1 -4.139348 0.000000 0.000000 -1.570796 0.039542 -1.691888
    2 16.500000 0.000000 0.000000 0.000000 0.000000 0.096043
  time 23
    0 13.000000 -1.071289 16.859375 1.570674 0.000061 -0.000061
    1 -4.139348 0.000000 0.000000 -1.570796 0.039542 -1.691888
    2 16.500000 0.000000 0.000000 0.000000 0.000000 0.096043
  time 24
    0 13.000000 -1.071289 16.859375 1.570674 0.000061 -0.000061
    1 -4.139348 0.000000 0.000000 -1.570796 0.039542 -1.691888
    2 16.500000 0.000000 0.000000 0.000000 0.000000 0.096043
  time 25
    0 13.000000 -1.071289 16.859375 1.570674 0.000061 -0.000061
    1 -4.139348 0.000000 0.000000 -1.570796 0.039542 -1.691888
    2 16.500000 0.000000 0.000000 0.000000 0.000000 0.096043
  time 26
    0 13.000000 -1.071289 16.859375 1.570674 0.000061 -0.000061
    1 -4.139348 0.000000 0.000000 -1.570796 0.039542 -1.691888
    2 16.500000 0.000000 0.000000 0.000000 0.000000 0.096043
  time 27
    0 13.000000 -1.071289 16.859375 1.570674 0.000061 -0.000061
    1 -4.139348 0.000000 0.000000 -1.570796 0.039542 -1.691888
    2 16.500000 0.000000 0.000000 0.000000 0.000000 0.096043
  time 28
    0 13.000000 -1.071289 16.859375 1.570674 0.000061 -0.000061
    1 -4.139348 0.000000 0.000000 -1.570796 0.039542 -1.691888
    2 16.500000 0.000000 0.000000 0.000000 0.000000 0.096043
  time 29
    0 13.000000 -1.071289 16.859375 1.570674 0.000061 -0.000061
    1 -4.139348 0.000000 0.000000 -1.570796 0.039542 -1.691888
    2 16.500000 0.000000 0.000000 0.000000 0.000000 0.096043
  time 30
    0 13.000000 -1.071289 16.859375 1.570674 0.000061 -0.000061
    1 -4.139348 0.000000 0.000000 -1.570796 0.039542 -1.691888
    2 16.500000 0.000000 0.000000 0.000000 0.000000 0.096043
  time 31
    0 13.000000 -1.071289 16.859375 1.570674 0.000061 -0.000061
    1 -4.139348 0.000000 0.000000 -1.570796 0.039542 -1.691888
    2 16.500000 0.000000 0.000000 0.000000 0.000000 0.096043
  time 32
    0 13.000000 -1.071289 16.859375 1.570674 0.000061 -0.000061
    1 -4.139348 0.000000 0.000000 -1.570796 0.039542 -1.691888
    2 16.500000 0.000000 0.000000 0.000000 0.000000 0.096043
  time 33
    0 13.000000 -1.071289 16.859375 1.570674 0.000061 -0.000061
    1 -4.139348 0.000000 0.000000 -1.570796 0.039542 -1.691888
    2 16.500000 0.000000 0.000000 0.000000 0.000000 0.096043
  time 34
    0 13.000000 -1.071289 16.859375 1.570674 0.000061 -0.000061
    1 -4.139348 0.000000 0.000000 -1.570796 0.039542 -1.691888
    2 16.500000 0.000000 0.000000 0.000000 0.000000 0.096043
  time 35
    0 13.000000 -1.071289 16.859375 1.570674 0.000061 -0.000061
    1 -4.139348 0.000000 0.000000 -1.570796 0.039542 -1.691888
    2 16.500000 0.000000 0.000000 0.000000 0.000000 0.096043
  time 36
    0 13.000000 -1.071289 16.859375 1.570674 0.000061 -0.000061
    1 -4.139348 0.000000 0.000000 -1.570796 0.039542 -1.691888
    2 16.500000 0.000000 0.000000 0.000000 0.000000 0.096043
  time 37
    0 13.000000 -1.071289 16.859375 1.570674 0.000061 -0.000061
    1 -4.139348 0.000000 0.000000 -1.570796 0.039542 -1.691888
    2 16.500000 0.000000 0.000000 0.000000 0.000000 0.096043
  time 38
    0 13.000000 -1.071289 16.859375 1.570674 0.000061 -0.000061
    1 -4.139348 0.000000 0.000000 -1.570796 0.039542 -1.691888
    2 16.500000 0.000000 0.000000 0.000000 0.000000 0.096043
  time 39
    0 13.000000 -1.071289 16.859375 1.570674 0.000061 -0.000061
    1 -4.139348 0.000000 0.000000 -1.570796 0.039542 -1.691888
    2 16.500000 0.000000 0.000000 0.000000 0.000000 0.096043
  time 40
    0 13.000000 -1.071289 16.859375 1.570674 0.000061 -0.000061
    1 -4.139348 0.000000 0.000000 -1.570796 0.039542 -1.691888
    2 16.500000 0.000000 0.000000 0.000000 0.000000 0.096043
  time 41
    0 13.000000 -1.071289 16.859375 1.570674 0.000061 -0.000061
    1 -4.139348 0.000000 0.000000 -1.570796 0.039542 -1.691888
    2 16.500000 0.000000 0.000000 0.000000 0.000000 0.096043
  time 42
    0 13.000000 -1.071289 16.859375 1.570674 0.000061 -0.000061
    1 -4.139348 0.000000 0.000000 -1.570796 0.039542 -1.691888
    2 16.500000 0.000000 0.000000 0.000000 0.000000 0.096043
  time 43
    0 13.000000 -1.071289 16.859375 1.570674 0.000061 -0.000061
    1 -4.139348 0.000000 0.000000 -1.570796 0.039542 -1.691888
    2 16.500000 0.000000 0.000000 0.000000 0.000000 0.096043
  time 44
    0 13.000000 -1.071289 16.859375 1.570674 0.000061 -0.000061
    1 -4.139348 0.000000 0.000000 -1.570796 0.039542 -1.691888
    2 16.500000 0.000000 0.000000 0.000000 0.000000 0.096043
  time 45
    0 13.000000 -1.071289 16.859375 1.570674 0.000061 -0.000061
    1 -4.139348 0.000000 0.000000 -1.570796 0.039542 -1.691888
    2 16.500000 0.000000 0.000000 0.000000 0.000000 0.096043
  time 46
    0 13.000000 -1.071289 16.859375 1.570674 0.000061 -0.000061
    1 -4.139348 0.000000 0.000000 -1.570796 0.039542 -1.691888
    2 16.500000 0.000000 0.000000 0.000000 0.000000 0.096043
  time 47
    0 13.000000 -1.071289 16.859375 1.570674 0.000061 -0.000061
    1 -4.139348 0.000000 0.000000 -1.570796 0.039542 -1.691888
    2 16.500000 0.000000 0.000000 0.000000 0.000000 0.096043
  time 48
    0 13.000000 -1.071289 16.859375 1.570674 0.000061 -0.000061
    1 -4.139348 0.000000 0.000000 -1.570796 0.039542 -1.691888
    2 16.500000 0.000000 0.000000 0.000000 0.000000 0.096043
  time 49
    0 13.000000 -1.071289 16.859375 1.570674 0.000061 -0.000061
    1 -4.139348 0.000000 0.000000 -1.570796 0.039542 -1.691888
    2 16.500000 0.000000 0.000000 0.000000 0.000000 0.096043
  time 50
    0 13.000000 -1.071289 16.859375 1.570674 0.000061 -0.000061
    1 -4.139348 0.000000 0.000000 -1.570796 0.039542 -1.691888
    2 16.500000 0.000000 0.000000 0.000000 0.000000 0.096043
  time 51
    0 13.000000 -1.071289 16.859375 1.570674 0.000061 -0.000061
    1 -4.139348 0.000000 0.000000 -1.570796 0.039542 -1.691888
    2 16.500000 0.000000 0.000000 0.000000 0.000000 0.096043
  time 52
    0 13.000000 -1.071289 16.859375 1.570674 0.000061 -0.000061
    1 -4.139348 0.000000 0.000000 -1.570796 0.039542 -1.691888
    2 16.500000 0.000000 0.000000 0.000000 0.000000 0.096043
  time 53
    0 13.000000 -1.071289 16.859375 1.570674 0.000061 -0.000061
    1 -4.139348 0.000000 0.000000 -1.570796 0.039542 -1.691888
    2 16.500000 0.000000 0.000000 0.000000 0.000000 0.096043
  time 54
    0 13.000000 -1.071289 16.859375 1.570674 0.000061 -0.000061
    1 -4.139348 0.000000 0.000000 -1.570796 0.039542 -1.691888
    2 16.500000 0.000000 0.000000 0.000000 0.000000 0.096043
  time 55
    0 13.000000 -1.071289 16.859375 1.570674 0.000061 -0.000061
    1 -4.139348 0.000000 0.000000 -1.570796 0.039542 -1.691888
    2 16.500000 0.000000 0.000000 0.000000 0.000000 0.096043
  time 56
    0 13.000000 -1.071289 16.859375 1.570674 0.000061 -0.000061
    1 -4.139348 0.000000 0.000000 -1.570796 0.039542 -1.691888
    2 16.500000 0.000000 0.000000 0.000000 0.000000 0.096043
  time 57
    0 13.000000 -1.071289 16.859375 1.570674 0.000061 -0.000061
    1 -4.139348 0.000000 0.000000 -1.570796 0.039542 -1.691888
    2 16.500000 0.000000 0.000000 0.000000 0.000000 0.096043
  time 58
    0 13.000000 -1.071289 16.859375 1.570674 0.000061 -0.000061
    1 -4.139348 0.000000 0.000000 -1.570796 0.039542 -1.691888
    2 16.500000 0.000000 0.000000 0.000000 0.000000 0.096043
  time 59
    0 13.000000 -1.071289 16.859375 1.570674 0.000061 -0.000061
    1 -4.139348 0.000000 0.000000 -1.570796 0.039542 -1.691888
    2 16.500000 0.000000 0.000000 0.000000 0.000000 0.096043
  time 60
    0 13.000000 -1.071289 16.859375 1.570674 0.000061 -0.000061
    1 -4.139348 0.000000 0.000000 -1.570796 0.039542 -1.691888
    2 16.500000 0.000000 0.000000 0.000000 0.000000 0.096043
  time 61
    0 13.000000 -1.071289 16.859375 1.570674 0.000061 -0.000061
    1 -4.139348 0.000000 0.000000 -1.570796 0.039542 -1.691888
    2 16.500000 0.000000 0.000000 0.000000 0.000000 0.096043
  time 62
    0 13.000000 -1.071289 16.859375 1.570674 0.000061 -0.000061
    1 -4.139348 0.000000 0.000000 -1.570796 0.039542 -1.691888
    2 16.500000 0.000000 0.000000 0.000000 0.000000 0.096043
  time 63
    0 13.000000 -1.071289 16.859375 1.570674 0.000061 -0.000061
    1 -4.139348 0.000000 0.000000 -1.570796 0.039542 -1.691888
    2 16.500000 0.000000 0.000000 0.000000 0.000000 0.096043
  time 64
    0 13.000000 -1.071289 16.859375 1.570674 0.000061 -0.000061
    1 -4.139348 0.000000 0.000000 -1.570796 0.039542 -1.691888
    2 16.500000 0.000000 0.000000 0.000000 0.000000 0.096043
  time 65
    0 13.000000 -1.071289 16.859375 1.570674 0.000061 -0.000061
    1 -4.139348 0.000000 0.000000 -1.570796 0.039542 -1.691888
    2 16.500000 0.000000 0.000000 0.000000 0.000000 0.096043
  time 66
    0 13.000000 -1.071289 16.859375 1.570674 0.000061 -0.000061
    1 -4.139348 0.000000 0.000000 -1.570796 0.039542 -1.691888
    2 16.500000 0.000000 0.000000 0.000000 0.000000 0.096043
  time 67
    0 13.000000 -1.071289 16.859375 1.570674 0.000061 -0.000061
    1 -4.139348 0.000000 0.000000 -1.570796 0.039542 -1.691888
    2 16.500000 0.000000 0.000000 0.000000 0.000000 0.096043
  time 68
    0 13.000000 -1.071289 16.859375 1.570674 0.000061 -0.000061
    1 -4.139348 0.000000 0.000000 -1.570796 0.039542 -1.691888
    2 16.500000 0.000000 0.000000 0.000000 0.000000 0.096043
  time 69
    0 13.000000 -1.071289 16.859375 1.570674 0.000061 -0.000061
    1 -4.139348 0.000000 0.000000 -1.570796 0.039542 -1.691888
    2 16.500000 0.000000 0.000000 0.000000 0.000000 0.096043
  time 70
    0 13.000000 -1.071289 16.859375 1.570674 0.000061 -0.000061
    1 -4.139348 0.000000 0.000000 -1.570796 0.039542 -1.691888
    2 16.500000 0.000000 0.000000 0.000000 0.000000 0.096043
  time 71
    0 13.000000 -1.071289 16.859375 1.570674 0.000061 -0.000061
    1 -4.139348 0.000000 0.000000 -1.570796 0.039542 -1.691888
    2 16.500000 0.000000 0.000000 0.000000 0.000000 0.096043
  time 72
    0 13.000000 -1.071289 16.859375 1.570674 0.000061 -0.000061
    1 -4.139348 0.000000 0.000000 -1.570796 0.039542 -1.691888
    2 16.500000 0.000000 0.000000 0.000000 0.000000 0.096043
  time 73
    0 13.000000 -1.071289 16.859375 1.570674 0.000061 -0.000061
    1 -4.139348 0.000000 0.000000 -1.570796 0.039542 -1.691888
    2 16.500000 0.000000 0.000000 0.000000 0.000000 0.096043
  time 74
    0 13.000000 -1.071289 16.859375 1.570674 0.000061 -0.000061
    1 -4.139348 0.000000 0.000000 -1.570796 0.039542 -1.691888
    2 16.500000 0.000000 0.000000 0.000000 0.000000 0.096043
  time 75
    0 13.000000 -1.071289 16.859375 1.570674 0.000061 -0.000061
    1 -4.139348 0.000000 0.000000 -1.570796 0.039542 -1.691888
    2 16.500000 0.000000 0.000000 0.000000 0.000000 0.096043
  time 76
    0 13.000000 -1.071289 16.859375 1.570674 0.000061 -0.000061
    1 -4.139348 0.000000 0.000000 -1.570796 0.039542 -1.691888
    2 16.500000 0.000000 0.000000 0.000000 0.000000 0.096043
  time 77
    0 13.000000 -1.071289 16.859375 1.570674 0.000061 -0.000061
    1 -4.139348 0.000000 0.000000 -1.570796 0.039542 -1.691888
    2 16.500000 0.000000 0.000000 0.000000 0.000000 0.096043
  time 78
    0 13.000000 -1.071289 16.859375 1.570674 0.000061 -0.000061
    1 -4.139348 0.000000 0.000000 -1.570796 0.039542 -1.691888
    2 16.500000 0.000000 0.000000 0.000000 0.000000 0.096043
  time 79
    0 13.000000 -1.071289 16.859375 1.570674 0.000061 -0.000061
    1 -4.139348 0.000000 0.000000 -1.570796 0.039542 -1.691888
    2 16.500000 0.000000 0.000000 0.000000 0.000000 0.096043
  time 80
    0 13.000000 -1.071289 16.859375 1.570674 0.000061 -0.000061
    1 -4.139348 0.000000 0.000000 -1.570796 0.039542 -1.691888
    2 16.500000 0.000000 0.000000 0.000000 0.000000 0.096043
  time 81
    0 13.000000 -1.071289 16.859375 1.570674 0.000061 -0.000061
    1 -4.139348 0.000000 0.000000 -1.570796 0.039542 -1.691888
    2 16.500000 0.000000 0.000000 0.000000 0.000000 0.096043
  time 82
    0 13.000000 -1.071289 16.859375 1.570674 0.000061 -0.000061
    1 -4.139348 0.000000 0.000000 -1.570796 0.039542 -1.691888
    2 16.500000 0.000000 0.000000 0.000000 0.000000 0.096043
  time 83
    0 13.000000 -1.071289 16.859375 1.570674 0.000061 -0.000061
    1 -4.139348 0.000000 0.000000 -1.570796 0.039542 -1.691888
    2 16.500000 0.000000 0.000000 0.000000 0.000000 0.096043
  time 84
    0 13.000000 -1.071289 16.859375 1.570674 0.000061 -0.000061
    1 -4.139348 0.000000 0.000000 -1.570796 0.039542 -1.691888
    2 16.500000 0.000000 0.000000 0.000000 0.000000 0.096043
  time 85
    0 13.000000 -1.071289 16.859375 1.570674 0.000061 -0.000061
    1 -4.139348 0.000000 0.000000 -1.570796 0.039542 -1.691888
    2 16.500000 0.000000 0.000000 0.000000 0.000000 0.096043
  time 86
    0 13.000000 -1.071289 16.859375 1.570674 0.000061 -0.000061
    1 -4.139348 0.000000 0.000000 -1.570796 0.039542 -1.691888
    2 16.500000 0.000000 0.000000 0.000000 0.000000 0.096043
  time 87
    0 13.000000 -1.071289 16.859375 1.570674 0.000061 -0.000061
    1 -4.139348 0.000000 0.000000 -1.570796 0.039542 -1.691888
    2 16.500000 0.000000 0.000000 0.000000 0.000000 0.096043
  time 88
    0 13.000000 -1.071289 16.859375 1.570674 0.000061 -0.000061
    1 -4.139348 0.000000 0.000000 -1.570796 0.039542 -1.691888
    2 16.500000 0.000000 0.000000 0.000000 0.000000 0.096043
  time 89
    0 13.000000 -1.071289 16.859375 1.570674 0.000061 -0.000061
    1 -4.139348 0.000000 0.000000 -1.570796 0.039542 -1.691888
    2 16.500000 0.000000 0.000000 0.000000 0.000000 0.096043
  time 90
    0 13.000000 -1.071289 16.859375 1.570674 0.000061 -0.000061
    1 -4.139348 0.000000 0.000000 -1.570796 0.039542 -1.691888
    2 16.500000 0.000000 0.000000 0.000000 0.000000 0.096043
  time 91
    0 13.000000 -1.071289 16.859375 1.570674 0.000061 -0.000061
    1 -4.139348 0.000000 0.000000 -1.570796 0.039542 -1.691888
    2 16.500000 0.000000 0.000000 0.000000 0.000000 0.096043
  time 92
    0 13.000000 -1.071289 16.859375 1.570674 0.000061 -0.000061
    1 -4.139348 0.000000 0.000000 -1.570796 0.039542 -1.691888
    2 16.500000 0.000000 0.000000 0.000000 0.000000 0.096043
  time 93
    0 13.000000 -1.071289 16.859375 1.570674 0.000061 -0.000061
    1 -4.139348 0.000000 0.000000 -1.570796 0.039542 -1.691888
    2 16.500000 0.000000 0.000000 0.000000 0.000000 0.096043
  time 94
    0 13.000000 -1.071289 16.859375 1.570674 0.000061 -0.000061
    1 -4.139348 0.000000 0.000000 -1.570796 0.039542 -1.691888
    2 16.500000 0.000000 0.000000 0.000000 0.000000 0.096043
  time 95
    0 13.000000 -1.071289 16.859375 1.570674 0.000061 -0.000061
    1 -4.139348 0.000000 0.000000 -1.570796 0.039542 -1.691888
    2 16.500000 0.000000 0.000000 0.000000 0.000000 0.096043
  time 96
    0 13.000000 -1.071289 16.859375 1.570674 0.000061 -0.000061
    1 -4.139348 0.000000 0.000000 -1.570796 0.039542 -1.691888
    2 16.500000 0.000000 0.000000 0.000000 0.000000 0.096043
  time 97
    0 13.000000 -1.071289 16.859375 1.570674 0.000061 -0.000061
    1 -4.139348 0.000000 0.000000 -1.570796 0.039542 -1.691888
    2 16.500000 0.000000 0.000000 0.000000 0.000000 0.096043
  time 98
    0 13.000000 -1.071289 16.859375 1.570674 0.000061 -0.000061
    1 -4.139348 0.000000 0.000000 -1.570796 0.039542 -1.691888
    2 16.500000 0.000000 0.000000 0.000000 0.000000 0.096043
  time 99
    0 13.000000 -1.071289 16.859375 1.570674 0.000061 -0.000061
    1 -4.139348 0.000000 0.000000 -1.570796 0.039542 -1.691888
    2 16.500000 0.000000 0.000000 0.000000 0.000000 0.096043
end
