// Created by Crowbar 0.74
version 1
nodes
  0 "ValveBiped.Bip01" -1
  1 "ValveBiped.Bip01_Pelvis" 0
  2 "ValveBiped.Bip01_L_Thigh" 1
  3 "ValveBiped.Bip01_L_Calf" 2
  4 "ValveBiped.Bip01_L_Foot" 3
  5 "ValveBiped.Bip01_L_Toe0" 4
  6 "ValveBiped.Bip01_R_Thigh" 1
  7 "ValveBiped.Bip01_R_Calf" 6
  8 "ValveBiped.Bip01_R_Foot" 7
  9 "ValveBiped.Bip01_R_Toe0" 8
  10 "ValveBiped.Cod_Bone" 1
  11 "ValveBiped.Bip01_Spine" 0
end
skeleton
  time 0
    0 0.000318 1.515676 38.353996 1.570797 0.000000 0.000000
    1 0.000000 -0.000001 0.000000 0.000000 -0.000001 0.000000
    2 3.890453 -0.000001 -0.000004 -1.570796 -0.109921 -1.580062
    3 17.593168 0.000000 0.000000 0.000000 0.000000 0.279395
    4 17.699579 0.000000 0.000000 -0.015823 -0.048781 -1.155617
    5 6.879456 0.000000 0.000000 -0.063774 0.049411 -0.584607
    6 -3.890452 -0.000001 0.000007 -1.570796 -0.109186 -1.576205
    7 17.593164 0.000000 0.000000 0.000000 0.000000 0.279462
    8 17.699577 0.000000 0.000000 0.038763 0.040677 -1.155872
    9 6.879456 0.000000 0.000000 -0.025721 -0.055308 -0.584140
    10 0.003197 1.916844 7.635197 0.000000 0.000000 0.000000
    11 0.000005 3.345117 -2.981992 1.570795 0.086295 1.570796
  time 1
    0 0.000318 1.515676 38.353996 1.570797 0.000000 0.000000
    1 0.000000 -0.000001 0.000000 0.000000 -0.000001 0.000000
    2 3.890453 -0.000001 -0.000004 -1.570796 -0.109921 -1.580062
    3 17.593168 0.000000 0.000000 0.000000 0.000000 0.279395
    4 17.699579 0.000000 0.000000 -0.015823 -0.048781 -1.155617
    5 6.879456 0.000000 0.000000 -0.063774 0.049411 -0.584607
    6 -3.890452 -0.000001 0.000007 -1.570796 -0.109186 -1.576205
    7 17.593164 0.000000 0.000000 0.000000 0.000000 0.279462
    8 17.699577 0.000000 0.000000 0.038763 0.040677 -1.155872
    9 6.879456 0.000000 0.000000 -0.025721 -0.055308 -0.584140
    10 0.003197 1.916844 7.635197 0.000000 0.000000 0.000000
    11 0.000005 3.345117 -2.981992 1.570795 0.086295 1.570796
end
