// Created by Crowbar 0.74
version 1
nodes
  0 "ValveBiped.Bip01" -1
  1 "ValveBiped.Bip01_Spine" 0
  2 "ValveBiped.Bip01_Spine2" 1
  3 "ValveBiped.Bip01_R_Clavicle" 2
  4 "ValveBiped.Bip01_R_UpperArm" 3
  5 "ValveBiped.Bip01_R_Forearm" 4
  6 "ValveBiped.Bip01_L_Clavicle" 2
  7 "ValveBiped.Bip01_L_UpperArm" 6
  8 "ValveBiped.Bip01_L_Forearm" 7
  9 "ValveBiped.Bip01_Head1" 2
  10 "ValveBiped.Bip01_L_Thigh" 0
  11 "ValveBiped.Bip01_L_Calf" 10
  12 "ValveBiped.Bip01_L_Foot" 11
  13 "ValveBiped.Bip01_R_Thigh" 0
  14 "ValveBiped.Bip01_R_Calf" 13
  15 "ValveBiped.Bip01_R_Foot" 14
  16 "ValveBiped.Bip01_R_Hand" 5
end
skeleton
  time 0
    0 1.610982 -0.335943 35.625421 1.653622 0.003296 0.092362
    1 0.000005 3.345128 -2.981901 1.573696 0.102077 1.574559
    2 7.477502 0.613300 -0.214850 -0.035307 0.086900 0.431933
    3 10.865887 1.530427 -1.687602 -1.382652 1.388914 3.469945
    4 6.028143 0.000000 0.000000 1.748081 0.272880 -0.741824
    5 11.692554 0.000000 0.000008 0.000000 0.000000 -1.868429
    6 10.447898 1.393698 2.164229 1.770923 -1.400248 3.004269
    7 6.028142 0.000000 0.000000 -1.279139 0.212717 -0.836501
    8 11.692558 0.000000 0.000001 0.000000 0.000000 -1.934705
    9 14.551499 3.428311 0.734397 3.140211 -0.028583 -0.257657
    10 3.890452 -0.148446 -0.000003 -1.120841 -0.954600 -1.879412
    11 17.848175 0.000000 0.000000 0.000000 0.000000 1.708388
    12 16.525248 0.000000 0.000000 -0.193441 -0.079780 -0.973753
    13 -3.890452 0.148446 0.000007 -1.073181 -0.172882 -1.498460
    14 17.848171 0.000000 0.000000 0.000000 0.000000 0.712368
    15 16.525253 0.000000 0.000000 -0.149624 0.026784 -1.533653
    16 11.479830 -0.000111 0.000311 -0.857990 0.279306 -0.015115
  time 1
    0 -3.397279 -0.335943 36.367632 1.661555 0.007898 0.030985
    1 0.000005 3.345128 -2.981901 1.575146 0.102077 1.577807
    2 7.477502 0.613300 -0.214850 -0.025240 0.088207 0.429683
    3 10.854167 1.561678 -1.668071 -1.474104 1.390508 3.383486
    4 6.028143 0.000000 0.000000 1.728504 0.411515 -0.745224
    5 11.692554 0.000000 0.000008 0.000000 0.000000 -1.794654
    6 10.447898 1.370260 2.179855 1.681670 -1.404587 3.095925
    7 6.028142 0.000000 0.000000 -1.297784 0.342525 -0.837579
    8 11.692558 0.000000 0.000001 0.000000 0.000000 -1.834634
    9 14.543686 3.440031 0.773461 3.206093 -0.035414 -0.254864
    10 3.890452 -0.148446 -0.000003 -1.059472 -0.846930 -2.067259
    11 17.848175 0.000000 0.000000 0.000000 0.000000 1.480957
    12 16.525248 0.000000 0.000000 -0.248194 -0.222647 -0.988597
    13 -3.890452 0.148446 0.000007 -1.194542 -0.209300 -1.332179
    14 17.848171 0.000000 0.000000 0.000000 0.000000 0.686726
    15 16.525253 0.000000 0.000000 -0.162307 -0.032983 -1.037865
    16 11.479830 -0.000111 0.000311 -0.856739 0.258929 -0.014900
  time 2
    0 -8.405539 -0.335943 37.234846 1.671467 0.010990 -0.037553
    1 0.000005 3.345128 -2.981901 1.576285 0.102077 1.580492
    2 7.481408 0.605487 -0.195318 -0.025443 0.083317 0.418003
    3 10.842448 1.585116 -1.660258 -1.540191 1.388291 3.321402
    4 6.028143 0.000000 0.000000 1.681448 0.525581 -0.769493
    5 11.692554 0.000000 0.000008 0.000000 0.000000 -1.729276
    6 10.455711 1.350728 2.187668 1.616919 -1.409285 3.162853
    7 6.028142 0.000000 0.000000 -1.332457 0.439781 -0.866545
    8 11.692558 0.000000 0.000001 0.000000 0.000000 -1.717745
    9 14.535873 3.447843 0.781274 3.277145 -0.044427 -0.253792
    10 3.890452 -0.148446 -0.000003 -1.068497 -0.796553 -2.143385
    11 17.848175 0.000000 0.000000 0.000000 0.000000 1.250022
    12 16.525248 0.000000 0.000000 -0.304916 -0.203131 -0.958425
    13 -3.890452 0.148446 0.000007 -1.309998 -0.154069 -1.202469
    14 17.848171 0.000000 0.000000 0.000000 0.000000 0.603859
    15 16.525253 0.000000 0.000000 -0.234762 -0.163802 -0.687659
    16 11.479830 -0.000111 0.000311 -0.855528 0.238685 -0.014720
  time 3
    0 -13.413799 -0.335943 37.902835 1.681390 0.012284 -0.092308
    1 0.000005 3.345128 -2.981901 1.577052 0.102077 1.582433
    2 7.485314 0.582049 -0.167974 -0.033377 0.071991 0.397963
    3 10.830729 1.592929 -1.668071 -1.560551 1.383125 3.302794
    4 6.028143 0.000000 0.000000 1.619221 0.592626 -0.814823
    5 11.692554 0.000000 0.000008 0.000000 0.000000 -1.688034
    6 10.463524 1.346822 2.183761 1.599513 -1.414905 3.181474
    7 6.028142 0.000000 0.000000 -1.370668 0.508783 -0.901621
    8 11.692558 0.000000 0.000001 0.000000 0.000000 -1.619603
    9 14.535873 3.451750 0.761742 3.330128 -0.051654 -0.254604
    10 3.890452 -0.148446 -0.000003 -1.109402 -0.733674 -2.145708
    11 17.848175 0.000000 0.000000 0.000000 0.000000 1.013490
    12 16.525248 0.000000 0.000000 -0.342164 -0.190642 -0.877830
    13 -3.890452 0.148446 0.000007 -1.390602 -0.101686 -1.133809
    14 17.848171 0.000000 0.000000 0.000000 0.000000 0.634946
    15 16.525253 0.000000 0.000000 -0.301901 -0.211175 -0.595920
    16 11.479830 -0.000111 0.000311 -0.854317 0.218442 -0.014564
  time 4
    0 -18.422060 -0.335944 38.059089 1.689443 0.010966 -0.117612
    1 0.000005 3.345128 -2.981901 1.577483 0.102077 1.583524
    2 7.489221 0.562517 -0.128910 -0.047123 0.055333 0.377737
    3 10.822917 1.581210 -1.687602 -1.532274 1.375779 3.329558
    4 6.028143 0.000000 0.000000 1.567237 0.599974 -0.859927
    5 11.692554 0.000000 0.000008 0.000000 0.000000 -1.685608
    6 10.479149 1.358541 2.164229 1.641526 -1.421341 3.138951
    7 6.028142 0.000000 0.000000 -1.401837 0.551689 -0.922891
    8 11.692558 0.000000 0.000001 0.000000 0.000000 -1.579635
    9 14.543686 3.451750 0.703146 3.344014 -0.052768 -0.256293
    10 3.890452 -0.148446 -0.000003 -1.133820 -0.657128 -2.135885
    11 17.848175 0.000000 0.000000 0.000000 0.000000 0.804786
    12 16.525248 0.000000 0.000000 -0.349401 -0.210007 -0.774001
    13 -3.890452 0.148446 0.000007 -1.423495 -0.095900 -1.120084
    14 17.848171 0.000000 0.000000 0.000000 0.000000 0.784493
    15 16.525253 0.000000 0.000000 -0.283519 -0.123355 -0.680146
    16 11.479830 -0.000111 0.000311 -0.853065 0.197797 -0.014432
  time 5
    0 -23.430320 -0.335944 37.613763 1.693219 0.006747 -0.122081
    1 0.000005 3.345128 -2.981901 1.577591 0.102077 1.583751
    2 7.493127 0.546892 -0.085940 -0.064130 0.035546 0.362298
    3 10.819010 1.553865 -1.718853 -1.485410 1.367330 3.372002
    4 6.028143 0.000000 0.000000 1.538735 0.555531 -0.874921
    5 11.692554 0.000000 0.000008 0.000000 0.000000 -1.716462
    6 10.498681 1.374166 2.140791 1.715305 -1.427286 3.062410
    7 6.028142 0.000000 0.000000 -1.423919 0.574263 -0.931200
    8 11.692558 0.000000 0.000001 0.000000 0.000000 -1.620508
    9 14.559312 3.440031 0.628925 3.329164 -0.045661 -0.258875
    10 3.890452 -0.148446 -0.000003 -1.158730 -0.551320 -2.097966
    11 17.848175 0.000000 0.000000 0.000000 0.000000 0.569614
    12 16.525248 0.000000 0.000000 -0.426523 -0.393069 -0.564702
    13 -3.890452 0.148446 0.000007 -1.419779 -0.124892 -1.147704
    14 17.848171 0.000000 0.000000 0.000000 0.000000 0.970522
    15 16.525253 0.000000 0.000000 -0.224995 -0.008322 -0.798643
    16 11.479830 -0.000111 0.000311 -0.852137 0.181669 -0.014348
  time 6
    0 -28.438580 -0.335944 36.723111 1.688005 -0.000395 -0.115190
    1 0.000005 3.345128 -2.981901 1.577328 0.102077 1.582805
    2 7.493127 0.550798 -0.042970 -0.082310 0.016227 0.362625
    3 10.815104 1.522614 -1.750104 -1.428014 1.358150 3.422884
    4 6.028143 0.000000 0.000000 1.531468 0.482901 -0.858097
    5 11.692554 0.000000 0.000008 0.000000 0.000000 -1.764360
    6 10.518213 1.393698 2.113447 1.814237 -1.431468 2.959086
    7 6.028142 0.000000 0.000000 -1.445682 0.566089 -0.936169
    8 11.692558 0.000000 0.000001 0.000000 0.000000 -1.721543
    9 14.582750 3.416592 0.550798 3.306256 -0.033449 -0.262723
    10 3.890452 -0.148446 -0.000003 -1.168090 -0.536223 -2.082546
    11 17.848175 0.000000 0.000000 0.000000 0.000000 0.589281
    12 16.525248 0.000000 0.000000 -0.417316 -0.561334 -0.585301
    13 -3.890452 0.148446 0.000007 -1.386384 -0.172913 -1.217757
    14 17.848171 0.000000 0.000000 0.000000 0.000000 1.148978
    15 16.525253 0.000000 0.000000 -0.146631 0.099706 -0.882630
    16 11.479830 -0.000111 0.000311 -0.851773 0.175880 -0.014324
  time 7
    0 -33.446841 -0.335944 35.898867 1.675218 -0.010091 -0.095592
    1 0.000005 3.345128 -2.981901 1.576644 0.102077 1.580671
    2 7.493127 0.570330 -0.003906 -0.100347 0.000240 0.381412
    3 10.815104 1.483551 -1.781355 -1.365908 1.348682 3.477515
    4 6.028143 0.000000 0.000000 1.544140 0.388672 -0.824012
    5 11.692554 0.000000 0.000008 0.000000 0.000000 -1.821526
    6 10.537745 1.413230 2.082196 1.928223 -1.432786 2.840022
    7 6.028142 0.000000 0.000000 -1.467478 0.498072 -0.936951
    8 11.692558 0.000000 0.000001 0.000000 0.000000 -1.843496
    9 14.606188 3.389248 0.472671 3.277380 -0.017773 -0.267302
    10 3.890452 -0.148446 -0.000003 -1.201266 -0.585536 -2.022394
    11 17.848175 0.000000 0.000000 0.000000 0.000000 0.794377
    12 16.525248 0.000000 0.000000 -0.311974 -0.593036 -0.909858
    13 -3.890452 0.148446 0.000007 -1.320872 -0.211434 -1.339755
    14 17.848171 0.000000 0.000000 0.000000 0.000000 1.285307
    15 16.525253 0.000000 0.000000 -0.079799 0.154291 -0.935197
    16 11.479830 -0.000111 0.000311 -0.852096 0.181100 -0.014348
  time 8
    0 -38.455101 -0.335944 35.461354 1.660980 -0.020805 -0.062911
    1 0.000005 3.345128 -2.981901 1.575614 0.102077 1.577723
    2 7.485314 0.601581 0.031251 -0.117305 -0.011589 0.409941
    3 10.819010 1.444487 -1.812606 -1.303143 1.339549 3.532826
    4 6.028143 0.000000 0.000000 1.571257 0.275143 -0.788410
    5 11.692554 0.000000 0.000008 0.000000 0.000000 -1.877822
    6 10.553370 1.436668 2.054851 2.043175 -1.430629 2.720151
    7 6.028142 0.000000 0.000000 -1.483155 0.351559 -0.931222
    8 11.692558 0.000000 0.000001 0.000000 0.000000 -1.942481
    9 14.625720 3.361903 0.398450 3.244603 -0.000324 -0.271979
    10 3.890452 -0.148446 -0.000003 -1.284706 -0.590690 -1.862355
    11 17.848175 0.000000 0.000000 0.000000 0.000000 0.893917
    12 16.525248 0.000000 0.000000 -0.235360 -0.486353 -1.213923
    13 -3.890452 0.148446 0.000007 -1.232495 -0.232536 -1.505221
    14 17.848171 0.000000 0.000000 0.000000 0.000000 1.360055
    15 16.525253 0.000000 0.000000 -0.057214 0.136096 -0.965014
    16 11.479830 -0.000111 0.000311 -0.853065 0.197495 -0.014432
  time 9
    0 -43.463361 -0.335945 35.340256 1.651584 -0.030728 -0.018494
    1 0.000005 3.345128 -2.981901 1.574296 0.102077 1.574248
    2 7.481408 0.625019 0.058596 -0.132226 -0.019787 0.434397
    3 10.822917 1.405423 -1.836044 -1.242516 1.331556 3.587082
    4 6.028143 0.000000 0.000000 1.604732 0.145248 -0.763565
    5 11.692554 0.000000 0.000008 0.000000 0.000000 -1.923294
    6 10.565089 1.460106 2.031413 2.144354 -1.425104 2.615114
    7 6.028142 0.000000 0.000000 -1.484228 0.137679 -0.921876
    8 11.692558 0.000000 0.000001 0.000000 0.000000 -1.985644
    9 14.645252 3.342371 0.335948 3.209923 0.017198 -0.276038
    10 3.890452 -0.148446 -0.000003 -1.373844 -0.569110 -1.677716
    11 17.848175 0.000000 0.000000 0.000000 0.000000 0.888320
    12 16.525248 0.000000 0.000000 -0.240881 -0.342087 -1.352255
    13 -3.890452 0.148446 0.000007 -1.137417 -0.234176 -1.686875
    14 17.848171 0.000000 0.000000 0.000000 0.000000 1.377183
    15 16.525253 0.000000 0.000000 -0.092731 0.040399 -0.986486
    16 11.479830 -0.000111 0.000311 -0.854680 0.224464 -0.014612
  time 10
    0 -48.471622 -0.335945 35.672298 1.650302 -0.038123 0.033354
    1 0.000005 3.345128 -2.981901 1.572738 0.102077 1.570472
    2 7.481408 0.628926 0.082034 -0.144007 -0.025287 0.439881
    3 10.826823 1.378079 -1.855576 -1.186235 1.325575 3.639065
    4 6.028143 0.000000 0.000000 1.634574 0.004553 -0.752895
    5 11.692554 0.000000 0.000008 0.000000 0.000000 -1.951349
    6 10.568996 1.483545 2.011881 2.220632 -1.417051 2.536840
    7 6.028142 0.000000 0.000000 -1.462247 -0.097413 -0.923335
    8 11.692558 0.000000 0.000001 0.000000 0.000000 -1.964907
    9 14.653064 3.330652 0.296884 3.175408 0.033305 -0.278539
    10 3.890452 -0.148446 -0.000003 -1.463116 -0.528775 -1.486374
    11 17.848175 0.000000 0.000000 0.000000 0.000000 0.772408
    12 16.525248 0.000000 0.000000 -0.303826 -0.159531 -1.276500
    13 -3.890452 0.148446 0.000007 -1.049588 -0.218706 -1.854006
    14 17.848171 0.000000 0.000000 0.000000 0.000000 1.320800
    15 16.525253 0.000000 0.000000 -0.135885 -0.102307 -1.006206
    16 11.479830 -0.000111 0.000311 -0.856779 0.259932 -0.014912
  time 11
    0 -53.479882 -0.335945 36.457478 1.654784 -0.041539 0.085578
    1 0.000005 3.345128 -2.981901 1.571060 0.102077 1.566577
    2 7.481408 0.617206 0.085940 -0.151461 -0.027325 0.430851
    3 10.830729 1.358547 -1.863389 -1.137779 1.322124 3.686430
    4 6.028143 0.000000 0.000000 1.659714 -0.126938 -0.752320
    5 11.692554 0.000000 0.000008 0.000000 0.000000 -1.961053
    6 10.561183 1.506983 1.996256 2.267809 -1.408182 2.490447
    7 6.028142 0.000000 0.000000 -1.416357 -0.310831 -0.954077
    8 11.692558 0.000000 0.000001 0.000000 0.000000 -1.898233
    9 14.653064 3.334559 0.273446 3.143125 0.047147 -0.278409
    10 3.890452 -0.148446 -0.000003 -1.527344 -0.500178 -1.338060
    11 17.848175 0.000000 0.000000 0.000000 0.000000 0.644151
    12 16.525248 0.000000 0.000000 -0.341552 0.018577 -1.123002
    13 -3.890452 0.148446 0.000007 -0.979927 -0.177244 -1.972777
    14 17.848171 0.000000 0.000000 0.000000 0.000000 1.167739
    15 16.525253 0.000000 0.000000 -0.123624 -0.234219 -1.016898
    16 11.479830 -0.000111 0.000311 -0.859242 0.300018 -0.015355
  time 12
    0 -58.488142 -0.335945 37.336411 1.663377 -0.040652 0.130642
    1 0.000005 3.345128 -2.981901 1.569394 0.102077 1.562826
    2 7.485314 0.597675 0.078127 -0.153702 -0.024976 0.413217
    3 10.838542 1.350734 -1.867295 -1.101721 1.321920 3.724328
    4 6.028143 0.000000 0.000000 1.680335 -0.231596 -0.755196
    5 11.692554 0.000000 0.000008 0.000000 0.000000 -1.958005
    6 10.549464 1.526515 1.996256 2.284375 -1.400368 2.476905
    7 6.028142 0.000000 0.000000 -1.349240 -0.474385 -1.021206
    8 11.692558 0.000000 0.000001 0.000000 0.000000 -1.815042
    9 14.641345 3.350184 0.277352 3.115352 0.058125 -0.275811
    10 3.890452 -0.148446 -0.000003 -1.557973 -0.474840 -1.249524
    11 17.848175 0.000000 0.000000 0.000000 0.000000 0.543774
    12 16.525248 0.000000 0.000000 -0.347193 0.117776 -1.074194
    13 -3.890452 0.148446 0.000007 -0.930051 -0.110628 -2.032365
    14 17.848171 0.000000 0.000000 0.000000 0.000000 0.939435
    15 16.525253 0.000000 0.000000 -0.058615 -0.335495 -1.028747
    16 11.479830 -0.000111 0.000311 -0.861664 0.338899 -0.015894
  time 13
    0 -63.496403 -0.335946 37.953617 1.673887 -0.037248 0.163269
    1 0.000005 3.345128 -2.981901 1.567956 0.102077 1.559602
    2 7.489221 0.578143 0.054689 -0.150514 -0.018001 0.393491
    3 10.842448 1.358547 -1.855576 -1.082475 1.325683 3.747460
    4 6.028143 0.000000 0.000000 1.697732 -0.298585 -0.755441
    5 11.692554 0.000000 0.000008 0.000000 0.000000 -1.951535
    6 10.529932 1.534328 2.000162 2.270119 -1.395083 2.495304
    7 6.028142 0.000000 0.000000 -1.273875 -0.577280 -1.107576
    8 11.692558 0.000000 0.000001 0.000000 0.000000 -1.745174
    9 14.625720 3.377529 0.304697 3.094159 0.065640 -0.271557
    10 3.890452 -0.148446 -0.000003 -1.574035 -0.483752 -1.196052
    11 17.848175 0.000000 0.000000 0.000000 0.000000 0.522276
    12 16.525248 0.000000 0.000000 -0.332702 0.191308 -1.042730
    13 -3.890452 0.148446 0.000007 -0.896110 -0.022259 -2.036680
    14 17.848171 0.000000 0.000000 0.000000 0.000000 0.654104
    15 16.525253 0.000000 0.000000 0.036788 -0.395675 -1.034182
    16 11.479830 -0.000111 0.000311 -0.863642 0.369783 -0.016398
  time 14
    0 -68.504663 -0.335946 38.066902 1.683715 -0.032263 0.181413
    1 0.000005 3.345128 -2.981901 1.567213 0.102077 1.557697
    2 7.493127 0.558611 0.015625 -0.142377 -0.006172 0.375544
    3 10.846355 1.374172 -1.839951 -1.078790 1.332826 3.755733
    4 6.028143 0.000000 0.000000 1.710745 -0.323673 -0.748188
    5 11.692554 0.000000 0.000008 0.000000 0.000000 -1.950789
    6 10.510400 1.534328 2.015787 2.232158 -1.392111 2.537303
    7 6.028142 0.000000 0.000000 -1.221395 -0.619913 -1.160137
    8 11.692558 0.000000 0.000001 0.000000 0.000000 -1.717021
    9 14.606188 3.400967 0.351573 3.079639 0.068516 -0.266815
    10 3.890452 -0.148446 -0.000003 -1.591014 -0.584073 -1.155036
    11 17.848175 0.000000 0.000000 0.000000 0.000000 0.688821
    12 16.525248 0.000000 0.000000 -0.281487 0.272879 -1.011428
    13 -3.890452 0.148446 0.000007 -0.871856 0.082879 -1.990086
    14 17.848171 0.000000 0.000000 0.000000 0.000000 0.321201
    15 16.525253 0.000000 0.000000 0.126608 -0.416691 -0.997415
    16 11.479830 -0.000111 0.000311 -0.864732 0.386647 -0.016697
  time 15
    0 -73.512923 -0.335946 37.566887 1.689875 -0.026366 0.188412
    1 0.000005 3.345128 -2.981901 1.567368 0.102077 1.557841
    2 7.497033 0.542985 -0.027345 -0.130081 0.010127 0.361372
    3 10.854167 1.389798 -1.816513 -1.090074 1.342474 3.748444
    4 6.028143 0.000000 0.000000 1.719920 -0.308160 -0.732601
    5 11.692554 0.000000 0.000008 0.000000 0.000000 -1.955454
    6 10.490868 1.522608 2.039226 2.176289 -1.390948 2.595948
    7 6.028142 0.000000 0.000000 -1.202030 -0.589248 -1.160137
    8 11.692558 0.000000 0.000001 0.000000 0.000000 -1.749755
    9 14.590562 3.420499 0.414075 3.072614 0.058041 -0.263080
    10 3.890452 -0.148446 -0.000003 -1.610070 -0.726924 -1.119285
    11 17.848175 0.000000 0.000000 0.000000 0.000000 0.957784
    12 16.525248 0.000000 0.000000 -0.199843 0.336720 -0.992900
    13 -3.890452 0.148446 0.000007 -0.857540 0.140894 -1.941844
    14 17.848171 0.000000 0.000000 0.000000 0.000000 0.112302
    15 16.525253 0.000000 0.000000 0.169819 -0.411904 -0.957055
    16 11.479830 -0.000111 0.000311 -0.864692 0.385710 -0.016685
  time 16
    0 -78.521184 -0.335946 36.656703 1.684494 -0.020134 0.187981
    1 0.000005 3.345128 -2.981901 1.568207 0.102077 1.559734
    2 7.493127 0.550798 -0.078127 -0.114117 0.030597 0.364335
    3 10.861980 1.413236 -1.789168 -1.116804 1.353595 3.724585
    4 6.028143 0.000000 0.000000 1.731139 -0.253567 -0.711069
    5 11.692554 0.000000 0.000008 0.000000 0.000000 -1.956201
    6 10.475243 1.506983 2.066570 2.106940 -1.391092 2.666444
    7 6.028142 0.000000 0.000000 -1.195860 -0.490462 -1.140897
    8 11.692558 0.000000 0.000001 0.000000 0.000000 -1.825290
    9 14.582750 3.428311 0.484390 3.073013 0.033018 -0.261213
    10 3.890452 -0.148446 -0.000003 -1.616884 -0.862226 -1.102361
    11 17.848175 0.000000 0.000000 0.000000 0.000000 1.236946
    12 16.525248 0.000000 0.000000 -0.100829 0.365371 -0.952777
    13 -3.890452 0.148446 0.000007 -0.864744 0.125764 -1.879062
    14 17.848171 0.000000 0.000000 0.000000 0.000000 0.134429
    15 16.525253 0.000000 0.000000 0.178972 -0.347905 -1.115616
    16 11.479830 -0.000111 0.000311 -0.863763 0.371690 -0.016434
  time 17
    0 -83.529444 -0.335946 35.887148 1.668027 -0.013854 0.180336
    1 0.000005 3.345128 -2.981901 1.569669 0.102077 1.563054
    2 7.489221 0.570330 -0.128910 -0.094978 0.052217 0.386483
    3 10.865887 1.440581 -1.761823 -1.159664 1.365029 3.684110
    4 6.028143 0.000000 0.000000 1.746764 -0.164088 -0.685056
    5 11.692554 0.000000 0.000008 0.000000 0.000000 -1.945439
    6 10.463524 1.479638 2.093915 2.028373 -1.392135 2.745262
    7 6.028142 0.000000 0.000000 -1.196229 -0.346695 -1.103115
    8 11.692558 0.000000 0.000001 0.000000 0.000000 -1.911677
    9 14.574937 3.428311 0.558611 3.079310 0.003607 -0.260612
    10 3.890452 -0.148446 -0.000003 -1.583173 -0.960187 -1.143532
    11 17.848175 0.000000 0.000000 0.000000 0.000000 1.468718
    12 16.525248 0.000000 0.000000 -0.018215 0.340225 -0.891625
    13 -3.890452 0.148446 0.000007 -0.896862 -0.038844 -1.858508
    14 17.848171 0.000000 0.000000 0.000000 0.000000 0.576732
    15 16.525253 0.000000 0.000000 0.102373 -0.250259 -1.455694
    16 11.479830 -0.000111 0.000311 -0.862512 0.351982 -0.016098
  time 18
    0 -88.537705 -0.335947 35.457448 1.654424 -0.007766 0.164615
    1 0.000005 3.345128 -2.981901 1.571383 0.102077 1.567105
    2 7.481408 0.597675 -0.171880 -0.073921 0.070326 0.416180
    3 10.873699 1.467925 -1.734479 -1.218061 1.375431 3.627909
    4 6.028143 0.000000 0.000000 1.767249 -0.044844 -0.657579
    5 11.692554 0.000000 0.000008 0.000000 0.000000 -1.917758
    6 10.455711 1.452294 2.117353 1.945839 -1.393861 2.827728
    7 6.028142 0.000000 0.000000 -1.198442 -0.178550 -1.050151
    8 11.692558 0.000000 0.000001 0.000000 0.000000 -1.978049
    9 14.567124 3.428311 0.628925 3.089813 -0.020074 -0.260645
    10 3.890452 -0.148446 -0.000003 -1.490438 -1.021038 -1.275098
    11 17.848175 0.000000 0.000000 0.000000 0.000000 1.639814
    12 16.525248 0.000000 0.000000 0.005513 0.262767 -0.842145
    13 -3.890452 0.148446 0.000007 -0.939055 -0.110875 -1.732145
    14 17.848171 0.000000 0.000000 0.000000 0.000000 0.715437
    15 16.525253 0.000000 0.000000 0.001386 -0.146193 -1.601930
    16 11.479830 -0.000111 0.000311 -0.861018 0.328392 -0.015739
  time 19
    0 -93.545965 -0.335947 35.320725 1.650122 -0.002109 0.137318
    1 0.000005 3.345128 -2.981901 1.572090 0.102077 1.571000
    2 7.477502 0.613300 -0.199225 -0.053343 0.079961 0.431207
    3 10.873699 1.495270 -1.711041 -1.287401 1.383221 3.560903
    4 6.028143 0.000000 0.000000 1.749512 0.131609 -0.749129
    5 11.692554 0.000000 0.000008 0.000000 0.000000 -1.936171
    6 10.447898 1.424949 2.140791 1.867189 -1.396245 2.906486
    7 6.028142 0.000000 0.000000 -1.277664 0.043567 -0.865488
    8 11.692558 0.000000 0.000001 0.000000 0.000000 -1.990286
    9 14.563218 3.424405 0.683615 3.102312 -0.028092 -0.260255
    10 3.890452 -0.148446 -0.000003 -1.330258 -1.037764 -1.518364
    11 17.848175 0.000000 0.000000 0.000000 0.000000 1.748089
    12 16.525248 0.000000 0.000000 -0.058358 0.138557 -0.847469
    13 -3.890452 0.148446 0.000007 -0.978263 -0.128419 -1.677550
    14 17.848171 0.000000 0.000000 0.000000 0.000000 0.730288
    15 16.525253 0.000000 0.000000 -0.033037 -0.111309 -1.632014
    16 11.479830 -0.000111 0.000311 -0.859242 0.299984 -0.015355
  time 20
    0 -98.554225 -0.335947 35.625421 1.653622 0.003296 0.092362
    1 0.000005 3.345128 -2.981901 1.573696 0.102077 1.574559
    2 7.477502 0.613300 -0.214850 -0.035307 0.086900 0.431933
    3 10.865887 1.530427 -1.687602 -1.382652 1.388914 3.469945
    4 6.028143 0.000000 0.000000 1.748081 0.272880 -0.741824
    5 11.692554 0.000000 0.000008 0.000000 0.000000 -1.868429
    6 10.447898 1.393698 2.164229 1.770923 -1.400248 3.004269
    7 6.028142 0.000000 0.000000 -1.279139 0.212717 -0.836501
    8 11.692558 0.000000 0.000001 0.000000 0.000000 -1.934705
    9 14.551499 3.428311 0.734397 3.140211 -0.028583 -0.257657
    10 3.890452 -0.148446 -0.000003 -1.120841 -0.954600 -1.879412
    11 17.848175 0.000000 0.000000 0.000000 0.000000 1.708388
    12 16.525248 0.000000 0.000000 -0.193441 -0.079780 -0.973753
    13 -3.890452 0.148446 0.000007 -1.073181 -0.172882 -1.498460
    14 17.848171 0.000000 0.000000 0.000000 0.000000 0.712368
    15 16.525253 0.000000 0.000000 -0.149624 0.026784 -1.533653
    16 11.479830 -0.000111 0.000311 -0.857990 0.279306 -0.015115
end
