// Created by Crowbar 0.74
version 1
nodes
  0 "ValveBiped.Bip01" -1
  1 "ValveBiped.Bip01_Spine" 0
  2 "ValveBiped.Bip01_Spine2" 1
  3 "ValveBiped.Bip01_R_Clavicle" 2
  4 "ValveBiped.Bip01_R_UpperArm" 3
  5 "ValveBiped.Bip01_R_Forearm" 4
  6 "ValveBiped.Bip01_L_Clavicle" 2
  7 "ValveBiped.Bip01_L_UpperArm" 6
  8 "ValveBiped.Bip01_L_Forearm" 7
  9 "ValveBiped.Bip01_Head1" 2
  10 "ValveBiped.Bip01_L_Thigh" 0
  11 "ValveBiped.Bip01_L_Calf" 10
  12 "ValveBiped.Bip01_L_Foot" 11
  13 "ValveBiped.Bip01_R_Thigh" 0
  14 "ValveBiped.Bip01_R_Calf" 13
  15 "ValveBiped.Bip01_R_Foot" 14
  16 "ValveBiped.Bip01_R_Hand" 5
end
skeleton
  time 0
    0 1.610982 -0.335943 36.883272 1.555012 -0.003416 0.059574
    1 0.000005 3.345128 -2.981901 1.573948 0.102089 1.571527
    2 7.454063 0.757836 -0.156255 -0.062164 0.066718 0.468424
    3 10.854167 1.518708 -1.711041 -1.351736 1.378140 3.500577
    4 6.028143 0.000000 0.000000 1.666391 0.363992 -0.766651
    5 11.692554 0.000000 0.000008 0.000000 0.000000 -1.774810
    6 10.467430 1.405417 2.140791 1.816526 -1.407787 2.959025
    7 6.028142 0.000000 0.000000 -1.255096 0.450178 -0.824491
    8 11.692558 0.000000 0.000001 0.000000 0.000000 -1.774411
    9 14.559312 3.432218 0.667989 3.171719 -0.015005 -0.203421
    10 3.890452 -0.148446 -0.000003 -1.433671 -0.547329 -1.656478
    11 17.848175 0.000000 0.000000 0.000000 0.000000 1.411285
    12 16.525248 0.000000 0.000000 -0.066342 -0.146082 -0.876916
    13 -3.890452 0.148446 0.000007 -1.122555 0.054661 -1.494740
    14 17.848171 0.000000 0.000000 0.000000 0.000000 0.601928
    15 16.525253 0.000000 0.000000 -0.073198 0.015088 -1.264940
    16 11.479830 -0.000111 0.000311 -0.860857 0.325682 -0.015703
  time 1
    0 4.482062 2.872695 36.281691 1.551525 0.002768 0.039761
    1 0.000005 3.345128 -2.981901 1.574607 0.102089 1.574523
    2 7.450157 0.757836 -0.160161 -0.054901 0.069343 0.471928
    3 10.850261 1.526521 -1.707134 -1.376828 1.379338 3.477070
    4 6.028143 0.000000 0.000000 1.664461 0.312961 -0.723256
    5 11.692554 0.000000 0.000008 0.000000 0.000000 -1.802181
    6 10.467430 1.397605 2.148604 1.787069 -1.409093 2.989234
    7 6.028142 0.000000 0.000000 -1.261518 0.426304 -0.847960
    8 11.692558 0.000000 0.000001 0.000000 0.000000 -1.792195
    9 14.555405 3.436124 0.679708 3.186968 -0.017006 -0.202495
    10 3.890452 -0.148446 -0.000003 -1.542603 -0.468256 -1.490710
    11 17.848175 0.000000 0.000000 0.000000 0.000000 1.482422
    12 16.525248 0.000000 0.000000 -0.037585 -0.096027 -0.942962
    13 -3.890452 0.148446 0.000007 -1.113642 -0.031016 -1.594740
    14 17.848171 0.000000 0.000000 0.000000 0.000000 0.682023
    15 16.525253 0.000000 0.000000 -0.051113 -0.063952 -1.462109
    16 11.479830 -0.000111 0.000311 -0.860009 0.312465 -0.015511
  time 2
    0 7.353142 6.081333 36.223096 1.553322 0.006508 0.021832
    1 0.000005 3.345128 -2.981901 1.575398 0.102089 1.578406
    2 7.454063 0.757836 -0.148442 -0.081279 0.063375 0.472128
    3 10.858074 1.518708 -1.703228 -1.417777 1.377864 3.426048
    4 6.028143 0.000000 0.000000 1.637367 0.170578 -0.698725
    5 11.692554 0.000000 0.000008 0.000000 0.000000 -1.890947
    6 10.490868 1.370260 2.152510 1.746652 -1.413815 3.018295
    7 6.028142 0.000000 0.000000 -1.291698 0.364680 -0.903270
    8 11.692558 0.000000 0.000001 0.000000 0.000000 -1.853021
    9 14.594469 3.369716 0.683615 3.197705 -0.013327 -0.213521
    10 3.890452 -0.148446 -0.000003 -1.660559 -0.302661 -1.317862
    11 17.848175 0.000000 0.000000 0.000000 0.000000 1.410605
    12 16.525248 0.000000 0.000000 0.048864 0.004319 -1.002258
    13 -3.890452 0.148446 0.000007 -1.141315 -0.154162 -1.684548
    14 17.848171 0.000000 0.000000 0.000000 0.000000 0.740337
    15 16.525253 0.000000 0.000000 -0.006558 -0.079611 -1.466356
    16 11.479830 -0.000111 0.000311 -0.853065 0.197797 -0.014432
  time 3
    0 10.224222 9.289970 36.910617 1.560178 0.007383 0.002073
    1 0.000005 3.345128 -2.981901 1.575398 0.102089 1.578406
    2 7.454063 0.761742 -0.128910 -0.082598 0.057514 0.473253
    3 10.850261 1.522614 -1.711041 -1.428947 1.373861 3.415150
    4 6.028143 0.000000 0.000000 1.647292 0.031943 -0.658207
    5 11.692554 0.000000 0.000008 0.000000 0.000000 -1.940463
    6 10.498681 1.366354 2.144698 1.743859 -1.418345 3.021117
    7 6.028142 0.000000 0.000000 -1.311449 0.178741 -0.991268
    8 11.692558 0.000000 0.000001 0.000000 0.000000 -1.876772
    9 14.598375 3.369716 0.660176 3.208114 -0.009384 -0.213440
    10 3.890452 -0.148446 -0.000003 -1.605960 -0.403814 -1.432592
    11 17.848175 0.000000 0.000000 0.000000 0.000000 1.409140
    12 16.525248 0.000000 0.000000 -0.057164 -0.094240 -0.921233
    13 -3.890452 0.148446 0.000007 -1.206167 -0.234517 -1.739517
    14 17.848171 0.000000 0.000000 0.000000 0.000000 0.658856
    15 16.525253 0.000000 0.000000 0.055688 -0.063603 -1.311745
    16 11.479830 -0.000111 0.000311 -0.853065 0.197797 -0.014432
  time 4
    0 13.095303 12.498608 37.652827 1.567992 0.008833 -0.020109
    1 0.000005 3.345128 -2.981901 1.575398 0.102089 1.578406
    2 7.454063 0.765648 -0.093753 -0.084923 0.048010 0.468211
    3 10.842448 1.510895 -1.726666 -1.411066 1.367498 3.432212
    4 6.028143 0.000000 0.000000 1.646519 -0.055514 -0.627766
    5 11.692554 0.000000 0.000008 0.000000 0.000000 -1.952157
    6 10.510400 1.374166 2.129072 1.782953 -1.422695 2.982000
    7 6.028142 0.000000 0.000000 -1.333262 0.031326 -1.054274
    8 11.692558 0.000000 0.000001 0.000000 0.000000 -1.868815
    9 14.602282 3.369716 0.613300 3.226746 -0.006927 -0.213976
    10 3.890452 -0.148446 -0.000003 -1.636879 -0.413756 -1.411376
    11 17.848175 0.000000 0.000000 0.000000 0.000000 1.294640
    12 16.525248 0.000000 0.000000 -0.102575 -0.096263 -0.836094
    13 -3.890452 0.148446 0.000007 -1.320963 -0.250544 -1.760665
    14 17.848171 0.000000 0.000000 0.000000 0.000000 0.430353
    15 16.525253 0.000000 0.000000 0.150650 -0.022174 -1.076027
    16 11.479830 -0.000111 0.000311 -0.853065 0.197797 -0.014432
  time 5
    0 15.966383 15.707245 38.289565 1.575818 0.009132 -0.037499
    1 0.000005 3.345128 -2.981901 1.575398 0.102089 1.578406
    2 7.454063 0.765648 -0.058596 -0.087296 0.037883 0.461516
    3 10.834636 1.499176 -1.746198 -1.388567 1.360678 3.453680
    4 6.028143 0.000000 0.000000 1.646292 -0.111146 -0.605728
    5 11.692554 0.000000 0.000008 0.000000 0.000000 -1.946932
    6 10.522119 1.385885 2.113447 1.832860 -1.426566 2.932060
    7 6.028142 0.000000 0.000000 -1.350213 -0.084417 -1.096159
    8 11.692558 0.000000 0.000001 0.000000 0.000000 -1.850549
    9 14.610094 3.369716 0.562517 3.248950 -0.004986 -0.214820
    10 3.890452 -0.148446 -0.000003 -1.699230 -0.363878 -1.336268
    11 17.848175 0.000000 0.000000 0.000000 0.000000 1.126369
    12 16.525248 0.000000 0.000000 -0.118557 -0.049410 -0.772952
    13 -3.890452 0.148446 0.000007 -1.445241 -0.234145 -1.789729
    14 17.848171 0.000000 0.000000 0.000000 0.000000 0.202148
    15 16.525253 0.000000 0.000000 0.250563 0.011870 -0.779755
    16 11.479830 -0.000111 0.000311 -0.853065 0.197797 -0.014432
  time 6
    0 18.837463 18.915883 38.652858 1.582864 0.006544 -0.042829
    1 0.000005 3.345128 -2.981901 1.575398 0.102089 1.578406
    2 7.454063 0.765648 -0.031251 -0.089117 0.029722 0.454295
    3 10.830729 1.483551 -1.765730 -1.358538 1.354998 3.482390
    4 6.028143 0.000000 0.000000 1.651425 -0.149669 -0.593349
    5 11.692554 0.000000 0.000008 0.000000 0.000000 -1.935797
    6 10.529932 1.401511 2.097821 1.891607 -1.427969 2.873294
    7 6.028142 0.000000 0.000000 -1.355763 -0.172660 -1.125167
    8 11.692558 0.000000 0.000001 0.000000 0.000000 -1.819865
    9 14.614001 3.369716 0.519547 3.265373 -0.004818 -0.215827
    10 3.890452 -0.148446 -0.000003 -1.753316 -0.295046 -1.266160
    11 17.848175 0.000000 0.000000 0.000000 0.000000 0.956267
    12 16.525248 0.000000 0.000000 -0.120661 0.018830 -0.742672
    13 -3.890452 0.148446 0.000007 -1.538769 -0.465679 -1.844443
    14 17.848171 0.000000 0.000000 0.000000 0.000000 0.582721
    15 16.525253 0.000000 0.000000 0.313308 0.052444 -0.810760
    16 11.479830 -0.000111 0.000311 -0.853065 0.197797 -0.014432
  time 7
    0 21.708543 22.124521 38.465352 1.588114 -0.000348 -0.035830
    1 0.000005 3.345128 -2.981901 1.574511 0.102089 1.576249
    2 7.454063 0.765648 -0.011719 -0.100071 0.021416 0.445464
    3 10.830729 1.464019 -1.785262 -1.315633 1.349724 3.523451
    4 6.028143 0.000000 0.000000 1.650607 -0.171510 -0.588851
    5 11.692554 0.000000 0.000008 0.000000 0.000000 -1.925036
    6 10.533839 1.421043 2.078289 1.965407 -1.426363 2.799433
    7 6.028142 0.000000 0.000000 -1.361547 -0.227702 -1.141701
    8 11.692558 0.000000 0.000001 0.000000 0.000000 -1.786287
    9 14.614001 3.373622 0.472671 3.265091 -0.006076 -0.216817
    10 3.890452 -0.148446 -0.000003 -1.781956 -0.255909 -1.224702
    11 17.848175 0.000000 0.000000 0.000000 0.000000 0.853745
    12 16.525248 0.000000 0.000000 -0.113319 0.094721 -0.776851
    13 -3.890452 0.148446 0.000007 -1.618620 -0.693871 -1.866203
    14 17.848171 0.000000 0.000000 0.000000 0.000000 1.021113
    15 16.525253 0.000000 0.000000 0.378931 0.062096 -0.881056
    16 11.479830 -0.000111 0.000311 -0.852096 0.181100 -0.014348
  time 8
    0 24.579623 25.333158 37.754393 1.590199 -0.010343 -0.020755
    1 0.000005 3.345128 -2.981901 1.573349 0.102089 1.573552
    2 7.454063 0.761742 0.007813 -0.112044 0.012931 0.439169
    3 10.826823 1.440581 -1.804793 -1.264765 1.343660 3.572082
    4 6.028143 0.000000 0.000000 1.649063 -0.182533 -0.590560
    5 11.692554 0.000000 0.000008 0.000000 0.000000 -1.918069
    6 10.537745 1.448387 2.058757 2.049579 -1.422588 2.715194
    7 6.028142 0.000000 0.000000 -1.364934 -0.256628 -1.148572
    8 11.692558 0.000000 0.000001 0.000000 0.000000 -1.765007
    9 14.617907 3.373622 0.421888 3.250030 -0.005285 -0.217581
    10 3.890452 -0.148446 -0.000003 -1.775187 -0.254612 -1.227268
    11 17.848175 0.000000 0.000000 0.000000 0.000000 0.801804
    12 16.525248 0.000000 0.000000 -0.135972 0.182410 -0.861238
    13 -3.890452 0.148446 0.000007 -1.653929 -0.792388 -1.860580
    14 17.848171 0.000000 0.000000 0.000000 0.000000 1.270407
    15 16.525253 0.000000 0.000000 0.428359 0.004691 -0.878146
    16 11.479830 -0.000111 0.000311 -0.851773 0.175880 -0.014324
  time 9
    0 27.450704 28.541796 36.863740 1.580432 -0.020997 0.000942
    1 0.000005 3.345128 -2.981901 1.572174 0.102089 1.570688
    2 7.454063 0.757836 0.027345 -0.123130 0.006160 0.439596
    3 10.830729 1.413236 -1.824325 -1.216537 1.337848 3.618065
    4 6.028143 0.000000 0.000000 1.645407 -0.189733 -0.597080
    5 11.692554 0.000000 0.000008 0.000000 0.000000 -1.916638
    6 10.541651 1.471826 2.039226 2.124744 -1.417386 2.639902
    7 6.028142 0.000000 0.000000 -1.361765 -0.258577 -1.149608
    8 11.692558 0.000000 0.000001 0.000000 0.000000 -1.756145
    9 14.621813 3.373622 0.378918 3.231116 -0.001534 -0.218181
    10 3.890452 -0.148446 -0.000003 -1.704949 -0.288861 -1.313305
    11 17.848175 0.000000 0.000000 0.000000 0.000000 0.780463
    12 16.525248 0.000000 0.000000 -0.208931 0.150674 -1.030172
    13 -3.890452 0.148446 0.000007 -1.604396 -0.794059 -1.856962
    14 17.848171 0.000000 0.000000 0.000000 0.000000 1.400796
    15 16.525253 0.000000 0.000000 0.406754 -0.065775 -0.835677
    16 11.479830 -0.000111 0.000311 -0.852339 0.185015 -0.014360
  time 10
    0 30.321784 31.750434 36.144969 1.561999 -0.029938 0.025924
    1 0.000005 3.345128 -2.981901 1.571227 0.102089 1.568040
    2 7.457970 0.753929 0.039064 -0.131507 0.002253 0.442730
    3 10.830729 1.397611 -1.836044 -1.179728 1.333773 3.653150
    4 6.028143 0.000000 0.000000 1.639547 -0.193500 -0.607698
    5 11.692554 0.000000 0.000008 0.000000 0.000000 -1.920868
    6 10.541651 1.491357 2.027506 2.175932 -1.412209 2.588613
    7 6.028142 0.000000 0.000000 -1.350917 -0.234703 -1.146458
    8 11.692558 0.000000 0.000001 0.000000 0.000000 -1.758557
    9 14.625720 3.369716 0.351573 3.211521 0.003547 -0.218587
    10 3.890452 -0.148446 -0.000003 -1.590031 -0.353304 -1.465357
    11 17.848175 0.000000 0.000000 0.000000 0.000000 0.813207
    12 16.525248 0.000000 0.000000 -0.216796 -0.048095 -1.257327
    13 -3.890452 0.148446 0.000007 -1.519621 -0.747461 -1.835865
    14 17.848171 0.000000 0.000000 0.000000 0.000000 1.487029
    15 16.525253 0.000000 0.000000 0.342128 -0.112340 -0.778864
    16 11.479830 -0.000111 0.000311 -0.853308 0.201343 -0.014456
  time 11
    0 33.192864 34.959071 35.941837 1.551609 -0.034815 0.050313
    1 0.000005 3.345128 -2.981901 1.570760 0.102089 1.565978
    2 7.457970 0.753929 0.039064 -0.135282 0.002361 0.445464
    3 10.834636 1.389798 -1.836044 -1.161939 1.333138 3.670142
    4 6.028143 0.000000 0.000000 1.640774 -0.178617 -0.626789
    5 11.692554 0.000000 0.000008 0.000000 0.000000 -1.928395
    6 10.537745 1.495264 2.023600 2.191784 -1.408805 2.572672
    7 6.028142 0.000000 0.000000 -1.335961 -0.198148 -1.134597
    8 11.692558 0.000000 0.000001 0.000000 0.000000 -1.770613
    9 14.625720 3.369716 0.343760 3.194345 0.008353 -0.218620
    10 3.890452 -0.148446 -0.000003 -1.487087 -0.394403 -1.606789
    11 17.848175 0.000000 0.000000 0.000000 0.000000 0.750700
    12 16.525248 0.000000 0.000000 -0.168758 -0.194990 -1.294357
    13 -3.890452 0.148446 0.000007 -1.436328 -0.656154 -1.774169
    14 17.848171 0.000000 0.000000 0.000000 0.000000 1.481237
    15 16.525253 0.000000 0.000000 0.267237 -0.106967 -0.690986
    16 11.479830 -0.000111 0.000311 -0.854680 0.224464 -0.014612
  time 12
    0 36.063944 38.167709 36.301223 1.554006 -0.036217 0.071203
    1 0.000005 3.345128 -2.981901 1.570640 0.102089 1.564360
    2 7.457970 0.753929 0.023438 -0.133269 0.006723 0.446931
    3 10.838542 1.389798 -1.832138 -1.158549 1.336457 3.673821
    4 6.028143 0.000000 0.000000 1.647496 -0.131150 -0.661920
    5 11.692554 0.000000 0.000008 0.000000 0.000000 -1.941458
    6 10.529932 1.495264 2.031413 2.175911 -1.406576 2.588734
    7 6.028142 0.000000 0.000000 -1.321408 -0.140381 -1.106498
    8 11.692558 0.000000 0.000001 0.000000 0.000000 -1.792134
    9 14.621813 3.373622 0.367199 3.179731 0.010055 -0.218019
    10 3.890452 -0.148446 -0.000003 -1.400518 -0.445345 -1.728046
    11 17.848175 0.000000 0.000000 0.000000 0.000000 0.652154
    12 16.525248 0.000000 0.000000 -0.146866 -0.280859 -1.110013
    13 -3.890452 0.148446 0.000007 -1.346949 -0.552191 -1.697271
    14 17.848171 0.000000 0.000000 0.000000 0.000000 1.399063
    15 16.525253 0.000000 0.000000 0.185074 -0.044886 -0.594940
    16 11.479830 -0.000111 0.000311 -0.856497 0.254846 -0.014864
  time 13
    0 38.935025 41.376347 36.930149 1.561172 -0.036253 0.087463
    1 0.000005 3.345128 -2.981901 1.570652 0.102089 1.562934
    2 7.457970 0.753929 0.000000 -0.126749 0.014070 0.448242
    3 10.846355 1.401517 -1.816513 -1.160210 1.342318 3.674009
    4 6.028143 0.000000 0.000000 1.652220 -0.045104 -0.711331
    5 11.692554 0.000000 0.000008 0.000000 0.000000 -1.949794
    6 10.518213 1.491357 2.043132 2.143598 -1.404083 2.622389
    7 6.028142 0.000000 0.000000 -1.310644 -0.041029 -1.057150
    8 11.692558 0.000000 0.000001 0.000000 0.000000 -1.823361
    9 14.614001 3.381435 0.406262 3.165775 0.006795 -0.216119
    10 3.890452 -0.148446 -0.000003 -1.334726 -0.416815 -1.815322
    11 17.848175 0.000000 0.000000 0.000000 0.000000 0.380210
    12 16.525248 0.000000 0.000000 -0.153537 -0.343503 -0.775561
    13 -3.890452 0.148446 0.000007 -1.282895 -0.441854 -1.604100
    14 17.848171 0.000000 0.000000 0.000000 0.000000 1.261595
    15 16.525253 0.000000 0.000000 0.122943 0.047832 -0.511606
    16 11.479830 -0.000111 0.000311 -0.858677 0.290482 -0.015235
  time 14
    0 41.806105 44.584984 37.652827 1.570832 -0.034923 0.098984
    1 0.000005 3.345128 -2.981901 1.570784 0.102077 1.561927
    2 7.457970 0.753929 -0.027345 -0.117533 0.023202 0.449410
    3 10.854167 1.413236 -1.796981 -1.167899 1.349545 3.669110
    4 6.028143 0.000000 0.000000 1.655354 0.081544 -0.765483
    5 11.692554 0.000000 0.000008 0.000000 0.000000 -1.930821
    6 10.502588 1.483545 2.058757 2.101250 -1.401806 2.666746
    7 6.028142 0.000000 0.000000 -1.302026 0.097477 -0.988540
    8 11.692558 0.000000 0.000001 0.000000 0.000000 -1.850308
    9 14.602282 3.393154 0.453139 3.153157 0.000527 -0.213570
    10 3.890452 -0.148446 -0.000003 -1.309504 -0.252351 -1.817423
    11 17.848175 0.000000 0.000000 0.000000 0.000000 0.000044
    12 16.525248 0.000000 0.000000 -0.169982 -0.304959 -0.491584
    13 -3.890452 0.148446 0.000007 -1.273891 -0.330218 -1.493245
    14 17.848171 0.000000 0.000000 0.000000 0.000000 1.084229
    15 16.525253 0.000000 0.000000 0.107381 0.129915 -0.442438
    16 11.479830 -0.000111 0.000311 -0.860937 0.327121 -0.015715
  time 15
    0 44.677185 47.793622 38.289565 1.580671 -0.032275 0.106145
    1 0.000005 3.345128 -2.981901 1.571024 0.102077 1.561556
    2 7.457970 0.753929 -0.058596 -0.107430 0.032946 0.450407
    3 10.858074 1.432768 -1.781355 -1.182777 1.356963 3.657369
    4 6.028143 0.000000 0.000000 1.658579 0.227565 -0.814091
    5 11.692554 0.000000 0.000008 0.000000 0.000000 -1.876889
    6 10.486962 1.475732 2.078289 2.054261 -1.400284 2.715839
    7 6.028142 0.000000 0.000000 -1.292486 0.241727 -0.914899
    8 11.692558 0.000000 0.000001 0.000000 0.000000 -1.846812
    9 14.590562 3.404873 0.503922 3.142678 -0.006172 -0.211004
    10 3.890452 -0.148446 -0.000003 -1.278630 -0.355764 -1.867355
    11 17.848175 0.000000 0.000000 0.000000 0.000000 0.292962
    12 16.525248 0.000000 0.000000 -0.115946 -0.198479 -0.648739
    13 -3.890452 0.148446 0.000007 -1.277310 -0.220686 -1.401025
    14 17.848171 0.000000 0.000000 0.000000 0.000000 0.900872
    15 16.525253 0.000000 0.000000 0.103774 0.193010 -0.398009
    16 11.479830 -0.000111 0.000311 -0.863037 0.360614 -0.016242
  time 16
    0 47.548265 51.002260 38.660670 1.588317 -0.028344 0.109483
    1 0.000005 3.345128 -2.981901 1.571419 0.102077 1.562071
    2 7.454063 0.753929 -0.089846 -0.098286 0.042114 0.451204
    3 10.858074 1.448393 -1.761823 -1.206004 1.363339 3.636955
    4 6.028143 0.000000 0.000000 1.663666 0.339015 -0.844986
    5 11.692554 0.000000 0.000008 0.000000 0.000000 -1.817856
    6 10.479149 1.464013 2.093915 2.007063 -1.400188 2.764669
    7 6.028142 0.000000 0.000000 -1.282124 0.338983 -0.860900
    8 11.692558 0.000000 0.000001 0.000000 0.000000 -1.815705
    9 14.582750 3.416592 0.546892 3.135159 -0.010798 -0.209007
    10 3.890452 -0.148446 -0.000003 -1.255262 -0.469220 -1.907022
    11 17.848175 0.000000 0.000000 0.000000 0.000000 0.634788
    12 16.525248 0.000000 0.000000 -0.049494 -0.106358 -0.787769
    13 -3.890452 0.148446 0.000007 -1.266164 -0.129780 -1.346413
    14 17.848171 0.000000 0.000000 0.000000 0.000000 0.760286
    15 16.525253 0.000000 0.000000 0.092549 0.230985 -0.396287
    16 11.479830 -0.000111 0.000311 -0.864732 0.386647 -0.016697
  time 17
    0 50.419345 54.210897 38.617700 1.588413 -0.023238 0.106306
    1 0.000005 3.345128 -2.981901 1.571947 0.102089 1.563557
    2 7.454063 0.753929 -0.117191 -0.088398 0.051150 0.449994
    3 10.858074 1.467925 -1.750104 -1.236056 1.368193 3.609300
    4 6.028143 0.000000 0.000000 1.666982 0.389080 -0.851890
    5 11.692554 0.000000 0.000008 0.000000 0.000000 -1.783021
    6 10.471337 1.452294 2.105634 1.961481 -1.401459 2.811364
    7 6.028142 0.000000 0.000000 -1.269147 0.396100 -0.831680
    8 11.692558 0.000000 0.000001 0.000000 0.000000 -1.787312
    9 14.574937 3.420499 0.582049 3.131588 -0.011661 -0.207497
    10 3.890452 -0.148446 -0.000003 -1.260936 -0.516538 -1.899257
    11 17.848175 0.000000 0.000000 0.000000 0.000000 0.861225
    12 16.525248 0.000000 0.000000 -0.032586 -0.106425 -0.831442
    13 -3.890452 0.148446 0.000007 -1.223788 -0.039122 -1.328968
    14 17.848171 0.000000 0.000000 0.000000 0.000000 0.670984
    15 16.525253 0.000000 0.000000 0.044463 0.238402 -0.532752
    16 11.479830 -0.000111 0.000311 -0.864773 0.387148 -0.016709
  time 18
    0 53.290426 57.419535 38.203625 1.578119 -0.017162 0.095269
    1 0.000005 3.345128 -2.981901 1.572570 0.102089 1.565798
    2 7.454063 0.757836 -0.140629 -0.078379 0.058473 0.449552
    3 10.858074 1.483551 -1.738385 -1.268701 1.371932 3.578902
    4 6.028143 0.000000 0.000000 1.664120 0.402663 -0.840697
    5 11.692554 0.000000 0.000008 0.000000 0.000000 -1.764111
    6 10.471337 1.436668 2.117353 1.917998 -1.403244 2.855822
    7 6.028142 0.000000 0.000000 -1.256220 0.438083 -0.816309
    8 11.692558 0.000000 0.000001 0.000000 0.000000 -1.768564
    9 14.571031 3.424405 0.609394 3.136569 -0.011685 -0.206084
    10 3.890452 -0.148446 -0.000003 -1.292593 -0.547762 -1.858970
    11 17.848175 0.000000 0.000000 0.000000 0.000000 1.078874
    12 16.525248 0.000000 0.000000 -0.035526 -0.131790 -0.850481
    13 -3.890452 0.148446 0.000007 -1.173320 0.070812 -1.335984
    14 17.848171 0.000000 0.000000 0.000000 0.000000 0.568564
    15 16.525253 0.000000 0.000000 -0.019375 0.197796 -0.776517
    16 11.479830 -0.000111 0.000311 -0.863723 0.371088 -0.016422
  time 19
    0 56.161506 60.628172 37.574700 1.564516 -0.010379 0.078902
    1 0.000005 3.345128 -2.981901 1.573253 0.102089 1.568543
    2 7.454063 0.757836 -0.148442 -0.070074 0.063123 0.457785
    3 10.854167 1.495270 -1.726666 -1.300504 1.374580 3.549114
    4 6.028143 0.000000 0.000000 1.661645 0.394387 -0.811284
    5 11.692554 0.000000 0.000008 0.000000 0.000000 -1.761747
    6 10.467430 1.424949 2.125166 1.878778 -1.405162 2.895906
    7 6.028142 0.000000 0.000000 -1.253520 0.457660 -0.814491
    8 11.692558 0.000000 0.000001 0.000000 0.000000 -1.764464
    9 14.567124 3.428311 0.632832 3.150173 -0.013435 -0.204850
    10 3.890452 -0.148446 -0.000003 -1.350074 -0.563091 -1.779748
    11 17.848175 0.000000 0.000000 0.000000 0.000000 1.267441
    12 16.525248 0.000000 0.000000 -0.054403 -0.152722 -0.854434
    13 -3.890452 0.148446 0.000007 -1.137623 0.116512 -1.396507
    14 17.848171 0.000000 0.000000 0.000000 0.000000 0.520695
    15 16.525253 0.000000 0.000000 -0.055200 0.110071 -1.015294
    16 11.479830 -0.000111 0.000311 -0.862391 0.349974 -0.016062
  time 20
    0 59.032586 63.836810 36.883272 1.555012 -0.003416 0.059574
    1 0.000005 3.345128 -2.981901 1.573948 0.102089 1.571527
    2 7.454063 0.757836 -0.156255 -0.062164 0.066718 0.468424
    3 10.854167 1.518708 -1.711041 -1.351736 1.378140 3.500577
    4 6.028143 0.000000 0.000000 1.666391 0.363992 -0.766651
    5 11.692554 0.000000 0.000008 0.000000 0.000000 -1.774810
    6 10.467430 1.405417 2.140791 1.816526 -1.407787 2.959025
    7 6.028142 0.000000 0.000000 -1.255096 0.450178 -0.824491
    8 11.692558 0.000000 0.000001 0.000000 0.000000 -1.774411
    9 14.559312 3.432218 0.667989 3.171719 -0.015005 -0.203421
    10 3.890452 -0.148446 -0.000003 -1.433671 -0.547329 -1.656478
    11 17.848175 0.000000 0.000000 0.000000 0.000000 1.411285
    12 16.525248 0.000000 0.000000 -0.066342 -0.146082 -0.876916
    13 -3.890452 0.148446 0.000007 -1.122555 0.054661 -1.494740
    14 17.848171 0.000000 0.000000 0.000000 0.000000 0.601928
    15 16.525253 0.000000 0.000000 -0.073198 0.015088 -1.264940
    16 11.479830 -0.000111 0.000311 -0.860857 0.325682 -0.015703
end
