// Created by Crowbar 0.74
version 1
nodes
  0 "ValveBiped.Bip01" -1
  1 "ValveBiped.Bip01_Spine" 0
  2 "ValveBiped.Bip01_Spine2" 1
  3 "ValveBiped.Bip01_R_Clavicle" 2
  4 "ValveBiped.Bip01_R_UpperArm" 3
  5 "ValveBiped.Bip01_R_Forearm" 4
  6 "ValveBiped.Bip01_L_Clavicle" 2
  7 "ValveBiped.Bip01_L_UpperArm" 6
  8 "ValveBiped.Bip01_L_Forearm" 7
  9 "ValveBiped.Bip01_Head1" 2
  10 "ValveBiped.Bip01_L_Thigh" 0
  11 "ValveBiped.Bip01_L_Calf" 10
  12 "ValveBiped.Bip01_L_Foot" 11
  13 "ValveBiped.Bip01_R_Thigh" 0
  14 "ValveBiped.Bip01_R_Calf" 13
  15 "ValveBiped.Bip01_R_Foot" 14
  16 "ValveBiped.Bip01_R_Hand" 5
end
skeleton
  time 0
    0 1.610982 -0.335943 35.840272 1.696766 0.001750 0.027647
    1 0.000005 3.345128 -2.981901 1.572606 0.102077 1.573852
    2 7.477502 0.617206 -0.214850 -0.041754 0.081291 0.433087
    3 10.858074 1.534333 -1.691509 -1.387702 1.385882 3.465867
    4 6.028143 0.000000 0.000000 1.746537 0.283976 -0.655121
    5 11.692554 0.000000 0.000008 0.000000 0.000000 -1.861898
    6 10.451805 1.389792 2.160323 1.766052 -1.403784 3.009730
    7 6.028142 0.000000 0.000000 -1.334201 0.174339 -0.919551
    8 11.692558 0.000000 0.000001 0.000000 0.000000 -1.966715
    9 14.551499 3.432218 0.722678 3.196695 -0.051414 -0.259313
    10 3.890452 -0.148446 -0.000003 -1.563960 -0.830238 -1.554358
    11 17.848175 0.000000 0.000000 0.000000 0.000000 1.635106
    12 16.525248 0.000000 0.000000 -0.035033 -0.024686 -1.271283
    13 -3.890452 0.148446 0.000007 -1.118634 -0.194417 -1.557013
    14 17.848171 0.000000 0.000000 0.000000 0.000000 0.769444
    15 16.525253 0.000000 0.000000 -0.112745 -0.013742 -1.491659
    16 11.479830 -0.000111 0.000311 -0.857950 0.279105 -0.015115
  time 1
    0 -1.389010 -3.782087 36.367632 1.705479 0.006544 0.001158
    1 0.000005 3.345128 -2.981901 1.573205 0.102077 1.577052
    2 7.477502 0.613300 -0.214850 -0.033401 0.080716 0.429896
    3 10.846355 1.561678 -1.679790 -1.468712 1.385103 3.389744
    4 6.028143 0.000000 0.000000 1.749739 0.398544 -0.668075
    5 11.692554 0.000000 0.000008 0.000000 0.000000 -1.800999
    6 10.459617 1.370260 2.172042 1.682698 -1.409980 3.095421
    7 6.028142 0.000000 0.000000 -1.324996 0.304314 -0.907055
    8 11.692558 0.000000 0.000001 0.000000 0.000000 -1.890397
    9 14.543686 3.440031 0.742210 3.218805 -0.049137 -0.258095
    10 3.890452 -0.148446 -0.000003 -1.412470 -0.903825 -1.796141
    11 17.848175 0.000000 0.000000 0.000000 0.000000 1.386543
    12 16.525248 0.000000 0.000000 -0.082339 -0.146671 -1.531703
    13 -3.890452 0.148446 0.000007 -1.169011 -0.173934 -1.479690
    14 17.848171 0.000000 0.000000 0.000000 0.000000 0.790433
    15 16.525253 0.000000 0.000000 -0.130820 -0.032761 -1.148997
    16 11.479830 -0.000111 0.000311 -0.856658 0.257824 -0.014888
  time 2
    0 -4.389002 -7.228231 37.035621 1.716145 0.010882 -0.024093
    1 0.000005 3.345128 -2.981901 1.573828 0.102077 1.580072
    2 7.481408 0.597675 -0.191412 -0.033437 0.074928 0.414556
    3 10.834636 1.577304 -1.679790 -1.511663 1.381400 3.349995
    4 6.028143 0.000000 0.000000 1.731320 0.505596 -0.698952
    5 11.692554 0.000000 0.000008 0.000000 0.000000 -1.734377
    6 10.467430 1.358541 2.172042 1.639258 -1.415565 3.140785
    7 6.028142 0.000000 0.000000 -1.315188 0.402472 -0.910755
    8 11.692558 0.000000 0.000001 0.000000 0.000000 -1.787131
    9 14.539780 3.451750 0.734397 3.235205 -0.047303 -0.257576
    10 3.890452 -0.148446 -0.000003 -1.382758 -0.849158 -1.862577
    11 17.848175 0.000000 0.000000 0.000000 0.000000 1.009881
    12 16.525248 0.000000 0.000000 -0.055194 -0.229371 -1.596486
    13 -3.890452 0.148446 0.000007 -1.210612 -0.197604 -1.438956
    14 17.848171 0.000000 0.000000 0.000000 0.000000 0.891912
    15 16.525253 0.000000 0.000000 -0.182762 -0.101832 -0.949898
    16 11.479830 -0.000111 0.000311 -0.855407 0.236744 -0.014708
  time 3
    0 -7.388994 -10.674375 37.711423 1.727015 0.013399 -0.041375
    1 0.000005 3.345128 -2.981901 1.574379 0.102077 1.582409
    2 7.485314 0.578143 -0.164068 -0.038123 0.066155 0.394545
    3 10.822917 1.585116 -1.683696 -1.534071 1.376582 3.329277
    4 6.028143 0.000000 0.000000 1.705726 0.579098 -0.739871
    5 11.692554 0.000000 0.000008 0.000000 0.000000 -1.680134
    6 10.479149 1.354635 2.168136 1.617569 -1.421089 3.163498
    7 6.028142 0.000000 0.000000 -1.316814 0.460343 -0.912045
    8 11.692558 0.000000 0.000001 0.000000 0.000000 -1.684348
    9 14.539780 3.455656 0.714866 3.241455 -0.043936 -0.257949
    10 3.890452 -0.148446 -0.000003 -1.398754 -0.719010 -1.854148
    11 17.848175 0.000000 0.000000 0.000000 0.000000 0.633428
    12 16.525248 0.000000 0.000000 -0.007650 -0.284600 -1.456460
    13 -3.890452 0.148446 0.000007 -1.243756 -0.233681 -1.405408
    14 17.848171 0.000000 0.000000 0.000000 0.000000 1.010173
    15 16.525253 0.000000 0.000000 -0.234704 -0.099454 -0.808978
    16 11.479830 -0.000111 0.000311 -0.854196 0.216501 -0.014552
  time 4
    0 -10.388986 -14.120519 38.059089 1.735129 0.012728 -0.042075
    1 0.000005 3.345128 -2.981901 1.574799 0.102077 1.583512
    2 7.493127 0.558611 -0.128910 -0.047123 0.055333 0.376527
    3 10.815104 1.581210 -1.699322 -1.521855 1.370530 3.340410
    4 6.028143 0.000000 0.000000 1.684741 0.598285 -0.775212
    5 11.692554 0.000000 0.000008 0.000000 0.000000 -1.660104
    6 10.490868 1.358541 2.156417 1.641169 -1.426602 3.139314
    7 6.028142 0.000000 0.000000 -1.315808 0.486167 -0.913419
    8 11.692558 0.000000 0.000001 0.000000 0.000000 -1.645344
    9 14.547592 3.451750 0.671896 3.239598 -0.035331 -0.259459
    10 3.890452 -0.148446 -0.000003 -1.410773 -0.574563 -1.831494
    11 17.848175 0.000000 0.000000 0.000000 0.000000 0.330885
    12 16.525248 0.000000 0.000000 0.008408 -0.329801 -1.202252
    13 -3.890452 0.148446 0.000007 -1.252874 -0.241850 -1.388591
    14 17.848171 0.000000 0.000000 0.000000 0.000000 1.054725
    15 16.525253 0.000000 0.000000 -0.233054 -0.042508 -0.710646
    16 11.479830 -0.000111 0.000311 -0.853065 0.197797 -0.014432
  time 5
    0 -13.388978 -17.566663 37.543449 1.737418 0.006807 -0.028939
    1 0.000005 3.345128 -2.981901 1.575039 0.102077 1.583176
    2 7.493127 0.546892 -0.085940 -0.061900 0.037092 0.363024
    3 10.811197 1.553865 -1.726666 -1.475696 1.363159 3.381776
    4 6.028143 0.000000 0.000000 1.669639 0.549593 -0.794739
    5 11.692554 0.000000 0.000008 0.000000 0.000000 -1.688283
    6 10.506494 1.374166 2.132978 1.718580 -1.431312 3.058863
    7 6.028142 0.000000 0.000000 -1.318658 0.490631 -0.908070
    8 11.692558 0.000000 0.000001 0.000000 0.000000 -1.700202
    9 14.563218 3.436124 0.605487 3.227615 -0.020374 -0.263064
    10 3.890452 -0.148446 -0.000003 -1.404584 -0.550887 -1.828573
    11 17.848175 0.000000 0.000000 0.000000 0.000000 0.351598
    12 16.525248 0.000000 0.000000 -0.015857 -0.371446 -1.061635
    13 -3.890452 0.148446 0.000007 -1.234661 -0.274895 -1.410147
    14 17.848171 0.000000 0.000000 0.000000 0.000000 1.140117
    15 16.525253 0.000000 0.000000 -0.197096 0.016118 -0.690807
    16 11.479830 -0.000111 0.000311 -0.852096 0.181100 -0.014348
  time 6
    0 -16.388970 -21.012807 36.723111 1.732888 -0.003452 -0.011710
    1 0.000005 3.345128 -2.981901 1.575098 0.102077 1.581726
    2 7.493127 0.550798 -0.042970 -0.080956 0.015928 0.362625
    3 10.811197 1.518708 -1.757917 -1.413659 1.354806 3.436336
    4 6.028143 0.000000 0.000000 1.661327 0.456032 -0.794460
    5 11.692554 0.000000 0.000008 0.000000 0.000000 -1.748000
    6 10.526026 1.393698 2.105634 1.829564 -1.433793 2.942822
    7 6.028142 0.000000 0.000000 -1.342115 0.457744 -0.902869
    8 11.692558 0.000000 0.000001 0.000000 0.000000 -1.803407
    9 14.586656 3.412686 0.531266 3.211662 -0.003452 -0.268764
    10 3.890452 -0.148446 -0.000003 -1.402685 -0.556274 -1.822401
    11 17.848175 0.000000 0.000000 0.000000 0.000000 0.507892
    12 16.525248 0.000000 0.000000 -0.047315 -0.396693 -1.080675
    13 -3.890452 0.148446 0.000007 -1.199283 -0.352589 -1.468343
    14 17.848171 0.000000 0.000000 0.000000 0.000000 1.287881
    15 16.525253 0.000000 0.000000 -0.139186 0.074569 -0.711596
    16 11.479830 -0.000111 0.000311 -0.851773 0.175880 -0.014324
  time 7
    0 -19.388961 -24.458951 36.086373 1.719513 -0.014981 0.008049
    1 0.000005 3.345128 -2.981901 1.574979 0.102077 1.579533
    2 7.489221 0.574236 0.000000 -0.100838 -0.000156 0.385899
    3 10.815104 1.475738 -1.789168 -1.348005 1.345985 3.493639
    4 6.028143 0.000000 0.000000 1.665165 0.347198 -0.780146
    5 11.692554 0.000000 0.000008 0.000000 0.000000 -1.814373
    6 10.541651 1.417136 2.074383 1.952557 -1.433194 2.814226
    7 6.028142 0.000000 0.000000 -1.381399 0.362375 -0.904349
    8 11.692558 0.000000 0.000001 0.000000 0.000000 -1.904744
    9 14.610094 3.381435 0.453139 3.197024 0.013243 -0.275324
    10 3.890452 -0.148446 -0.000003 -1.454604 -0.567114 -1.741785
    11 17.848175 0.000000 0.000000 0.000000 0.000000 0.767334
    12 16.525248 0.000000 0.000000 -0.079146 -0.311633 -1.313396
    13 -3.890452 0.148446 0.000007 -1.145487 -0.461966 -1.560818
    14 17.848171 0.000000 0.000000 0.000000 0.000000 1.435695
    15 16.525253 0.000000 0.000000 -0.077419 0.123305 -0.721337
    16 11.479830 -0.000111 0.000311 -0.852339 0.185015 -0.014360
  time 8
    0 -22.388953 -27.905095 35.504324 1.702806 -0.024592 0.028831
    1 0.000005 3.345128 -2.981901 1.574715 0.102077 1.576920
    2 7.485314 0.609394 0.035157 -0.119031 -0.012584 0.417576
    3 10.819010 1.436674 -1.816513 -1.288515 1.337740 3.545739
    4 6.028143 0.000000 0.000000 1.673658 0.237604 -0.768273
    5 11.692554 0.000000 0.000008 0.000000 0.000000 -1.869424
    6 10.557277 1.440575 2.050945 2.063919 -1.429814 2.698104
    7 6.028142 0.000000 0.000000 -1.418755 0.216260 -0.902911
    8 11.692558 0.000000 0.000001 0.000000 0.000000 -1.969247
    9 14.633533 3.354090 0.386731 3.184101 0.028823 -0.281137
    10 3.890452 -0.148446 -0.000003 -1.525110 -0.497684 -1.628935
    11 17.848175 0.000000 0.000000 0.000000 0.000000 0.874668
    12 16.525248 0.000000 0.000000 -0.116364 -0.205793 -1.471116
    13 -3.890452 0.148446 0.000007 -1.071722 -0.574840 -1.686162
    14 17.848171 0.000000 0.000000 0.000000 0.000000 1.554995
    15 16.525253 0.000000 0.000000 -0.041710 0.148347 -0.757005
    16 11.479830 -0.000111 0.000311 -0.853308 0.201343 -0.014456
  time 9
    0 -25.388945 -31.351239 35.340256 1.694345 -0.029182 0.049129
    1 0.000005 3.345128 -2.981901 1.574296 0.102077 1.574248
    2 7.481408 0.625019 0.058596 -0.132226 -0.019787 0.434397
    3 10.822917 1.405423 -1.836044 -1.242516 1.331556 3.587082
    4 6.028143 0.000000 0.000000 1.680381 0.140758 -0.764053
    5 11.692554 0.000000 0.000008 0.000000 0.000000 -1.905690
    6 10.565089 1.460106 2.031413 2.144354 -1.425104 2.615114
    7 6.028142 0.000000 0.000000 -1.437433 0.063207 -0.900818
    8 11.692558 0.000000 0.000001 0.000000 0.000000 -1.990045
    9 14.645252 3.342371 0.335948 3.175079 0.041922 -0.284515
    10 3.890452 -0.148446 -0.000003 -1.606742 -0.365142 -1.498408
    11 17.848175 0.000000 0.000000 0.000000 0.000000 0.830259
    12 16.525248 0.000000 0.000000 -0.159581 -0.076763 -1.546225
    13 -3.890452 0.148446 0.000007 -0.986993 -0.657639 -1.828204
    14 17.848171 0.000000 0.000000 0.000000 0.000000 1.587419
    15 16.525253 0.000000 0.000000 -0.051343 0.131357 -0.805770
    16 11.479830 -0.000111 0.000311 -0.854680 0.224464 -0.014612
  time 10
    0 -28.388937 -34.797383 35.703549 1.696934 -0.029398 0.073464
    1 0.000005 3.345128 -2.981901 1.573253 0.102077 1.570928
    2 7.481408 0.621113 0.066408 -0.140531 -0.022315 0.431150
    3 10.822917 1.389798 -1.847764 -1.204548 1.327553 3.623573
    4 6.028143 0.000000 0.000000 1.686808 0.041165 -0.766006
    5 11.692554 0.000000 0.000008 0.000000 0.000000 -1.933247
    6 10.565089 1.479638 2.015787 2.199594 -1.419496 2.560096
    7 6.028142 0.000000 0.000000 -1.428429 -0.104476 -0.917436
    8 11.692558 0.000000 0.000001 0.000000 0.000000 -1.979254
    9 14.645252 3.342371 0.308603 3.169087 0.050443 -0.284742
    10 3.890452 -0.148446 -0.000003 -1.698180 -0.249225 -1.358325
    11 17.848175 0.000000 0.000000 0.000000 0.000000 0.747876
    12 16.525248 0.000000 0.000000 -0.198172 0.110041 -1.430268
    13 -3.890452 0.148446 0.000007 -0.895471 -0.711353 -1.970959
    14 17.848171 0.000000 0.000000 0.000000 0.000000 1.528511
    15 16.525253 0.000000 0.000000 -0.077285 0.079150 -0.828134
    16 11.479830 -0.000111 0.000311 -0.856497 0.254813 -0.014864
  time 11
    0 -31.388929 -38.243527 36.332474 1.704328 -0.028356 0.094462
    1 0.000005 3.345128 -2.981901 1.571503 0.102077 1.566733
    2 7.485314 0.609394 0.066408 -0.146092 -0.021812 0.420254
    3 10.826823 1.374172 -1.859483 -1.167831 1.324892 3.660790
    4 6.028143 0.000000 0.000000 1.691077 -0.065738 -0.766913
    5 11.692554 0.000000 0.000008 0.000000 0.000000 -1.954957
    6 10.557277 1.499170 2.004068 2.241061 -1.412760 2.520717
    7 6.028142 0.000000 0.000000 -1.416055 -0.293560 -0.940334
    8 11.692558 0.000000 0.000001 0.000000 0.000000 -1.928435
    9 14.637439 3.354090 0.289071 3.163754 0.052552 -0.282891
    10 3.890452 -0.148446 -0.000003 -1.799717 -0.106906 -1.231980
    11 17.848175 0.000000 0.000000 0.000000 0.000000 0.556537
    12 16.525248 0.000000 0.000000 -0.164684 0.328327 -1.158365
    13 -3.890452 0.148446 0.000007 -0.836523 -0.714942 -2.065099
    14 17.848171 0.000000 0.000000 0.000000 0.000000 1.383866
    15 16.525253 0.000000 0.000000 -0.089681 0.014390 -0.854328
    16 11.479830 -0.000111 0.000311 -0.858677 0.290415 -0.015235
  time 12
    0 -34.388921 -41.689671 37.051246 1.714335 -0.026462 0.106414
    1 0.000005 3.345128 -2.981901 1.569562 0.102077 1.562527
    2 7.489221 0.589862 0.054689 -0.148537 -0.018720 0.405028
    3 10.826823 1.370266 -1.863389 -1.136164 1.324041 3.694141
    4 6.028143 0.000000 0.000000 1.690760 -0.158688 -0.763443
    5 11.692554 0.000000 0.000008 0.000000 0.000000 -1.966340
    6 10.549464 1.518702 2.000162 2.264807 -1.405989 2.499919
    7 6.028142 0.000000 0.000000 -1.401569 -0.465708 -0.969152
    8 11.692558 0.000000 0.000001 0.000000 0.000000 -1.848741
    9 14.629626 3.369716 0.281259 3.159760 0.050515 -0.279676
    10 3.890452 -0.148446 -0.000003 -1.820583 -0.056463 -1.210056
    11 17.848175 0.000000 0.000000 0.000000 0.000000 0.498999
    12 16.525248 0.000000 0.000000 -0.043301 0.396196 -0.914161
    13 -3.890452 0.148446 0.000007 -0.823872 -0.681526 -2.092668
    14 17.848171 0.000000 0.000000 0.000000 0.000000 1.173184
    15 16.525253 0.000000 0.000000 -0.080528 -0.050258 -0.888986
    16 11.479830 -0.000111 0.000311 -0.860937 0.327054 -0.015715
  time 13
    0 -37.388913 -45.135815 37.691891 1.724426 -0.023897 0.113952
    1 0.000005 3.345128 -2.981901 1.567956 0.102077 1.559219
    2 7.493127 0.574236 0.035157 -0.147446 -0.013399 0.388762
    3 10.830729 1.370266 -1.859483 -1.113346 1.325539 3.719171
    4 6.028143 0.000000 0.000000 1.689669 -0.224934 -0.757864
    5 11.692554 0.000000 0.000008 0.000000 0.000000 -1.970197
    6 10.533839 1.530421 2.000162 2.268292 -1.400272 2.499415
    7 6.028142 0.000000 0.000000 -1.368639 -0.594572 -1.024145
    8 11.692558 0.000000 0.000001 0.000000 0.000000 -1.766574
    9 14.617907 3.389248 0.292978 3.157739 0.046093 -0.275892
    10 3.890452 -0.148446 -0.000003 -1.809368 -0.011872 -1.229082
    11 17.848175 0.000000 0.000000 0.000000 0.000000 0.445071
    12 16.525248 0.000000 0.000000 0.029658 0.381129 -0.801027
    13 -3.890452 0.148446 0.000007 -0.843271 -0.616363 -2.064674
    14 17.848171 0.000000 0.000000 0.000000 0.000000 0.913644
    15 16.525253 0.000000 0.000000 -0.051650 -0.103813 -0.922753
    16 11.479830 -0.000111 0.000311 -0.863037 0.360548 -0.016242
  time 14
    0 -40.388904 -48.581959 38.066902 1.732264 -0.020853 0.113629
    1 0.000005 3.345128 -2.981901 1.567213 0.102077 1.557697
    2 7.493127 0.558611 0.015625 -0.142389 -0.006244 0.374761
    3 10.838542 1.374172 -1.847764 -1.103450 1.329986 3.731124
    4 6.028143 0.000000 0.000000 1.686581 -0.249410 -0.747630
    5 11.692554 0.000000 0.000008 0.000000 0.000000 -1.973120
    6 10.522119 1.534328 2.007975 2.248850 -1.396485 2.520858
    7 6.028142 0.000000 0.000000 -1.350917 -0.639008 -1.049919
    8 11.692558 0.000000 0.000001 0.000000 0.000000 -1.733117
    9 14.610094 3.400967 0.324229 3.157293 0.037584 -0.272385
    10 3.890452 -0.148446 -0.000003 -1.778382 -0.042464 -1.257422
    11 17.848175 0.000000 0.000000 0.000000 0.000000 0.539537
    12 16.525248 0.000000 0.000000 0.068711 0.322681 -0.801430
    13 -3.890452 0.148446 0.000007 -0.883572 -0.526664 -1.997407
    14 17.848171 0.000000 0.000000 0.000000 0.000000 0.623808
    15 16.525253 0.000000 0.000000 -0.013139 -0.140107 -0.938731
    16 11.479830 -0.000111 0.000311 -0.864732 0.386647 -0.016697
  time 15
    0 -43.388896 -52.028103 37.547355 1.743937 -0.017438 0.095969
    1 0.000005 3.345128 -2.981901 1.567536 0.102077 1.558452
    2 7.497033 0.546892 -0.023438 -0.130896 0.009084 0.365246
    3 10.846355 1.385891 -1.828232 -1.112482 1.338075 3.724117
    4 6.028143 0.000000 0.000000 1.685150 -0.210386 -0.724267
    5 11.692554 0.000000 0.000008 0.000000 0.000000 -1.978097
    6 10.506494 1.522608 2.027506 2.201190 -1.395383 2.569568
    7 6.028142 0.000000 0.000000 -1.363609 -0.589269 -1.042899
    8 11.692558 0.000000 0.000001 0.000000 0.000000 -1.774893
    9 14.602282 3.408780 0.375011 3.157809 0.019583 -0.269381
    10 3.890452 -0.148446 -0.000003 -1.752020 -0.159478 -1.286934
    11 17.848175 0.000000 0.000000 0.000000 0.000000 0.815718
    12 16.525248 0.000000 0.000000 0.083112 0.244481 -0.919432
    13 -3.890452 0.148446 0.000007 -0.897363 -0.531058 -1.998036
    14 17.848171 0.000000 0.000000 0.000000 0.000000 0.551089
    15 16.525253 0.000000 0.000000 -0.000379 -0.161567 -0.878265
    16 11.479830 -0.000111 0.000311 -0.864853 0.388621 -0.016733
  time 16
    0 -46.388888 -55.474247 36.656703 1.760392 -0.013722 0.064796
    1 0.000005 3.345128 -2.981901 1.568579 0.102077 1.560873
    2 7.493127 0.550798 -0.078127 -0.113866 0.029422 0.364448
    3 10.854167 1.409330 -1.804793 -1.140531 1.349053 3.698641
    4 6.028143 0.000000 0.000000 1.690623 -0.113150 -0.692484
    5 11.692554 0.000000 0.000008 0.000000 0.000000 -1.978283
    6 10.490868 1.503077 2.054851 2.128544 -1.396102 2.642945
    7 6.028142 0.000000 0.000000 -1.381130 -0.475412 -1.042709
    8 11.692558 0.000000 0.000001 0.000000 0.000000 -1.856758
    9 14.590562 3.416592 0.445326 3.160112 -0.003619 -0.266588
    10 3.890452 -0.148446 -0.000003 -1.721414 -0.293417 -1.341666
    11 17.848175 0.000000 0.000000 0.000000 0.000000 1.101523
    12 16.525248 0.000000 0.000000 0.071830 0.144186 -1.043187
    13 -3.890452 0.148446 0.000007 -0.930872 -0.534462 -1.975817
    14 17.848171 0.000000 0.000000 0.000000 0.000000 0.558366
    15 16.525253 0.000000 0.000000 0.025736 -0.175340 -1.011641
    16 11.479830 -0.000111 0.000311 -0.863763 0.371690 -0.016434
  time 17
    0 -49.388880 -58.920391 36.164500 1.771730 -0.009767 0.027485
    1 0.000005 3.345128 -2.981901 1.570041 0.102077 1.564252
    2 7.489221 0.566424 -0.121097 -0.093863 0.047890 0.385172
    3 10.861980 1.436674 -1.773543 -1.183277 1.361254 3.658822
    4 6.028143 0.000000 0.000000 1.706884 0.026023 -0.657858
    5 11.692554 0.000000 0.000008 0.000000 0.000000 -1.963914
    6 10.479149 1.479638 2.082196 2.040740 -1.397084 2.731417
    7 6.028142 0.000000 0.000000 -1.398383 -0.330241 -1.042371
    8 11.692558 0.000000 0.000001 0.000000 0.000000 -1.937779
    9 14.582750 3.420499 0.527360 3.163542 -0.029147 -0.264314
    10 3.890452 -0.148446 -0.000003 -1.670702 -0.419243 -1.433057
    11 17.848175 0.000000 0.000000 0.000000 0.000000 1.324821
    12 16.525248 0.000000 0.000000 0.030792 0.023869 -1.103506
    13 -3.890452 0.148446 0.000007 -0.992350 -0.535947 -1.893857
    14 17.848171 0.000000 0.000000 0.000000 0.000000 0.734347
    15 16.525253 0.000000 0.000000 0.010788 -0.148428 -1.291104
    16 11.479830 -0.000111 0.000311 -0.862472 0.351379 -0.016086
  time 18
    0 -52.388872 -62.366535 35.742612 1.768206 -0.005753 -0.011387
    1 0.000005 3.345128 -2.981901 1.571587 0.102077 1.567872
    2 7.485314 0.589862 -0.160161 -0.072663 0.065747 0.413431
    3 10.865887 1.467925 -1.738385 -1.235055 1.373082 3.610167
    4 6.028143 0.000000 0.000000 1.722600 0.167609 -0.613922
    5 11.692554 0.000000 0.000008 0.000000 0.000000 -1.931878
    6 10.463524 1.448387 2.113447 1.949282 -1.397252 2.823557
    7 6.028142 0.000000 0.000000 -1.405073 -0.169034 -1.049242
    8 11.692558 0.000000 0.000001 0.000000 0.000000 -1.988417
    9 14.571031 3.420499 0.609394 3.168688 -0.049269 -0.262431
    10 3.890452 -0.148446 -0.000003 -1.613980 -0.564421 -1.538451
    11 17.848175 0.000000 0.000000 0.000000 0.000000 1.543307
    12 16.525248 0.000000 0.000000 -0.031571 -0.086757 -1.110013
    13 -3.890452 0.148446 0.000007 -1.074617 -0.482480 -1.784056
    14 17.848171 0.000000 0.000000 0.000000 0.000000 0.820134
    15 16.525253 0.000000 0.000000 -0.016497 -0.120470 -1.465999
    16 11.479830 -0.000111 0.000311 -0.860937 0.326920 -0.015715
  time 19
    0 -55.388864 -65.812679 35.320725 1.740162 -0.002133 -0.035938
    1 0.000005 3.345128 -2.981901 1.572090 0.102077 1.571000
    2 7.477502 0.613300 -0.199225 -0.053343 0.079961 0.431207
    3 10.873699 1.495270 -1.711041 -1.287401 1.383221 3.560903
    4 6.028143 0.000000 0.000000 1.710472 0.274346 -0.609267
    5 11.692554 0.000000 0.000008 0.000000 0.000000 -1.906312
    6 10.447898 1.424949 2.140791 1.867189 -1.396245 2.906486
    7 6.028142 0.000000 0.000000 -1.396572 -0.000450 -1.037677
    8 11.692558 0.000000 0.000001 0.000000 0.000000 -2.001077
    9 14.563218 3.424405 0.683615 3.249467 -0.086768 -0.262707
    10 3.890452 -0.148446 -0.000003 -1.562977 -0.693904 -1.629974
    11 17.848175 0.000000 0.000000 0.000000 0.000000 1.697508
    12 16.525248 0.000000 0.000000 -0.095904 -0.151070 -1.056848
    13 -3.890452 0.148446 0.000007 -1.148017 -0.345070 -1.662788
    14 17.848171 0.000000 0.000000 0.000000 0.000000 0.806719
    15 16.525253 0.000000 0.000000 -0.044147 -0.091831 -1.595663
    16 11.479830 -0.000111 0.000311 -0.859242 0.299984 -0.015355
  time 20
    0 -58.388856 -69.258823 35.840272 1.696766 0.001750 0.027647
    1 0.000005 3.345128 -2.981901 1.572606 0.102077 1.573852
    2 7.477502 0.617206 -0.214850 -0.041754 0.081291 0.433087
    3 10.858074 1.534333 -1.691509 -1.387702 1.385882 3.465867
    4 6.028143 0.000000 0.000000 1.746537 0.283976 -0.655121
    5 11.692554 0.000000 0.000008 0.000000 0.000000 -1.861898
    6 10.451805 1.389792 2.160323 1.766052 -1.403784 3.009730
    7 6.028142 0.000000 0.000000 -1.334201 0.174339 -0.919551
    8 11.692558 0.000000 0.000001 0.000000 0.000000 -1.966715
    9 14.551499 3.432218 0.722678 3.196695 -0.051414 -0.259313
    10 3.890452 -0.148446 -0.000003 -1.563960 -0.830238 -1.554358
    11 17.848175 0.000000 0.000000 0.000000 0.000000 1.635106
    12 16.525248 0.000000 0.000000 -0.035033 -0.024686 -1.271283
    13 -3.890452 0.148446 0.000007 -1.118634 -0.194417 -1.557013
    14 17.848171 0.000000 0.000000 0.000000 0.000000 0.769444
    15 16.525253 0.000000 0.000000 -0.112745 -0.013742 -1.491659
    16 11.479830 -0.000111 0.000311 -0.857950 0.279105 -0.015115
end
