// Created by Crowbar 0.74
version 1
nodes
  0 "ValveBiped.Bip01" -1
  1 "ValveBiped.Bip01_Spine" 0
  2 "ValveBiped.Bip01_Spine2" 1
  3 "ValveBiped.Bip01_R_Clavicle" 2
  4 "ValveBiped.Bip01_R_UpperArm" 3
  5 "ValveBiped.Bip01_R_Forearm" 4
  6 "ValveBiped.Bip01_L_Clavicle" 2
  7 "ValveBiped.Bip01_L_UpperArm" 6
  8 "ValveBiped.Bip01_L_Forearm" 7
  9 "ValveBiped.Bip01_Head1" 2
  10 "ValveBiped.Bip01_L_Thigh" 0
  11 "ValveBiped.Bip01_L_Calf" 10
  12 "ValveBiped.Bip01_L_Foot" 11
  13 "ValveBiped.Bip01_R_Thigh" 0
  14 "ValveBiped.Bip01_R_Calf" 13
  15 "ValveBiped.Bip01_R_Foot" 14
  16 "ValveBiped.Bip01_R_Hand" 5
end
skeleton
  time 0
    0 1.610982 -0.335943 36.910617 1.560142 0.007598 -0.000134
    1 0.000005 3.345128 -2.981901 1.573816 0.102077 1.574631
    2 7.446251 0.781274 -0.195318 -0.036529 0.080033 0.476315
    3 10.854167 1.561678 -1.671977 -1.468326 1.388554 3.389018
    4 6.028143 0.000000 0.000000 1.679495 0.087167 -0.696058
    5 11.692554 0.000000 0.000008 0.000000 0.000000 -1.928893
    6 10.451805 1.370260 2.175949 1.684924 -1.406384 3.092398
    7 6.028142 0.000000 0.000000 -1.107517 0.487424 -1.011882
    8 11.692558 0.000000 0.000001 0.000000 0.000000 -2.035740
    9 14.543686 3.436124 0.761742 3.191855 -0.066107 -0.211913
    10 3.890452 -0.148446 -0.000003 -1.523301 -0.446343 -1.640748
    11 17.848175 0.000000 0.000000 0.000000 0.000000 1.427709
    12 16.525248 0.000000 0.000000 -0.102455 -0.080977 -1.045554
    13 -3.890452 0.148446 0.000007 -1.192125 -0.280217 -1.430089
    14 17.848171 0.000000 0.000000 0.000000 0.000000 0.514111
    15 16.525253 0.000000 0.000000 -0.229504 0.124098 -1.237112
    16 11.479830 -0.000111 0.000311 -0.856699 0.258326 -0.014900
  time 1
    0 -1.267938 2.872695 37.652827 1.567920 0.008952 -0.026031
    1 0.000005 3.345128 -2.981901 1.574008 0.102077 1.574895
    2 7.446251 0.777368 -0.175787 -0.036805 0.073561 0.467840
    3 10.838542 1.585116 -1.664164 -1.533843 1.385546 3.327871
    4 6.028143 0.000000 0.000000 1.680994 0.166792 -0.677333
    5 11.692554 0.000000 0.000008 0.000000 0.000000 -1.880310
    6 10.459617 1.350728 2.183761 1.616310 -1.412053 3.163336
    7 6.028142 0.000000 0.000000 -1.071033 0.573928 -1.007907
    8 11.692558 0.000000 0.000001 0.000000 0.000000 -2.029772
    9 14.539780 3.447843 0.769555 3.210182 -0.061625 -0.199718
    10 3.890452 -0.148446 -0.000003 -1.491198 -0.380271 -1.714529
    11 17.848175 0.000000 0.000000 0.000000 0.000000 1.308240
    12 16.525248 0.000000 0.000000 -0.186621 -0.063516 -0.973726
    13 -3.890452 0.148446 0.000007 -1.272273 -0.320286 -1.352987
    14 17.848171 0.000000 0.000000 0.000000 0.000000 0.453372
    15 16.525253 0.000000 0.000000 -0.183971 0.112259 -0.983695
    16 11.479830 -0.000111 0.000311 -0.855407 0.236979 -0.014708
  time 2
    0 -4.146858 6.081332 38.289565 1.575758 0.009180 -0.042721
    1 0.000005 3.345128 -2.981901 1.574248 0.102077 1.575230
    2 7.450157 0.761742 -0.156255 -0.039489 0.065759 0.449324
    3 10.826823 1.592929 -1.671977 -1.549927 1.380009 3.313645
    4 6.028143 0.000000 0.000000 1.673250 0.226507 -0.668476
    5 11.692554 0.000000 0.000008 0.000000 0.000000 -1.837140
    6 10.471337 1.346822 2.175949 1.601991 -1.417997 3.179056
    7 6.028142 0.000000 0.000000 -1.044642 0.640917 -1.004503
    8 11.692558 0.000000 0.000001 0.000000 0.000000 -2.019102
    9 14.535873 3.455656 0.742210 3.221342 -0.059216 -0.186809
    10 3.890452 -0.148446 -0.000003 -1.449153 -0.303259 -1.787778
    11 17.848175 0.000000 0.000000 0.000000 0.000000 1.224653
    12 16.525248 0.000000 0.000000 -0.274995 -0.059842 -0.962942
    13 -3.890452 0.148446 0.000007 -1.348020 -0.455994 -1.311387
    14 17.848171 0.000000 0.000000 0.000000 0.000000 0.604354
    15 16.525253 0.000000 0.000000 -0.135387 0.115476 -0.824421
    16 11.479830 -0.000111 0.000311 -0.854196 0.216400 -0.014552
  time 3
    0 -7.025778 9.289970 38.652858 1.582864 0.006544 -0.042829
    1 0.000005 3.345128 -2.981901 1.574487 0.102077 1.575578
    2 7.457970 0.742210 -0.128910 -0.047123 0.055333 0.429583
    3 10.819010 1.581210 -1.695415 -1.524903 1.372915 3.337199
    4 6.028143 0.000000 0.000000 1.663393 0.262952 -0.672817
    5 11.692554 0.000000 0.000008 0.000000 0.000000 -1.806286
    6 10.486962 1.358541 2.160323 1.641337 -1.424205 3.139133
    7 6.028142 0.000000 0.000000 -1.030223 0.683676 -0.999493
    8 11.692558 0.000000 0.000001 0.000000 0.000000 -2.011446
    9 14.543686 3.451750 0.687521 3.223034 -0.057490 -0.177878
    10 3.890452 -0.148446 -0.000003 -1.395805 -0.195124 -1.850873
    11 17.848175 0.000000 0.000000 0.000000 0.000000 1.071917
    12 16.525248 0.000000 0.000000 -0.355027 -0.110622 -0.972435
    13 -3.890452 0.148446 0.000007 -1.413055 -0.624934 -1.283257
    14 17.848171 0.000000 0.000000 0.000000 0.000000 0.827312
    15 16.525253 0.000000 0.000000 -0.081257 0.145415 -0.702182
    16 11.479830 -0.000111 0.000311 -0.853065 0.197797 -0.014432
  time 4
    0 -9.904698 12.498608 38.465352 1.588114 -0.000671 -0.029531
    1 0.000005 3.345128 -2.981901 1.574679 0.102077 1.575830
    2 7.461876 0.726585 -0.089846 -0.061745 0.037272 0.414870
    3 10.815104 1.549959 -1.726666 -1.470578 1.364477 3.386252
    4 6.028143 0.000000 0.000000 1.650562 0.275199 -0.692083
    5 11.692554 0.000000 0.000008 0.000000 0.000000 -1.794654
    6 10.506494 1.374166 2.132978 1.729750 -1.429467 3.047457
    7 6.028142 0.000000 0.000000 -1.035471 0.702897 -0.995052
    8 11.692558 0.000000 0.000001 0.000000 0.000000 -2.010903
    9 14.563218 3.436124 0.609394 3.213424 -0.055213 -0.177310
    10 3.890452 -0.148446 -0.000003 -1.340714 -0.075417 -1.892155
    11 17.848175 0.000000 0.000000 0.000000 0.000000 0.843650
    12 16.525248 0.000000 0.000000 -0.398035 -0.244641 -0.970956
    13 -3.890452 0.148446 0.000007 -1.468652 -0.774349 -1.272590
    14 17.848171 0.000000 0.000000 0.000000 0.000000 1.031360
    15 16.525253 0.000000 0.000000 0.000408 0.202139 -0.583803
    16 11.479830 -0.000111 0.000311 -0.852096 0.181200 -0.014348
  time 5
    0 -12.783617 15.707245 37.754393 1.590115 -0.011230 -0.011764
    1 0.000005 3.345128 -2.981901 1.574799 0.102077 1.575913
    2 7.461876 0.722678 -0.046876 -0.080752 0.016539 0.412064
    3 10.815104 1.510895 -1.757917 -1.408040 1.355345 3.441258
    4 6.028143 0.000000 0.000000 1.637185 0.266292 -0.717485
    5 11.692554 0.000000 0.000008 0.000000 0.000000 -1.805166
    6 10.526026 1.397605 2.105634 1.841805 -1.432415 2.930347
    7 6.028142 0.000000 0.000000 -1.079248 0.677577 -1.005772
    8 11.692558 0.000000 0.000001 0.000000 0.000000 -2.021995
    9 14.586656 3.412686 0.531266 3.201864 -0.047279 -0.182879
    10 3.890452 -0.148446 -0.000003 -1.313615 0.022245 -1.885385
    11 17.848175 0.000000 0.000000 0.000000 0.000000 0.592786
    12 16.525248 0.000000 0.000000 -0.365265 -0.387979 -0.966734
    13 -3.890452 0.148446 0.000007 -1.515473 -0.877941 -1.291751
    14 17.848171 0.000000 0.000000 0.000000 0.000000 1.196302
    15 16.525253 0.000000 0.000000 0.121235 0.239274 -0.475136
    16 11.479830 -0.000111 0.000311 -0.851773 0.175880 -0.014324
  time 6
    0 -15.662537 18.915883 36.863740 1.580252 -0.022327 0.008965
    1 0.000005 3.345128 -2.981901 1.574799 0.102077 1.575734
    2 7.457970 0.738304 0.000000 -0.100695 0.000252 0.433671
    3 10.815104 1.471832 -1.789168 -1.345753 1.346153 3.495421
    4 6.028143 0.000000 0.000000 1.629714 0.243301 -0.741580
    5 11.692554 0.000000 0.000008 0.000000 0.000000 -1.833034
    6 10.541651 1.421043 2.074383 1.960326 -1.432343 2.806306
    7 6.028142 0.000000 0.000000 -1.146013 0.605599 -1.024124
    8 11.692558 0.000000 0.000001 0.000000 0.000000 -2.033570
    9 14.614001 3.381435 0.453139 3.195873 -0.032322 -0.189732
    10 3.890452 -0.148446 -0.000003 -1.330973 0.018786 -1.843728
    11 17.848175 0.000000 0.000000 0.000000 0.000000 0.530174
    12 16.525248 0.000000 0.000000 -0.254819 -0.457972 -1.117382
    13 -3.890452 0.148446 0.000007 -1.536649 -0.924724 -1.355654
    14 17.848171 0.000000 0.000000 0.000000 0.000000 1.339710
    15 16.525253 0.000000 0.000000 0.254957 0.222347 -0.416214
    16 11.479830 -0.000111 0.000311 -0.852339 0.185015 -0.014360
  time 7
    0 -18.541457 22.124520 36.144969 1.561808 -0.031124 0.031093
    1 0.000005 3.345128 -2.981901 1.574643 0.102077 1.575206
    2 7.454063 0.773461 0.035157 -0.118971 -0.012416 0.465319
    3 10.819010 1.436674 -1.816513 -1.290017 1.337872 3.544028
    4 6.028143 0.000000 0.000000 1.623605 0.202068 -0.766407
    5 11.692554 0.000000 0.000008 0.000000 0.000000 -1.872535
    6 10.557277 1.440575 2.050945 2.066376 -1.429539 2.695585
    7 6.028142 0.000000 0.000000 -1.209961 0.508531 -1.032074
    8 11.692558 0.000000 0.000001 0.000000 0.000000 -2.034293
    9 14.633533 3.354090 0.382824 3.193899 -0.014405 -0.196747
    10 3.890452 -0.148446 -0.000003 -1.388388 -0.073222 -1.760943
    11 17.848175 0.000000 0.000000 0.000000 0.000000 0.628093
    12 16.525248 0.000000 0.000000 -0.164655 -0.374143 -1.373257
    13 -3.890452 0.148446 0.000007 -1.525708 -0.905912 -1.459493
    14 17.848171 0.000000 0.000000 0.000000 0.000000 1.451040
    15 16.525253 0.000000 0.000000 0.338713 0.154861 -0.430292
    16 11.479830 -0.000111 0.000311 -0.853308 0.201343 -0.014456
  time 8
    0 -21.420377 25.333158 35.941837 1.551501 -0.034803 0.053167
    1 0.000005 3.345128 -2.981901 1.574296 0.102077 1.574248
    2 7.446251 0.789087 0.058596 -0.132226 -0.019787 0.481870
    3 10.822917 1.405423 -1.836044 -1.245451 1.331783 3.584058
    4 6.028143 0.000000 0.000000 1.617336 0.140257 -0.790328
    5 11.692554 0.000000 0.000008 0.000000 0.000000 -1.917882
    6 10.565089 1.460106 2.031413 2.144354 -1.425104 2.615114
    7 6.028142 0.000000 0.000000 -1.259791 0.400166 -1.025308
    8 11.692558 0.000000 0.000001 0.000000 0.000000 -2.019885
    9 14.645252 3.342371 0.335948 3.194486 0.002373 -0.202447
    10 3.890452 -0.148446 -0.000003 -1.443658 -0.175804 -1.663270
    11 17.848175 0.000000 0.000000 0.000000 0.000000 0.672240
    12 16.525248 0.000000 0.000000 -0.164878 -0.262472 -1.424351
    13 -3.890452 0.148446 0.000007 -1.485793 -0.827383 -1.585788
    14 17.848171 0.000000 0.000000 0.000000 0.000000 1.492226
    15 16.525253 0.000000 0.000000 0.340478 0.059941 -0.494025
    16 11.479830 -0.000111 0.000311 -0.854680 0.224464 -0.014612
  time 9
    0 -24.299297 28.541795 36.301223 1.554054 -0.034276 0.073680
    1 0.000005 3.345128 -2.981901 1.573277 0.102077 1.571815
    2 7.450157 0.785180 0.066408 -0.140531 -0.022303 0.478736
    3 10.822917 1.389798 -1.847764 -1.207005 1.327817 3.621042
    4 6.028143 0.000000 0.000000 1.609547 0.065010 -0.811982
    5 11.692554 0.000000 0.000008 0.000000 0.000000 -1.963914
    6 10.565089 1.479638 2.015787 2.199426 -1.419448 2.560257
    7 6.028142 0.000000 0.000000 -1.298019 0.288594 -1.007844
    8 11.692558 0.000000 0.000001 0.000000 0.000000 -1.989804
    9 14.645252 3.342371 0.308603 3.193500 0.013878 -0.205986
    10 3.890452 -0.148446 -0.000003 -1.494727 -0.272235 -1.561415
    11 17.848175 0.000000 0.000000 0.000000 0.000000 0.639810
    12 16.525248 0.000000 0.000000 -0.201977 -0.145273 -1.301564
    13 -3.890452 0.148446 0.000007 -1.454724 -0.717603 -1.700770
    14 17.848171 0.000000 0.000000 0.000000 0.000000 1.465644
    15 16.525253 0.000000 0.000000 0.319352 -0.034172 -0.572399
    16 11.479830 -0.000111 0.000311 -0.856497 0.254813 -0.014864
  time 10
    0 -27.178217 31.750433 36.930149 1.561376 -0.032538 0.091070
    1 0.000005 3.345128 -2.981901 1.571527 0.102077 1.567716
    2 7.450157 0.773461 0.066408 -0.146080 -0.021632 0.469649
    3 10.826823 1.374172 -1.859483 -1.169878 1.325192 3.658681
    4 6.028143 0.000000 0.000000 1.600213 -0.012389 -0.829992
    5 11.692554 0.000000 0.000008 0.000000 0.000000 -2.006338
    6 10.557277 1.499170 2.004068 2.240788 -1.412688 2.520979
    7 6.028142 0.000000 0.000000 -1.330613 0.177965 -0.984629
    8 11.692558 0.000000 0.000001 0.000000 0.000000 -1.946098
    9 14.637439 3.354090 0.289071 3.187320 0.017294 -0.208097
    10 3.890452 -0.148446 -0.000003 -1.541798 -0.278354 -1.466706
    11 17.848175 0.000000 0.000000 0.000000 0.000000 0.413007
    12 16.525248 0.000000 0.000000 -0.230196 -0.047539 -1.078631
    13 -3.890452 0.148446 0.000007 -1.456798 -0.570013 -1.777771
    14 17.848171 0.000000 0.000000 0.000000 0.000000 1.350402
    15 16.525253 0.000000 0.000000 0.317702 -0.117269 -0.631410
    16 11.479830 -0.000111 0.000311 -0.858677 0.290415 -0.015235
  time 11
    0 -30.057136 34.959071 37.652827 1.571180 -0.029914 0.103830
    1 0.000005 3.345128 -2.981901 1.569586 0.102077 1.563186
    2 7.454063 0.757836 0.054689 -0.148501 -0.018300 0.456944
    3 10.826823 1.370266 -1.863389 -1.137870 1.324329 3.692383
    4 6.028143 0.000000 0.000000 1.590424 -0.087375 -0.843015
    5 11.692554 0.000000 0.000008 0.000000 0.000000 -2.042106
    6 10.545558 1.518702 2.000162 2.264492 -1.405917 2.500242
    7 6.028142 0.000000 0.000000 -1.356852 0.074337 -0.958813
    8 11.692558 0.000000 0.000001 0.000000 0.000000 -1.892928
    9 14.629626 3.369716 0.281259 3.178345 0.014370 -0.209332
    10 3.890452 -0.148446 -0.000003 -1.581810 -0.359987 -1.392859
    11 17.848175 0.000000 0.000000 0.000000 0.000000 0.345479
    12 16.525248 0.000000 0.000000 -0.224735 0.062211 -0.831522
    13 -3.890452 0.148446 0.000007 -1.468720 -0.410820 -1.828832
    14 17.848171 0.000000 0.000000 0.000000 0.000000 1.184124
    15 16.525253 0.000000 0.000000 0.333340 -0.176782 -0.675691
    16 11.479830 -0.000111 0.000311 -0.860937 0.327054 -0.015715
  time 12
    0 -32.936056 38.167708 38.289565 1.581151 -0.026630 0.110452
    1 0.000005 3.345128 -2.981901 1.567956 0.102077 1.559435
    2 7.457970 0.742210 0.035157 -0.147375 -0.012788 0.442929
    3 10.830729 1.370266 -1.859483 -1.114779 1.325803 3.717695
    4 6.028143 0.000000 0.000000 1.581386 -0.154958 -0.850024
    5 11.692554 0.000000 0.000008 0.000000 0.000000 -2.069663
    6 10.533839 1.530421 2.000162 2.267977 -1.400200 2.499698
    7 6.028142 0.000000 0.000000 -1.376168 -0.016673 -0.934647
    8 11.692558 0.000000 0.000001 0.000000 0.000000 -1.836503
    9 14.617907 3.389248 0.292978 3.169863 0.007934 -0.210322
    10 3.890452 -0.148446 -0.000003 -1.610361 -0.462138 -1.344874
    11 17.848175 0.000000 0.000000 0.000000 0.000000 0.408770
    12 16.525248 0.000000 0.000000 -0.187442 0.135102 -0.695773
    13 -3.890452 0.148446 0.000007 -1.474852 -0.268676 -1.867715
    14 17.848171 0.000000 0.000000 0.000000 0.000000 1.028638
    15 16.525253 0.000000 0.000000 0.352068 -0.213742 -0.728554
    16 11.479830 -0.000111 0.000311 -0.863037 0.360548 -0.016242
  time 13
    0 -35.814976 41.376346 38.660670 1.588929 -0.022867 0.109429
    1 0.000005 3.345128 -2.981901 1.567213 0.102077 1.557697
    2 7.461876 0.726585 0.015625 -0.142281 -0.005609 0.429968
    3 10.838542 1.374172 -1.847764 -1.104633 1.330201 3.729882
    4 6.028143 0.000000 0.000000 1.574277 -0.209978 -0.850181
    5 11.692554 0.000000 0.000008 0.000000 0.000000 -2.088511
    6 10.522119 1.534328 2.007975 2.248598 -1.396425 2.521120
    7 6.028142 0.000000 0.000000 -1.387401 -0.088609 -0.917246
    8 11.692558 0.000000 0.000001 0.000000 0.000000 -1.785503
    9 14.610094 3.400967 0.324229 3.165187 0.000839 -0.211800
    10 3.890452 -0.148446 -0.000003 -1.627429 -0.549458 -1.324587
    11 17.848175 0.000000 0.000000 0.000000 0.000000 0.575524
    12 16.525248 0.000000 0.000000 -0.144150 0.156354 -0.748561
    13 -3.890452 0.148446 0.000007 -1.466258 -0.145870 -1.896218
    14 17.848171 0.000000 0.000000 0.000000 0.000000 0.887606
    15 16.525253 0.000000 0.000000 0.359397 -0.229385 -0.788753
    16 11.479830 -0.000111 0.000311 -0.864732 0.386647 -0.016697
  time 14
    0 -38.693896 44.584983 38.598168 1.590151 -0.018756 0.102645
    1 0.000005 3.345128 -2.981901 1.567536 0.102077 1.558452
    2 7.461876 0.722678 -0.023438 -0.130764 0.009528 0.419769
    3 10.846355 1.385891 -1.828232 -1.113460 1.338243 3.723085
    4 6.028143 0.000000 0.000000 1.575163 -0.250820 -0.839197
    5 11.692554 0.000000 0.000008 0.000000 0.000000 -2.098713
    6 10.506494 1.522608 2.027506 2.201001 -1.395335 2.569750
    7 6.028142 0.000000 0.000000 -1.383494 -0.132815 -0.918409
    8 11.692558 0.000000 0.000001 0.000000 0.000000 -1.753252
    9 14.602282 3.408780 0.375011 3.167889 -0.003991 -0.213635
    10 3.890452 -0.148446 -0.000003 -1.638085 -0.689981 -1.320296
    11 17.848175 0.000000 0.000000 0.000000 0.000000 0.936024
    12 16.525248 0.000000 0.000000 -0.087279 0.158798 -0.868579
    13 -3.890452 0.148446 0.000007 -1.432932 -0.020836 -1.904711
    14 17.848171 0.000000 0.000000 0.000000 0.000000 0.721674
    15 16.525253 0.000000 0.000000 0.343529 -0.221746 -0.843814
    16 11.479830 -0.000111 0.000311 -0.864853 0.388621 -0.016733
  time 15
    0 -41.572816 47.793621 38.223157 1.585681 -0.014382 0.093923
    1 0.000005 3.345128 -2.981901 1.568579 0.102077 1.560873
    2 7.461876 0.722678 -0.078127 -0.113866 0.029422 0.414998
    3 10.854167 1.409330 -1.804793 -1.141350 1.349173 3.697797
    4 6.028143 0.000000 0.000000 1.586450 -0.264960 -0.822599
    5 11.692554 0.000000 0.000008 0.000000 0.000000 -2.098526
    6 10.490868 1.503077 2.054851 2.128439 -1.396066 2.643066
    7 6.028142 0.000000 0.000000 -1.361044 -0.128560 -0.938558
    8 11.692558 0.000000 0.000001 0.000000 0.000000 -1.761872
    9 14.590562 3.416592 0.449232 3.171226 -0.013351 -0.215210
    10 3.890452 -0.148446 -0.000003 -1.620012 -0.757250 -1.364497
    11 17.848175 0.000000 0.000000 0.000000 0.000000 1.251225
    12 16.525248 0.000000 0.000000 -0.031079 0.119900 -0.961221
    13 -3.890452 0.148446 0.000007 -1.354380 0.117564 -1.879758
    14 17.848171 0.000000 0.000000 0.000000 0.000000 0.497875
    15 16.525253 0.000000 0.000000 0.295060 -0.191601 -0.920229
    16 11.479830 -0.000111 0.000311 -0.863763 0.371690 -0.016434
  time 16
    0 -44.451735 51.002258 37.687984 1.578250 -0.009887 0.084071
    1 0.000005 3.345128 -2.981901 1.570041 0.102077 1.564252
    2 7.457970 0.742210 -0.121097 -0.093863 0.047890 0.435693
    3 10.861980 1.436674 -1.773543 -1.183892 1.361325 3.658189
    4 6.028143 0.000000 0.000000 1.614043 -0.230353 -0.809837
    5 11.692554 0.000000 0.000008 0.000000 0.000000 -2.087329
    6 10.479149 1.479638 2.082196 2.040677 -1.397060 2.731457
    7 6.028142 0.000000 0.000000 -1.331820 -0.081504 -0.964078
    8 11.692558 0.000000 0.000001 0.000000 0.000000 -1.815886
    9 14.582750 3.420499 0.527360 3.169463 -0.031627 -0.216736
    10 3.890452 -0.148446 -0.000003 -1.570081 -0.742818 -1.461905
    11 17.848175 0.000000 0.000000 0.000000 0.000000 1.483154
    12 16.525248 0.000000 0.000000 -0.003292 0.036492 -1.005673
    13 -3.890452 0.148446 0.000007 -1.245466 0.184459 -1.822887
    14 17.848171 0.000000 0.000000 0.000000 0.000000 0.355011
    15 16.525253 0.000000 0.000000 0.219190 -0.165434 -1.056634
    16 11.479830 -0.000111 0.000311 -0.862472 0.351379 -0.016086
  time 17
    0 -47.330655 54.210896 37.078591 1.569370 -0.005393 0.073464
    1 0.000005 3.345128 -2.981901 1.571587 0.102077 1.567872
    2 7.450157 0.761742 -0.160161 -0.072663 0.065747 0.463624
    3 10.865887 1.467925 -1.738385 -1.235396 1.373118 3.609815
    4 6.028143 0.000000 0.000000 1.646088 -0.167966 -0.790293
    5 11.692554 0.000000 0.000008 0.000000 0.000000 -2.065309
    6 10.463524 1.448387 2.113447 1.949261 -1.397240 2.823557
    7 6.028142 0.000000 0.000000 -1.289702 0.014851 -0.992177
    8 11.692558 0.000000 0.000001 0.000000 0.000000 -1.894737
    9 14.571031 3.420499 0.609394 3.166127 -0.052696 -0.218214
    10 3.890452 -0.148446 -0.000003 -1.517246 -0.678741 -1.567366
    11 17.848175 0.000000 0.000000 0.000000 0.000000 1.612196
    12 16.525248 0.000000 0.000000 -0.020991 -0.056809 -1.000672
    13 -3.890452 0.148446 0.000007 -1.154947 0.064531 -1.766593
    14 17.848171 0.000000 0.000000 0.000000 0.000000 0.505646
    15 16.525253 0.000000 0.000000 0.117205 -0.123941 -1.327842
    16 11.479830 -0.000111 0.000311 -0.860937 0.326920 -0.015715
  time 18
    0 -50.209575 57.419534 36.457478 1.560226 -0.001043 0.062320
    1 0.000005 3.345128 -2.981901 1.572941 0.102077 1.571012
    2 7.442344 0.785180 -0.199225 -0.053200 0.082286 0.480973
    3 10.873699 1.495270 -1.711041 -1.287401 1.383221 3.560903
    4 6.028143 0.000000 0.000000 1.669934 -0.098194 -0.759224
    5 11.692554 0.000000 0.000008 0.000000 0.000000 -2.032340
    6 10.447898 1.424949 2.140791 1.867189 -1.396245 2.906486
    7 6.028142 0.000000 0.000000 -1.230684 0.155999 -1.012559
    8 11.692558 0.000000 0.000001 0.000000 0.000000 -1.969428
    9 14.563218 3.424405 0.683615 3.164764 -0.070469 -0.219188
    10 3.890452 -0.148446 -0.000003 -1.507037 -0.640701 -1.603736
    11 17.848175 0.000000 0.000000 0.000000 0.000000 1.673185
    12 16.525248 0.000000 0.000000 -0.037510 -0.100847 -0.984913
    13 -3.890452 0.148446 0.000007 -1.092397 -0.047260 -1.707531
    14 17.848171 0.000000 0.000000 0.000000 0.000000 0.607621
    15 16.525253 0.000000 0.000000 0.011095 -0.104542 -1.497183
    16 11.479830 -0.000111 0.000311 -0.859403 0.302494 -0.015391
  time 19
    0 -53.088495 60.628171 36.223096 1.553334 0.006795 0.027647
    1 0.000005 3.345128 -2.981901 1.573696 0.102077 1.574559
    2 7.442344 0.785180 -0.214850 -0.035307 0.086900 0.481799
    3 10.865887 1.530427 -1.687602 -1.382652 1.388914 3.469945
    4 6.028143 0.000000 0.000000 1.677156 -0.000550 -0.718740
    5 11.692554 0.000000 0.000008 0.000000 0.000000 -1.976915
    6 10.447898 1.393698 2.164229 1.770923 -1.400248 3.004269
    7 6.028142 0.000000 0.000000 -1.150406 0.370801 -1.016111
    8 11.692558 0.000000 0.000001 0.000000 0.000000 -2.026697
    9 14.551499 3.428311 0.734397 3.174773 -0.072627 -0.218344
    10 3.890452 -0.148446 -0.000003 -1.540212 -0.482421 -1.584932
    11 17.848175 0.000000 0.000000 0.000000 0.000000 1.581858
    12 16.525248 0.000000 0.000000 -0.042569 -0.100341 -1.141262
    13 -3.890452 0.148446 0.000007 -1.116902 -0.266015 -1.575291
    14 17.848171 0.000000 0.000000 0.000000 0.000000 0.740287
    15 16.525253 0.000000 0.000000 -0.157069 0.022473 -1.419996
    16 11.479830 -0.000111 0.000311 -0.857990 0.279306 -0.015115
  time 20
    0 -55.967415 63.836809 36.910617 1.560142 0.007598 -0.000134
    1 0.000005 3.345128 -2.981901 1.573816 0.102077 1.574631
    2 7.446251 0.781274 -0.195318 -0.036529 0.080033 0.476315
    3 10.854167 1.561678 -1.671977 -1.468326 1.388554 3.389018
    4 6.028143 0.000000 0.000000 1.679495 0.087167 -0.696058
    5 11.692554 0.000000 0.000008 0.000000 0.000000 -1.928893
    6 10.451805 1.370260 2.175949 1.684924 -1.406384 3.092398
    7 6.028142 0.000000 0.000000 -1.107517 0.487424 -1.011882
    8 11.692558 0.000000 0.000001 0.000000 0.000000 -2.035740
    9 14.543686 3.436124 0.761742 3.191855 -0.066107 -0.211913
    10 3.890452 -0.148446 -0.000003 -1.523301 -0.446343 -1.640748
    11 17.848175 0.000000 0.000000 0.000000 0.000000 1.427709
    12 16.525248 0.000000 0.000000 -0.102455 -0.080977 -1.045554
    13 -3.890452 0.148446 0.000007 -1.192125 -0.280217 -1.430089
    14 17.848171 0.000000 0.000000 0.000000 0.000000 0.514111
    15 16.525253 0.000000 0.000000 -0.229504 0.124098 -1.237112
    16 11.479830 -0.000111 0.000311 -0.856699 0.258326 -0.014900
end
