// Created by Crowbar 0.74
version 1
nodes
  0 "ValveBiped.Bip01" -1
  1 "ValveBiped.Bip01_Spine" 0
  2 "ValveBiped.Bip01_Spine2" 1
  3 "ValveBiped.Bip01_R_Clavicle" 2
  4 "ValveBiped.Bip01_R_UpperArm" 3
  5 "ValveBiped.Bip01_R_Forearm" 4
  6 "ValveBiped.Bip01_L_Clavicle" 2
  7 "ValveBiped.Bip01_L_UpperArm" 6
  8 "ValveBiped.Bip01_L_Forearm" 7
  9 "ValveBiped.Bip01_Head1" 2
  10 "ValveBiped.Bip01_L_Thigh" 0
  11 "ValveBiped.Bip01_L_Calf" 10
  12 "ValveBiped.Bip01_L_Foot" 11
  13 "ValveBiped.Bip01_R_Thigh" 0
  14 "ValveBiped.Bip01_R_Calf" 13
  15 "ValveBiped.Bip01_R_Foot" 14
  16 "ValveBiped.Bip01_R_Hand" 5
end
skeleton
  time 0
    0 1.610982 -0.335943 35.543388 1.700985 -0.009899 0.068350
    1 0.000005 3.345128 -2.981901 1.571647 0.102089 1.568507
    2 7.489221 0.585955 0.039064 -0.132178 0.001534 0.392964
    3 10.830729 1.401517 -1.832138 -1.189283 1.334084 3.643963
    4 6.028143 0.000000 0.000000 1.597351 0.417861 -0.768273
    5 11.692554 0.000000 0.000008 0.000000 0.000000 -1.780906
    6 10.541651 1.483545 2.031413 2.166904 -1.414031 2.597621
    7 6.028142 0.000000 0.000000 -1.363425 0.471893 -0.874981
    8 11.692558 0.000000 0.000001 0.000000 0.000000 -1.818659
    9 14.625720 3.369716 0.351573 3.180741 0.038962 -0.269900
    10 3.890452 -0.148446 -0.000003 -1.926811 -0.648715 -1.407837
    11 17.848175 0.000000 0.000000 0.000000 0.000000 1.626737
    12 16.525248 0.000000 0.000000 0.213703 0.014060 -1.325363
    13 -3.890452 0.148446 0.000007 -1.327140 -0.337520 -1.475053
    14 17.848171 0.000000 0.000000 0.000000 0.000000 0.732713
    15 16.525253 0.000000 0.000000 -0.052820 0.186306 -1.550254
    16 11.479830 -0.000111 0.000311 -0.860897 0.326251 -0.015703
  time 1
    0 4.585805 -3.937379 35.320725 1.695136 -0.004075 0.050690
    1 0.000005 3.345128 -2.981901 1.570760 0.102089 1.565978
    2 7.489221 0.589862 0.039064 -0.135438 0.002349 0.398006
    3 10.834636 1.389798 -1.836044 -1.173541 1.334276 3.658189
    4 6.028143 0.000000 0.000000 1.580795 0.365235 -0.752180
    5 11.692554 0.000000 0.000008 0.000000 0.000000 -1.812133
    6 10.537745 1.495264 2.023600 2.191784 -1.408805 2.572672
    7 6.028142 0.000000 0.000000 -1.392548 0.451708 -0.896949
    8 11.692558 0.000000 0.000001 0.000000 0.000000 -1.854166
    9 14.625720 3.369716 0.343760 3.192889 0.034611 -0.262463
    10 3.890452 -0.148446 -0.000003 -1.890240 -0.701519 -1.395381
    11 17.848175 0.000000 0.000000 0.000000 0.000000 1.685948
    12 16.525248 0.000000 0.000000 0.274380 -0.133829 -1.415612
    13 -3.890452 0.148446 0.000007 -1.248817 -0.180431 -1.578297
    14 17.848171 0.000000 0.000000 0.000000 0.000000 0.695042
    15 16.525253 0.000000 0.000000 0.028115 0.062889 -1.646596
    16 11.479830 -0.000111 0.000311 -0.859242 0.299984 -0.015355
  time 2
    0 7.560629 -7.538814 35.719174 1.698288 0.002109 0.021186
    1 0.000005 3.345128 -2.981901 1.570065 0.102089 1.563905
    2 7.489221 0.585955 0.023438 -0.133976 0.006807 0.400612
    3 10.838542 1.385891 -1.836044 -1.157229 1.336170 3.674524
    4 6.028143 0.000000 0.000000 1.569758 0.303052 -0.722925
    5 11.692554 0.000000 0.000008 0.000000 0.000000 -1.848897
    6 10.529932 1.503077 2.027506 2.193988 -1.404299 2.571039
    7 6.028142 0.000000 0.000000 -1.430977 0.394507 -0.929424
    8 11.692558 0.000000 0.000001 0.000000 0.000000 -1.903599
    9 14.621813 3.373622 0.355480 3.197094 0.028883 -0.262041
    10 3.890452 -0.148446 -0.000003 -1.985767 -0.745279 -1.276182
    11 17.848175 0.000000 0.000000 0.000000 0.000000 1.621977
    12 16.525248 0.000000 0.000000 0.271620 -0.120734 -1.168449
    13 -3.890452 0.148446 0.000007 -1.268284 -0.021733 -1.650116
    14 17.848171 0.000000 0.000000 0.000000 0.000000 0.547426
    15 16.525253 0.000000 0.000000 0.130215 -0.016611 -1.522011
    16 11.479830 -0.000111 0.000311 -0.857950 0.279072 -0.015115
  time 3
    0 10.535452 -11.140250 36.367632 1.705419 0.007526 -0.006810
    1 0.000005 3.345128 -2.981901 1.569693 0.102089 1.562347
    2 7.489221 0.585955 0.000000 -0.128271 0.013890 0.402492
    3 10.846355 1.389798 -1.824325 -1.149495 1.340292 3.683407
    4 6.028143 0.000000 0.000000 1.570848 0.230348 -0.690513
    5 11.692554 0.000000 0.000008 0.000000 0.000000 -1.882736
    6 10.518213 1.503077 2.035319 2.177569 -1.400764 2.588613
    7 6.028142 0.000000 0.000000 -1.463018 0.294442 -0.957460
    8 11.692558 0.000000 0.000001 0.000000 0.000000 -1.948088
    9 14.617907 3.381435 0.382824 3.212813 0.020985 -0.260856
    10 3.890452 -0.148446 -0.000003 -2.076982 -0.783485 -1.154085
    11 17.848175 0.000000 0.000000 0.000000 0.000000 1.497539
    12 16.525248 0.000000 0.000000 0.242236 -0.083808 -0.958425
    13 -3.890452 0.148446 0.000007 -1.322353 0.107880 -1.728645
    14 17.848171 0.000000 0.000000 0.000000 0.000000 0.392088
    15 16.525253 0.000000 0.000000 0.220054 -0.109344 -1.242072
    16 11.479830 -0.000111 0.000311 -0.856658 0.257958 -0.014900
  time 4
    0 13.510276 -14.741686 37.195782 1.716145 0.011529 -0.028562
    1 0.000005 3.345128 -2.981901 1.569622 0.102089 1.561424
    2 7.489221 0.585955 -0.027345 -0.119259 0.022735 0.404358
    3 10.854167 1.397611 -1.812606 -1.150700 1.346069 3.684298
    4 6.028143 0.000000 0.000000 1.584247 0.154007 -0.661537
    5 11.692554 0.000000 0.000008 0.000000 0.000000 -1.908862
    6 10.506494 1.503077 2.047038 2.146517 -1.398331 2.621281
    7 6.028142 0.000000 0.000000 -1.484513 0.157612 -0.975918
    8 11.692558 0.000000 0.000001 0.000000 0.000000 -1.973105
    9 14.606188 3.393154 0.421888 3.234100 0.012800 -0.259086
    10 3.890452 -0.148446 -0.000003 -2.138172 -0.782056 -1.063557
    11 17.848175 0.000000 0.000000 0.000000 0.000000 1.333923
    12 16.525248 0.000000 0.000000 0.171486 0.003881 -0.961302
    13 -3.890452 0.148446 0.000007 -1.379751 0.076227 -1.860750
    14 17.848171 0.000000 0.000000 0.000000 0.000000 0.479113
    15 16.525253 0.000000 0.000000 0.215775 -0.301024 -0.836835
    16 11.479830 -0.000111 0.000311 -0.855407 0.237079 -0.014708
  time 5
    0 16.485099 -18.343122 37.863771 1.726943 0.013483 -0.040891
    1 0.000005 3.345128 -2.981901 1.569825 0.102089 1.561292
    2 7.489221 0.589862 -0.058596 -0.107909 0.032454 0.404757
    3 10.858074 1.413236 -1.793074 -1.161757 1.352912 3.676095
    4 6.028143 0.000000 0.000000 1.606163 0.077647 -0.640301
    5 11.692554 0.000000 0.000008 0.000000 0.000000 -1.926591
    6 10.490868 1.491357 2.062664 2.103853 -1.397084 2.665819
    7 6.028142 0.000000 0.000000 -1.492309 0.005398 -0.984523
    8 11.692558 0.000000 0.000001 0.000000 0.000000 -1.973889
    9 14.598375 3.404873 0.468764 3.255059 0.006172 -0.256877
    10 3.890452 -0.148446 -0.000003 -2.143869 -0.717015 -1.040815
    11 17.848175 0.000000 0.000000 0.000000 0.000000 1.139079
    12 16.525248 0.000000 0.000000 0.058922 0.084643 -1.135292
    13 -3.890452 0.148446 0.000007 -1.442164 -0.160598 -1.924620
    14 17.848171 0.000000 0.000000 0.000000 0.000000 0.887457
    15 16.525253 0.000000 0.000000 0.161089 -0.286522 -0.721248
    16 11.479830 -0.000111 0.000311 -0.854196 0.216869 -0.014552
  time 6
    0 19.459923 -21.944558 38.059089 1.735129 0.012728 -0.042075
    1 0.000005 3.345128 -2.981901 1.570293 0.102089 1.562071
    2 7.489221 0.585955 -0.089846 -0.095182 0.042198 0.402022
    3 10.858074 1.432768 -1.777449 -1.183846 1.360163 3.657392
    4 6.028143 0.000000 0.000000 1.633052 0.005611 -0.628655
    5 11.692554 0.000000 0.000008 0.000000 0.000000 -1.938783
    6 10.479149 1.479638 2.078289 2.051847 -1.397132 2.719869
    7 6.028142 0.000000 0.000000 -1.485418 -0.135498 -0.985982
    8 11.692558 0.000000 0.000001 0.000000 0.000000 -1.957010
    9 14.586656 3.416592 0.515641 3.269814 0.002948 -0.254214
    10 3.890452 -0.148446 -0.000003 -2.092285 -0.586467 -1.102029
    11 17.848175 0.000000 0.000000 0.000000 0.000000 0.859865
    12 16.525248 0.000000 0.000000 -0.051792 0.116209 -1.308286
    13 -3.890452 0.148446 0.000007 -1.483582 -0.356889 -1.888472
    14 17.848171 0.000000 0.000000 0.000000 0.000000 1.166105
    15 16.525253 0.000000 0.000000 0.198870 -0.183439 -0.895223
    16 11.479830 -0.000111 0.000311 -0.853065 0.197797 -0.014432
  time 7
    0 22.434746 -25.545994 37.570793 1.737897 0.008365 -0.033246
    1 0.000005 3.345128 -2.981901 1.570988 0.102089 1.564193
    2 7.489221 0.578143 -0.128910 -0.081627 0.054254 0.396952
    3 10.861980 1.456206 -1.757917 -1.216764 1.367126 3.628166
    4 6.028143 0.000000 0.000000 1.662871 -0.056739 -0.621663
    5 11.692554 0.000000 0.000008 0.000000 0.000000 -1.948923
    6 10.471337 1.464013 2.097821 1.993079 -1.398295 2.780610
    7 6.028142 0.000000 0.000000 -1.462884 -0.239398 -0.991416
    8 11.692558 0.000000 0.000001 0.000000 0.000000 -1.936574
    9 14.574937 3.428311 0.566424 3.265420 -0.007167 -0.253743
    10 3.890452 -0.148446 -0.000003 -2.018071 -0.421171 -1.206273
    11 17.848175 0.000000 0.000000 0.000000 0.000000 0.527036
    12 16.525248 0.000000 0.000000 -0.089472 0.181213 -1.266066
    13 -3.890452 0.148446 0.000007 -1.495481 -0.575026 -1.822921
    14 17.848171 0.000000 0.000000 0.000000 0.000000 1.402726
    15 16.525253 0.000000 0.000000 0.202842 -0.113227 -1.035637
    16 11.479830 -0.000111 0.000311 -0.852177 0.182338 -0.014348
  time 8
    0 25.409570 -29.147430 36.723111 1.732828 0.000707 -0.018117
    1 0.000005 3.345128 -2.981901 1.571911 0.102089 1.567524
    2 7.485314 0.574236 -0.167974 -0.068516 0.066586 0.397037
    3 10.858074 1.479644 -1.738385 -1.257372 1.373130 3.591136
    4 6.028143 0.000000 0.000000 1.694938 -0.102016 -0.618194
    5 11.692554 0.000000 0.000008 0.000000 0.000000 -1.958751
    6 10.463524 1.448387 2.117353 1.931751 -1.400164 2.843689
    7 6.028142 0.000000 0.000000 -1.427691 -0.301231 -1.006998
    8 11.692558 0.000000 0.000001 0.000000 0.000000 -1.924457
    9 14.563218 3.436124 0.613300 3.239293 -0.029422 -0.257965
    10 3.890452 -0.148446 -0.000003 -1.962086 -0.400156 -1.251957
    11 17.848175 0.000000 0.000000 0.000000 0.000000 0.579709
    12 16.525248 0.000000 0.000000 -0.116677 0.209914 -1.361290
    13 -3.890452 0.148446 0.000007 -1.471410 -0.751143 -1.812050
    14 17.848171 0.000000 0.000000 0.000000 0.000000 1.511730
    15 16.525253 0.000000 0.000000 0.189832 -0.095143 -1.114428
    16 11.479830 -0.000111 0.000311 -0.851773 0.175880 -0.014324
  time 9
    0 28.384393 -32.748865 35.961369 1.719705 -0.008941 0.001750
    1 0.000005 3.345128 -2.981901 1.572929 0.102089 1.571299
    2 7.485314 0.582049 -0.179693 -0.057862 0.072219 0.407093
    3 10.858074 1.503083 -1.722760 -1.303757 1.377672 3.547919
    4 6.028143 0.000000 0.000000 1.727323 -0.123393 -0.623529
    5 11.692554 0.000000 0.000008 0.000000 0.000000 -1.968579
    6 10.459617 1.428856 2.132978 1.870107 -1.402693 2.906607
    7 6.028142 0.000000 0.000000 -1.384702 -0.324959 -1.025033
    8 11.692558 0.000000 0.000001 0.000000 0.000000 -1.925481
    9 14.555405 3.440031 0.648457 3.201488 -0.054302 -0.266279
    10 3.890452 -0.148446 -0.000003 -1.863186 -0.370462 -1.355383
    11 17.848175 0.000000 0.000000 0.000000 0.000000 0.752531
    12 16.525248 0.000000 0.000000 -0.095083 0.133214 -1.579947
    13 -3.890452 0.148446 0.000007 -1.439064 -0.870701 -1.788523
    14 17.848171 0.000000 0.000000 0.000000 0.000000 1.523314
    15 16.525253 0.000000 0.000000 0.173791 -0.064000 -1.168984
    16 11.479830 -0.000111 0.000311 -0.852096 0.181401 -0.014348
  time 10
    0 31.359217 -36.350301 35.461354 1.704508 -0.019343 0.024686
    1 0.000005 3.345128 -2.981901 1.573924 0.102089 1.574799
    2 7.485314 0.589862 -0.175787 -0.050491 0.073082 0.419029
    3 10.854167 1.522614 -1.707134 -1.353260 1.380345 3.500881
    4 6.028143 0.000000 0.000000 1.756393 -0.118995 -0.633118
    5 11.692554 0.000000 0.000008 0.000000 0.000000 -1.976293
    6 10.459617 1.405417 2.144698 1.810353 -1.405917 2.967006
    7 6.028142 0.000000 0.000000 -1.340488 -0.308232 -1.036937
    8 11.692558 0.000000 0.000001 0.000000 0.000000 -1.940130
    9 14.551499 3.443937 0.679708 3.162062 -0.072411 -0.277662
    10 3.890452 -0.148446 -0.000003 -1.744693 -0.256474 -1.493165
    11 17.848175 0.000000 0.000000 0.000000 0.000000 0.759331
    12 16.525248 0.000000 0.000000 -0.058955 0.035666 -1.711555
    13 -3.890452 0.148446 0.000007 -1.394591 -0.947713 -1.764725
    14 17.848171 0.000000 0.000000 0.000000 0.000000 1.491286
    15 16.525253 0.000000 0.000000 0.147120 -0.028101 -1.228114
    16 11.479830 -0.000111 0.000311 -0.853065 0.197930 -0.014432
  time 11
    0 34.334040 -39.951737 35.340256 1.694345 -0.029182 0.049129
    1 0.000005 3.345128 -2.981901 1.574787 0.102089 1.577268
    2 7.485314 0.585955 -0.164068 -0.047399 0.070709 0.424313
    3 10.846355 1.538240 -1.699322 -1.395778 1.380369 3.459586
    4 6.028143 0.000000 0.000000 1.777468 -0.085148 -0.643073
    5 11.692554 0.000000 0.000008 0.000000 0.000000 -1.977537
    6 10.463524 1.389792 2.152510 1.763238 -1.409836 3.013841
    7 6.028142 0.000000 0.000000 -1.305262 -0.249061 -1.029621
    8 11.692558 0.000000 0.000001 0.000000 0.000000 -1.964666
    9 14.551499 3.440031 0.691427 3.129685 -0.074820 -0.290555
    10 3.890452 -0.148446 -0.000003 -1.621307 -0.060786 -1.631966
    11 17.848175 0.000000 0.000000 0.000000 0.000000 0.587660
    12 16.525248 0.000000 0.000000 -0.005680 -0.082780 -1.741486
    13 -3.890452 0.148446 0.000007 -1.350779 -0.962039 -1.731856
    14 17.848171 0.000000 0.000000 0.000000 0.000000 1.380648
    15 16.525253 0.000000 0.000000 0.107017 0.005261 -1.268830
    16 11.479830 -0.000111 0.000311 -0.854680 0.224464 -0.014612
  time 12
    0 37.308864 -43.553173 35.723081 1.693350 -0.036397 0.073464
    1 0.000005 3.345128 -2.981901 1.575386 0.102089 1.578694
    2 7.485314 0.585955 -0.148442 -0.049113 0.065723 0.424156
    3 10.842448 1.542146 -1.703228 -1.414728 1.377373 3.440203
    4 6.028143 0.000000 0.000000 1.789550 -0.014077 -0.654511
    5 11.692554 0.000000 0.000008 0.000000 0.000000 -1.967460
    6 10.475243 1.381979 2.148604 1.747848 -1.414174 3.028170
    7 6.028142 0.000000 0.000000 -1.287690 -0.151029 -0.995539
    8 11.692558 0.000000 0.000001 0.000000 0.000000 -1.988116
    9 14.559312 3.432218 0.679708 3.109220 -0.056687 -0.302864
    10 3.890452 -0.148446 -0.000003 -1.524641 0.107769 -1.734218
    11 17.848175 0.000000 0.000000 0.000000 0.000000 0.400401
    12 16.525248 0.000000 0.000000 0.012616 -0.192799 -1.464339
    13 -3.890452 0.148446 0.000007 -1.320894 -0.914916 -1.682765
    14 17.848171 0.000000 0.000000 0.000000 0.000000 1.188381
    15 16.525253 0.000000 0.000000 0.057761 0.027339 -1.276552
    16 11.479830 -0.000111 0.000311 -0.856820 0.260033 -0.014912
  time 13
    0 40.283687 -47.154609 36.469197 1.699151 -0.040112 0.094516
    1 0.000005 3.345128 -2.981901 1.575674 0.102089 1.579569
    2 7.485314 0.589862 -0.121097 -0.054913 0.058784 0.423344
    3 10.834636 1.538240 -1.711041 -1.425625 1.373322 3.428180
    4 6.028143 0.000000 0.000000 1.796363 0.083864 -0.669906
    5 11.692554 0.000000 0.000008 0.000000 0.000000 -1.943760
    6 10.486962 1.378073 2.144698 1.744153 -1.418800 3.030447
    7 6.028142 0.000000 0.000000 -1.280078 -0.037047 -0.949701
    8 11.692558 0.000000 0.000001 0.000000 0.000000 -1.992758
    9 14.567124 3.424405 0.656270 3.100950 -0.024437 -0.313240
    10 3.890452 -0.148446 -0.000003 -1.513895 0.241442 -1.777115
    11 17.848175 0.000000 0.000000 0.000000 0.000000 0.217588
    12 16.525248 0.000000 0.000000 -0.005023 -0.184676 -1.016807
    13 -3.890452 0.148446 0.000007 -1.299923 -0.851486 -1.631329
    14 17.848171 0.000000 0.000000 0.000000 0.000000 0.995471
    15 16.525253 0.000000 0.000000 0.004322 0.038132 -1.270137
    16 11.479830 -0.000111 0.000311 -0.859242 0.300219 -0.015355
  time 14
    0 43.258511 -50.756045 37.297347 1.709182 -0.040855 0.108514
    1 0.000005 3.345128 -2.981901 1.575686 0.102089 1.579832
    2 7.485314 0.593768 -0.093753 -0.064058 0.050191 0.419484
    3 10.830729 1.530427 -1.722760 -1.418459 1.368013 3.433266
    4 6.028143 0.000000 0.000000 1.792662 0.191584 -0.688160
    5 11.692554 0.000000 0.000008 0.000000 0.000000 -1.907929
    6 10.498681 1.381979 2.132978 1.766619 -1.423115 3.006304
    7 6.028142 0.000000 0.000000 -1.284052 0.082973 -0.900036
    8 11.692558 0.000000 0.000001 0.000000 0.000000 -1.971659
    9 14.574937 3.416592 0.621113 3.097120 0.011206 -0.321538
    10 3.890452 -0.148446 -0.000003 -1.590634 0.181223 -1.786208
    11 17.848175 0.000000 0.000000 0.000000 0.000000 0.353691
    12 16.525248 0.000000 0.000000 0.110302 -0.060129 -0.772226
    13 -3.890452 0.148446 0.000007 -1.306579 -0.749658 -1.549182
    14 17.848171 0.000000 0.000000 0.000000 0.000000 0.753900
    15 16.525253 0.000000 0.000000 -0.057445 0.061098 -1.221046
    16 11.479830 -0.000111 0.000311 -0.861664 0.338832 -0.015894
  time 15
    0 46.233334 -54.357481 37.926273 1.720651 -0.039130 0.114759
    1 0.000005 3.345128 -2.981901 1.575446 0.102089 1.579461
    2 7.485314 0.593768 -0.062502 -0.075683 0.040388 0.412876
    3 10.826823 1.514802 -1.742292 -1.393754 1.361733 3.455109
    4 6.028143 0.000000 0.000000 1.778104 0.296261 -0.706327
    5 11.692554 0.000000 0.000008 0.000000 0.000000 -1.861835
    6 10.510400 1.389792 2.117353 1.817177 -1.426459 2.953926
    7 6.028142 0.000000 0.000000 -1.288579 0.196599 -0.866016
    8 11.692558 0.000000 0.000001 0.000000 0.000000 -1.931992
    9 14.586656 3.404873 0.574236 3.091927 0.040124 -0.327904
    10 3.890452 -0.148446 -0.000003 -1.671886 0.037308 -1.787380
    11 17.848175 0.000000 0.000000 0.000000 0.000000 0.611250
    12 16.525248 0.000000 0.000000 0.316926 -0.028714 -0.706341
    13 -3.890452 0.148446 0.000007 -1.337375 -0.589877 -1.437971
    14 17.848171 0.000000 0.000000 0.000000 0.000000 0.386792
    15 16.525253 0.000000 0.000000 -0.109943 0.124066 -0.939028
    16 11.479830 -0.000111 0.000311 -0.863642 0.369682 -0.016398
  time 16
    0 49.208157 -57.958916 38.066902 1.730599 -0.035402 0.113629
    1 0.000005 3.345128 -2.981901 1.574979 0.102089 1.578406
    2 7.489221 0.593768 -0.035157 -0.088938 0.029854 0.404444
    3 10.822917 1.491363 -1.765730 -1.355239 1.354854 3.490171
    4 6.028143 0.000000 0.000000 1.753191 0.378744 -0.721164
    5 11.692554 0.000000 0.000008 0.000000 0.000000 -1.816114
    6 10.522119 1.409324 2.097821 1.891607 -1.427969 2.877708
    7 6.028142 0.000000 0.000000 -1.291798 0.293876 -0.851999
    8 11.692558 0.000000 0.000001 0.000000 0.000000 -1.888467
    9 14.598375 3.397061 0.519547 3.080015 0.052469 -0.332337
    10 3.890452 -0.148446 -0.000003 -1.804319 -0.116583 -1.708379
    11 17.848175 0.000000 0.000000 0.000000 0.000000 0.880683
    12 16.525248 0.000000 0.000000 0.344518 0.087963 -0.711209
    13 -3.890452 0.148446 0.000007 -1.351964 -0.592105 -1.370891
    14 17.848171 0.000000 0.000000 0.000000 0.000000 0.360308
    15 16.525253 0.000000 0.000000 -0.121168 0.231951 -0.717536
    16 11.479830 -0.000111 0.000311 -0.864732 0.386647 -0.016697
  time 17
    0 52.182981 -61.560352 37.523917 1.735692 -0.030153 0.107114
    1 0.000005 3.345128 -2.981901 1.574319 0.102089 1.576573
    2 7.489221 0.589862 -0.003906 -0.102456 0.019487 0.394601
    3 10.822917 1.467925 -1.789168 -1.310173 1.348058 3.531607
    4 6.028143 0.000000 0.000000 1.717762 0.428123 -0.736838
    5 11.692554 0.000000 0.000008 0.000000 0.000000 -1.784017
    6 10.533839 1.428856 2.078289 1.976031 -1.427058 2.791634
    7 6.028142 0.000000 0.000000 -1.304843 0.363402 -0.847474
    8 11.692558 0.000000 0.000001 0.000000 0.000000 -1.847234
    9 14.606188 3.389248 0.460952 3.081472 0.051510 -0.326881
    10 3.890452 -0.148446 -0.000003 -1.940014 -0.242175 -1.583162
    11 17.848175 0.000000 0.000000 0.000000 0.000000 1.121452
    12 16.525248 0.000000 0.000000 0.317523 0.276283 -0.706825
    13 -3.890452 0.148446 0.000007 -1.371978 -0.580812 -1.316194
    14 17.848171 0.000000 0.000000 0.000000 0.000000 0.418176
    15 16.525253 0.000000 0.000000 -0.134120 0.314177 -0.767281
    16 11.479830 -0.000111 0.000311 -0.864651 0.385342 -0.016673
  time 18
    0 55.157804 -65.161788 36.656703 1.731461 -0.023849 0.097046
    1 0.000005 3.345128 -2.981901 1.573493 0.102089 1.574104
    2 7.489221 0.582049 0.015625 -0.114788 0.010654 0.387565
    3 10.822917 1.440581 -1.808700 -1.265675 1.342066 3.572668
    4 6.028143 0.000000 0.000000 1.675748 0.454436 -0.753314
    5 11.692554 0.000000 0.000008 0.000000 0.000000 -1.762805
    6 10.537745 1.448387 2.058757 2.054765 -1.423990 2.711466
    7 6.028142 0.000000 0.000000 -1.319463 0.420980 -0.850096
    8 11.692558 0.000000 0.000001 0.000000 0.000000 -1.817212
    9 14.614001 3.381435 0.414075 3.109314 0.048130 -0.309327
    10 3.890452 -0.148446 -0.000003 -2.027208 -0.381169 -1.470069
    11 17.848175 0.000000 0.000000 0.000000 0.000000 1.382830
    12 16.525248 0.000000 0.000000 0.305838 0.252739 -0.952939
    13 -3.890452 0.148446 0.000007 -1.389439 -0.507202 -1.285228
    14 17.848171 0.000000 0.000000 0.000000 0.000000 0.473371
    15 16.525253 0.000000 0.000000 -0.178848 0.334051 -1.032044
    16 11.479830 -0.000111 0.000311 -0.863723 0.371088 -0.016422
  time 19
    0 58.132628 -68.763224 35.969182 1.715702 -0.016934 0.083963
    1 0.000005 3.345128 -2.981901 1.572582 0.102089 1.571311
    2 7.489221 0.582049 0.031251 -0.124987 0.004446 0.387978
    3 10.826823 1.417142 -1.824325 -1.224590 1.337248 3.610847
    4 6.028143 0.000000 0.000000 1.631962 0.447923 -0.766634
    5 11.692554 0.000000 0.000008 0.000000 0.000000 -1.762805
    6 10.541651 1.467919 2.039226 2.120146 -1.419376 2.645021
    7 6.028142 0.000000 0.000000 -1.338409 0.458876 -0.859293
    8 11.692558 0.000000 0.000001 0.000000 0.000000 -1.806181
    9 14.621813 3.373622 0.375011 3.147659 0.043648 -0.287811
    10 3.890452 -0.148446 -0.000003 -2.012285 -0.513745 -1.417018
    11 17.848175 0.000000 0.000000 0.000000 0.000000 1.539175
    12 16.525248 0.000000 0.000000 0.253220 0.154736 -1.178641
    13 -3.890452 0.148446 0.000007 -1.352511 -0.456582 -1.385194
    14 17.848171 0.000000 0.000000 0.000000 0.000000 0.680587
    15 16.525253 0.000000 0.000000 -0.133142 0.253585 -1.364371
    16 11.479830 -0.000111 0.000311 -0.862391 0.350476 -0.016074
  time 20
    0 61.107451 -72.364660 35.543388 1.700985 -0.009899 0.068350
    1 0.000005 3.345128 -2.981901 1.571647 0.102089 1.568507
    2 7.489221 0.585955 0.039064 -0.132178 0.001534 0.392964
    3 10.830729 1.401517 -1.832138 -1.189283 1.334084 3.643963
    4 6.028143 0.000000 0.000000 1.597351 0.417861 -0.768273
    5 11.692554 0.000000 0.000008 0.000000 0.000000 -1.780906
    6 10.541651 1.483545 2.031413 2.166904 -1.414031 2.597621
    7 6.028142 0.000000 0.000000 -1.363425 0.471893 -0.874981
    8 11.692558 0.000000 0.000001 0.000000 0.000000 -1.818659
    9 14.625720 3.369716 0.351573 3.180741 0.038962 -0.269900
    10 3.890452 -0.148446 -0.000003 -1.926811 -0.648715 -1.407837
    11 17.848175 0.000000 0.000000 0.000000 0.000000 1.626737
    12 16.525248 0.000000 0.000000 0.213703 0.014060 -1.325363
    13 -3.890452 0.148446 0.000007 -1.327140 -0.337520 -1.475053
    14 17.848171 0.000000 0.000000 0.000000 0.000000 0.732713
    15 16.525253 0.000000 0.000000 -0.052820 0.186306 -1.550254
    16 11.479830 -0.000111 0.000311 -0.860897 0.326251 -0.015703
end
