// Created by Crowbar 0.74
version 1
nodes
  0 "ValveBiped.Bip01" -1
  1 "ValveBiped.Bip01_Spine" 0
  2 "ValveBiped.Bip01_Spine2" 1
  3 "ValveBiped.Bip01_R_Clavicle" 2
  4 "ValveBiped.Bip01_R_UpperArm" 3
  5 "ValveBiped.Bip01_R_Forearm" 4
  6 "ValveBiped.Bip01_L_Clavicle" 2
  7 "ValveBiped.Bip01_L_UpperArm" 6
  8 "ValveBiped.Bip01_L_Forearm" 7
  9 "ValveBiped.Bip01_Head1" 2
  10 "ValveBiped.Bip01_L_Thigh" 0
  11 "ValveBiped.Bip01_L_Calf" 10
  12 "ValveBiped.Bip01_L_Foot" 11
  13 "ValveBiped.Bip01_R_Thigh" 0
  14 "ValveBiped.Bip01_R_Calf" 13
  15 "ValveBiped.Bip01_R_Foot" 14
  16 "ValveBiped.Bip01_R_Hand" 5
end
skeleton
  time 0
    0 1.610982 -0.335943 35.570732 1.740162 -0.002133 -0.035938
    1 0.000005 3.345128 -2.981901 1.572090 0.102077 1.571000
    2 7.477502 0.613300 -0.199225 -0.053343 0.079961 0.431207
    3 10.873699 1.495270 -1.711041 -1.287401 1.383221 3.560903
    4 6.028143 0.000000 0.000000 1.710472 0.274346 -0.609267
    5 11.692554 0.000000 0.000008 0.000000 0.000000 -1.906312
    6 10.447898 1.424949 2.140791 1.867189 -1.396245 2.906486
    7 6.028142 0.000000 0.000000 -1.334620 0.111961 -1.096074
    8 11.692558 0.000000 0.000001 0.000000 0.000000 -1.868152
    9 14.563218 3.424405 0.683615 3.249467 -0.086768 -0.262707
    10 3.890452 -0.148446 -0.000003 -1.758856 -0.678475 -1.488896
    11 17.848175 0.000000 0.000000 0.000000 0.000000 1.678678
    12 16.525248 0.000000 0.000000 0.056206 -0.124290 -1.064486
    13 -3.890452 0.148446 0.000007 -1.345946 -0.071147 -1.570942
    14 17.848171 0.000000 0.000000 0.000000 0.000000 0.515052
    15 16.525253 0.000000 0.000000 0.035387 0.067406 -1.605612
    16 11.479830 -0.000111 0.000311 -0.859242 0.299984 -0.015355
  time 1
    0 1.610982 -6.488008 35.875429 1.739923 0.003799 -0.037068
    1 0.000005 3.345128 -2.981901 1.573696 0.102077 1.574559
    2 7.477502 0.613300 -0.214850 -0.035307 0.086900 0.431933
    3 10.865887 1.530427 -1.687602 -1.382652 1.388914 3.469945
    4 6.028143 0.000000 0.000000 1.740882 0.379264 -0.597394
    5 11.692554 0.000000 0.000008 0.000000 0.000000 -1.836020
    6 10.447898 1.393698 2.164229 1.770923 -1.400248 3.004269
    7 6.028142 0.000000 0.000000 -1.291480 0.226991 -1.066833
    8 11.692558 0.000000 0.000001 0.000000 0.000000 -1.791773
    9 14.551499 3.428311 0.734397 3.252333 -0.081495 -0.261521
    10 3.890452 -0.148446 -0.000003 -1.771345 -0.849191 -1.466131
    11 17.848175 0.000000 0.000000 0.000000 0.000000 1.661939
    12 16.525248 0.000000 0.000000 0.033911 -0.124121 -1.078174
    13 -3.890452 0.148446 0.000007 -1.320986 0.179633 -1.564164
    14 17.848171 0.000000 0.000000 0.000000 0.000000 0.293381
    15 16.525253 0.000000 0.000000 0.081266 -0.000873 -1.320922
    16 11.479830 -0.000111 0.000311 -0.857990 0.279306 -0.015115
  time 2
    0 1.610982 -12.640073 36.621546 1.749414 0.008066 -0.028616
    1 0.000005 3.345128 -2.981901 1.575146 0.102077 1.577807
    2 7.477502 0.613300 -0.214850 -0.025240 0.088207 0.429683
    3 10.854167 1.561678 -1.668071 -1.474104 1.390508 3.383486
    4 6.028143 0.000000 0.000000 1.779285 0.475961 -0.594953
    5 11.692554 0.000000 0.000008 0.000000 0.000000 -1.762058
    6 10.447898 1.370260 2.179855 1.681670 -1.404587 3.095925
    7 6.028142 0.000000 0.000000 -1.251424 0.290355 -1.035436
    8 11.692558 0.000000 0.000001 0.000000 0.000000 -1.681032
    9 14.543686 3.440031 0.773461 3.233912 -0.073490 -0.260125
    10 3.890452 -0.148446 -0.000003 -1.772797 -0.939737 -1.454207
    11 17.848175 0.000000 0.000000 0.000000 0.000000 1.491314
    12 16.525248 0.000000 0.000000 -0.019558 -0.130441 -1.149410
    13 -3.890452 0.148446 0.000007 -1.281254 0.325428 -1.560088
    14 17.848171 0.000000 0.000000 0.000000 0.000000 0.133736
    15 16.525253 0.000000 0.000000 0.074915 -0.088185 -0.877344
    16 11.479830 -0.000111 0.000311 -0.856739 0.258929 -0.014900
  time 3
    0 1.610983 -18.792137 37.484853 1.761459 0.011002 -0.012410
    1 0.000005 3.345128 -2.981901 1.576285 0.102077 1.580492
    2 7.481408 0.605487 -0.195318 -0.025443 0.083317 0.418003
    3 10.842448 1.585116 -1.660258 -1.540191 1.388291 3.321402
    4 6.028143 0.000000 0.000000 1.807355 0.549185 -0.609947
    5 11.692554 0.000000 0.000008 0.000000 0.000000 -1.697738
    6 10.455711 1.350728 2.187668 1.616919 -1.409285 3.162853
    7 6.028142 0.000000 0.000000 -1.218562 0.322801 -1.007675
    8 11.692558 0.000000 0.000001 0.000000 0.000000 -1.559199
    9 14.535873 3.447843 0.781274 3.202827 -0.062260 -0.259638
    10 3.890452 -0.148446 -0.000003 -1.746793 -0.952938 -1.470578
    11 17.848175 0.000000 0.000000 0.000000 0.000000 1.239770
    12 16.525248 0.000000 0.000000 -0.050464 -0.146655 -1.218092
    13 -3.890452 0.148446 0.000007 -1.267736 0.176972 -1.612304
    14 17.848171 0.000000 0.000000 0.000000 0.000000 0.451639
    15 16.525253 0.000000 0.000000 0.022570 -0.129932 -0.613769
    16 11.479830 -0.000111 0.000311 -0.855528 0.238685 -0.014720
  time 4
    0 1.610983 -24.944202 38.152842 1.772341 0.012272 0.009234
    1 0.000005 3.345128 -2.981901 1.577052 0.102077 1.582433
    2 7.485314 0.582049 -0.167974 -0.033377 0.071991 0.397963
    3 10.830729 1.592929 -1.668071 -1.560551 1.383125 3.302794
    4 6.028143 0.000000 0.000000 1.816894 0.586446 -0.644520
    5 11.692554 0.000000 0.000008 0.000000 0.000000 -1.657118
    6 10.463524 1.346822 2.183761 1.599513 -1.414905 3.181474
    7 6.028142 0.000000 0.000000 -1.194519 0.342315 -0.983403
    8 11.692558 0.000000 0.000001 0.000000 0.000000 -1.458044
    9 14.535873 3.451750 0.761742 3.167255 -0.047543 -0.260628
    10 3.890452 -0.148446 -0.000003 -1.692126 -0.860165 -1.518806
    11 17.848175 0.000000 0.000000 0.000000 0.000000 0.872314
    12 16.525248 0.000000 0.000000 -0.038376 -0.169019 -1.254100
    13 -3.890452 0.148446 0.000007 -1.249478 0.092285 -1.627813
    14 17.848171 0.000000 0.000000 0.000000 0.000000 0.635392
    15 16.525253 0.000000 0.000000 -0.009474 -0.130281 -0.473206
    16 11.479830 -0.000111 0.000311 -0.854317 0.218442 -0.014564
  time 5
    0 1.610983 -31.096267 38.309097 1.780802 0.011038 0.033515
    1 0.000005 3.345128 -2.981901 1.577483 0.102077 1.583524
    2 7.489221 0.562517 -0.128910 -0.047123 0.055333 0.377737
    3 10.822917 1.581210 -1.687602 -1.532274 1.375779 3.329558
    4 6.028143 0.000000 0.000000 1.812829 0.576482 -0.681221
    5 11.692554 0.000000 0.000008 0.000000 0.000000 -1.651208
    6 10.479149 1.358541 2.164229 1.641526 -1.421341 3.138951
    7 6.028142 0.000000 0.000000 -1.183872 0.358203 -0.961541
    8 11.692558 0.000000 0.000001 0.000000 0.000000 -1.416629
    9 14.543686 3.451750 0.703146 3.137697 -0.028523 -0.263389
    10 3.890452 -0.148446 -0.000003 -1.636677 -0.683197 -1.569269
    11 17.848175 0.000000 0.000000 0.000000 0.000000 0.412850
    12 16.525248 0.000000 0.000000 0.008423 -0.180210 -1.283438
    13 -3.890452 0.148446 0.000007 -1.231834 0.007351 -1.635882
    14 17.848171 0.000000 0.000000 0.000000 0.000000 0.815283
    15 16.525253 0.000000 0.000000 -0.015941 -0.117380 -0.448972
    16 11.479830 -0.000111 0.000311 -0.853065 0.197797 -0.014432
  time 6
    0 1.610983 -37.248332 37.863771 1.784110 0.006843 0.057474
    1 0.000005 3.345128 -2.981901 1.577591 0.102077 1.583751
    2 7.493127 0.546892 -0.085940 -0.064130 0.035546 0.362298
    3 10.819010 1.553865 -1.718853 -1.485410 1.367330 3.372002
    4 6.028143 0.000000 0.000000 1.803971 0.519550 -0.706850
    5 11.692554 0.000000 0.000008 0.000000 0.000000 -1.674784
    6 10.498681 1.374166 2.140791 1.715305 -1.427286 3.062410
    7 6.028142 0.000000 0.000000 -1.182698 0.372897 -0.940271
    8 11.692558 0.000000 0.000001 0.000000 0.000000 -1.456838
    9 14.559312 3.440031 0.628925 3.124328 -0.004890 -0.268065
    10 3.890452 -0.148446 -0.000003 -1.599637 -0.506995 -1.597299
    11 17.848175 0.000000 0.000000 0.000000 0.000000 0.000044
    12 16.525248 0.000000 0.000000 0.007303 -0.165699 -1.050986
    13 -3.890452 0.148446 0.000007 -1.217679 -0.115671 -1.647314
    14 17.848171 0.000000 0.000000 0.000000 0.000000 1.035519
    15 16.525253 0.000000 0.000000 0.000964 -0.094018 -0.490491
    16 11.479830 -0.000111 0.000311 -0.852137 0.181669 -0.014348
  time 7
    0 1.610984 -43.400397 36.973119 1.777614 -0.000395 0.079171
    1 0.000005 3.345128 -2.981901 1.577328 0.102077 1.582805
    2 7.493127 0.550798 -0.042970 -0.082310 0.016227 0.362625
    3 10.815104 1.522614 -1.750104 -1.428014 1.358150 3.422884
    4 6.028143 0.000000 0.000000 1.792321 0.439962 -0.731171
    5 11.692554 0.000000 0.000008 0.000000 0.000000 -1.718079
    6 10.518213 1.393698 2.113447 1.814237 -1.431468 2.959086
    7 6.028142 0.000000 0.000000 -1.195323 0.373714 -0.924540
    8 11.692558 0.000000 0.000001 0.000000 0.000000 -1.558235
    9 14.582750 3.416592 0.550798 3.120991 0.019942 -0.274285
    10 3.890452 -0.148446 -0.000003 -1.588646 -0.634017 -1.592896
    11 17.848175 0.000000 0.000000 0.000000 0.000000 0.468191
    12 16.525248 0.000000 0.000000 -0.028855 -0.140419 -1.160032
    13 -3.890452 0.148446 0.000007 -1.202087 -0.260322 -1.666016
    14 17.848171 0.000000 0.000000 0.000000 0.000000 1.253625
    15 16.525253 0.000000 0.000000 0.033795 -0.064412 -0.564707
    16 11.479830 -0.000111 0.000311 -0.851773 0.175880 -0.014324
  time 8
    0 1.610984 -49.552462 36.148875 1.762933 -0.010091 0.097746
    1 0.000005 3.345128 -2.981901 1.576644 0.102077 1.580671
    2 7.493127 0.570330 -0.003906 -0.100347 0.000240 0.381412
    3 10.815104 1.483551 -1.781355 -1.365908 1.348682 3.477515
    4 6.028143 0.000000 0.000000 1.782896 0.345844 -0.751640
    5 11.692554 0.000000 0.000008 0.000000 0.000000 -1.774064
    6 10.537745 1.413230 2.082196 1.928223 -1.432786 2.840022
    7 6.028142 0.000000 0.000000 -1.226459 0.337159 -0.920904
    8 11.692558 0.000000 0.000001 0.000000 0.000000 -1.685614
    9 14.606188 3.389248 0.472671 3.124022 0.042665 -0.281316
    10 3.890452 -0.148446 -0.000003 -1.587417 -0.607748 -1.582565
    11 17.848175 0.000000 0.000000 0.000000 0.000000 0.791395
    12 16.525248 0.000000 0.000000 -0.049538 -0.107066 -1.372531
    13 -3.890452 0.148446 0.000007 -1.175440 -0.425363 -1.705612
    14 17.848171 0.000000 0.000000 0.000000 0.000000 1.451288
    15 16.525253 0.000000 0.000000 0.068755 -0.030463 -0.654130
    16 11.479830 -0.000111 0.000311 -0.852096 0.181100 -0.014348
  time 9
    0 1.610984 -55.704527 35.715268 1.747029 -0.020721 0.111206
    1 0.000005 3.345128 -2.981901 1.575614 0.102077 1.577723
    2 7.485314 0.601581 0.031251 -0.117305 -0.011589 0.409941
    3 10.819010 1.444487 -1.812606 -1.303143 1.339549 3.532826
    4 6.028143 0.000000 0.000000 1.775061 0.243171 -0.768621
    5 11.692554 0.000000 0.000008 0.000000 0.000000 -1.833470
    6 10.553370 1.436668 2.054851 2.043175 -1.430629 2.720151
    7 6.028142 0.000000 0.000000 -1.272885 0.246925 -0.930566
    8 11.692558 0.000000 0.000001 0.000000 0.000000 -1.799670
    9 14.625720 3.361903 0.398450 3.131071 0.059539 -0.288233
    10 3.890452 -0.148446 -0.000003 -1.594075 -0.400854 -1.569556
    11 17.848175 0.000000 0.000000 0.000000 0.000000 0.795423
    12 16.525248 0.000000 0.000000 -0.060686 -0.077774 -1.562709
    13 -3.890452 0.148446 0.000007 -1.137372 -0.570137 -1.761718
    14 17.848171 0.000000 0.000000 0.000000 0.000000 1.556728
    15 16.525253 0.000000 0.000000 0.091877 0.004088 -0.724396
    16 11.479830 -0.000111 0.000311 -0.853065 0.197495 -0.014432
  time 10
    0 1.610984 -61.856592 35.594170 1.737106 -0.030525 0.116698
    1 0.000005 3.345128 -2.981901 1.574296 0.102077 1.574248
    2 7.481408 0.625019 0.058596 -0.132226 -0.019787 0.434397
    3 10.822917 1.405423 -1.836044 -1.242516 1.331556 3.587082
    4 6.028143 0.000000 0.000000 1.764410 0.136935 -0.781540
    5 11.692554 0.000000 0.000008 0.000000 0.000000 -1.887091
    6 10.565089 1.460106 2.031413 2.144354 -1.425104 2.615114
    7 6.028142 0.000000 0.000000 -1.323504 0.107119 -0.947375
    8 11.692558 0.000000 0.000001 0.000000 0.000000 -1.870865
    9 14.645252 3.342371 0.335948 3.140000 0.066395 -0.293884
    10 3.890452 -0.148446 -0.000003 -1.617510 -0.084062 -1.552389
    11 17.848175 0.000000 0.000000 0.000000 0.000000 0.537968
    12 16.525248 0.000000 0.000000 -0.076206 -0.035708 -1.606973
    13 -3.890452 0.148446 0.000007 -1.095315 -0.675925 -1.831397
    14 17.848171 0.000000 0.000000 0.000000 0.000000 1.576182
    15 16.525253 0.000000 0.000000 0.094813 0.028750 -0.804315
    16 11.479830 -0.000111 0.000311 -0.854680 0.224464 -0.014612
  time 11
    0 1.610985 -68.008657 35.922305 1.736926 -0.037907 0.113413
    1 0.000005 3.345128 -2.981901 1.572738 0.102077 1.570472
    2 7.481408 0.628926 0.082034 -0.144007 -0.025287 0.439881
    3 10.826823 1.378079 -1.855576 -1.186235 1.325575 3.639065
    4 6.028143 0.000000 0.000000 1.745515 0.029734 -0.787259
    5 11.692554 0.000000 0.000008 0.000000 0.000000 -1.928146
    6 10.568996 1.483545 2.011881 2.220632 -1.417051 2.536840
    7 6.028142 0.000000 0.000000 -1.364632 -0.052557 -0.965769
    8 11.692558 0.000000 0.000001 0.000000 0.000000 -1.889914
    9 14.653064 3.330652 0.296884 3.153040 0.062907 -0.296791
    10 3.890452 -0.148446 -0.000003 -1.676801 0.158179 -1.526438
    11 17.848175 0.000000 0.000000 0.000000 0.000000 0.323719
    12 16.525248 0.000000 0.000000 -0.085921 0.072339 -1.290323
    13 -3.890452 0.148446 0.000007 -1.054603 -0.772617 -1.900125
    14 17.848171 0.000000 0.000000 0.000000 0.000000 1.531383
    15 16.525253 0.000000 0.000000 0.081209 0.061446 -0.987526
    16 11.479830 -0.000111 0.000311 -0.856779 0.259932 -0.014912
  time 12
    0 1.610985 -74.160721 36.707486 1.743722 -0.041467 0.103453
    1 0.000005 3.345128 -2.981901 1.571060 0.102077 1.566577
    2 7.481408 0.617206 0.085940 -0.151461 -0.027325 0.430851
    3 10.830729 1.358547 -1.863389 -1.137779 1.322124 3.686430
    4 6.028143 0.000000 0.000000 1.722191 -0.065200 -0.784051
    5 11.692554 0.000000 0.000008 0.000000 0.000000 -1.954708
    6 10.561183 1.506983 1.996256 2.267809 -1.408182 2.490447
    7 6.028142 0.000000 0.000000 -1.391576 -0.204960 -0.987124
    8 11.692558 0.000000 0.000001 0.000000 0.000000 -1.867971
    9 14.653064 3.334559 0.273446 3.171742 0.052804 -0.295768
    10 3.890452 -0.148446 -0.000003 -1.763369 0.228806 -1.487834
    11 17.848175 0.000000 0.000000 0.000000 0.000000 0.327328
    12 16.525248 0.000000 0.000000 0.025300 0.192656 -0.823240
    13 -3.890452 0.148446 0.000007 -1.055880 -0.814883 -1.899174
    14 17.848171 0.000000 0.000000 0.000000 0.000000 1.368223
    15 16.525253 0.000000 0.000000 0.032701 0.107409 -1.326951
    16 11.479830 -0.000111 0.000311 -0.859242 0.300018 -0.015355
  time 13
    0 1.610985 -80.312786 37.586419 1.754783 -0.040939 0.088001
    1 0.000005 3.345128 -2.981901 1.569394 0.102077 1.562826
    2 7.485314 0.597675 0.078127 -0.153702 -0.024976 0.413217
    3 10.838542 1.350734 -1.867295 -1.101721 1.321920 3.724328
    4 6.028143 0.000000 0.000000 1.698050 -0.135863 -0.771969
    5 11.692554 0.000000 0.000008 0.000000 0.000000 -1.970321
    6 10.549464 1.526515 1.996256 2.284375 -1.400368 2.476905
    7 6.028142 0.000000 0.000000 -1.403246 -0.330010 -1.018606
    8 11.692558 0.000000 0.000001 0.000000 0.000000 -1.826375
    9 14.641345 3.350184 0.277352 3.193594 0.037560 -0.291335
    10 3.890452 -0.148446 -0.000003 -1.809033 0.176734 -1.459870
    11 17.848175 0.000000 0.000000 0.000000 0.000000 0.431523
    12 16.525248 0.000000 0.000000 0.182828 0.155596 -0.354973
    13 -3.890452 0.148446 0.000007 -1.103088 -0.798515 -1.834676
    14 17.848171 0.000000 0.000000 0.000000 0.000000 1.107148
    15 16.525253 0.000000 0.000000 -0.034265 0.121039 -1.578052
    16 11.479830 -0.000111 0.000311 -0.861664 0.338899 -0.015894
  time 14
    0 1.610985 -86.464851 38.207531 1.767116 -0.037727 0.068242
    1 0.000005 3.345128 -2.981901 1.567956 0.102077 1.559602
    2 7.489221 0.578143 0.054689 -0.150514 -0.018001 0.393491
    3 10.842448 1.358547 -1.855576 -1.082475 1.325683 3.747460
    4 6.028143 0.000000 0.000000 1.677360 -0.174257 -0.753069
    5 11.692554 0.000000 0.000008 0.000000 0.000000 -1.981767
    6 10.529932 1.534328 2.000162 2.270119 -1.395083 2.495304
    7 6.028142 0.000000 0.000000 -1.400596 -0.418044 -1.063746
    8 11.692558 0.000000 0.000001 0.000000 0.000000 -1.786347
    9 14.625720 3.377529 0.304697 3.216807 0.018564 -0.284807
    10 3.890452 -0.148446 -0.000003 -1.815846 0.149800 -1.470710
    11 17.848175 0.000000 0.000000 0.000000 0.000000 0.494239
    12 16.525248 0.000000 0.000000 0.205361 0.097367 -0.296000
    13 -3.890452 0.148446 0.000007 -1.174231 -0.736075 -1.739755
    14 17.848171 0.000000 0.000000 0.000000 0.000000 0.791175
    15 16.525253 0.000000 0.000000 -0.085287 0.112782 -1.642141
    16 11.479830 -0.000111 0.000311 -0.863642 0.369783 -0.016398
  time 15
    0 1.610986 -92.616916 38.316910 1.777806 -0.032766 0.045898
    1 0.000005 3.345128 -2.981901 1.567213 0.102077 1.557697
    2 7.493127 0.558611 0.015625 -0.142377 -0.006172 0.375544
    3 10.846355 1.374172 -1.839951 -1.078790 1.332826 3.755733
    4 6.028143 0.000000 0.000000 1.661576 -0.176335 -0.729323
    5 11.692554 0.000000 0.000008 0.000000 0.000000 -1.995514
    6 10.510400 1.534328 2.015787 2.232158 -1.392111 2.537303
    7 6.028142 0.000000 0.000000 -1.396321 -0.458057 -1.101867
    8 11.692558 0.000000 0.000001 0.000000 0.000000 -1.768986
    9 14.606188 3.400967 0.351573 3.237390 -0.003068 -0.277743
    10 3.890452 -0.148446 -0.000003 -1.830792 0.018221 -1.445756
    11 17.848175 0.000000 0.000000 0.000000 0.000000 0.819955
    12 16.525248 0.000000 0.000000 0.213882 0.060374 -0.469425
    13 -3.890452 0.148446 0.000007 -1.247563 -0.640157 -1.641946
    14 17.848171 0.000000 0.000000 0.000000 0.000000 0.455649
    15 16.525253 0.000000 0.000000 -0.119038 0.104651 -1.565816
    16 11.479830 -0.000111 0.000311 -0.864732 0.386647 -0.016697
  time 16
    0 1.610986 -98.768981 37.816895 1.783966 -0.026702 0.022801
    1 0.000005 3.345128 -2.981901 1.567368 0.102077 1.557841
    2 7.497033 0.542985 -0.027345 -0.130081 0.010127 0.361372
    3 10.854167 1.389798 -1.816513 -1.090074 1.342474 3.748444
    4 6.028143 0.000000 0.000000 1.650471 -0.141115 -0.702509
    5 11.692554 0.000000 0.000008 0.000000 0.000000 -2.008826
    6 10.490868 1.522608 2.039226 2.176289 -1.390948 2.595948
    7 6.028142 0.000000 0.000000 -1.401368 -0.421649 -1.110684
    8 11.692558 0.000000 0.000001 0.000000 0.000000 -1.792617
    9 14.590562 3.420499 0.414075 3.247751 -0.026714 -0.271638
    10 3.890452 -0.148446 -0.000003 -1.840734 -0.083331 -1.432238
    11 17.848175 0.000000 0.000000 0.000000 0.000000 1.079397
    12 16.525248 0.000000 0.000000 0.205033 0.033239 -0.673721
    13 -3.890452 0.148446 0.000007 -1.299308 -0.592538 -1.578722
    14 17.848171 0.000000 0.000000 0.000000 0.000000 0.235760
    15 16.525253 0.000000 0.000000 -0.122703 0.128488 -1.272840
    16 11.479830 -0.000111 0.000311 -0.864692 0.385710 -0.016685
  time 17
    0 1.610986 -104.921046 36.910617 1.778837 -0.020038 -0.000081
    1 0.000005 3.345128 -2.981901 1.568207 0.102077 1.559734
    2 7.493127 0.550798 -0.078127 -0.114117 0.030597 0.364335
    3 10.861980 1.413236 -1.789168 -1.116804 1.353595 3.724585
    4 6.028143 0.000000 0.000000 1.648518 -0.068114 -0.674421
    5 11.692554 0.000000 0.000008 0.000000 0.000000 -2.011874
    6 10.475243 1.506983 2.066570 2.106940 -1.391092 2.666444
    7 6.028142 0.000000 0.000000 -1.399406 -0.321018 -1.121361
    8 11.692558 0.000000 0.000001 0.000000 0.000000 -1.839216
    9 14.582750 3.428311 0.484390 3.247798 -0.050323 -0.267335
    10 3.890452 -0.148446 -0.000003 -1.814729 -0.209555 -1.450844
    11 17.848175 0.000000 0.000000 0.000000 0.000000 1.280779
    12 16.525248 0.000000 0.000000 0.150654 -0.008945 -0.839832
    13 -3.890452 0.148446 0.000007 -1.309976 -0.671346 -1.592719
    14 17.848171 0.000000 0.000000 0.000000 0.000000 0.516735
    15 16.525253 0.000000 0.000000 -0.087858 0.152103 -1.235420
    16 11.479830 -0.000111 0.000311 -0.863763 0.371690 -0.016434
  time 18
    0 1.610987 -111.073111 36.137156 1.763616 -0.013183 -0.020432
    1 0.000005 3.345128 -2.981901 1.569669 0.102077 1.563054
    2 7.489221 0.570330 -0.128910 -0.094978 0.052217 0.386483
    3 10.865887 1.440581 -1.761823 -1.159664 1.365029 3.684110
    4 6.028143 0.000000 0.000000 1.659305 0.035784 -0.646944
    5 11.692554 0.000000 0.000008 0.000000 0.000000 -1.997692
    6 10.463524 1.479638 2.093915 2.028373 -1.392135 2.745262
    7 6.028142 0.000000 0.000000 -1.390017 -0.183287 -1.126647
    8 11.692558 0.000000 0.000001 0.000000 0.000000 -1.882680
    9 14.574937 3.428311 0.558611 3.244039 -0.070469 -0.264607
    10 3.890452 -0.148446 -0.000003 -1.789976 -0.347185 -1.470777
    11 17.848175 0.000000 0.000000 0.000000 0.000000 1.466416
    12 16.525248 0.000000 0.000000 0.104363 -0.052747 -0.995670
    13 -3.890452 0.148446 0.000007 -1.327938 -0.602563 -1.601569
    14 17.848171 0.000000 0.000000 0.000000 0.000000 0.778255
    15 16.525253 0.000000 0.000000 -0.047985 0.135874 -1.460297
    16 11.479830 -0.000111 0.000311 -0.862512 0.351982 -0.016098
  time 19
    0 1.610987 -117.225176 35.711362 1.747569 -0.006532 -0.033838
    1 0.000005 3.345128 -2.981901 1.571383 0.102077 1.567105
    2 7.481408 0.597675 -0.171880 -0.073921 0.070326 0.416180
    3 10.873699 1.467925 -1.734479 -1.218061 1.375431 3.627909
    4 6.028143 0.000000 0.000000 1.682788 0.156475 -0.622971
    5 11.692554 0.000000 0.000008 0.000000 0.000000 -1.962235
    6 10.455711 1.452294 2.117353 1.945839 -1.393861 2.827728
    7 6.028142 0.000000 0.000000 -1.369914 -0.032813 -1.119374
    8 11.692558 0.000000 0.000001 0.000000 0.000000 -1.897751
    9 14.567124 3.428311 0.628925 3.242653 -0.083736 -0.263243
    10 3.890452 -0.148446 -0.000003 -1.770674 -0.478764 -1.487170
    11 17.848175 0.000000 0.000000 0.000000 0.000000 1.574116
    12 16.525248 0.000000 0.000000 0.077009 -0.091662 -1.085300
    13 -3.890452 0.148446 0.000007 -1.348271 -0.383777 -1.590901
    14 17.848171 0.000000 0.000000 0.000000 0.000000 0.770038
    15 16.525253 0.000000 0.000000 -0.005215 0.105348 -1.590139
    16 11.479830 -0.000111 0.000311 -0.861018 0.328392 -0.015739
  time 20
    0 1.610987 -123.377241 35.570732 1.740162 -0.002133 -0.035938
    1 0.000005 3.345128 -2.981901 1.572090 0.102077 1.571000
    2 7.477502 0.613300 -0.199225 -0.053343 0.079961 0.431207
    3 10.873699 1.495270 -1.711041 -1.287401 1.383221 3.560903
    4 6.028143 0.000000 0.000000 1.710472 0.274346 -0.609267
    5 11.692554 0.000000 0.000008 0.000000 0.000000 -1.906312
    6 10.447898 1.424949 2.140791 1.867189 -1.396245 2.906486
    7 6.028142 0.000000 0.000000 -1.334620 0.111961 -1.096074
    8 11.692558 0.000000 0.000001 0.000000 0.000000 -1.868152
    9 14.563218 3.424405 0.683615 3.249467 -0.086768 -0.262707
    10 3.890452 -0.148446 -0.000003 -1.758856 -0.678475 -1.488896
    11 17.848175 0.000000 0.000000 0.000000 0.000000 1.678678
    12 16.525248 0.000000 0.000000 0.056206 -0.124290 -1.064486
    13 -3.890452 0.148446 0.000007 -1.345946 -0.071147 -1.570942
    14 17.848171 0.000000 0.000000 0.000000 0.000000 0.515052
    15 16.525253 0.000000 0.000000 0.035387 0.067406 -1.605612
    16 11.479830 -0.000111 0.000311 -0.859242 0.299984 -0.015355
end
