// Created by Crowbar 0.74
version 1
nodes
  0 "ValveBiped.Bip01" -1
  1 "ValveBiped.Bip01_Spine" 0
  2 "ValveBiped.Bip01_Spine2" 1
  3 "ValveBiped.Bip01_R_Clavicle" 2
  4 "ValveBiped.Bip01_R_UpperArm" 3
  5 "ValveBiped.Bip01_R_Forearm" 4
  6 "ValveBiped.Bip01_L_Clavicle" 2
  7 "ValveBiped.Bip01_L_UpperArm" 6
  8 "ValveBiped.Bip01_L_Forearm" 7
  9 "ValveBiped.Bip01_Head1" 2
  10 "ValveBiped.Bip01_L_Thigh" 0
  11 "ValveBiped.Bip01_L_Calf" 10
  12 "ValveBiped.Bip01_L_Foot" 11
  13 "ValveBiped.Bip01_R_Thigh" 0
  14 "ValveBiped.Bip01_R_Calf" 13
  15 "ValveBiped.Bip01_R_Foot" 14
  16 "ValveBiped.Bip01_R_Hand" 5
end
skeleton
  time 0
    0 1.610982 -0.335943 35.457448 1.654365 -0.007766 0.172314
    1 0.000005 3.345128 -2.981901 1.576704 0.102077 1.581378
    2 7.485314 0.578143 -0.160161 -0.032754 0.073813 0.422447
    3 10.830729 1.573397 -1.683696 -1.482476 1.380812 3.379948
    4 6.028143 0.000000 0.000000 1.832950 0.478355 -0.786527
    5 11.692554 0.000000 0.000008 0.000000 0.000000 -1.687972
    6 10.467430 1.370260 2.168136 1.665608 -1.415097 3.115775
    7 6.028142 0.000000 0.000000 -1.164557 0.366860 -0.713363
    8 11.692558 0.000000 0.000001 0.000000 0.000000 -1.608873
    9 14.535873 3.459562 0.722678 3.022380 -0.037308 -0.242555
    10 3.890452 -0.148446 -0.000003 -1.134692 -0.934416 -1.774062
    11 17.848175 0.000000 0.000000 0.000000 0.000000 1.616432
    12 16.525248 0.000000 0.000000 -0.084563 -0.128267 -1.023341
    13 -3.890452 0.148446 0.000007 -1.038122 -0.142002 -1.399377
    14 17.848171 0.000000 0.000000 0.000000 0.000000 0.596434
    15 16.525253 0.000000 0.000000 -0.236412 -0.003868 -1.505469
    16 11.479830 -0.000111 0.000311 -0.860695 0.322972 -0.015655
  time 1
    0 6.602721 -0.335943 35.320725 1.650122 -0.002109 0.137318
    1 0.000005 3.345128 -2.981901 1.577483 0.102077 1.583524
    2 7.489221 0.562517 -0.128910 -0.041371 0.061457 0.417448
    3 10.822917 1.581210 -1.687602 -1.532274 1.375779 3.329558
    4 6.028143 0.000000 0.000000 1.791390 0.484776 -0.801468
    5 11.692554 0.000000 0.000008 0.000000 0.000000 -1.685608
    6 10.479149 1.358541 2.164229 1.641526 -1.421341 3.138951
    7 6.028142 0.000000 0.000000 -1.186068 0.406287 -0.725013
    8 11.692558 0.000000 0.000001 0.000000 0.000000 -1.579635
    9 14.543686 3.451750 0.703146 3.023883 -0.031951 -0.238252
    10 3.890452 -0.148446 -0.000003 -1.378201 -0.962747 -1.456618
    11 17.848175 0.000000 0.000000 0.000000 0.000000 1.607645
    12 16.525248 0.000000 0.000000 -0.025811 -0.071977 -1.002339
    13 -3.890452 0.148446 0.000007 -1.001810 -0.128697 -1.581593
    14 17.848171 0.000000 0.000000 0.000000 0.000000 0.689795
    15 16.525253 0.000000 0.000000 -0.064774 -0.070736 -1.626550
    16 11.479830 -0.000111 0.000311 -0.859242 0.299984 -0.015355
  time 2
    0 11.594461 -0.335942 35.625421 1.653574 0.003296 0.080679
    1 0.000005 3.345128 -2.981901 1.577400 0.102077 1.583368
    2 7.493127 0.554704 -0.085940 -0.058293 0.046644 0.415240
    3 10.819010 1.553865 -1.718853 -1.483727 1.367246 3.373151
    4 6.028143 0.000000 0.000000 1.712630 0.475200 -0.811459
    5 11.692554 0.000000 0.000008 0.000000 0.000000 -1.716462
    6 10.498681 1.374166 2.140791 1.717740 -1.427262 3.059508
    7 6.028142 0.000000 0.000000 -1.252296 0.456906 -0.768822
    8 11.692558 0.000000 0.000001 0.000000 0.000000 -1.610380
    9 14.559312 3.436124 0.628925 3.117185 0.000647 -0.240022
    10 3.890452 -0.148446 -0.000003 -1.620369 -0.888063 -1.169748
    11 17.848175 0.000000 0.000000 0.000000 0.000000 1.461970
    12 16.525248 0.000000 0.000000 -0.007635 0.038531 -0.995777
    13 -3.890452 0.148446 0.000007 -1.038738 -0.191013 -1.773184
    14 17.848171 0.000000 0.000000 0.000000 0.000000 0.822114
    15 16.525253 0.000000 0.000000 0.030552 -0.157922 -1.492253
    16 11.479830 -0.000111 0.000311 -0.857990 0.279306 -0.015115
  time 3
    0 16.586201 -0.335942 36.367632 1.661423 0.007898 0.014995
    1 0.000005 3.345128 -2.981901 1.576800 0.102077 1.581930
    2 7.493127 0.566424 -0.042970 -0.077708 0.032466 0.417733
    3 10.815104 1.518708 -1.750104 -1.425489 1.357982 3.424735
    4 6.028143 0.000000 0.000000 1.635732 0.447941 -0.800649
    5 11.692554 0.000000 0.000008 0.000000 0.000000 -1.764360
    6 10.518213 1.393698 2.109540 1.818226 -1.431372 2.954491
    7 6.028142 0.000000 0.000000 -1.345082 0.487571 -0.833287
    8 11.692558 0.000000 0.000001 0.000000 0.000000 -1.687121
    9 14.582750 3.412686 0.550798 3.226323 0.037248 -0.254393
    10 3.890452 -0.148446 -0.000003 -1.779387 -0.761340 -1.002829
    11 17.848175 0.000000 0.000000 0.000000 0.000000 1.218795
    12 16.525248 0.000000 0.000000 -0.054582 0.089918 -0.876243
    13 -3.890452 0.148446 0.000007 -1.134431 -0.255773 -1.920390
    14 17.848171 0.000000 0.000000 0.000000 0.000000 0.816174
    15 16.525253 0.000000 0.000000 0.105731 -0.243127 -1.176319
    16 11.479830 -0.000111 0.000311 -0.856739 0.258929 -0.014900
  time 4
    0 21.577940 -0.335942 37.234846 1.671371 0.010990 -0.047136
    1 0.000005 3.345128 -2.981901 1.575854 0.102077 1.579617
    2 7.489221 0.585955 0.000000 -0.097531 0.020110 0.422732
    3 10.815104 1.479644 -1.781355 -1.363088 1.348442 3.479694
    4 6.028143 0.000000 0.000000 1.574118 0.400882 -0.774654
    5 11.692554 0.000000 0.000008 0.000000 0.000000 -1.821526
    6 10.537745 1.413230 2.082196 1.932842 -1.432607 2.834903
    7 6.028142 0.000000 0.000000 -1.447928 0.476252 -0.902129
    8 11.692558 0.000000 0.000001 0.000000 0.000000 -1.783815
    9 14.606188 3.389248 0.468764 3.310673 0.066107 -0.280650
    10 3.890452 -0.148446 -0.000003 -1.887760 -0.673953 -0.904890
    11 17.848175 0.000000 0.000000 0.000000 0.000000 1.029182
    12 16.525248 0.000000 0.000000 -0.115379 0.103417 -0.741516
    13 -3.890452 0.148446 0.000007 -1.268101 -0.158556 -1.976632
    14 17.848171 0.000000 0.000000 0.000000 0.000000 0.459263
    15 16.525253 0.000000 0.000000 0.220668 -0.313956 -0.897212
    16 11.479830 -0.000111 0.000311 -0.855528 0.238685 -0.014720
  time 5
    0 26.569680 -0.335942 37.902835 1.681366 0.012284 -0.094192
    1 0.000005 3.345128 -2.981901 1.574667 0.102077 1.576656
    2 7.485314 0.609394 0.031251 -0.115831 0.010463 0.428244
    3 10.819010 1.440581 -1.812606 -1.300504 1.339274 3.535052
    4 6.028143 0.000000 0.000000 1.535783 0.331407 -0.740237
    5 11.692554 0.000000 0.000008 0.000000 0.000000 -1.877822
    6 10.553370 1.436668 2.054851 2.047563 -1.430378 2.715456
    7 6.028142 0.000000 0.000000 -1.537177 0.409514 -0.953337
    8 11.692558 0.000000 0.000001 0.000000 0.000000 -1.871889
    9 14.629626 3.361903 0.394543 3.360860 0.083628 -0.310577
    10 3.890452 -0.148446 -0.000003 -1.947185 -0.597773 -0.868299
    11 17.848175 0.000000 0.000000 0.000000 0.000000 0.880631
    12 16.525248 0.000000 0.000000 -0.158402 0.090221 -0.669526
    13 -3.890452 0.148446 0.000007 -1.388071 -0.224708 -2.058627
    14 17.848171 0.000000 0.000000 0.000000 0.000000 0.594008
    15 16.525253 0.000000 0.000000 0.235251 -0.310993 -0.864633
    16 11.479830 -0.000111 0.000311 -0.854317 0.218442 -0.014564
  time 6
    0 31.561420 -0.335941 38.059089 1.689443 0.010966 -0.117612
    1 0.000005 3.345128 -2.981901 1.573313 0.102077 1.573289
    2 7.481408 0.625019 0.062502 -0.131075 0.004278 0.431947
    3 10.822917 1.405423 -1.836044 -1.240310 1.331280 3.589097
    4 6.028143 0.000000 0.000000 1.522270 0.238680 -0.705438
    5 11.692554 0.000000 0.000008 0.000000 0.000000 -1.923294
    6 10.565089 1.460106 2.027506 2.147923 -1.424829 2.611446
    7 6.028142 0.000000 0.000000 -1.593496 0.292052 -0.974755
    8 11.692558 0.000000 0.000001 0.000000 0.000000 -1.929701
    9 14.645252 3.338465 0.335948 3.370000 0.087116 -0.330810
    10 3.890452 -0.148446 -0.000003 -1.963449 -0.562326 -0.877126
    11 17.848175 0.000000 0.000000 0.000000 0.000000 0.825552
    12 16.525248 0.000000 0.000000 -0.183159 0.054070 -0.733152
    13 -3.890452 0.148446 0.000007 -1.489167 -0.236868 -2.098104
    14 17.848171 0.000000 0.000000 0.000000 0.000000 0.776077
    15 16.525253 0.000000 0.000000 0.199542 -0.181299 -0.960055
    16 11.479830 -0.000111 0.000311 -0.853065 0.197797 -0.014432
  time 7
    0 36.553159 -0.335941 37.613763 1.693219 0.006747 -0.122081
    1 0.000005 3.345128 -2.981901 1.571863 0.102077 1.569681
    2 7.481408 0.628926 0.082034 -0.142401 0.001246 0.427033
    3 10.826823 1.374172 -1.855576 -1.184642 1.325348 3.640588
    4 6.028143 0.000000 0.000000 1.521521 0.128510 -0.674752
    5 11.692554 0.000000 0.000008 0.000000 0.000000 -1.951349
    6 10.568996 1.483545 2.007975 2.223130 -1.416799 2.534341
    7 6.028142 0.000000 0.000000 -1.615527 0.152247 -0.979576
    8 11.692558 0.000000 0.000001 0.000000 0.000000 -1.949655
    9 14.653064 3.330652 0.292978 3.359122 0.081471 -0.339887
    10 3.890452 -0.148446 -0.000003 -1.925984 -0.514410 -0.953606
    11 17.848175 0.000000 0.000000 0.000000 0.000000 0.736002
    12 16.525248 0.000000 0.000000 -0.186338 -0.007866 -0.838783
    13 -3.890452 0.148446 0.000007 -1.554543 -0.276752 -2.132637
    14 17.848171 0.000000 0.000000 0.000000 0.000000 1.036063
    15 16.525253 0.000000 0.000000 0.200156 -0.113544 -1.049269
    16 11.479830 -0.000111 0.000311 -0.852137 0.181669 -0.014348
  time 8
    0 41.544899 -0.335941 36.723111 1.688005 -0.000395 -0.115190
    1 0.000005 3.345128 -2.981901 1.570413 0.102077 1.565990
    2 7.481408 0.617206 0.085940 -0.149352 0.001342 0.412534
    3 10.830729 1.358547 -1.863389 -1.136869 1.321980 3.687274
    4 6.028143 0.000000 0.000000 1.523951 0.013924 -0.646229
    5 11.692554 0.000000 0.000008 0.000000 0.000000 -1.961053
    6 10.561183 1.506983 1.996256 2.269132 -1.408026 2.489097
    7 6.028142 0.000000 0.000000 -1.609089 0.020448 -0.990211
    8 11.692558 0.000000 0.000001 0.000000 0.000000 -1.938684
    9 14.653064 3.334559 0.273446 3.349418 0.072926 -0.344109
    10 3.890452 -0.148446 -0.000003 -1.852395 -0.466028 -1.068247
    11 17.848175 0.000000 0.000000 0.000000 0.000000 0.634161
    12 16.525248 0.000000 0.000000 -0.230211 0.131832 -0.856263
    13 -3.890452 0.148446 0.000007 -1.624068 -0.295223 -2.054006
    14 17.848171 0.000000 0.000000 0.000000 0.000000 1.197836
    15 16.525253 0.000000 0.000000 0.256434 -0.104716 -1.030618
    16 11.479830 -0.000111 0.000311 -0.851773 0.175880 -0.014324
  time 9
    0 46.536639 -0.335941 35.898867 1.675218 -0.010091 -0.095592
    1 0.000005 3.345128 -2.981901 1.569022 0.102077 1.562479
    2 7.485314 0.593768 0.078127 -0.151270 0.005333 0.393775
    3 10.838542 1.350734 -1.867295 -1.101585 1.321896 3.724468
    4 6.028143 0.000000 0.000000 1.533580 -0.091606 -0.621820
    5 11.692554 0.000000 0.000008 0.000000 0.000000 -1.958005
    6 10.549464 1.526515 1.996256 2.284606 -1.400344 2.476683
    7 6.028142 0.000000 0.000000 -1.575975 -0.088651 -1.017274
    8 11.692558 0.000000 0.000001 0.000000 0.000000 -1.911978
    9 14.641345 3.350184 0.277352 3.335062 0.061469 -0.343427
    10 3.890452 -0.148446 -0.000003 -1.728965 -0.531701 -1.228286
    11 17.848175 0.000000 0.000000 0.000000 0.000000 0.781771
    12 16.525248 0.000000 0.000000 -0.277264 0.113513 -1.101677
    13 -3.890452 0.148446 0.000007 -1.648846 -0.284951 -1.933877
    14 17.848171 0.000000 0.000000 0.000000 0.000000 1.332780
    15 16.525253 0.000000 0.000000 0.301718 -0.106063 -1.050843
    16 11.479830 -0.000111 0.000311 -0.852096 0.181100 -0.014348
  time 10
    0 51.528378 -0.335941 35.461354 1.660980 -0.020805 -0.062911
    1 0.000005 3.345128 -2.981901 1.567848 0.102077 1.559483
    2 7.493127 0.570330 0.054689 -0.147914 0.013075 0.375359
    3 10.842448 1.358547 -1.855576 -1.082999 1.325779 3.746967
    4 6.028143 0.000000 0.000000 1.555904 -0.176966 -0.607646
    5 11.692554 0.000000 0.000008 0.000000 0.000000 -1.951535
    6 10.529932 1.534328 2.004068 2.269384 -1.395167 2.496030
    7 6.028142 0.000000 0.000000 -1.520679 -0.167022 -1.055796
    8 11.692558 0.000000 0.000001 0.000000 0.000000 -1.886659
    9 14.625720 3.377529 0.304697 3.310532 0.047004 -0.338946
    10 3.890452 -0.148446 -0.000003 -1.537889 -0.571404 -1.476794
    11 17.848175 0.000000 0.000000 0.000000 0.000000 0.874040
    12 16.525248 0.000000 0.000000 -0.237121 -0.116369 -1.314498
    13 -3.890452 0.148446 0.000007 -1.607678 -0.244325 -1.814852
    14 17.848171 0.000000 0.000000 0.000000 0.000000 1.372530
    15 16.525253 0.000000 0.000000 0.303618 -0.114447 -1.045289
    16 11.479830 -0.000111 0.000311 -0.853065 0.197495 -0.014432
  time 11
    0 56.520118 -0.335940 35.340256 1.651584 -0.030728 -0.018494
    1 0.000005 3.345128 -2.981901 1.567213 0.102077 1.557697
    2 7.493127 0.550798 0.015625 -0.139441 0.024389 0.361529
    3 10.846355 1.374172 -1.839951 -1.079654 1.332982 3.754936
    4 6.028143 0.000000 0.000000 1.594194 -0.231874 -0.608727
    5 11.692554 0.000000 0.000008 0.000000 0.000000 -1.950789
    6 10.510400 1.534328 2.019694 2.230962 -1.392255 2.538492
    7 6.028142 0.000000 0.000000 -1.455440 -0.209006 -1.081147
    8 11.692558 0.000000 0.000001 0.000000 0.000000 -1.878943
    9 14.606188 3.400967 0.351573 3.268310 0.028799 -0.332564
    10 3.890452 -0.148446 -0.000003 -1.336447 -0.565452 -1.735236
    11 17.848175 0.000000 0.000000 0.000000 0.000000 0.885443
    12 16.525248 0.000000 0.000000 -0.165207 -0.306847 -1.366077
    13 -3.890452 0.148446 0.000007 -1.515290 -0.187331 -1.708567
    14 17.848171 0.000000 0.000000 0.000000 0.000000 1.317285
    15 16.525253 0.000000 0.000000 0.253191 -0.126905 -0.982833
    16 11.479830 -0.000111 0.000311 -0.854680 0.224464 -0.014612
  time 12
    0 61.511858 -0.335940 35.672298 1.650302 -0.038123 0.033354
    1 0.000005 3.345128 -2.981901 1.567249 0.102077 1.557601
    2 7.497033 0.542985 -0.027345 -0.126401 0.038950 0.360346
    3 10.854167 1.389798 -1.816513 -1.091029 1.342629 3.747553
    4 6.028143 0.000000 0.000000 1.649131 -0.243157 -0.628027
    5 11.692554 0.000000 0.000008 0.000000 0.000000 -1.957383
    6 10.490868 1.522608 2.039226 2.175008 -1.391080 2.597238
    7 6.028142 0.000000 0.000000 -1.391895 -0.205254 -1.076538
    8 11.692558 0.000000 0.000001 0.000000 0.000000 -1.899318
    9 14.590562 3.420499 0.414075 3.204120 0.007718 -0.326767
    10 3.890452 -0.148446 -0.000003 -1.161634 -0.491599 -1.952396
    11 17.848175 0.000000 0.000000 0.000000 0.000000 0.767125
    12 16.525248 0.000000 0.000000 -0.121154 -0.462118 -1.231672
    13 -3.890452 0.148446 0.000007 -1.403754 -0.159391 -1.613578
    14 17.848171 0.000000 0.000000 0.000000 0.000000 1.226399
    15 16.525253 0.000000 0.000000 0.126723 -0.148666 -0.834162
    16 11.479830 -0.000111 0.000311 -0.856779 0.259932 -0.014912
  time 13
    0 66.503597 -0.335940 36.457478 1.654784 -0.041539 0.085578
    1 0.000005 3.345128 -2.981901 1.567668 0.102077 1.558632
    2 7.493127 0.554704 -0.078127 -0.109863 0.055141 0.375017
    3 10.861980 1.413236 -1.789168 -1.117623 1.353715 3.723812
    4 6.028143 0.000000 0.000000 1.713311 -0.205784 -0.658329
    5 11.692554 0.000000 0.000008 0.000000 0.000000 -1.962981
    6 10.475243 1.506983 2.066570 2.105848 -1.391188 2.667532
    7 6.028142 0.000000 0.000000 -1.334603 -0.158701 -1.047360
    8 11.692558 0.000000 0.000001 0.000000 0.000000 -1.936634
    9 14.582750 3.428311 0.488296 3.129567 -0.013039 -0.323600
    10 3.890452 -0.148446 -0.000003 -1.035925 -0.413423 -2.096108
    11 17.848175 0.000000 0.000000 0.000000 0.000000 0.612349
    12 16.525248 0.000000 0.000000 -0.190471 -0.504420 -0.884741
    13 -3.890452 0.148446 0.000007 -1.316928 -0.150542 -1.505493
    14 17.848171 0.000000 0.000000 0.000000 0.000000 1.086506
    15 16.525253 0.000000 0.000000 -0.011623 -0.095302 -0.626005
    16 11.479830 -0.000111 0.000311 -0.859242 0.300018 -0.015355
  time 14
    0 71.495337 -0.335940 37.336411 1.663377 -0.040652 0.130642
    1 0.000005 3.345128 -2.981901 1.568435 0.102077 1.560549
    2 7.489221 0.578143 -0.128910 -0.091083 0.070397 0.398006
    3 10.865887 1.440581 -1.761823 -1.160210 1.365101 3.683571
    4 6.028143 0.000000 0.000000 1.774857 -0.124562 -0.685440
    5 11.692554 0.000000 0.000008 0.000000 0.000000 -1.958813
    6 10.463524 1.479638 2.093915 2.027680 -1.392183 2.745967
    7 6.028142 0.000000 0.000000 -1.290289 -0.081671 -0.992790
    8 11.692558 0.000000 0.000001 0.000000 0.000000 -1.968825
    9 14.574937 3.428311 0.558611 3.060513 -0.030872 -0.323048
    10 3.890452 -0.148446 -0.000003 -0.948575 -0.382366 -2.190042
    11 17.848175 0.000000 0.000000 0.000000 0.000000 0.506950
    12 16.525248 0.000000 0.000000 -0.272802 -0.331116 -0.477707
    13 -3.890452 0.148446 0.000007 -1.290007 -0.147974 -1.380692
    14 17.848171 0.000000 0.000000 0.000000 0.000000 0.895130
    15 16.525253 0.000000 0.000000 -0.037124 0.004738 -0.436112
    16 11.479830 -0.000111 0.000311 -0.861664 0.338899 -0.015894
  time 15
    0 76.487077 -0.335940 37.953617 1.673887 -0.037248 0.163269
    1 0.000005 3.345128 -2.981901 1.569490 0.102077 1.563198
    2 7.481408 0.601581 -0.171880 -0.071740 0.082394 0.419613
    3 10.873699 1.467925 -1.734479 -1.218266 1.375443 3.627721
    4 6.028143 0.000000 0.000000 1.824888 -0.012927 -0.699423
    5 11.692554 0.000000 0.000008 0.000000 0.000000 -1.937912
    6 10.455711 1.452294 2.117353 1.945608 -1.393872 2.827970
    7 6.028142 0.000000 0.000000 -1.257963 0.014222 -0.924287
    8 11.692558 0.000000 0.000001 0.000000 0.000000 -1.975215
    9 14.567124 3.428311 0.628925 3.012746 -0.043157 -0.323974
    10 3.890452 -0.148446 -0.000003 -0.891674 -0.363313 -2.244155
    11 17.848175 0.000000 0.000000 0.000000 0.000000 0.483150
    12 16.525248 0.000000 0.000000 -0.120870 -0.104841 -0.377240
    13 -3.890452 0.148446 0.000007 -1.291899 -0.141971 -1.271265
    14 17.848171 0.000000 0.000000 0.000000 0.000000 0.685043
    15 16.525253 0.000000 0.000000 -0.016862 0.105729 -0.327861
    16 11.479830 -0.000111 0.000311 -0.863642 0.369783 -0.016398
  time 16
    0 81.478816 -0.335939 38.066902 1.683715 -0.032263 0.181413
    1 0.000005 3.345128 -2.981901 1.570772 0.102077 1.566422
    2 7.477502 0.613300 -0.199225 -0.053787 0.089489 0.430794
    3 10.873699 1.495270 -1.711041 -1.287401 1.383221 3.560903
    4 6.028143 0.000000 0.000000 1.858000 0.110789 -0.701515
    5 11.692554 0.000000 0.000008 0.000000 0.000000 -1.897852
    6 10.447898 1.424949 2.140791 1.867189 -1.396245 2.906486
    7 6.028142 0.000000 0.000000 -1.232160 0.116006 -0.856333
    8 11.692558 0.000000 0.000001 0.000000 0.000000 -1.943747
    9 14.563218 3.424405 0.683615 3.001327 -0.047291 -0.324315
    10 3.890452 -0.148446 -0.000003 -0.856689 -0.423067 -2.282207
    11 17.848175 0.000000 0.000000 0.000000 0.000000 0.672763
    12 16.525248 0.000000 0.000000 0.034941 -0.047927 -0.478998
    13 -3.890452 0.148446 0.000007 -1.277857 -0.175976 -1.206937
    14 17.848171 0.000000 0.000000 0.000000 0.000000 0.604849
    15 16.525253 0.000000 0.000000 -0.040981 0.221951 -0.541334
    16 11.479830 -0.000111 0.000311 -0.864732 0.386647 -0.016697
  time 17
    0 86.470556 -0.335939 37.566887 1.689827 -0.026354 0.190135
    1 0.000005 3.345128 -2.981901 1.572234 0.102077 1.570077
    2 7.477502 0.609394 -0.210944 -0.040975 0.091011 0.432204
    3 10.865887 1.518708 -1.695415 -1.351940 1.386865 3.499499
    4 6.028143 0.000000 0.000000 1.874851 0.234468 -0.703816
    5 11.692554 0.000000 0.000008 0.000000 0.000000 -1.842178
    6 10.447898 1.405417 2.156417 1.804096 -1.399481 2.970895
    7 6.028142 0.000000 0.000000 -1.210749 0.205947 -0.797767
    8 11.692558 0.000000 0.000001 0.000000 0.000000 -1.875085
    9 14.555405 3.428311 0.714866 3.010138 -0.046165 -0.313451
    10 3.890452 -0.148446 -0.000003 -0.838795 -0.545035 -2.290503
    11 17.848175 0.000000 0.000000 0.000000 0.000000 0.975672
    12 16.525248 0.000000 0.000000 -0.014454 -0.023928 -0.687140
    13 -3.890452 0.148446 0.000007 -1.254835 -0.185939 -1.157811
    14 17.848171 0.000000 0.000000 0.000000 0.000000 0.518666
    15 16.525253 0.000000 0.000000 -0.115009 0.334400 -0.738503
    16 11.479830 -0.000111 0.000311 -0.864692 0.385710 -0.016685
  time 18
    0 91.462295 -0.335939 36.656703 1.684386 -0.020110 0.193311
    1 0.000005 3.345128 -2.981901 1.573804 0.102077 1.573960
    2 7.481408 0.601581 -0.203131 -0.033713 0.088458 0.430765
    3 10.858074 1.538240 -1.687602 -1.405424 1.387008 3.450234
    4 6.028143 0.000000 0.000000 1.877213 0.344044 -0.717468
    5 11.692554 0.000000 0.000008 0.000000 0.000000 -1.779787
    6 10.451805 1.389792 2.164229 1.752279 -1.403820 3.025288
    7 6.028142 0.000000 0.000000 -1.190059 0.274886 -0.753197
    8 11.692558 0.000000 0.000001 0.000000 0.000000 -1.781886
    9 14.547592 3.440031 0.730491 3.015307 -0.044379 -0.287340
    10 3.890452 -0.148446 -0.000003 -0.860331 -0.677079 -2.224510
    11 17.848175 0.000000 0.000000 0.000000 0.000000 1.267493
    12 16.525248 0.000000 0.000000 -0.152731 -0.064797 -0.877050
    13 -3.890452 0.148446 0.000007 -1.215331 -0.122633 -1.122547
    14 17.848171 0.000000 0.000000 0.000000 0.000000 0.333527
    15 16.525253 0.000000 0.000000 -0.250381 0.346889 -0.909240
    16 11.479830 -0.000111 0.000311 -0.863683 0.370452 -0.016410
  time 19
    0 96.454035 -0.335939 35.887148 1.667907 -0.013830 0.188681
    1 0.000005 3.345128 -2.981901 1.575362 0.102077 1.577867
    2 7.485314 0.589862 -0.183599 -0.030896 0.082694 0.427204
    3 10.846355 1.557772 -1.683696 -1.448443 1.384731 3.411306
    4 6.028143 0.000000 0.000000 1.862292 0.426416 -0.747804
    5 11.692554 0.000000 0.000008 0.000000 0.000000 -1.723429
    6 10.455711 1.378073 2.168136 1.706445 -1.409141 3.073655
    7 6.028142 0.000000 0.000000 -1.170408 0.327350 -0.724273
    8 11.692558 0.000000 0.000001 0.000000 0.000000 -1.684770
    9 14.539780 3.455656 0.730491 3.019043 -0.041539 -0.259979
    10 3.890452 -0.148446 -0.000003 -0.944196 -0.825915 -2.064162
    11 17.848175 0.000000 0.000000 0.000000 0.000000 1.511086
    12 16.525248 0.000000 0.000000 -0.146031 -0.109577 -0.996315
    13 -3.890452 0.148446 0.000007 -1.138238 -0.144075 -1.200736
    14 17.848171 0.000000 0.000000 0.000000 0.000000 0.396345
    15 16.525253 0.000000 0.000000 -0.341275 0.193485 -1.186358
    16 11.479830 -0.000111 0.000311 -0.862270 0.348000 -0.016038
  time 20
    0 101.445775 -0.335938 35.457448 1.654365 -0.007766 0.172314
    1 0.000005 3.345128 -2.981901 1.576704 0.102077 1.581378
    2 7.485314 0.578143 -0.160161 -0.032754 0.073813 0.422447
    3 10.830729 1.573397 -1.683696 -1.482476 1.380812 3.379948
    4 6.028143 0.000000 0.000000 1.832950 0.478355 -0.786527
    5 11.692554 0.000000 0.000008 0.000000 0.000000 -1.687972
    6 10.467430 1.370260 2.168136 1.665608 -1.415097 3.115775
    7 6.028142 0.000000 0.000000 -1.164557 0.366860 -0.713363
    8 11.692558 0.000000 0.000001 0.000000 0.000000 -1.608873
    9 14.535873 3.459562 0.722678 3.022380 -0.037308 -0.242555
    10 3.890452 -0.148446 -0.000003 -1.134692 -0.934416 -1.774062
    11 17.848175 0.000000 0.000000 0.000000 0.000000 1.616432
    12 16.525248 0.000000 0.000000 -0.084563 -0.128267 -1.023341
    13 -3.890452 0.148446 0.000007 -1.038122 -0.142002 -1.399377
    14 17.848171 0.000000 0.000000 0.000000 0.000000 0.596434
    15 16.525253 0.000000 0.000000 -0.236412 -0.003868 -1.505469
    16 11.479830 -0.000111 0.000311 -0.860695 0.322972 -0.015655
end
