// Created by Crowbar 0.74
version 1
nodes
  0 "ValveBiped.Bip01" -1
  1 "ValveBiped.Bip01_Spine" 0
  2 "ValveBiped.Bip01_Spine2" 1
  3 "ValveBiped.Bip01_R_Clavicle" 2
  4 "ValveBiped.Bip01_R_UpperArm" 3
  5 "ValveBiped.Bip01_R_Forearm" 4
  6 "ValveBiped.Bip01_L_Clavicle" 2
  7 "ValveBiped.Bip01_L_UpperArm" 6
  8 "ValveBiped.Bip01_L_Forearm" 7
  9 "ValveBiped.Bip01_Head1" 2
  10 "ValveBiped.Bip01_L_Thigh" 0
  11 "ValveBiped.Bip01_L_Calf" 10
  12 "ValveBiped.Bip01_L_Foot" 11
  13 "ValveBiped.Bip01_R_Thigh" 0
  14 "ValveBiped.Bip01_R_Calf" 13
  15 "ValveBiped.Bip01_R_Foot" 14
  16 "ValveBiped.Bip01_R_Hand" 5
end
skeleton
  time 0
    0 1.610982 -0.335943 36.820770 1.453035 0.003799 -0.037068
    1 0.000005 3.345128 -2.981901 1.573696 0.102077 1.574559
    2 7.399374 0.957061 -0.214850 -0.035307 0.086900 0.531665
    3 10.865887 1.530427 -1.687602 -1.382652 1.388914 3.469945
    4 6.028143 0.000000 0.000000 1.626262 -0.138981 -0.602032
    5 11.692554 0.000000 0.000008 0.000000 0.000000 -1.935300
    6 10.447898 1.393698 2.164229 1.770923 -1.400248 3.004269
    7 6.028142 0.000000 0.000000 -1.283549 0.059895 -1.081422
    8 11.692558 0.000000 0.000001 0.000000 0.000000 -1.886478
    9 14.496810 3.315027 1.371136 3.245590 -0.039250 -0.173104
    10 3.890452 -0.148446 -0.000003 -1.841091 -0.335215 -1.421199
    11 17.848175 0.000000 0.000000 0.000000 0.000000 1.517363
    12 16.525248 0.000000 0.000000 0.157876 -0.084954 -0.994513
    13 -3.890452 0.148446 0.000007 -1.177719 -0.129378 -1.611166
    14 17.848171 0.000000 0.000000 0.000000 0.000000 0.621828
    15 16.525253 0.000000 0.000000 -0.113973 -0.032048 -1.389199
    16 11.479830 -0.000111 0.000311 -0.857990 0.279306 -0.015115
  time 1
    0 1.610981 5.237586 37.566887 1.459819 0.008066 -0.028616
    1 0.000005 3.345128 -2.981901 1.575146 0.102077 1.577807
    2 7.399374 0.957061 -0.214850 -0.025240 0.088207 0.529414
    3 10.854167 1.561678 -1.668071 -1.474104 1.390508 3.383486
    4 6.028143 0.000000 0.000000 1.665642 -0.258558 -0.620931
    5 11.692554 0.000000 0.000008 0.000000 0.000000 -1.957196
    6 10.447898 1.370260 2.179855 1.681670 -1.404587 3.095925
    7 6.028142 0.000000 0.000000 -1.243125 -0.060921 -1.132059
    8 11.692558 0.000000 0.000001 0.000000 0.000000 -1.879666
    9 14.488997 3.311120 1.406293 3.229589 -0.035283 -0.172324
    10 3.890452 -0.148446 -0.000003 -1.871518 0.042861 -1.410890
    11 17.848175 0.000000 0.000000 0.000000 0.000000 1.149855
    12 16.525248 0.000000 0.000000 0.197766 0.038565 -0.982493
    13 -3.890452 0.148446 0.000007 -1.173000 -0.194355 -1.561362
    14 17.848171 0.000000 0.000000 0.000000 0.000000 0.402335
    15 16.525253 0.000000 0.000000 -0.161770 -0.002727 -1.233549
    16 11.479830 -0.000111 0.000311 -0.856739 0.258929 -0.014900
  time 2
    0 1.610981 10.811114 38.434101 1.471432 0.011002 -0.012410
    1 0.000005 3.345128 -2.981901 1.576285 0.102077 1.580492
    2 7.403280 0.945341 -0.195318 -0.025443 0.083317 0.517735
    3 10.842448 1.585116 -1.660258 -1.540191 1.388291 3.321402
    4 6.028143 0.000000 0.000000 1.700094 -0.349522 -0.650257
    5 11.692554 0.000000 0.000008 0.000000 0.000000 -1.970446
    6 10.455711 1.350728 2.187668 1.616919 -1.409285 3.162853
    7 6.028142 0.000000 0.000000 -1.198660 -0.153796 -1.191746
    8 11.692558 0.000000 0.000001 0.000000 0.000000 -1.860918
    9 14.485090 3.315027 1.418012 3.202780 -0.030788 -0.172698
    10 3.890452 -0.148446 -0.000003 -1.918098 0.282741 -1.392550
    11 17.848175 0.000000 0.000000 0.000000 0.000000 0.817392
    12 16.525248 0.000000 0.000000 0.250220 0.121097 -0.707121
    13 -3.890452 0.148446 0.000007 -1.169878 -0.110287 -1.475698
    14 17.848171 0.000000 0.000000 0.000000 0.000000 0.000030
    15 16.525253 0.000000 0.000000 -0.178368 -0.026913 -1.149650
    16 11.479830 -0.000111 0.000311 -0.855528 0.238685 -0.014720
  time 3
    0 1.610981 16.384642 39.094277 1.484231 0.011781 0.008695
    1 0.000005 3.345128 -2.981901 1.577052 0.102077 1.582433
    2 7.411093 0.925810 -0.167974 -0.033377 0.071991 0.497694
    3 10.830729 1.592929 -1.668071 -1.560551 1.383125 3.302794
    4 6.028143 0.000000 0.000000 1.721850 -0.407010 -0.680454
    5 11.692554 0.000000 0.000008 0.000000 0.000000 -1.981518
    6 10.463524 1.346822 2.183761 1.599513 -1.414905 3.181474
    7 6.028142 0.000000 0.000000 -1.158185 -0.207014 -1.250122
    8 11.692558 0.000000 0.000001 0.000000 0.000000 -1.839638
    9 14.488997 3.318933 1.394574 3.173787 -0.026234 -0.174176
    10 3.890452 -0.148446 -0.000003 -1.940639 0.422100 -1.397328
    11 17.848175 0.000000 0.000000 0.000000 0.000000 0.509775
    12 16.525248 0.000000 0.000000 0.288512 0.146191 -0.359007
    13 -3.890452 0.148446 0.000007 -1.151140 -0.168797 -1.475596
    14 17.848171 0.000000 0.000000 0.000000 0.000000 0.000030
    15 16.525253 0.000000 0.000000 -0.195580 -0.004629 -1.045735
    16 11.479830 -0.000111 0.000311 -0.854317 0.218442 -0.014564
  time 4
    0 1.610981 21.958170 39.254438 1.494562 0.009420 0.031954
    1 0.000005 3.345128 -2.981901 1.577483 0.102077 1.583524
    2 7.418906 0.906278 -0.128910 -0.047123 0.055333 0.477469
    3 10.822917 1.581210 -1.687602 -1.532274 1.375779 3.329558
    4 6.028143 0.000000 0.000000 1.727982 -0.422430 -0.703799
    5 11.692554 0.000000 0.000008 0.000000 0.000000 -1.995514
    6 10.479149 1.358541 2.164229 1.641526 -1.421341 3.138951
    7 6.028142 0.000000 0.000000 -1.138787 -0.221729 -1.277989
    8 11.692558 0.000000 0.000001 0.000000 0.000000 -1.830113
    9 14.500716 3.322839 1.335978 3.153486 -0.021776 -0.176254
    10 3.890452 -0.148446 -0.000003 -1.951943 0.583373 -1.450025
    11 17.848175 0.000000 0.000000 0.000000 0.000000 0.127829
    12 16.525248 0.000000 0.000000 0.265635 0.195555 -0.190503
    13 -3.890452 0.148446 0.000007 -1.110314 -0.341945 -1.552257
    14 17.848171 0.000000 0.000000 0.000000 0.000000 0.356546
    15 16.525253 0.000000 0.000000 -0.220121 0.038037 -1.119892
    16 11.479830 -0.000111 0.000311 -0.853065 0.197797 -0.014432
  time 5
    0 1.610981 27.531699 38.809112 1.498673 0.004015 0.055697
    1 0.000005 3.345128 -2.981901 1.577591 0.102077 1.583751
    2 7.422812 0.890652 -0.085940 -0.064130 0.035546 0.462029
    3 10.819010 1.553865 -1.718853 -1.485410 1.367330 3.372002
    4 6.028143 0.000000 0.000000 1.721282 -0.394150 -0.720309
    5 11.692554 0.000000 0.000008 0.000000 0.000000 -2.008826
    6 10.498681 1.374166 2.140791 1.715305 -1.427286 3.062410
    7 6.028142 0.000000 0.000000 -1.145275 -0.188360 -1.246380
    8 11.692558 0.000000 0.000001 0.000000 0.000000 -1.845425
    9 14.520248 3.315027 1.265664 3.146296 -0.015256 -0.178560
    10 3.890452 -0.148446 -0.000003 -1.886665 0.560595 -1.447946
    11 17.848175 0.000000 0.000000 0.000000 0.000000 0.139442
    12 16.525248 0.000000 0.000000 0.162503 0.234975 -0.404427
    13 -3.890452 0.148446 0.000007 -1.041929 -0.512926 -1.675189
    14 17.848171 0.000000 0.000000 0.000000 0.000000 0.804492
    15 16.525253 0.000000 0.000000 -0.203869 0.084919 -1.148314
    16 11.479830 -0.000111 0.000311 -0.852137 0.181669 -0.014348
  time 6
    0 1.610980 33.105227 37.922366 1.492057 -0.003943 0.078095
    1 0.000005 3.345128 -2.981901 1.577328 0.102077 1.582805
    2 7.422812 0.890652 -0.042970 -0.082310 0.016227 0.461488
    3 10.815104 1.522614 -1.750104 -1.428014 1.358150 3.422884
    4 6.028143 0.000000 0.000000 1.707474 -0.322318 -0.732392
    5 11.692554 0.000000 0.000008 0.000000 0.000000 -2.011874
    6 10.518213 1.393698 2.113447 1.814237 -1.431468 2.959086
    7 6.028142 0.000000 0.000000 -1.161421 -0.112169 -1.190943
    8 11.692558 0.000000 0.000001 0.000000 0.000000 -1.870503
    9 14.547592 3.303308 1.187536 3.144088 -0.006076 -0.181044
    10 3.890452 -0.148446 -0.000003 -1.770831 0.415051 -1.452216
    11 17.848175 0.000000 0.000000 0.000000 0.000000 0.363524
    12 16.525248 0.000000 0.000000 0.008288 0.188898 -0.846797
    13 -3.890452 0.148446 0.000007 -0.963583 -0.621530 -1.814886
    14 17.848171 0.000000 0.000000 0.000000 0.000000 1.207242
    15 16.525253 0.000000 0.000000 -0.168102 0.115761 -1.144601
    16 11.479830 -0.000111 0.000311 -0.851773 0.175880 -0.014324
  time 7
    0 1.610980 38.678755 37.098123 1.477328 -0.013531 0.097369
    1 0.000005 3.345128 -2.981901 1.576644 0.102077 1.580671
    2 7.418906 0.906278 -0.003906 -0.100347 0.000240 0.478295
    3 10.815104 1.483551 -1.781355 -1.365908 1.348682 3.477515
    4 6.028143 0.000000 0.000000 1.691963 -0.210423 -0.743358
    5 11.692554 0.000000 0.000008 0.000000 0.000000 -1.997692
    6 10.537745 1.413230 2.082196 1.928223 -1.432786 2.840022
    7 6.028142 0.000000 0.000000 -1.183335 -0.012104 -1.124237
    8 11.692558 0.000000 0.000001 0.000000 0.000000 -1.892386
    9 14.574937 3.283776 1.109409 3.146437 0.004482 -0.183350
    10 3.890452 -0.148446 -0.000003 -1.668311 0.389081 -1.517080
    11 17.848175 0.000000 0.000000 0.000000 0.000000 0.262624
    12 16.525248 0.000000 0.000000 -0.089831 0.046115 -1.215779
    13 -3.890452 0.148446 0.000007 -0.922483 -0.626079 -1.919846
    14 17.848171 0.000000 0.000000 0.000000 0.000000 1.475346
    15 16.525253 0.000000 0.000000 -0.126733 0.106553 -1.112438
    16 11.479830 -0.000111 0.000311 -0.852096 0.181100 -0.014348
  time 8
    0 1.610980 44.252284 36.660609 1.461461 -0.023418 0.111260
    1 0.000005 3.345128 -2.981901 1.575614 0.102077 1.577723
    2 7.415000 0.929716 0.031251 -0.117305 -0.011589 0.504916
    3 10.819010 1.444487 -1.812606 -1.303143 1.339549 3.532826
    4 6.028143 0.000000 0.000000 1.675203 -0.068986 -0.755929
    5 11.692554 0.000000 0.000008 0.000000 0.000000 -1.962235
    6 10.553370 1.436668 2.054851 2.043175 -1.430629 2.720151
    7 6.028142 0.000000 0.000000 -1.209072 0.097792 -1.057446
    8 11.692558 0.000000 0.000001 0.000000 0.000000 -1.898716
    9 14.598375 3.268150 1.039094 3.152922 0.015184 -0.185039
    10 3.890452 -0.148446 -0.000003 -1.598855 0.128485 -1.553252
    11 17.848175 0.000000 0.000000 0.000000 0.000000 0.557845
    12 16.525248 0.000000 0.000000 -0.090233 -0.051348 -1.448662
    13 -3.890452 0.148446 0.000007 -0.931054 -0.545446 -1.983444
    14 17.848171 0.000000 0.000000 0.000000 0.000000 1.639941
    15 16.525253 0.000000 0.000000 -0.103841 0.047800 -1.116002
    16 11.479830 -0.000111 0.000311 -0.853065 0.197495 -0.014432
  time 9
    0 1.610980 49.825812 36.539512 1.451645 -0.032131 0.116751
    1 0.000005 3.345128 -2.981901 1.574296 0.102077 1.574248
    2 7.407187 0.953154 0.058596 -0.132226 -0.019787 0.529329
    3 10.822917 1.405423 -1.836044 -1.242516 1.331556 3.587082
    4 6.028143 0.000000 0.000000 1.653514 0.086332 -0.772004
    5 11.692554 0.000000 0.000008 0.000000 0.000000 -1.906374
    6 10.565089 1.460106 2.031413 2.144354 -1.425104 2.615114
    7 6.028142 0.000000 0.000000 -1.238598 0.207121 -1.000042
    8 11.692558 0.000000 0.000001 0.000000 0.000000 -1.882138
    9 14.614001 3.256431 0.980499 3.163096 0.024688 -0.185607
    10 3.890452 -0.148446 -0.000003 -1.561033 -0.098360 -1.594246
    11 17.848175 0.000000 0.000000 0.000000 0.000000 0.716282
    12 16.525248 0.000000 0.000000 -0.083414 -0.105128 -1.435888
    13 -3.890452 0.148446 0.000007 -0.979334 -0.369854 -2.004440
    14 17.848171 0.000000 0.000000 0.000000 0.000000 1.656227
    15 16.525253 0.000000 0.000000 -0.107871 -0.058833 -1.169400
    16 11.479830 -0.000111 0.000311 -0.854680 0.224464 -0.014612
  time 10
    0 1.610979 55.399340 36.867647 1.451621 -0.038435 0.112713
    1 0.000005 3.345128 -2.981901 1.572738 0.102077 1.570472
    2 7.403280 0.964873 0.082034 -0.144007 -0.025287 0.537789
    3 10.826823 1.378079 -1.855576 -1.186235 1.325575 3.639065
    4 6.028143 0.000000 0.000000 1.621333 0.234542 -0.793291
    5 11.692554 0.000000 0.000008 0.000000 0.000000 -1.836331
    6 10.568996 1.483545 2.011881 2.220632 -1.417051 2.536840
    7 6.028142 0.000000 0.000000 -1.269096 0.310728 -0.958264
    8 11.692558 0.000000 0.000001 0.000000 0.000000 -1.842592
    9 14.621813 3.252525 0.937529 3.176465 0.031819 -0.184471
    10 3.890452 -0.148446 -0.000003 -1.541240 -0.246731 -1.626545
    11 17.848175 0.000000 0.000000 0.000000 0.000000 0.673495
    12 16.525248 0.000000 0.000000 -0.081175 -0.138245 -1.268218
    13 -3.890452 0.148446 0.000007 -1.021482 -0.164001 -2.004745
    14 17.848171 0.000000 0.000000 0.000000 0.000000 1.526234
    15 16.525253 0.000000 0.000000 -0.131491 -0.161567 -1.126218
    16 11.479830 -0.000111 0.000311 -0.856779 0.259932 -0.014912
  time 11
    0 1.610979 60.972868 37.656733 1.458536 -0.041479 0.101299
    1 0.000005 3.345128 -2.981901 1.571060 0.102077 1.566577
    2 7.403280 0.957061 0.085940 -0.151461 -0.027325 0.530582
    3 10.830729 1.358547 -1.863389 -1.137779 1.322124 3.686430
    4 6.028143 0.000000 0.000000 1.580818 0.360596 -0.819949
    5 11.692554 0.000000 0.000008 0.000000 0.000000 -1.762369
    6 10.561183 1.506983 1.996256 2.267809 -1.408182 2.490447
    7 6.028142 0.000000 0.000000 -1.297734 0.399160 -0.933484
    8 11.692558 0.000000 0.000001 0.000000 0.000000 -1.787432
    9 14.617907 3.264244 0.917997 3.192677 0.036086 -0.180882
    10 3.890452 -0.148446 -0.000003 -1.535253 -0.304224 -1.642098
    11 17.848175 0.000000 0.000000 0.000000 0.000000 0.480483
    12 16.525248 0.000000 0.000000 -0.072460 -0.157576 -1.053675
    13 -3.890452 0.148446 0.000007 -1.042431 0.010879 -1.980268
    14 17.848171 0.000000 0.000000 0.000000 0.000000 1.287039
    15 16.525253 0.000000 0.000000 -0.181112 -0.206658 -0.887649
    16 11.479830 -0.000111 0.000311 -0.859242 0.300018 -0.015355
  time 12
    0 1.610979 66.546397 38.535666 1.469682 -0.040963 0.083802
    1 0.000005 3.345128 -2.981901 1.569394 0.102077 1.562826
    2 7.411093 0.937529 0.078127 -0.153702 -0.024976 0.512237
    3 10.838542 1.350734 -1.867295 -1.101721 1.321920 3.724328
    4 6.028143 0.000000 0.000000 1.537282 0.453935 -0.846485
    5 11.692554 0.000000 0.000008 0.000000 0.000000 -1.697925
    6 10.549464 1.526515 1.996256 2.284375 -1.400368 2.476905
    7 6.028142 0.000000 0.000000 -1.322917 0.466443 -0.923673
    8 11.692558 0.000000 0.000001 0.000000 0.000000 -1.729319
    9 14.606188 3.287682 0.921903 3.211591 0.037164 -0.175394
    10 3.890452 -0.148446 -0.000003 -1.552164 -0.289792 -1.644509
    11 17.848175 0.000000 0.000000 0.000000 0.000000 0.206604
    12 16.525248 0.000000 0.000000 -0.021976 -0.162480 -0.959204
    13 -3.890452 0.148446 0.000007 -1.050227 0.155096 -1.934608
    14 17.848171 0.000000 0.000000 0.000000 0.000000 1.009975
    15 16.525253 0.000000 0.000000 -0.238484 -0.203837 -0.575280
    16 11.479830 -0.000111 0.000311 -0.861664 0.338899 -0.015894
  time 13
    0 1.610979 72.119925 39.148966 1.482086 -0.037751 0.061835
    1 0.000005 3.345128 -2.981901 1.567956 0.102077 1.559602
    2 7.418906 0.914090 0.054689 -0.150514 -0.018001 0.491328
    3 10.842448 1.358547 -1.855576 -1.082475 1.325683 3.747460
    4 6.028143 0.000000 0.000000 1.501445 0.507581 -0.859579
    5 11.692554 0.000000 0.000008 0.000000 0.000000 -1.657242
    6 10.529932 1.534328 2.000162 2.270119 -1.395083 2.495304
    7 6.028142 0.000000 0.000000 -1.343288 0.508406 -0.925027
    8 11.692558 0.000000 0.000001 0.000000 0.000000 -1.684107
    9 14.586656 3.311120 0.949248 3.232832 0.034719 -0.169288
    10 3.890452 -0.148446 -0.000003 -1.585496 -0.341632 -1.641700
    11 17.848175 0.000000 0.000000 0.000000 0.000000 0.191801
    12 16.525248 0.000000 0.000000 0.042731 -0.138565 -1.076560
    13 -3.890452 0.148446 0.000007 -1.050409 0.281058 -1.871757
    14 17.848171 0.000000 0.000000 0.000000 0.000000 0.724545
    15 16.525253 0.000000 0.000000 -0.280545 -0.176909 -0.279750
    16 11.479830 -0.000111 0.000311 -0.863642 0.369783 -0.016398
  time 14
    0 1.610978 77.693453 39.262251 1.492800 -0.032778 0.037553
    1 0.000005 3.345128 -2.981901 1.567213 0.102077 1.557697
    2 7.422812 0.894559 0.015625 -0.142377 -0.006172 0.473153
    3 10.846355 1.374172 -1.839951 -1.078790 1.332826 3.755733
    4 6.028143 0.000000 0.000000 1.484593 0.512555 -0.835832
    5 11.692554 0.000000 0.000008 0.000000 0.000000 -1.651208
    6 10.510400 1.534328 2.015787 2.232158 -1.392111 2.537303
    7 6.028142 0.000000 0.000000 -1.357054 0.525384 -0.935408
    8 11.692558 0.000000 0.000001 0.000000 0.000000 -1.667107
    9 14.563218 3.334559 0.996124 3.254048 0.028092 -0.164124
    10 3.890452 -0.148446 -0.000003 -1.631562 -0.522357 -1.620329
    11 17.848175 0.000000 0.000000 0.000000 0.000000 0.523897
    12 16.525248 0.000000 0.000000 0.078471 -0.105650 -1.200639
    13 -3.890452 0.148446 0.000007 -1.050865 0.374099 -1.809417
    14 17.848171 0.000000 0.000000 0.000000 0.000000 0.501736
    15 16.525253 0.000000 0.000000 -0.295741 -0.154784 -0.098499
    16 11.479830 -0.000111 0.000311 -0.864732 0.386647 -0.016697
  time 15
    0 1.610978 83.266982 38.758330 1.498948 -0.026702 0.013218
    1 0.000005 3.345128 -2.981901 1.567368 0.102077 1.557841
    2 7.422812 0.886746 -0.027345 -0.130081 0.010127 0.461103
    3 10.854167 1.389798 -1.816513 -1.090074 1.342474 3.748444
    4 6.028143 0.000000 0.000000 1.487682 0.467500 -0.776502
    5 11.692554 0.000000 0.000008 0.000000 0.000000 -1.679325
    6 10.490868 1.522608 2.039226 2.176289 -1.390948 2.595948
    7 6.028142 0.000000 0.000000 -1.362184 0.517481 -0.953189
    8 11.692558 0.000000 0.000001 0.000000 0.000000 -1.685312
    9 14.547592 3.346278 1.058626 3.263494 0.014657 -0.162387
    10 3.890452 -0.148446 -0.000003 -1.693087 -0.697695 -1.574158
    11 17.848175 0.000000 0.000000 0.000000 0.000000 0.874459
    12 16.525248 0.000000 0.000000 0.101363 -0.091459 -1.151803
    13 -3.890452 0.148446 0.000007 -1.075096 0.356802 -1.794995
    14 17.848171 0.000000 0.000000 0.000000 0.000000 0.534803
    15 16.525253 0.000000 0.000000 -0.276995 -0.157050 -0.182724
    16 11.479830 -0.000111 0.000311 -0.864692 0.385710 -0.016685
  time 16
    0 1.610978 88.840510 37.855958 1.493735 -0.020038 -0.008695
    1 0.000005 3.345128 -2.981901 1.568207 0.102077 1.559734
    2 7.422812 0.898465 -0.078127 -0.114117 0.030597 0.465448
    3 10.861980 1.413236 -1.789168 -1.116804 1.353595 3.724585
    4 6.028143 0.000000 0.000000 1.502467 0.386130 -0.712690
    5 11.692554 0.000000 0.000008 0.000000 0.000000 -1.730644
    6 10.475243 1.506983 2.066570 2.106940 -1.391092 2.666444
    7 6.028142 0.000000 0.000000 -1.361011 0.481052 -0.974628
    8 11.692558 0.000000 0.000001 0.000000 0.000000 -1.730103
    9 14.531967 3.346278 1.128941 3.257596 -0.004290 -0.164692
    10 3.890452 -0.148446 -0.000003 -1.766430 -0.820196 -1.508143
    11 17.848175 0.000000 0.000000 0.000000 0.000000 1.189085
    12 16.525248 0.000000 0.000000 0.119912 -0.104150 -1.016887
    13 -3.890452 0.148446 0.000007 -1.112571 0.270383 -1.786604
    14 17.848171 0.000000 0.000000 0.000000 0.000000 0.717170
    15 16.525253 0.000000 0.000000 -0.196788 -0.190634 -0.603078
    16 11.479830 -0.000111 0.000311 -0.863763 0.371690 -0.016434
  time 17
    0 1.610978 94.414038 37.086403 1.478407 -0.013183 -0.025708
    1 0.000005 3.345128 -2.981901 1.569669 0.102077 1.563054
    2 7.415000 0.921903 -0.128910 -0.094978 0.052217 0.488294
    3 10.865887 1.440581 -1.761823 -1.159664 1.365029 3.684110
    4 6.028143 0.000000 0.000000 1.528538 0.277741 -0.655644
    5 11.692554 0.000000 0.000008 0.000000 0.000000 -1.791792
    6 10.463524 1.479638 2.093915 2.028373 -1.392135 2.745262
    7 6.028142 0.000000 0.000000 -1.355193 0.409410 -0.996702
    8 11.692558 0.000000 0.000001 0.000000 0.000000 -1.786890
    9 14.520248 3.342371 1.199255 3.245942 -0.023514 -0.168963
    10 3.890452 -0.148446 -0.000003 -1.829273 -0.854645 -1.445910
    11 17.848175 0.000000 0.000000 0.000000 0.000000 1.432469
    12 16.525248 0.000000 0.000000 0.122986 -0.136610 -0.850481
    13 -3.890452 0.148446 0.000007 -1.138398 0.245909 -1.709383
    14 17.848171 0.000000 0.000000 0.000000 0.000000 0.662618
    15 16.525253 0.000000 0.000000 -0.085459 -0.180427 -1.064089
    16 11.479830 -0.000111 0.000311 -0.862512 0.351982 -0.016098
  time 18
    0 1.610977 99.987566 36.656703 1.462311 -0.006532 -0.035507
    1 0.000005 3.345128 -2.981901 1.571383 0.102077 1.567105
    2 7.403280 0.945341 -0.171880 -0.073921 0.070326 0.516795
    3 10.873699 1.467925 -1.734479 -1.218061 1.375431 3.627909
    4 6.028143 0.000000 0.000000 1.561741 0.148663 -0.616625
    5 11.692554 0.000000 0.000008 0.000000 0.000000 -1.851074
    6 10.455711 1.452294 2.117353 1.945839 -1.393861 2.827728
    7 6.028142 0.000000 0.000000 -1.342316 0.304838 -1.018437
    8 11.692558 0.000000 0.000001 0.000000 0.000000 -1.839095
    9 14.512435 3.330652 1.265664 3.237789 -0.037871 -0.173071
    10 3.890452 -0.148446 -0.000003 -1.854942 -0.788174 -1.415314
    11 17.848175 0.000000 0.000000 0.000000 0.000000 1.603303
    12 16.525248 0.000000 0.000000 0.113883 -0.162851 -0.752219
    13 -3.890452 0.148446 0.000007 -1.158047 0.213482 -1.636340
    14 17.848171 0.000000 0.000000 0.000000 0.000000 0.532873
    15 16.525253 0.000000 0.000000 -0.036587 -0.131565 -1.396742
    16 11.479830 -0.000111 0.000311 -0.861018 0.328392 -0.015739
  time 19
    0 1.610977 105.561095 36.519980 1.454893 -0.002133 -0.035938
    1 0.000005 3.345128 -2.981901 1.572090 0.102077 1.571000
    2 7.399374 0.953154 -0.199225 -0.053343 0.079961 0.530938
    3 10.873699 1.495270 -1.711041 -1.287401 1.383221 3.560903
    4 6.028143 0.000000 0.000000 1.594989 0.004145 -0.601003
    5 11.692554 0.000000 0.000008 0.000000 0.000000 -1.900216
    6 10.447898 1.424949 2.140791 1.867189 -1.396245 2.906486
    7 6.028142 0.000000 0.000000 -1.317485 0.182996 -1.042963
    8 11.692558 0.000000 0.000001 0.000000 0.000000 -1.873939
    9 14.508529 3.318933 1.320353 3.241854 -0.042378 -0.174452
    10 3.890452 -0.148446 -0.000003 -1.843191 -0.578886 -1.420624
    11 17.848175 0.000000 0.000000 0.000000 0.000000 1.668896
    12 16.525248 0.000000 0.000000 0.130329 -0.147379 -0.868687
    13 -3.890452 0.148446 0.000007 -1.173206 0.055218 -1.620033
    14 17.848171 0.000000 0.000000 0.000000 0.000000 0.580939
    15 16.525253 0.000000 0.000000 -0.061973 -0.082575 -1.503984
    16 11.479830 -0.000111 0.000311 -0.859242 0.299984 -0.015355
  time 20
    0 1.610977 111.134623 36.820770 1.453035 0.003799 -0.037068
    1 0.000005 3.345128 -2.981901 1.573696 0.102077 1.574559
    2 7.399374 0.957061 -0.214850 -0.035307 0.086900 0.531665
    3 10.865887 1.530427 -1.687602 -1.382652 1.388914 3.469945
    4 6.028143 0.000000 0.000000 1.626262 -0.138981 -0.602032
    5 11.692554 0.000000 0.000008 0.000000 0.000000 -1.935300
    6 10.447898 1.393698 2.164229 1.770923 -1.400248 3.004269
    7 6.028142 0.000000 0.000000 -1.283549 0.059895 -1.081422
    8 11.692558 0.000000 0.000001 0.000000 0.000000 -1.886478
    9 14.496810 3.315027 1.371136 3.245590 -0.039250 -0.173104
    10 3.890452 -0.148446 -0.000003 -1.841091 -0.335215 -1.421199
    11 17.848175 0.000000 0.000000 0.000000 0.000000 1.517363
    12 16.525248 0.000000 0.000000 0.157876 -0.084954 -0.994513
    13 -3.890452 0.148446 0.000007 -1.177719 -0.129378 -1.611166
    14 17.848171 0.000000 0.000000 0.000000 0.000000 0.621828
    15 16.525253 0.000000 0.000000 -0.113973 -0.032048 -1.389199
    16 11.479830 -0.000111 0.000311 -0.857990 0.279306 -0.015115
end
