// Created by Crowbar 0.74
version 1
nodes
  0 "ValveBiped.Bip01" -1
  1 "ValveBiped.Bip01_Spine" 0
  2 "ValveBiped.Bip01_Spine2" 1
  3 "ValveBiped.Bip01_R_Clavicle" 2
  4 "ValveBiped.Bip01_R_UpperArm" 3
  5 "ValveBiped.Bip01_R_Forearm" 4
  6 "ValveBiped.Bip01_L_Clavicle" 2
  7 "ValveBiped.Bip01_L_UpperArm" 6
  8 "ValveBiped.Bip01_L_Forearm" 7
  9 "ValveBiped.Bip01_Head1" 2
  10 "ValveBiped.Bip01_L_Thigh" 0
  11 "ValveBiped.Bip01_L_Calf" 10
  12 "ValveBiped.Bip01_L_Foot" 11
  13 "ValveBiped.Bip01_R_Thigh" 0
  14 "ValveBiped.Bip01_R_Calf" 13
  15 "ValveBiped.Bip01_R_Foot" 14
  16 "ValveBiped.Bip01_R_Hand" 5
end
skeleton
  time 0
    0 1.610982 -0.335943 37.766112 1.580767 0.003416 0.016825
    1 0.000005 3.345128 -2.981901 1.570281 0.125219 1.537359
    2 7.524378 0.125004 -0.277352 0.073250 0.102732 0.178716
    3 10.791666 1.483551 -1.808700 -1.218789 1.284300 3.617432
    4 6.028143 0.000000 0.000000 0.969610 0.152411 -1.007774
    5 11.692554 0.000000 0.000008 0.000000 0.000000 -0.373015
    6 10.502588 1.487451 2.058757 1.434318 -1.253473 3.374076
    7 6.028142 0.000000 0.000000 -1.275266 0.077565 -1.094975
    8 11.692558 0.000000 0.000001 0.000000 0.000000 -0.592253
    9 14.961668 3.049394 0.449232 3.061406 -0.016155 0.160625
    10 3.890452 -0.148446 -0.000003 -1.711093 -0.554279 -1.817999
    11 17.848175 0.000000 0.000000 0.000000 0.000000 0.800340
    12 16.525248 0.000000 0.000000 -0.014335 -0.124863 -1.008147
    13 -3.890452 0.148446 0.000007 -1.376583 0.107508 -1.526012
    14 17.848171 0.000000 0.000000 0.000000 0.000000 0.108589
    15 16.525253 0.000000 0.000000 0.065263 0.088849 -1.189921
    16 11.479830 -0.000111 0.000311 -0.751091 0.006939 0.171305
  time 1
    0 2.943740 -0.337523 37.844239 1.580719 0.003416 0.005573
    1 0.000005 3.345128 -2.981901 1.570257 0.125231 1.540523
    2 7.524378 0.125004 -0.269539 0.085043 0.096835 0.178488
    3 10.791666 1.483551 -1.804793 -1.284648 1.289945 3.547028
    4 6.028143 0.000000 0.000000 0.976673 0.179671 -0.990496
    5 11.692554 0.000000 0.000008 0.000000 0.000000 -0.358957
    6 10.502588 1.487451 2.058757 1.363373 -1.254743 3.446385
    7 6.028142 0.000000 0.000000 -1.246042 0.099741 -1.109859
    8 11.692558 0.000000 0.000001 0.000000 0.000000 -0.559881
    9 14.969480 3.041581 0.453139 3.061665 -0.016479 0.158774
    10 3.890452 -0.148446 -0.000003 -1.749272 -0.506363 -1.727095
    11 17.848175 0.000000 0.000000 0.000000 0.000000 0.736996
    12 16.525248 0.000000 0.000000 -0.002994 -0.121189 -1.120985
    13 -3.890452 0.148446 0.000007 -1.402865 0.085354 -1.563553
    14 17.848171 0.000000 0.000000 0.000000 0.000000 0.151161
    15 16.525253 0.000000 0.000000 0.118357 0.120516 -1.185764
    16 11.479830 -0.000111 0.000311 -0.751091 0.006939 0.171305
  time 2
    0 4.276498 -0.339102 37.840333 1.580683 0.003416 -0.005572
    1 0.000005 3.345128 -2.981901 1.570221 0.125255 1.544909
    2 7.528284 0.121098 -0.257820 0.096871 0.089117 0.177206
    3 10.795572 1.479644 -1.804793 -1.349620 1.293624 3.476788
    4 6.028143 0.000000 0.000000 0.981942 0.205390 -0.974578
    5 11.692554 0.000000 0.000008 0.000000 0.000000 -0.339860
    6 10.510400 1.479638 2.058757 1.295536 -1.254899 3.514422
    7 6.028142 0.000000 0.000000 -1.217941 0.114581 -1.124638
    8 11.692558 0.000000 0.000001 0.000000 0.000000 -0.512739
    9 14.977293 3.022049 0.449232 3.061947 -0.016287 0.156030
    10 3.890452 -0.148446 -0.000003 -1.788413 -0.459644 -1.620329
    11 17.848175 0.000000 0.000000 0.000000 0.000000 0.670252
    12 16.525248 0.000000 0.000000 -0.013768 -0.097999 -1.200289
    13 -3.890452 0.148446 0.000007 -1.423951 0.007135 -1.609111
    14 17.848171 0.000000 0.000000 0.000000 0.000000 0.313429
    15 16.525253 0.000000 0.000000 0.175652 0.138394 -1.205840
    16 11.479830 -0.000111 0.000311 -0.751091 0.006939 0.171305
  time 3
    0 5.609257 -0.340682 37.727048 1.580647 0.003416 -0.017417
    1 0.000005 3.345128 -2.981901 1.570161 0.125267 1.549835
    2 7.528284 0.117191 -0.246101 0.108413 0.079769 0.175084
    3 10.799478 1.471832 -1.808700 -1.410042 1.295422 3.410579
    4 6.028143 0.000000 0.000000 0.984349 0.227342 -0.960491
    5 11.692554 0.000000 0.000008 0.000000 0.000000 -0.321199
    6 10.514307 1.475732 2.058757 1.233766 -1.254156 3.575183
    7 6.028142 0.000000 0.000000 -1.193529 0.121749 -1.139269
    8 11.692558 0.000000 0.000001 0.000000 0.000000 -0.452877
    9 14.989012 3.002517 0.449232 3.062252 -0.015640 0.152490
    10 3.890452 -0.148446 -0.000003 -1.813925 -0.425594 -1.512943
    11 17.848175 0.000000 0.000000 0.000000 0.000000 0.637560
    12 16.525248 0.000000 0.000000 -0.052150 -0.076881 -1.268083
    13 -3.890452 0.148446 0.000007 -1.465141 -0.061493 -1.646634
    14 17.848171 0.000000 0.000000 0.000000 0.000000 0.453471
    15 16.525253 0.000000 0.000000 0.249622 0.162088 -1.196455
    16 11.479830 -0.000111 0.000311 -0.751091 0.006939 0.171305
  time 4
    0 6.942015 -0.342262 37.523917 1.580611 0.003416 -0.029262
    1 0.000005 3.345128 -2.981901 1.570065 0.125279 1.554701
    2 7.528284 0.113285 -0.226569 0.119355 0.069211 0.172392
    3 10.803385 1.464019 -1.808700 -1.462229 1.295710 3.352292
    4 6.028143 0.000000 0.000000 0.984735 0.242299 -0.947868
    5 11.692554 0.000000 0.000008 0.000000 0.000000 -0.310375
    6 10.522119 1.467919 2.054851 1.180878 -1.252934 3.625929
    7 6.028142 0.000000 0.000000 -1.173795 0.121183 -1.153266
    8 11.692558 0.000000 0.000001 0.000000 0.000000 -0.383853
    9 15.000731 2.975173 0.441420 3.062557 -0.014669 0.148333
    10 3.890452 -0.148446 -0.000003 -1.797662 -0.375982 -1.437858
    11 17.848175 0.000000 0.000000 0.000000 0.000000 0.581854
    12 16.525248 0.000000 0.000000 -0.111603 -0.087768 -1.303661
    13 -3.890452 0.148446 0.000007 -1.459716 -0.119941 -1.692056
    14 17.848171 0.000000 0.000000 0.000000 0.000000 0.573068
    15 16.525253 0.000000 0.000000 0.300701 0.131801 -1.160431
    16 11.479830 -0.000111 0.000311 -0.751091 0.006939 0.171305
  time 5
    0 8.274773 -0.343842 37.246565 1.580563 0.003416 -0.042022
    1 0.000005 3.345128 -2.981901 1.569993 0.125279 1.558931
    2 7.532191 0.109378 -0.199225 0.129470 0.058173 0.169672
    3 10.811197 1.456206 -1.812606 -1.502973 1.294967 3.305489
    4 6.028143 0.000000 0.000000 0.982759 0.247977 -0.936082
    5 11.692554 0.000000 0.000008 0.000000 0.000000 -0.314543
    6 10.533839 1.460106 2.054851 1.139495 -1.251735 3.664239
    7 6.028142 0.000000 0.000000 -1.161002 0.114120 -1.166121
    8 11.692558 0.000000 0.000001 0.000000 0.000000 -0.312055
    9 15.016357 2.947828 0.433607 3.062863 -0.013471 0.143754
    10 3.890452 -0.148446 -0.000003 -1.836668 -0.327101 -1.374232
    11 17.848175 0.000000 0.000000 0.000000 0.000000 0.536974
    12 16.525248 0.000000 0.000000 -0.132078 -0.059960 -1.329692
    13 -3.890452 0.148446 0.000007 -1.549004 -0.169849 -1.707939
    14 17.848171 0.000000 0.000000 0.000000 0.000000 0.667915
    15 16.525253 0.000000 0.000000 0.418343 0.149599 -1.087164
    16 11.479830 -0.000111 0.000311 -0.751091 0.006939 0.171305
  time 6
    0 9.607531 -0.345421 36.941868 1.580528 0.003416 -0.052251
    1 0.000005 3.345128 -2.981901 1.569957 0.125291 1.561939
    2 7.532191 0.105472 -0.175787 0.138626 0.048142 0.167635
    3 10.815104 1.448393 -1.812606 -1.529498 1.293708 3.273545
    4 6.028143 0.000000 0.000000 0.982328 0.243598 -0.925238
    5 11.692554 0.000000 0.000008 0.000000 0.000000 -0.333888
    6 10.541651 1.452294 2.050945 1.111970 -1.251112 3.688201
    7 6.028142 0.000000 0.000000 -1.152552 0.103744 -1.175234
    8 11.692558 0.000000 0.000001 0.000000 0.000000 -0.250566
    9 15.028076 2.920483 0.425794 3.063145 -0.012152 0.139288
    10 3.890452 -0.148446 -0.000003 -1.792836 -0.312903 -1.361577
    11 17.848175 0.000000 0.000000 0.000000 0.000000 0.542362
    12 16.525248 0.000000 0.000000 -0.168654 -0.106661 -1.363092
    13 -3.890452 0.148446 0.000007 -1.514880 -0.203544 -1.760071
    14 17.848171 0.000000 0.000000 0.000000 0.000000 0.732218
    15 16.525253 0.000000 0.000000 0.441580 0.074902 -1.024441
    16 11.479830 -0.000111 0.000311 -0.751091 0.006939 0.171305
  time 7
    0 10.940290 -0.347001 36.668422 1.580516 0.003404 -0.056451
    1 0.000005 3.345128 -2.981901 1.569957 0.125291 1.563090
    2 7.532191 0.105472 -0.164068 0.146967 0.042545 0.166837
    3 10.815104 1.440581 -1.816513 -1.539372 1.292330 3.260396
    4 6.028143 0.000000 0.000000 0.986529 0.235841 -0.919066
    5 11.692554 0.000000 0.000008 0.000000 0.000000 -0.349813
    6 10.549464 1.448387 2.050945 1.100632 -1.251567 3.696807
    7 6.028142 0.000000 0.000000 -1.145108 0.098274 -1.177411
    8 11.692558 0.000000 0.000001 0.000000 0.000000 -0.223740
    9 15.035889 2.904858 0.417982 3.063403 -0.010822 0.136317
    10 3.890452 -0.148446 -0.000003 -1.719225 -0.341765 -1.394519
    11 17.848175 0.000000 0.000000 0.000000 0.000000 0.604293
    12 16.525248 0.000000 0.000000 -0.183860 -0.185215 -1.405742
    13 -3.890452 0.148446 0.000007 -1.482671 -0.217437 -1.814156
    14 17.848171 0.000000 0.000000 0.000000 0.000000 0.753801
    15 16.525253 0.000000 0.000000 0.455357 0.022346 -0.992634
    16 11.479830 -0.000111 0.000311 -0.751091 0.006939 0.171305
  time 8
    0 12.273048 -0.348581 36.492635 1.580528 0.003416 -0.052574
    1 0.000005 3.345128 -2.981901 1.570281 0.125291 1.567356
    2 7.536097 0.105472 -0.132817 0.143743 0.029015 0.167193
    3 10.811197 1.436674 -1.824325 -1.533229 1.287992 3.263326
    4 6.028143 0.000000 0.000000 0.984803 0.239255 -0.934077
    5 11.692554 0.000000 0.000008 0.000000 0.000000 -0.328788
    6 10.565089 1.440575 2.043132 1.101472 -1.255894 3.691527
    7 6.028142 0.000000 0.000000 -1.147824 0.095465 -1.170730
    8 11.692558 0.000000 0.000001 0.000000 0.000000 -0.224584
    9 15.051514 2.881420 0.390637 3.064226 -0.006448 0.132631
    10 3.890452 -0.148446 -0.000003 -1.731311 -0.380836 -1.421841
    11 17.848175 0.000000 0.000000 0.000000 0.000000 0.659634
    12 16.525248 0.000000 0.000000 -0.152015 -0.168783 -1.367852
    13 -3.890452 0.148446 0.000007 -1.570272 -0.211280 -1.825248
    14 17.848171 0.000000 0.000000 0.000000 0.000000 0.737317
    15 16.525253 0.000000 0.000000 0.560623 0.009303 -0.978260
    16 11.479830 -0.000111 0.000311 -0.751091 0.006939 0.171305
  time 9
    0 13.605806 -0.350161 36.469197 1.580563 0.003416 -0.043045
    1 0.000005 3.345128 -2.981901 1.570257 0.125291 1.571168
    2 7.536097 0.109378 -0.105472 0.137008 0.016371 0.168746
    3 10.811197 1.428861 -1.832138 -1.511504 1.283114 3.282005
    4 6.028143 0.000000 0.000000 0.983509 0.238884 -0.955191
    5 11.692554 0.000000 0.000008 0.000000 0.000000 -0.304776
    6 10.580715 1.436668 2.035319 1.118394 -1.261898 3.669036
    7 6.028142 0.000000 0.000000 -1.155486 0.085362 -1.162040
    8 11.692558 0.000000 0.000001 0.000000 0.000000 -0.227357
    9 15.063233 2.854075 0.363292 3.065048 -0.001558 0.128457
    10 3.890452 -0.148446 -0.000003 -1.743643 -0.404878 -1.450180
    11 17.848175 0.000000 0.000000 0.000000 0.000000 0.667898
    12 16.525248 0.000000 0.000000 -0.112902 -0.130526 -1.255471
    13 -3.890452 0.148446 0.000007 -1.234524 -0.172913 -1.977295
    14 17.848171 0.000000 0.000000 0.000000 0.000000 0.700339
    15 16.525253 0.000000 0.000000 0.315265 -0.241352 -0.915982
    16 11.479830 -0.000111 0.000311 -0.751091 0.006939 0.171305
  time 10
    0 14.938564 -0.351741 36.625452 1.580599 0.003416 -0.031307
    1 0.000005 3.345128 -2.981901 1.570029 0.125291 1.574475
    2 7.536097 0.117191 -0.085940 0.127492 0.007083 0.171125
    3 10.807291 1.421049 -1.843857 -1.477312 1.277757 3.313739
    4 6.028143 0.000000 0.000000 0.981487 0.228771 -0.973898
    5 11.692554 0.000000 0.000008 0.000000 0.000000 -0.295819
    6 10.596340 1.428856 2.027506 1.150581 -1.268837 3.630725
    7 6.028142 0.000000 0.000000 -1.169067 0.069432 -1.154302
    8 11.692558 0.000000 0.000001 0.000000 0.000000 -0.230070
    9 15.078859 2.830637 0.332041 3.065776 0.003500 0.124219
    10 3.890452 -0.148446 -0.000003 -1.703587 -0.411728 -1.502457
    11 17.848175 0.000000 0.000000 0.000000 0.000000 0.659477
    12 16.525248 0.000000 0.000000 -0.076519 -0.132885 -1.220324
    13 -3.890452 0.148446 0.000007 -1.227047 -0.141755 -2.012423
    14 17.848171 0.000000 0.000000 0.000000 0.000000 0.636530
    15 16.525253 0.000000 0.000000 0.334760 -0.318584 -0.846962
    16 11.479830 -0.000111 0.000311 -0.751091 0.006939 0.171305
  time 11
    0 16.271323 -0.353320 36.941868 1.580635 0.003416 -0.020647
    1 0.000005 3.345128 -2.981901 1.569765 0.125291 1.577184
    2 7.536097 0.125004 -0.070315 0.115795 0.001498 0.173845
    3 10.803385 1.413236 -1.851670 -1.433542 1.271860 3.355901
    4 6.028143 0.000000 0.000000 0.976219 0.209880 -0.988857
    5 11.692554 0.000000 0.000008 0.000000 0.000000 -0.302475
    6 10.611966 1.421043 2.019694 1.197108 -1.275932 3.578005
    7 6.028142 0.000000 0.000000 -1.189941 0.048073 -1.148382
    8 11.692558 0.000000 0.000001 0.000000 0.000000 -0.229588
    9 15.090578 2.807199 0.300790 3.066387 0.008485 0.120355
    10 3.890452 -0.148446 -0.000003 -1.672310 -0.388717 -1.555198
    11 17.848175 0.000000 0.000000 0.000000 0.000000 0.604555
    12 16.525248 0.000000 0.000000 -0.024214 -0.123498 -1.194723
    13 -3.890452 0.148446 0.000007 -1.167894 -0.154348 -2.016670
    14 17.848171 0.000000 0.000000 0.000000 0.000000 0.686874
    15 16.525253 0.000000 0.000000 0.272226 -0.369888 -0.818660
    16 11.479830 -0.000111 0.000311 -0.751091 0.006939 0.171305
  time 12
    0 17.604081 -0.354900 37.289535 1.580671 0.003416 -0.011764
    1 0.000005 3.345128 -2.981901 1.569598 0.125291 1.579209
    2 7.536097 0.128910 -0.062502 0.102528 -0.000791 0.176366
    3 10.799478 1.405423 -1.859483 -1.383061 1.265305 3.405892
    4 6.028143 0.000000 0.000000 0.967316 0.185163 -1.001131
    5 11.692554 0.000000 0.000008 0.000000 0.000000 -0.318524
    6 10.627591 1.417136 2.011881 1.256589 -1.282356 3.512729
    7 6.028142 0.000000 0.000000 -1.216852 0.021454 -1.143519
    8 11.692558 0.000000 0.000001 0.000000 0.000000 -0.223499
    9 15.102297 2.787667 0.269539 3.066810 0.013207 0.117139
    10 3.890452 -0.148446 -0.000003 -1.653031 -0.349945 -1.600706
    11 17.848175 0.000000 0.000000 0.000000 0.000000 0.521701
    12 16.525248 0.000000 0.000000 0.035672 -0.099161 -1.156348
    13 -3.890452 0.148446 0.000007 -1.126088 -0.171644 -2.003896
    14 17.848171 0.000000 0.000000 0.000000 0.000000 0.748158
    15 16.525253 0.000000 0.000000 0.217367 -0.395009 -0.813938
    16 11.479830 -0.000111 0.000311 -0.751091 0.006939 0.171305
  time 13
    0 18.936839 -0.356480 37.570793 1.580719 0.003416 0.002504
    1 0.000005 3.345128 -2.981901 1.569538 0.125291 1.580396
    2 7.536097 0.132817 -0.058596 0.088267 -0.000431 0.178146
    3 10.791666 1.401517 -1.867295 -1.328531 1.258030 3.461015
    4 6.028143 0.000000 0.000000 0.961661 0.155937 -1.012185
    5 11.692554 0.000000 0.000008 0.000000 0.000000 -0.336688
    6 10.639310 1.413230 2.004068 1.326799 -1.287294 3.437337
    7 6.028142 0.000000 0.000000 -1.241264 -0.010699 -1.137514
    8 11.692558 0.000000 0.000001 0.000000 0.000000 -0.211141
    9 15.110110 2.772041 0.242195 3.067022 0.017498 0.114752
    10 3.890452 -0.148446 -0.000003 -1.595951 -0.316328 -1.650460
    11 17.848175 0.000000 0.000000 0.000000 0.000000 0.447216
    12 16.525248 0.000000 0.000000 0.073815 -0.095942 -1.103291
    13 -3.890452 0.148446 0.000007 -1.067574 -0.186681 -1.986943
    14 17.848171 0.000000 0.000000 0.000000 0.000000 0.820827
    15 16.525253 0.000000 0.000000 0.146410 -0.410129 -0.824332
    16 11.479830 -0.000111 0.000311 -0.751091 0.006939 0.171305
  time 14
    0 20.269597 -0.358060 37.754393 1.580779 0.003416 0.022694
    1 0.000005 3.345128 -2.981901 1.569502 0.125291 1.580551
    2 7.536097 0.136723 -0.054689 0.073633 0.001906 0.178759
    3 10.787759 1.397611 -1.875108 -1.272477 1.250049 3.518740
    4 6.028143 0.000000 0.000000 0.960117 0.124762 -1.024006
    5 11.692554 0.000000 0.000008 0.000000 0.000000 -0.351492
    6 10.647123 1.409324 1.996256 1.404504 -1.290134 3.355133
    7 6.028142 0.000000 0.000000 -1.260998 -0.046081 -1.129501
    8 11.692558 0.000000 0.000001 0.000000 0.000000 -0.194925
    9 15.114016 2.760322 0.218757 3.066998 0.021225 0.113193
    10 3.890452 -0.148446 -0.000003 -1.533845 -0.313135 -1.698268
    11 17.848175 0.000000 0.000000 0.000000 0.000000 0.429536
    12 16.525248 0.000000 0.000000 0.107153 -0.097291 -1.035523
    13 -3.890452 0.148446 0.000007 -1.021778 -0.201626 -1.955773
    14 17.848171 0.000000 0.000000 0.000000 0.000000 0.895081
    15 16.525253 0.000000 0.000000 0.090822 -0.406246 -0.856080
    16 11.479830 -0.000111 0.000311 -0.751091 0.006939 0.171305
  time 15
    0 21.602356 -0.359639 37.844239 1.580803 0.003416 0.029585
    1 0.000005 3.345128 -2.981901 1.569514 0.125291 1.579892
    2 7.536097 0.132817 -0.058596 0.059228 0.005908 0.178189
    3 10.783853 1.397611 -1.882921 -1.217105 1.241551 3.576629
    4 6.028143 0.000000 0.000000 0.944855 0.098004 -1.036071
    5 11.692554 0.000000 0.000008 0.000000 0.000000 -0.359579
    6 10.654936 1.409324 1.988443 1.485569 -1.290457 3.270329
    7 6.028142 0.000000 0.000000 -1.294397 -0.066768 -1.113876
    8 11.692558 0.000000 0.000001 0.000000 0.000000 -0.214456
    9 15.117922 2.756416 0.199225 3.066763 0.024281 0.112430
    10 3.890452 -0.148446 -0.000003 -1.569478 -0.334716 -1.726166
    11 17.848175 0.000000 0.000000 0.000000 0.000000 0.455689
    12 16.525248 0.000000 0.000000 0.194945 -0.056253 -0.963642
    13 -3.890452 0.148446 0.000007 -1.024400 -0.229319 -1.898087
    14 17.848171 0.000000 0.000000 0.000000 0.000000 0.961216
    15 16.525253 0.000000 0.000000 0.067892 -0.377765 -0.906449
    16 11.479830 -0.000111 0.000311 -0.751091 0.006939 0.171305
  time 16
    0 22.935114 -0.361219 37.820801 1.580827 0.003416 0.036746
    1 0.000005 3.345128 -2.981901 1.569610 0.125291 1.578766
    2 7.536097 0.128910 -0.062502 0.045697 0.011517 0.176565
    3 10.779946 1.393704 -1.886827 -1.164418 1.232851 3.632526
    4 6.028143 0.000000 0.000000 0.930207 0.073750 -1.048101
    5 11.692554 0.000000 0.000008 0.000000 0.000000 -0.359393
    6 10.658842 1.413230 1.984536 1.565227 -1.288204 3.187681
    7 6.028142 0.000000 0.000000 -1.326991 -0.081001 -1.091042
    8 11.692558 0.000000 0.000001 0.000000 0.000000 -0.262201
    9 15.117922 2.756416 0.183599 3.066340 0.026546 0.112414
    10 3.890452 -0.148446 -0.000003 -1.562709 -0.371792 -1.766607
    11 17.848175 0.000000 0.000000 0.000000 0.000000 0.507002
    12 16.525248 0.000000 0.000000 0.252294 -0.067056 -0.878798
    13 -3.890452 0.148446 0.000007 -1.081319 -0.267253 -1.807021
    14 17.848171 0.000000 0.000000 0.000000 0.000000 1.014728
    15 16.525253 0.000000 0.000000 0.091263 -0.318426 -0.973062
    16 11.479830 -0.000111 0.000311 -0.751091 0.006939 0.171305
  time 17
    0 24.267872 -0.362799 37.684078 1.580851 0.003416 0.043853
    1 0.000005 3.345128 -2.981901 1.569765 0.125291 1.577112
    2 7.536097 0.125004 -0.070315 0.033617 0.018648 0.173945
    3 10.776040 1.397611 -1.890734 -1.115985 1.224437 3.685212
    4 6.028143 0.000000 0.000000 0.917149 0.053561 -1.060148
    5 11.692554 0.000000 0.000008 0.000000 0.000000 -0.350684
    6 10.658842 1.417136 1.980630 1.638838 -1.283650 3.112450
    7 6.028142 0.000000 0.000000 -1.356919 -0.103617 -1.067404
    8 11.692558 0.000000 0.000001 0.000000 0.000000 -0.300119
    9 15.114016 2.764229 0.175787 3.065847 0.027924 0.113664
    10 3.890452 -0.148446 -0.000003 -1.578101 -0.412526 -1.806096
    11 17.848175 0.000000 0.000000 0.000000 0.000000 0.559623
    12 16.525248 0.000000 0.000000 0.319448 -0.093971 -0.782149
    13 -3.890452 0.148446 0.000007 -1.152576 -0.303980 -1.699157
    14 17.848171 0.000000 0.000000 0.000000 0.000000 1.051161
    15 16.525253 0.000000 0.000000 0.114999 -0.245092 -1.029579
    16 11.479830 -0.000111 0.000311 -0.751091 0.006939 0.171305
  time 18
    0 25.600631 -0.364379 37.477040 1.580875 0.003416 0.050636
    1 0.000005 3.345128 -2.981901 1.569957 0.125291 1.574871
    2 7.536097 0.117191 -0.082034 0.023550 0.027301 0.170541
    3 10.772134 1.401517 -1.890734 -1.073103 1.216851 3.733679
    4 6.028143 0.000000 0.000000 0.906634 0.038512 -1.072108
    5 11.692554 0.000000 0.000008 0.000000 0.000000 -0.334510
    6 10.654936 1.421043 1.980630 1.702602 -1.277346 3.048908
    7 6.028142 0.000000 0.000000 -1.382656 -0.136001 -1.045288
    8 11.692558 0.000000 0.000001 0.000000 0.000000 -0.318626
    9 15.106203 2.783761 0.171880 3.065330 0.028308 0.116555
    10 3.890452 -0.148446 -0.000003 -1.601827 -0.442353 -1.846736
    11 17.848175 0.000000 0.000000 0.000000 0.000000 0.588549
    12 16.525248 0.000000 0.000000 0.379871 -0.144615 -0.678562
    13 -3.890452 0.148446 0.000007 -1.198941 -0.330682 -1.599072
    14 17.848171 0.000000 0.000000 0.000000 0.000000 1.061408
    15 16.525253 0.000000 0.000000 0.061944 -0.202727 -1.055921
    16 11.479830 -0.000111 0.000311 -0.751091 0.006939 0.171305
  time 19
    0 26.933389 -0.365959 37.238752 1.580899 0.003404 0.056774
    1 0.000005 3.345128 -2.981901 1.570173 0.125291 1.571994
    2 7.536097 0.109378 -0.101566 0.015999 0.037428 0.166809
    3 10.768227 1.405423 -1.890734 -1.034201 1.211794 3.778818
    4 6.028143 0.000000 0.000000 0.899139 0.028510 -1.084853
    5 11.692554 0.000000 0.000008 0.000000 0.000000 -0.313361
    6 10.647123 1.428856 1.984536 1.753286 -1.268741 3.000016
    7 6.028142 0.000000 0.000000 -1.403028 -0.172765 -1.024949
    8 11.692558 0.000000 0.000001 0.000000 0.000000 -0.320917
    9 15.094484 2.811105 0.183599 3.064649 0.026318 0.120728
    10 3.890452 -0.148446 -0.000003 -1.577789 -0.444182 -1.900849
    11 17.848175 0.000000 0.000000 0.000000 0.000000 0.576414
    12 16.525248 0.000000 0.000000 0.384184 -0.210192 -0.603157
    13 -3.890452 0.148446 0.000007 -1.376127 -0.359612 -1.440791
    14 17.848171 0.000000 0.000000 0.000000 0.000000 1.031113
    15 16.525253 0.000000 0.000000 0.052772 -0.128189 -1.066108
    16 11.479830 -0.000111 0.000311 -0.751091 0.006939 0.171305
  time 20
    0 28.266147 -0.367538 36.988744 1.580923 0.003404 0.061996
    1 0.000005 3.345128 -2.981901 1.570377 0.125291 1.568483
    2 7.536097 0.101566 -0.125004 0.011409 0.048909 0.163305
    3 10.772134 1.417142 -1.882921 -0.999873 1.209732 3.819551
    4 6.028143 0.000000 0.000000 0.895301 0.023221 -1.097476
    5 11.692554 0.000000 0.000008 0.000000 0.000000 -0.291091
    6 10.631498 1.440575 1.992349 1.788727 -1.258746 2.967711
    7 6.028142 0.000000 0.000000 -1.417078 -0.204772 -1.008330
    8 11.692558 0.000000 0.000001 0.000000 0.000000 -0.318867
    9 15.078859 2.842356 0.207038 3.063803 0.021932 0.125876
    10 3.890452 -0.148446 -0.000003 -1.602676 -0.456418 -1.932419
    11 17.848175 0.000000 0.000000 0.000000 0.000000 0.565795
    12 16.525248 0.000000 0.000000 0.368067 -0.233433 -0.515652
    13 -3.890452 0.148446 0.000007 -1.410137 -0.351846 -1.366356
    14 17.848171 0.000000 0.000000 0.000000 0.000000 0.967700
    15 16.525253 0.000000 0.000000 -0.057214 -0.114590 -1.031361
    16 11.479830 -0.000111 0.000311 -0.751091 0.006939 0.171305
  time 21
    0 29.598905 -0.369118 36.758268 1.580935 0.003404 0.065981
    1 0.000005 3.345128 -2.981901 1.570544 0.125291 1.564312
    2 7.536097 0.093753 -0.152348 0.010163 0.061409 0.160670
    3 10.772134 1.424955 -1.871202 -0.972892 1.210260 3.852808
    4 6.028143 0.000000 0.000000 0.895801 0.021867 -1.107414
    5 11.692554 0.000000 0.000008 0.000000 0.000000 -0.273238
    6 10.611966 1.448387 2.000162 1.808652 -1.249386 2.952153
    7 6.028142 0.000000 0.000000 -1.424086 -0.220429 -0.998583
    8 11.692558 0.000000 0.000001 0.000000 0.000000 -0.329357
    9 15.059327 2.877513 0.242195 3.062933 0.016395 0.131689
    10 3.890452 -0.148446 -0.000003 -1.677739 -0.481889 -1.932662
    11 17.848175 0.000000 0.000000 0.000000 0.000000 0.564802
    12 16.525248 0.000000 0.000000 0.322358 -0.143233 -0.395365
    13 -3.890452 0.148446 0.000007 -1.434641 -0.330311 -1.317536
    14 17.848171 0.000000 0.000000 0.000000 0.000000 0.885180
    15 16.525253 0.000000 0.000000 -0.117235 -0.071148 -0.987526
    16 11.479830 -0.000111 0.000311 -0.751091 0.006939 0.171305
  time 22
    0 30.931664 -0.370698 36.574669 1.580935 0.003404 0.068457
    1 0.000005 3.345128 -2.981901 1.570652 0.125279 1.559602
    2 7.532191 0.089847 -0.183599 0.011553 0.074257 0.159388
    3 10.776040 1.436674 -1.859483 -0.955671 1.213436 3.875870
    4 6.028143 0.000000 0.000000 0.900025 0.023351 -1.112348
    5 11.692554 0.000000 0.000008 0.000000 0.000000 -0.265960
    6 10.588528 1.460106 2.011881 1.812914 -1.242064 2.953402
    7 6.028142 0.000000 0.000000 -1.424187 -0.209949 -0.998224
    8 11.692558 0.000000 0.000001 0.000000 0.000000 -0.364442
    9 15.039795 2.912671 0.281259 3.062111 0.010391 0.137843
    10 3.890452 -0.148446 -0.000003 -1.774405 -0.510021 -1.914322
    11 17.848175 0.000000 0.000000 0.000000 0.000000 0.585044
    12 16.525248 0.000000 0.000000 0.292258 0.027492 -0.280349
    13 -3.890452 0.148446 0.000007 -1.512806 -0.290892 -1.270025
    14 17.848171 0.000000 0.000000 0.000000 0.000000 0.783206
    15 16.525253 0.000000 0.000000 -0.097106 0.038655 -0.972142
    16 11.479830 -0.000111 0.000311 -0.751091 0.006939 0.171305
  time 23
    0 32.264422 -0.372278 36.496542 1.580947 0.003404 0.069103
    1 0.000005 3.345128 -2.981901 1.570700 0.125279 1.554557
    2 7.532191 0.089847 -0.214850 0.014609 0.086373 0.159744
    3 10.776040 1.448393 -1.847764 -0.950188 1.219356 3.886393
    4 6.028143 0.000000 0.000000 0.906815 0.027471 -1.110604
    5 11.692554 0.000000 0.000008 0.000000 0.000000 -0.273052
    6 10.568996 1.467919 2.019694 1.801493 -1.237557 2.971258
    7 6.028142 0.000000 0.000000 -1.418352 -0.180143 -1.005032
    8 11.692558 0.000000 0.000001 0.000000 0.000000 -0.416527
    9 15.020263 2.951734 0.316416 3.061430 0.004422 0.143997
    10 3.890452 -0.148446 -0.000003 -1.762118 -0.545501 -1.929167
    11 17.848175 0.000000 0.000000 0.000000 0.000000 0.638397
    12 16.525248 0.000000 0.000000 0.221986 0.089513 -0.255985
    13 -3.890452 0.148446 0.000007 -1.520943 -0.245284 -1.279724
    14 17.848171 0.000000 0.000000 0.000000 0.000000 0.709992
    15 16.525253 0.000000 0.000000 -0.122511 0.154053 -1.050011
    16 11.479830 -0.000111 0.000311 -0.751091 0.006939 0.171305
  time 24
    0 33.597180 -0.373857 36.523886 1.580935 0.003404 0.066896
    1 0.000005 3.345128 -2.981901 1.570712 0.125267 1.549547
    2 7.528284 0.089847 -0.238289 0.019223 0.096536 0.161525
    3 10.779946 1.460112 -1.839951 -0.956672 1.227541 3.883932
    4 6.028143 0.000000 0.000000 0.914537 0.034429 -1.102707
    5 11.692554 0.000000 0.000008 0.000000 0.000000 -0.292335
    6 10.549464 1.479638 2.031413 1.776403 -1.235868 3.003241
    7 6.028142 0.000000 0.000000 -1.408493 -0.143400 -1.014568
    8 11.692558 0.000000 0.000001 0.000000 0.000000 -0.471626
    9 15.000731 2.986892 0.351573 3.060936 -0.001091 0.149681
    10 3.890452 -0.148446 -0.000003 -1.858427 -0.572834 -1.909765
    11 17.848175 0.000000 0.000000 0.000000 0.000000 0.707966
    12 16.525248 0.000000 0.000000 0.271351 0.056531 -0.301082
    13 -3.890452 0.148446 0.000007 -1.433297 -0.185846 -1.342863
    14 17.848171 0.000000 0.000000 0.000000 0.000000 0.641431
    15 16.525253 0.000000 0.000000 -0.147763 0.078452 -1.191911
    16 11.479830 -0.000111 0.000311 -0.751091 0.006939 0.171305
  time 25
    0 34.929938 -0.375437 36.621546 1.580911 0.003404 0.061566
    1 0.000005 3.345128 -2.981901 1.570676 0.125255 1.544981
    2 7.528284 0.093753 -0.257820 0.025276 0.103954 0.164316
    3 10.779946 1.467925 -1.828232 -0.975144 1.237225 3.868065
    4 6.028143 0.000000 0.000000 0.922417 0.044635 -1.090450
    5 11.692554 0.000000 0.000008 0.000000 0.000000 -0.317653
    6 10.533839 1.483545 2.039226 1.739618 -1.236671 3.046691
    7 6.028142 0.000000 0.000000 -1.395248 -0.102841 -1.026090
    8 11.692558 0.000000 0.000001 0.000000 0.000000 -0.522565
    9 14.985106 3.014236 0.382824 3.060678 -0.005789 0.154406
    10 3.890452 -0.148446 -0.000003 -1.830725 -0.596276 -1.924034
    11 17.848175 0.000000 0.000000 0.000000 0.000000 0.758076
    12 16.525248 0.000000 0.000000 0.207824 0.033610 -0.369253
    13 -3.890452 0.148446 0.000007 -1.368285 -0.096828 -1.387130
    14 17.848171 0.000000 0.000000 0.000000 0.000000 0.507131
    15 16.525253 0.000000 0.000000 -0.142083 0.012916 -1.293748
    16 11.479830 -0.000111 0.000311 -0.751091 0.006939 0.171305
  time 26
    0 36.262697 -0.377017 36.812958 1.580887 0.003416 0.053974
    1 0.000005 3.345128 -2.981901 1.570640 0.125243 1.541218
    2 7.528284 0.101566 -0.273446 0.032682 0.108377 0.167792
    3 10.779946 1.475738 -1.820419 -1.005810 1.247448 3.838558
    4 6.028143 0.000000 0.000000 0.930707 0.058942 -1.075334
    5 11.692554 0.000000 0.000008 0.000000 0.000000 -0.342784
    6 10.518213 1.487451 2.043132 1.692692 -1.239631 3.099733
    7 6.028142 0.000000 0.000000 -1.378397 -0.061235 -1.039241
    8 11.692558 0.000000 0.000001 0.000000 0.000000 -0.564462
    9 14.973387 3.033768 0.402356 3.060654 -0.009264 0.157897
    10 3.890452 -0.148446 -0.000003 -1.762744 -0.610109 -1.945582
    11 17.848175 0.000000 0.000000 0.000000 0.000000 0.790297
    12 16.525248 0.000000 0.000000 0.110899 0.008347 -0.454070
    13 -3.890452 0.148446 0.000007 -1.344875 -0.008614 -1.412117
    14 17.848171 0.000000 0.000000 0.000000 0.000000 0.348774
    15 16.525253 0.000000 0.000000 -0.107506 -0.005294 -1.323179
    16 11.479830 -0.000111 0.000311 -0.751091 0.006939 0.171305
  time 27
    0 37.595455 -0.378597 37.098123 1.580863 0.003416 0.044876
    1 0.000005 3.345128 -2.981901 1.570580 0.125231 1.538486
    2 7.524378 0.109378 -0.277352 0.041323 0.109851 0.171538
    3 10.783853 1.483551 -1.816513 -1.047305 1.257731 3.796818
    4 6.028143 0.000000 0.000000 0.939541 0.077647 -1.058963
    5 11.692554 0.000000 0.000008 0.000000 0.000000 -0.363125
    6 10.510400 1.491357 2.047038 1.636823 -1.243694 3.160938
    7 6.028142 0.000000 0.000000 -1.357909 -0.020823 -1.053090
    8 11.692558 0.000000 0.000001 0.000000 0.000000 -0.594122
    9 14.965574 3.049394 0.417982 3.060795 -0.011769 0.160220
    10 3.890452 -0.148446 -0.000003 -1.709551 -0.612171 -1.951025
    11 17.848175 0.000000 0.000000 0.000000 0.000000 0.810487
    12 16.525248 0.000000 0.000000 0.031449 -0.025208 -0.559754
    13 -3.890452 0.148446 0.000007 -1.318501 0.052897 -1.437716
    14 17.848171 0.000000 0.000000 0.000000 0.000000 0.228384
    15 16.525253 0.000000 0.000000 -0.076383 -0.013536 -1.294787
    16 11.479830 -0.000111 0.000311 -0.751091 0.006939 0.171305
  time 28
    0 38.928213 -0.380177 37.395007 1.580827 0.003416 0.035131
    1 0.000005 3.345128 -2.981901 1.570508 0.125219 1.536832
    2 7.524378 0.117191 -0.281259 0.051090 0.109144 0.174984
    3 10.783853 1.483551 -1.812606 -1.097672 1.267726 3.744905
    4 6.028143 0.000000 0.000000 0.948966 0.100286 -1.042121
    5 11.692554 0.000000 0.000008 0.000000 0.000000 -0.375752
    6 10.506494 1.491357 2.050945 1.573709 -1.247672 3.228632
    7 6.028142 0.000000 0.000000 -1.333765 0.016654 -1.067087
    8 11.692558 0.000000 0.000001 0.000000 0.000000 -0.609313
    9 14.961668 3.057206 0.433607 3.060960 -0.013782 0.161421
    10 3.890452 -0.148446 -0.000003 -1.679615 -0.609145 -1.933791
    11 17.848175 0.000000 0.000000 0.000000 0.000000 0.833136
    12 16.525248 0.000000 0.000000 -0.019081 -0.066870 -0.703168
    13 -3.890452 0.148446 0.000007 -1.318022 0.088356 -1.464317
    14 17.848171 0.000000 0.000000 0.000000 0.000000 0.153636
    15 16.525253 0.000000 0.000000 -0.038218 0.004801 -1.249497
    16 11.479830 -0.000111 0.000311 -0.751091 0.006939 0.171305
  time 29
    0 40.260971 -0.381756 37.621576 1.580791 0.003416 0.025493
    1 0.000005 3.345128 -2.981901 1.570377 0.125219 1.536196
    2 7.524378 0.121098 -0.281259 0.061829 0.106807 0.177548
    3 10.787759 1.487457 -1.808700 -1.155523 1.276762 3.684391
    4 6.028143 0.000000 0.000000 0.958981 0.125746 -1.025052
    5 11.692554 0.000000 0.000008 0.000000 0.000000 -0.379112
    6 10.502588 1.491357 2.054851 1.505368 -1.251052 3.300538
    7 6.028142 0.000000 0.000000 -1.306117 0.049792 -1.081020
    8 11.692558 0.000000 0.000001 0.000000 0.000000 -0.608831
    9 14.961668 3.057206 0.441420 3.061171 -0.015256 0.161535
    10 3.890452 -0.148446 -0.000003 -1.682207 -0.588628 -1.889257
    11 17.848175 0.000000 0.000000 0.000000 0.000000 0.830835
    12 16.525248 0.000000 0.000000 -0.029855 -0.105701 -0.862717
    13 -3.890452 0.148446 0.000007 -1.345855 0.114254 -1.491377
    14 17.848171 0.000000 0.000000 0.000000 0.000000 0.096857
    15 16.525253 0.000000 0.000000 0.010232 0.048022 -1.206196
    16 11.479830 -0.000111 0.000311 -0.751091 0.006939 0.171305
  time 30
    0 41.593730 -0.383336 37.766112 1.580767 0.003416 0.016825
    1 0.000005 3.345128 -2.981901 1.570281 0.125219 1.537359
    2 7.524378 0.125004 -0.277352 0.073250 0.102732 0.178716
    3 10.791666 1.483551 -1.808700 -1.218789 1.284300 3.617432
    4 6.028143 0.000000 0.000000 0.969610 0.152411 -1.007774
    5 11.692554 0.000000 0.000008 0.000000 0.000000 -0.373015
    6 10.502588 1.487451 2.058757 1.434318 -1.253473 3.374076
    7 6.028142 0.000000 0.000000 -1.275266 0.077565 -1.094975
    8 11.692558 0.000000 0.000001 0.000000 0.000000 -0.592253
    9 14.961668 3.049394 0.449232 3.061406 -0.016155 0.160625
    10 3.890452 -0.148446 -0.000003 -1.711093 -0.554279 -1.817999
    11 17.848175 0.000000 0.000000 0.000000 0.000000 0.800340
    12 16.525248 0.000000 0.000000 -0.014335 -0.124863 -1.008147
    13 -3.890452 0.148446 0.000007 -1.376583 0.107508 -1.526012
    14 17.848171 0.000000 0.000000 0.000000 0.000000 0.108589
    15 16.525253 0.000000 0.000000 0.065263 0.088849 -1.189921
    16 11.479830 -0.000111 0.000311 -0.751091 0.006939 0.171305
end
