// Created by Crowbar 0.74
version 1
nodes
  0 "ValveBiped.Bip01" -1
  1 "ValveBiped.Bip01_Spine" 0
  2 "ValveBiped.Bip01_Spine2" 1
  3 "ValveBiped.Bip01_R_Clavicle" 2
  4 "ValveBiped.Bip01_R_UpperArm" 3
  5 "ValveBiped.Bip01_R_Forearm" 4
  6 "ValveBiped.Bip01_L_Clavicle" 2
  7 "ValveBiped.Bip01_L_UpperArm" 6
  8 "ValveBiped.Bip01_L_Forearm" 7
  9 "ValveBiped.Bip01_Head1" 2
  10 "ValveBiped.Bip01_L_Thigh" 0
  11 "ValveBiped.Bip01_L_Calf" 10
  12 "ValveBiped.Bip01_L_Foot" 11
  13 "ValveBiped.Bip01_R_Thigh" 0
  14 "ValveBiped.Bip01_R_Calf" 13
  15 "ValveBiped.Bip01_R_Foot" 14
  16 "ValveBiped.Bip01_R_Hand" 5
end
skeleton
  time 0
    0 1.232064 -0.335943 37.961430 1.580791 0.003416 0.025493
    1 0.000005 3.345128 -2.981901 1.570377 0.125219 1.536196
    2 7.524378 0.121098 -0.281259 0.061829 0.106807 0.177548
    3 10.787759 1.487457 -1.808700 -1.155523 1.276762 3.684391
    4 6.028143 0.000000 0.000000 0.958981 0.125746 -1.025052
    5 11.692554 0.000000 0.000008 0.000000 0.000000 -0.379112
    6 10.502588 1.491357 2.054851 1.505368 -1.251052 3.300538
    7 6.028142 0.000000 0.000000 -1.306117 0.049792 -1.081020
    8 11.692558 0.000000 0.000001 0.000000 0.000000 -0.608831
    9 14.961668 3.057206 0.441420 3.061171 -0.015256 0.161535
    10 3.890452 -0.148446 -0.000003 -1.600844 -0.325605 -1.504802
    11 17.848175 0.000000 0.000000 0.000000 0.000000 1.011973
    12 16.525248 0.000000 0.000000 -0.155253 -0.013074 -0.983730
    13 -3.890452 0.148446 0.000007 -1.295159 -0.049147 -1.540621
    14 17.848171 0.000000 0.000000 0.000000 0.000000 0.317686
    15 16.525253 0.000000 0.000000 -0.049040 0.044789 -1.266603
    16 11.479830 -0.000111 0.000311 -0.751091 0.006939 0.171305
  time 1
    0 1.247783 -2.258763 38.105966 1.580767 0.003416 0.016825
    1 0.000005 3.345128 -2.981901 1.570281 0.125219 1.537359
    2 7.524378 0.125004 -0.277352 0.073250 0.102732 0.178716
    3 10.791666 1.483551 -1.808700 -1.218789 1.284300 3.617432
    4 6.028143 0.000000 0.000000 0.969610 0.152411 -1.007774
    5 11.692554 0.000000 0.000008 0.000000 0.000000 -0.373015
    6 10.502588 1.487451 2.058757 1.434318 -1.253473 3.374076
    7 6.028142 0.000000 0.000000 -1.275266 0.077565 -1.094975
    8 11.692558 0.000000 0.000001 0.000000 0.000000 -0.592253
    9 14.961668 3.049394 0.449232 3.061406 -0.016155 0.160625
    10 3.890452 -0.148446 -0.000003 -1.605088 -0.407106 -1.513939
    11 17.848175 0.000000 0.000000 0.000000 0.000000 0.961288
    12 16.525248 0.000000 0.000000 -0.150120 -0.051989 -1.006373
    13 -3.890452 0.148446 0.000007 -1.309087 0.034642 -1.531397
    14 17.848171 0.000000 0.000000 0.000000 0.000000 0.248037
    15 16.525253 0.000000 0.000000 -0.033939 0.043251 -1.244745
    16 11.479830 -0.000111 0.000311 -0.751091 0.006939 0.171305
  time 2
    0 1.290846 -4.181582 38.184093 1.580719 0.003416 0.005573
    1 0.000005 3.345128 -2.981901 1.570257 0.125231 1.540523
    2 7.524378 0.125004 -0.269539 0.085043 0.096835 0.178488
    3 10.791666 1.483551 -1.804793 -1.284648 1.289945 3.547028
    4 6.028143 0.000000 0.000000 0.976673 0.179671 -0.990496
    5 11.692554 0.000000 0.000008 0.000000 0.000000 -0.358957
    6 10.502588 1.487451 2.058757 1.363373 -1.254743 3.446385
    7 6.028142 0.000000 0.000000 -1.246042 0.099741 -1.109859
    8 11.692558 0.000000 0.000001 0.000000 0.000000 -0.559881
    9 14.969480 3.041581 0.453139 3.061665 -0.016479 0.158774
    10 3.890452 -0.148446 -0.000003 -1.612394 -0.442752 -1.521593
    11 17.848175 0.000000 0.000000 0.000000 0.000000 0.827748
    12 16.525248 0.000000 0.000000 -0.135167 -0.090802 -1.011267
    13 -3.890452 0.148446 0.000007 -1.324314 0.101815 -1.529104
    14 17.848171 0.000000 0.000000 0.000000 0.000000 0.209771
    15 16.525253 0.000000 0.000000 -0.018224 0.041159 -1.217571
    16 11.479830 -0.000111 0.000311 -0.751091 0.006939 0.171305
  time 3
    0 1.353441 -6.104402 38.180187 1.580683 0.003416 -0.005572
    1 0.000005 3.345128 -2.981901 1.570221 0.125255 1.544909
    2 7.528284 0.121098 -0.257820 0.096871 0.089117 0.177206
    3 10.795572 1.479644 -1.804793 -1.349620 1.293624 3.476788
    4 6.028143 0.000000 0.000000 0.981942 0.205390 -0.974578
    5 11.692554 0.000000 0.000008 0.000000 0.000000 -0.339860
    6 10.510400 1.479638 2.058757 1.295536 -1.254899 3.514422
    7 6.028142 0.000000 0.000000 -1.217941 0.114581 -1.124638
    8 11.692558 0.000000 0.000001 0.000000 0.000000 -0.512739
    9 14.977293 3.022049 0.449232 3.061947 -0.016287 0.156030
    10 3.890452 -0.148446 -0.000003 -1.620481 -0.453991 -1.527213
    11 17.848175 0.000000 0.000000 0.000000 0.000000 0.664969
    12 16.525248 0.000000 0.000000 -0.111364 -0.124593 -1.022427
    13 -3.890452 0.148446 0.000007 -1.339974 0.132602 -1.537699
    14 17.848171 0.000000 0.000000 0.000000 0.000000 0.244275
    15 16.525253 0.000000 0.000000 -0.001876 0.037609 -1.200910
    16 11.479830 -0.000111 0.000311 -0.751091 0.006939 0.171305
  time 4
    0 1.423850 -8.027222 38.066902 1.580647 0.003416 -0.017417
    1 0.000005 3.345128 -2.981901 1.570161 0.125267 1.549835
    2 7.528284 0.117191 -0.246101 0.108413 0.079769 0.175084
    3 10.799478 1.471832 -1.808700 -1.410042 1.295422 3.410579
    4 6.028143 0.000000 0.000000 0.984349 0.227342 -0.960491
    5 11.692554 0.000000 0.000008 0.000000 0.000000 -0.321199
    6 10.514307 1.475732 2.058757 1.233766 -1.254156 3.575183
    7 6.028142 0.000000 0.000000 -1.193529 0.121749 -1.139269
    8 11.692558 0.000000 0.000001 0.000000 0.000000 -0.452877
    9 14.989012 3.002517 0.449232 3.062252 -0.015640 0.152490
    10 3.890452 -0.148446 -0.000003 -1.629685 -0.446210 -1.531438
    11 17.848175 0.000000 0.000000 0.000000 0.000000 0.498581
    12 16.525248 0.000000 0.000000 -0.081086 -0.151087 -1.051470
    13 -3.890452 0.148446 0.000007 -1.357070 0.142781 -1.552087
    14 17.848171 0.000000 0.000000 0.000000 0.000000 0.318330
    15 16.525253 0.000000 0.000000 0.014472 0.031428 -1.185942
    16 11.479830 -0.000111 0.000311 -0.751091 0.006939 0.171305
  time 5
    0 1.490351 -9.950042 37.859865 1.580611 0.003416 -0.029262
    1 0.000005 3.345128 -2.981901 1.570065 0.125279 1.554701
    2 7.528284 0.113285 -0.226569 0.119355 0.069211 0.172392
    3 10.803385 1.464019 -1.808700 -1.462229 1.295710 3.352292
    4 6.028143 0.000000 0.000000 0.984735 0.242299 -0.947868
    5 11.692554 0.000000 0.000008 0.000000 0.000000 -0.310375
    6 10.522119 1.467919 2.054851 1.180878 -1.252934 3.625929
    7 6.028142 0.000000 0.000000 -1.173795 0.121183 -1.153266
    8 11.692558 0.000000 0.000001 0.000000 0.000000 -0.383853
    9 15.000731 2.975173 0.441420 3.062557 -0.014669 0.148333
    10 3.890452 -0.148446 -0.000003 -1.638018 -0.389449 -1.537788
    11 17.848175 0.000000 0.000000 0.000000 0.000000 0.279415
    12 16.525248 0.000000 0.000000 -0.047375 -0.169053 -1.070052
    13 -3.890452 0.148446 0.000007 -1.373824 0.141946 -1.566984
    14 17.848171 0.000000 0.000000 0.000000 0.000000 0.393870
    15 16.525253 0.000000 0.000000 0.028499 0.022838 -1.136167
    16 11.479830 -0.000111 0.000311 -0.751091 0.006939 0.171305
  time 6
    0 1.552946 -11.872861 37.586419 1.580563 0.003416 -0.042022
    1 0.000005 3.345128 -2.981901 1.569993 0.125279 1.558931
    2 7.532191 0.109378 -0.199225 0.129470 0.058173 0.169672
    3 10.811197 1.456206 -1.812606 -1.502973 1.294967 3.305489
    4 6.028143 0.000000 0.000000 0.982759 0.247977 -0.936082
    5 11.692554 0.000000 0.000008 0.000000 0.000000 -0.314543
    6 10.533839 1.460106 2.054851 1.139495 -1.251735 3.664239
    7 6.028142 0.000000 0.000000 -1.161002 0.114120 -1.166121
    8 11.692558 0.000000 0.000001 0.000000 0.000000 -0.312055
    9 15.016357 2.947828 0.433607 3.062863 -0.013471 0.143754
    10 3.890452 -0.148446 -0.000003 -1.648317 -0.345057 -1.541925
    11 17.848175 0.000000 0.000000 0.000000 0.000000 0.137820
    12 16.525248 0.000000 0.000000 -0.014529 -0.178524 -1.137309
    13 -3.890452 0.148446 0.000007 -1.390670 0.172454 -1.576174
    14 17.848171 0.000000 0.000000 0.000000 0.000000 0.403919
    15 16.525253 0.000000 0.000000 0.041086 0.009398 -1.004573
    16 11.479830 -0.000111 0.000311 -0.751091 0.006939 0.171305
  time 7
    0 1.596010 -13.795681 37.277816 1.580528 0.003416 -0.052251
    1 0.000005 3.345128 -2.981901 1.569957 0.125291 1.561939
    2 7.532191 0.105472 -0.175787 0.138626 0.048142 0.167635
    3 10.815104 1.448393 -1.812606 -1.529498 1.293708 3.273545
    4 6.028143 0.000000 0.000000 0.982328 0.243598 -0.925238
    5 11.692554 0.000000 0.000008 0.000000 0.000000 -0.333888
    6 10.541651 1.452294 2.050945 1.111970 -1.251112 3.688201
    7 6.028142 0.000000 0.000000 -1.152552 0.103744 -1.175234
    8 11.692558 0.000000 0.000001 0.000000 0.000000 -0.250566
    9 15.028076 2.920483 0.425794 3.063145 -0.012152 0.139288
    10 3.890452 -0.148446 -0.000003 -1.656918 -0.282410 -1.545332
    11 17.848175 0.000000 0.000000 0.000000 0.000000 0.000044
    12 16.525248 0.000000 0.000000 -0.009112 -0.179350 -1.091996
    13 -3.890452 0.148446 0.000007 -1.404529 0.211255 -1.584090
    14 17.848171 0.000000 0.000000 0.000000 0.000000 0.416443
    15 16.525253 0.000000 0.000000 0.049740 -0.005294 -0.926287
    16 11.479830 -0.000111 0.000311 -0.751091 0.006939 0.171305
  time 8
    0 1.611729 -15.718501 37.004370 1.580516 0.003404 -0.056451
    1 0.000005 3.345128 -2.981901 1.569957 0.125291 1.563090
    2 7.532191 0.105472 -0.164068 0.146967 0.042545 0.166837
    3 10.815104 1.440581 -1.816513 -1.539372 1.292330 3.260396
    4 6.028143 0.000000 0.000000 0.986529 0.235841 -0.919066
    5 11.692554 0.000000 0.000008 0.000000 0.000000 -0.349813
    6 10.549464 1.448387 2.050945 1.100632 -1.251567 3.696807
    7 6.028142 0.000000 0.000000 -1.145108 0.098274 -1.177411
    8 11.692558 0.000000 0.000001 0.000000 0.000000 -0.223740
    9 15.035889 2.904858 0.417982 3.063403 -0.010822 0.136317
    10 3.890452 -0.148446 -0.000003 -1.665586 -0.396964 -1.531549
    11 17.848175 0.000000 0.000000 0.000000 0.000000 0.302639
    12 16.525248 0.000000 0.000000 -0.010321 -0.178979 -1.274295
    13 -3.890452 0.148446 0.000007 -1.410593 0.284121 -1.585618
    14 17.848171 0.000000 0.000000 0.000000 0.000000 0.373030
    15 16.525253 0.000000 0.000000 0.055823 -0.019971 -0.860980
    16 11.479830 -0.000111 0.000311 -0.751091 0.006939 0.171305
  time 9
    0 1.623541 -17.641321 36.832489 1.580528 0.003416 -0.052574
    1 0.000005 3.345128 -2.981901 1.570281 0.125291 1.567356
    2 7.536097 0.105472 -0.132817 0.143743 0.029015 0.167193
    3 10.811197 1.436674 -1.824325 -1.533229 1.287992 3.263326
    4 6.028143 0.000000 0.000000 0.984803 0.239255 -0.934077
    5 11.692554 0.000000 0.000008 0.000000 0.000000 -0.328788
    6 10.565089 1.440575 2.043132 1.101472 -1.255894 3.691527
    7 6.028142 0.000000 0.000000 -1.147824 0.095465 -1.170730
    8 11.692558 0.000000 0.000001 0.000000 0.000000 -0.224584
    9 15.051514 2.881420 0.390637 3.064226 -0.006448 0.132631
    10 3.890452 -0.148446 -0.000003 -1.664603 -0.439194 -1.525000
    11 17.848175 0.000000 0.000000 0.000000 0.000000 0.479384
    12 16.525248 0.000000 0.000000 -0.031079 -0.174126 -1.308690
    13 -3.890452 0.148446 0.000007 -1.405829 0.386970 -1.580573
    14 17.848171 0.000000 0.000000 0.000000 0.000000 0.247047
    15 16.525253 0.000000 0.000000 0.061963 -0.032713 -0.806513
    16 11.479830 -0.000111 0.000311 -0.751091 0.006939 0.171305
  time 10
    0 1.650979 -19.564140 36.805145 1.580563 0.003416 -0.043045
    1 0.000005 3.345128 -2.981901 1.570257 0.125291 1.571168
    2 7.536097 0.109378 -0.105472 0.137008 0.016371 0.168746
    3 10.811197 1.428861 -1.832138 -1.511504 1.283114 3.282005
    4 6.028143 0.000000 0.000000 0.983509 0.238884 -0.955191
    5 11.692554 0.000000 0.000008 0.000000 0.000000 -0.304776
    6 10.580715 1.436668 2.035319 1.118394 -1.261898 3.669036
    7 6.028142 0.000000 0.000000 -1.155486 0.085362 -1.162040
    8 11.692558 0.000000 0.000001 0.000000 0.000000 -0.227357
    9 15.063233 2.854075 0.363292 3.065048 -0.001558 0.128457
    10 3.890452 -0.148446 -0.000003 -1.656203 -0.437797 -1.524116
    11 17.848175 0.000000 0.000000 0.000000 0.000000 0.547593
    12 16.525248 0.000000 0.000000 -0.065029 -0.161081 -1.199724
    13 -3.890452 0.148446 0.000007 -1.403458 0.354141 -1.598019
    14 17.848171 0.000000 0.000000 0.000000 0.000000 0.367535
    15 16.525253 0.000000 0.000000 0.063479 -0.051732 -0.776399
    16 11.479830 -0.000111 0.000311 -0.751091 0.006939 0.171305
  time 11
    0 1.690136 -21.486960 36.965306 1.580599 0.003416 -0.031307
    1 0.000005 3.345128 -2.981901 1.570029 0.125291 1.574475
    2 7.536097 0.117191 -0.085940 0.127492 0.007083 0.171125
    3 10.807291 1.421049 -1.843857 -1.477312 1.277757 3.313739
    4 6.028143 0.000000 0.000000 0.981487 0.228771 -0.973898
    5 11.692554 0.000000 0.000008 0.000000 0.000000 -0.295819
    6 10.596340 1.428856 2.027506 1.150581 -1.268837 3.630725
    7 6.028142 0.000000 0.000000 -1.169067 0.069432 -1.154302
    8 11.692558 0.000000 0.000001 0.000000 0.000000 -0.230070
    9 15.078859 2.830637 0.332041 3.065776 0.003500 0.124219
    10 3.890452 -0.148446 -0.000003 -1.643067 -0.395900 -1.529845
    11 17.848175 0.000000 0.000000 0.000000 0.000000 0.555072
    12 16.525248 0.000000 0.000000 -0.081175 -0.151761 -1.157962
    13 -3.890452 0.148446 0.000007 -1.399058 0.287741 -1.617162
    14 17.848171 0.000000 0.000000 0.000000 0.000000 0.520794
    15 16.525253 0.000000 0.000000 0.061023 -0.067376 -0.755966
    16 11.479830 -0.000111 0.000311 -0.751091 0.006939 0.171305
  time 12
    0 1.737106 -23.409780 37.277816 1.580635 0.003416 -0.020647
    1 0.000005 3.345128 -2.981901 1.569765 0.125291 1.577184
    2 7.536097 0.125004 -0.070315 0.115795 0.001498 0.173845
    3 10.803385 1.413236 -1.851670 -1.433542 1.271860 3.355901
    4 6.028143 0.000000 0.000000 0.976219 0.209880 -0.988857
    5 11.692554 0.000000 0.000008 0.000000 0.000000 -0.302475
    6 10.611966 1.421043 2.019694 1.197108 -1.275932 3.578005
    7 6.028142 0.000000 0.000000 -1.189941 0.048073 -1.148382
    8 11.692558 0.000000 0.000001 0.000000 0.000000 -0.229588
    9 15.090578 2.807199 0.300790 3.066387 0.008485 0.120355
    10 3.890452 -0.148446 -0.000003 -1.630422 -0.329795 -1.537500
    11 17.848175 0.000000 0.000000 0.000000 0.000000 0.531482
    12 16.525248 0.000000 0.000000 -0.084488 -0.149418 -1.182863
    13 -3.890452 0.148446 0.000007 -1.391992 0.173321 -1.633011
    14 17.848171 0.000000 0.000000 0.000000 0.000000 0.704299
    15 16.525253 0.000000 0.000000 0.059238 -0.065933 -0.807434
    16 11.479830 -0.000111 0.000311 -0.751091 0.006939 0.171305
  time 13
    0 1.780170 -25.332600 37.629389 1.580671 0.003416 -0.011764
    1 0.000005 3.345128 -2.981901 1.569598 0.125291 1.579209
    2 7.536097 0.128910 -0.062502 0.102528 -0.000791 0.176366
    3 10.799478 1.405423 -1.859483 -1.383061 1.265305 3.405892
    4 6.028143 0.000000 0.000000 0.967316 0.185163 -1.001131
    5 11.692554 0.000000 0.000008 0.000000 0.000000 -0.318524
    6 10.627591 1.417136 2.011881 1.256589 -1.282356 3.512729
    7 6.028142 0.000000 0.000000 -1.216852 0.021454 -1.143519
    8 11.692558 0.000000 0.000001 0.000000 0.000000 -0.223499
    9 15.102297 2.787667 0.269539 3.066810 0.013207 0.117139
    10 3.890452 -0.148446 -0.000003 -1.619989 -0.243439 -1.544292
    11 17.848175 0.000000 0.000000 0.000000 0.000000 0.468504
    12 16.525248 0.000000 0.000000 -0.085563 -0.148458 -1.201983
    13 -3.890452 0.148446 0.000007 -1.380777 0.005959 -1.650677
    14 17.848171 0.000000 0.000000 0.000000 0.000000 0.917901
    15 16.525253 0.000000 0.000000 0.055995 -0.052509 -0.867930
    16 11.479830 -0.000111 0.000311 -0.751091 0.006939 0.171305
  time 14
    0 1.823233 -27.255420 37.910647 1.580719 0.003416 0.002504
    1 0.000005 3.345128 -2.981901 1.569538 0.125291 1.580396
    2 7.536097 0.132817 -0.058596 0.088267 -0.000431 0.178146
    3 10.791666 1.401517 -1.867295 -1.328531 1.258030 3.461015
    4 6.028143 0.000000 0.000000 0.961661 0.155937 -1.012185
    5 11.692554 0.000000 0.000008 0.000000 0.000000 -0.336688
    6 10.639310 1.413230 2.004068 1.326799 -1.287294 3.437337
    7 6.028142 0.000000 0.000000 -1.241264 -0.010699 -1.137514
    8 11.692558 0.000000 0.000001 0.000000 0.000000 -0.211141
    9 15.110110 2.772041 0.242195 3.067022 0.017498 0.114752
    10 3.890452 -0.148446 -0.000003 -1.605021 -0.148737 -1.550177
    11 17.848175 0.000000 0.000000 0.000000 0.000000 0.384813
    12 16.525248 0.000000 0.000000 -0.086727 -0.147329 -1.208841
    13 -3.890452 0.148446 0.000007 -1.357845 -0.107008 -1.656215
    14 17.848171 0.000000 0.000000 0.000000 0.000000 1.010421
    15 16.525253 0.000000 0.000000 0.052849 -0.028767 -0.952095
    16 11.479830 -0.000111 0.000311 -0.751091 0.006939 0.171305
  time 15
    0 1.850671 -29.178239 38.090340 1.580779 0.003416 0.022694
    1 0.000005 3.345128 -2.981901 1.569502 0.125291 1.580551
    2 7.536097 0.136723 -0.054689 0.073633 0.001906 0.178759
    3 10.787759 1.397611 -1.875108 -1.272477 1.250049 3.518740
    4 6.028143 0.000000 0.000000 0.960117 0.124762 -1.024006
    5 11.692554 0.000000 0.000008 0.000000 0.000000 -0.351492
    6 10.647123 1.409324 1.996256 1.404504 -1.290134 3.355133
    7 6.028142 0.000000 0.000000 -1.260998 -0.046081 -1.129501
    8 11.692558 0.000000 0.000001 0.000000 0.000000 -0.194925
    9 15.114016 2.760322 0.218757 3.066998 0.021225 0.113193
    10 3.890452 -0.148446 -0.000003 -1.585027 -0.050810 -1.553008
    11 17.848175 0.000000 0.000000 0.000000 0.000000 0.290242
    12 16.525248 0.000000 0.000000 -0.089010 -0.145188 -1.202763
    13 -3.890452 0.148446 0.000007 -1.325590 -0.178791 -1.654057
    14 17.848171 0.000000 0.000000 0.000000 0.000000 1.007896
    15 16.525253 0.000000 0.000000 0.043043 0.000490 -1.053605
    16 11.479830 -0.000111 0.000311 -0.751091 0.006939 0.171305
  time 16
    0 1.862483 -31.101059 38.184093 1.580803 0.003416 0.029585
    1 0.000005 3.345128 -2.981901 1.569514 0.125291 1.579892
    2 7.536097 0.132817 -0.058596 0.059228 0.005908 0.178189
    3 10.783853 1.397611 -1.882921 -1.217105 1.241551 3.576629
    4 6.028143 0.000000 0.000000 0.944855 0.098004 -1.036071
    5 11.692554 0.000000 0.000008 0.000000 0.000000 -0.359579
    6 10.654936 1.409324 1.988443 1.485569 -1.290457 3.270329
    7 6.028142 0.000000 0.000000 -1.294397 -0.066768 -1.113876
    8 11.692558 0.000000 0.000001 0.000000 0.000000 -0.214456
    9 15.117922 2.756416 0.199225 3.066763 0.024281 0.112430
    10 3.890452 -0.148446 -0.000003 -1.579084 0.058689 -1.551946
    11 17.848175 0.000000 0.000000 0.000000 0.000000 0.172343
    12 16.525248 0.000000 0.000000 -0.093009 -0.141363 -1.176140
    13 -3.890452 0.148446 0.000007 -1.301747 -0.257692 -1.649012
    14 17.848171 0.000000 0.000000 0.000000 0.000000 0.958691
    15 16.525253 0.000000 0.000000 0.019039 0.030398 -1.137860
    16 11.479830 -0.000111 0.000311 -0.751091 0.006939 0.171305
  time 17
    0 1.850858 -33.023879 38.156749 1.580827 0.003416 0.036746
    1 0.000005 3.345128 -2.981901 1.569610 0.125291 1.578766
    2 7.536097 0.128910 -0.062502 0.045697 0.011517 0.176565
    3 10.779946 1.393704 -1.886827 -1.164418 1.232851 3.632526
    4 6.028143 0.000000 0.000000 0.930207 0.073750 -1.048101
    5 11.692554 0.000000 0.000008 0.000000 0.000000 -0.359393
    6 10.658842 1.413230 1.984536 1.565227 -1.288204 3.187681
    7 6.028142 0.000000 0.000000 -1.326991 -0.081001 -1.091042
    8 11.692558 0.000000 0.000001 0.000000 0.000000 -0.262201
    9 15.117922 2.756416 0.183599 3.066340 0.026546 0.112414
    10 3.890452 -0.148446 -0.000003 -1.573410 0.193193 -1.548584
    11 17.848175 0.000000 0.000000 0.000000 0.000000 0.000044
    12 16.525248 0.000000 0.000000 -0.099322 -0.135093 -1.106491
    13 -3.890452 0.148446 0.000007 -1.272182 -0.347391 -1.648027
    14 17.848171 0.000000 0.000000 0.000000 0.000000 0.907506
    15 16.525253 0.000000 0.000000 -0.019107 0.051081 -1.227490
    16 11.479830 -0.000111 0.000311 -0.751091 0.006939 0.171305
  time 18
    0 1.827513 -34.946699 38.020026 1.580851 0.003416 0.043853
    1 0.000005 3.345128 -2.981901 1.569765 0.125291 1.577112
    2 7.536097 0.125004 -0.070315 0.033617 0.018648 0.173945
    3 10.776040 1.397611 -1.890734 -1.115985 1.224437 3.685212
    4 6.028143 0.000000 0.000000 0.917149 0.053561 -1.060148
    5 11.692554 0.000000 0.000008 0.000000 0.000000 -0.350684
    6 10.658842 1.417136 1.980630 1.638838 -1.283650 3.112450
    7 6.028142 0.000000 0.000000 -1.356919 -0.103617 -1.067404
    8 11.692558 0.000000 0.000001 0.000000 0.000000 -0.300119
    9 15.114016 2.764229 0.175787 3.065847 0.027924 0.113664
    10 3.890452 -0.148446 -0.000003 -1.568160 0.243703 -1.542854
    11 17.848175 0.000000 0.000000 0.000000 0.000000 0.000044
    12 16.525248 0.000000 0.000000 -0.107977 -0.125672 -1.108024
    13 -3.890452 0.148446 0.000007 -1.243483 -0.400764 -1.638701
    14 17.848171 0.000000 0.000000 0.000000 0.000000 0.774295
    15 16.525253 0.000000 0.000000 -0.064774 0.055360 -1.273434
    16 11.479830 -0.000111 0.000311 -0.751091 0.006939 0.171305
  time 19
    0 1.788543 -36.869518 37.816895 1.580875 0.003416 0.050636
    1 0.000005 3.345128 -2.981901 1.569957 0.125291 1.574871
    2 7.536097 0.117191 -0.082034 0.023550 0.027301 0.170541
    3 10.772134 1.401517 -1.890734 -1.073103 1.216851 3.733679
    4 6.028143 0.000000 0.000000 0.906634 0.038512 -1.072108
    5 11.692554 0.000000 0.000008 0.000000 0.000000 -0.334510
    6 10.654936 1.421043 1.980630 1.702602 -1.277346 3.048908
    7 6.028142 0.000000 0.000000 -1.382656 -0.136001 -1.045288
    8 11.692558 0.000000 0.000001 0.000000 0.000000 -0.318626
    9 15.106203 2.783761 0.171880 3.065330 0.028308 0.116555
    10 3.890452 -0.148446 -0.000003 -1.563759 0.292717 -1.535420
    11 17.848175 0.000000 0.000000 0.000000 0.000000 0.000044
    12 16.525248 0.000000 0.000000 -0.117841 -0.112914 -1.101274
    13 -3.890452 0.148446 0.000007 -1.223902 -0.395288 -1.610877
    14 17.848171 0.000000 0.000000 0.000000 0.000000 0.536932
    15 16.525253 0.000000 0.000000 -0.107986 0.042728 -1.259089
    16 11.479830 -0.000111 0.000311 -0.751091 0.006939 0.171305
  time 20
    0 1.737853 -38.792338 37.574700 1.580899 0.003404 0.056774
    1 0.000005 3.345128 -2.981901 1.570173 0.125291 1.571994
    2 7.536097 0.109378 -0.101566 0.015999 0.037428 0.166809
    3 10.768227 1.405423 -1.890734 -1.034201 1.211794 3.778818
    4 6.028143 0.000000 0.000000 0.899139 0.028510 -1.084853
    5 11.692554 0.000000 0.000008 0.000000 0.000000 -0.313361
    6 10.647123 1.428856 1.984536 1.753286 -1.268741 3.000016
    7 6.028142 0.000000 0.000000 -1.403028 -0.172765 -1.024949
    8 11.692558 0.000000 0.000001 0.000000 0.000000 -0.320917
    9 15.094484 2.811105 0.183599 3.064649 0.026318 0.120728
    10 3.890452 -0.148446 -0.000003 -1.560922 0.274694 -1.526969
    11 17.848175 0.000000 0.000000 0.000000 0.000000 0.134786
    12 16.525248 0.000000 0.000000 -0.129451 -0.094746 -1.140347
    13 -3.890452 0.148446 0.000007 -1.204207 -0.403487 -1.589865
    14 17.848171 0.000000 0.000000 0.000000 0.000000 0.382089
    15 16.525253 0.000000 0.000000 -0.145173 0.019874 -1.276671
    16 11.479830 -0.000111 0.000311 -0.751091 0.006939 0.171305
  time 21
    0 1.679351 -40.715158 37.328598 1.580923 0.003404 0.061996
    1 0.000005 3.345128 -2.981901 1.570377 0.125291 1.568483
    2 7.536097 0.101566 -0.125004 0.011409 0.048909 0.163305
    3 10.772134 1.417142 -1.882921 -0.999873 1.209732 3.819551
    4 6.028143 0.000000 0.000000 0.895301 0.023221 -1.097476
    5 11.692554 0.000000 0.000008 0.000000 0.000000 -0.291091
    6 10.631498 1.440575 1.992349 1.788727 -1.258746 2.967711
    7 6.028142 0.000000 0.000000 -1.417078 -0.204772 -1.008330
    8 11.692558 0.000000 0.000001 0.000000 0.000000 -0.318867
    9 15.078859 2.842356 0.207038 3.063803 0.021932 0.125876
    10 3.890452 -0.148446 -0.000003 -1.560028 0.267811 -1.516771
    11 17.848175 0.000000 0.000000 0.000000 0.000000 0.239191
    12 16.525248 0.000000 0.000000 -0.141449 -0.069213 -1.131554
    13 -3.890452 0.148446 0.000007 -1.201585 -0.333931 -1.544902
    14 17.848171 0.000000 0.000000 0.000000 0.000000 0.125667
    15 16.525253 0.000000 0.000000 -0.166702 -0.002632 -1.220006
    16 11.479830 -0.000111 0.000311 -0.751091 0.006939 0.171305
  time 22
    0 1.613036 -42.637978 37.094216 1.580935 0.003404 0.065981
    1 0.000005 3.345128 -2.981901 1.570544 0.125291 1.564312
    2 7.536097 0.093753 -0.152348 0.010163 0.061409 0.160670
    3 10.772134 1.424955 -1.871202 -0.972892 1.210260 3.852808
    4 6.028143 0.000000 0.000000 0.895801 0.021867 -1.107414
    5 11.692554 0.000000 0.000008 0.000000 0.000000 -0.273238
    6 10.611966 1.448387 2.000162 1.808652 -1.249386 2.952153
    7 6.028142 0.000000 0.000000 -1.424086 -0.220429 -0.998583
    8 11.692558 0.000000 0.000001 0.000000 0.000000 -0.329357
    9 15.059327 2.877513 0.242195 3.062933 0.016395 0.131689
    10 3.890452 -0.148446 -0.000003 -1.561614 0.267977 -1.504514
    11 17.848175 0.000000 0.000000 0.000000 0.000000 0.315664
    12 16.525248 0.000000 0.000000 -0.151015 -0.034427 -1.069649
    13 -3.890452 0.148446 0.000007 -1.201312 -0.288509 -1.522955
    14 17.848171 0.000000 0.000000 0.000000 0.000000 0.000030
    15 16.525253 0.000000 0.000000 -0.164648 -0.002267 -1.109498
    16 11.479830 -0.000111 0.000311 -0.751091 0.006939 0.171305
  time 23
    0 1.546721 -44.560798 36.914523 1.580935 0.003404 0.068457
    1 0.000005 3.345128 -2.981901 1.570652 0.125279 1.559602
    2 7.532191 0.089847 -0.183599 0.011553 0.074257 0.159388
    3 10.776040 1.436674 -1.859483 -0.955671 1.213436 3.875870
    4 6.028143 0.000000 0.000000 0.900025 0.023351 -1.112348
    5 11.692554 0.000000 0.000008 0.000000 0.000000 -0.265960
    6 10.588528 1.460106 2.011881 1.812914 -1.242064 2.953402
    7 6.028142 0.000000 0.000000 -1.424187 -0.209949 -0.998224
    8 11.692558 0.000000 0.000001 0.000000 0.000000 -0.364442
    9 15.039795 2.912671 0.281259 3.062111 0.010391 0.137843
    10 3.890452 -0.148446 -0.000003 -1.567400 0.190367 -1.487989
    11 17.848175 0.000000 0.000000 0.000000 0.000000 0.542153
    12 16.525248 0.000000 0.000000 -0.152671 0.016774 -1.021808
    13 -3.890452 0.148446 0.000007 -1.188022 -0.381735 -1.568258
    14 17.848171 0.000000 0.000000 0.000000 0.000000 0.235612
    15 16.525253 0.000000 0.000000 -0.163574 0.030588 -1.087283
    16 11.479830 -0.000111 0.000311 -0.751091 0.006939 0.171305
  time 24
    0 1.480406 -46.483617 36.836396 1.580947 0.003404 0.069103
    1 0.000005 3.345128 -2.981901 1.570700 0.125279 1.554557
    2 7.532191 0.089847 -0.214850 0.014609 0.086373 0.159744
    3 10.776040 1.448393 -1.847764 -0.950188 1.219356 3.886393
    4 6.028143 0.000000 0.000000 0.906815 0.027471 -1.110604
    5 11.692554 0.000000 0.000008 0.000000 0.000000 -0.273052
    6 10.568996 1.467919 2.019694 1.801493 -1.237557 2.971258
    7 6.028142 0.000000 0.000000 -1.418352 -0.180143 -1.005032
    8 11.692558 0.000000 0.000001 0.000000 0.000000 -0.416527
    9 15.020263 2.951734 0.316416 3.061430 0.004422 0.143997
    10 3.890452 -0.148446 -0.000003 -1.576739 0.134138 -1.466772
    11 17.848175 0.000000 0.000000 0.000000 0.000000 0.694523
    12 16.525248 0.000000 0.000000 -0.136435 0.075306 -0.889259
    13 -3.890452 0.148446 0.000007 -1.184991 -0.423537 -1.598681
    14 17.848171 0.000000 0.000000 0.000000 0.000000 0.413226
    15 16.525253 0.000000 0.000000 -0.143350 0.054663 -1.059574
    16 11.479830 -0.000111 0.000311 -0.751091 0.006939 0.171305
  time 25
    0 1.417998 -48.406437 36.859834 1.580935 0.003404 0.066896
    1 0.000005 3.345128 -2.981901 1.570712 0.125267 1.549547
    2 7.528284 0.089847 -0.238289 0.019223 0.096536 0.161525
    3 10.779946 1.460112 -1.839951 -0.956672 1.227541 3.883932
    4 6.028143 0.000000 0.000000 0.914537 0.034429 -1.102707
    5 11.692554 0.000000 0.000008 0.000000 0.000000 -0.292335
    6 10.549464 1.479638 2.031413 1.776403 -1.235868 3.003241
    7 6.028142 0.000000 0.000000 -1.408493 -0.143400 -1.014568
    8 11.692558 0.000000 0.000001 0.000000 0.000000 -0.471626
    9 15.000731 2.986892 0.351573 3.060936 -0.001091 0.149681
    10 3.890452 -0.148446 -0.000003 -1.588020 0.135534 -1.447680
    11 17.848175 0.000000 0.000000 0.000000 0.000000 0.723605
    12 16.525248 0.000000 0.000000 -0.108529 0.119276 -0.732937
    13 -3.890452 0.148446 0.000007 -1.195522 -0.411346 -1.606138
    14 17.848171 0.000000 0.000000 0.000000 0.000000 0.502775
    15 16.525253 0.000000 0.000000 -0.124660 0.058245 -1.111784
    16 11.479830 -0.000111 0.000311 -0.751091 0.006939 0.171305
  time 26
    0 1.359496 -50.329257 36.957493 1.580911 0.003404 0.061566
    1 0.000005 3.345128 -2.981901 1.570676 0.125255 1.544981
    2 7.528284 0.093753 -0.257820 0.025276 0.103954 0.164316
    3 10.779946 1.467925 -1.828232 -0.975144 1.237225 3.868065
    4 6.028143 0.000000 0.000000 0.922417 0.044635 -1.090450
    5 11.692554 0.000000 0.000008 0.000000 0.000000 -0.317653
    6 10.533839 1.483545 2.039226 1.739618 -1.236671 3.046691
    7 6.028142 0.000000 0.000000 -1.395248 -0.102841 -1.026090
    8 11.692558 0.000000 0.000001 0.000000 0.000000 -0.522565
    9 14.985106 3.014236 0.382824 3.060678 -0.005789 0.154406
    10 3.890452 -0.148446 -0.000003 -1.597403 0.112058 -1.438920
    11 17.848175 0.000000 0.000000 0.000000 0.000000 0.756350
    12 16.525248 0.000000 0.000000 -0.088264 0.139248 -0.628651
    13 -3.890452 0.148446 0.000007 -1.213006 -0.374371 -1.602112
    14 17.848171 0.000000 0.000000 0.000000 0.000000 0.544704
    15 16.525253 0.000000 0.000000 -0.108888 0.055154 -1.188882
    16 11.479830 -0.000111 0.000311 -0.751091 0.006939 0.171305
  time 27
    0 1.308806 -52.252077 37.152812 1.580887 0.003416 0.053974
    1 0.000005 3.345128 -2.981901 1.570640 0.125243 1.541218
    2 7.528284 0.101566 -0.273446 0.032682 0.108377 0.167792
    3 10.779946 1.475738 -1.820419 -1.005810 1.247448 3.838558
    4 6.028143 0.000000 0.000000 0.930707 0.058942 -1.075334
    5 11.692554 0.000000 0.000008 0.000000 0.000000 -0.342784
    6 10.518213 1.487451 2.043132 1.692692 -1.239631 3.099733
    7 6.028142 0.000000 0.000000 -1.378397 -0.061235 -1.039241
    8 11.692558 0.000000 0.000001 0.000000 0.000000 -0.564462
    9 14.973387 3.033768 0.402356 3.060654 -0.009264 0.157897
    10 3.890452 -0.148446 -0.000003 -1.599950 -0.001364 -1.447083
    11 17.848175 0.000000 0.000000 0.000000 0.000000 0.874772
    12 16.525248 0.000000 0.000000 -0.096412 0.129169 -0.636853
    13 -3.890452 0.148446 0.000007 -1.234342 -0.316233 -1.590494
    14 17.848171 0.000000 0.000000 0.000000 0.000000 0.540892
    15 16.525253 0.000000 0.000000 -0.093518 0.052048 -1.243557
    16 11.479830 -0.000111 0.000311 -0.751091 0.006939 0.171305
  time 28
    0 1.269836 -54.174896 37.437977 1.580863 0.003416 0.044876
    1 0.000005 3.345128 -2.981901 1.570580 0.125231 1.538486
    2 7.524378 0.109378 -0.277352 0.041323 0.109851 0.171538
    3 10.783853 1.483551 -1.816513 -1.047305 1.257731 3.796818
    4 6.028143 0.000000 0.000000 0.939541 0.077647 -1.058963
    5 11.692554 0.000000 0.000008 0.000000 0.000000 -0.363125
    6 10.510400 1.491357 2.047038 1.636823 -1.243694 3.160938
    7 6.028142 0.000000 0.000000 -1.357909 -0.020823 -1.053090
    8 11.692558 0.000000 0.000001 0.000000 0.000000 -0.594122
    9 14.965574 3.049394 0.417982 3.060795 -0.011769 0.160220
    10 3.890452 -0.148446 -0.000003 -1.596197 -0.106740 -1.474316
    11 17.848175 0.000000 0.000000 0.000000 0.000000 0.947113
    12 16.525248 0.000000 0.000000 -0.134003 0.077362 -0.803474
    13 -3.890452 0.148446 0.000007 -1.256840 -0.237487 -1.573881
    14 17.848171 0.000000 0.000000 0.000000 0.000000 0.491291
    15 16.525253 0.000000 0.000000 -0.078456 0.049116 -1.272988
    16 11.479830 -0.000111 0.000311 -0.751091 0.006939 0.171305
  time 29
    0 1.246491 -56.097716 37.734861 1.580827 0.003416 0.035131
    1 0.000005 3.345128 -2.981901 1.570508 0.125219 1.536832
    2 7.524378 0.117191 -0.281259 0.051090 0.109144 0.174984
    3 10.783853 1.483551 -1.812606 -1.097672 1.267726 3.744905
    4 6.028143 0.000000 0.000000 0.948966 0.100286 -1.042121
    5 11.692554 0.000000 0.000008 0.000000 0.000000 -0.375752
    6 10.506494 1.491357 2.050945 1.573709 -1.247672 3.228632
    7 6.028142 0.000000 0.000000 -1.333765 0.016654 -1.067087
    8 11.692558 0.000000 0.000001 0.000000 0.000000 -0.609313
    9 14.961668 3.057206 0.433607 3.060960 -0.013782 0.161421
    10 3.890452 -0.148446 -0.000003 -1.595974 -0.214410 -1.495687
    11 17.848175 0.000000 0.000000 0.000000 0.000000 0.991835
    12 16.525248 0.000000 0.000000 -0.152552 0.021678 -0.947480
    13 -3.890452 0.148446 0.000007 -1.277789 -0.142900 -1.555467
    14 17.848171 0.000000 0.000000 0.000000 0.000000 0.405058
    15 16.525253 0.000000 0.000000 -0.063642 0.046627 -1.276938
    16 11.479830 -0.000111 0.000311 -0.751091 0.006939 0.171305
  time 30
    0 1.234865 -58.020536 37.961430 1.580791 0.003416 0.025493
    1 0.000005 3.345128 -2.981901 1.570377 0.125219 1.536196
    2 7.524378 0.121098 -0.281259 0.061829 0.106807 0.177548
    3 10.787759 1.487457 -1.808700 -1.155523 1.276762 3.684391
    4 6.028143 0.000000 0.000000 0.958981 0.125746 -1.025052
    5 11.692554 0.000000 0.000008 0.000000 0.000000 -0.379112
    6 10.502588 1.491357 2.054851 1.505368 -1.251052 3.300538
    7 6.028142 0.000000 0.000000 -1.306117 0.049792 -1.081020
    8 11.692558 0.000000 0.000001 0.000000 0.000000 -0.608831
    9 14.961668 3.057206 0.441420 3.061171 -0.015256 0.161535
    10 3.890452 -0.148446 -0.000003 -1.600844 -0.325605 -1.504802
    11 17.848175 0.000000 0.000000 0.000000 0.000000 1.011973
    12 16.525248 0.000000 0.000000 -0.155253 -0.013074 -0.983730
    13 -3.890452 0.148446 0.000007 -1.295159 -0.049147 -1.540621
    14 17.848171 0.000000 0.000000 0.000000 0.000000 0.317686
    15 16.525253 0.000000 0.000000 -0.049040 0.044789 -1.266603
    16 11.479830 -0.000111 0.000311 -0.751091 0.006939 0.171305
end
