// Created by Crowbar 0.74
version 1
nodes
  0 "ValveBiped.Bip01" -1
  1 "ValveBiped.Bip01_Spine" 0
  2 "ValveBiped.Bip01_Spine2" 1
  3 "ValveBiped.Bip01_R_Clavicle" 2
  4 "ValveBiped.Bip01_R_UpperArm" 3
  5 "ValveBiped.Bip01_R_Forearm" 4
  6 "ValveBiped.Bip01_L_Clavicle" 2
  7 "ValveBiped.Bip01_L_UpperArm" 6
  8 "ValveBiped.Bip01_L_Forearm" 7
  9 "ValveBiped.Bip01_Head1" 2
  10 "ValveBiped.Bip01_L_Thigh" 0
  11 "ValveBiped.Bip01_L_Calf" 10
  12 "ValveBiped.Bip01_L_Foot" 11
  13 "ValveBiped.Bip01_R_Thigh" 0
  14 "ValveBiped.Bip01_R_Calf" 13
  15 "ValveBiped.Bip01_R_Foot" 14
  16 "ValveBiped.Bip01_R_Hand" 5
end
skeleton
  time 0
    0 1.610982 -0.335943 37.086403 1.580528 0.003416 -0.051067
    1 0.000005 3.345128 -2.981901 1.569717 0.125279 1.557685
    2 7.532191 0.109378 -0.203131 0.128822 0.059324 0.170156
    3 10.811197 1.456206 -1.812606 -1.194174 1.279051 3.626596
    4 6.028143 0.000000 0.000000 0.962910 -0.069728 -0.993373
    5 11.692554 0.000000 0.000008 0.000000 0.000000 -0.513537
    6 10.533839 1.460106 2.054851 1.463691 -1.254516 3.324178
    7 6.028142 0.000000 0.000000 -1.324895 -0.110387 -1.015561
    8 11.692558 0.000000 0.000001 0.000000 0.000000 -0.380899
    9 15.016357 2.947828 0.433607 3.062745 -0.013447 0.143445
    10 3.890452 -0.148446 -0.000003 -1.623117 0.105707 -1.642496
    11 17.848175 0.000000 0.000000 0.000000 0.000000 0.557112
    12 16.525248 0.000000 0.000000 -0.108977 -0.150514 -1.126552
    13 -3.890452 0.148446 0.000007 -1.342504 -0.279443 -1.536476
    14 17.848171 0.000000 0.000000 0.000000 0.000000 0.665341
    15 16.525253 0.000000 0.000000 -0.076402 0.036072 -1.238983
    16 11.479830 -0.000111 0.000311 -0.751091 0.006939 0.171305
  time 1
    0 0.639609 0.741954 36.793426 1.580516 0.003404 -0.056451
    1 0.000005 3.345128 -2.981901 1.569957 0.125291 1.563090
    2 7.532191 0.105472 -0.164068 0.146967 0.042545 0.166837
    3 10.815104 1.440581 -1.816513 -1.199361 1.276786 3.614503
    4 6.028143 0.000000 0.000000 0.972358 -0.085167 -1.004758
    5 11.692554 0.000000 0.000008 0.000000 0.000000 -0.514408
    6 10.549464 1.448387 2.050945 1.461046 -1.257092 3.319421
    7 6.028142 0.000000 0.000000 -1.310191 -0.121517 -1.008965
    8 11.692558 0.000000 0.000001 0.000000 0.000000 -0.360222
    9 15.035889 2.904858 0.417982 3.063403 -0.010822 0.136317
    10 3.890452 -0.148446 -0.000003 -1.610629 0.084692 -1.680636
    11 17.848175 0.000000 0.000000 0.000000 0.000000 0.597807
    12 16.525248 0.000000 0.000000 -0.194202 -0.213057 -1.165572
    13 -3.890452 0.148446 0.000007 -1.327505 -0.355497 -1.519829
    14 17.848171 0.000000 0.000000 0.000000 0.000000 0.753653
    15 16.525253 0.000000 0.000000 -0.094842 0.011458 -1.232390
    16 11.479830 -0.000111 0.000311 -0.751091 0.006939 0.171305
  time 2
    0 -0.331764 1.819851 36.656703 1.580528 0.003416 -0.052574
    1 0.000005 3.345128 -2.981901 1.569957 0.125291 1.563090
    2 7.532191 0.105472 -0.164068 0.146967 0.042545 0.166837
    3 10.815104 1.440581 -1.816513 -1.199361 1.276786 3.614503
    4 6.028143 0.000000 0.000000 0.976105 -0.086188 -1.005717
    5 11.692554 0.000000 0.000008 0.000000 0.000000 -0.514408
    6 10.549464 1.448387 2.050945 1.461046 -1.257092 3.319421
    7 6.028142 0.000000 0.000000 -1.306284 -0.108291 -1.007273
    8 11.692558 0.000000 0.000001 0.000000 0.000000 -0.377463
    9 15.035889 2.904858 0.417982 3.063403 -0.010822 0.136317
    10 3.890452 -0.148446 -0.000003 -1.623117 0.008911 -1.640151
    11 17.848175 0.000000 0.000000 0.000000 0.000000 0.702787
    12 16.525248 0.000000 0.000000 -0.195739 -0.173957 -1.198218
    13 -3.890452 0.148446 0.000007 -1.307172 -0.393215 -1.503454
    14 17.848171 0.000000 0.000000 0.000000 0.000000 0.764939
    15 16.525253 0.000000 0.000000 -0.118827 0.018337 -1.178369
    16 11.479830 -0.000111 0.000311 -0.751091 0.006939 0.171305
  time 3
    0 -1.303136 2.897748 36.621546 1.580563 0.003416 -0.043045
    1 0.000005 3.345128 -2.981901 1.570257 0.125291 1.567225
    2 7.536097 0.109378 -0.132817 0.142281 0.029446 0.167706
    3 10.811197 1.436674 -1.824325 -1.207005 1.272711 3.603370
    4 6.028143 0.000000 0.000000 0.979761 -0.086948 -1.009570
    5 11.692554 0.000000 0.000008 0.000000 0.000000 -0.513413
    6 10.565089 1.440575 2.043132 1.457980 -1.261646 3.318575
    7 6.028142 0.000000 0.000000 -1.300316 -0.070688 -0.998520
    8 11.692558 0.000000 0.000001 0.000000 0.000000 -0.420445
    9 15.051514 2.881420 0.390637 3.064179 -0.006244 0.132468
    10 3.890452 -0.148446 -0.000003 -1.629573 -0.047053 -1.600484
    11 17.848175 0.000000 0.000000 0.000000 0.000000 0.763149
    12 16.525248 0.000000 0.000000 -0.195888 -0.139290 -1.216854
    13 -3.890452 0.148446 0.000007 -1.289574 -0.414471 -1.502639
    14 17.848171 0.000000 0.000000 0.000000 0.000000 0.755682
    15 16.525253 0.000000 0.000000 -0.112879 0.001188 -1.122862
    16 11.479830 -0.000111 0.000311 -0.751091 0.006939 0.171305
  time 4
    0 -2.274509 3.975645 36.754362 1.580599 0.003416 -0.031307
    1 0.000005 3.345128 -2.981901 1.570520 0.125291 1.571000
    2 7.536097 0.113285 -0.109378 0.134970 0.017881 0.169401
    3 10.811197 1.428861 -1.832138 -1.214398 1.268301 3.592261
    4 6.028143 0.000000 0.000000 0.982350 -0.082662 -1.009256
    5 11.692554 0.000000 0.000008 0.000000 0.000000 -0.510427
    6 10.580715 1.436668 2.035319 1.455125 -1.266488 3.317346
    7 6.028142 0.000000 0.000000 -1.293676 -0.018245 -0.989978
    8 11.692558 0.000000 0.000001 0.000000 0.000000 -0.474640
    9 15.063233 2.854075 0.359386 3.064836 -0.001366 0.128441
    10 3.890452 -0.148446 -0.000003 -1.633058 -0.084428 -1.563185
    11 17.848175 0.000000 0.000000 0.000000 0.000000 0.780201
    12 16.525248 0.000000 0.000000 -0.196023 -0.108701 -1.220243
    13 -3.890452 0.148446 0.000007 -1.273960 -0.448197 -1.522853
    14 17.848171 0.000000 0.000000 0.000000 0.000000 0.789393
    15 16.525253 0.000000 0.000000 -0.084346 -0.034948 -1.116833
    16 11.479830 -0.000111 0.000311 -0.751091 0.006939 0.171305
  time 5
    0 -3.245882 5.053542 37.035621 1.580635 0.003416 -0.021616
    1 0.000005 3.345128 -2.981901 1.570736 0.125291 1.574319
    2 7.536097 0.117191 -0.089846 0.125479 0.008833 0.171666
    3 10.807291 1.421049 -1.843857 -1.221337 1.263723 3.581621
    4 6.028143 0.000000 0.000000 0.980375 -0.072975 -1.003816
    5 11.692554 0.000000 0.000008 0.000000 0.000000 -0.505015
    6 10.596340 1.428856 2.027506 1.452521 -1.271462 3.315875
    7 6.028142 0.000000 0.000000 -1.289434 0.043546 -0.983973
    8 11.692558 0.000000 0.000001 0.000000 0.000000 -0.528714
    9 15.078859 2.830637 0.328135 3.065377 0.003631 0.124430
    10 3.890452 -0.148446 -0.000003 -1.637638 -0.104712 -1.528717
    11 17.848175 0.000000 0.000000 0.000000 0.000000 0.758913
    12 16.525248 0.000000 0.000000 -0.197112 -0.082005 -1.210239
    13 -3.890452 0.148446 0.000007 -1.268990 -0.466236 -1.552206
    14 17.848171 0.000000 0.000000 0.000000 0.000000 0.806224
    15 16.525253 0.000000 0.000000 -0.036683 -0.080007 -1.113299
    16 11.479830 -0.000111 0.000311 -0.751091 0.006939 0.171305
  time 6
    0 -4.217254 6.131439 37.367662 1.580671 0.003416 -0.011764
    1 0.000005 3.345128 -2.981901 1.570892 0.125291 1.577064
    2 7.536097 0.125004 -0.074221 0.114237 0.002996 0.174130
    3 10.803385 1.413236 -1.851670 -1.227684 1.259145 3.571848
    4 6.028143 0.000000 0.000000 0.976559 -0.059058 -0.994297
    5 11.692554 0.000000 0.000008 0.000000 0.000000 -0.496742
    6 10.611966 1.424949 2.019694 1.450275 -1.276388 3.314343
    7 6.028142 0.000000 0.000000 -1.284807 0.108984 -0.981605
    8 11.692558 0.000000 0.000001 0.000000 0.000000 -0.575253
    9 15.090578 2.807199 0.300790 3.065800 0.008581 0.120679
    10 3.890452 -0.148446 -0.000003 -1.640944 -0.114089 -1.497258
    11 17.848175 0.000000 0.000000 0.000000 0.000000 0.714190
    12 16.525248 0.000000 0.000000 -0.199813 -0.058679 -1.193889
    13 -3.890452 0.148446 0.000007 -1.272706 -0.464658 -1.587198
    14 17.848171 0.000000 0.000000 0.000000 0.000000 0.803699
    15 16.525253 0.000000 0.000000 0.021092 -0.125066 -1.090669
    16 11.479830 -0.000111 0.000311 -0.751091 0.006939 0.171305
  time 7
    0 -5.188627 7.209336 37.672359 1.580719 0.003416 0.002504
    1 0.000005 3.345128 -2.981901 1.571000 0.125291 1.579089
    2 7.536097 0.128910 -0.066408 0.101605 0.000132 0.176409
    3 10.799478 1.405423 -1.863389 -1.233257 1.254734 3.563247
    4 6.028143 0.000000 0.000000 0.975265 -0.042691 -0.982877
    5 11.692554 0.000000 0.000008 0.000000 0.000000 -0.484985
    6 10.627591 1.417136 2.007975 1.448385 -1.281097 3.312932
    7 6.028142 0.000000 0.000000 -1.275585 0.172914 -0.981753
    8 11.692558 0.000000 0.000001 0.000000 0.000000 -0.609614
    9 15.098390 2.787667 0.269539 3.066105 0.013303 0.117415
    10 3.890452 -0.148446 -0.000003 -1.638934 -0.117879 -1.468764
    11 17.848175 0.000000 0.000000 0.000000 0.000000 0.656339
    12 16.525248 0.000000 0.000000 -0.204663 -0.037966 -1.174930
    13 -3.890452 0.148446 0.000007 -1.280547 -0.437615 -1.625809
    14 17.848171 0.000000 0.000000 0.000000 0.000000 0.786720
    15 16.525253 0.000000 0.000000 0.079059 -0.165672 -1.055209
    16 11.479830 -0.000111 0.000311 -0.751091 0.006939 0.171305
  time 8
    0 -6.160000 8.287232 37.883303 1.580779 0.003416 0.022694
    1 0.000005 3.345128 -2.981901 1.571036 0.125291 1.580300
    2 7.536097 0.132817 -0.058596 0.087955 -0.000048 0.178089
    3 10.791666 1.401517 -1.871202 -1.237921 1.250684 3.556239
    4 6.028143 0.000000 0.000000 0.978331 -0.025100 -0.971056
    5 11.692554 0.000000 0.000008 0.000000 0.000000 -0.469434
    6 10.639310 1.413230 2.000162 1.446958 -1.285388 3.311743
    7 6.028142 0.000000 0.000000 -1.260109 0.231624 -0.982811
    8 11.692558 0.000000 0.000001 0.000000 0.000000 -0.629086
    9 15.106203 2.772041 0.242195 3.066293 0.017617 0.114817
    10 3.890452 -0.148446 -0.000003 -1.630311 -0.122335 -1.442592
    11 17.848175 0.000000 0.000000 0.000000 0.000000 0.597389
    12 16.525248 0.000000 0.000000 -0.212154 -0.018737 -1.158015
    13 -3.890452 0.148446 0.000007 -1.286223 -0.416359 -1.679231
    14 17.848171 0.000000 0.000000 0.000000 0.000000 0.824292
    15 16.525253 0.000000 0.000000 0.134532 -0.201253 -1.047131
    16 11.479830 -0.000111 0.000311 -0.751091 0.006939 0.171305
  time 9
    0 -7.131372 9.365129 37.949711 1.580815 0.003416 0.031362
    1 0.000005 3.345128 -2.981901 1.571012 0.125291 1.580563
    2 7.536097 0.136723 -0.058596 0.073645 0.002049 0.178759
    3 10.787759 1.397611 -1.879014 -1.241538 1.247136 3.551130
    4 6.028143 0.000000 0.000000 0.969496 -0.001960 -0.956934
    5 11.692554 0.000000 0.000008 0.000000 0.000000 -0.449901
    6 10.647123 1.413230 1.996256 1.446055 -1.289103 3.310977
    7 6.028142 0.000000 0.000000 -1.255633 0.288070 -0.990401
    8 11.692558 0.000000 0.000001 0.000000 0.000000 -0.632402
    9 15.114016 2.760322 0.218757 3.066364 0.021333 0.113145
    10 3.890452 -0.148446 -0.000003 -1.632969 -0.127456 -1.415889
    11 17.848175 0.000000 0.000000 0.000000 0.000000 0.546076
    12 16.525248 0.000000 0.000000 -0.222869 0.000122 -1.147877
    13 -3.890452 0.148446 0.000007 -1.310044 -0.380405 -1.728968
    14 17.848171 0.000000 0.000000 0.000000 0.000000 0.866518
    15 16.525253 0.000000 0.000000 0.187722 -0.234029 -1.041607
    16 11.479830 -0.000111 0.000311 -0.751091 0.006939 0.171305
  time 10
    0 -8.102745 10.443026 37.898928 1.580827 0.003416 0.036746
    1 0.000005 3.345128 -2.981901 1.570928 0.125291 1.580000
    2 7.536097 0.132817 -0.058596 0.059623 0.006220 0.178018
    3 10.783853 1.393704 -1.882921 -1.244268 1.244128 3.548060
    4 6.028143 0.000000 0.000000 0.957687 0.023462 -0.943213
    5 11.692554 0.000000 0.000008 0.000000 0.000000 -0.426512
    6 10.654936 1.413230 1.988443 1.445614 -1.292231 3.310957
    7 6.028142 0.000000 0.000000 -1.254023 0.337306 -1.002495
    8 11.692558 0.000000 0.000001 0.000000 0.000000 -0.619380
    9 15.114016 2.760322 0.199225 3.066317 0.024473 0.112658
    10 3.890452 -0.148446 -0.000003 -1.638621 -0.136102 -1.389209
    11 17.848175 0.000000 0.000000 0.000000 0.000000 0.503864
    12 16.525248 0.000000 0.000000 -0.236240 0.018223 -1.142176
    13 -3.890452 0.148446 0.000007 -1.339860 -0.317965 -1.772267
    14 17.848171 0.000000 0.000000 0.000000 0.000000 0.878299
    15 16.525253 0.000000 0.000000 0.232890 -0.267392 -1.016898
    16 11.479830 -0.000111 0.000311 -0.751091 0.006939 0.171305
  time 11
    0 -9.074118 11.520923 37.762205 1.580851 0.003416 0.043853
    1 0.000005 3.345128 -2.981901 1.570844 0.125291 1.578826
    2 7.536097 0.128910 -0.066408 0.046800 0.012236 0.175981
    3 10.779946 1.397611 -1.886827 -1.246020 1.241755 3.547145
    4 6.028143 0.000000 0.000000 0.948603 0.048662 -0.931201
    5 11.692554 0.000000 0.000008 0.000000 0.000000 -0.399826
    6 10.658842 1.413230 1.984536 1.445656 -1.294676 3.311703
    7 6.028142 0.000000 0.000000 -1.250267 0.375894 -1.016703
    8 11.692558 0.000000 0.000001 0.000000 0.000000 -0.591288
    9 15.114016 2.764229 0.179693 3.066176 0.026905 0.113421
    10 3.890452 -0.148446 -0.000003 -1.642397 -0.149402 -1.362949
    11 17.848175 0.000000 0.000000 0.000000 0.000000 0.469394
    12 16.525248 0.000000 0.000000 -0.251118 0.034925 -1.137658
    13 -3.890452 0.148446 0.000007 -1.365481 -0.238261 -1.810843
    14 17.848171 0.000000 0.000000 0.000000 0.000000 0.857954
    15 16.525253 0.000000 0.000000 0.263802 -0.302212 -0.966855
    16 11.479830 -0.000111 0.000311 -0.751091 0.006939 0.171305
  time 12
    0 -10.045490 12.598820 37.559074 1.580875 0.003416 0.050636
    1 0.000005 3.345128 -2.981901 1.570772 0.125291 1.577064
    2 7.536097 0.121098 -0.074221 0.035450 0.019858 0.173047
    3 10.772134 1.397611 -1.890734 -1.246475 1.240353 3.548622
    4 6.028143 0.000000 0.000000 0.940745 0.073361 -0.921263
    5 11.692554 0.000000 0.000008 0.000000 0.000000 -0.371149
    6 10.658842 1.417136 1.980630 1.446370 -1.296078 3.312952
    7 6.028142 0.000000 0.000000 -1.246813 0.403478 -1.032920
    8 11.692558 0.000000 0.000001 0.000000 0.000000 -0.550718
    9 15.110110 2.775948 0.171880 3.065894 0.028296 0.115304
    10 3.890452 -0.148446 -0.000003 -1.646396 -0.165563 -1.336799
    11 17.848175 0.000000 0.000000 0.000000 0.000000 0.439369
    12 16.525248 0.000000 0.000000 -0.266967 0.050716 -1.130882
    13 -3.890452 0.148446 0.000007 -1.387342 -0.176595 -1.851900
    14 17.848171 0.000000 0.000000 0.000000 0.000000 0.859687
    15 16.525253 0.000000 0.000000 0.284007 -0.337033 -0.922337
    16 11.479830 -0.000111 0.000311 -0.751091 0.006939 0.171305
  time 13
    0 -11.016863 13.676717 37.324692 1.580899 0.003404 0.056774
    1 0.000005 3.345128 -2.981901 1.570688 0.125291 1.574703
    2 7.536097 0.113285 -0.089846 0.025899 0.028871 0.169629
    3 10.768227 1.405423 -1.890734 -1.245224 1.240233 3.552723
    4 6.028143 0.000000 0.000000 0.934363 0.096408 -0.913801
    5 11.692554 0.000000 0.000008 0.000000 0.000000 -0.342473
    6 10.654936 1.424949 1.980630 1.447944 -1.296102 3.314383
    7 6.028142 0.000000 0.000000 -1.244181 0.420204 -1.049940
    8 11.692558 0.000000 0.000001 0.000000 0.000000 -0.502069
    9 15.102297 2.795480 0.171880 3.065494 0.028284 0.118211
    10 3.890452 -0.148446 -0.000003 -1.650953 -0.182588 -1.310761
    11 17.848175 0.000000 0.000000 0.000000 0.000000 0.409502
    12 16.525248 0.000000 0.000000 -0.283113 0.066154 -1.117758
    13 -3.890452 0.148446 0.000007 -1.404187 -0.126841 -1.887079
    14 17.848171 0.000000 0.000000 0.000000 0.000000 0.857063
    15 16.525253 0.000000 0.000000 0.293199 -0.363596 -0.875087
    16 11.479830 -0.000111 0.000311 -0.751091 0.006939 0.171305
  time 14
    0 -11.988236 14.754614 37.086403 1.580923 0.003404 0.061996
    1 0.000005 3.345128 -2.981901 1.570628 0.125291 1.571767
    2 7.536097 0.105472 -0.109378 0.018432 0.039034 0.166139
    3 10.768227 1.409330 -1.886827 -1.241333 1.242079 3.560247
    4 6.028143 0.000000 0.000000 0.929707 0.116245 -0.909285
    5 11.692554 0.000000 0.000008 0.000000 0.000000 -0.316658
    6 10.643217 1.432762 1.984536 1.450842 -1.294005 3.315431
    7 6.028142 0.000000 0.000000 -1.242488 0.427624 -1.065480
    8 11.692558 0.000000 0.000001 0.000000 0.000000 -0.452516
    9 15.090578 2.818918 0.183599 3.064813 0.026150 0.122043
    10 3.890452 -0.148446 -0.000003 -1.656248 -0.197817 -1.284965
    11 17.848175 0.000000 0.000000 0.000000 0.000000 0.374143
    12 16.525248 0.000000 0.000000 -0.298708 0.081879 -1.093556
    13 -3.890452 0.148446 0.000007 -1.415106 -0.087731 -1.912050
    14 17.848171 0.000000 0.000000 0.000000 0.000000 0.846865
    15 16.525253 0.000000 0.000000 0.296422 -0.374136 -0.837340
    16 11.479830 -0.000111 0.000311 -0.751091 0.006939 0.171305
  time 15
    0 -12.959608 15.832511 36.867647 1.580935 0.003404 0.065981
    1 0.000005 3.345128 -2.981901 1.570592 0.125291 1.568267
    2 7.536097 0.097659 -0.128910 0.013339 0.050132 0.162977
    3 10.768227 1.417142 -1.882921 -1.234782 1.245854 3.571098
    4 6.028143 0.000000 0.000000 0.927255 0.130997 -0.907088
    5 11.692554 0.000000 0.000008 0.000000 0.000000 -0.297934
    6 10.627591 1.440575 1.992349 1.454852 -1.289834 3.316237
    7 6.028142 0.000000 0.000000 -1.241431 0.429154 -1.077320
    8 11.692558 0.000000 0.000001 0.000000 0.000000 -0.412789
    9 15.074952 2.846262 0.210944 3.063920 0.021920 0.126655
    10 3.890452 -0.148446 -0.000003 -1.661833 -0.191433 -1.262267
    11 17.848175 0.000000 0.000000 0.000000 0.000000 0.295892
    12 16.525248 0.000000 0.000000 -0.313213 0.092631 -1.053944
    13 -3.890452 0.148446 0.000007 -1.419848 -0.055800 -1.924059
    14 17.848171 0.000000 0.000000 0.000000 0.000000 0.830332
    15 16.525253 0.000000 0.000000 0.302044 -0.362597 -0.831074
    16 11.479830 -0.000111 0.000311 -0.751091 0.006939 0.171305
  time 16
    0 -13.930981 16.910408 36.703579 1.580935 0.003404 0.068457
    1 0.000005 3.345128 -2.981901 1.570592 0.125291 1.564204
    2 7.532191 0.093753 -0.156255 0.010942 0.061948 0.160584
    3 10.772134 1.424955 -1.871202 -1.226660 1.250828 3.584129
    4 6.028143 0.000000 0.000000 0.927641 0.138624 -0.905641
    5 11.692554 0.000000 0.000008 0.000000 0.000000 -0.290842
    6 10.611966 1.448387 2.000162 1.459177 -1.284369 3.317426
    7 6.028142 0.000000 0.000000 -1.240358 0.429595 -1.083346
    8 11.692558 0.000000 0.000001 0.000000 0.000000 -0.396573
    9 15.059327 2.877513 0.242195 3.062957 0.016407 0.131965
    10 3.890452 -0.148446 -0.000003 -1.668624 -0.175339 -1.240564
    11 17.848175 0.000000 0.000000 0.000000 0.000000 0.202419
    12 16.525248 0.000000 0.000000 -0.326599 0.096019 -1.021620
    13 -3.890452 0.148446 0.000007 -1.418070 -0.018670 -1.919201
    14 17.848171 0.000000 0.000000 0.000000 0.000000 0.792759
    15 16.525253 0.000000 0.000000 0.316474 -0.323133 -0.875028
    16 11.479830 -0.000111 0.000311 -0.751091 0.006939 0.171305
  time 17
    0 -14.902354 17.988305 36.625452 1.580947 0.003404 0.068780
    1 0.000005 3.345128 -2.981901 1.570652 0.125279 1.559602
    2 7.532191 0.089847 -0.183599 0.011553 0.074257 0.159388
    3 10.776040 1.436674 -1.859483 -1.218084 1.256280 3.598167
    4 6.028143 0.000000 0.000000 0.931047 0.138605 -0.903933
    5 11.692554 0.000000 0.000008 0.000000 0.000000 -0.297063
    6 10.588528 1.460106 2.011881 1.463061 -1.278413 3.319603
    7 6.028142 0.000000 0.000000 -1.239453 0.430810 -1.082352
    8 11.692558 0.000000 0.000001 0.000000 0.000000 -0.413211
    9 15.039795 2.912671 0.281259 3.062111 0.010391 0.137843
    10 3.890452 -0.148446 -0.000003 -1.677069 -0.125926 -1.221826
    11 17.848175 0.000000 0.000000 0.000000 0.000000 0.063283
    12 16.525248 0.000000 0.000000 -0.314720 0.086682 -0.968079
    13 -3.890452 0.148446 0.000007 -1.409065 0.047482 -1.890782
    14 17.848171 0.000000 0.000000 0.000000 0.000000 0.685389
    15 16.525253 0.000000 0.000000 0.332611 -0.249276 -0.952570
    16 11.479830 -0.000111 0.000311 -0.751091 0.006939 0.171305
  time 18
    0 -15.873726 19.066201 36.644984 1.580935 0.003404 0.066573
    1 0.000005 3.345128 -2.981901 1.570640 0.125279 1.554689
    2 7.532191 0.089847 -0.214850 0.014813 0.086073 0.159815
    3 10.776040 1.448393 -1.847764 -1.210144 1.261434 3.611597
    4 6.028143 0.000000 0.000000 0.936135 0.132778 -0.902294
    5 11.692554 0.000000 0.000008 0.000000 0.000000 -0.313672
    6 10.568996 1.467919 2.019694 1.466127 -1.272768 3.322545
    7 6.028142 0.000000 0.000000 -1.240425 0.429888 -1.076115
    8 11.692558 0.000000 0.000001 0.000000 0.000000 -0.455711
    9 15.020263 2.951734 0.316416 3.061430 0.004734 0.143721
    10 3.890452 -0.148446 -0.000003 -1.688485 -0.093772 -1.200919
    11 17.848175 0.000000 0.000000 0.000000 0.000000 0.000044
    12 16.525248 0.000000 0.000000 -0.240389 0.051593 -0.946565
    13 -3.890452 0.148446 0.000007 -1.395252 0.138264 -1.843424
    14 17.848171 0.000000 0.000000 0.000000 0.000000 0.500201
    15 16.525253 0.000000 0.000000 0.332208 -0.156368 -1.021887
    16 11.479830 -0.000111 0.000311 -0.751091 0.006939 0.171305
  time 19
    0 -16.845099 20.144098 36.750456 1.580911 0.003404 0.061566
    1 0.000005 3.345128 -2.981901 1.570460 0.125267 1.549871
    2 7.528284 0.089847 -0.238289 0.019930 0.096045 0.161752
    3 10.779946 1.460112 -1.839951 -1.203160 1.266024 3.623526
    4 6.028143 0.000000 0.000000 0.941108 0.122721 -0.902102
    5 11.692554 0.000000 0.000008 0.000000 0.000000 -0.336936
    6 10.553370 1.475732 2.027506 1.468478 -1.267771 3.325548
    7 6.028142 0.000000 0.000000 -1.245036 0.423118 -1.067319
    8 11.692558 0.000000 0.000001 0.000000 0.000000 -0.510328
    9 15.004638 2.982985 0.347667 3.060913 -0.000276 0.148966
    10 3.890452 -0.148446 -0.000003 -1.702671 -0.077744 -1.178044
    11 17.848175 0.000000 0.000000 0.000000 0.000000 0.000044
    12 16.525248 0.000000 0.000000 -0.195262 0.045559 -0.934464
    13 -3.890452 0.148446 0.000007 -1.382851 0.182665 -1.799191
    14 17.848171 0.000000 0.000000 0.000000 0.000000 0.383326
    15 16.525253 0.000000 0.000000 0.309163 -0.079405 -1.099727
    16 11.479830 -0.000111 0.000311 -0.751091 0.006939 0.171305
  time 20
    0 -17.816472 21.221995 36.953587 1.580887 0.003416 0.054028
    1 0.000005 3.345128 -2.981901 1.570173 0.125255 1.545413
    2 7.528284 0.097659 -0.257820 0.026594 0.103391 0.164715
    3 10.779946 1.467925 -1.832138 -1.197177 1.270015 3.633721
    4 6.028143 0.000000 0.000000 0.945241 0.109676 -0.904421
    5 11.692554 0.000000 0.000008 0.000000 0.000000 -0.363436
    6 10.537745 1.483545 2.035319 1.470179 -1.263432 3.328410
    7 6.028142 0.000000 0.000000 -1.253604 0.407146 -1.057763
    8 11.692558 0.000000 0.000001 0.000000 0.000000 -0.565186
    9 14.989012 3.010330 0.375011 3.060560 -0.004638 0.153464
    10 3.890452 -0.148446 -0.000003 -1.718510 -0.051808 -1.157868
    11 17.848175 0.000000 0.000000 0.000000 0.000000 0.000044
    12 16.525248 0.000000 0.000000 -0.213751 0.099019 -0.870865
    13 -3.890452 0.148446 0.000007 -1.373300 0.200394 -1.758185
    14 17.848171 0.000000 0.000000 0.000000 0.000000 0.298529
    15 16.525253 0.000000 0.000000 0.272360 -0.025851 -1.150897
    16 11.479830 -0.000111 0.000311 -0.751091 0.006939 0.171305
  time 21
    0 -18.787844 22.299892 37.230939 1.580863 0.003416 0.044876
    1 0.000005 3.345128 -2.981901 1.569825 0.125243 1.541566
    2 7.528284 0.101566 -0.273446 0.034540 0.107741 0.168247
    3 10.779946 1.475738 -1.824325 -1.192286 1.273406 3.642018
    4 6.028143 0.000000 0.000000 0.948807 0.094404 -0.909703
    5 11.692554 0.000000 0.000008 0.000000 0.000000 -0.390433
    6 10.522119 1.487451 2.043132 1.471271 -1.259765 3.330949
    7 6.028142 0.000000 0.000000 -1.265022 0.380170 -1.048122
    8 11.692558 0.000000 0.000001 0.000000 0.000000 -0.612086
    9 14.977293 3.029862 0.398450 3.060325 -0.008317 0.157086
    10 3.890452 -0.148446 -0.000003 -1.734148 -0.017425 -1.143377
    11 17.848175 0.000000 0.000000 0.000000 0.000000 0.000044
    12 16.525248 0.000000 0.000000 -0.231719 0.179848 -0.781988
    13 -3.890452 0.148446 0.000007 -1.366781 0.212709 -1.720594
    14 17.848171 0.000000 0.000000 0.000000 0.000000 0.213633
    15 16.525253 0.000000 0.000000 0.232200 0.008130 -1.163638
    16 11.479830 -0.000111 0.000311 -0.751091 0.006939 0.171305
  time 22
    0 -19.759217 23.377789 37.516104 1.580827 0.003416 0.035077
    1 0.000005 3.345128 -2.981901 1.569454 0.125231 1.538569
    2 7.524378 0.109378 -0.277352 0.043552 0.109479 0.171879
    3 10.783853 1.479644 -1.816513 -1.188555 1.276199 3.648205
    4 6.028143 0.000000 0.000000 0.952259 0.077332 -0.917445
    5 11.692554 0.000000 0.000008 0.000000 0.000000 -0.416186
    6 10.514307 1.491357 2.047038 1.471838 -1.256781 3.333025
    7 6.028142 0.000000 0.000000 -1.277630 0.341812 -1.039115
    8 11.692558 0.000000 0.000001 0.000000 0.000000 -0.645664
    9 14.965574 3.045487 0.414075 3.060255 -0.011301 0.159716
    10 3.890452 -0.148446 -0.000003 -1.743643 0.025337 -1.148731
    11 17.848175 0.000000 0.000000 0.000000 0.000000 0.000044
    12 16.525248 0.000000 0.000000 -0.245597 0.258351 -0.728742
    13 -3.890452 0.148446 0.000007 -1.362883 0.204788 -1.689118
    14 17.848171 0.000000 0.000000 0.000000 0.000000 0.165269
    15 16.525253 0.000000 0.000000 0.192557 0.028258 -1.163401
    16 11.479830 -0.000111 0.000311 -0.751091 0.006939 0.171305
  time 23
    0 -20.730590 24.455686 37.750486 1.580791 0.003416 0.025493
    1 0.000005 3.345128 -2.981901 1.569130 0.125219 1.536700
    2 7.524378 0.117191 -0.281259 0.053427 0.108976 0.175155
    3 10.783853 1.483551 -1.812606 -1.186007 1.278344 3.652166
    4 6.028143 0.000000 0.000000 0.956143 0.058683 -0.926981
    5 11.692554 0.000000 0.000008 0.000000 0.000000 -0.439451
    6 10.506494 1.495264 2.050945 1.471901 -1.254492 3.334435
    7 6.028142 0.000000 0.000000 -1.289568 0.292891 -1.030975
    8 11.692558 0.000000 0.000001 0.000000 0.000000 -0.662784
    9 14.961668 3.057206 0.429701 3.060278 -0.013579 0.161226
    10 3.890452 -0.148446 -0.000003 -1.745140 -0.091610 -1.148200
    11 17.848175 0.000000 0.000000 0.000000 0.000000 0.347937
    12 16.525248 0.000000 0.000000 -0.228033 0.300923 -0.867369
    13 -3.890452 0.148446 0.000007 -1.361105 0.155406 -1.667850
    14 17.848171 0.000000 0.000000 0.000000 0.000000 0.202000
    15 16.525253 0.000000 0.000000 0.154776 0.039368 -1.181131
    16 11.479830 -0.000111 0.000311 -0.751091 0.006939 0.171305
  time 24
    0 -21.701962 25.533583 37.902835 1.580755 0.003416 0.015856
    1 0.000005 3.345128 -2.981901 1.568890 0.125219 1.536196
    2 7.524378 0.121098 -0.281259 0.063974 0.106603 0.177591
    3 10.787759 1.483551 -1.808700 -1.184688 1.279866 3.653689
    4 6.028143 0.000000 0.000000 0.959981 0.038790 -0.937390
    5 11.692554 0.000000 0.000008 0.000000 0.000000 -0.459543
    6 10.502588 1.491357 2.054851 1.471502 -1.252934 3.335060
    7 6.028142 0.000000 0.000000 -1.300114 0.235501 -1.024441
    8 11.692558 0.000000 0.000001 0.000000 0.000000 -0.661760
    9 14.961668 3.057206 0.441420 3.060443 -0.015137 0.161486
    10 3.890452 -0.148446 -0.000003 -1.738303 -0.119176 -1.185566
    11 17.848175 0.000000 0.000000 0.000000 0.000000 0.515371
    12 16.525248 0.000000 0.000000 -0.160551 0.310614 -0.919001
    13 -3.890452 0.148446 0.000007 -1.359874 0.080280 -1.652783
    14 17.848171 0.000000 0.000000 0.000000 0.000000 0.291005
    15 16.525253 0.000000 0.000000 0.118894 0.045042 -1.203999
    16 11.479830 -0.000111 0.000311 -0.751091 0.006939 0.171305
  time 25
    0 -22.673335 26.611480 37.977056 1.580719 0.003416 0.005357
    1 0.000005 3.345128 -2.981901 1.568795 0.125219 1.537431
    2 7.524378 0.125004 -0.277352 0.074940 0.102468 0.178659
    3 10.791666 1.483551 -1.808700 -1.184529 1.280765 3.652775
    4 6.028143 0.000000 0.000000 0.962797 0.018007 -0.947729
    5 11.692554 0.000000 0.000008 0.000000 0.000000 -0.476152
    6 10.502588 1.491357 2.054851 1.470704 -1.252059 3.334738
    7 6.028142 0.000000 0.000000 -1.309152 0.172683 -1.020128
    8 11.692558 0.000000 0.000001 0.000000 0.000000 -0.642288
    9 14.961668 3.049394 0.445326 3.060725 -0.015999 0.160431
    10 3.890452 -0.148446 -0.000003 -1.723715 -0.109433 -1.249834
    11 17.848175 0.000000 0.000000 0.000000 0.000000 0.606490
    12 16.525248 0.000000 0.000000 -0.065446 0.299187 -0.942048
    13 -3.890452 0.148446 0.000007 -1.358415 0.009579 -1.636680
    14 17.848171 0.000000 0.000000 0.000000 0.000000 0.369565
    15 16.525253 0.000000 0.000000 0.083761 0.048830 -1.213235
    16 11.479830 -0.000111 0.000311 -0.751091 0.006939 0.171305
  time 26
    0 -23.644708 27.689377 37.965337 1.580683 0.003416 -0.005788
    1 0.000005 3.345128 -2.981901 1.568843 0.125231 1.540259
    2 7.524378 0.125004 -0.269539 0.086109 0.096548 0.178360
    3 10.795572 1.479644 -1.808700 -1.185325 1.281161 3.649822
    4 6.028143 0.000000 0.000000 0.964545 -0.003018 -0.957823
    5 11.692554 0.000000 0.000008 0.000000 0.000000 -0.489339
    6 10.506494 1.487451 2.058757 1.469591 -1.251747 3.333549
    7 6.028142 0.000000 0.000000 -1.316194 0.107119 -1.017697
    8 11.692558 0.000000 0.000001 0.000000 0.000000 -0.605636
    9 14.969480 3.037675 0.449232 3.061077 -0.016299 0.158222
    10 3.890452 -0.148446 -0.000003 -1.703028 -0.073488 -1.333193
    11 17.848175 0.000000 0.000000 0.000000 0.000000 0.637822
    12 16.525248 0.000000 0.000000 0.020988 0.252183 -0.939950
    13 -3.890452 0.148446 0.000007 -1.356660 -0.052458 -1.618301
    14 17.848171 0.000000 0.000000 0.000000 0.000000 0.431294
    15 16.525253 0.000000 0.000000 0.048493 0.052048 -1.218491
    16 11.479830 -0.000111 0.000311 -0.751091 0.006939 0.171305
  time 27
    0 -24.616080 28.767274 37.855958 1.580647 0.003416 -0.017417
    1 0.000005 3.345128 -2.981901 1.569010 0.125243 1.544202
    2 7.528284 0.121098 -0.257820 0.097279 0.089034 0.177007
    3 10.799478 1.475738 -1.808700 -1.186872 1.281113 3.645275
    4 6.028143 0.000000 0.000000 0.965227 -0.023207 -0.967552
    5 11.692554 0.000000 0.000008 0.000000 0.000000 -0.499292
    6 10.510400 1.479638 2.058757 1.468247 -1.251927 3.331715
    7 6.028142 0.000000 0.000000 -1.321207 0.041681 -1.016745
    8 11.692558 0.000000 0.000001 0.000000 0.000000 -0.554455
    9 14.981199 3.018143 0.449232 3.061477 -0.016095 0.155153
    10 3.890452 -0.148446 -0.000003 -1.679638 -0.020684 -1.423986
    11 17.848175 0.000000 0.000000 0.000000 0.000000 0.624641
    12 16.525248 0.000000 0.000000 0.054729 0.171505 -0.948959
    13 -3.890452 0.148446 0.000007 -1.354631 -0.111154 -1.598766
    14 17.848171 0.000000 0.000000 0.000000 0.000000 0.488717
    15 16.525253 0.000000 0.000000 0.012726 0.054251 -1.229034
    16 11.479830 -0.000111 0.000311 -0.751091 0.006939 0.171305
  time 28
    0 -25.587453 29.845171 37.652827 1.580599 0.003416 -0.029800
    1 0.000005 3.345128 -2.981901 1.569238 0.125267 1.548756
    2 7.528284 0.117191 -0.246101 0.108233 0.080093 0.174956
    3 10.803385 1.467925 -1.808700 -1.188987 1.280693 3.639580
    4 6.028143 0.000000 0.000000 0.964409 -0.041504 -0.976723
    5 11.692554 0.000000 0.000008 0.000000 0.000000 -0.506321
    6 10.518213 1.475732 2.054851 1.466757 -1.252502 3.329397
    7 6.028142 0.000000 0.000000 -1.324795 -0.019901 -1.016766
    8 11.692558 0.000000 0.000001 0.000000 0.000000 -0.493629
    9 14.989012 2.994704 0.445326 3.061900 -0.015496 0.151467
    10 3.890452 -0.148446 -0.000003 -1.657923 0.037640 -1.510089
    11 17.848175 0.000000 0.000000 0.000000 0.000000 0.588235
    12 16.525248 0.000000 0.000000 0.021540 0.068834 -0.991528
    13 -3.890452 0.148446 0.000007 -1.352625 -0.167467 -1.578127
    14 17.848171 0.000000 0.000000 0.000000 0.000000 0.544852
    15 16.525253 0.000000 0.000000 -0.024057 0.054584 -1.250625
    16 11.479830 -0.000111 0.000311 -0.751091 0.006939 0.171305
  time 29
    0 -26.558826 30.923067 37.383288 1.580563 0.003416 -0.042022
    1 0.000005 3.345128 -2.981901 1.569490 0.125279 1.553418
    2 7.528284 0.113285 -0.226569 0.118791 0.069882 0.172563
    3 10.807291 1.464019 -1.808700 -1.191490 1.279986 3.633205
    4 6.028143 0.000000 0.000000 0.962706 -0.057091 -0.985370
    5 11.692554 0.000000 0.000008 0.000000 0.000000 -0.510924
    6 10.526026 1.467919 2.054851 1.465203 -1.253401 3.326818
    7 6.028142 0.000000 0.000000 -1.326740 -0.072784 -1.016640
    8 11.692558 0.000000 0.000001 0.000000 0.000000 -0.431356
    9 15.004638 2.971266 0.441420 3.062322 -0.014585 0.147472
    10 3.890452 -0.148446 -0.000003 -1.639470 0.085889 -1.584512
    11 17.848175 0.000000 0.000000 0.000000 0.000000 0.556014
    12 16.525248 0.000000 0.000000 -0.043301 -0.043596 -1.055047
    13 -3.890452 0.148446 0.000007 -1.349730 -0.222542 -1.556911
    14 17.848171 0.000000 0.000000 0.000000 0.000000 0.601532
    15 16.525253 0.000000 0.000000 -0.054797 0.050098 -1.242904
    16 11.479830 -0.000111 0.000311 -0.751091 0.006939 0.171305
  time 30
    0 -27.530198 32.000964 37.086403 1.580528 0.003416 -0.051067
    1 0.000005 3.345128 -2.981901 1.569717 0.125279 1.557685
    2 7.532191 0.109378 -0.203131 0.128822 0.059324 0.170156
    3 10.811197 1.456206 -1.812606 -1.194174 1.279051 3.626596
    4 6.028143 0.000000 0.000000 0.962910 -0.069728 -0.993373
    5 11.692554 0.000000 0.000008 0.000000 0.000000 -0.513537
    6 10.533839 1.460106 2.054851 1.463691 -1.254516 3.324178
    7 6.028142 0.000000 0.000000 -1.324895 -0.110387 -1.015561
    8 11.692558 0.000000 0.000001 0.000000 0.000000 -0.380899
    9 15.016357 2.947828 0.433607 3.062745 -0.013447 0.143445
    10 3.890452 -0.148446 -0.000003 -1.623117 0.105707 -1.642496
    11 17.848175 0.000000 0.000000 0.000000 0.000000 0.557112
    12 16.525248 0.000000 0.000000 -0.108977 -0.150514 -1.126552
    13 -3.890452 0.148446 0.000007 -1.342504 -0.279443 -1.536476
    14 17.848171 0.000000 0.000000 0.000000 0.000000 0.665341
    15 16.525253 0.000000 0.000000 -0.076402 0.036072 -1.238983
    16 11.479830 -0.000111 0.000311 -0.751091 0.006939 0.171305
end
