// Created by Crowbar 0.74
version 1
nodes
  0 "ValveBiped.Bip01" -1
  1 "ValveBiped.Bip01_Spine" 0
  2 "ValveBiped.Bip01_Spine2" 1
  3 "ValveBiped.Bip01_R_Clavicle" 2
  4 "ValveBiped.Bip01_R_UpperArm" 3
  5 "ValveBiped.Bip01_R_Forearm" 4
  6 "ValveBiped.Bip01_L_Clavicle" 2
  7 "ValveBiped.Bip01_L_UpperArm" 6
  8 "ValveBiped.Bip01_L_Forearm" 7
  9 "ValveBiped.Bip01_Head1" 2
  10 "ValveBiped.Bip01_L_Thigh" 0
  11 "ValveBiped.Bip01_L_Calf" 10
  12 "ValveBiped.Bip01_L_Foot" 11
  13 "ValveBiped.Bip01_R_Thigh" 0
  14 "ValveBiped.Bip01_R_Calf" 13
  15 "ValveBiped.Bip01_R_Foot" 14
  16 "ValveBiped.Bip01_R_Hand" 5
end
skeleton
  time 0
    0 1.610982 -0.335943 38.105966 1.580767 0.003416 0.016825
    1 0.000005 3.345128 -2.981901 1.570281 0.125219 1.537359
    2 7.524378 0.125004 -0.277352 0.073250 0.102732 0.178716
    3 10.791666 1.483551 -1.808700 -1.155114 1.277685 3.683876
    4 6.028143 0.000000 0.000000 0.957846 0.142001 -1.025697
    5 11.692554 0.000000 0.000008 0.000000 0.000000 -0.359579
    6 10.502588 1.487451 2.058757 1.504654 -1.250069 3.300316
    7 6.028142 0.000000 0.000000 -1.300114 -0.110576 -1.128402
    8 11.692558 0.000000 0.000001 0.000000 0.000000 -0.214456
    9 14.961668 3.049394 0.449232 3.061406 -0.016155 0.160625
    10 3.890452 -0.148446 -0.000003 -1.957752 -0.271703 -1.358259
    11 17.848175 0.000000 0.000000 0.000000 0.000000 0.813103
    12 16.525248 0.000000 0.000000 0.135626 0.145703 -0.931856
    13 -3.890452 0.148446 0.000007 -1.375785 0.116017 -1.565285
    14 17.848171 0.000000 0.000000 0.000000 0.000000 0.000030
    15 16.525253 0.000000 0.000000 0.040568 0.073222 -1.105429
    16 11.479830 -0.000111 0.000311 -0.751091 0.006939 0.171305
  time 1
    0 1.610982 1.269144 38.184093 1.580719 0.003416 0.005573
    1 0.000005 3.345128 -2.981901 1.570257 0.125231 1.540523
    2 7.524378 0.125004 -0.269539 0.085043 0.096835 0.178488
    3 10.791666 1.483551 -1.804793 -1.095897 1.270458 3.743991
    4 6.028143 0.000000 0.000000 0.948762 0.114519 -1.047647
    5 11.692554 0.000000 0.000008 0.000000 0.000000 -0.359393
    6 10.502588 1.487451 2.058757 1.570938 -1.244964 3.228612
    7 6.028142 0.000000 0.000000 -1.326321 -0.125479 -1.096222
    8 11.692558 0.000000 0.000001 0.000000 0.000000 -0.262201
    9 14.969480 3.041581 0.453139 3.061665 -0.016479 0.158774
    10 3.890452 -0.148446 -0.000003 -1.961036 -0.180759 -1.362108
    11 17.848175 0.000000 0.000000 0.000000 0.000000 0.759959
    12 16.525248 0.000000 0.000000 0.143476 0.156944 -0.845076
    13 -3.890452 0.148446 0.000007 -1.403070 0.070688 -1.566288
    14 17.848171 0.000000 0.000000 0.000000 0.000000 0.000030
    15 16.525253 0.000000 0.000000 0.037843 0.092400 -1.093936
    16 11.479830 -0.000111 0.000311 -0.751091 0.006939 0.171305
  time 2
    0 1.610981 2.874231 38.180187 1.580683 0.003416 -0.005572
    1 0.000005 3.345128 -2.981901 1.570221 0.125255 1.544909
    2 7.528284 0.121098 -0.257820 0.096871 0.089117 0.177206
    3 10.795572 1.479644 -1.804793 -1.043574 1.262237 3.796185
    4 6.028143 0.000000 0.000000 0.939428 0.089134 -1.069702
    5 11.692554 0.000000 0.000008 0.000000 0.000000 -0.350684
    6 10.510400 1.479638 2.058757 1.631385 -1.239331 3.161905
    7 6.028142 0.000000 0.000000 -1.350615 -0.146292 -1.063408
    8 11.692558 0.000000 0.000001 0.000000 0.000000 -0.300119
    9 14.977293 3.022049 0.449232 3.061947 -0.016287 0.156030
    10 3.890452 -0.148446 -0.000003 -1.932172 -0.082865 -1.386112
    11 17.848175 0.000000 0.000000 0.000000 0.000000 0.659059
    12 16.525248 0.000000 0.000000 0.116271 0.156068 -0.776125
    13 -3.890452 0.148446 0.000007 -1.418252 -0.042217 -1.576734
    14 17.848171 0.000000 0.000000 0.000000 0.000000 0.140369
    15 16.525253 0.000000 0.000000 0.031339 0.100197 -1.137711
    16 11.479830 -0.000111 0.000311 -0.751091 0.006939 0.171305
  time 3
    0 1.610981 4.479318 38.066902 1.580647 0.003416 -0.017417
    1 0.000005 3.345128 -2.981901 1.570161 0.125267 1.549835
    2 7.528284 0.117191 -0.246101 0.108413 0.079769 0.175084
    3 10.799478 1.471832 -1.808700 -0.999668 1.253740 3.839004
    4 6.028143 0.000000 0.000000 0.929367 0.066903 -1.091635
    5 11.692554 0.000000 0.000008 0.000000 0.000000 -0.334510
    6 10.514307 1.475732 2.058757 1.684147 -1.233650 3.102414
    7 6.028142 0.000000 0.000000 -1.372613 -0.173813 -1.031926
    8 11.692558 0.000000 0.000001 0.000000 0.000000 -0.318626
    9 14.989012 3.002517 0.449232 3.062252 -0.015640 0.152490
    10 3.890452 -0.148446 -0.000003 -1.880924 0.011538 -1.417637
    11 17.848175 0.000000 0.000000 0.000000 0.000000 0.546546
    12 16.525248 0.000000 0.000000 0.052893 0.146663 -0.780858
    13 -3.890452 0.148446 0.000007 -1.447384 -0.129719 -1.579062
    14 17.848171 0.000000 0.000000 0.000000 0.000000 0.224424
    15 16.525253 0.000000 0.000000 0.033238 0.119835 -1.143384
    16 11.479830 -0.000111 0.000311 -0.751091 0.006939 0.171305
  time 4
    0 1.610981 6.084404 37.859865 1.580611 0.003416 -0.029262
    1 0.000005 3.345128 -2.981901 1.570065 0.125279 1.554701
    2 7.528284 0.113285 -0.226569 0.119355 0.069211 0.172392
    3 10.803385 1.464019 -1.808700 -0.965066 1.245686 3.871557
    4 6.028143 0.000000 0.000000 0.919624 0.048198 -1.112941
    5 11.692554 0.000000 0.000008 0.000000 0.000000 -0.313361
    6 10.522119 1.467919 2.054851 1.727650 -1.228497 3.051931
    7 6.028142 0.000000 0.000000 -1.390855 -0.203116 -1.003214
    8 11.692558 0.000000 0.000001 0.000000 0.000000 -0.320917
    9 15.000731 2.975173 0.441420 3.062557 -0.014669 0.148333
    10 3.890452 -0.148446 -0.000003 -1.825252 0.072655 -1.439981
    11 17.848175 0.000000 0.000000 0.000000 0.000000 0.490787
    12 16.525248 0.000000 0.000000 -0.020259 0.123220 -0.859409
    13 -3.890452 0.148446 0.000007 -1.423631 -0.208959 -1.584599
    14 17.848171 0.000000 0.000000 0.000000 0.000000 0.290906
    15 16.525253 0.000000 0.000000 0.008083 0.095427 -1.138097
    16 11.479830 -0.000111 0.000311 -0.751091 0.006939 0.171305
  time 5
    0 1.610981 7.689491 37.586419 1.580563 0.003416 -0.042022
    1 0.000005 3.345128 -2.981901 1.569993 0.125279 1.558931
    2 7.532191 0.109378 -0.199225 0.129470 0.058173 0.169672
    3 10.811197 1.456206 -1.812606 -0.940361 1.238855 3.893400
    4 6.028143 0.000000 0.000000 0.909768 0.033464 -1.132241
    5 11.692554 0.000000 0.000008 0.000000 0.000000 -0.291091
    6 10.533839 1.460106 2.054851 1.760593 -1.224494 3.012229
    7 6.028142 0.000000 0.000000 -1.405861 -0.225124 -0.978836
    8 11.692558 0.000000 0.000001 0.000000 0.000000 -0.318867
    9 15.016357 2.947828 0.433607 3.062863 -0.013471 0.143754
    10 3.890452 -0.148446 -0.000003 -1.848597 0.132176 -1.446596
    11 17.848175 0.000000 0.000000 0.000000 0.000000 0.445385
    12 16.525248 0.000000 0.000000 -0.033287 0.132810 -1.008094
    13 -3.890452 0.148446 0.000007 -1.492358 -0.282785 -1.574118
    14 17.848171 0.000000 0.000000 0.000000 0.000000 0.340705
    15 16.525253 0.000000 0.000000 0.033852 0.145003 -1.114220
    16 11.479830 -0.000111 0.000311 -0.751091 0.006939 0.171305
  time 6
    0 1.610980 9.294578 37.277816 1.580528 0.003416 -0.052251
    1 0.000005 3.345128 -2.981901 1.569957 0.125291 1.561939
    2 7.532191 0.105472 -0.175787 0.138626 0.048142 0.167635
    3 10.815104 1.448393 -1.812606 -0.926097 1.233941 3.904369
    4 6.028143 0.000000 0.000000 0.903863 0.022238 -1.147810
    5 11.692554 0.000000 0.000008 0.000000 0.000000 -0.273238
    6 10.541651 1.452294 2.050945 1.781673 -1.222241 2.985244
    7 6.028142 0.000000 0.000000 -1.414026 -0.230134 -0.961837
    8 11.692558 0.000000 0.000001 0.000000 0.000000 -0.329357
    9 15.028076 2.920483 0.425794 3.063145 -0.012152 0.139288
    10 3.890452 -0.148446 -0.000003 -1.782761 0.202171 -1.482126
    11 17.848175 0.000000 0.000000 0.000000 0.000000 0.336900
    12 16.525248 0.000000 0.000000 -0.104082 0.053666 -1.174876
    13 -3.890452 0.148446 0.000007 -1.425341 -0.343832 -1.583376
    14 17.848171 0.000000 0.000000 0.000000 0.000000 0.367931
    15 16.525253 0.000000 0.000000 -0.017341 0.091195 -1.085026
    16 11.479830 -0.000111 0.000311 -0.751091 0.006939 0.171305
  time 7
    0 1.610980 10.899665 37.004370 1.580516 0.003404 -0.056451
    1 0.000005 3.345128 -2.981901 1.569957 0.125291 1.563090
    2 7.532191 0.105472 -0.164068 0.146967 0.042545 0.166837
    3 10.815104 1.440581 -1.816513 -0.923071 1.231556 3.905002
    4 6.028143 0.000000 0.000000 0.906406 0.014834 -1.155970
    5 11.692554 0.000000 0.000008 0.000000 0.000000 -0.265960
    6 10.549464 1.448387 2.050945 1.789420 -1.222277 2.974039
    7 6.028142 0.000000 0.000000 -1.411595 -0.211416 -0.957566
    8 11.692558 0.000000 0.000001 0.000000 0.000000 -0.364442
    9 15.035889 2.904858 0.417982 3.063403 -0.010822 0.136317
    10 3.890452 -0.148446 -0.000003 -1.698962 0.162602 -1.497457
    11 17.848175 0.000000 0.000000 0.000000 0.000000 0.378432
    12 16.525248 0.000000 0.000000 -0.146254 -0.044539 -1.294383
    13 -3.890452 0.148446 0.000007 -1.354517 -0.386346 -1.592991
    14 17.848171 0.000000 0.000000 0.000000 0.000000 0.368426
    15 16.525253 0.000000 0.000000 -0.070397 0.043505 -1.043953
    16 11.479830 -0.000111 0.000311 -0.751091 0.006939 0.171305
  time 8
    0 1.610980 12.504751 36.832489 1.580528 0.003416 -0.052574
    1 0.000005 3.345128 -2.981901 1.570281 0.125291 1.567356
    2 7.536097 0.105472 -0.132817 0.143743 0.029015 0.167193
    3 10.811197 1.436674 -1.824325 -0.938700 1.229914 3.885854
    4 6.028143 0.000000 0.000000 0.908678 0.010529 -1.158149
    5 11.692554 0.000000 0.000008 0.000000 0.000000 -0.273052
    6 10.565089 1.440575 2.043132 1.783541 -1.228006 2.976840
    7 6.028142 0.000000 0.000000 -1.406297 -0.174065 -0.958454
    8 11.692558 0.000000 0.000001 0.000000 0.000000 -0.414839
    9 15.051514 2.881420 0.390637 3.064226 -0.006448 0.132631
    10 3.890452 -0.148446 -0.000003 -1.725838 0.041597 -1.476175
    11 17.848175 0.000000 0.000000 0.000000 0.000000 0.543251
    12 16.525248 0.000000 0.000000 -0.128347 -0.016849 -1.345021
    13 -3.890452 0.148446 0.000007 -1.350801 -0.409180 -1.590935
    14 17.848171 0.000000 0.000000 0.000000 0.000000 0.375555
    15 16.525253 0.000000 0.000000 -0.080509 0.040763 -1.132960
    16 11.479830 -0.000111 0.000311 -0.751091 0.006939 0.171305
  time 9
    0 1.610980 14.109838 36.805145 1.580563 0.003416 -0.043045
    1 0.000005 3.345128 -2.981901 1.570257 0.125291 1.571168
    2 7.536097 0.109378 -0.105472 0.137008 0.016371 0.168746
    3 10.811197 1.428861 -1.832138 -0.966090 1.230226 3.853839
    4 6.028143 0.000000 0.000000 0.914991 0.009044 -1.152535
    5 11.692554 0.000000 0.000008 0.000000 0.000000 -0.292335
    6 10.580715 1.436668 2.035319 1.763973 -1.236551 2.993749
    7 6.028142 0.000000 0.000000 -1.394560 -0.133842 -0.963761
    8 11.692558 0.000000 0.000001 0.000000 0.000000 -0.465658
    9 15.063233 2.854075 0.363292 3.065048 -0.001558 0.128457
    10 3.890452 -0.148446 -0.000003 -1.759460 -0.039371 -1.456375
    11 17.848175 0.000000 0.000000 0.000000 0.000000 0.620351
    12 16.525248 0.000000 0.000000 -0.104649 0.018931 -1.360994
    13 -3.890452 0.148446 0.000007 -1.151459 -0.388357 -1.612338
    14 17.848171 0.000000 0.000000 0.000000 0.000000 0.319815
    15 16.525253 0.000000 0.000000 -0.181803 -0.126667 -1.218165
    16 11.479830 -0.000111 0.000311 -0.751091 0.006939 0.171305
  time 10
    0 1.610980 15.714925 36.965306 1.580599 0.003416 -0.031307
    1 0.000005 3.345128 -2.981901 1.570029 0.125291 1.574475
    2 7.536097 0.117191 -0.085940 0.127492 0.007083 0.171125
    3 10.807291 1.421049 -1.843857 -1.003240 1.232048 3.811395
    4 6.028143 0.000000 0.000000 0.922803 0.012032 -1.138884
    5 11.692554 0.000000 0.000008 0.000000 0.000000 -0.317653
    6 10.596340 1.428856 2.027506 1.731262 -1.246917 3.024442
    7 6.028142 0.000000 0.000000 -1.379236 -0.093158 -0.974248
    8 11.692558 0.000000 0.000001 0.000000 0.000000 -0.511835
    9 15.078859 2.830637 0.332041 3.065776 0.003500 0.124219
    10 3.890452 -0.148446 -0.000003 -1.730440 -0.096000 -1.460954
    11 17.848175 0.000000 0.000000 0.000000 0.000000 0.635573
    12 16.525248 0.000000 0.000000 -0.113498 0.000038 -1.353787
    13 -3.890452 0.148446 0.000007 -1.183828 -0.300391 -1.562636
    14 17.848171 0.000000 0.000000 0.000000 0.000000 0.080719
    15 16.525253 0.000000 0.000000 -0.165665 -0.114733 -1.174389
    16 11.479830 -0.000111 0.000311 -0.751091 0.006939 0.171305
  time 11
    0 1.610979 17.320012 37.277816 1.580635 0.003416 -0.020647
    1 0.000005 3.345128 -2.981901 1.569765 0.125291 1.577184
    2 7.536097 0.125004 -0.070315 0.115795 0.001498 0.173845
    3 10.803385 1.413236 -1.851670 -1.048397 1.234864 3.760701
    4 6.028143 0.000000 0.000000 0.929094 0.020994 -1.118799
    5 11.692554 0.000000 0.000008 0.000000 0.000000 -0.342784
    6 10.611966 1.421043 2.019694 1.685869 -1.258135 3.068658
    7 6.028142 0.000000 0.000000 -1.363341 -0.052872 -0.989132
    8 11.692558 0.000000 0.000001 0.000000 0.000000 -0.550778
    9 15.090578 2.807199 0.300790 3.066387 0.008485 0.120355
    10 3.890452 -0.148446 -0.000003 -1.703430 -0.128587 -1.470047
    11 17.848175 0.000000 0.000000 0.000000 0.000000 0.600318
    12 16.525248 0.000000 0.000000 -0.122646 -0.017136 -1.326680
    13 -3.890452 0.148446 0.000007 -1.223058 -0.388202 -1.605730
    14 17.848171 0.000000 0.000000 0.000000 0.000000 0.329270
    15 16.525253 0.000000 0.000000 -0.130455 -0.062161 -1.338860
    16 11.479830 -0.000111 0.000311 -0.751091 0.006939 0.171305
  time 12
    0 1.610979 18.925099 37.629389 1.580671 0.003416 -0.011764
    1 0.000005 3.345128 -2.981901 1.569598 0.125291 1.579209
    2 7.536097 0.128910 -0.062502 0.102528 -0.000791 0.176366
    3 10.799478 1.405423 -1.859483 -1.099924 1.238172 3.703844
    4 6.028143 0.000000 0.000000 0.933341 0.036359 -1.094669
    5 11.692554 0.000000 0.000008 0.000000 0.000000 -0.363125
    6 10.627591 1.417136 2.011881 1.628571 -1.269221 3.125751
    7 6.028142 0.000000 0.000000 -1.347295 -0.013844 -1.007294
    8 11.692558 0.000000 0.000001 0.000000 0.000000 -0.580859
    9 15.102297 2.787667 0.269539 3.066810 0.013207 0.117139
    10 3.890452 -0.148446 -0.000003 -1.681559 -0.145312 -1.479670
    11 17.848175 0.000000 0.000000 0.000000 0.000000 0.534725
    12 16.525248 0.000000 0.000000 -0.130451 -0.030568 -1.287741
    13 -3.890452 0.148446 0.000007 -1.196776 -0.455561 -1.662109
    14 17.848171 0.000000 0.000000 0.000000 0.000000 0.602671
    15 16.525253 0.000000 0.000000 -0.117024 -0.058326 -1.438023
    16 11.479830 -0.000111 0.000311 -0.751091 0.006939 0.171305
  time 13
    0 1.610979 20.530185 37.910647 1.580719 0.003416 0.002504
    1 0.000005 3.345128 -2.981901 1.569538 0.125291 1.580396
    2 7.536097 0.132817 -0.058596 0.088267 -0.000431 0.178146
    3 10.791666 1.401517 -1.867295 -1.156024 1.241503 3.642768
    4 6.028143 0.000000 0.000000 0.942176 0.056326 -1.069458
    5 11.692554 0.000000 0.000008 0.000000 0.000000 -0.375752
    6 10.639310 1.413230 2.004068 1.560776 -1.279240 3.194251
    7 6.028142 0.000000 0.000000 -1.324359 0.021642 -1.026746
    8 11.692558 0.000000 0.000001 0.000000 0.000000 -0.601054
    9 15.110110 2.772041 0.242195 3.067022 0.017498 0.114752
    10 3.890452 -0.148446 -0.000003 -1.617755 -0.157649 -1.497745
    11 17.848175 0.000000 0.000000 0.000000 0.000000 0.458985
    12 16.525248 0.000000 0.000000 -0.158088 -0.073999 -1.242160
    13 -3.890452 0.148446 0.000007 -1.153146 -0.433129 -1.699955
    14 17.848171 0.000000 0.000000 0.000000 0.000000 0.712318
    15 16.525253 0.000000 0.000000 -0.113551 -0.076061 -1.418244
    16 11.479830 -0.000111 0.000311 -0.751091 0.006939 0.171305
  time 14
    0 1.610979 22.135272 38.090340 1.580779 0.003416 0.022694
    1 0.000005 3.345128 -2.981901 1.569502 0.125291 1.580551
    2 7.536097 0.136723 -0.054689 0.073633 0.001906 0.178759
    3 10.787759 1.397611 -1.875108 -1.214808 1.244524 3.579559
    4 6.028143 0.000000 0.000000 0.955915 0.079466 -1.044579
    5 11.692554 0.000000 0.000008 0.000000 0.000000 -0.379112
    6 10.647123 1.409324 1.996256 1.484876 -1.287413 3.271739
    7 6.028142 0.000000 0.000000 -1.294011 0.053083 -1.045500
    8 11.692558 0.000000 0.000001 0.000000 0.000000 -0.610519
    9 15.114016 2.760322 0.218757 3.066998 0.021225 0.113193
    10 3.890452 -0.148446 -0.000003 -1.534515 -0.168356 -1.515642
    11 17.848175 0.000000 0.000000 0.000000 0.000000 0.381152
    12 16.525248 0.000000 0.000000 -0.193829 -0.127425 -1.189479
    13 -3.890452 0.148446 0.000007 -1.118247 -0.351939 -1.713901
    14 17.848171 0.000000 0.000000 0.000000 0.000000 0.703358
    15 16.525253 0.000000 0.000000 -0.112821 -0.093891 -1.320417
    16 11.479830 -0.000111 0.000311 -0.751091 0.006939 0.171305
  time 15
    0 1.610979 23.740359 38.184093 1.580803 0.003416 0.029585
    1 0.000005 3.345128 -2.981901 1.569514 0.125291 1.579892
    2 7.536097 0.132817 -0.058596 0.059228 0.005908 0.178189
    3 10.783853 1.397611 -1.882921 -1.274229 1.247040 3.516326
    4 6.028143 0.000000 0.000000 0.955984 0.108803 -1.019246
    5 11.692554 0.000000 0.000008 0.000000 0.000000 -0.373015
    6 10.654936 1.409324 1.988443 1.404273 -1.293190 3.354588
    7 6.028142 0.000000 0.000000 -1.274998 0.084775 -1.066347
    8 11.692558 0.000000 0.000001 0.000000 0.000000 -0.608288
    9 15.117922 2.756416 0.199225 3.066763 0.024281 0.112430
    10 3.890452 -0.148446 -0.000003 -1.557079 -0.175738 -1.513253
    11 17.848175 0.000000 0.000000 0.000000 0.000000 0.301384
    12 16.525248 0.000000 0.000000 -0.180025 -0.103931 -1.135830
    13 -3.890452 0.148446 0.000007 -1.097458 -0.321276 -1.743407
    14 17.848171 0.000000 0.000000 0.000000 0.000000 0.803650
    15 16.525253 0.000000 0.000000 -0.115239 -0.107965 -1.276968
    16 11.479830 -0.000111 0.000311 -0.751091 0.006939 0.171305
  time 16
    0 1.610978 25.345446 38.156749 1.580827 0.003416 0.036746
    1 0.000005 3.345128 -2.981901 1.569610 0.125291 1.578766
    2 7.536097 0.128910 -0.062502 0.045697 0.011517 0.176565
    3 10.779946 1.393704 -1.886827 -1.332262 1.249030 3.455180
    4 6.028143 0.000000 0.000000 0.955825 0.139923 -0.995169
    5 11.692554 0.000000 0.000008 0.000000 0.000000 -0.358957
    6 10.658842 1.413230 1.984536 1.323250 -1.296306 3.438405
    7 6.028142 0.000000 0.000000 -1.254476 0.112254 -1.087722
    8 11.692558 0.000000 0.000001 0.000000 0.000000 -0.593639
    9 15.117922 2.756416 0.183599 3.066340 0.026546 0.112414
    10 3.890452 -0.148446 -0.000003 -1.531924 -0.193661 -1.518231
    11 17.848175 0.000000 0.000000 0.000000 0.000000 0.242748
    12 16.525248 0.000000 0.000000 -0.192575 -0.118577 -1.080298
    13 -3.890452 0.148446 0.000007 -1.106166 -0.272048 -1.752630
    14 17.848171 0.000000 0.000000 0.000000 0.000000 0.848499
    15 16.525253 0.000000 0.000000 -0.103573 -0.109138 -1.218581
    16 11.479830 -0.000111 0.000311 -0.751091 0.006939 0.171305
  time 17
    0 1.610978 26.950532 38.020026 1.580851 0.003416 0.043853
    1 0.000005 3.345128 -2.981901 1.569765 0.125291 1.577112
    2 7.536097 0.125004 -0.070315 0.033617 0.018648 0.173945
    3 10.776040 1.397611 -1.890734 -1.386860 1.250612 3.398814
    4 6.028143 0.000000 0.000000 0.955779 0.171135 -0.972434
    5 11.692554 0.000000 0.000008 0.000000 0.000000 -0.339860
    6 10.658842 1.417136 1.980630 1.246385 -1.296809 3.519077
    7 6.028142 0.000000 0.000000 -1.233199 0.134053 -1.109690
    8 11.692558 0.000000 0.000001 0.000000 0.000000 -0.565427
    9 15.114016 2.764229 0.175787 3.065847 0.027924 0.113664
    10 3.890452 -0.148446 -0.000003 -1.521692 -0.240413 -1.521881
    11 17.848175 0.000000 0.000000 0.000000 0.000000 0.241806
    12 16.525248 0.000000 0.000000 -0.196829 -0.119824 -1.043080
    13 -3.890452 0.148446 0.000007 -1.123649 -0.204596 -1.748231
    14 17.848171 0.000000 0.000000 0.000000 0.000000 0.844143
    15 16.525253 0.000000 0.000000 -0.086898 -0.111927 -1.160668
    16 11.479830 -0.000111 0.000311 -0.751091 0.006939 0.171305
  time 18
    0 1.610978 28.555619 37.816895 1.580875 0.003416 0.050636
    1 0.000005 3.345128 -2.981901 1.569957 0.125291 1.574871
    2 7.536097 0.117191 -0.082034 0.023550 0.027301 0.170541
    3 10.772134 1.401517 -1.890734 -1.436158 1.252026 3.349667
    4 6.028143 0.000000 0.000000 0.956392 0.199916 -0.950518
    5 11.692554 0.000000 0.000008 0.000000 0.000000 -0.321199
    6 10.654936 1.421043 1.980630 1.178127 -1.295048 3.592454
    7 6.028142 0.000000 0.000000 -1.212073 0.148474 -1.132567
    8 11.692558 0.000000 0.000001 0.000000 0.000000 -0.522445
    9 15.106203 2.783761 0.171880 3.065330 0.028308 0.116555
    10 3.890452 -0.148446 -0.000003 -1.509204 -0.286367 -1.526726
    11 17.848175 0.000000 0.000000 0.000000 0.000000 0.242957
    12 16.525248 0.000000 0.000000 -0.197843 -0.127762 -1.021432
    13 -3.890452 0.148446 0.000007 -1.131650 -0.116847 -1.736493
    14 17.848171 0.000000 0.000000 0.000000 0.000000 0.792165
    15 16.525253 0.000000 0.000000 -0.076422 -0.125415 -1.113596
    16 11.479830 -0.000111 0.000311 -0.751091 0.006939 0.171305
  time 19
    0 1.610978 30.160706 37.574700 1.580899 0.003404 0.056774
    1 0.000005 3.345128 -2.981901 1.570173 0.125291 1.571994
    2 7.536097 0.109378 -0.101566 0.015999 0.037428 0.166809
    3 10.768227 1.405423 -1.890734 -1.477198 1.254914 3.310364
    4 6.028143 0.000000 0.000000 0.958300 0.222517 -0.929701
    5 11.692554 0.000000 0.000008 0.000000 0.000000 -0.310375
    6 10.647123 1.428856 1.984536 1.124945 -1.290457 3.651805
    7 6.028142 0.000000 0.000000 -1.192272 0.153861 -1.155507
    8 11.692558 0.000000 0.000001 0.000000 0.000000 -0.463065
    9 15.094484 2.811105 0.183599 3.064649 0.026318 0.120728
    10 3.890452 -0.148446 -0.000003 -1.459340 -0.325971 -1.537013
    11 17.848175 0.000000 0.000000 0.000000 0.000000 0.240394
    12 16.525248 0.000000 0.000000 -0.212453 -0.173923 -1.030414
    13 -3.890452 0.148446 0.000007 -1.241089 -0.030552 -1.683036
    14 17.848171 0.000000 0.000000 0.000000 0.000000 0.708111
    15 16.525253 0.000000 0.000000 0.018751 -0.068453 -1.104419
    16 11.479830 -0.000111 0.000311 -0.751091 0.006939 0.171305
  time 20
    0 1.610978 31.765793 37.328598 1.580923 0.003404 0.061996
    1 0.000005 3.345128 -2.981901 1.570377 0.125291 1.568483
    2 7.536097 0.101566 -0.125004 0.011409 0.048909 0.163305
    3 10.772134 1.417142 -1.882921 -1.508410 1.259588 3.282427
    4 6.028143 0.000000 0.000000 0.962433 0.235655 -0.909146
    5 11.692554 0.000000 0.000008 0.000000 0.000000 -0.314543
    6 10.631498 1.440575 1.992349 1.090134 -1.283926 3.693502
    7 6.028142 0.000000 0.000000 -1.174969 0.147971 -1.179082
    8 11.692558 0.000000 0.000001 0.000000 0.000000 -0.385903
    9 15.078859 2.842356 0.207038 3.063803 0.021932 0.125876
    10 3.890452 -0.148446 -0.000003 -1.454426 -0.352040 -1.541615
    11 17.848175 0.000000 0.000000 0.000000 0.000000 0.215339
    12 16.525248 0.000000 0.000000 -0.189083 -0.193591 -1.055934
    13 -3.890452 0.148446 0.000007 -1.234273 0.080373 -1.662822
    14 17.848171 0.000000 0.000000 0.000000 0.000000 0.589157
    15 16.525253 0.000000 0.000000 0.025352 -0.084366 -1.097618
    16 11.479830 -0.000111 0.000311 -0.751091 0.006939 0.171305
  time 21
    0 1.610977 33.370879 37.094216 1.580935 0.003404 0.065981
    1 0.000005 3.345128 -2.981901 1.570544 0.125291 1.564312
    2 7.536097 0.093753 -0.152348 0.010163 0.061409 0.160670
    3 10.772134 1.424955 -1.871202 -1.528088 1.265161 3.267287
    4 6.028143 0.000000 0.000000 0.969201 0.238736 -0.889305
    5 11.692554 0.000000 0.000008 0.000000 0.000000 -0.333888
    6 10.611966 1.448387 2.000162 1.073547 -1.277214 3.717222
    7 6.028142 0.000000 0.000000 -1.161405 0.128981 -1.203946
    8 11.692558 0.000000 0.000001 0.000000 0.000000 -0.292885
    9 15.059327 2.877513 0.242195 3.062933 0.016395 0.131689
    10 3.890452 -0.148446 -0.000003 -1.503686 -0.346288 -1.539292
    11 17.848175 0.000000 0.000000 0.000000 0.000000 0.127463
    12 16.525248 0.000000 0.000000 -0.126332 -0.172997 -1.065427
    13 -3.890452 0.148446 0.000007 -1.226933 0.180994 -1.639772
    14 17.848171 0.000000 0.000000 0.000000 0.000000 0.464065
    15 16.525253 0.000000 0.000000 0.033449 -0.094604 -1.093668
    16 11.479830 -0.000111 0.000311 -0.751091 0.006939 0.171305
  time 22
    0 1.610977 34.975966 36.914523 1.580935 0.003404 0.068457
    1 0.000005 3.345128 -2.981901 1.570652 0.125279 1.559602
    2 7.532191 0.089847 -0.183599 0.011553 0.074257 0.159388
    3 10.776040 1.436674 -1.859483 -1.533730 1.271141 3.267334
    4 6.028143 0.000000 0.000000 0.976468 0.238624 -0.877554
    5 11.692554 0.000000 0.000008 0.000000 0.000000 -0.349813
    6 10.588528 1.460106 2.011881 1.075374 -1.271390 3.722401
    7 6.028142 0.000000 0.000000 -1.153809 0.106846 -1.221664
    8 11.692558 0.000000 0.000001 0.000000 0.000000 -0.223740
    9 15.039795 2.912671 0.281259 3.062111 0.010391 0.137843
    10 3.890452 -0.148446 -0.000003 -1.592243 -0.320019 -1.540796
    11 17.848175 0.000000 0.000000 0.000000 0.000000 0.000044
    12 16.525248 0.000000 0.000000 -0.041017 -0.112846 -1.030979
    13 -3.890452 0.148446 0.000007 -1.293244 0.241422 -1.608414
    14 17.848171 0.000000 0.000000 0.000000 0.000000 0.377485
    15 16.525253 0.000000 0.000000 0.087944 -0.037088 -1.113834
    16 11.479830 -0.000111 0.000311 -0.751091 0.006939 0.171305
  time 23
    0 1.610977 36.581053 36.836396 1.580947 0.003404 0.069103
    1 0.000005 3.345128 -2.981901 1.570700 0.125279 1.554557
    2 7.532191 0.089847 -0.214850 0.014609 0.086373 0.159744
    3 10.776040 1.448393 -1.847764 -1.523129 1.277122 3.284372
    4 6.028143 0.000000 0.000000 0.980670 0.248663 -0.885574
    5 11.692554 0.000000 0.000008 0.000000 0.000000 -0.328788
    6 10.568996 1.467919 2.019694 1.095299 -1.266980 3.708757
    7 6.028142 0.000000 0.000000 -1.154279 0.096345 -1.221474
    8 11.692558 0.000000 0.000001 0.000000 0.000000 -0.224584
    9 15.020263 2.951734 0.316416 3.061430 0.004422 0.143997
    10 3.890452 -0.148446 -0.000003 -1.634153 -0.391876 -1.542013
    11 17.848175 0.000000 0.000000 0.000000 0.000000 0.087344
    12 16.525248 0.000000 0.000000 0.020167 -0.088510 -1.127708
    13 -3.890452 0.148446 0.000007 -1.320530 0.232016 -1.600991
    14 17.848171 0.000000 0.000000 0.000000 0.000000 0.377733
    15 16.525253 0.000000 0.000000 0.104311 -0.005057 -1.160371
    16 11.479830 -0.000111 0.000311 -0.751091 0.006939 0.171305
  time 24
    0 1.610977 38.186140 36.859834 1.580935 0.003404 0.066896
    1 0.000005 3.345128 -2.981901 1.570712 0.125267 1.549547
    2 7.528284 0.089847 -0.238289 0.019223 0.096536 0.161525
    3 10.779946 1.460112 -1.839951 -1.497081 1.282563 3.317090
    4 6.028143 0.000000 0.000000 0.982237 0.256346 -0.902381
    5 11.692554 0.000000 0.000008 0.000000 0.000000 -0.304776
    6 10.549464 1.479638 2.031413 1.130320 -1.263912 3.678891
    7 6.028142 0.000000 0.000000 -1.162947 0.078256 -1.217647
    8 11.692558 0.000000 0.000001 0.000000 0.000000 -0.227357
    9 15.000731 2.986892 0.351573 3.060936 -0.001091 0.149681
    10 3.890452 -0.148446 -0.000003 -1.815087 -0.471216 -1.512191
    11 17.848175 0.000000 0.000000 0.000000 0.000000 0.267750
    12 16.525248 0.000000 0.000000 0.112839 0.056329 -1.240788
    13 -3.890452 0.148446 0.000007 -1.266825 0.168556 -1.620764
    14 17.848171 0.000000 0.000000 0.000000 0.000000 0.440996
    15 16.525253 0.000000 0.000000 0.064304 -0.042492 -1.223540
    16 11.479830 -0.000111 0.000311 -0.751091 0.006939 0.171305
  time 25
    0 1.610977 39.791227 36.957493 1.580911 0.003404 0.061566
    1 0.000005 3.345128 -2.981901 1.570676 0.125255 1.544981
    2 7.528284 0.093753 -0.257820 0.025276 0.103954 0.164316
    3 10.779946 1.467925 -1.828232 -1.457497 1.286733 3.362909
    4 6.028143 0.000000 0.000000 0.981601 0.254453 -0.921437
    5 11.692554 0.000000 0.000008 0.000000 0.000000 -0.295819
    6 10.533839 1.483545 2.039226 1.177204 -1.261874 3.635501
    7 6.028142 0.000000 0.000000 -1.178926 0.054131 -1.210395
    8 11.692558 0.000000 0.000001 0.000000 0.000000 -0.230070
    9 14.985106 3.014236 0.382824 3.060678 -0.005789 0.154406
    10 3.890452 -0.148446 -0.000003 -1.858472 -0.553847 -1.463189
    11 17.848175 0.000000 0.000000 0.000000 0.000000 0.541316
    12 16.525248 0.000000 0.000000 0.115913 0.070098 -1.346231
    13 -3.890452 0.148446 0.000007 -1.239357 0.126661 -1.629104
    14 17.848171 0.000000 0.000000 0.000000 0.000000 0.452134
    15 16.525253 0.000000 0.000000 0.040434 -0.059102 -1.267078
    16 11.479830 -0.000111 0.000311 -0.751091 0.006939 0.171305
  time 26
    0 1.610976 41.396313 37.152812 1.580887 0.003416 0.053974
    1 0.000005 3.345128 -2.981901 1.570640 0.125243 1.541218
    2 7.528284 0.101566 -0.273446 0.032682 0.108377 0.167792
    3 10.779946 1.475738 -1.820419 -1.407039 1.288903 3.418853
    4 6.028143 0.000000 0.000000 0.979307 0.242428 -0.940650
    5 11.692554 0.000000 0.000008 0.000000 0.000000 -0.302475
    6 10.518213 1.487451 2.043132 1.233052 -1.260652 3.581249
    7 6.028142 0.000000 0.000000 -1.200202 0.024535 -1.200373
    8 11.692558 0.000000 0.000001 0.000000 0.000000 -0.229588
    9 14.973387 3.033768 0.402356 3.060654 -0.009264 0.157897
    10 3.890452 -0.148446 -0.000003 -1.887425 -0.574264 -1.418190
    11 17.848175 0.000000 0.000000 0.000000 0.000000 0.742488
    12 16.525248 0.000000 0.000000 0.102631 0.075525 -1.342305
    13 -3.890452 0.148446 0.000007 -1.252464 0.100980 -1.622157
    14 17.848171 0.000000 0.000000 0.000000 0.000000 0.417186
    15 16.525253 0.000000 0.000000 0.037325 -0.041446 -1.287897
    16 11.479830 -0.000111 0.000311 -0.751091 0.006939 0.171305
  time 27
    0 1.610976 43.001400 37.437977 1.580863 0.003416 0.044876
    1 0.000005 3.345128 -2.981901 1.570580 0.125231 1.538486
    2 7.524378 0.109378 -0.277352 0.041323 0.109851 0.171538
    3 10.783853 1.483551 -1.816513 -1.348460 1.288974 3.482085
    4 6.028143 0.000000 0.000000 0.975424 0.222703 -0.960508
    5 11.692554 0.000000 0.000008 0.000000 0.000000 -0.318524
    6 10.510400 1.491357 2.047038 1.296124 -1.259453 3.518050
    7 6.028142 0.000000 0.000000 -1.224782 -0.010050 -1.187560
    8 11.692558 0.000000 0.000001 0.000000 0.000000 -0.223499
    9 14.965574 3.049394 0.417982 3.060795 -0.011769 0.160220
    10 3.890452 -0.148446 -0.000003 -1.905029 -0.541876 -1.388634
    11 17.848175 0.000000 0.000000 0.000000 0.000000 0.845690
    12 16.525248 0.000000 0.000000 0.091439 0.086210 -1.254019
    13 -3.890452 0.148446 0.000007 -1.263314 0.095163 -1.609603
    14 17.848171 0.000000 0.000000 0.000000 0.000000 0.335309
    15 16.525253 0.000000 0.000000 0.030725 -0.028038 -1.277532
    16 11.479830 -0.000111 0.000311 -0.751091 0.006939 0.171305
  time 28
    0 1.610976 44.606487 37.734861 1.580827 0.003416 0.035131
    1 0.000005 3.345128 -2.981901 1.570508 0.125219 1.536832
    2 7.524378 0.117191 -0.281259 0.051090 0.109144 0.174984
    3 10.783853 1.483551 -1.812606 -1.284603 1.287165 3.549700
    4 6.028143 0.000000 0.000000 0.970132 0.198060 -0.981465
    5 11.692554 0.000000 0.000008 0.000000 0.000000 -0.336688
    6 10.506494 1.491357 2.050945 1.364402 -1.257404 3.448058
    7 6.028142 0.000000 0.000000 -1.250653 -0.048030 -1.172126
    8 11.692558 0.000000 0.000001 0.000000 0.000000 -0.211141
    9 14.961668 3.057206 0.433607 3.060960 -0.013782 0.161421
    10 3.890452 -0.148446 -0.000003 -1.910078 -0.471714 -1.375802
    11 17.848175 0.000000 0.000000 0.000000 0.000000 0.874668
    12 16.525248 0.000000 0.000000 0.087634 0.097333 -1.142499
    13 -3.890452 0.148446 0.000007 -1.289893 0.107168 -1.590612
    14 17.848171 0.000000 0.000000 0.000000 0.000000 0.211900
    15 16.525253 0.000000 0.000000 0.029593 -0.002283 -1.234232
    16 11.479830 -0.000111 0.000311 -0.751091 0.006939 0.171305
  time 29
    0 1.610976 46.211574 37.961430 1.580791 0.003416 0.025493
    1 0.000005 3.345128 -2.981901 1.570377 0.125219 1.536196
    2 7.524378 0.121098 -0.281259 0.061829 0.106807 0.177548
    3 10.787759 1.487457 -1.808700 -1.218994 1.283378 3.618136
    4 6.028143 0.000000 0.000000 0.963955 0.170634 -1.003398
    5 11.692554 0.000000 0.000008 0.000000 0.000000 -0.351492
    6 10.502588 1.491357 2.054851 1.434906 -1.254276 3.374439
    7 6.028142 0.000000 0.000000 -1.275920 -0.086492 -1.154302
    8 11.692558 0.000000 0.000001 0.000000 0.000000 -0.194925
    9 14.961668 3.057206 0.441420 3.061171 -0.015256 0.161535
    10 3.890452 -0.148446 -0.000003 -1.925984 -0.370562 -1.368856
    11 17.848175 0.000000 0.000000 0.000000 0.000000 0.848514
    12 16.525248 0.000000 0.000000 0.102363 0.117996 -1.033345
    13 -3.890452 0.148446 0.000007 -1.333751 0.160789 -1.563842
    14 17.848171 0.000000 0.000000 0.000000 0.000000 0.000030
    15 16.525253 0.000000 0.000000 0.035445 0.038608 -1.127673
    16 11.479830 -0.000111 0.000311 -0.751091 0.006939 0.171305
  time 30
    0 1.610976 47.816660 38.105966 1.580767 0.003416 0.016825
    1 0.000005 3.345128 -2.981901 1.570281 0.125219 1.537359
    2 7.524378 0.125004 -0.277352 0.073250 0.102732 0.178716
    3 10.791666 1.483551 -1.808700 -1.155114 1.277685 3.683876
    4 6.028143 0.000000 0.000000 0.957846 0.142001 -1.025697
    5 11.692554 0.000000 0.000008 0.000000 0.000000 -0.359579
    6 10.502588 1.487451 2.058757 1.504654 -1.250069 3.300316
    7 6.028142 0.000000 0.000000 -1.300114 -0.110576 -1.128402
    8 11.692558 0.000000 0.000001 0.000000 0.000000 -0.214456
    9 14.961668 3.049394 0.449232 3.061406 -0.016155 0.160625
    10 3.890452 -0.148446 -0.000003 -1.957752 -0.271703 -1.358259
    11 17.848175 0.000000 0.000000 0.000000 0.000000 0.813103
    12 16.525248 0.000000 0.000000 0.135626 0.145703 -0.931856
    13 -3.890452 0.148446 0.000007 -1.375785 0.116017 -1.565285
    14 17.848171 0.000000 0.000000 0.000000 0.000000 0.000030
    15 16.525253 0.000000 0.000000 0.040568 0.073222 -1.105429
    16 11.479830 -0.000111 0.000311 -0.751091 0.006939 0.171305
end
