// Created by Crowbar 0.74
version 1
nodes
  0 "ValveBiped.Bip01" -1
  1 "ValveBiped.Bip01_Spine" 0
  2 "ValveBiped.Bip01_Spine2" 1
  3 "ValveBiped.Bip01_R_Clavicle" 2
  4 "ValveBiped.Bip01_R_UpperArm" 3
  5 "ValveBiped.Bip01_R_Forearm" 4
  6 "ValveBiped.Bip01_L_Clavicle" 2
  7 "ValveBiped.Bip01_L_UpperArm" 6
  8 "ValveBiped.Bip01_L_Forearm" 7
  9 "ValveBiped.Bip01_Head1" 2
  10 "ValveBiped.Bip01_L_Thigh" 0
  11 "ValveBiped.Bip01_L_Calf" 10
  12 "ValveBiped.Bip01_L_Foot" 11
  13 "ValveBiped.Bip01_R_Thigh" 0
  14 "ValveBiped.Bip01_R_Calf" 13
  15 "ValveBiped.Bip01_R_Foot" 14
  16 "ValveBiped.Bip01_R_Hand" 5
end
skeleton
  time 0
    0 1.610982 -0.335943 37.758299 1.580683 0.003416 -0.005572
    1 0.000005 3.345128 -2.981901 1.570221 0.125255 1.544909
    2 7.528284 0.121098 -0.257820 0.096871 0.089117 0.177206
    3 10.795572 1.479644 -1.804793 -1.349620 1.293624 3.476788
    4 6.028143 0.000000 0.000000 0.981942 0.205390 -0.974578
    5 11.692554 0.000000 0.000008 0.000000 0.000000 -0.339860
    6 10.510400 1.479638 2.058757 1.295536 -1.254899 3.514422
    7 6.028142 0.000000 0.000000 -1.217941 0.114581 -1.124638
    8 11.692558 0.000000 0.000001 0.000000 0.000000 -0.512739
    9 14.977293 3.022049 0.449232 3.061947 -0.016287 0.156030
    10 3.890452 -0.148446 -0.000003 -1.804922 -0.573532 -1.587122
    11 17.848175 0.000000 0.000000 0.000000 0.000000 0.777795
    12 16.525248 0.000000 0.000000 0.461052 0.076351 -0.724601
    13 -3.890452 0.148446 0.000007 -1.407766 -0.096859 -1.510826
    14 17.848171 0.000000 0.000000 0.000000 0.000000 0.587523
    15 16.525253 0.000000 0.000000 0.004686 0.136492 -1.210681
    16 11.479830 -0.000111 0.000311 -0.751091 0.006939 0.171305
  time 1
    0 0.277073 -0.337523 37.648921 1.580647 0.003416 -0.017417
    1 0.000005 3.345128 -2.981901 1.570161 0.125267 1.549835
    2 7.528284 0.117191 -0.246101 0.108413 0.079769 0.175084
    3 10.799478 1.471832 -1.808700 -1.410042 1.295422 3.410579
    4 6.028143 0.000000 0.000000 0.984349 0.227342 -0.960491
    5 11.692554 0.000000 0.000008 0.000000 0.000000 -0.321199
    6 10.514307 1.475732 2.058757 1.233766 -1.254156 3.575183
    7 6.028142 0.000000 0.000000 -1.193529 0.121749 -1.139269
    8 11.692558 0.000000 0.000001 0.000000 0.000000 -0.452877
    9 14.989012 3.002517 0.449232 3.062252 -0.015640 0.152490
    10 3.890452 -0.148446 -0.000003 -1.728005 -0.516073 -1.705237
    11 17.848175 0.000000 0.000000 0.000000 0.000000 0.668108
    12 16.525248 0.000000 0.000000 0.378409 -0.019782 -0.784435
    13 -3.890452 0.148446 0.000007 -1.425045 -0.088010 -1.465676
    14 17.848171 0.000000 0.000000 0.000000 0.000000 0.569950
    15 16.525253 0.000000 0.000000 -0.020699 0.171186 -1.218699
    16 11.479830 -0.000111 0.000311 -0.751091 0.006939 0.171305
  time 2
    0 -1.056835 -0.339103 37.441883 1.580611 0.003416 -0.029262
    1 0.000005 3.345128 -2.981901 1.570065 0.125279 1.554701
    2 7.528284 0.113285 -0.226569 0.119355 0.069211 0.172392
    3 10.803385 1.464019 -1.808700 -1.462229 1.295710 3.352292
    4 6.028143 0.000000 0.000000 0.984735 0.242299 -0.947868
    5 11.692554 0.000000 0.000008 0.000000 0.000000 -0.310375
    6 10.522119 1.467919 2.054851 1.180878 -1.252934 3.625929
    7 6.028142 0.000000 0.000000 -1.173795 0.121183 -1.153266
    8 11.692558 0.000000 0.000001 0.000000 0.000000 -0.383853
    9 15.000731 2.975173 0.441420 3.062557 -0.014669 0.148333
    10 3.890452 -0.148446 -0.000003 -1.643491 -0.444780 -1.796694
    11 17.848175 0.000000 0.000000 0.000000 0.000000 0.535039
    12 16.525248 0.000000 0.000000 0.244684 -0.161688 -0.846609
    13 -3.890452 0.148446 0.000007 -1.393018 -0.081883 -1.434930
    14 17.848171 0.000000 0.000000 0.000000 0.000000 0.573465
    15 16.525253 0.000000 0.000000 -0.065504 0.144147 -1.236905
    16 11.479830 -0.000111 0.000311 -0.751091 0.006939 0.171305
  time 3
    0 -2.390743 -0.340683 37.164531 1.580563 0.003416 -0.042022
    1 0.000005 3.345128 -2.981901 1.569993 0.125279 1.558931
    2 7.532191 0.109378 -0.199225 0.129470 0.058173 0.169672
    3 10.811197 1.456206 -1.812606 -1.502973 1.294967 3.305489
    4 6.028143 0.000000 0.000000 0.982759 0.247977 -0.936082
    5 11.692554 0.000000 0.000008 0.000000 0.000000 -0.314543
    6 10.533839 1.460106 2.054851 1.139495 -1.251735 3.664239
    7 6.028142 0.000000 0.000000 -1.161002 0.114120 -1.166121
    8 11.692558 0.000000 0.000001 0.000000 0.000000 -0.312055
    9 15.016357 2.947828 0.433607 3.062863 -0.013471 0.143754
    10 3.890452 -0.148446 -0.000003 -1.618716 -0.367236 -1.843064
    11 17.848175 0.000000 0.000000 0.000000 0.000000 0.393862
    12 16.525248 0.000000 0.000000 0.158966 -0.297038 -0.909966
    13 -3.890452 0.148446 0.000007 -1.439087 -0.107100 -1.402282
    14 17.848171 0.000000 0.000000 0.000000 0.000000 0.642421
    15 16.525253 0.000000 0.000000 -0.029583 0.137253 -1.224401
    16 11.479830 -0.000111 0.000311 -0.751091 0.006939 0.171305
  time 4
    0 -3.724651 -0.342263 36.859834 1.580528 0.003416 -0.052251
    1 0.000005 3.345128 -2.981901 1.569957 0.125291 1.561939
    2 7.532191 0.105472 -0.175787 0.138626 0.048142 0.167635
    3 10.815104 1.448393 -1.812606 -1.529498 1.293708 3.273545
    4 6.028143 0.000000 0.000000 0.982328 0.243598 -0.925238
    5 11.692554 0.000000 0.000008 0.000000 0.000000 -0.333888
    6 10.541651 1.452294 2.050945 1.111970 -1.251112 3.688201
    7 6.028142 0.000000 0.000000 -1.152552 0.103744 -1.175234
    8 11.692558 0.000000 0.000001 0.000000 0.000000 -0.250566
    9 15.028076 2.920483 0.425794 3.063145 -0.012152 0.139288
    10 3.890452 -0.148446 -0.000003 -1.572270 -0.337808 -1.863417
    11 17.848175 0.000000 0.000000 0.000000 0.000000 0.341765
    12 16.525248 0.000000 0.000000 0.070905 -0.430400 -0.958344
    13 -3.890452 0.148446 0.000007 -1.381278 -0.135319 -1.416007
    14 17.848171 0.000000 0.000000 0.000000 0.000000 0.727664
    15 16.525253 0.000000 0.000000 -0.045011 0.016783 -1.164262
    16 11.479830 -0.000111 0.000311 -0.751091 0.006939 0.171305
  time 5
    0 -5.058560 -0.343843 36.586388 1.580516 0.003404 -0.056451
    1 0.000005 3.345128 -2.981901 1.569957 0.125291 1.563090
    2 7.532191 0.105472 -0.164068 0.146967 0.042545 0.166837
    3 10.815104 1.440581 -1.816513 -1.539372 1.292330 3.260396
    4 6.028143 0.000000 0.000000 0.986529 0.235841 -0.919066
    5 11.692554 0.000000 0.000008 0.000000 0.000000 -0.349813
    6 10.549464 1.448387 2.050945 1.100632 -1.251567 3.696807
    7 6.028142 0.000000 0.000000 -1.145108 0.098274 -1.177411
    8 11.692558 0.000000 0.000001 0.000000 0.000000 -0.223740
    9 15.035889 2.904858 0.417982 3.063403 -0.010822 0.136317
    10 3.890452 -0.148446 -0.000003 -1.534783 -0.386556 -1.855519
    11 17.848175 0.000000 0.000000 0.000000 0.000000 0.440206
    12 16.525248 0.000000 0.000000 0.001737 -0.489707 -1.009358
    13 -3.890452 0.148446 0.000007 -1.320803 -0.138320 -1.411132
    14 17.848171 0.000000 0.000000 0.000000 0.000000 0.748207
    15 16.525253 0.000000 0.000000 -0.093691 -0.092195 -0.997534
    16 11.479830 -0.000111 0.000311 -0.751091 0.006939 0.171305
  time 6
    0 -6.392468 -0.345424 36.414508 1.580528 0.003416 -0.052574
    1 0.000005 3.345128 -2.981901 1.570281 0.125291 1.567356
    2 7.536097 0.105472 -0.132817 0.143743 0.029015 0.167193
    3 10.811197 1.436674 -1.824325 -1.533229 1.287992 3.263326
    4 6.028143 0.000000 0.000000 0.984803 0.239255 -0.934077
    5 11.692554 0.000000 0.000008 0.000000 0.000000 -0.328788
    6 10.565089 1.440575 2.043132 1.101472 -1.255894 3.691527
    7 6.028142 0.000000 0.000000 -1.147824 0.095465 -1.170730
    8 11.692558 0.000000 0.000001 0.000000 0.000000 -0.224584
    9 15.051514 2.881420 0.390637 3.064226 -0.006448 0.132631
    10 3.890452 -0.148446 -0.000003 -1.551025 -0.415385 -1.815476
    11 17.848175 0.000000 0.000000 0.000000 0.000000 0.513488
    12 16.525248 0.000000 0.000000 0.004274 -0.454837 -1.093663
    13 -3.890452 0.148446 0.000007 -1.277402 -0.128636 -1.379860
    14 17.848171 0.000000 0.000000 0.000000 0.000000 0.741129
    15 16.525253 0.000000 0.000000 -0.149950 -0.042160 -0.960441
    16 11.479830 -0.000111 0.000311 -0.751091 0.006939 0.171305
  time 7
    0 -7.726376 -0.347004 36.387163 1.580563 0.003416 -0.043045
    1 0.000005 3.345128 -2.981901 1.570257 0.125291 1.571168
    2 7.536097 0.109378 -0.105472 0.137008 0.016371 0.168746
    3 10.811197 1.428861 -1.832138 -1.511504 1.283114 3.282005
    4 6.028143 0.000000 0.000000 0.983509 0.238884 -0.955191
    5 11.692554 0.000000 0.000008 0.000000 0.000000 -0.304776
    6 10.580715 1.436668 2.035319 1.118394 -1.261898 3.669036
    7 6.028142 0.000000 0.000000 -1.155486 0.085362 -1.162040
    8 11.692558 0.000000 0.000001 0.000000 0.000000 -0.227357
    9 15.063233 2.854075 0.363292 3.065048 -0.001558 0.128457
    10 3.890452 -0.148446 -0.000003 -1.584468 -0.417779 -1.768952
    11 17.848175 0.000000 0.000000 0.000000 0.000000 0.533888
    12 16.525248 0.000000 0.000000 0.017227 -0.403603 -1.155595
    13 -3.890452 0.148446 0.000007 -1.180044 -0.115486 -1.366016
    14 17.848171 0.000000 0.000000 0.000000 0.000000 0.740832
    15 16.525253 0.000000 0.000000 -0.220332 -0.084096 -0.962193
    16 11.479830 -0.000111 0.000311 -0.751091 0.006939 0.171305
  time 8
    0 -9.060284 -0.348584 36.543418 1.580599 0.003416 -0.031307
    1 0.000005 3.345128 -2.981901 1.570029 0.125291 1.574475
    2 7.536097 0.117191 -0.085940 0.127492 0.007083 0.171125
    3 10.807291 1.421049 -1.843857 -1.477312 1.277757 3.313739
    4 6.028143 0.000000 0.000000 0.981487 0.228771 -0.973898
    5 11.692554 0.000000 0.000008 0.000000 0.000000 -0.295819
    6 10.596340 1.428856 2.027506 1.150581 -1.268837 3.630725
    7 6.028142 0.000000 0.000000 -1.169067 0.069432 -1.154302
    8 11.692558 0.000000 0.000001 0.000000 0.000000 -0.230070
    9 15.078859 2.830637 0.332041 3.065776 0.003500 0.124219
    10 3.890452 -0.148446 -0.000003 -1.606138 -0.424696 -1.724197
    11 17.848175 0.000000 0.000000 0.000000 0.000000 0.554706
    12 16.525248 0.000000 0.000000 0.004826 -0.358873 -1.170359
    13 -3.890452 0.148446 0.000007 -1.210202 -0.124458 -1.310826
    14 17.848171 0.000000 0.000000 0.000000 0.000000 0.739198
    15 16.525253 0.000000 0.000000 -0.156973 -0.114447 -0.941077
    16 11.479830 -0.000111 0.000311 -0.751091 0.006939 0.171305
  time 9
    0 -10.394193 -0.350164 36.859834 1.580635 0.003416 -0.020647
    1 0.000005 3.345128 -2.981901 1.569765 0.125291 1.577184
    2 7.536097 0.125004 -0.070315 0.115795 0.001498 0.173845
    3 10.803385 1.413236 -1.851670 -1.433542 1.271860 3.355901
    4 6.028143 0.000000 0.000000 0.976219 0.209880 -0.988857
    5 11.692554 0.000000 0.000008 0.000000 0.000000 -0.302475
    6 10.611966 1.421043 2.019694 1.197108 -1.275932 3.578005
    7 6.028142 0.000000 0.000000 -1.189941 0.048073 -1.148382
    8 11.692558 0.000000 0.000001 0.000000 0.000000 -0.229588
    9 15.090578 2.807199 0.300790 3.066387 0.008485 0.120355
    10 3.890452 -0.148446 -0.000003 -1.630065 -0.410464 -1.678358
    11 17.848175 0.000000 0.000000 0.000000 0.000000 0.529547
    12 16.525248 0.000000 0.000000 -0.010739 -0.312543 -1.151669
    13 -3.890452 0.148446 0.000007 -1.319481 -0.118765 -1.249505
    14 17.848171 0.000000 0.000000 0.000000 0.000000 0.661876
    15 16.525253 0.000000 0.000000 -0.022100 -0.129805 -0.838676
    16 11.479830 -0.000111 0.000311 -0.751091 0.006939 0.171305
  time 10
    0 -11.728101 -0.351744 37.207501 1.580671 0.003416 -0.011764
    1 0.000005 3.345128 -2.981901 1.569598 0.125291 1.579209
    2 7.536097 0.128910 -0.062502 0.102528 -0.000791 0.176366
    3 10.799478 1.405423 -1.859483 -1.383061 1.265305 3.405892
    4 6.028143 0.000000 0.000000 0.967316 0.185163 -1.001131
    5 11.692554 0.000000 0.000008 0.000000 0.000000 -0.318524
    6 10.627591 1.417136 2.011881 1.256589 -1.282356 3.512729
    7 6.028142 0.000000 0.000000 -1.216852 0.021454 -1.143519
    8 11.692558 0.000000 0.000001 0.000000 0.000000 -0.223499
    9 15.102297 2.787667 0.269539 3.066810 0.013207 0.117139
    10 3.890452 -0.148446 -0.000003 -1.644675 -0.385625 -1.636147
    11 17.848175 0.000000 0.000000 0.000000 0.000000 0.481424
    12 16.525248 0.000000 0.000000 -0.032093 -0.273780 -1.119668
    13 -3.890452 0.148446 0.000007 -1.332497 -0.109173 -1.256401
    14 17.848171 0.000000 0.000000 0.000000 0.000000 0.602918
    15 16.525253 0.000000 0.000000 0.019711 -0.182805 -0.761460
    16 11.479830 -0.000111 0.000311 -0.751091 0.006939 0.171305
  time 11
    0 -13.062009 -0.353324 37.488760 1.580719 0.003416 0.002504
    1 0.000005 3.345128 -2.981901 1.569538 0.125291 1.580396
    2 7.536097 0.132817 -0.058596 0.088267 -0.000431 0.178146
    3 10.791666 1.401517 -1.867295 -1.328531 1.258030 3.461015
    4 6.028143 0.000000 0.000000 0.961661 0.155937 -1.012185
    5 11.692554 0.000000 0.000008 0.000000 0.000000 -0.336688
    6 10.639310 1.413230 2.004068 1.326799 -1.287294 3.437337
    7 6.028142 0.000000 0.000000 -1.241264 -0.010699 -1.137514
    8 11.692558 0.000000 0.000001 0.000000 0.000000 -0.211141
    9 15.110110 2.772041 0.242195 3.067022 0.017498 0.114752
    10 3.890452 -0.148446 -0.000003 -1.602564 -0.361451 -1.607896
    11 17.848175 0.000000 0.000000 0.000000 0.000000 0.430791
    12 16.525248 0.000000 0.000000 -0.084966 -0.271623 -1.077125
    13 -3.890452 0.148446 0.000007 -1.304961 -0.127924 -1.304117
    14 17.848171 0.000000 0.000000 0.000000 0.000000 0.616432
    15 16.525253 0.000000 0.000000 0.021591 -0.221778 -0.739691
    16 11.479830 -0.000111 0.000311 -0.751091 0.006939 0.171305
  time 12
    0 -14.395918 -0.354904 37.672359 1.580779 0.003416 0.022694
    1 0.000005 3.345128 -2.981901 1.569502 0.125291 1.580551
    2 7.536097 0.136723 -0.054689 0.073633 0.001906 0.178759
    3 10.787759 1.397611 -1.875108 -1.272477 1.250049 3.518740
    4 6.028143 0.000000 0.000000 0.960117 0.124762 -1.024006
    5 11.692554 0.000000 0.000008 0.000000 0.000000 -0.351492
    6 10.647123 1.409324 1.996256 1.404504 -1.290134 3.355133
    7 6.028142 0.000000 0.000000 -1.260998 -0.046081 -1.129501
    8 11.692558 0.000000 0.000001 0.000000 0.000000 -0.194925
    9 15.114016 2.760322 0.218757 3.066998 0.021225 0.113193
    10 3.890452 -0.148446 -0.000003 -1.532929 -0.341499 -1.584202
    11 17.848175 0.000000 0.000000 0.000000 0.000000 0.385860
    12 16.525248 0.000000 0.000000 -0.152209 -0.284347 -1.033130
    13 -3.890452 0.148446 0.000007 -1.262836 -0.167467 -1.380964
    14 17.848171 0.000000 0.000000 0.000000 0.000000 0.686924
    15 16.525253 0.000000 0.000000 0.026830 -0.229988 -0.754570
    16 11.479830 -0.000111 0.000311 -0.751091 0.006939 0.171305
  time 13
    0 -15.729826 -0.356484 37.762205 1.580803 0.003416 0.029585
    1 0.000005 3.345128 -2.981901 1.569514 0.125291 1.579892
    2 7.536097 0.132817 -0.058596 0.059228 0.005908 0.178189
    3 10.783853 1.397611 -1.882921 -1.217105 1.241551 3.576629
    4 6.028143 0.000000 0.000000 0.944855 0.098004 -1.036071
    5 11.692554 0.000000 0.000008 0.000000 0.000000 -0.359579
    6 10.654936 1.409324 1.988443 1.485569 -1.290457 3.270329
    7 6.028142 0.000000 0.000000 -1.294397 -0.066768 -1.113876
    8 11.692558 0.000000 0.000001 0.000000 0.000000 -0.214456
    9 15.117922 2.756416 0.199225 3.066763 0.024281 0.112430
    10 3.890452 -0.148446 -0.000003 -1.558040 -0.325671 -1.540265
    11 17.848175 0.000000 0.000000 0.000000 0.000000 0.349663
    12 16.525248 0.000000 0.000000 -0.165878 -0.239703 -1.009116
    13 -3.890452 0.148446 0.000007 -1.219548 -0.199244 -1.478569
    14 17.848171 0.000000 0.000000 0.000000 0.000000 0.758603
    15 16.525253 0.000000 0.000000 0.041336 -0.213045 -0.766212
    16 11.479830 -0.000111 0.000311 -0.751091 0.006939 0.171305
  time 14
    0 -17.063734 -0.358065 37.738767 1.580827 0.003416 0.036746
    1 0.000005 3.345128 -2.981901 1.569610 0.125291 1.578766
    2 7.536097 0.128910 -0.062502 0.045697 0.011517 0.176565
    3 10.779946 1.393704 -1.886827 -1.164418 1.232851 3.632526
    4 6.028143 0.000000 0.000000 0.930207 0.073750 -1.048101
    5 11.692554 0.000000 0.000008 0.000000 0.000000 -0.359393
    6 10.658842 1.413230 1.984536 1.565227 -1.288204 3.187681
    7 6.028142 0.000000 0.000000 -1.326991 -0.081001 -1.091042
    8 11.692558 0.000000 0.000001 0.000000 0.000000 -0.262201
    9 15.117922 2.756416 0.183599 3.066340 0.026546 0.112414
    10 3.890452 -0.148446 -0.000003 -1.528394 -0.319420 -1.505952
    11 17.848175 0.000000 0.000000 0.000000 0.000000 0.331774
    12 16.525248 0.000000 0.000000 -0.215915 -0.232793 -0.984563
    13 -3.890452 0.148446 0.000007 -1.183646 -0.219077 -1.583818
    14 17.848171 0.000000 0.000000 0.000000 0.000000 0.815976
    15 16.525253 0.000000 0.000000 0.078944 -0.178003 -0.783526
    16 11.479830 -0.000111 0.000311 -0.751091 0.006939 0.171305
  time 15
    0 -18.397642 -0.359645 37.602044 1.580851 0.003416 0.043853
    1 0.000005 3.345128 -2.981901 1.569765 0.125291 1.577112
    2 7.536097 0.125004 -0.070315 0.033617 0.018648 0.173945
    3 10.776040 1.397611 -1.890734 -1.115985 1.224437 3.685212
    4 6.028143 0.000000 0.000000 0.917149 0.053561 -1.060148
    5 11.692554 0.000000 0.000008 0.000000 0.000000 -0.350684
    6 10.658842 1.417136 1.980630 1.638838 -1.283650 3.112450
    7 6.028142 0.000000 0.000000 -1.356919 -0.103617 -1.067404
    8 11.692558 0.000000 0.000001 0.000000 0.000000 -0.300119
    9 15.114016 2.764229 0.175787 3.065847 0.027924 0.113664
    10 3.890452 -0.148446 -0.000003 -1.509383 -0.323277 -1.469803
    11 17.848175 0.000000 0.000000 0.000000 0.000000 0.333030
    12 16.525248 0.000000 0.000000 -0.259072 -0.217102 -0.970660
    13 -3.890452 0.148446 0.000007 -1.150251 -0.221305 -1.689067
    14 17.848171 0.000000 0.000000 0.000000 0.000000 0.848747
    15 16.525253 0.000000 0.000000 0.124708 -0.138966 -0.810671
    16 11.479830 -0.000111 0.000311 -0.751091 0.006939 0.171305
  time 16
    0 -19.731551 -0.361225 37.395007 1.580875 0.003416 0.050636
    1 0.000005 3.345128 -2.981901 1.569957 0.125291 1.574871
    2 7.536097 0.117191 -0.082034 0.023550 0.027301 0.170541
    3 10.772134 1.401517 -1.890734 -1.073103 1.216851 3.733679
    4 6.028143 0.000000 0.000000 0.906634 0.038512 -1.072108
    5 11.692554 0.000000 0.000008 0.000000 0.000000 -0.334510
    6 10.654936 1.421043 1.980630 1.702602 -1.277346 3.048908
    7 6.028142 0.000000 0.000000 -1.382656 -0.136001 -1.045288
    8 11.692558 0.000000 0.000001 0.000000 0.000000 -0.318626
    9 15.106203 2.783761 0.171880 3.065330 0.028308 0.116555
    10 3.890452 -0.148446 -0.000003 -1.482172 -0.333087 -1.434982
    11 17.848175 0.000000 0.000000 0.000000 0.000000 0.345374
    12 16.525248 0.000000 0.000000 -0.308587 -0.205321 -0.959796
    13 -3.890452 0.148446 0.000007 -1.123718 -0.202523 -1.781762
    14 17.848171 0.000000 0.000000 0.000000 0.000000 0.845677
    15 16.525253 0.000000 0.000000 0.170165 -0.101530 -0.851090
    16 11.479830 -0.000111 0.000311 -0.751091 0.006939 0.171305
  time 17
    0 -21.065459 -0.362805 37.156718 1.580899 0.003404 0.056774
    1 0.000005 3.345128 -2.981901 1.570173 0.125291 1.571994
    2 7.536097 0.109378 -0.101566 0.015999 0.037428 0.166809
    3 10.768227 1.405423 -1.890734 -1.034201 1.211794 3.778818
    4 6.028143 0.000000 0.000000 0.899139 0.028510 -1.084853
    5 11.692554 0.000000 0.000008 0.000000 0.000000 -0.313361
    6 10.647123 1.428856 1.984536 1.753286 -1.268741 3.000016
    7 6.028142 0.000000 0.000000 -1.403028 -0.172765 -1.024949
    8 11.692558 0.000000 0.000001 0.000000 0.000000 -0.320917
    9 15.094484 2.811105 0.183599 3.064649 0.026318 0.120728
    10 3.890452 -0.148446 -0.000003 -1.419284 -0.345157 -1.406332
    11 17.848175 0.000000 0.000000 0.000000 0.000000 0.362792
    12 16.525248 0.000000 0.000000 -0.384575 -0.214473 -0.943984
    13 -3.890452 0.148446 0.000007 -1.205802 -0.163042 -1.807888
    14 17.848171 0.000000 0.000000 0.000000 0.000000 0.779889
    15 16.525253 0.000000 0.000000 0.293947 -0.008274 -0.944344
    16 11.479830 -0.000111 0.000311 -0.751091 0.006939 0.171305
  time 18
    0 -22.399367 -0.364385 36.906711 1.580923 0.003404 0.061996
    1 0.000005 3.345128 -2.981901 1.570377 0.125291 1.568483
    2 7.536097 0.101566 -0.125004 0.011409 0.048909 0.163305
    3 10.772134 1.417142 -1.882921 -0.999873 1.209732 3.819551
    4 6.028143 0.000000 0.000000 0.895301 0.023221 -1.097476
    5 11.692554 0.000000 0.000008 0.000000 0.000000 -0.291091
    6 10.631498 1.440575 1.992349 1.788727 -1.258746 2.967711
    7 6.028142 0.000000 0.000000 -1.417078 -0.204772 -1.008330
    8 11.692558 0.000000 0.000001 0.000000 0.000000 -0.318867
    9 15.078859 2.842356 0.207038 3.063803 0.021932 0.125876
    10 3.890452 -0.148446 -0.000003 -1.396966 -0.356064 -1.370050
    11 17.848175 0.000000 0.000000 0.000000 0.000000 0.374666
    12 16.525248 0.000000 0.000000 -0.434089 -0.192311 -0.926020
    13 -3.890452 0.148446 0.000007 -1.191670 -0.029592 -1.814988
    14 17.848171 0.000000 0.000000 0.000000 0.000000 0.559653
    15 16.525253 0.000000 0.000000 0.291702 0.065076 -1.090877
    16 11.479830 -0.000111 0.000311 -0.751091 0.006939 0.171305
  time 19
    0 -23.733275 -0.365965 36.676235 1.580935 0.003404 0.065981
    1 0.000005 3.345128 -2.981901 1.570544 0.125291 1.564312
    2 7.536097 0.093753 -0.152348 0.010163 0.061409 0.160670
    3 10.772134 1.424955 -1.871202 -0.972892 1.210260 3.852808
    4 6.028143 0.000000 0.000000 0.895801 0.021867 -1.107414
    5 11.692554 0.000000 0.000008 0.000000 0.000000 -0.273238
    6 10.611966 1.448387 2.000162 1.808652 -1.249386 2.952153
    7 6.028142 0.000000 0.000000 -1.424086 -0.220429 -0.998583
    8 11.692558 0.000000 0.000001 0.000000 0.000000 -0.329357
    9 15.059327 2.877513 0.242195 3.062933 0.016395 0.131689
    10 3.890452 -0.148446 -0.000003 -1.415799 -0.382532 -1.324676
    11 17.848175 0.000000 0.000000 0.000000 0.000000 0.409555
    12 16.525248 0.000000 0.000000 -0.436432 -0.129043 -0.860028
    13 -3.890452 0.148446 0.000007 -1.176670 0.048906 -1.833402
    14 17.848171 0.000000 0.000000 0.000000 0.000000 0.407582
    15 16.525253 0.000000 0.000000 0.259754 0.027957 -1.132900
    16 11.479830 -0.000111 0.000311 -0.751091 0.006939 0.171305
  time 20
    0 -25.067184 -0.367545 36.492635 1.580935 0.003404 0.068457
    1 0.000005 3.345128 -2.981901 1.570652 0.125279 1.559602
    2 7.532191 0.089847 -0.183599 0.011553 0.074257 0.159388
    3 10.776040 1.436674 -1.859483 -0.955671 1.213436 3.875870
    4 6.028143 0.000000 0.000000 0.900025 0.023351 -1.112348
    5 11.692554 0.000000 0.000008 0.000000 0.000000 -0.265960
    6 10.588528 1.460106 2.011881 1.812914 -1.242064 2.953402
    7 6.028142 0.000000 0.000000 -1.424187 -0.209949 -0.998224
    8 11.692558 0.000000 0.000001 0.000000 0.000000 -0.364442
    9 15.039795 2.912671 0.281259 3.062111 0.010391 0.137843
    10 3.890452 -0.148446 -0.000003 -1.468924 -0.427123 -1.270430
    11 17.848175 0.000000 0.000000 0.000000 0.000000 0.465732
    12 16.525248 0.000000 0.000000 -0.364817 -0.060971 -0.719572
    13 -3.890452 0.148446 0.000007 -1.221144 0.065304 -1.848741
    14 17.848171 0.000000 0.000000 0.000000 0.000000 0.369515
    15 16.525253 0.000000 0.000000 0.245766 -0.032016 -1.206107
    16 11.479830 -0.000111 0.000311 -0.751091 0.006939 0.171305
  time 21
    0 -26.401092 -0.369125 36.414508 1.580947 0.003404 0.069103
    1 0.000005 3.345128 -2.981901 1.570700 0.125279 1.554557
    2 7.532191 0.089847 -0.214850 0.014609 0.086373 0.159744
    3 10.776040 1.448393 -1.847764 -0.950188 1.219356 3.886393
    4 6.028143 0.000000 0.000000 0.906815 0.027471 -1.110604
    5 11.692554 0.000000 0.000008 0.000000 0.000000 -0.273052
    6 10.568996 1.467919 2.019694 1.801493 -1.237557 2.971258
    7 6.028142 0.000000 0.000000 -1.418352 -0.180143 -1.005032
    8 11.692558 0.000000 0.000001 0.000000 0.000000 -0.416527
    9 15.020263 2.951734 0.316416 3.061430 0.004422 0.143997
    10 3.890452 -0.148446 -0.000003 -1.531902 -0.445179 -1.217423
    11 17.848175 0.000000 0.000000 0.000000 0.000000 0.477449
    12 16.525248 0.000000 0.000000 -0.259087 -0.057415 -0.605336
    13 -3.890452 0.148446 0.000007 -1.239266 0.055713 -1.855314
    14 17.848171 0.000000 0.000000 0.000000 0.000000 0.389217
    15 16.525253 0.000000 0.000000 0.218806 -0.119107 -1.278483
    16 11.479830 -0.000111 0.000311 -0.751091 0.006939 0.171305
  time 22
    0 -27.735000 -0.370706 36.441853 1.580935 0.003404 0.066896
    1 0.000005 3.345128 -2.981901 1.570712 0.125267 1.549547
    2 7.528284 0.089847 -0.238289 0.019223 0.096536 0.161525
    3 10.779946 1.460112 -1.839951 -0.956672 1.227541 3.883932
    4 6.028143 0.000000 0.000000 0.914537 0.034429 -1.102707
    5 11.692554 0.000000 0.000008 0.000000 0.000000 -0.292335
    6 10.549464 1.479638 2.031413 1.776403 -1.235868 3.003241
    7 6.028142 0.000000 0.000000 -1.408493 -0.143400 -1.014568
    8 11.692558 0.000000 0.000001 0.000000 0.000000 -0.471626
    9 15.000731 2.986892 0.351573 3.060936 -0.001091 0.149681
    10 3.890452 -0.148446 -0.000003 -1.746726 -0.454490 -1.135236
    11 17.848175 0.000000 0.000000 0.000000 0.000000 0.486812
    12 16.525248 0.000000 0.000000 -0.055418 0.017583 -0.542032
    13 -3.890452 0.148446 0.000007 -1.202588 0.028051 -1.850422
    14 17.848171 0.000000 0.000000 0.000000 0.000000 0.451639
    15 16.525253 0.000000 0.000000 0.166576 -0.191300 -1.321248
    16 11.479830 -0.000111 0.000311 -0.751091 0.006939 0.171305
  time 23
    0 -29.068909 -0.372286 36.539512 1.580911 0.003404 0.061566
    1 0.000005 3.345128 -2.981901 1.570676 0.125255 1.544981
    2 7.528284 0.093753 -0.257820 0.025276 0.103954 0.164316
    3 10.779946 1.467925 -1.828232 -0.975144 1.237225 3.868065
    4 6.028143 0.000000 0.000000 0.922417 0.044635 -1.090450
    5 11.692554 0.000000 0.000008 0.000000 0.000000 -0.317653
    6 10.533839 1.483545 2.039226 1.739618 -1.236671 3.046691
    7 6.028142 0.000000 0.000000 -1.395248 -0.102841 -1.026090
    8 11.692558 0.000000 0.000001 0.000000 0.000000 -0.522565
    9 14.985106 3.014236 0.382824 3.060678 -0.005789 0.154406
    10 3.890452 -0.148446 -0.000003 -1.828000 -0.464997 -1.092583
    11 17.848175 0.000000 0.000000 0.000000 0.000000 0.507421
    12 16.525248 0.000000 0.000000 -0.002456 0.109973 -0.486528
    13 -3.890452 0.148446 0.000007 -1.192217 -0.003571 -1.825180
    14 17.848171 0.000000 0.000000 0.000000 0.000000 0.514755
    15 16.525253 0.000000 0.000000 0.126876 -0.181981 -1.342928
    16 11.479830 -0.000111 0.000311 -0.751091 0.006939 0.171305
  time 24
    0 -30.402817 -0.373866 36.734830 1.580887 0.003416 0.053974
    1 0.000005 3.345128 -2.981901 1.570640 0.125243 1.541218
    2 7.528284 0.101566 -0.273446 0.032682 0.108377 0.167792
    3 10.779946 1.475738 -1.820419 -1.005810 1.247448 3.838558
    4 6.028143 0.000000 0.000000 0.930707 0.058942 -1.075334
    5 11.692554 0.000000 0.000008 0.000000 0.000000 -0.342784
    6 10.518213 1.487451 2.043132 1.692692 -1.239631 3.099733
    7 6.028142 0.000000 0.000000 -1.378397 -0.061235 -1.039241
    8 11.692558 0.000000 0.000001 0.000000 0.000000 -0.564462
    9 14.973387 3.033768 0.402356 3.060654 -0.009264 0.157897
    10 3.890452 -0.148446 -0.000003 -1.921806 -0.478564 -1.059907
    11 17.848175 0.000000 0.000000 0.000000 0.000000 0.547226
    12 16.525248 0.000000 0.000000 0.053535 0.219689 -0.442667
    13 -3.890452 0.148446 0.000007 -1.217177 -0.025013 -1.785364
    14 17.848171 0.000000 0.000000 0.000000 0.000000 0.544407
    15 16.525253 0.000000 0.000000 0.103025 -0.141296 -1.346700
    16 11.479830 -0.000111 0.000311 -0.751091 0.006939 0.171305
  time 25
    0 -31.736725 -0.375446 37.016089 1.580863 0.003416 0.044876
    1 0.000005 3.345128 -2.981901 1.570580 0.125231 1.538486
    2 7.524378 0.109378 -0.277352 0.041323 0.109851 0.171538
    3 10.783853 1.483551 -1.816513 -1.047305 1.257731 3.796818
    4 6.028143 0.000000 0.000000 0.939541 0.077647 -1.058963
    5 11.692554 0.000000 0.000008 0.000000 0.000000 -0.363125
    6 10.510400 1.491357 2.047038 1.636823 -1.243694 3.160938
    7 6.028142 0.000000 0.000000 -1.357909 -0.020823 -1.053090
    8 11.692558 0.000000 0.000001 0.000000 0.000000 -0.594122
    9 14.965574 3.049394 0.417982 3.060795 -0.011769 0.160220
    10 3.890452 -0.148446 -0.000003 -1.986012 -0.502971 -1.053513
    11 17.848175 0.000000 0.000000 0.000000 0.000000 0.614807
    12 16.525248 0.000000 0.000000 0.089648 0.290760 -0.429114
    13 -3.890452 0.148446 0.000007 -1.243072 -0.034883 -1.740298
    14 17.848171 0.000000 0.000000 0.000000 0.000000 0.546040
    15 16.525253 0.000000 0.000000 0.079040 -0.100373 -1.332178
    16 11.479830 -0.000111 0.000311 -0.751091 0.006939 0.171305
  time 26
    0 -33.070633 -0.377026 37.312973 1.580827 0.003416 0.035131
    1 0.000005 3.345128 -2.981901 1.570508 0.125219 1.536832
    2 7.524378 0.117191 -0.281259 0.051090 0.109144 0.174984
    3 10.783853 1.483551 -1.812606 -1.097672 1.267726 3.744905
    4 6.028143 0.000000 0.000000 0.948966 0.100286 -1.042121
    5 11.692554 0.000000 0.000008 0.000000 0.000000 -0.375752
    6 10.506494 1.491357 2.050945 1.573709 -1.247672 3.228632
    7 6.028142 0.000000 0.000000 -1.333765 0.016654 -1.067087
    8 11.692558 0.000000 0.000001 0.000000 0.000000 -0.609313
    9 14.961668 3.057206 0.433607 3.060960 -0.013782 0.161421
    10 3.890452 -0.148446 -0.000003 -2.011056 -0.545634 -1.087052
    11 17.848175 0.000000 0.000000 0.000000 0.000000 0.716805
    12 16.525248 0.000000 0.000000 0.107646 0.272761 -0.469774
    13 -3.890452 0.148446 0.000007 -1.281140 -0.040669 -1.690884
    14 17.848171 0.000000 0.000000 0.000000 0.000000 0.536833
    15 16.525253 0.000000 0.000000 0.062155 -0.049022 -1.308894
    16 11.479830 -0.000111 0.000311 -0.751091 0.006939 0.171305
  time 27
    0 -34.404542 -0.378606 37.539542 1.580791 0.003416 0.025493
    1 0.000005 3.345128 -2.981901 1.570377 0.125219 1.536196
    2 7.524378 0.121098 -0.281259 0.061829 0.106807 0.177548
    3 10.787759 1.487457 -1.808700 -1.155523 1.276762 3.684391
    4 6.028143 0.000000 0.000000 0.958981 0.125746 -1.025052
    5 11.692554 0.000000 0.000008 0.000000 0.000000 -0.379112
    6 10.502588 1.491357 2.054851 1.505368 -1.251052 3.300538
    7 6.028142 0.000000 0.000000 -1.306117 0.049792 -1.081020
    8 11.692558 0.000000 0.000001 0.000000 0.000000 -0.608831
    9 14.961668 3.057206 0.441420 3.061171 -0.015256 0.161535
    10 3.890452 -0.148446 -0.000003 -2.013692 -0.590324 -1.164903
    11 17.848175 0.000000 0.000000 0.000000 0.000000 0.815875
    12 16.525248 0.000000 0.000000 0.191020 0.210285 -0.545609
    13 -3.890452 0.148446 0.000007 -1.333842 -0.049735 -1.639194
    14 17.848171 0.000000 0.000000 0.000000 0.000000 0.534655
    15 16.525253 0.000000 0.000000 0.055439 0.015072 -1.285016
    16 11.479830 -0.000111 0.000311 -0.751091 0.006939 0.171305
  time 28
    0 -35.738450 -0.380186 37.684078 1.580767 0.003416 0.016825
    1 0.000005 3.345128 -2.981901 1.570281 0.125219 1.537359
    2 7.524378 0.125004 -0.277352 0.073250 0.102732 0.178716
    3 10.791666 1.483551 -1.808700 -1.218789 1.284300 3.617432
    4 6.028143 0.000000 0.000000 0.969610 0.152411 -1.007774
    5 11.692554 0.000000 0.000008 0.000000 0.000000 -0.373015
    6 10.502588 1.487451 2.058757 1.434318 -1.253473 3.374076
    7 6.028142 0.000000 0.000000 -1.275266 0.077565 -1.094975
    8 11.692558 0.000000 0.000001 0.000000 0.000000 -0.592253
    9 14.961668 3.049394 0.449232 3.061406 -0.016155 0.160625
    10 3.890452 -0.148446 -0.000003 -1.989162 -0.613667 -1.281779
    11 17.848175 0.000000 0.000000 0.000000 0.000000 0.865096
    12 16.525248 0.000000 0.000000 0.343369 0.171084 -0.618136
    13 -3.890452 0.148446 0.000007 -1.376833 -0.062792 -1.591054
    14 17.848171 0.000000 0.000000 0.000000 0.000000 0.544308
    15 16.525253 0.000000 0.000000 0.047169 0.071384 -1.260693
    16 11.479830 -0.000111 0.000311 -0.751091 0.006939 0.171305
  time 29
    0 -37.072358 -0.381766 37.762205 1.580719 0.003416 0.005573
    1 0.000005 3.345128 -2.981901 1.570257 0.125231 1.540523
    2 7.524378 0.125004 -0.269539 0.085043 0.096835 0.178488
    3 10.791666 1.483551 -1.804793 -1.284648 1.289945 3.547028
    4 6.028143 0.000000 0.000000 0.976673 0.179671 -0.990496
    5 11.692554 0.000000 0.000008 0.000000 0.000000 -0.358957
    6 10.502588 1.487451 2.058757 1.363373 -1.254743 3.446385
    7 6.028142 0.000000 0.000000 -1.246042 0.099741 -1.109859
    8 11.692558 0.000000 0.000001 0.000000 0.000000 -0.559881
    9 14.969480 3.041581 0.453139 3.061665 -0.016479 0.158774
    10 3.890452 -0.148446 -0.000003 -1.906682 -0.608646 -1.435092
    11 17.848175 0.000000 0.000000 0.000000 0.000000 0.850240
    12 16.525248 0.000000 0.000000 0.451800 0.133989 -0.675765
    13 -3.890452 0.148446 0.000007 -1.399583 -0.082626 -1.549709
    14 17.848171 0.000000 0.000000 0.000000 0.000000 0.569108
    15 16.525253 0.000000 0.000000 0.029746 0.108914 -1.231618
    16 11.479830 -0.000111 0.000311 -0.751091 0.006939 0.171305
  time 30
    0 -38.406266 -0.383347 37.758299 1.580683 0.003416 -0.005572
    1 0.000005 3.345128 -2.981901 1.570221 0.125255 1.544909
    2 7.528284 0.121098 -0.257820 0.096871 0.089117 0.177206
    3 10.795572 1.479644 -1.804793 -1.349620 1.293624 3.476788
    4 6.028143 0.000000 0.000000 0.981942 0.205390 -0.974578
    5 11.692554 0.000000 0.000008 0.000000 0.000000 -0.339860
    6 10.510400 1.479638 2.058757 1.295536 -1.254899 3.514422
    7 6.028142 0.000000 0.000000 -1.217941 0.114581 -1.124638
    8 11.692558 0.000000 0.000001 0.000000 0.000000 -0.512739
    9 14.977293 3.022049 0.449232 3.061947 -0.016287 0.156030
    10 3.890452 -0.148446 -0.000003 -1.804922 -0.573532 -1.587122
    11 17.848175 0.000000 0.000000 0.000000 0.000000 0.777795
    12 16.525248 0.000000 0.000000 0.461052 0.076351 -0.724601
    13 -3.890452 0.148446 0.000007 -1.407766 -0.096859 -1.510826
    14 17.848171 0.000000 0.000000 0.000000 0.000000 0.587523
    15 16.525253 0.000000 0.000000 0.004686 0.136492 -1.210681
    16 11.479830 -0.000111 0.000311 -0.751091 0.006939 0.171305
end
