// Created by Crowbar 0.74
version 1
nodes
  0 "ValveBiped.Bip01" -1
  1 "ValveBiped.Bip01_Spine" 0
  2 "ValveBiped.Bip01_Spine2" 1
  3 "ValveBiped.Bip01_R_Clavicle" 2
  4 "ValveBiped.Bip01_R_UpperArm" 3
  5 "ValveBiped.Bip01_R_Forearm" 4
  6 "ValveBiped.Bip01_L_Clavicle" 2
  7 "ValveBiped.Bip01_L_UpperArm" 6
  8 "ValveBiped.Bip01_L_Forearm" 7
  9 "ValveBiped.Bip01_Head1" 2
  10 "ValveBiped.Bip01_L_Thigh" 0
  11 "ValveBiped.Bip01_L_Calf" 10
  12 "ValveBiped.Bip01_L_Foot" 11
  13 "ValveBiped.Bip01_R_Thigh" 0
  14 "ValveBiped.Bip01_R_Calf" 13
  15 "ValveBiped.Bip01_R_Foot" 14
  16 "ValveBiped.Bip01_R_Hand" 5
end
skeleton
  time 0
    0 1.603169 -1.273471 38.145030 1.580743 0.003416 0.010795
    1 0.000005 3.345128 -2.981901 1.568795 0.125219 1.537431
    2 7.524378 0.125004 -0.277352 0.074940 0.102468 0.178659
    3 10.791666 1.483551 -1.808700 -1.216537 1.283929 3.619401
    4 6.028143 0.000000 0.000000 0.963978 0.150481 -1.008803
    5 11.692554 0.000000 0.000008 0.000000 0.000000 -0.380604
    6 10.502588 1.491357 2.054851 1.437635 -1.251472 3.370751
    7 6.028142 0.000000 0.000000 -1.281470 0.091147 -1.089921
    8 11.692558 0.000000 0.000001 0.000000 0.000000 -0.617632
    9 14.961668 3.049394 0.445326 3.060725 -0.015999 0.160431
    10 3.890452 -0.148446 -0.000003 -2.168890 0.249755 -1.476462
    11 17.848175 0.000000 0.000000 0.000000 0.000000 0.417087
    12 16.525248 0.000000 0.000000 0.138223 0.474548 -1.150405
    13 -3.890452 0.148446 0.000007 -1.288047 -0.025849 -1.472658
    14 17.848171 0.000000 0.000000 0.000000 0.000000 0.407137
    15 16.525253 0.000000 0.000000 -0.302476 -0.088962 -1.095718
    16 11.479830 -0.000111 0.000311 -0.751091 0.006939 0.171305
  time 1
    0 2.765511 -2.567520 38.266127 1.580707 0.003416 -0.001211
    1 0.000005 3.345128 -2.981901 1.568843 0.125231 1.540259
    2 7.524378 0.125004 -0.269539 0.086109 0.096548 0.178360
    3 10.795572 1.479644 -1.808700 -1.282737 1.289634 3.548317
    4 6.028143 0.000000 0.000000 0.970087 0.174920 -0.990200
    5 11.692554 0.000000 0.000008 0.000000 0.000000 -0.374197
    6 10.506494 1.487451 2.058757 1.366712 -1.252850 3.442697
    7 6.028142 0.000000 0.000000 -1.253453 0.113680 -1.104256
    8 11.692558 0.000000 0.000001 0.000000 0.000000 -0.584778
    9 14.969480 3.037675 0.449232 3.061077 -0.016299 0.158222
    10 3.890452 -0.148446 -0.000003 -2.098317 0.302426 -1.525775
    11 17.848175 0.000000 0.000000 0.000000 0.000000 0.164915
    12 16.525248 0.000000 0.000000 0.017943 0.373191 -1.177162
    13 -3.890452 0.148446 0.000007 -1.312529 0.011219 -1.497866
    14 17.848171 0.000000 0.000000 0.000000 0.000000 0.396791
    15 16.525253 0.000000 0.000000 -0.214672 -0.050591 -1.093668
    16 11.479830 -0.000111 0.000311 -0.751091 0.006939 0.171305
  time 2
    0 3.900508 -3.826410 38.297378 1.580659 0.003416 -0.013056
    1 0.000005 3.345128 -2.981901 1.569010 0.125243 1.544202
    2 7.528284 0.121098 -0.257820 0.097279 0.089034 0.177007
    3 10.799478 1.475738 -1.808700 -1.348209 1.293361 3.477257
    4 6.028143 0.000000 0.000000 0.974674 0.197819 -0.972748
    5 11.692554 0.000000 0.000008 0.000000 0.000000 -0.362876
    6 10.510400 1.479638 2.058757 1.298685 -1.253149 3.510593
    7 6.028142 0.000000 0.000000 -1.226392 0.128540 -1.118549
    8 11.692558 0.000000 0.000001 0.000000 0.000000 -0.536792
    9 14.981199 3.018143 0.449232 3.061477 -0.016095 0.155153
    10 3.890452 -0.148446 -0.000003 -1.981209 0.185213 -1.496395
    11 17.848175 0.000000 0.000000 0.000000 0.000000 0.274498
    12 16.525248 0.000000 0.000000 -0.053195 0.224627 -1.344563
    13 -3.890452 0.148446 0.000007 -1.336737 0.049401 -1.523940
    14 17.848171 0.000000 0.000000 0.000000 0.000000 0.383574
    15 16.525253 0.000000 0.000000 -0.124085 -0.017752 -1.092243
    16 11.479830 -0.000111 0.000311 -0.751091 0.006939 0.171305
  time 3
    0 4.992535 -5.038425 38.207531 1.580623 0.003416 -0.024308
    1 0.000005 3.345128 -2.981901 1.569238 0.125267 1.548756
    2 7.528284 0.117191 -0.246101 0.108233 0.080093 0.174956
    3 10.803385 1.467925 -1.808700 -1.408814 1.295242 3.410743
    4 6.028143 0.000000 0.000000 0.977695 0.218120 -0.957632
    5 11.692554 0.000000 0.000008 0.000000 0.000000 -0.348569
    6 10.518213 1.475732 2.054851 1.236811 -1.252622 3.571294
    7 6.028142 0.000000 0.000000 -1.201795 0.134808 -1.132842
    8 11.692558 0.000000 0.000001 0.000000 0.000000 -0.475785
    9 14.989012 2.994704 0.445326 3.061900 -0.015496 0.151467
    10 3.890452 -0.148446 -0.000003 -1.880767 0.034548 -1.467967
    11 17.848175 0.000000 0.000000 0.000000 0.000000 0.393810
    12 16.525248 0.000000 0.000000 -0.087383 0.087491 -1.456675
    13 -3.890452 0.148446 0.000007 -1.360421 0.071214 -1.554227
    14 17.848171 0.000000 0.000000 0.000000 0.000000 0.396147
    15 16.525253 0.000000 0.000000 -0.034860 0.010365 -1.061356
    16 11.479830 -0.000111 0.000311 -0.751091 0.006939 0.171305
  time 4
    0 6.025967 -6.203563 38.000494 1.580587 0.003416 -0.034699
    1 0.000005 3.345128 -2.981901 1.569490 0.125279 1.553418
    2 7.528284 0.113285 -0.226569 0.118791 0.069882 0.172563
    3 10.807291 1.464019 -1.808700 -1.459476 1.295590 3.354261
    4 6.028143 0.000000 0.000000 0.979534 0.232890 -0.945166
    5 11.692554 0.000000 0.000008 0.000000 0.000000 -0.336936
    6 10.526026 1.467919 2.054851 1.185245 -1.251879 3.620790
    7 6.028142 0.000000 0.000000 -1.181374 0.132125 -1.146838
    8 11.692558 0.000000 0.000001 0.000000 0.000000 -0.406218
    9 15.004638 2.971266 0.441420 3.062322 -0.014585 0.147472
    10 3.890452 -0.148446 -0.000003 -1.805994 -0.117480 -1.443897
    11 17.848175 0.000000 0.000000 0.000000 0.000000 0.468557
    12 16.525248 0.000000 0.000000 -0.105156 -0.019714 -1.492656
    13 -3.890452 0.148446 0.000007 -1.381734 0.106302 -1.578875
    14 17.848171 0.000000 0.000000 0.000000 0.000000 0.383970
    15 16.525253 0.000000 0.000000 0.047322 0.028385 -1.063346
    16 11.479830 -0.000111 0.000311 -0.751091 0.006939 0.171305
  time 5
    0 6.977365 -7.314012 37.730954 1.580551 0.003416 -0.043744
    1 0.000005 3.345128 -2.981901 1.569717 0.125279 1.557685
    2 7.532191 0.109378 -0.203131 0.128822 0.059324 0.170156
    3 10.811197 1.456206 -1.812606 -1.497786 1.294919 3.310528
    4 6.028143 0.000000 0.000000 0.981033 0.240387 -0.934775
    5 11.692554 0.000000 0.000008 0.000000 0.000000 -0.332955
    6 10.533839 1.460106 2.054851 1.145605 -1.251388 3.657710
    7 6.028142 0.000000 0.000000 -1.165613 0.122273 -1.159989
    8 11.692558 0.000000 0.000001 0.000000 0.000000 -0.334601
    9 15.016357 2.947828 0.433607 3.062745 -0.013447 0.143445
    10 3.890452 -0.148446 -0.000003 -1.754009 -0.245534 -1.425203
    11 17.848175 0.000000 0.000000 0.000000 0.000000 0.469237
    12 16.525248 0.000000 0.000000 -0.117349 -0.096162 -1.445757
    13 -3.890452 0.148446 0.000007 -1.400973 0.105868 -1.606648
    14 17.848171 0.000000 0.000000 0.000000 0.000000 0.434314
    15 16.525253 0.000000 0.000000 0.119527 0.038481 -1.067058
    16 11.479830 -0.000111 0.000311 -0.751091 0.006939 0.171305
  time 6
    0 7.831104 -8.369771 37.434070 1.580528 0.003416 -0.051120
    1 0.000005 3.345128 -2.981901 1.569897 0.125291 1.561077
    2 7.532191 0.105472 -0.179693 0.138242 0.049760 0.168133
    3 10.811197 1.448393 -1.812606 -1.524198 1.293708 3.279380
    4 6.028143 0.000000 0.000000 0.983168 0.241000 -0.926057
    5 11.692554 0.000000 0.000008 0.000000 0.000000 -0.337496
    6 10.541651 1.452294 2.050945 1.117513 -1.251292 3.682821
    7 6.028142 0.000000 0.000000 -1.153793 0.108901 -1.171090
    8 11.692558 0.000000 0.000001 0.000000 0.000000 -0.269073
    9 15.028076 2.924390 0.425794 3.063098 -0.012164 0.139629
    10 3.890452 -0.148446 -0.000003 -1.721258 -0.323643 -1.416708
    11 17.848175 0.000000 0.000000 0.000000 0.000000 0.382512
    12 16.525248 0.000000 0.000000 -0.127257 -0.142829 -1.310868
    13 -3.890452 0.148446 0.000007 -1.418753 0.066759 -1.639092
    14 17.848171 0.000000 0.000000 0.000000 0.000000 0.550792
    15 16.525253 0.000000 0.000000 0.182138 0.027450 -1.041458
    16 11.479830 -0.000111 0.000311 -0.751091 0.006939 0.171305
  time 7
    0 8.571558 -9.366935 37.144999 1.580516 0.003404 -0.056451
    1 0.000005 3.345128 -2.981901 1.569957 0.125291 1.563090
    2 7.532191 0.105472 -0.164068 0.146967 0.042545 0.166837
    3 10.815104 1.440581 -1.816513 -1.539372 1.292330 3.260396
    4 6.028143 0.000000 0.000000 0.986529 0.235841 -0.919066
    5 11.692554 0.000000 0.000008 0.000000 0.000000 -0.349813
    6 10.549464 1.448387 2.050945 1.100632 -1.251567 3.696807
    7 6.028142 0.000000 0.000000 -1.145108 0.098274 -1.177411
    8 11.692558 0.000000 0.000001 0.000000 0.000000 -0.223740
    9 15.035889 2.904858 0.417982 3.063403 -0.010822 0.136317
    10 3.890452 -0.148446 -0.000003 -1.691366 -0.372789 -1.466175
    11 17.848175 0.000000 0.000000 0.000000 0.000000 0.458305
    12 16.525248 0.000000 0.000000 -0.093397 -0.192125 -1.344994
    13 -3.890452 0.148446 0.000007 -1.452786 0.073999 -1.710843
    14 17.848171 0.000000 0.000000 0.000000 0.000000 0.573514
    15 16.525253 0.000000 0.000000 0.260943 -0.032238 -0.986694
    16 11.479830 -0.000111 0.000311 -0.751091 0.006939 0.171305
  time 8
    0 9.308106 -10.360193 37.059059 1.580528 0.003416 -0.051551
    1 0.000005 3.345128 -2.981901 1.570257 0.125291 1.567225
    2 7.536097 0.109378 -0.132817 0.142281 0.029446 0.167706
    3 10.811197 1.436674 -1.824325 -1.528998 1.287788 3.267521
    4 6.028143 0.000000 0.000000 0.984213 0.238086 -0.935646
    5 11.692554 0.000000 0.000008 0.000000 0.000000 -0.330032
    6 10.565089 1.440575 2.043132 1.104999 -1.256014 3.687738
    7 6.028142 0.000000 0.000000 -1.150070 0.090791 -1.170942
    8 11.692558 0.000000 0.000001 0.000000 0.000000 -0.221811
    9 15.051514 2.881420 0.390637 3.064179 -0.006244 0.132468
    10 3.890452 -0.148446 -0.000003 -1.682989 -0.386622 -1.483232
    11 17.848175 0.000000 0.000000 0.000000 0.000000 0.517987
    12 16.525248 0.000000 0.000000 -0.097576 -0.184036 -1.291614
    13 -3.890452 0.148446 0.000007 -1.457801 0.041511 -1.738124
    14 17.848171 0.000000 0.000000 0.000000 0.000000 0.642916
    15 16.525253 0.000000 0.000000 0.277656 -0.054443 -0.950254
    16 11.479830 -0.000111 0.000311 -0.751091 0.006939 0.171305
  time 9
    0 10.157938 -11.419859 37.129374 1.580551 0.003416 -0.044875
    1 0.000005 3.345128 -2.981901 1.570520 0.125291 1.571000
    2 7.536097 0.113285 -0.109378 0.134970 0.017881 0.169401
    3 10.811197 1.428861 -1.832138 -1.508683 1.282898 3.284888
    4 6.028143 0.000000 0.000000 0.980761 0.235692 -0.953953
    5 11.692554 0.000000 0.000008 0.000000 0.000000 -0.315849
    6 10.580715 1.436668 2.035319 1.120263 -1.261215 3.667242
    7 6.028142 0.000000 0.000000 -1.160197 0.076118 -1.164937
    8 11.692558 0.000000 0.000001 0.000000 0.000000 -0.216084
    9 15.063233 2.854075 0.359386 3.064836 -0.001366 0.128441
    10 3.890452 -0.148446 -0.000003 -1.675706 -0.374884 -1.506727
    11 17.848175 0.000000 0.000000 0.000000 0.000000 0.526931
    12 16.525248 0.000000 0.000000 -0.095725 -0.172373 -1.205399
    13 -3.890452 0.148446 0.000007 -1.459670 -0.011585 -1.764028
    14 17.848171 0.000000 0.000000 0.000000 0.000000 0.715189
    15 16.525253 0.000000 0.000000 0.302083 -0.044283 -0.837993
    16 11.479830 -0.000111 0.000311 -0.751091 0.006939 0.171305
  time 10
    0 11.105430 -12.530308 37.301254 1.580575 0.003416 -0.036691
    1 0.000005 3.345128 -2.981901 1.570736 0.125291 1.574319
    2 7.536097 0.117191 -0.089846 0.125479 0.008833 0.171666
    3 10.807291 1.421049 -1.843857 -1.475924 1.277601 3.315262
    4 6.028143 0.000000 0.000000 0.976264 0.224688 -0.971248
    5 11.692554 0.000000 0.000008 0.000000 0.000000 -0.313485
    6 10.596340 1.428856 2.027506 1.153562 -1.267914 3.628105
    7 6.028142 0.000000 0.000000 -1.176897 0.057191 -1.159482
    8 11.692558 0.000000 0.000001 0.000000 0.000000 -0.209091
    9 15.078859 2.830637 0.328135 3.065377 0.003631 0.124430
    10 3.890452 -0.148446 -0.000003 -1.669406 -0.342962 -1.535885
    11 17.848175 0.000000 0.000000 0.000000 0.000000 0.507892
    12 16.525248 0.000000 0.000000 -0.079429 -0.165025 -1.152449
    13 -3.890452 0.148446 0.000007 -1.460126 0.013416 -1.781321
    14 17.848171 0.000000 0.000000 0.000000 0.000000 0.676380
    15 16.525253 0.000000 0.000000 0.347693 -0.012997 -0.709310
    16 11.479830 -0.000111 0.000311 -0.751091 0.006939 0.171305
  time 11
    0 12.131049 -13.695446 37.543449 1.580611 0.003416 -0.027323
    1 0.000005 3.345128 -2.981901 1.570892 0.125291 1.577064
    2 7.536097 0.125004 -0.074221 0.114237 0.002996 0.174130
    3 10.803385 1.413236 -1.851670 -1.431790 1.271717 3.357917
    4 6.028143 0.000000 0.000000 0.970518 0.205167 -0.986434
    5 11.692554 0.000000 0.000008 0.000000 0.000000 -0.321883
    6 10.611966 1.424949 2.019694 1.204708 -1.275321 3.570770
    7 6.028142 0.000000 0.000000 -1.199113 0.035371 -1.154260
    8 11.692558 0.000000 0.000001 0.000000 0.000000 -0.202219
    9 15.090578 2.807199 0.300790 3.065800 0.008581 0.120679
    10 3.890452 -0.148446 -0.000003 -1.664670 -0.305920 -1.568052
    11 17.848175 0.000000 0.000000 0.000000 0.000000 0.494710
    12 16.525248 0.000000 0.000000 -0.048897 -0.162328 -1.162426
    13 -3.890452 0.148446 0.000007 -1.459192 0.011374 -1.800719
    14 17.848171 0.000000 0.000000 0.000000 0.000000 0.681231
    15 16.525253 0.000000 0.000000 0.407022 0.035438 -0.660396
    16 11.479830 -0.000111 0.000311 -0.751091 0.006939 0.171305
  time 12
    0 13.219169 -14.907460 37.805175 1.580647 0.003416 -0.017094
    1 0.000005 3.345128 -2.981901 1.571000 0.125291 1.579089
    2 7.536097 0.128910 -0.066408 0.101605 0.000132 0.176409
    3 10.799478 1.405423 -1.863389 -1.380900 1.265113 3.408212
    4 6.028143 0.000000 0.000000 0.963319 0.181007 -1.000452
    5 11.692554 0.000000 0.000008 0.000000 0.000000 -0.333888
    6 10.627591 1.417136 2.007975 1.264798 -1.281637 3.504789
    7 6.028142 0.000000 0.000000 -1.223592 0.010533 -1.148128
    8 11.692558 0.000000 0.000001 0.000000 0.000000 -0.196613
    9 15.098390 2.787667 0.269539 3.066105 0.013303 0.117415
    10 3.890452 -0.148446 -0.000003 -1.661520 -0.241544 -1.603161
    11 17.848175 0.000000 0.000000 0.000000 0.000000 0.432622
    12 16.525248 0.000000 0.000000 -0.011828 -0.158570 -1.168933
    13 -3.890452 0.148446 0.000007 -1.449139 -0.099056 -1.815464
    14 17.848171 0.000000 0.000000 0.000000 0.000000 0.790383
    15 16.525253 0.000000 0.000000 0.452460 0.111054 -0.677116
    16 11.479830 -0.000111 0.000311 -0.751091 0.006939 0.171305
  time 13
    0 14.350260 -16.166351 38.047370 1.580683 0.003416 -0.006272
    1 0.000005 3.345128 -2.981901 1.571036 0.125291 1.580300
    2 7.536097 0.132817 -0.058596 0.087955 -0.000048 0.178089
    3 10.791666 1.401517 -1.871202 -1.326279 1.257767 3.463289
    4 6.028143 0.000000 0.000000 0.954598 0.154341 -1.013615
    5 11.692554 0.000000 0.000008 0.000000 0.000000 -0.346081
    6 10.639310 1.413230 2.000162 1.332531 -1.286359 3.431774
    7 6.028142 0.000000 0.000000 -1.249781 -0.016128 -1.140178
    8 11.692558 0.000000 0.000001 0.000000 0.000000 -0.193598
    9 15.106203 2.772041 0.242195 3.066293 0.017617 0.114817
    10 3.890452 -0.148446 -0.000003 -1.660738 -0.161905 -1.638890
    11 17.848175 0.000000 0.000000 0.000000 0.000000 0.341556
    12 16.525248 0.000000 0.000000 0.027211 -0.152031 -1.160920
    13 -3.890452 0.148446 0.000007 -1.422081 -0.215209 -1.804049
    14 17.848171 0.000000 0.000000 0.000000 0.000000 0.860281
    15 16.525253 0.000000 0.000000 0.448891 0.220778 -0.733841
    16 11.479830 -0.000111 0.000311 -0.751091 0.006939 0.171305
  time 14
    0 15.504790 -17.460399 38.230970 1.580719 0.003416 0.004873
    1 0.000005 3.345128 -2.981901 1.571012 0.125291 1.580563
    2 7.536097 0.136723 -0.058596 0.073645 0.002049 0.178759
    3 10.787759 1.397611 -1.879014 -1.270589 1.249773 3.520521
    4 6.028143 0.000000 0.000000 0.944447 0.126488 -1.025837
    5 11.692554 0.000000 0.000008 0.000000 0.000000 -0.357029
    6 10.647123 1.413230 1.996256 1.407548 -1.289103 3.352190
    7 6.028142 0.000000 0.000000 -1.277647 -0.042999 -1.129459
    8 11.692558 0.000000 0.000001 0.000000 0.000000 -0.194925
    9 15.114016 2.760322 0.218757 3.066364 0.021333 0.113145
    10 3.890452 -0.148446 -0.000003 -1.662592 -0.086822 -1.673468
    11 17.848175 0.000000 0.000000 0.000000 0.000000 0.258544
    12 16.525248 0.000000 0.000000 0.064443 -0.144329 -1.136905
    13 -3.890452 0.148446 0.000007 -1.381620 -0.280712 -1.765370
    14 17.848171 0.000000 0.000000 0.000000 0.000000 0.831223
    15 16.525253 0.000000 0.000000 0.382270 0.309057 -0.795079
    16 11.479830 -0.000111 0.000311 -0.751091 0.006939 0.171305
  time 15
    0 16.667132 -18.793511 38.305191 1.580755 0.003416 0.015964
    1 0.000005 3.345128 -2.981901 1.570928 0.125291 1.580000
    2 7.536097 0.132817 -0.058596 0.059623 0.006220 0.178018
    3 10.783853 1.393704 -1.882921 -1.216127 1.241240 3.577801
    4 6.028143 0.000000 0.000000 0.933727 0.099043 -1.037204
    5 11.692554 0.000000 0.000008 0.000000 0.000000 -0.363933
    6 10.654936 1.413230 1.988443 1.487144 -1.289642 3.269079
    7 6.028142 0.000000 0.000000 -1.306586 -0.060962 -1.111974
    8 11.692558 0.000000 0.000001 0.000000 0.000000 -0.225066
    9 15.114016 2.760322 0.199225 3.066317 0.024473 0.112658
    10 3.890452 -0.148446 -0.000003 -1.666792 -0.025804 -1.706277
    11 17.848175 0.000000 0.000000 0.000000 0.000000 0.204041
    12 16.525248 0.000000 0.000000 0.100020 -0.138059 -1.110847
    13 -3.890452 0.148446 0.000007 -1.316860 -0.416885 -1.721188
    14 17.848171 0.000000 0.000000 0.000000 0.000000 0.813748
    15 16.525253 0.000000 0.000000 0.242484 0.352056 -0.824005
    16 11.479830 -0.000111 0.000311 -0.751091 0.006939 0.171305
  time 16
    0 17.813848 -20.153967 38.270033 1.580791 0.003416 0.026785
    1 0.000005 3.345128 -2.981901 1.570844 0.125291 1.578826
    2 7.536097 0.128910 -0.066408 0.046800 0.012236 0.175981
    3 10.779946 1.397611 -1.886827 -1.164395 1.232467 3.633533
    4 6.028143 0.000000 0.000000 0.923417 0.074381 -1.048449
    5 11.692554 0.000000 0.000008 0.000000 0.000000 -0.362876
    6 10.658842 1.413230 1.984536 1.565437 -1.287785 3.188528
    7 6.028142 0.000000 0.000000 -1.334788 -0.077060 -1.090027
    8 11.692558 0.000000 0.000001 0.000000 0.000000 -0.271243
    9 15.114016 2.764229 0.179693 3.066176 0.026905 0.113421
    10 3.890452 -0.148446 -0.000003 -1.673226 0.036344 -1.738555
    11 17.848175 0.000000 0.000000 0.000000 0.000000 0.149275
    12 16.525248 0.000000 0.000000 0.135208 -0.133526 -1.082907
    13 -3.890452 0.148446 0.000007 -1.253444 -0.482264 -1.668054
    14 17.848171 0.000000 0.000000 0.000000 0.000000 0.742119
    15 16.525253 0.000000 0.000000 0.075548 0.326317 -0.858188
    16 11.479830 -0.000111 0.000311 -0.751091 0.006939 0.171305
  time 17
    0 18.937126 -21.541768 38.152842 1.580827 0.003416 0.036961
    1 0.000005 3.345128 -2.981901 1.570772 0.125291 1.577064
    2 7.536097 0.121098 -0.074221 0.035450 0.019858 0.173047
    3 10.772134 1.397611 -1.890734 -1.116463 1.224102 3.686430
    4 6.028143 0.000000 0.000000 0.914015 0.053932 -1.059974
    5 11.692554 0.000000 0.000008 0.000000 0.000000 -0.353359
    6 10.658842 1.417136 1.980630 1.638166 -1.283506 3.114788
    7 6.028142 0.000000 0.000000 -1.360860 -0.101542 -1.067827
    8 11.692558 0.000000 0.000001 0.000000 0.000000 -0.305484
    9 15.110110 2.775948 0.171880 3.065894 0.028296 0.115304
    10 3.890452 -0.148446 -0.000003 -1.682006 0.097760 -1.770058
    11 17.848175 0.000000 0.000000 0.000000 0.000000 0.097282
    12 16.525248 0.000000 0.000000 0.168890 -0.131486 -1.052384
    13 -3.890452 0.148446 0.000007 -1.206509 -0.510235 -1.625894
    14 17.848171 0.000000 0.000000 0.000000 0.000000 0.725585
    15 16.525253 0.000000 0.000000 -0.041845 0.232363 -0.869979
    16 11.479830 -0.000111 0.000311 -0.751091 0.006939 0.171305
  time 18
    0 20.005715 -22.953008 37.977056 1.580863 0.003416 0.046275
    1 0.000005 3.345128 -2.981901 1.570688 0.125291 1.574703
    2 7.536097 0.113285 -0.089846 0.025899 0.028871 0.169629
    3 10.768227 1.405423 -1.890734 -1.073034 1.216875 3.735460
    4 6.028143 0.000000 0.000000 0.906111 0.038530 -1.071952
    5 11.692554 0.000000 0.000008 0.000000 0.000000 -0.336501
    6 10.654936 1.424949 1.980630 1.701511 -1.277071 3.051648
    7 6.028142 0.000000 0.000000 -1.383629 -0.134366 -1.046747
    8 11.692558 0.000000 0.000001 0.000000 0.000000 -0.321520
    9 15.102297 2.795480 0.171880 3.065494 0.028284 0.118211
    10 3.890452 -0.148446 -0.000003 -1.693243 0.149700 -1.799614
    11 17.848175 0.000000 0.000000 0.000000 0.000000 0.065270
    12 16.525248 0.000000 0.000000 0.199915 -0.132885 -1.025950
    13 -3.890452 0.148446 0.000007 -1.165410 -0.543249 -1.599853
    14 17.848171 0.000000 0.000000 0.000000 0.000000 0.742960
    15 16.525253 0.000000 0.000000 -0.134312 0.115888 -0.821065
    16 11.479830 -0.000111 0.000311 -0.751091 0.006939 0.171305
  time 19
    0 21.011802 -24.379872 37.766112 1.580887 0.003416 0.054351
    1 0.000005 3.345128 -2.981901 1.570628 0.125291 1.571767
    2 7.536097 0.105472 -0.109378 0.018432 0.039034 0.166139
    3 10.768227 1.409330 -1.886827 -1.033815 1.211902 3.780529
    4 6.028143 0.000000 0.000000 0.900161 0.028324 -1.084696
    5 11.692554 0.000000 0.000008 0.000000 0.000000 -0.314667
    6 10.643217 1.432762 1.984536 1.752258 -1.268526 3.002314
    7 6.028142 0.000000 0.000000 -1.402122 -0.170543 -1.027317
    8 11.692558 0.000000 0.000001 0.000000 0.000000 -0.323148
    9 15.090578 2.818918 0.183599 3.064813 0.026150 0.122043
    10 3.890452 -0.148446 -0.000003 -1.706647 0.176700 -1.824635
    11 17.848175 0.000000 0.000000 0.000000 0.000000 0.084415
    12 16.525248 0.000000 0.000000 0.225657 -0.136930 -1.016860
    13 -3.890452 0.148446 0.000007 -1.131628 -0.566486 -1.578076
    14 17.848171 0.000000 0.000000 0.000000 0.000000 0.767315
    15 16.525253 0.000000 0.000000 -0.229063 -0.005199 -0.766093
    16 11.479830 -0.000111 0.000311 -0.751091 0.006939 0.171305
  time 20
    0 21.935856 -25.814550 37.539542 1.580911 0.003404 0.060974
    1 0.000005 3.345128 -2.981901 1.570592 0.125291 1.568267
    2 7.536097 0.097659 -0.128910 0.013339 0.050132 0.162977
    3 10.768227 1.417142 -1.882921 -0.999668 1.209708 3.820559
    4 6.028143 0.000000 0.000000 0.896755 0.023017 -1.097249
    5 11.692554 0.000000 0.000008 0.000000 0.000000 -0.291713
    6 10.627591 1.440575 1.992349 1.788244 -1.258782 2.968961
    7 6.028142 0.000000 0.000000 -1.415569 -0.201753 -1.011037
    8 11.692558 0.000000 0.000001 0.000000 0.000000 -0.321339
    9 15.074952 2.846262 0.210944 3.063920 0.021920 0.126655
    10 3.890452 -0.148446 -0.000003 -1.724653 0.165927 -1.837976
    11 17.848175 0.000000 0.000000 0.000000 0.000000 0.181078
    12 16.525248 0.000000 0.000000 0.234939 -0.127425 -1.031382
    13 -3.890452 0.148446 0.000007 -1.111294 -0.565155 -1.551085
    14 17.848171 0.000000 0.000000 0.000000 0.000000 0.779443
    15 16.525253 0.000000 0.000000 -0.321549 -0.135432 -0.754214
    16 11.479830 -0.000111 0.000311 -0.751091 0.006939 0.171305
  time 21
    0 22.754437 -27.264853 37.328598 1.580935 0.003404 0.065765
    1 0.000005 3.345128 -2.981901 1.570592 0.125291 1.564204
    2 7.532191 0.093753 -0.156255 0.010942 0.061948 0.160584
    3 10.772134 1.424955 -1.871202 -0.972801 1.210224 3.853183
    4 6.028143 0.000000 0.000000 0.896550 0.021718 -1.107344
    5 11.692554 0.000000 0.000008 0.000000 0.000000 -0.273363
    6 10.611966 1.448387 2.000162 1.808568 -1.249470 2.952516
    7 6.028142 0.000000 0.000000 -1.423214 -0.217704 -1.000402
    8 11.692558 0.000000 0.000001 0.000000 0.000000 -0.331286
    9 15.059327 2.877513 0.242195 3.062957 0.016407 0.131965
    10 3.890452 -0.148446 -0.000003 -1.749295 0.158944 -1.843706
    11 17.848175 0.000000 0.000000 0.000000 0.000000 0.255720
    12 16.525248 0.000000 0.000000 0.219344 -0.111717 -0.931183
    13 -3.890452 0.148446 0.000007 -1.117221 -0.506119 -1.505119
    14 17.848171 0.000000 0.000000 0.000000 0.000000 0.729941
    15 16.525253 0.000000 0.000000 -0.364013 -0.306064 -0.853407
    16 11.479830 -0.000111 0.000311 -0.751091 0.006939 0.171305
  time 22
    0 23.455828 -28.719062 37.156718 1.580935 0.003404 0.068457
    1 0.000005 3.345128 -2.981901 1.570652 0.125279 1.559602
    2 7.532191 0.089847 -0.183599 0.011553 0.074257 0.159388
    3 10.776040 1.436674 -1.859483 -0.955671 1.213436 3.875870
    4 6.028143 0.000000 0.000000 0.900025 0.023351 -1.112348
    5 11.692554 0.000000 0.000008 0.000000 0.000000 -0.265960
    6 10.588528 1.460106 2.011881 1.812914 -1.242064 2.953402
    7 6.028142 0.000000 0.000000 -1.424187 -0.209949 -0.998224
    8 11.692558 0.000000 0.000001 0.000000 0.000000 -0.364442
    9 15.039795 2.912671 0.281259 3.062111 0.010391 0.137843
    10 3.890452 -0.148446 -0.000003 -1.785218 0.158844 -1.837157
    11 17.848175 0.000000 0.000000 0.000000 0.000000 0.319482
    12 16.525248 0.000000 0.000000 0.211181 -0.065825 -0.834292
    13 -3.890452 0.148446 0.000007 -1.137190 -0.398970 -1.444154
    14 17.848171 0.000000 0.000000 0.000000 0.000000 0.595840
    15 16.525253 0.000000 0.000000 -0.328400 -0.459642 -0.980071
    16 11.479830 -0.000111 0.000311 -0.751091 0.006939 0.171305
  time 23
    0 24.153312 -30.169365 37.043433 1.580935 0.003404 0.068457
    1 0.000005 3.345128 -2.981901 1.570640 0.125279 1.554689
    2 7.532191 0.089847 -0.214850 0.014813 0.086073 0.159815
    3 10.776040 1.448393 -1.847764 -0.950757 1.219128 3.885619
    4 6.028143 0.000000 0.000000 0.906248 0.027600 -1.110238
    5 11.692554 0.000000 0.000008 0.000000 0.000000 -0.273176
    6 10.568996 1.467919 2.019694 1.801556 -1.237653 2.970936
    7 6.028142 0.000000 0.000000 -1.419157 -0.181694 -1.003425
    8 11.692558 0.000000 0.000001 0.000000 0.000000 -0.417551
    9 15.020263 2.951734 0.316416 3.061430 0.004734 0.143721
    10 3.890452 -0.148446 -0.000003 -1.829251 0.129582 -1.812379
    11 17.848175 0.000000 0.000000 0.000000 0.000000 0.453859
    12 16.525248 0.000000 0.000000 0.221583 -0.000484 -0.810843
    13 -3.890452 0.148446 0.000007 -1.150844 -0.315212 -1.401790
    14 17.848171 0.000000 0.000000 0.000000 0.000000 0.489707
    15 16.525253 0.000000 0.000000 -0.351790 -0.478550 -1.013690
    16 11.479830 -0.000111 0.000311 -0.751091 0.006939 0.171305
  time 24
    0 24.975799 -31.619668 37.016089 1.580935 0.003404 0.065658
    1 0.000005 3.345128 -2.981901 1.570460 0.125267 1.549871
    2 7.528284 0.089847 -0.238289 0.019930 0.096045 0.161752
    3 10.779946 1.460112 -1.839951 -0.958105 1.226894 3.881870
    4 6.028143 0.000000 0.000000 0.913719 0.034411 -1.101817
    5 11.692554 0.000000 0.000008 0.000000 0.000000 -0.292584
    6 10.553370 1.475732 2.027506 1.776655 -1.236131 3.002314
    7 6.028142 0.000000 0.000000 -1.409768 -0.143190 -1.012199
    8 11.692558 0.000000 0.000001 0.000000 0.000000 -0.477594
    9 15.004638 2.982985 0.347667 3.060913 -0.000276 0.148966
    10 3.890452 -0.148446 -0.000003 -1.881259 0.095931 -1.772513
    11 17.848175 0.000000 0.000000 0.000000 0.000000 0.603299
    12 16.525248 0.000000 0.000000 0.248444 0.070149 -0.825068
    13 -3.890452 0.148446 0.000007 -1.165250 -0.243737 -1.377652
    14 17.848171 0.000000 0.000000 0.000000 0.000000 0.408028
    15 16.525253 0.000000 0.000000 -0.484552 -0.382837 -1.001959
    16 11.479830 -0.000111 0.000311 -0.751091 0.006939 0.171305
  time 25
    0 25.899853 -33.058252 37.098123 1.580911 0.003404 0.060435
    1 0.000005 3.345128 -2.981901 1.570173 0.125255 1.545413
    2 7.528284 0.097659 -0.257820 0.026594 0.103391 0.164715
    3 10.779946 1.467925 -1.832138 -0.976964 1.236230 3.865394
    4 6.028143 0.000000 0.000000 0.921986 0.044487 -1.089526
    5 11.692554 0.000000 0.000008 0.000000 0.000000 -0.318150
    6 10.537745 1.483545 2.035319 1.740080 -1.236874 3.045381
    7 6.028142 0.000000 0.000000 -1.396287 -0.099718 -1.023215
    8 11.692558 0.000000 0.000001 0.000000 0.000000 -0.534562
    9 14.989012 3.010330 0.375011 3.060560 -0.004638 0.153464
    10 3.890452 -0.148446 -0.000003 -1.947900 0.085557 -1.715170
    11 17.848175 0.000000 0.000000 0.000000 0.000000 0.707966
    12 16.525248 0.000000 0.000000 0.291960 0.145551 -0.837519
    13 -3.890452 0.148446 0.000007 -1.182164 -0.159824 -1.357115
    14 17.848171 0.000000 0.000000 0.000000 0.000000 0.307340
    15 16.525253 0.000000 0.000000 -0.590144 -0.276711 -0.994742
    16 11.479830 -0.000111 0.000311 -0.751091 0.006939 0.171305
  time 26
    0 26.909846 -34.489023 37.273909 1.580887 0.003416 0.053167
    1 0.000005 3.345128 -2.981901 1.569825 0.125243 1.541566
    2 7.528284 0.101566 -0.273446 0.034540 0.107741 0.168247
    3 10.779946 1.475738 -1.824325 -1.006743 1.246537 3.836824
    4 6.028143 0.000000 0.000000 0.930707 0.058590 -1.075282
    5 11.692554 0.000000 0.000008 0.000000 0.000000 -0.343655
    6 10.522119 1.487451 2.043132 1.693364 -1.239211 3.098323
    7 6.028142 0.000000 0.000000 -1.379051 -0.054947 -1.035351
    8 11.692558 0.000000 0.000001 0.000000 0.000000 -0.582005
    9 14.977293 3.029862 0.398450 3.060325 -0.008317 0.157086
    10 3.890452 -0.148446 -0.000003 -2.027655 0.100021 -1.641169
    11 17.848175 0.000000 0.000000 0.000000 0.000000 0.754310
    12 16.525248 0.000000 0.000000 0.346145 0.217920 -0.831953
    13 -3.890452 0.148446 0.000007 -1.200035 -0.135164 -1.378569
    14 17.848171 0.000000 0.000000 0.000000 0.000000 0.342041
    15 16.525253 0.000000 0.000000 -0.556680 -0.257248 -1.040419
    16 11.479830 -0.000111 0.000311 -0.751091 0.006939 0.171305
  time 27
    0 27.986248 -35.896356 37.492666 1.580863 0.003416 0.044176
    1 0.000005 3.345128 -2.981901 1.569454 0.125231 1.538569
    2 7.524378 0.109378 -0.277352 0.043552 0.109479 0.171879
    3 10.783853 1.479644 -1.816513 -1.046805 1.257119 3.796747
    4 6.028143 0.000000 0.000000 0.939632 0.077053 -1.059887
    5 11.692554 0.000000 0.000008 0.000000 0.000000 -0.364493
    6 10.514307 1.491357 2.047038 1.637977 -1.242435 3.159407
    7 6.028142 0.000000 0.000000 -1.358395 -0.011643 -1.048270
    8 11.692558 0.000000 0.000001 0.000000 0.000000 -0.615884
    9 14.965574 3.045487 0.414075 3.060255 -0.011301 0.159716
    10 3.890452 -0.148446 -0.000003 -2.108772 0.128984 -1.559291
    11 17.848175 0.000000 0.000000 0.000000 0.000000 0.765294
    12 16.525248 0.000000 0.000000 0.372425 0.320406 -0.909320
    13 -3.890452 0.148446 0.000007 -1.218682 -0.124149 -1.404117
    14 17.848171 0.000000 0.000000 0.000000 0.000000 0.396494
    15 16.525253 0.000000 0.000000 -0.515388 -0.214234 -1.067355
    16 11.479830 -0.000111 0.000311 -0.751091 0.006939 0.171305
  time 28
    0 29.113433 -37.284157 37.730954 1.580827 0.003416 0.033838
    1 0.000005 3.345128 -2.981901 1.569130 0.125219 1.536700
    2 7.524378 0.117191 -0.281259 0.053427 0.108976 0.175155
    3 10.783853 1.483551 -1.812606 -1.096170 1.267294 3.746124
    4 6.028143 0.000000 0.000000 0.948421 0.099488 -1.043690
    5 11.692554 0.000000 0.000008 0.000000 0.000000 -0.377930
    6 10.506494 1.495264 2.050945 1.575578 -1.245887 3.226697
    7 6.028142 0.000000 0.000000 -1.334821 0.028014 -1.061717
    8 11.692558 0.000000 0.000001 0.000000 0.000000 -0.633607
    9 14.961668 3.057206 0.429701 3.060278 -0.013579 0.161226
    10 3.890452 -0.148446 -0.000003 -2.175279 0.169352 -1.493652
    11 17.848175 0.000000 0.000000 0.000000 0.000000 0.714347
    12 16.525248 0.000000 0.000000 0.355248 0.426920 -0.991206
    13 -3.890452 0.148446 0.000007 -1.239607 -0.107812 -1.429036
    14 17.848171 0.000000 0.000000 0.000000 0.000000 0.434363
    15 16.525253 0.000000 0.000000 -0.459569 -0.165276 -1.079948
    16 11.479830 -0.000111 0.000311 -0.751091 0.006939 0.171305
  time 29
    0 30.267962 -38.644613 37.957524 1.580779 0.003416 0.022640
    1 0.000005 3.345128 -2.981901 1.568890 0.125219 1.536196
    2 7.524378 0.121098 -0.281259 0.063974 0.106603 0.177591
    3 10.787759 1.483551 -1.808700 -1.153385 1.276391 3.686383
    4 6.028143 0.000000 0.000000 0.956642 0.124836 -1.026865
    5 11.692554 0.000000 0.000008 0.000000 0.000000 -0.382408
    6 10.502588 1.491357 2.054851 1.508118 -1.249051 3.297898
    7 6.028142 0.000000 0.000000 -1.308950 0.062368 -1.075650
    8 11.692558 0.000000 0.000001 0.000000 0.000000 -0.634150
    9 14.961668 3.057206 0.441420 3.060443 -0.015137 0.161486
    10 3.890452 -0.148446 -0.000003 -2.198602 0.209653 -1.464870
    11 17.848175 0.000000 0.000000 0.000000 0.000000 0.597860
    12 16.525248 0.000000 0.000000 0.270933 0.490188 -1.074516
    13 -3.890452 0.148446 0.000007 -1.263337 -0.071363 -1.450915
    14 17.848171 0.000000 0.000000 0.000000 0.000000 0.430700
    15 16.525253 0.000000 0.000000 -0.386098 -0.125574 -1.089867
    16 11.479830 -0.000111 0.000311 -0.751091 0.006939 0.171305
  time 30
    0 31.434210 -39.977725 38.145030 1.580743 0.003416 0.010795
    1 0.000005 3.345128 -2.981901 1.568795 0.125219 1.537431
    2 7.524378 0.125004 -0.277352 0.074940 0.102468 0.178659
    3 10.791666 1.483551 -1.808700 -1.216537 1.283929 3.619401
    4 6.028143 0.000000 0.000000 0.963978 0.150481 -1.008803
    5 11.692554 0.000000 0.000008 0.000000 0.000000 -0.380604
    6 10.502588 1.491357 2.054851 1.437635 -1.251472 3.370751
    7 6.028142 0.000000 0.000000 -1.281470 0.091147 -1.089921
    8 11.692558 0.000000 0.000001 0.000000 0.000000 -0.617632
    9 14.961668 3.049394 0.445326 3.060725 -0.015999 0.160431
    10 3.890452 -0.148446 -0.000003 -2.168890 0.249755 -1.476462
    11 17.848175 0.000000 0.000000 0.000000 0.000000 0.417087
    12 16.525248 0.000000 0.000000 0.138223 0.474548 -1.150405
    13 -3.890452 0.148446 0.000007 -1.288047 -0.025849 -1.472658
    14 17.848171 0.000000 0.000000 0.000000 0.000000 0.407137
    15 16.525253 0.000000 0.000000 -0.302476 -0.088962 -1.095718
    16 11.479830 -0.000111 0.000311 -0.751091 0.006939 0.171305
end
