// Created by Crowbar 0.74
version 1
nodes
  0 "ValveBiped.Bip01" -1
  1 "ValveBiped.Bip01_Spine" 0
  2 "ValveBiped.Bip01_Spine2" 1
  3 "ValveBiped.Bip01_R_Clavicle" 2
  4 "ValveBiped.Bip01_R_UpperArm" 3
  5 "ValveBiped.Bip01_R_Forearm" 4
  6 "ValveBiped.Bip01_L_Clavicle" 2
  7 "ValveBiped.Bip01_L_UpperArm" 6
  8 "ValveBiped.Bip01_L_Forearm" 7
  9 "ValveBiped.Bip01_Head1" 2
  10 "ValveBiped.Bip01_L_Thigh" 0
  11 "ValveBiped.Bip01_L_Calf" 10
  12 "ValveBiped.Bip01_L_Foot" 11
  13 "ValveBiped.Bip01_R_Thigh" 0
  14 "ValveBiped.Bip01_R_Calf" 13
  15 "ValveBiped.Bip01_R_Foot" 14
  16 "ValveBiped.Bip01_R_Hand" 5
end
skeleton
  time 0
    0 1.610982 -0.335943 38.016119 1.580719 0.003416 0.005357
    1 0.000005 3.345128 -2.981901 1.568843 0.125231 1.540259
    2 7.524378 0.125004 -0.269539 0.086109 0.096548 0.178360
    3 10.795572 1.479644 -1.808700 -1.185325 1.281161 3.649822
    4 6.028143 0.000000 0.000000 0.981646 -0.038720 -0.986905
    5 11.692554 0.000000 0.000008 0.000000 0.000000 -0.480506
    6 10.506494 1.487451 2.058757 1.469591 -1.251747 3.333549
    7 6.028142 0.000000 0.000000 -1.301690 0.119066 -1.021714
    8 11.692558 0.000000 0.000001 0.000000 0.000000 -0.571455
    9 14.969480 3.037675 0.449232 3.061077 -0.016299 0.158222
    10 3.890452 -0.148446 -0.000003 -1.587998 -0.441787 -1.583295
    11 17.848175 0.000000 0.000000 0.000000 0.000000 0.872105
    12 16.525248 0.000000 0.000000 -0.211946 -0.082139 -1.013768
    13 -3.890452 0.148446 0.000007 -1.333477 0.033899 -1.567103
    14 17.848171 0.000000 0.000000 0.000000 0.000000 0.296499
    15 16.525253 0.000000 0.000000 0.045039 0.048133 -1.165984
    16 11.479830 -0.000111 0.000311 -0.751091 0.006939 0.171305
  time 1
    0 2.523227 0.711677 38.004400 1.580683 0.003416 -0.005788
    1 0.000005 3.345128 -2.981901 1.569010 0.125243 1.544202
    2 7.528284 0.121098 -0.257820 0.097279 0.089034 0.177007
    3 10.799478 1.475738 -1.808700 -1.186872 1.281113 3.645275
    4 6.028143 0.000000 0.000000 0.983554 -0.061990 -0.998813
    5 11.692554 0.000000 0.000008 0.000000 0.000000 -0.481875
    6 10.510400 1.479638 2.058757 1.468247 -1.251927 3.331715
    7 6.028142 0.000000 0.000000 -1.298421 0.102445 -1.031419
    8 11.692558 0.000000 0.000001 0.000000 0.000000 -0.573806
    9 14.981199 3.018143 0.449232 3.061477 -0.016095 0.155153
    10 3.890452 -0.148446 -0.000003 -1.620168 -0.354501 -1.528452
    11 17.848175 0.000000 0.000000 0.000000 0.000000 0.796574
    12 16.525248 0.000000 0.000000 -0.206663 -0.068690 -1.040310
    13 -3.890452 0.148446 0.000007 -1.350368 -0.009419 -1.592090
    14 17.848171 0.000000 0.000000 0.000000 0.000000 0.325953
    15 16.525253 0.000000 0.000000 0.073955 0.065646 -1.179854
    16 11.479830 -0.000111 0.000311 -0.751091 0.006939 0.171305
  time 2
    0 3.435471 1.759296 37.898928 1.580647 0.003416 -0.017417
    1 0.000005 3.345128 -2.981901 1.569238 0.125267 1.548756
    2 7.528284 0.117191 -0.246101 0.108233 0.080093 0.174956
    3 10.803385 1.467925 -1.808700 -1.188987 1.280693 3.639580
    4 6.028143 0.000000 0.000000 0.984372 -0.084221 -1.010302
    5 11.692554 0.000000 0.000008 0.000000 0.000000 -0.482061
    6 10.518213 1.475732 2.054851 1.466757 -1.252502 3.329397
    7 6.028142 0.000000 0.000000 -1.295638 0.087647 -1.040214
    8 11.692558 0.000000 0.000001 0.000000 0.000000 -0.573806
    9 14.989012 2.994704 0.445326 3.061900 -0.015496 0.151467
    10 3.890452 -0.148446 -0.000003 -1.648741 -0.271072 -1.484958
    11 17.848175 0.000000 0.000000 0.000000 0.000000 0.713039
    12 16.525248 0.000000 0.000000 -0.201649 -0.060331 -1.084386
    13 -3.890452 0.148446 0.000007 -1.366963 -0.077087 -1.620220
    14 17.848171 0.000000 0.000000 0.000000 0.000000 0.400603
    15 16.525253 0.000000 0.000000 0.102603 0.079942 -1.186655
    16 11.479830 -0.000111 0.000311 -0.751091 0.006939 0.171305
  time 3
    0 4.347716 2.806916 37.695797 1.580599 0.003416 -0.029800
    1 0.000005 3.345128 -2.981901 1.569490 0.125279 1.553418
    2 7.528284 0.113285 -0.226569 0.118791 0.069882 0.172563
    3 10.807291 1.464019 -1.808700 -1.191490 1.279986 3.633205
    4 6.028143 0.000000 0.000000 0.983509 -0.104484 -1.021007
    5 11.692554 0.000000 0.000008 0.000000 0.000000 -0.482186
    6 10.526026 1.467919 2.054851 1.465203 -1.253401 3.326818
    7 6.028142 0.000000 0.000000 -1.294145 0.076014 -1.047022
    8 11.692558 0.000000 0.000001 0.000000 0.000000 -0.572842
    9 15.004638 2.971266 0.441420 3.062322 -0.014585 0.147472
    10 3.890452 -0.148446 -0.000003 -1.674187 -0.209356 -1.452171
    11 17.848175 0.000000 0.000000 0.000000 0.000000 0.655188
    12 16.525248 0.000000 0.000000 -0.199903 -0.054955 -1.144811
    13 -3.890452 0.148446 0.000007 -1.383170 -0.156173 -1.647908
    14 17.848171 0.000000 0.000000 0.000000 0.000000 0.493419
    15 16.525253 0.000000 0.000000 0.131059 0.089436 -1.181339
    16 11.479830 -0.000111 0.000311 -0.751091 0.006939 0.171305
  time 4
    0 5.259961 3.854535 37.426258 1.580563 0.003416 -0.042022
    1 0.000005 3.345128 -2.981901 1.569717 0.125279 1.557685
    2 7.532191 0.109378 -0.203131 0.128822 0.059324 0.170156
    3 10.811197 1.456206 -1.812606 -1.194174 1.279051 3.626596
    4 6.028143 0.000000 0.000000 0.981715 -0.122280 -1.030073
    5 11.692554 0.000000 0.000008 0.000000 0.000000 -0.483865
    6 10.533839 1.460106 2.054851 1.463691 -1.254516 3.324178
    7 6.028142 0.000000 0.000000 -1.293374 0.068845 -1.051272
    8 11.692558 0.000000 0.000001 0.000000 0.000000 -0.572842
    9 15.016357 2.947828 0.433607 3.062745 -0.013447 0.143445
    10 3.890452 -0.148446 -0.000003 -1.694092 -0.157582 -1.434097
    11 17.848175 0.000000 0.000000 0.000000 0.000000 0.604764
    12 16.525248 0.000000 0.000000 -0.197246 -0.062438 -1.232371
    13 -3.890452 0.148446 0.000007 -1.398648 -0.236002 -1.673592
    14 17.848171 0.000000 0.000000 0.000000 0.000000 0.582573
    15 16.525253 0.000000 0.000000 0.159170 0.093430 -1.161351
    16 11.479830 -0.000111 0.000311 -0.751091 0.006939 0.171305
  time 5
    0 6.172206 4.902155 37.125467 1.580528 0.003416 -0.051067
    1 0.000005 3.345128 -2.981901 1.569897 0.125291 1.561077
    2 7.532191 0.105472 -0.179693 0.138242 0.049760 0.168133
    3 10.811197 1.448393 -1.812606 -1.196859 1.277961 3.620198
    4 6.028143 0.000000 0.000000 0.981783 -0.137645 -1.036925
    5 11.692554 0.000000 0.000008 0.000000 0.000000 -0.488468
    6 10.541651 1.452294 2.050945 1.462264 -1.255774 3.321638
    7 6.028142 0.000000 0.000000 -1.290641 0.067168 -1.052371
    8 11.692558 0.000000 0.000001 0.000000 0.000000 -0.575856
    9 15.028076 2.924390 0.425794 3.063098 -0.012164 0.139629
    10 3.890452 -0.148446 -0.000003 -1.704614 -0.118910 -1.432437
    11 17.848175 0.000000 0.000000 0.000000 0.000000 0.556171
    12 16.525248 0.000000 0.000000 -0.189859 -0.081988 -1.317564
    13 -3.890452 0.148446 0.000007 -1.411231 -0.309487 -1.697832
    14 17.848171 0.000000 0.000000 0.000000 0.000000 0.655886
    15 16.525253 0.000000 0.000000 0.186455 0.092257 -1.129633
    16 11.479830 -0.000111 0.000311 -0.751091 0.006939 0.171305
  time 6
    0 7.084451 5.949774 36.836396 1.580516 0.003404 -0.056451
    1 0.000005 3.345128 -2.981901 1.569957 0.125291 1.563090
    2 7.532191 0.105472 -0.164068 0.146967 0.042545 0.166837
    3 10.815104 1.440581 -1.816513 -1.199361 1.276786 3.614503
    4 6.028143 0.000000 0.000000 0.984008 -0.149910 -1.040325
    5 11.692554 0.000000 0.000008 0.000000 0.000000 -0.497302
    6 10.549464 1.448387 2.050945 1.461046 -1.257092 3.319421
    7 6.028142 0.000000 0.000000 -1.285662 0.072534 -1.050236
    8 11.692558 0.000000 0.000001 0.000000 0.000000 -0.583813
    9 15.035889 2.904858 0.417982 3.063403 -0.010822 0.136317
    10 3.890452 -0.148446 -0.000003 -1.705508 -0.111861 -1.443742
    11 17.848175 0.000000 0.000000 0.000000 0.000000 0.542205
    12 16.525248 0.000000 0.000000 -0.176354 -0.107099 -1.379550
    13 -3.890452 0.148446 0.000007 -1.417272 -0.376135 -1.715175
    14 17.848171 0.000000 0.000000 0.000000 0.000000 0.709447
    15 16.525253 0.000000 0.000000 0.204089 0.090926 -1.092540
    16 11.479830 -0.000111 0.000311 -0.751091 0.006939 0.171305
  time 7
    0 7.996696 6.997394 36.695767 1.580528 0.003416 -0.052574
    1 0.000005 3.345128 -2.981901 1.570257 0.125291 1.567225
    2 7.536097 0.109378 -0.132817 0.142281 0.029446 0.167706
    3 10.811197 1.436674 -1.824325 -1.207005 1.272711 3.603370
    4 6.028143 0.000000 0.000000 0.983054 -0.145902 -1.046567
    5 11.692554 0.000000 0.000008 0.000000 0.000000 -0.487411
    6 10.565089 1.440575 2.043132 1.457980 -1.261646 3.318575
    7 6.028142 0.000000 0.000000 -1.285125 0.080541 -1.046324
    8 11.692558 0.000000 0.000001 0.000000 0.000000 -0.585802
    9 15.051514 2.881420 0.390637 3.064179 -0.006244 0.132468
    10 3.890452 -0.148446 -0.000003 -1.690920 -0.202938 -1.463963
    11 17.848175 0.000000 0.000000 0.000000 0.000000 0.654665
    12 16.525248 0.000000 0.000000 -0.162565 -0.123093 -1.372827
    13 -3.890452 0.148446 0.000007 -1.423198 -0.406550 -1.744545
    14 17.848171 0.000000 0.000000 0.000000 0.000000 0.721278
    15 16.525253 0.000000 0.000000 0.241563 0.068737 -1.078938
    16 11.479830 -0.000111 0.000311 -0.751091 0.006939 0.171305
  time 8
    0 8.908941 8.045013 36.664516 1.580563 0.003416 -0.043045
    1 0.000005 3.345128 -2.981901 1.570520 0.125291 1.571000
    2 7.536097 0.113285 -0.109378 0.134970 0.017881 0.169401
    3 10.811197 1.428861 -1.832138 -1.214398 1.268301 3.592261
    4 6.028143 0.000000 0.000000 0.984076 -0.139407 -1.048467
    5 11.692554 0.000000 0.000008 0.000000 0.000000 -0.482310
    6 10.580715 1.436668 2.035319 1.455125 -1.266488 3.317346
    7 6.028142 0.000000 0.000000 -1.282442 0.090854 -1.039728
    8 11.692558 0.000000 0.000001 0.000000 0.000000 -0.591349
    9 15.063233 2.854075 0.359386 3.064836 -0.001366 0.128441
    10 3.890452 -0.148446 -0.000003 -1.670210 -0.274463 -1.490643
    11 17.848175 0.000000 0.000000 0.000000 0.000000 0.720990
    12 16.525248 0.000000 0.000000 -0.144523 -0.132734 -1.343999
    13 -3.890452 0.148446 0.000007 -1.426230 -0.421526 -1.777159
    14 17.848171 0.000000 0.000000 0.000000 0.000000 0.735287
    15 16.525253 0.000000 0.000000 0.290474 0.033346 -1.056842
    16 11.479830 -0.000111 0.000311 -0.751091 0.006939 0.171305
  time 9
    0 9.821186 9.092632 36.793426 1.580599 0.003416 -0.031307
    1 0.000005 3.345128 -2.981901 1.570736 0.125291 1.574319
    2 7.536097 0.117191 -0.089846 0.125479 0.008833 0.171666
    3 10.807291 1.421049 -1.843857 -1.221337 1.263723 3.581621
    4 6.028143 0.000000 0.000000 0.984440 -0.130129 -1.045137
    5 11.692554 0.000000 0.000008 0.000000 0.000000 -0.480817
    6 10.596340 1.428856 2.027506 1.452521 -1.271462 3.315875
    7 6.028142 0.000000 0.000000 -1.280196 0.103660 -1.032116
    8 11.692558 0.000000 0.000001 0.000000 0.000000 -0.599427
    9 15.078859 2.830637 0.328135 3.065377 0.003631 0.124430
    10 3.890452 -0.148446 -0.000003 -1.645792 -0.314997 -1.523762
    11 17.848175 0.000000 0.000000 0.000000 0.000000 0.725698
    12 16.525248 0.000000 0.000000 -0.119706 -0.140217 -1.306458
    13 -3.890452 0.148446 0.000007 -1.424315 -0.415987 -1.800108
    14 17.848171 0.000000 0.000000 0.000000 0.000000 0.741228
    15 16.525253 0.000000 0.000000 0.333167 -0.010651 -1.028985
    16 11.479830 -0.000111 0.000311 -0.751091 0.006939 0.171305
  time 10
    0 10.733431 10.140252 37.078591 1.580635 0.003416 -0.021616
    1 0.000005 3.345128 -2.981901 1.570892 0.125291 1.577064
    2 7.536097 0.125004 -0.074221 0.114237 0.002996 0.174130
    3 10.803385 1.413236 -1.851670 -1.227684 1.259145 3.571848
    4 6.028143 0.000000 0.000000 0.980556 -0.117362 -1.035949
    5 11.692554 0.000000 0.000008 0.000000 0.000000 -0.481377
    6 10.611966 1.424949 2.019694 1.450275 -1.276388 3.314343
    7 6.028142 0.000000 0.000000 -1.282023 0.119423 -1.025266
    8 11.692558 0.000000 0.000001 0.000000 0.000000 -0.608831
    9 15.090578 2.807199 0.300790 3.065800 0.008581 0.120679
    10 3.890452 -0.148446 -0.000003 -1.622737 -0.322712 -1.559048
    11 17.848175 0.000000 0.000000 0.000000 0.000000 0.670775
    12 16.525248 0.000000 0.000000 -0.088532 -0.145121 -1.266255
    13 -3.890452 0.148446 0.000007 -1.418343 -0.393215 -1.805934
    14 17.848171 0.000000 0.000000 0.000000 0.000000 0.736871
    15 16.525253 0.000000 0.000000 0.357114 -0.065933 -0.976211
    16 11.479830 -0.000111 0.000311 -0.751091 0.006939 0.171305
  time 11
    0 11.645675 11.187871 37.406726 1.580671 0.003416 -0.011764
    1 0.000005 3.345128 -2.981901 1.571000 0.125291 1.579089
    2 7.536097 0.128910 -0.066408 0.101605 0.000132 0.176409
    3 10.799478 1.405423 -1.863389 -1.233257 1.254734 3.563247
    4 6.028143 0.000000 0.000000 0.975106 -0.101775 -1.023030
    5 11.692554 0.000000 0.000008 0.000000 0.000000 -0.482372
    6 10.627591 1.417136 2.007975 1.448385 -1.281097 3.312932
    7 6.028142 0.000000 0.000000 -1.285310 0.136841 -1.018733
    8 11.692558 0.000000 0.000001 0.000000 0.000000 -0.618416
    9 15.098390 2.787667 0.269539 3.066105 0.013303 0.117415
    10 3.890452 -0.148446 -0.000003 -1.600017 -0.312770 -1.593051
    11 17.848175 0.000000 0.000000 0.000000 0.000000 0.583894
    12 16.525248 0.000000 0.000000 -0.055269 -0.144278 -1.216505
    13 -3.890452 0.148446 0.000007 -1.407401 -0.387490 -1.807752
    14 17.848171 0.000000 0.000000 0.000000 0.000000 0.779938
    15 16.525253 0.000000 0.000000 0.360510 -0.139727 -0.907844
    16 11.479830 -0.000111 0.000311 -0.751091 0.006939 0.171305
  time 12
    0 12.557920 12.235491 37.715329 1.580719 0.003416 0.002504
    1 0.000005 3.345128 -2.981901 1.571036 0.125291 1.580300
    2 7.536097 0.132817 -0.058596 0.087955 -0.000048 0.178089
    3 10.791666 1.401517 -1.871202 -1.237921 1.250684 3.556239
    4 6.028143 0.000000 0.000000 0.972494 -0.084722 -1.008890
    5 11.692554 0.000000 0.000008 0.000000 0.000000 -0.482434
    6 10.639310 1.413230 2.000162 1.446958 -1.285388 3.311743
    7 6.028142 0.000000 0.000000 -1.285678 0.154028 -1.011333
    8 11.692558 0.000000 0.000001 0.000000 0.000000 -0.627277
    9 15.106203 2.772041 0.242195 3.066293 0.017617 0.114817
    10 3.890452 -0.148446 -0.000003 -1.573834 -0.297008 -1.625528
    11 17.848175 0.000000 0.000000 0.000000 0.000000 0.485818
    12 16.525248 0.000000 0.000000 -0.023722 -0.138379 -1.150997
    13 -3.890452 0.148446 0.000007 -1.388664 -0.372670 -1.802639
    14 17.848171 0.000000 0.000000 0.000000 0.000000 0.818649
    15 16.525253 0.000000 0.000000 0.335355 -0.220874 -0.810166
    16 11.479830 -0.000111 0.000311 -0.751091 0.006939 0.171305
  time 13
    0 13.470165 13.283110 37.922366 1.580779 0.003416 0.022694
    1 0.000005 3.345128 -2.981901 1.571012 0.125291 1.580563
    2 7.536097 0.136723 -0.058596 0.073645 0.002049 0.178759
    3 10.787759 1.397611 -1.879014 -1.241538 1.247136 3.551130
    4 6.028143 0.000000 0.000000 0.974606 -0.067223 -0.995029
    5 11.692554 0.000000 0.000008 0.000000 0.000000 -0.480506
    6 10.647123 1.413230 1.996256 1.446055 -1.289103 3.310977
    7 6.028142 0.000000 0.000000 -1.281185 0.169728 -1.002262
    8 11.692558 0.000000 0.000001 0.000000 0.000000 -0.634512
    9 15.114016 2.760322 0.218757 3.066364 0.021333 0.113145
    10 3.890452 -0.148446 -0.000003 -1.542469 -0.294448 -1.657164
    11 17.848175 0.000000 0.000000 0.000000 0.000000 0.412222
    12 16.525248 0.000000 0.000000 0.003125 -0.130492 -1.070994
    13 -3.890452 0.148446 0.000007 -1.361447 -0.341852 -1.789203
    14 17.848171 0.000000 0.000000 0.000000 0.000000 0.836222
    15 16.525253 0.000000 0.000000 0.279191 -0.294145 -0.684095
    16 11.479830 -0.000111 0.000311 -0.751091 0.006939 0.171305
  time 14
    0 14.382410 14.330730 37.992681 1.580815 0.003416 0.031362
    1 0.000005 3.345128 -2.981901 1.570928 0.125291 1.580000
    2 7.536097 0.132817 -0.058596 0.059623 0.006220 0.178018
    3 10.783853 1.393704 -1.882921 -1.244268 1.244128 3.548060
    4 6.028143 0.000000 0.000000 0.965704 -0.045401 -0.978431
    5 11.692554 0.000000 0.000008 0.000000 0.000000 -0.475903
    6 10.654936 1.413230 1.988443 1.445614 -1.292231 3.310957
    7 6.028142 0.000000 0.000000 -1.287690 0.188487 -0.996532
    8 11.692558 0.000000 0.000001 0.000000 0.000000 -0.639455
    9 15.114016 2.760322 0.199225 3.066317 0.024473 0.112658
    10 3.890452 -0.148446 -0.000003 -1.522898 -0.316527 -1.686521
    11 17.848175 0.000000 0.000000 0.000000 0.000000 0.384238
    12 16.525248 0.000000 0.000000 0.026151 -0.125706 -0.989673
    13 -3.890452 0.148446 0.000007 -1.342846 -0.326134 -1.768309
    14 17.848171 0.000000 0.000000 0.000000 0.000000 0.886170
    15 16.525253 0.000000 0.000000 0.198141 -0.345163 -0.569073
    16 11.479830 -0.000111 0.000311 -0.751091 0.006939 0.171305
  time 15
    0 15.294655 15.378349 37.941898 1.580827 0.003416 0.036746
    1 0.000005 3.345128 -2.981901 1.570844 0.125291 1.578826
    2 7.536097 0.128910 -0.066408 0.046800 0.012236 0.175981
    3 10.779946 1.397611 -1.886827 -1.246020 1.241755 3.547145
    4 6.028143 0.000000 0.000000 0.954939 -0.022038 -0.961973
    5 11.692554 0.000000 0.000008 0.000000 0.000000 -0.468438
    6 10.658842 1.413230 1.984536 1.445656 -1.294676 3.311703
    7 6.028142 0.000000 0.000000 -1.296174 0.206953 -0.992283
    8 11.692558 0.000000 0.000001 0.000000 0.000000 -0.641685
    9 15.114016 2.764229 0.179693 3.066176 0.026905 0.113421
    10 3.890452 -0.148446 -0.000003 -1.505652 -0.354235 -1.717936
    11 17.848175 0.000000 0.000000 0.000000 0.000000 0.382460
    12 16.525248 0.000000 0.000000 0.046655 -0.127391 -0.907250
    13 -3.890452 0.148446 0.000007 -1.324724 -0.337953 -1.751187
    14 17.848171 0.000000 0.000000 0.000000 0.000000 0.994234
    15 16.525253 0.000000 0.000000 0.106882 -0.367400 -0.494678
    16 11.479830 -0.000111 0.000311 -0.751091 0.006939 0.171305
  time 16
    0 16.206900 16.425969 37.801269 1.580851 0.003416 0.043853
    1 0.000005 3.345128 -2.981901 1.570772 0.125291 1.577064
    2 7.536097 0.121098 -0.074221 0.035450 0.019858 0.173047
    3 10.772134 1.397611 -1.890734 -1.246475 1.240353 3.548622
    4 6.028143 0.000000 0.000000 0.947399 0.000824 -0.947485
    5 11.692554 0.000000 0.000008 0.000000 0.000000 -0.458423
    6 10.658842 1.417136 1.980630 1.446370 -1.296078 3.312952
    7 6.028142 0.000000 0.000000 -1.301657 0.222757 -0.987927
    8 11.692558 0.000000 0.000001 0.000000 0.000000 -0.640962
    9 15.110110 2.775948 0.171880 3.065894 0.028296 0.115304
    10 3.890452 -0.148446 -0.000003 -1.485791 -0.393472 -1.752227
    11 17.848175 0.000000 0.000000 0.000000 0.000000 0.383976
    12 16.525248 0.000000 0.000000 0.064309 -0.136509 -0.824934
    13 -3.890452 0.148446 0.000007 -1.304414 -0.324370 -1.722157
    14 17.848171 0.000000 0.000000 0.000000 0.000000 1.045270
    15 16.525253 0.000000 0.000000 0.020632 -0.353880 -0.423045
    16 11.479830 -0.000111 0.000311 -0.751091 0.006939 0.171305
  time 17
    0 17.119145 17.473588 37.602044 1.580875 0.003416 0.050636
    1 0.000005 3.345128 -2.981901 1.570688 0.125291 1.574703
    2 7.536097 0.113285 -0.089846 0.025899 0.028871 0.169629
    3 10.768227 1.405423 -1.890734 -1.245224 1.240233 3.552723
    4 6.028143 0.000000 0.000000 0.941608 0.022887 -0.935263
    5 11.692554 0.000000 0.000008 0.000000 0.000000 -0.446542
    6 10.654936 1.424949 1.980630 1.447944 -1.296102 3.314383
    7 6.028142 0.000000 0.000000 -1.305865 0.235753 -0.983804
    8 11.692558 0.000000 0.000001 0.000000 0.000000 -0.637164
    9 15.102297 2.795480 0.171880 3.065494 0.028284 0.118211
    10 3.890452 -0.148446 -0.000003 -1.466087 -0.424164 -1.786982
    11 17.848175 0.000000 0.000000 0.000000 0.000000 0.374823
    12 16.525248 0.000000 0.000000 0.078755 -0.152890 -0.750067
    13 -3.890452 0.148446 0.000007 -1.285995 -0.277896 -1.678212
    14 17.848171 0.000000 0.000000 0.000000 0.000000 1.042300
    15 16.525253 0.000000 0.000000 -0.042267 -0.300120 -0.420461
    16 11.479830 -0.000111 0.000311 -0.751091 0.006939 0.171305
  time 18
    0 18.031390 18.521208 37.367662 1.580899 0.003404 0.056774
    1 0.000005 3.345128 -2.981901 1.570628 0.125291 1.571767
    2 7.536097 0.105472 -0.109378 0.018432 0.039034 0.166139
    3 10.768227 1.409330 -1.886827 -1.241333 1.242079 3.560247
    4 6.028143 0.000000 0.000000 0.937656 0.043132 -0.926232
    5 11.692554 0.000000 0.000008 0.000000 0.000000 -0.433977
    6 10.643217 1.432762 1.984536 1.450842 -1.294005 3.315431
    7 6.028142 0.000000 0.000000 -1.308900 0.245374 -0.979364
    8 11.692558 0.000000 0.000001 0.000000 0.000000 -0.630231
    9 15.090578 2.818918 0.183599 3.064813 0.026150 0.122043
    10 3.890452 -0.148446 -0.000003 -1.448081 -0.436234 -1.819237
    11 17.848175 0.000000 0.000000 0.000000 0.000000 0.342968
    12 16.525248 0.000000 0.000000 0.092797 -0.175878 -0.696337
    13 -3.890452 0.148446 0.000007 -1.269081 -0.219077 -1.627015
    14 17.848171 0.000000 0.000000 0.000000 0.000000 1.041063
    15 16.525253 0.000000 0.000000 -0.083483 -0.218830 -0.536612
    16 11.479830 -0.000111 0.000311 -0.751091 0.006939 0.171305
  time 19
    0 18.943634 19.568827 37.125467 1.580923 0.003404 0.061996
    1 0.000005 3.345128 -2.981901 1.570592 0.125291 1.568267
    2 7.536097 0.097659 -0.128910 0.013339 0.050132 0.162977
    3 10.768227 1.417142 -1.882921 -1.234782 1.245854 3.571098
    4 6.028143 0.000000 0.000000 0.935907 0.060427 -0.920443
    5 11.692554 0.000000 0.000008 0.000000 0.000000 -0.422406
    6 10.627591 1.440575 1.992349 1.454852 -1.289834 3.316237
    7 6.028142 0.000000 0.000000 -1.310677 0.251138 -0.974776
    8 11.692558 0.000000 0.000001 0.000000 0.000000 -0.620526
    9 15.074952 2.846262 0.210944 3.063920 0.021920 0.126655
    10 3.890452 -0.148446 -0.000003 -1.433381 -0.428154 -1.845498
    11 17.848175 0.000000 0.000000 0.000000 0.000000 0.286999
    12 16.525248 0.000000 0.000000 0.079217 -0.193339 -0.650057
    13 -3.890452 0.148446 0.000007 -1.253330 -0.150913 -1.569668
    14 17.848171 0.000000 0.000000 0.000000 0.000000 1.018044
    15 16.525253 0.000000 0.000000 -0.120151 -0.131786 -0.709280
    16 11.479830 -0.000111 0.000311 -0.751051 0.006939 0.171305
  time 20
    0 19.855879 20.616447 36.910617 1.580935 0.003404 0.065981
    1 0.000005 3.345128 -2.981901 1.570592 0.125291 1.564204
    2 7.532191 0.093753 -0.156255 0.010942 0.061948 0.160584
    3 10.772134 1.424955 -1.871202 -1.226660 1.250828 3.584129
    4 6.028143 0.000000 0.000000 0.936793 0.073639 -0.917148
    5 11.692554 0.000000 0.000008 0.000000 0.000000 -0.413635
    6 10.611966 1.448387 2.000162 1.459177 -1.284369 3.317426
    7 6.028142 0.000000 0.000000 -1.311147 0.252626 -0.970992
    8 11.692558 0.000000 0.000001 0.000000 0.000000 -0.608168
    9 15.059327 2.877513 0.242195 3.062957 0.016407 0.131965
    10 3.890452 -0.148446 -0.000003 -1.422323 -0.406407 -1.865541
    11 17.848175 0.000000 0.000000 0.000000 0.000000 0.217954
    12 16.525248 0.000000 0.000000 0.021301 -0.180749 -0.607111
    13 -3.890452 0.148446 0.000007 -1.238924 -0.090856 -1.514954
    14 17.848171 0.000000 0.000000 0.000000 0.000000 0.963889
    15 16.525253 0.000000 0.000000 -0.159314 -0.053460 -0.859852
    16 11.479830 -0.000111 0.000311 -0.751091 0.006939 0.171305
  time 21
    0 20.768124 21.664066 36.746549 1.580935 0.003404 0.068457
    1 0.000005 3.345128 -2.981901 1.570652 0.125279 1.559602
    2 7.532191 0.089847 -0.183599 0.011553 0.074257 0.159388
    3 10.776040 1.436674 -1.859483 -1.218084 1.256280 3.598167
    4 6.028143 0.000000 0.000000 0.940745 0.081655 -0.915614
    5 11.692554 0.000000 0.000008 0.000000 0.000000 -0.409406
    6 10.588528 1.460106 2.011881 1.463061 -1.278413 3.319603
    7 6.028142 0.000000 0.000000 -1.310208 0.249524 -0.968962
    8 11.692558 0.000000 0.000001 0.000000 0.000000 -0.593579
    9 15.039795 2.912671 0.281259 3.062111 0.010391 0.137843
    10 3.890452 -0.148446 -0.000003 -1.414235 -0.376048 -1.881470
    11 17.848175 0.000000 0.000000 0.000000 0.000000 0.143521
    12 16.525248 0.000000 0.000000 -0.060552 -0.147986 -0.570887
    13 -3.890452 0.148446 0.000007 -1.227139 -0.070002 -1.479062
    14 17.848171 0.000000 0.000000 0.000000 0.000000 0.906516
    15 16.525253 0.000000 0.000000 -0.185851 0.014771 -0.925693
    16 11.479830 -0.000111 0.000311 -0.751091 0.006939 0.171305
  time 22
    0 21.680369 22.711686 36.664516 1.580947 0.003404 0.068780
    1 0.000005 3.345128 -2.981901 1.570640 0.125279 1.554689
    2 7.532191 0.089847 -0.214850 0.014813 0.086073 0.159815
    3 10.776040 1.448393 -1.847764 -1.210144 1.261434 3.611597
    4 6.028143 0.000000 0.000000 0.946786 0.083734 -0.915614
    5 11.692554 0.000000 0.000008 0.000000 0.000000 -0.410961
    6 10.568996 1.467919 2.019694 1.466127 -1.272768 3.322545
    7 6.028142 0.000000 0.000000 -1.308716 0.242313 -0.969448
    8 11.692558 0.000000 0.000001 0.000000 0.000000 -0.577061
    9 15.020263 2.951734 0.316416 3.061430 0.004734 0.143721
    10 3.890452 -0.148446 -0.000003 -1.408784 -0.380604 -1.895297
    11 17.848175 0.000000 0.000000 0.000000 0.000000 0.149328
    12 16.525248 0.000000 0.000000 -0.095770 -0.151053 -0.583096
    13 -3.890452 0.148446 0.000007 -1.221919 -0.076809 -1.467596
    14 17.848171 0.000000 0.000000 0.000000 0.000000 0.869884
    15 16.525253 0.000000 0.000000 -0.191243 0.058593 -0.953818
    16 11.479830 -0.000111 0.000311 -0.751091 0.006939 0.171305
  time 23
    0 22.592614 23.759305 36.684047 1.580935 0.003404 0.066573
    1 0.000005 3.345128 -2.981901 1.570460 0.125267 1.549871
    2 7.528284 0.089847 -0.238289 0.019930 0.096045 0.161752
    3 10.779946 1.460112 -1.839951 -1.203160 1.266024 3.623526
    4 6.028143 0.000000 0.000000 0.953122 0.080282 -0.917636
    5 11.692554 0.000000 0.000008 0.000000 0.000000 -0.417679
    6 10.553370 1.475732 2.027506 1.468478 -1.267771 3.325548
    7 6.028142 0.000000 0.000000 -1.307726 0.232064 -0.972577
    8 11.692558 0.000000 0.000001 0.000000 0.000000 -0.558796
    9 15.004638 2.982985 0.347667 3.060913 -0.000276 0.148966
    10 3.890452 -0.148446 -0.000003 -1.406282 -0.450333 -1.906203
    11 17.848175 0.000000 0.000000 0.000000 0.000000 0.307974
    12 16.525248 0.000000 0.000000 -0.104201 -0.171665 -0.671113
    13 -3.890452 0.148446 0.000007 -1.225429 -0.082873 -1.474169
    14 17.848171 0.000000 0.000000 0.000000 0.000000 0.844935
    15 16.525253 0.000000 0.000000 -0.184546 0.066946 -1.002167
    16 11.479830 -0.000111 0.000311 -0.751091 0.006939 0.171305
  time 24
    0 23.504859 24.806925 36.789519 1.580911 0.003404 0.061566
    1 0.000005 3.345128 -2.981901 1.570173 0.125255 1.545413
    2 7.528284 0.097659 -0.257820 0.026594 0.103391 0.164715
    3 10.779946 1.467925 -1.832138 -1.197177 1.270015 3.633721
    4 6.028143 0.000000 0.000000 0.958732 0.072192 -0.922239
    5 11.692554 0.000000 0.000008 0.000000 0.000000 -0.427880
    6 10.537745 1.483545 2.035319 1.470179 -1.263432 3.328410
    7 6.028142 0.000000 0.000000 -1.307659 0.219362 -0.977483
    8 11.692558 0.000000 0.000001 0.000000 0.000000 -0.544930
    9 14.989012 3.010330 0.375011 3.060560 -0.004638 0.153464
    10 3.890452 -0.148446 -0.000003 -1.410080 -0.527877 -1.904323
    11 17.848175 0.000000 0.000000 0.000000 0.000000 0.503864
    12 16.525248 0.000000 0.000000 -0.124706 -0.177901 -0.761846
    13 -3.890452 0.148446 0.000007 -1.236507 -0.078789 -1.490001
    14 17.848171 0.000000 0.000000 0.000000 0.000000 0.800779
    15 16.525253 0.000000 0.000000 -0.163996 0.052935 -1.047695
    16 11.479830 -0.000111 0.000311 -0.751091 0.006939 0.171305
  time 25
    0 24.417104 25.854544 36.992651 1.580887 0.003416 0.054028
    1 0.000005 3.345128 -2.981901 1.569825 0.125243 1.541566
    2 7.528284 0.101566 -0.273446 0.034540 0.107741 0.168247
    3 10.779946 1.475738 -1.824325 -1.192286 1.273406 3.642018
    4 6.028143 0.000000 0.000000 0.963160 0.060316 -0.929614
    5 11.692554 0.000000 0.000008 0.000000 0.000000 -0.439824
    6 10.522119 1.487451 2.043132 1.471271 -1.259765 3.330949
    7 6.028142 0.000000 0.000000 -1.308615 0.205088 -0.982916
    8 11.692558 0.000000 0.000001 0.000000 0.000000 -0.540590
    9 14.977293 3.029862 0.398450 3.060325 -0.008317 0.157086
    10 3.890452 -0.148446 -0.000003 -1.423171 -0.591023 -1.883505
    11 17.848175 0.000000 0.000000 0.000000 0.000000 0.681341
    12 16.525248 0.000000 0.000000 -0.156596 -0.167924 -0.813720
    13 -3.890452 0.148446 0.000007 -1.252167 -0.056480 -1.504015
    14 17.848171 0.000000 0.000000 0.000000 0.000000 0.714100
    15 16.525253 0.000000 0.000000 -0.132393 0.032284 -1.075582
    16 11.479830 -0.000111 0.000311 -0.751091 0.006939 0.171305
  time 26
    0 25.329349 26.902164 37.270003 1.580863 0.003416 0.044876
    1 0.000005 3.345128 -2.981901 1.569454 0.125231 1.538569
    2 7.524378 0.109378 -0.277352 0.043552 0.109479 0.171879
    3 10.783853 1.479644 -1.816513 -1.188555 1.276199 3.648205
    4 6.028143 0.000000 0.000000 0.966930 0.045229 -0.939203
    5 11.692554 0.000000 0.000008 0.000000 0.000000 -0.451829
    6 10.514307 1.491357 2.047038 1.471838 -1.256781 3.333025
    7 6.028142 0.000000 0.000000 -1.309621 0.189556 -0.988942
    8 11.692558 0.000000 0.000001 0.000000 0.000000 -0.543484
    9 14.965574 3.045487 0.414075 3.060255 -0.011301 0.159716
    10 3.890452 -0.148446 -0.000003 -1.447098 -0.624773 -1.841360
    11 17.848175 0.000000 0.000000 0.000000 0.000000 0.814201
    12 16.525248 0.000000 0.000000 -0.187800 -0.146065 -0.841634
    13 -3.890452 0.148446 0.000007 -1.269195 -0.021672 -1.513816
    14 17.848171 0.000000 0.000000 0.000000 0.000000 0.598661
    15 16.525253 0.000000 0.000000 -0.094305 0.015975 -1.091797
    16 11.479830 -0.000111 0.000311 -0.751091 0.006939 0.171305
  time 27
    0 26.241594 27.949783 37.559074 1.580827 0.003416 0.035077
    1 0.000005 3.345128 -2.981901 1.569130 0.125219 1.536700
    2 7.524378 0.117191 -0.281259 0.053427 0.108976 0.175155
    3 10.783853 1.483551 -1.812606 -1.186007 1.278344 3.652166
    4 6.028143 0.000000 0.000000 0.970564 0.027396 -0.950379
    5 11.692554 0.000000 0.000008 0.000000 0.000000 -0.462529
    6 10.506494 1.495264 2.050945 1.471901 -1.254492 3.334435
    7 6.028142 0.000000 0.000000 -1.309755 0.172767 -0.995666
    8 11.692558 0.000000 0.000001 0.000000 0.000000 -0.550597
    9 14.961668 3.057206 0.429701 3.060278 -0.013579 0.161226
    10 3.890452 -0.148446 -0.000003 -1.479692 -0.620650 -1.782668
    11 17.848175 0.000000 0.000000 0.000000 0.000000 0.895591
    12 16.525248 0.000000 0.000000 -0.206484 -0.126818 -0.883531
    13 -3.890452 0.148446 0.000007 -1.285950 0.002494 -1.525792
    14 17.848171 0.000000 0.000000 0.000000 0.000000 0.508666
    15 16.525253 0.000000 0.000000 -0.054374 0.009620 -1.122298
    16 11.479830 -0.000111 0.000311 -0.751091 0.006939 0.171305
  time 28
    0 27.153838 28.997402 37.789550 1.580791 0.003416 0.025493
    1 0.000005 3.345128 -2.981901 1.568890 0.125219 1.536196
    2 7.524378 0.121098 -0.281259 0.063974 0.106603 0.177591
    3 10.787759 1.483551 -1.808700 -1.184688 1.279866 3.653689
    4 6.028143 0.000000 0.000000 0.974652 0.007059 -0.962496
    5 11.692554 0.000000 0.000008 0.000000 0.000000 -0.471051
    6 10.502588 1.491357 2.054851 1.471502 -1.252934 3.335060
    7 6.028142 0.000000 0.000000 -1.308146 0.154846 -1.003298
    8 11.692558 0.000000 0.000001 0.000000 0.000000 -0.558976
    9 14.961668 3.057206 0.441420 3.060443 -0.015137 0.161486
    10 3.890452 -0.148446 -0.000003 -1.515995 -0.582577 -1.715834
    11 17.848175 0.000000 0.000000 0.000000 0.000000 0.929276
    12 16.525248 0.000000 0.000000 -0.214035 -0.112712 -0.939493
    13 -3.890452 0.148446 0.000007 -1.301769 0.028577 -1.536221
    14 17.848171 0.000000 0.000000 0.000000 0.000000 0.410850
    15 16.525253 0.000000 0.000000 -0.017418 0.015547 -1.142374
    16 11.479830 -0.000111 0.000311 -0.751091 0.006939 0.171305
  time 29
    0 28.066083 30.045022 37.941898 1.580755 0.003416 0.015856
    1 0.000005 3.345128 -2.981901 1.568795 0.125219 1.537431
    2 7.524378 0.125004 -0.277352 0.074940 0.102468 0.178659
    3 10.791666 1.483551 -1.808700 -1.184529 1.280765 3.652775
    4 6.028143 0.000000 0.000000 0.978649 -0.015321 -0.974770
    5 11.692554 0.000000 0.000008 0.000000 0.000000 -0.477085
    6 10.502588 1.491357 2.054851 1.470704 -1.252059 3.334738
    7 6.028142 0.000000 0.000000 -1.305077 0.136694 -1.012073
    8 11.692558 0.000000 0.000001 0.000000 0.000000 -0.566391
    9 14.961668 3.049394 0.445326 3.060725 -0.015999 0.160431
    10 3.890452 -0.148446 -0.000003 -1.552745 -0.521027 -1.647341
    11 17.848175 0.000000 0.000000 0.000000 0.000000 0.920332
    12 16.525248 0.000000 0.000000 -0.215288 -0.097308 -0.982170
    13 -3.890452 0.148446 0.000007 -1.317202 0.043893 -1.548791
    14 17.848171 0.000000 0.000000 0.000000 0.000000 0.330359
    15 16.525253 0.000000 0.000000 0.014971 0.030382 -1.154372
    16 11.479830 -0.000111 0.000311 -0.751091 0.006939 0.171305
  time 30
    0 28.978328 31.092641 38.016119 1.580719 0.003416 0.005357
    1 0.000005 3.345128 -2.981901 1.568843 0.125231 1.540259
    2 7.524378 0.125004 -0.269539 0.086109 0.096548 0.178360
    3 10.795572 1.479644 -1.808700 -1.185325 1.281161 3.649822
    4 6.028143 0.000000 0.000000 0.981646 -0.038720 -0.986905
    5 11.692554 0.000000 0.000008 0.000000 0.000000 -0.480506
    6 10.506494 1.487451 2.058757 1.469591 -1.251747 3.333549
    7 6.028142 0.000000 0.000000 -1.301690 0.119066 -1.021714
    8 11.692558 0.000000 0.000001 0.000000 0.000000 -0.571455
    9 14.969480 3.037675 0.449232 3.061077 -0.016299 0.158222
    10 3.890452 -0.148446 -0.000003 -1.587998 -0.441787 -1.583295
    11 17.848175 0.000000 0.000000 0.000000 0.000000 0.872105
    12 16.525248 0.000000 0.000000 -0.211946 -0.082139 -1.013768
    13 -3.890452 0.148446 0.000007 -1.333477 0.033899 -1.567103
    14 17.848171 0.000000 0.000000 0.000000 0.000000 0.296499
    15 16.525253 0.000000 0.000000 0.045039 0.048133 -1.165984
    16 11.479830 -0.000111 0.000311 -0.751091 0.006939 0.171305
end
