// Created by Crowbar 0.74
version 1
nodes
  0 "ValveBiped.Bip01" -1
  1 "ValveBiped.Bip01_Spine" 0
  2 "ValveBiped.Bip01_Spine2" 1
  3 "ValveBiped.Bip01_R_Clavicle" 2
  4 "ValveBiped.Bip01_R_UpperArm" 3
  5 "ValveBiped.Bip01_R_Forearm" 4
  6 "ValveBiped.Bip01_L_Clavicle" 2
  7 "ValveBiped.Bip01_L_UpperArm" 6
  8 "ValveBiped.Bip01_L_Forearm" 7
  9 "ValveBiped.Bip01_Head1" 2
  10 "ValveBiped.Bip01_L_Thigh" 0
  11 "ValveBiped.Bip01_L_Calf" 10
  12 "ValveBiped.Bip01_L_Foot" 11
  13 "ValveBiped.Bip01_R_Thigh" 0
  14 "ValveBiped.Bip01_R_Calf" 13
  15 "ValveBiped.Bip01_R_Foot" 14
  16 "ValveBiped.Bip01_R_Hand" 5
end
skeleton
  time 0
    0 1.610982 -0.335943 37.965337 1.580683 0.003416 -0.005788
    1 0.000005 3.345128 -2.981901 1.569010 0.125243 1.544202
    2 7.528284 0.121098 -0.257820 0.097279 0.089034 0.177007
    3 10.799478 1.475738 -1.808700 -1.348209 1.293361 3.477257
    4 6.028143 0.000000 0.000000 0.981692 0.195926 -0.972678
    5 11.692554 0.000000 0.000008 0.000000 0.000000 -0.362876
    6 10.510400 1.479638 2.058757 1.298286 -1.253569 3.510956
    7 6.028142 0.000000 0.000000 -1.219333 0.126947 -1.116942
    8 11.692558 0.000000 0.000001 0.000000 0.000000 -0.536792
    9 14.981199 3.018143 0.449232 3.061477 -0.016095 0.155153
    10 3.890452 -0.148446 -0.000003 -1.366405 -0.525184 -1.650438
    11 17.848175 0.000000 0.000000 0.000000 0.000000 0.914787
    12 16.525248 0.000000 0.000000 -0.210319 0.011330 -1.027778
    13 -3.890452 0.148446 0.000007 -1.365117 0.060787 -1.615871
    14 17.848171 0.000000 0.000000 0.000000 0.000000 0.370555
    15 16.525253 0.000000 0.000000 0.029631 -0.079880 -1.235212
    16 11.479830 -0.000111 0.000311 -0.751091 0.006939 0.171305
  time 1
    0 0.484333 -1.521330 37.855958 1.580647 0.003416 -0.017417
    1 0.000005 3.345128 -2.981901 1.569238 0.125267 1.548756
    2 7.528284 0.117191 -0.246101 0.108233 0.080093 0.174956
    3 10.803385 1.467925 -1.808700 -1.408814 1.295242 3.410743
    4 6.028143 0.000000 0.000000 0.984394 0.216208 -0.957335
    5 11.692554 0.000000 0.000008 0.000000 0.000000 -0.348569
    6 10.518213 1.475732 2.054851 1.236496 -1.252898 3.571576
    7 6.028142 0.000000 0.000000 -1.195055 0.133340 -1.131150
    8 11.692558 0.000000 0.000001 0.000000 0.000000 -0.475785
    9 14.989012 2.994704 0.445326 3.061900 -0.015496 0.151467
    10 3.890452 -0.148446 -0.000003 -1.353559 -0.491067 -1.701233
    11 17.848175 0.000000 0.000000 0.000000 0.000000 0.730039
    12 16.525248 0.000000 0.000000 -0.228122 -0.077437 -1.037997
    13 -3.890452 0.148446 0.000007 -1.367487 0.054320 -1.593670
    14 17.848171 0.000000 0.000000 0.000000 0.000000 0.440254
    15 16.525253 0.000000 0.000000 -0.006730 -0.077059 -1.226688
    16 11.479830 -0.000111 0.000311 -0.751091 0.006939 0.171305
  time 2
    0 -0.642315 -2.706717 37.652827 1.580599 0.003416 -0.029800
    1 0.000005 3.345128 -2.981901 1.569490 0.125279 1.553418
    2 7.528284 0.113285 -0.226569 0.118791 0.069882 0.172563
    3 10.807291 1.464019 -1.808700 -1.459476 1.295590 3.354261
    4 6.028143 0.000000 0.000000 0.984258 0.231480 -0.944835
    5 11.692554 0.000000 0.000008 0.000000 0.000000 -0.336936
    6 10.526026 1.467919 2.054851 1.185035 -1.252023 3.620991
    7 6.028142 0.000000 0.000000 -1.176612 0.131160 -1.145633
    8 11.692558 0.000000 0.000001 0.000000 0.000000 -0.406218
    9 15.004638 2.971266 0.441420 3.062322 -0.014585 0.147472
    10 3.890452 -0.148446 -0.000003 -1.352822 -0.432344 -1.726896
    11 17.848175 0.000000 0.000000 0.000000 0.000000 0.514587
    12 16.525248 0.000000 0.000000 -0.245209 -0.204934 -1.021593
    13 -3.890452 0.148446 0.000007 -1.371226 0.028144 -1.576429
    14 17.848171 0.000000 0.000000 0.000000 0.000000 0.538714
    15 16.525253 0.000000 0.000000 -0.020930 -0.067217 -1.203583
    16 11.479830 -0.000111 0.000311 -0.751091 0.006939 0.171305
  time 3
    0 -1.768963 -3.892104 37.383288 1.580563 0.003416 -0.042022
    1 0.000005 3.345128 -2.981901 1.569717 0.125279 1.557685
    2 7.532191 0.109378 -0.203131 0.128822 0.059324 0.170156
    3 10.811197 1.456206 -1.812606 -1.497786 1.294919 3.310528
    4 6.028143 0.000000 0.000000 0.982714 0.239868 -0.934635
    5 11.692554 0.000000 0.000008 0.000000 0.000000 -0.332955
    6 10.533839 1.460106 2.054851 1.145521 -1.251448 3.657791
    7 6.028142 0.000000 0.000000 -1.163936 0.121959 -1.159609
    8 11.692558 0.000000 0.000001 0.000000 0.000000 -0.334601
    9 15.016357 2.947828 0.433607 3.062745 -0.013447 0.143445
    10 3.890452 -0.148446 -0.000003 -1.356240 -0.403614 -1.742736
    11 17.848175 0.000000 0.000000 0.000000 0.000000 0.393601
    12 16.525248 0.000000 0.000000 -0.210468 -0.343587 -1.043779
    13 -3.890452 0.148446 0.000007 -1.375306 -0.002828 -1.561345
    14 17.848171 0.000000 0.000000 0.000000 0.000000 0.633857
    15 16.525253 0.000000 0.000000 -0.016440 -0.065664 -1.127109
    16 11.479830 -0.000111 0.000311 -0.751091 0.006939 0.171305
  time 4
    0 -2.895611 -5.077492 37.086403 1.580528 0.003416 -0.051067
    1 0.000005 3.345128 -2.981901 1.569897 0.125291 1.561077
    2 7.532191 0.105472 -0.179693 0.138242 0.049760 0.168133
    3 10.811197 1.448393 -1.812606 -1.524198 1.293708 3.279380
    4 6.028143 0.000000 0.000000 0.983213 0.240981 -0.926057
    5 11.692554 0.000000 0.000008 0.000000 0.000000 -0.337496
    6 10.541651 1.452294 2.050945 1.117492 -1.251304 3.682841
    7 6.028142 0.000000 0.000000 -1.153742 0.108880 -1.171090
    8 11.692558 0.000000 0.000001 0.000000 0.000000 -0.269073
    9 15.028076 2.924390 0.425794 3.063098 -0.012164 0.139629
    10 3.890452 -0.148446 -0.000003 -1.363344 -0.392375 -1.744417
    11 17.848175 0.000000 0.000000 0.000000 0.000000 0.347309
    12 16.525248 0.000000 0.000000 -0.139330 -0.456775 -1.061581
    13 -3.890452 0.148446 0.000007 -1.375990 -0.006046 -1.540043
    14 17.848171 0.000000 0.000000 0.000000 0.000000 0.682072
    15 16.525253 0.000000 0.000000 -0.011489 -0.068564 -1.030440
    16 11.479830 -0.000111 0.000311 -0.751091 0.006939 0.171305
  time 5
    0 -4.022259 -6.262879 36.793426 1.580516 0.003404 -0.056451
    1 0.000005 3.345128 -2.981901 1.569957 0.125291 1.563090
    2 7.532191 0.105472 -0.164068 0.146967 0.042545 0.166837
    3 10.815104 1.440581 -1.816513 -1.539372 1.292330 3.260396
    4 6.028143 0.000000 0.000000 0.986529 0.235841 -0.919066
    5 11.692554 0.000000 0.000008 0.000000 0.000000 -0.349813
    6 10.549464 1.448387 2.050945 1.100632 -1.251567 3.696807
    7 6.028142 0.000000 0.000000 -1.145108 0.098274 -1.177411
    8 11.692558 0.000000 0.000001 0.000000 0.000000 -0.223740
    9 15.035889 2.904858 0.417982 3.063403 -0.010822 0.136317
    10 3.890452 -0.148446 -0.000003 -1.370136 -0.424131 -1.740723
    11 17.848175 0.000000 0.000000 0.000000 0.000000 0.442246
    12 16.525248 0.000000 0.000000 -0.112305 -0.496482 -1.125584
    13 -3.890452 0.148446 0.000007 -1.369949 0.022575 -1.503964
    14 17.848171 0.000000 0.000000 0.000000 0.000000 0.677865
    15 16.525253 0.000000 0.000000 -0.022350 -0.053793 -1.000177
    16 11.479830 -0.000111 0.000311 -0.751091 0.006939 0.171305
  time 6
    0 -5.148908 -7.448266 36.656703 1.580528 0.003416 -0.052574
    1 0.000005 3.345128 -2.981901 1.570257 0.125291 1.567225
    2 7.536097 0.109378 -0.132817 0.142281 0.029446 0.167706
    3 10.811197 1.436674 -1.824325 -1.528998 1.287788 3.267521
    4 6.028143 0.000000 0.000000 0.983259 0.238383 -0.935751
    5 11.692554 0.000000 0.000008 0.000000 0.000000 -0.330032
    6 10.565089 1.440575 2.043132 1.105923 -1.256158 3.686771
    7 6.028142 0.000000 0.000000 -1.151345 0.091084 -1.171195
    8 11.692558 0.000000 0.000001 0.000000 0.000000 -0.221811
    9 15.051514 2.881420 0.390637 3.064179 -0.006244 0.132468
    10 3.890452 -0.148446 -0.000003 -1.378111 -0.445911 -1.715724
    11 17.848175 0.000000 0.000000 0.000000 0.000000 0.548796
    12 16.525248 0.000000 0.000000 -0.149329 -0.468000 -1.171649
    13 -3.890452 0.148446 0.000007 -1.353856 0.088603 -1.457845
    14 17.848171 0.000000 0.000000 0.000000 0.000000 0.616086
    15 16.525253 0.000000 0.000000 -0.040636 -0.038736 -0.989426
    16 11.479830 -0.000111 0.000311 -0.751091 0.006939 0.171305
  time 7
    0 -6.275556 -8.633653 36.621546 1.580563 0.003416 -0.043045
    1 0.000005 3.345128 -2.981901 1.570520 0.125291 1.571000
    2 7.536097 0.113285 -0.109378 0.134970 0.017881 0.169401
    3 10.811197 1.428861 -1.832138 -1.508683 1.282898 3.284888
    4 6.028143 0.000000 0.000000 0.982555 0.235136 -0.953796
    5 11.692554 0.000000 0.000008 0.000000 0.000000 -0.315849
    6 10.580715 1.436668 2.035319 1.122363 -1.261515 3.665046
    7 6.028142 0.000000 0.000000 -1.159074 0.076077 -1.164578
    8 11.692558 0.000000 0.000001 0.000000 0.000000 -0.216084
    9 15.063233 2.854075 0.359386 3.064836 -0.001366 0.128441
    10 3.890452 -0.148446 -0.000003 -1.384277 -0.445279 -1.683689
    11 17.848175 0.000000 0.000000 0.000000 0.000000 0.597075
    12 16.525248 0.000000 0.000000 -0.203260 -0.425832 -1.150862
    13 -3.890452 0.148446 0.000007 -1.329967 0.137212 -1.406903
    14 17.848171 0.000000 0.000000 0.000000 0.000000 0.569257
    15 16.525253 0.000000 0.000000 -0.058922 -0.033395 -0.946512
    16 11.479830 -0.000111 0.000311 -0.751091 0.006939 0.171305
  time 8
    0 -7.402204 -9.819041 36.754362 1.580599 0.003416 -0.031307
    1 0.000005 3.345128 -2.981901 1.570736 0.125291 1.574319
    2 7.536097 0.117191 -0.089846 0.125479 0.008833 0.171666
    3 10.807291 1.421049 -1.843857 -1.475924 1.277601 3.315262
    4 6.028143 0.000000 0.000000 0.981510 0.223148 -0.970812
    5 11.692554 0.000000 0.000008 0.000000 0.000000 -0.313485
    6 10.596340 1.428856 2.027506 1.153646 -1.267866 3.628025
    7 6.028142 0.000000 0.000000 -1.171599 0.056269 -1.158383
    8 11.692558 0.000000 0.000001 0.000000 0.000000 -0.209091
    9 15.078859 2.830637 0.328135 3.065377 0.003631 0.124430
    10 3.890452 -0.148446 -0.000003 -1.389840 -0.419376 -1.648403
    11 17.848175 0.000000 0.000000 0.000000 0.000000 0.602096
    12 16.525248 0.000000 0.000000 -0.245448 -0.382654 -1.135292
    13 -3.890452 0.148446 0.000007 -1.308448 0.147918 -1.373422
    14 17.848171 0.000000 0.000000 0.000000 0.000000 0.555050
    15 16.525253 0.000000 0.000000 -0.069936 -0.041621 -0.887026
    16 11.479830 -0.000111 0.000311 -0.751091 0.006939 0.171305
  time 9
    0 -8.528852 -11.004428 37.035621 1.580635 0.003416 -0.021616
    1 0.000005 3.345128 -2.981901 1.570892 0.125291 1.577064
    2 7.536097 0.125004 -0.074221 0.114237 0.002996 0.174130
    3 10.803385 1.413236 -1.851670 -1.431745 1.271717 3.357940
    4 6.028143 0.000000 0.000000 0.976082 0.203608 -0.986103
    5 11.692554 0.000000 0.000008 0.000000 0.000000 -0.321883
    6 10.611966 1.424949 2.019694 1.200761 -1.274770 3.574881
    7 6.028142 0.000000 0.000000 -1.192305 0.033862 -1.153181
    8 11.692558 0.000000 0.000001 0.000000 0.000000 -0.202219
    9 15.090578 2.807199 0.300790 3.065800 0.008581 0.120679
    10 3.890452 -0.148446 -0.000003 -1.398061 -0.371526 -1.610683
    11 17.848175 0.000000 0.000000 0.000000 0.000000 0.574217
    12 16.525248 0.000000 0.000000 -0.272339 -0.346554 -1.143601
    13 -3.890452 0.148446 0.000007 -1.299809 0.093337 -1.384175
    14 17.848171 0.000000 0.000000 0.000000 0.000000 0.614304
    15 16.525253 0.000000 0.000000 -0.068228 -0.069975 -0.842092
    16 11.479830 -0.000111 0.000311 -0.751091 0.006939 0.171305
  time 10
    0 -9.655501 -12.189815 37.367662 1.580671 0.003416 -0.011764
    1 0.000005 3.345128 -2.981901 1.571000 0.125291 1.579089
    2 7.536097 0.128910 -0.066408 0.101605 0.000132 0.176409
    3 10.799478 1.405423 -1.863389 -1.380809 1.265113 3.408306
    4 6.028143 0.000000 0.000000 0.968497 0.179633 -1.000295
    5 11.692554 0.000000 0.000008 0.000000 0.000000 -0.333888
    6 10.627591 1.417136 2.007975 1.260662 -1.281109 3.509122
    7 6.028142 0.000000 0.000000 -1.217137 0.009066 -1.147261
    8 11.692558 0.000000 0.000001 0.000000 0.000000 -0.196613
    9 15.098390 2.787667 0.269539 3.066105 0.013303 0.117415
    10 3.890452 -0.148446 -0.000003 -1.406238 -0.310342 -1.571481
    11 17.848175 0.000000 0.000000 0.000000 0.000000 0.519085
    12 16.525248 0.000000 0.000000 -0.294380 -0.312880 -1.148603
    13 -3.890452 0.148446 0.000007 -1.298099 -0.013348 -1.433690
    14 17.848171 0.000000 0.000000 0.000000 0.000000 0.738010
    15 16.525253 0.000000 0.000000 -0.053818 -0.109724 -0.837667
    16 11.479830 -0.000111 0.000311 -0.751091 0.006939 0.171305
  time 11
    0 -10.782149 -13.375202 37.672359 1.580719 0.003416 0.002504
    1 0.000005 3.345128 -2.981901 1.571036 0.125291 1.580300
    2 7.536097 0.132817 -0.058596 0.087955 -0.000048 0.178089
    3 10.791666 1.401517 -1.871202 -1.326165 1.257755 3.463382
    4 6.028143 0.000000 0.000000 0.963047 0.152226 -1.013650
    5 11.692554 0.000000 0.000008 0.000000 0.000000 -0.346081
    6 10.639310 1.413230 2.000162 1.330830 -1.286059 3.433548
    7 6.028142 0.000000 0.000000 -1.240727 -0.017910 -1.139100
    8 11.692558 0.000000 0.000001 0.000000 0.000000 -0.193598
    9 15.106203 2.772041 0.242195 3.066293 0.017617 0.114817
    10 3.890452 -0.148446 -0.000003 -1.409745 -0.236988 -1.532036
    11 17.848175 0.000000 0.000000 0.000000 0.000000 0.436074
    12 16.525248 0.000000 0.000000 -0.312482 -0.281752 -1.144247
    13 -3.890452 0.148446 0.000007 -1.292241 -0.102645 -1.487062
    14 17.848171 0.000000 0.000000 0.000000 0.000000 0.813798
    15 16.525253 0.000000 0.000000 -0.027991 -0.137032 -0.852397
    16 11.479830 -0.000111 0.000311 -0.751091 0.006939 0.171305
  time 12
    0 -11.908797 -14.560590 37.883303 1.580779 0.003416 0.022694
    1 0.000005 3.345128 -2.981901 1.571012 0.125291 1.580563
    2 7.536097 0.136723 -0.058596 0.073645 0.002049 0.178759
    3 10.787759 1.397611 -1.879014 -1.270589 1.249773 3.520521
    4 6.028143 0.000000 0.000000 0.961729 0.122387 -1.026482
    5 11.692554 0.000000 0.000008 0.000000 0.000000 -0.357029
    6 10.647123 1.413230 1.996256 1.407674 -1.288899 3.352069
    7 6.028142 0.000000 0.000000 -1.260193 -0.046290 -1.127979
    8 11.692558 0.000000 0.000001 0.000000 0.000000 -0.194925
    9 15.114016 2.760322 0.218757 3.066364 0.021333 0.113145
    10 3.890452 -0.148446 -0.000003 -1.406930 -0.161440 -1.492590
    11 17.848175 0.000000 0.000000 0.000000 0.000000 0.343020
    12 16.525248 0.000000 0.000000 -0.327166 -0.252545 -1.134861
    13 -3.890452 0.148446 0.000007 -1.280844 -0.169818 -1.540451
    14 17.848171 0.000000 0.000000 0.000000 0.000000 0.843301
    15 16.525253 0.000000 0.000000 0.010251 -0.137999 -0.898668
    16 11.479830 -0.000111 0.000311 -0.751091 0.006939 0.171305
  time 13
    0 -13.035445 -15.745977 37.949711 1.580815 0.003416 0.031362
    1 0.000005 3.345128 -2.981901 1.570928 0.125291 1.580000
    2 7.536097 0.132817 -0.058596 0.059623 0.006220 0.178018
    3 10.783853 1.393704 -1.882921 -1.216241 1.241264 3.577660
    4 6.028143 0.000000 0.000000 0.948648 0.095684 -1.038233
    5 11.692554 0.000000 0.000008 0.000000 0.000000 -0.363933
    6 10.654936 1.413230 1.988443 1.487228 -1.289415 3.269019
    7 6.028142 0.000000 0.000000 -1.291580 -0.064023 -1.111022
    8 11.692558 0.000000 0.000001 0.000000 0.000000 -0.225066
    9 15.114016 2.760322 0.199225 3.066317 0.024473 0.112658
    10 3.890452 -0.148446 -0.000003 -1.415665 -0.085758 -1.450711
    11 17.848175 0.000000 0.000000 0.000000 0.000000 0.250855
    12 16.525248 0.000000 0.000000 -0.338179 -0.224652 -1.124078
    13 -3.890452 0.148446 0.000007 -1.282302 -0.221800 -1.591479
    14 17.848171 0.000000 0.000000 0.000000 0.000000 0.844588
    15 16.525253 0.000000 0.000000 0.068103 -0.104811 -0.981170
    16 11.479830 -0.000111 0.000311 -0.751091 0.006939 0.171305
  time 14
    0 -14.162093 -16.931364 37.898928 1.580827 0.003416 0.036746
    1 0.000005 3.345128 -2.981901 1.570844 0.125291 1.578826
    2 7.536097 0.128910 -0.066408 0.046800 0.012236 0.175981
    3 10.779946 1.397611 -1.886827 -1.164668 1.232503 3.633252
    4 6.028143 0.000000 0.000000 0.933182 0.072303 -1.049391
    5 11.692554 0.000000 0.000008 0.000000 0.000000 -0.362876
    6 10.658842 1.413230 1.984536 1.565458 -1.287521 3.188528
    7 6.028142 0.000000 0.000000 -1.325063 -0.079240 -1.089520
    8 11.692558 0.000000 0.000001 0.000000 0.000000 -0.271243
    9 15.114016 2.764229 0.179693 3.066176 0.026905 0.113421
    10 3.890452 -0.148446 -0.000003 -1.428824 -0.054767 -1.412659
    11 17.848175 0.000000 0.000000 0.000000 0.000000 0.244631
    12 16.525248 0.000000 0.000000 -0.352073 -0.183580 -1.117624
    13 -3.890452 0.148446 0.000007 -1.288685 -0.258713 -1.638600
    14 17.848171 0.000000 0.000000 0.000000 0.000000 0.820382
    15 16.525253 0.000000 0.000000 0.133400 -0.033839 -1.091055
    16 11.479830 -0.000111 0.000311 -0.751091 0.006939 0.171305
  time 15
    0 -15.288742 -18.116751 37.762205 1.580851 0.003416 0.043853
    1 0.000005 3.345128 -2.981901 1.570772 0.125291 1.577064
    2 7.536097 0.121098 -0.074221 0.035450 0.019858 0.173047
    3 10.772134 1.397611 -1.890734 -1.116963 1.224174 3.685891
    4 6.028143 0.000000 0.000000 0.920873 0.052540 -1.060776
    5 11.692554 0.000000 0.000008 0.000000 0.000000 -0.353359
    6 10.658842 1.417136 1.980630 1.638103 -1.283255 3.114848
    7 6.028142 0.000000 0.000000 -1.354153 -0.103198 -1.067594
    8 11.692558 0.000000 0.000001 0.000000 0.000000 -0.305484
    9 15.110110 2.775948 0.171880 3.065894 0.028296 0.115304
    10 3.890452 -0.148446 -0.000003 -1.442853 -0.078975 -1.377484
    11 17.848175 0.000000 0.000000 0.000000 0.000000 0.342916
    12 16.525248 0.000000 0.000000 -0.363698 -0.127391 -1.122572
    13 -3.890452 0.148446 0.000007 -1.295524 -0.265705 -1.675851
    14 17.848171 0.000000 0.000000 0.000000 0.000000 0.737168
    15 16.525253 0.000000 0.000000 0.172717 0.059608 -1.195683
    16 11.479830 -0.000111 0.000311 -0.751091 0.006939 0.171305
  time 16
    0 -16.415390 -19.302139 37.559074 1.580875 0.003416 0.050636
    1 0.000005 3.345128 -2.981901 1.570688 0.125291 1.574703
    2 7.536097 0.113285 -0.089846 0.025899 0.028871 0.169629
    3 10.768227 1.405423 -1.890734 -1.073717 1.216995 3.734710
    4 6.028143 0.000000 0.000000 0.910585 0.037621 -1.072562
    5 11.692554 0.000000 0.000008 0.000000 0.000000 -0.336501
    6 10.654936 1.424949 1.980630 1.701406 -1.276819 3.051769
    7 6.028142 0.000000 0.000000 -1.379370 -0.135498 -1.046684
    8 11.692558 0.000000 0.000001 0.000000 0.000000 -0.321520
    9 15.102297 2.791573 0.171880 3.065494 0.028284 0.118211
    10 3.890452 -0.148446 -0.000003 -1.459430 -0.105244 -1.338459
    11 17.848175 0.000000 0.000000 0.000000 0.000000 0.437748
    12 16.525248 0.000000 0.000000 -0.363519 -0.067578 -1.104339
    13 -3.890452 0.148446 0.000007 -1.305462 -0.238199 -1.702707
    14 17.848171 0.000000 0.000000 0.000000 0.000000 0.581731
    15 16.525253 0.000000 0.000000 0.174482 0.143339 -1.267791
    16 11.479830 -0.000111 0.000311 -0.751091 0.006939 0.171305
  time 17
    0 -17.542038 -20.487526 37.324692 1.580899 0.003404 0.056774
    1 0.000005 3.345128 -2.981901 1.570628 0.125291 1.571767
    2 7.536097 0.105472 -0.109378 0.018432 0.039034 0.166139
    3 10.768227 1.409330 -1.886827 -1.034565 1.212045 3.779756
    4 6.028143 0.000000 0.000000 0.902773 0.027805 -1.085063
    5 11.692554 0.000000 0.000008 0.000000 0.000000 -0.314667
    6 10.643217 1.432762 1.984536 1.752132 -1.268310 3.002455
    7 6.028142 0.000000 0.000000 -1.399792 -0.171193 -1.027296
    8 11.692558 0.000000 0.000001 0.000000 0.000000 -0.323148
    9 15.090578 2.818918 0.183599 3.064813 0.026150 0.122043
    10 3.890452 -0.148446 -0.000003 -1.479112 -0.126691 -1.294478
    11 17.848175 0.000000 0.000000 0.000000 0.000000 0.508467
    12 16.525248 0.000000 0.000000 -0.349476 -0.007917 -1.050502
    13 -3.890452 0.148446 0.000007 -1.314170 -0.254412 -1.743135
    14 17.848171 0.000000 0.000000 0.000000 0.000000 0.527180
    15 16.525253 0.000000 0.000000 0.157635 0.188699 -1.363302
    16 11.479830 -0.000111 0.000311 -0.751091 0.006939 0.171305
  time 18
    0 -18.668686 -21.672913 37.086403 1.580923 0.003404 0.061996
    1 0.000005 3.345128 -2.981901 1.570592 0.125291 1.568267
    2 7.536097 0.097659 -0.128910 0.013339 0.050132 0.162977
    3 10.768227 1.417142 -1.882921 -1.000214 1.209828 3.819973
    4 6.028143 0.000000 0.000000 0.897981 0.022739 -1.097406
    5 11.692554 0.000000 0.000008 0.000000 0.000000 -0.291713
    6 10.627591 1.440575 1.992349 1.788097 -1.258614 2.969081
    7 6.028142 0.000000 0.000000 -1.414546 -0.202047 -1.010973
    8 11.692558 0.000000 0.000001 0.000000 0.000000 -0.321339
    9 15.074952 2.846262 0.210944 3.063920 0.021920 0.126655
    10 3.890452 -0.148446 -0.000003 -1.500134 -0.137432 -1.248949
    11 17.848175 0.000000 0.000000 0.000000 0.000000 0.551411
    12 16.525248 0.000000 0.000000 -0.323271 0.044413 -0.970338
    13 -3.890452 0.148446 0.000007 -1.326183 -0.268769 -1.785822
    14 17.848171 0.000000 0.000000 0.000000 0.000000 0.502033
    15 16.525253 0.000000 0.000000 0.180795 0.190680 -1.377527
    16 11.479830 -0.000111 0.000311 -0.751091 0.006939 0.171305
  time 19
    0 -19.795335 -22.858300 36.867647 1.580935 0.003404 0.065981
    1 0.000005 3.345128 -2.981901 1.570592 0.125291 1.564204
    2 7.532191 0.093753 -0.156255 0.010942 0.061948 0.160584
    3 10.772134 1.424955 -1.871202 -0.973029 1.210272 3.852949
    4 6.028143 0.000000 0.000000 0.896868 0.021625 -1.107379
    5 11.692554 0.000000 0.000008 0.000000 0.000000 -0.273363
    6 10.611966 1.448387 2.000162 1.808484 -1.249374 2.952576
    7 6.028142 0.000000 0.000000 -1.422963 -0.217767 -1.000317
    8 11.692558 0.000000 0.000001 0.000000 0.000000 -0.331286
    9 15.059327 2.877513 0.242195 3.062957 0.016407 0.131965
    10 3.890452 -0.148446 -0.000003 -1.520731 -0.130149 -1.205742
    11 17.848175 0.000000 0.000000 0.000000 0.000000 0.564017
    12 16.525248 0.000000 0.000000 -0.289142 0.083817 -0.874495
    13 -3.890452 0.148446 0.000007 -1.341433 -0.271832 -1.825843
    14 17.848171 0.000000 0.000000 0.000000 0.000000 0.481440
    15 16.525253 0.000000 0.000000 0.250121 0.158744 -1.273196
    16 11.479830 -0.000111 0.000311 -0.751091 0.006939 0.171305
  time 20
    0 -20.921983 -24.043688 36.703579 1.580935 0.003404 0.068457
    1 0.000005 3.345128 -2.981901 1.570652 0.125279 1.559602
    2 7.532191 0.089847 -0.183599 0.011553 0.074257 0.159388
    3 10.776040 1.436674 -1.859483 -0.955671 1.213436 3.875870
    4 6.028143 0.000000 0.000000 0.900025 0.023351 -1.112348
    5 11.692554 0.000000 0.000008 0.000000 0.000000 -0.265960
    6 10.588528 1.460106 2.011881 1.812914 -1.242064 2.953402
    7 6.028142 0.000000 0.000000 -1.424187 -0.209949 -0.998224
    8 11.692558 0.000000 0.000001 0.000000 0.000000 -0.364442
    9 15.039795 2.912671 0.281259 3.062111 0.010391 0.137843
    10 3.890452 -0.148446 -0.000003 -1.542379 -0.134838 -1.164018
    11 17.848175 0.000000 0.000000 0.000000 0.000000 0.607693
    12 16.525248 0.000000 0.000000 -0.251297 0.114035 -0.798795
    13 -3.890452 0.148446 0.000007 -1.355976 -0.261157 -1.855060
    14 17.848171 0.000000 0.000000 0.000000 0.000000 0.454560
    15 16.525253 0.000000 0.000000 0.316934 0.102179 -1.138187
    16 11.479830 -0.000111 0.000311 -0.751091 0.006939 0.171305
  time 21
    0 -22.048631 -25.229075 36.625452 1.580947 0.003404 0.068780
    1 0.000005 3.345128 -2.981901 1.570640 0.125279 1.554689
    2 7.532191 0.089847 -0.214850 0.014813 0.086073 0.159815
    3 10.776040 1.448393 -1.847764 -0.950757 1.219128 3.885619
    4 6.028143 0.000000 0.000000 0.906565 0.027563 -1.110291
    5 11.692554 0.000000 0.000008 0.000000 0.000000 -0.273176
    6 10.568996 1.467919 2.019694 1.801661 -1.237809 2.970835
    7 6.028142 0.000000 0.000000 -1.418838 -0.181799 -1.003615
    8 11.692558 0.000000 0.000001 0.000000 0.000000 -0.417551
    9 15.020263 2.951734 0.316416 3.061430 0.004734 0.143721
    10 3.890452 -0.148446 -0.000003 -1.564988 -0.122701 -1.123776
    11 17.848175 0.000000 0.000000 0.000000 0.000000 0.610832
    12 16.525248 0.000000 0.000000 -0.213169 0.136332 -0.705776
    13 -3.890452 0.148446 0.000007 -1.364706 -0.257537 -1.870942
    14 17.848171 0.000000 0.000000 0.000000 0.000000 0.476242
    15 16.525253 0.000000 0.000000 0.351454 0.056010 -1.099697
    16 11.479830 -0.000111 0.000311 -0.751091 0.006939 0.171305
  time 22
    0 -23.175279 -26.414462 36.644984 1.580935 0.003404 0.066573
    1 0.000005 3.345128 -2.981901 1.570460 0.125267 1.549871
    2 7.528284 0.089847 -0.238289 0.019930 0.096045 0.161752
    3 10.779946 1.460112 -1.839951 -0.958105 1.226894 3.881870
    4 6.028143 0.000000 0.000000 0.914582 0.034281 -1.101974
    5 11.692554 0.000000 0.000008 0.000000 0.000000 -0.292584
    6 10.553370 1.475732 2.027506 1.776886 -1.236479 3.002092
    7 6.028142 0.000000 0.000000 -1.408913 -0.143484 -1.012580
    8 11.692558 0.000000 0.000001 0.000000 0.000000 -0.477594
    9 15.004638 2.982985 0.347667 3.060913 -0.000276 0.148966
    10 3.890452 -0.148446 -0.000003 -1.588557 -0.091610 -1.086322
    11 17.848175 0.000000 0.000000 0.000000 0.000000 0.568620
    12 16.525248 0.000000 0.000000 -0.176712 0.156590 -0.594310
    13 -3.890452 0.148446 0.000007 -1.364387 -0.241355 -1.860410
    14 17.848171 0.000000 0.000000 0.000000 0.000000 0.501637
    15 16.525253 0.000000 0.000000 0.343663 0.040573 -1.141661
    16 11.479830 -0.000111 0.000311 -0.751091 0.006939 0.171305
  time 23
    0 -24.301927 -27.599849 36.750456 1.580911 0.003404 0.061566
    1 0.000005 3.345128 -2.981901 1.570173 0.125255 1.545413
    2 7.528284 0.097659 -0.257820 0.026594 0.103391 0.164715
    3 10.779946 1.467925 -1.832138 -0.976964 1.236230 3.865394
    4 6.028143 0.000000 0.000000 0.923076 0.044301 -1.089718
    5 11.692554 0.000000 0.000008 0.000000 0.000000 -0.318150
    6 10.537745 1.483545 2.035319 1.740374 -1.237426 3.045078
    7 6.028142 0.000000 0.000000 -1.395214 -0.100054 -1.023744
    8 11.692558 0.000000 0.000001 0.000000 0.000000 -0.534562
    9 14.989012 3.010330 0.375011 3.060560 -0.004638 0.153464
    10 3.890452 -0.148446 -0.000003 -1.615186 -0.040535 -1.049487
    11 17.848175 0.000000 0.000000 0.000000 0.000000 0.505747
    12 16.525248 0.000000 0.000000 -0.139151 0.190263 -0.488034
    13 -3.890452 0.148446 0.000007 -1.359874 -0.220500 -1.834149
    14 17.848171 0.000000 0.000000 0.000000 0.000000 0.525893
    15 16.525253 0.000000 0.000000 0.311504 0.035200 -1.197673
    16 11.479830 -0.000111 0.000311 -0.751091 0.006939 0.171305
  time 24
    0 -25.428576 -28.785237 36.953587 1.580887 0.003416 0.054028
    1 0.000005 3.345128 -2.981901 1.569825 0.125243 1.541566
    2 7.528284 0.101566 -0.273446 0.034540 0.107741 0.168247
    3 10.779946 1.475738 -1.824325 -1.006743 1.246537 3.836824
    4 6.028143 0.000000 0.000000 0.931547 0.058441 -1.075421
    5 11.692554 0.000000 0.000008 0.000000 0.000000 -0.343655
    6 10.522119 1.487451 2.043132 1.693658 -1.239930 3.098061
    7 6.028142 0.000000 0.000000 -1.378230 -0.055198 -1.036007
    8 11.692558 0.000000 0.000001 0.000000 0.000000 -0.582005
    9 14.977293 3.029862 0.398450 3.060325 -0.008317 0.157086
    10 3.890452 -0.148446 -0.000003 -1.599481 -0.176270 -1.083844
    11 17.848175 0.000000 0.000000 0.000000 0.000000 0.756611
    12 16.525248 0.000000 0.000000 -0.147702 0.208296 -0.534691
    13 -3.890452 0.148446 0.000007 -1.358643 -0.182566 -1.803030
    14 17.848171 0.000000 0.000000 0.000000 0.000000 0.512676
    15 16.525253 0.000000 0.000000 0.277886 0.028211 -1.234677
    16 11.479830 -0.000111 0.000311 -0.751091 0.006939 0.171305
  time 25
    0 -26.555224 -29.970624 37.230939 1.580863 0.003416 0.044876
    1 0.000005 3.345128 -2.981901 1.569454 0.125231 1.538569
    2 7.524378 0.109378 -0.277352 0.043552 0.109479 0.171879
    3 10.783853 1.479644 -1.816513 -1.046805 1.257119 3.796747
    4 6.028143 0.000000 0.000000 0.940313 0.076924 -1.059974
    5 11.692554 0.000000 0.000008 0.000000 0.000000 -0.364493
    6 10.514307 1.491357 2.047038 1.638145 -1.243250 3.159245
    7 6.028142 0.000000 0.000000 -1.357708 -0.011852 -1.049010
    8 11.692558 0.000000 0.000001 0.000000 0.000000 -0.615884
    9 14.965574 3.045487 0.414075 3.060255 -0.011301 0.159716
    10 3.890452 -0.148446 -0.000003 -1.572270 -0.291987 -1.146829
    11 17.848175 0.000000 0.000000 0.000000 0.000000 0.962230
    12 16.525248 0.000000 0.000000 -0.172176 0.228790 -0.607864
    13 -3.890452 0.148446 0.000007 -1.359350 -0.128667 -1.767986
    14 17.848171 0.000000 0.000000 0.000000 0.000000 0.464708
    15 16.525253 0.000000 0.000000 0.242772 0.019113 -1.253773
    16 11.479830 -0.000111 0.000311 -0.751091 0.006939 0.171305
  time 26
    0 -27.681872 -31.156011 37.516104 1.580827 0.003416 0.035077
    1 0.000005 3.345128 -2.981901 1.569130 0.125219 1.536700
    2 7.524378 0.117191 -0.281259 0.053427 0.108976 0.175155
    3 10.783853 1.483551 -1.812606 -1.096170 1.267294 3.746124
    4 6.028143 0.000000 0.000000 0.949579 0.099247 -1.043829
    5 11.692554 0.000000 0.000008 0.000000 0.000000 -0.377930
    6 10.506494 1.495264 2.050945 1.575578 -1.246738 3.226677
    7 6.028142 0.000000 0.000000 -1.333664 0.027700 -1.062351
    8 11.692558 0.000000 0.000001 0.000000 0.000000 -0.633607
    9 14.961668 3.057206 0.429701 3.060278 -0.013579 0.161226
    10 3.890452 -0.148446 -0.000003 -1.532728 -0.375350 -1.238529
    11 17.848175 0.000000 0.000000 0.000000 0.000000 1.069040
    12 16.525248 0.000000 0.000000 -0.207603 0.219285 -0.693137
    13 -3.890452 0.148446 0.000007 -1.360649 -0.061276 -1.730344
    14 17.848171 0.000000 0.000000 0.000000 0.000000 0.387881
    15 16.525253 0.000000 0.000000 0.206219 0.007242 -1.257991
    16 11.479830 -0.000111 0.000311 -0.751091 0.006939 0.171305
  time 27
    0 -28.808520 -32.341398 37.750486 1.580791 0.003416 0.025493
    1 0.000005 3.345128 -2.981901 1.568890 0.125219 1.536196
    2 7.524378 0.121098 -0.281259 0.063974 0.106603 0.177591
    3 10.787759 1.483551 -1.808700 -1.153385 1.276391 3.686383
    4 6.028143 0.000000 0.000000 0.959390 0.124224 -1.027109
    5 11.692554 0.000000 0.000008 0.000000 0.000000 -0.382408
    6 10.502588 1.491357 2.054851 1.507950 -1.249854 3.298059
    7 6.028142 0.000000 0.000000 -1.306201 0.061677 -1.075840
    8 11.692558 0.000000 0.000001 0.000000 0.000000 -0.634150
    9 14.961668 3.057206 0.441420 3.060443 -0.015137 0.161486
    10 3.890452 -0.148446 -0.000003 -1.484875 -0.436633 -1.349277
    11 17.848175 0.000000 0.000000 0.000000 0.000000 1.099797
    12 16.525248 0.000000 0.000000 -0.225197 0.175938 -0.801699
    13 -3.890452 0.148446 0.000007 -1.361036 0.018954 -1.690528
    14 17.848171 0.000000 0.000000 0.000000 0.000000 0.284371
    15 16.525253 0.000000 0.000000 0.165905 -0.011143 -1.249051
    16 11.479830 -0.000111 0.000311 -0.751091 0.006939 0.171305
  time 28
    0 -29.935169 -33.526786 37.902835 1.580755 0.003416 0.015856
    1 0.000005 3.345128 -2.981901 1.568795 0.125219 1.537431
    2 7.524378 0.125004 -0.277352 0.074940 0.102468 0.178659
    3 10.791666 1.483551 -1.808700 -1.216537 1.283929 3.619401
    4 6.028143 0.000000 0.000000 0.968838 0.149331 -1.009082
    5 11.692554 0.000000 0.000008 0.000000 0.000000 -0.380604
    6 10.502588 1.491357 2.054851 1.437300 -1.252179 3.371053
    7 6.028142 0.000000 0.000000 -1.276591 0.089973 -1.089414
    8 11.692558 0.000000 0.000001 0.000000 0.000000 -0.617632
    9 14.961668 3.049394 0.445326 3.060725 -0.015999 0.160431
    10 3.890452 -0.148446 -0.000003 -1.435816 -0.484018 -1.465489
    11 17.848175 0.000000 0.000000 0.000000 0.000000 1.082692
    12 16.525248 0.000000 0.000000 -0.226600 0.120793 -0.895579
    13 -3.890452 0.148446 0.000007 -1.361105 0.075763 -1.656656
    14 17.848171 0.000000 0.000000 0.000000 0.000000 0.226998
    15 16.525253 0.000000 0.000000 0.122022 -0.038213 -1.235806
    16 11.479830 -0.000111 0.000311 -0.751091 0.006939 0.171305
  time 29
    0 -31.061817 -34.712173 37.977056 1.580719 0.003416 0.005357
    1 0.000005 3.345128 -2.981901 1.568843 0.125231 1.540259
    2 7.524378 0.125004 -0.269539 0.086109 0.096548 0.178360
    3 10.795572 1.479644 -1.808700 -1.282737 1.289634 3.548317
    4 6.028143 0.000000 0.000000 0.976446 0.173306 -0.990357
    5 11.692554 0.000000 0.000008 0.000000 0.000000 -0.374197
    6 10.506494 1.487451 2.058757 1.366313 -1.253413 3.443080
    7 6.028142 0.000000 0.000000 -1.247065 0.112191 -1.103072
    8 11.692558 0.000000 0.000001 0.000000 0.000000 -0.584778
    9 14.969480 3.037675 0.449232 3.061077 -0.016299 0.158222
    10 3.890452 -0.148446 -0.000003 -1.394598 -0.521459 -1.569733
    11 17.848175 0.000000 0.000000 0.000000 0.000000 1.032896
    12 16.525248 0.000000 0.000000 -0.217840 0.067216 -0.977572
    13 -3.890452 0.148446 0.000007 -1.362792 0.076412 -1.635032
    14 17.848171 0.000000 0.000000 0.000000 0.000000 0.282936
    15 16.525253 0.000000 0.000000 0.075375 -0.065014 -1.237914
    16 11.479830 -0.000111 0.000311 -0.751091 0.006939 0.171305
  time 30
    0 -32.188465 -35.897560 37.965337 1.580683 0.003416 -0.005788
    1 0.000005 3.345128 -2.981901 1.569010 0.125243 1.544202
    2 7.528284 0.121098 -0.257820 0.097279 0.089034 0.177007
    3 10.799478 1.475738 -1.808700 -1.348209 1.293361 3.477257
    4 6.028143 0.000000 0.000000 0.981692 0.195926 -0.972678
    5 11.692554 0.000000 0.000008 0.000000 0.000000 -0.362876
    6 10.510400 1.479638 2.058757 1.298286 -1.253569 3.510956
    7 6.028142 0.000000 0.000000 -1.219333 0.126947 -1.116942
    8 11.692558 0.000000 0.000001 0.000000 0.000000 -0.536792
    9 14.981199 3.018143 0.449232 3.061477 -0.016095 0.155153
    10 3.890452 -0.148446 -0.000003 -1.366405 -0.525184 -1.650438
    11 17.848175 0.000000 0.000000 0.000000 0.000000 0.914787
    12 16.525248 0.000000 0.000000 -0.210319 0.011330 -1.027778
    13 -3.890452 0.148446 0.000007 -1.365117 0.060787 -1.615871
    14 17.848171 0.000000 0.000000 0.000000 0.000000 0.370555
    15 16.525253 0.000000 0.000000 0.029631 -0.079880 -1.235212
    16 11.479830 -0.000111 0.000311 -0.751091 0.006939 0.171305
end
